<?xml version="1.0" encoding="utf-8"?>
<!-- Generator: Adobe Illustrator 10.0, SVG Export Plug-In . SVG Version: 3.0.0 Build 77)  -->
<!DOCTYPE svg PUBLIC "-//W3C//DTD SVG 1.0//EN"    "http://www.w3.org/TR/2001/REC-SVG-20010904/DTD/svg10.dtd" [
	<!ENTITY ns_flows "http://ns.adobe.com/Flows/1.0/">
	<!ENTITY ns_extend "http://ns.adobe.com/Extensibility/1.0/">
	<!ENTITY ns_ai "http://ns.adobe.com/AdobeIllustrator/10.0/">
	<!ENTITY ns_graphs "http://ns.adobe.com/Graphs/1.0/">
	<!ENTITY ns_vars "http://ns.adobe.com/Variables/1.0/">
	<!ENTITY ns_imrep "http://ns.adobe.com/ImageReplacement/1.0/">
	<!ENTITY ns_sfw "http://ns.adobe.com/SaveForWeb/1.0/">
	<!ENTITY ns_custom "http://ns.adobe.com/GenericCustomNamespace/1.0/">
	<!ENTITY ns_adobe_xpath "http://ns.adobe.com/XPath/1.0/">
	<!ENTITY ns_svg "http://www.w3.org/2000/svg">
	<!ENTITY ns_xlink "http://www.w3.org/1999/xlink">
]>
<svg xmlns:x="&ns_extend;" xmlns:i="&ns_ai;" xmlns:graph="&ns_graphs;" i:viewOrigin="242.7393 447.9194" i:rulerOrigin="-1 0.1104" i:pageBounds="1 841.8896 596 -0.1104" xmlns="&ns_svg;" xmlns:xlink="&ns_xlink;" xmlns:a="http://ns.adobe.com/AdobeSVGViewerExtensions/3.0/" width="114.753" height="54.235" viewBox="0 0 114.753 54.235" overflow="visible" enable-background="new 0 0 114.753 54.235" xml:space="preserve" id="svgObj" onload="parent.svgLoad('Top', document)">
	<metadata>
		<variableSets xmlns="&ns_vars;">
			<variableSet varSetName="binding1" locked="none">
				<variables></variables>
				<v:sampleDataSets xmlns="&ns_custom;" xmlns:v="&ns_vars;"></v:sampleDataSets>
			</variableSet>
		</variableSets>
		<sfw xmlns="&ns_sfw;">
			<slices></slices>
			<sliceSourceBounds x="218.13" y="388.709" width="159.74" height="63.362" bottomLeftOrigin="true"></sliceSourceBounds>
		</sfw>
	</metadata>
	<g id="レイヤー_1" i:layer="yes" i:dimmedPercent="100" i:rgbTrio="#4F008000FFFF">
		<path i:knockout="Off" fill="none" stroke="#000000" stroke-width="0.7" d="M0.602,10.235h113.55"/>
		<path i:knockout="Off" fill="none" stroke="#000000" stroke-width="0.7" d="M11.94,53.588V40.125H0.6"/>
		<g i:knockout="Off">
			<path i:knockout="Off" d="M4.805,48.663H4.102v-4.48c-0.169,0.162-0.391,0.323-0.666,0.484c-0.275,0.162-0.521,0.283-0.74,0.363
				v-0.68c0.393-0.185,0.737-0.408,1.031-0.672c0.294-0.263,0.502-0.518,0.625-0.766h0.453V48.663z"/>
			<path i:knockout="Off" d="M6.645,43.678v-0.672h3.703v0.544c-0.365,0.388-0.727,0.904-1.086,1.548
				c-0.359,0.645-0.636,1.307-0.832,1.988c-0.141,0.479-0.231,1.005-0.27,1.576H7.442c0.008-0.451,0.096-0.996,0.265-1.635
				c0.169-0.64,0.411-1.256,0.727-1.85c0.316-0.593,0.652-1.093,1.008-1.5H6.645z"/>
		</g>
		<path i:knockout="Off" fill="none" stroke="#000000" stroke-width="0.7" d="M23.337,53.588V40.125h-11.34"/>
		<g i:knockout="Off">
			<path i:knockout="Off" d="M16.203,48.663H15.5v-4.48c-0.169,0.162-0.391,0.323-0.666,0.484c-0.275,0.162-0.521,0.283-0.74,0.363
				v-0.68c0.393-0.185,0.737-0.408,1.031-0.672c0.294-0.263,0.502-0.518,0.625-0.766h0.453V48.663z"/>
			<path i:knockout="Off" d="M19.089,45.559c-0.292-0.106-0.508-0.259-0.648-0.457s-0.21-0.436-0.21-0.712
				c0-0.417,0.149-0.767,0.448-1.052c0.298-0.283,0.695-0.426,1.191-0.426c0.498,0,0.899,0.146,1.203,0.436
				c0.304,0.291,0.456,0.645,0.456,1.062c0,0.267-0.069,0.497-0.208,0.694c-0.139,0.196-0.349,0.349-0.631,0.455
				c0.35,0.114,0.616,0.299,0.799,0.554s0.274,0.559,0.274,0.912c0,0.489-0.173,0.899-0.519,1.232s-0.8,0.499-1.364,0.499
				s-1.019-0.167-1.365-0.501s-0.518-0.751-0.518-1.25c0-0.371,0.094-0.683,0.284-0.934S18.739,45.65,19.089,45.559z M18.714,47.01
				c0,0.2,0.046,0.394,0.138,0.58c0.093,0.188,0.233,0.332,0.423,0.434c0.19,0.104,0.393,0.154,0.608,0.154
				c0.34,0,0.619-0.107,0.834-0.323c0.216-0.215,0.324-0.489,0.324-0.821c0-0.338-0.111-0.616-0.333-0.837s-0.505-0.331-0.848-0.331
				c-0.335,0-0.61,0.109-0.825,0.327C18.821,46.411,18.714,46.683,18.714,47.01z M18.949,44.366c0,0.271,0.085,0.492,0.256,0.664
				c0.171,0.172,0.398,0.258,0.681,0.258c0.275,0,0.497-0.085,0.667-0.256c0.17-0.17,0.255-0.379,0.255-0.627
				c0-0.258-0.087-0.475-0.263-0.65s-0.397-0.264-0.667-0.264c-0.272,0-0.496,0.086-0.669,0.258S18.949,44.126,18.949,44.366z"/>
		</g>
		<path i:knockout="Off" fill="none" stroke="#000000" stroke-width="0.7" d="M34.682,53.588V40.125h-11.34"/>
		<g i:knockout="Off">
			<path i:knockout="Off" d="M27.547,48.663h-0.703v-4.48c-0.169,0.162-0.392,0.323-0.666,0.484
				c-0.275,0.162-0.521,0.283-0.74,0.363v-0.68c0.393-0.185,0.737-0.408,1.031-0.672c0.294-0.263,0.502-0.518,0.625-0.766h0.453
				V48.663z"/>
			<path i:knockout="Off" d="M29.434,47.334l0.672-0.063c0.057,0.318,0.167,0.549,0.328,0.691c0.161,0.144,0.368,0.215,0.621,0.215
				c0.216,0,0.407-0.049,0.572-0.147c0.165-0.099,0.299-0.229,0.4-0.395s0.188-0.387,0.258-0.667
				c0.07-0.279,0.105-0.565,0.105-0.857c0-0.031-0.001-0.078-0.004-0.141c-0.14,0.225-0.331,0.406-0.573,0.545
				c-0.242,0.14-0.505,0.209-0.787,0.209c-0.472,0-0.871-0.172-1.197-0.516c-0.326-0.345-0.489-0.798-0.489-1.361
				c0-0.581,0.171-1.049,0.514-1.404c0.342-0.354,0.771-0.531,1.287-0.531c0.372,0,0.713,0.101,1.021,0.301s0.543,0.486,0.703,0.856
				c0.16,0.371,0.24,0.907,0.24,1.61c0,0.731-0.08,1.313-0.239,1.747s-0.396,0.763-0.711,0.989c-0.315,0.227-0.684,0.34-1.107,0.34
				c-0.449,0-0.816-0.124-1.101-0.373C29.662,48.135,29.491,47.786,29.434,47.334z M32.324,44.809c0-0.404-0.106-0.725-0.319-0.963
				c-0.212-0.236-0.473-0.355-0.78-0.355c-0.318,0-0.592,0.128-0.822,0.384c-0.229,0.255-0.344,0.587-0.344,0.993
				c0,0.365,0.109,0.662,0.327,0.891c0.218,0.228,0.491,0.342,0.82,0.342c0.326,0,0.594-0.114,0.804-0.342
				C32.219,45.53,32.324,45.213,32.324,44.809z"/>
		</g>
		<path i:knockout="Off" fill="none" stroke="#000000" stroke-width="0.7" d="M68.718,40.125H34.739"/>
		<g i:knockout="Off">
			<path i:knockout="Off" d="M39.983,47.991v0.672h-3.797c-0.005-0.169,0.022-0.332,0.083-0.488c0.097-0.258,0.252-0.511,0.467-0.76
				c0.214-0.248,0.521-0.537,0.92-0.864c0.62-0.517,1.04-0.923,1.261-1.221s0.332-0.58,0.332-0.849c0-0.277-0.1-0.513-0.299-0.703
				c-0.2-0.191-0.46-0.287-0.781-0.287c-0.339,0-0.61,0.104-0.814,0.311c-0.204,0.208-0.307,0.494-0.309,0.861l-0.719-0.094
				c0.049-0.539,0.235-0.949,0.558-1.232c0.323-0.282,0.756-0.424,1.3-0.424c0.549,0,0.983,0.152,1.303,0.457s0.48,0.683,0.48,1.133
				c0,0.229-0.047,0.455-0.14,0.677c-0.094,0.222-0.248,0.454-0.465,0.699c-0.216,0.245-0.576,0.581-1.081,1.009
				c-0.423,0.355-0.695,0.596-0.815,0.723c-0.12,0.126-0.219,0.253-0.297,0.381H39.983z"/>
			<path i:knockout="Off" d="M40.737,45.836c0-0.677,0.07-1.223,0.211-1.638c0.14-0.415,0.349-0.733,0.626-0.954
				c0.277-0.222,0.626-0.332,1.046-0.332c0.31,0,0.583,0.063,0.819,0.186s0.429,0.302,0.579,0.535
				c0.149,0.232,0.268,0.516,0.354,0.851c0.086,0.335,0.13,0.785,0.13,1.353c0,0.672-0.069,1.215-0.209,1.63
				c-0.139,0.415-0.347,0.733-0.624,0.956c-0.277,0.223-0.627,0.334-1.05,0.334c-0.557,0-0.994-0.195-1.312-0.586
				C40.928,47.69,40.737,46.912,40.737,45.836z M41.456,45.834c0,0.945,0.112,1.572,0.336,1.881c0.224,0.309,0.5,0.463,0.828,0.463
				c0.328,0,0.604-0.154,0.828-0.465c0.224-0.31,0.336-0.936,0.336-1.879c0-0.942-0.111-1.568-0.334-1.879
				c-0.223-0.31-0.502-0.465-0.838-0.465c-0.329,0-0.592,0.137-0.791,0.41C41.578,44.25,41.456,44.895,41.456,45.834z"/>
		</g>
		<path i:knockout="Off" fill="none" stroke="#000000" stroke-width="1.2" d="M0.6,26.714v13.46"/>
		<path i:knockout="Off" fill="none" stroke="#000000" stroke-width="0.7" d="M11.94,40.174v-13.46H0.6"/>
		<g i:knockout="Off">
			<path i:knockout="Off" d="M4.42,30.266v-0.672h3.703v0.544c-0.365,0.388-0.727,0.904-1.086,1.548
				c-0.359,0.645-0.636,1.307-0.832,1.988c-0.141,0.479-0.231,1.005-0.27,1.576H5.217c0.008-0.451,0.096-0.996,0.265-1.635
				c0.169-0.64,0.411-1.256,0.727-1.85c0.316-0.593,0.652-1.093,1.008-1.5H4.42z"/>
		</g>
		<path i:knockout="Off" fill="none" stroke="#000000" stroke-width="0.7" d="M23.342,26.696V10.235"/>
		<g i:knockout="Off">
			<path i:knockout="Off" d="M13.03,21.771h-0.703v-4.48c-0.169,0.162-0.391,0.323-0.666,0.484c-0.275,0.162-0.521,0.283-0.74,0.363
				v-0.68c0.393-0.185,0.737-0.409,1.031-0.672c0.294-0.263,0.502-0.518,0.625-0.766h0.453V21.771z"/>
		</g>
		<path i:knockout="Off" fill="none" stroke="#000000" stroke-width="0.7" d="M46.099,53.286V10.116"/>
		<path i:knockout="Off" fill="none" stroke="#000000" stroke-width="0.7" d="M23.357,26.696h22.742"/>
		<g i:knockout="Off">
			<path i:knockout="Off" d="M36.826,21.099v0.672h-3.797c-0.005-0.169,0.022-0.332,0.083-0.488c0.098-0.258,0.253-0.511,0.467-0.76
				c0.214-0.249,0.521-0.537,0.92-0.864c0.619-0.516,1.04-0.923,1.261-1.221c0.221-0.298,0.332-0.58,0.332-0.849
				c0-0.278-0.1-0.513-0.299-0.704c-0.2-0.191-0.46-0.287-0.781-0.287c-0.339,0-0.611,0.104-0.814,0.311
				c-0.204,0.208-0.307,0.494-0.309,0.861l-0.719-0.094c0.049-0.539,0.235-0.95,0.558-1.232c0.322-0.282,0.755-0.424,1.299-0.424
				c0.549,0,0.983,0.152,1.303,0.457c0.32,0.305,0.48,0.683,0.48,1.133c0,0.229-0.046,0.455-0.14,0.676
				c-0.093,0.221-0.248,0.454-0.464,0.699c-0.217,0.245-0.577,0.581-1.081,1.009c-0.423,0.355-0.695,0.596-0.814,0.722
				c-0.12,0.126-0.219,0.253-0.297,0.381H36.826z"/>
		</g>
		<path i:knockout="Off" fill="none" stroke="#000000" stroke-width="0.7" d="M68.825,26.696h22.57V10.235"/>
		<path i:knockout="Off" fill="none" stroke="#000000" stroke-width="0.7" d="M68.653,10.116v30.158"/>
		<g i:knockout="Off">
			<path i:knockout="Off" d="M78.427,20.271l0.719-0.063c0.055,0.358,0.182,0.627,0.379,0.808c0.198,0.181,0.441,0.271,0.73,0.271
				c0.348,0,0.639-0.127,0.871-0.382c0.231-0.254,0.348-0.592,0.348-1.013c0-0.399-0.111-0.715-0.332-0.946
				c-0.222-0.231-0.519-0.347-0.891-0.347c-0.232,0-0.438,0.051-0.617,0.152s-0.322,0.233-0.426,0.395l-0.656-0.094l0.563-2.938
				h2.844v0.672h-2.285l-0.313,1.549c0.344-0.241,0.704-0.361,1.082-0.361c0.5,0,0.922,0.173,1.266,0.519s0.516,0.791,0.516,1.334
				c0,0.518-0.151,0.965-0.453,1.343c-0.367,0.463-0.869,0.694-1.504,0.694c-0.521,0-0.946-0.146-1.275-0.437
				C78.661,21.137,78.474,20.751,78.427,20.271z"/>
		</g>
		<path i:knockout="Off" fill="none" stroke="#000000" stroke-width="1.2" d="M114.153,26.696V0.6H87.309v9.635h-5.37v-7.43H32.946
			v7.43h-5.728V0.614H0.6v26.082"/>
		<path i:knockout="Off" fill="none" stroke="#000000" stroke-width="0.7" d="M91.411,26.696h22.742"/>
		<g i:knockout="Off">
			<path i:knockout="Off" d="M104.856,17.443l-0.703,0.063c-0.063-0.277-0.152-0.479-0.268-0.604
				c-0.191-0.201-0.428-0.302-0.708-0.302c-0.226,0-0.426,0.063-0.602,0.187c-0.218,0.161-0.391,0.396-0.52,0.705
				c-0.128,0.309-0.195,0.75-0.2,1.323c0.17-0.258,0.378-0.449,0.623-0.574c0.246-0.125,0.504-0.188,0.773-0.188
				c0.47,0,0.871,0.173,1.201,0.518c0.33,0.345,0.496,0.791,0.496,1.338c0,0.359-0.078,0.693-0.233,1.002s-0.369,0.545-0.642,0.709
				c-0.271,0.164-0.58,0.246-0.926,0.246c-0.588,0-1.068-0.215-1.439-0.646s-0.557-1.14-0.557-2.129c0-1.106,0.205-1.91,0.617-2.413
				c0.359-0.437,0.843-0.656,1.451-0.656c0.453,0,0.824,0.126,1.113,0.378C104.625,16.651,104.799,16.999,104.856,17.443z
				 M101.966,19.914c0,0.242,0.052,0.474,0.155,0.694c0.104,0.221,0.247,0.39,0.43,0.505c0.183,0.116,0.38,0.174,0.589,0.174
				c0.304,0,0.562-0.12,0.773-0.359s0.318-0.564,0.318-0.975c0-0.395-0.104-0.707-0.314-0.934c-0.209-0.228-0.478-0.341-0.805-0.341
				c-0.319,0-0.59,0.114-0.813,0.341S101.966,19.544,101.966,19.914z"/>
		</g>
		<path i:knockout="Off" fill="none" stroke="#000000" stroke-width="0.7" d="M23.337,40.174v-13.46h-11.34"/>
		<path i:knockout="Off" fill="none" stroke="#000000" stroke-width="1.2" d="M11.998,40.174"/>
		<g i:knockout="Off">
			<path i:knockout="Off" d="M16.864,32.147c-0.292-0.106-0.508-0.259-0.648-0.457s-0.21-0.436-0.21-0.712
				c0-0.417,0.149-0.767,0.448-1.052c0.298-0.283,0.695-0.426,1.191-0.426c0.498,0,0.899,0.146,1.203,0.436
				c0.304,0.291,0.456,0.645,0.456,1.062c0,0.267-0.069,0.497-0.208,0.694c-0.139,0.196-0.349,0.349-0.631,0.455
				c0.35,0.114,0.616,0.299,0.799,0.554s0.274,0.559,0.274,0.912c0,0.489-0.173,0.899-0.519,1.232s-0.8,0.499-1.364,0.499
				s-1.019-0.167-1.365-0.501s-0.518-0.751-0.518-1.25c0-0.371,0.094-0.683,0.284-0.934S16.514,32.238,16.864,32.147z M16.49,33.598
				c0,0.2,0.046,0.394,0.138,0.58c0.093,0.188,0.233,0.332,0.423,0.434c0.19,0.104,0.393,0.154,0.608,0.154
				c0.34,0,0.619-0.107,0.834-0.323c0.216-0.215,0.324-0.489,0.324-0.821c0-0.338-0.111-0.616-0.333-0.837s-0.505-0.331-0.848-0.331
				c-0.335,0-0.61,0.109-0.825,0.327C16.597,32.999,16.49,33.271,16.49,33.598z M16.724,30.954c0,0.271,0.085,0.492,0.256,0.664
				c0.171,0.172,0.398,0.258,0.681,0.258c0.275,0,0.497-0.085,0.667-0.256c0.17-0.17,0.255-0.379,0.255-0.627
				c0-0.258-0.087-0.475-0.263-0.65s-0.397-0.264-0.667-0.264c-0.272,0-0.496,0.086-0.669,0.258S16.724,30.714,16.724,30.954z"/>
		</g>
		<path i:knockout="Off" fill="none" stroke="#000000" stroke-width="1.2" d="M23.342,26.714"/>
		<path i:knockout="Off" fill="none" stroke="#000000" stroke-width="0.7" d="M34.682,40.174v-13.46"/>
		<path i:knockout="Off" fill="none" stroke="#000000" stroke-width="1.2" d="M23.342,40.174"/>
		<g i:knockout="Off">
			<path i:knockout="Off" d="M27.209,33.922l0.672-0.063c0.057,0.318,0.167,0.549,0.328,0.691c0.161,0.144,0.368,0.215,0.621,0.215
				c0.216,0,0.407-0.049,0.572-0.147c0.165-0.099,0.299-0.229,0.4-0.395s0.188-0.387,0.258-0.667
				c0.07-0.279,0.105-0.565,0.105-0.857c0-0.031-0.001-0.078-0.004-0.141c-0.14,0.225-0.331,0.406-0.573,0.545
				c-0.242,0.14-0.505,0.209-0.787,0.209c-0.472,0-0.871-0.172-1.197-0.516c-0.326-0.345-0.489-0.798-0.489-1.361
				c0-0.581,0.171-1.049,0.514-1.404c0.342-0.354,0.771-0.531,1.287-0.531c0.372,0,0.713,0.101,1.021,0.301s0.543,0.486,0.703,0.856
				c0.16,0.371,0.24,0.907,0.24,1.61c0,0.731-0.08,1.313-0.239,1.747s-0.396,0.763-0.711,0.989c-0.315,0.227-0.684,0.34-1.107,0.34
				c-0.449,0-0.816-0.124-1.101-0.373C27.438,34.723,27.267,34.374,27.209,33.922z M30.1,31.397c0-0.404-0.106-0.725-0.319-0.963
				c-0.212-0.236-0.473-0.355-0.78-0.355c-0.318,0-0.592,0.128-0.822,0.384c-0.229,0.255-0.344,0.587-0.344,0.993
				c0,0.365,0.109,0.662,0.327,0.891c0.218,0.228,0.491,0.342,0.82,0.342c0.326,0,0.594-0.114,0.804-0.342
				C29.995,32.118,30.1,31.801,30.1,31.397z"/>
		</g>
		<path i:knockout="Off" fill="none" stroke="#000000" stroke-width="1.2" d="M34.739,26.714"/>
		<path i:knockout="Off" fill="none" stroke="#000000" stroke-width="1.2" d="M34.739,40.174"/>
		<g i:knockout="Off">
			<path i:knockout="Off" d="M38.944,35.25h-0.703v-4.48c-0.169,0.162-0.392,0.323-0.666,0.484c-0.275,0.162-0.521,0.283-0.74,0.363
				v-0.68c0.393-0.185,0.737-0.408,1.031-0.672c0.294-0.263,0.502-0.518,0.625-0.766h0.453V35.25z"/>
			<path i:knockout="Off" d="M40.737,32.424c0-0.677,0.07-1.223,0.211-1.638c0.14-0.415,0.349-0.733,0.626-0.954
				C41.852,29.611,42.2,29.5,42.62,29.5c0.31,0,0.583,0.063,0.819,0.186s0.429,0.302,0.579,0.535
				c0.149,0.232,0.268,0.516,0.354,0.851c0.086,0.335,0.13,0.785,0.13,1.353c0,0.672-0.069,1.215-0.209,1.63
				c-0.139,0.415-0.347,0.733-0.624,0.956c-0.277,0.223-0.627,0.334-1.05,0.334c-0.557,0-0.994-0.195-1.312-0.586
				C40.928,34.278,40.737,33.5,40.737,32.424z M41.456,32.422c0,0.945,0.112,1.572,0.336,1.881c0.224,0.309,0.5,0.463,0.828,0.463
				c0.328,0,0.604-0.154,0.828-0.465c0.224-0.31,0.336-0.936,0.336-1.879c0-0.942-0.111-1.568-0.334-1.879
				c-0.223-0.31-0.502-0.465-0.838-0.465c-0.329,0-0.592,0.137-0.791,0.41C41.578,30.838,41.456,31.483,41.456,32.422z"/>
		</g>
		<path i:knockout="Off" fill="none" stroke="#000000" stroke-width="0.7" d="M57.39,40.27V26.714h-11.34"/>
		<g i:knockout="Off">
			<path i:knockout="Off" d="M50.254,35.25h-0.703v-4.48c-0.169,0.162-0.391,0.323-0.666,0.484c-0.275,0.162-0.521,0.283-0.74,0.363
				v-0.68c0.393-0.185,0.737-0.408,1.031-0.672c0.294-0.263,0.502-0.518,0.625-0.766h0.453V35.25z"/>
			<path i:knockout="Off" d="M54.704,35.25H54v-4.48c-0.169,0.162-0.391,0.323-0.666,0.484c-0.275,0.162-0.521,0.283-0.74,0.363
				v-0.68c0.393-0.185,0.737-0.408,1.031-0.672c0.294-0.263,0.502-0.518,0.625-0.766h0.453V35.25z"/>
		</g>
		<path i:knockout="Off" fill="none" stroke="#000000" stroke-width="0.7" d="M68.673,53.561V40.174h11.34v-13.46"/>
		<g i:knockout="Off">
			<path i:knockout="Off" d="M72.878,35.25h-0.703v-4.48c-0.17,0.162-0.392,0.323-0.666,0.484c-0.275,0.162-0.521,0.283-0.74,0.363
				v-0.68c0.393-0.185,0.736-0.408,1.031-0.672c0.294-0.263,0.502-0.518,0.625-0.766h0.453V35.25z"/>
			<path i:knockout="Off" d="M74.687,33.75l0.719-0.094c0.08,0.393,0.215,0.676,0.404,0.85c0.19,0.173,0.426,0.26,0.707,0.26
				c0.333,0,0.611-0.115,0.835-0.344c0.224-0.23,0.335-0.515,0.335-0.854c0-0.323-0.104-0.59-0.313-0.801
				c-0.21-0.209-0.476-0.314-0.798-0.314c-0.132,0-0.296,0.026-0.492,0.078l0.078-0.625c0.046,0.006,0.083,0.008,0.111,0.008
				c0.295,0,0.56-0.077,0.795-0.232c0.235-0.154,0.354-0.394,0.354-0.717c0-0.256-0.086-0.467-0.26-0.635
				c-0.172-0.168-0.396-0.252-0.668-0.252c-0.271,0-0.497,0.086-0.678,0.258c-0.18,0.172-0.296,0.43-0.348,0.773l-0.719-0.125
				c0.086-0.471,0.28-0.836,0.584-1.096c0.305-0.259,0.683-0.389,1.135-0.389c0.312,0,0.599,0.066,0.861,0.2
				c0.262,0.134,0.463,0.315,0.602,0.546c0.14,0.23,0.209,0.476,0.209,0.735c0,0.246-0.066,0.47-0.199,0.673
				c-0.133,0.201-0.33,0.362-0.59,0.481c0.338,0.078,0.604,0.241,0.797,0.487c0.192,0.246,0.289,0.555,0.289,0.925
				c0,0.501-0.183,0.926-0.547,1.273c-0.365,0.349-0.826,0.522-1.383,0.522c-0.503,0-0.92-0.147-1.252-0.443
				S74.733,34.221,74.687,33.75z"/>
		</g>
		<path i:knockout="Off" fill="none" stroke="#000000" stroke-width="1.2" d="M80.07,26.714"/>
		<path i:knockout="Off" fill="none" stroke="#000000" stroke-width="0.7" d="M80.07,40.174h11.34v-13.46"/>
		<g i:knockout="Off">
			<path i:knockout="Off" d="M84.275,35.25h-0.703v-4.48c-0.169,0.162-0.392,0.323-0.666,0.484c-0.274,0.162-0.521,0.283-0.74,0.363
				v-0.68c0.394-0.185,0.737-0.408,1.031-0.672c0.294-0.263,0.503-0.518,0.625-0.766h0.453V35.25z"/>
			<path i:knockout="Off" d="M88.318,35.25v-1.375h-2.484v-0.641l2.625-3.719h0.563v3.719h0.781v0.641h-0.781v1.375H88.318z
				 M88.318,33.235v-2.566l-1.792,2.566H88.318z"/>
		</g>
		<path i:knockout="Off" fill="none" stroke="#000000" stroke-width="1.2" d="M91.415,26.714"/>
		<path i:knockout="Off" fill="none" stroke="#000000" stroke-width="0.7" d="M91.415,40.174h11.34v-13.46"/>
		<g i:knockout="Off">
			<path i:knockout="Off" d="M95.62,35.25h-0.703v-4.48c-0.17,0.162-0.392,0.323-0.666,0.484c-0.275,0.162-0.521,0.283-0.74,0.363
				v-0.68c0.393-0.185,0.736-0.408,1.031-0.672c0.294-0.263,0.502-0.518,0.625-0.766h0.453V35.25z"/>
			<path i:knockout="Off" d="M97.413,33.75l0.719-0.063c0.055,0.358,0.182,0.627,0.379,0.808c0.198,0.181,0.441,0.271,0.73,0.271
				c0.348,0,0.639-0.127,0.871-0.382c0.231-0.254,0.348-0.592,0.348-1.013c0-0.399-0.111-0.715-0.332-0.946
				c-0.222-0.231-0.519-0.347-0.891-0.347c-0.232,0-0.438,0.051-0.617,0.152s-0.322,0.232-0.426,0.395l-0.656-0.094l0.563-2.938
				h2.844v0.672h-2.285l-0.313,1.549c0.344-0.24,0.704-0.361,1.082-0.361c0.5,0,0.922,0.173,1.266,0.52
				c0.344,0.346,0.516,0.791,0.516,1.334c0,0.518-0.151,0.965-0.453,1.343c-0.367,0.463-0.869,0.694-1.504,0.694
				c-0.521,0-0.946-0.146-1.275-0.437C97.647,34.617,97.46,34.231,97.413,33.75z"/>
		</g>
		<path i:knockout="Off" fill="none" stroke="#000000" stroke-width="1.2" d="M102.812,26.714"/>
		<path i:knockout="Off" fill="none" stroke="#000000" stroke-width="1.2" d="M114.151,40.174v-13.46"/>
		<path i:knockout="Off" fill="none" stroke="#000000" stroke-width="0.7" d="M102.812,40.174h11.34"/>
		<g i:knockout="Off">
			<path i:knockout="Off" d="M107.017,35.25h-0.703v-4.48c-0.17,0.162-0.392,0.323-0.666,0.484c-0.275,0.162-0.521,0.283-0.74,0.363
				v-0.68c0.393-0.185,0.736-0.408,1.031-0.672c0.294-0.263,0.502-0.518,0.625-0.766h0.453V35.25z"/>
			<path i:knockout="Off" d="M112.481,30.922l-0.703,0.063c-0.063-0.277-0.152-0.479-0.268-0.604
				c-0.191-0.201-0.428-0.302-0.708-0.302c-0.226,0-0.426,0.063-0.602,0.188c-0.218,0.16-0.391,0.396-0.52,0.705
				c-0.128,0.309-0.195,0.75-0.2,1.322c0.17-0.258,0.378-0.449,0.623-0.574c0.246-0.125,0.504-0.188,0.773-0.188
				c0.47,0,0.871,0.173,1.201,0.518c0.33,0.346,0.496,0.791,0.496,1.338c0,0.359-0.078,0.693-0.233,1.002s-0.369,0.545-0.642,0.709
				c-0.271,0.164-0.58,0.246-0.926,0.246c-0.588,0-1.068-0.215-1.439-0.646c-0.371-0.43-0.557-1.14-0.557-2.129
				c0-1.105,0.205-1.91,0.617-2.412c0.359-0.438,0.843-0.656,1.451-0.656c0.453,0,0.824,0.126,1.113,0.378
				C112.25,30.13,112.424,30.478,112.481,30.922z M109.591,33.393c0,0.242,0.052,0.474,0.155,0.694
				c0.104,0.222,0.247,0.39,0.43,0.505c0.183,0.116,0.38,0.174,0.589,0.174c0.304,0,0.562-0.119,0.773-0.359
				c0.212-0.238,0.318-0.563,0.318-0.975c0-0.395-0.104-0.707-0.314-0.934c-0.209-0.229-0.478-0.342-0.805-0.342
				c-0.319,0-0.59,0.113-0.813,0.342C109.702,32.725,109.591,33.024,109.591,33.393z"/>
		</g>
		<path i:knockout="Off" fill="none" stroke="#000000" stroke-width="0.7" d="M80.013,53.635V40.174"/>
		<g i:knockout="Off">
			<path i:knockout="Off" d="M73.917,48.038v0.672H70.12c-0.006-0.169,0.022-0.332,0.083-0.488c0.097-0.258,0.253-0.511,0.467-0.76
				c0.214-0.248,0.521-0.537,0.92-0.864c0.62-0.517,1.04-0.923,1.261-1.221c0.222-0.298,0.332-0.58,0.332-0.849
				c0-0.277-0.1-0.513-0.299-0.703c-0.2-0.191-0.461-0.287-0.781-0.287c-0.34,0-0.61,0.104-0.814,0.311
				c-0.203,0.208-0.307,0.494-0.309,0.861l-0.719-0.094c0.049-0.539,0.235-0.949,0.558-1.232c0.323-0.282,0.756-0.424,1.3-0.424
				c0.549,0,0.983,0.152,1.303,0.457c0.32,0.305,0.48,0.683,0.48,1.133c0,0.229-0.047,0.455-0.14,0.677
				c-0.094,0.222-0.248,0.454-0.465,0.699c-0.216,0.245-0.576,0.581-1.081,1.009c-0.423,0.355-0.694,0.596-0.814,0.723
				c-0.119,0.126-0.219,0.253-0.297,0.381H73.917z"/>
			<path i:knockout="Off" d="M77.327,48.709h-0.703v-4.48c-0.17,0.162-0.392,0.323-0.666,0.484c-0.275,0.162-0.521,0.283-0.74,0.363
				v-0.68c0.393-0.185,0.736-0.408,1.031-0.672c0.294-0.263,0.502-0.518,0.625-0.766h0.453V48.709z"/>
		</g>
		<path i:knockout="Off" fill="none" stroke="#000000" stroke-width="1.2" d="M80.07,40.174"/>
		<path i:knockout="Off" fill="none" stroke="#000000" stroke-width="0.7" d="M91.41,53.635V40.174"/>
		<g i:knockout="Off">
			<path i:knockout="Off" d="M85.314,48.038v0.672h-3.797c-0.005-0.169,0.022-0.332,0.083-0.488c0.097-0.258,0.252-0.511,0.467-0.76
				c0.214-0.248,0.521-0.537,0.92-0.864c0.62-0.517,1.04-0.923,1.262-1.221c0.221-0.298,0.331-0.58,0.331-0.849
				c0-0.277-0.1-0.513-0.3-0.703c-0.199-0.191-0.459-0.287-0.78-0.287c-0.339,0-0.61,0.104-0.813,0.311
				c-0.204,0.208-0.307,0.494-0.31,0.861l-0.719-0.094c0.05-0.539,0.235-0.949,0.558-1.232c0.322-0.282,0.756-0.424,1.3-0.424
				c0.549,0,0.983,0.152,1.304,0.457c0.319,0.305,0.479,0.683,0.479,1.133c0,0.229-0.047,0.455-0.14,0.677
				c-0.094,0.222-0.248,0.454-0.465,0.699c-0.216,0.245-0.576,0.581-1.08,1.009c-0.424,0.355-0.695,0.596-0.815,0.723
				c-0.12,0.126-0.219,0.253-0.297,0.381H85.314z"/>
			<path i:knockout="Off" d="M89.764,48.038v0.672h-3.797c-0.005-0.169,0.022-0.332,0.083-0.488c0.097-0.258,0.252-0.511,0.467-0.76
				c0.214-0.248,0.521-0.537,0.92-0.864c0.62-0.517,1.04-0.923,1.262-1.221c0.221-0.298,0.331-0.58,0.331-0.849
				c0-0.277-0.1-0.513-0.3-0.703c-0.199-0.191-0.459-0.287-0.78-0.287c-0.339,0-0.61,0.104-0.813,0.311
				c-0.204,0.208-0.307,0.494-0.31,0.861l-0.719-0.094c0.05-0.539,0.235-0.949,0.558-1.232c0.322-0.282,0.756-0.424,1.3-0.424
				c0.549,0,0.983,0.152,1.304,0.457c0.319,0.305,0.479,0.683,0.479,1.133c0,0.229-0.047,0.455-0.14,0.677
				c-0.094,0.222-0.248,0.454-0.465,0.699c-0.216,0.245-0.576,0.581-1.08,1.009c-0.424,0.355-0.695,0.596-0.815,0.723
				c-0.12,0.126-0.219,0.253-0.297,0.381H89.764z"/>
		</g>
		<path i:knockout="Off" fill="none" stroke="#000000" stroke-width="1.2" d="M91.415,40.174"/>
		<path i:knockout="Off" fill="none" stroke="#000000" stroke-width="0.7" d="M102.755,53.635V40.174"/>
		<g i:knockout="Off">
			<path i:knockout="Off" d="M96.659,48.038v0.672h-3.797c-0.006-0.169,0.022-0.332,0.083-0.488c0.097-0.258,0.253-0.511,0.467-0.76
				c0.214-0.248,0.521-0.537,0.92-0.864c0.62-0.517,1.04-0.923,1.261-1.221c0.222-0.298,0.332-0.58,0.332-0.849
				c0-0.277-0.1-0.513-0.299-0.703c-0.2-0.191-0.461-0.287-0.781-0.287c-0.34,0-0.61,0.104-0.814,0.311
				c-0.203,0.208-0.307,0.494-0.309,0.861l-0.719-0.094c0.049-0.539,0.235-0.949,0.558-1.232c0.323-0.282,0.756-0.424,1.3-0.424
				c0.549,0,0.983,0.152,1.303,0.457c0.32,0.305,0.48,0.683,0.48,1.133c0,0.229-0.047,0.455-0.14,0.677
				c-0.094,0.222-0.248,0.454-0.465,0.699c-0.216,0.245-0.576,0.581-1.081,1.009c-0.423,0.355-0.694,0.596-0.814,0.723
				c-0.119,0.126-0.219,0.253-0.297,0.381H96.659z"/>
			<path i:knockout="Off" d="M97.429,47.209l0.719-0.094c0.08,0.393,0.215,0.676,0.404,0.85c0.19,0.173,0.426,0.26,0.707,0.26
				c0.333,0,0.611-0.115,0.835-0.344c0.224-0.23,0.335-0.515,0.335-0.854c0-0.323-0.104-0.59-0.313-0.801
				c-0.21-0.209-0.476-0.314-0.798-0.314c-0.132,0-0.296,0.026-0.492,0.078l0.078-0.625c0.046,0.006,0.083,0.008,0.111,0.008
				c0.295,0,0.56-0.077,0.795-0.232c0.235-0.154,0.354-0.394,0.354-0.717c0-0.256-0.086-0.467-0.26-0.635
				c-0.172-0.168-0.396-0.252-0.668-0.252c-0.271,0-0.497,0.086-0.678,0.258c-0.18,0.172-0.296,0.43-0.348,0.773l-0.719-0.125
				c0.086-0.471,0.28-0.836,0.584-1.096c0.305-0.259,0.683-0.389,1.135-0.389c0.312,0,0.599,0.066,0.861,0.2
				c0.262,0.134,0.463,0.315,0.602,0.546c0.14,0.23,0.209,0.476,0.209,0.735c0,0.246-0.066,0.47-0.199,0.673
				c-0.133,0.201-0.33,0.362-0.59,0.481c0.338,0.078,0.604,0.241,0.797,0.487c0.192,0.246,0.289,0.555,0.289,0.925
				c0,0.501-0.183,0.926-0.547,1.273c-0.365,0.349-0.826,0.522-1.383,0.522c-0.503,0-0.92-0.147-1.252-0.443
				S97.476,47.68,97.429,47.209z"/>
		</g>
		<path i:knockout="Off" fill="none" stroke="#000000" stroke-width="1.2" d="M102.812,40.174"/>
		<path i:knockout="Off" fill="none" stroke="#000000" stroke-width="1.2" d="M0.6,40.125v13.463h11.34h22.799h11.34l22.594,0.047
			h11.34h22.799h11.34V40.174"/>
		<g i:knockout="Off">
			<path i:knockout="Off" d="M108.056,48.038v0.672h-3.797c-0.006-0.169,0.022-0.332,0.083-0.488
				c0.097-0.258,0.253-0.511,0.467-0.76c0.214-0.248,0.521-0.537,0.92-0.864c0.62-0.517,1.04-0.923,1.261-1.221
				c0.222-0.298,0.332-0.58,0.332-0.849c0-0.277-0.1-0.513-0.299-0.703c-0.2-0.191-0.461-0.287-0.781-0.287
				c-0.34,0-0.61,0.104-0.814,0.311c-0.203,0.208-0.307,0.494-0.309,0.861l-0.719-0.094c0.049-0.539,0.235-0.949,0.558-1.232
				c0.323-0.282,0.756-0.424,1.3-0.424c0.549,0,0.983,0.152,1.303,0.457c0.32,0.305,0.48,0.683,0.48,1.133
				c0,0.229-0.047,0.455-0.14,0.677c-0.094,0.222-0.248,0.454-0.465,0.699c-0.216,0.245-0.576,0.581-1.081,1.009
				c-0.423,0.355-0.694,0.596-0.814,0.723c-0.119,0.126-0.219,0.253-0.297,0.381H108.056z"/>
			<path i:knockout="Off" d="M111.06,48.709v-1.375h-2.484v-0.641l2.625-3.719h0.563v3.719h0.781v0.641h-0.781v1.375H111.06z
				 M111.06,46.694v-2.566l-1.793,2.566H111.06z"/>
		</g>
		<path i:knockout="Off" fill="none" stroke="#000000" stroke-width="0.7" d="M68.699,26.714h-11.34"/>
		<g i:knockout="Off">
			<path i:knockout="Off" d="M61.564,35.25h-0.703v-4.48c-0.169,0.162-0.392,0.323-0.666,0.484c-0.274,0.162-0.521,0.283-0.74,0.363
				v-0.68c0.394-0.185,0.737-0.408,1.031-0.672c0.294-0.263,0.503-0.518,0.625-0.766h0.453V35.25z"/>
			<path i:knockout="Off" d="M67.053,34.579v0.672h-3.797c-0.005-0.169,0.022-0.332,0.083-0.488c0.097-0.258,0.252-0.511,0.467-0.76
				c0.214-0.248,0.521-0.537,0.92-0.864c0.62-0.517,1.04-0.923,1.262-1.221c0.221-0.298,0.331-0.58,0.331-0.849
				c0-0.277-0.1-0.513-0.3-0.703c-0.199-0.191-0.459-0.287-0.78-0.287c-0.339,0-0.61,0.104-0.813,0.311
				c-0.204,0.208-0.307,0.494-0.31,0.861l-0.719-0.094c0.05-0.539,0.235-0.949,0.558-1.232c0.322-0.282,0.756-0.424,1.3-0.424
				c0.549,0,0.983,0.152,1.304,0.457c0.319,0.305,0.479,0.683,0.479,1.133c0,0.229-0.047,0.455-0.14,0.677
				c-0.094,0.222-0.248,0.454-0.465,0.699c-0.216,0.245-0.576,0.581-1.08,1.009c-0.424,0.355-0.695,0.596-0.815,0.723
				c-0.12,0.126-0.219,0.253-0.297,0.381H67.053z"/>
		</g>
		<path i:knockout="Off" fill="none" stroke="#000000" stroke-width="0.7" d="M57.39,26.722V12.828"/>
		<g i:knockout="Off">
			<path i:knockout="Off" d="M49.838,20.296l0.719-0.094c0.08,0.393,0.215,0.676,0.405,0.85c0.189,0.173,0.425,0.26,0.707,0.26
				c0.333,0,0.611-0.115,0.834-0.344s0.335-0.514,0.335-0.853c0-0.323-0.105-0.59-0.314-0.8S52.05,19,51.727,19
				c-0.132,0-0.295,0.026-0.492,0.078l0.078-0.625c0.046,0.005,0.083,0.008,0.112,0.008c0.294,0,0.559-0.077,0.795-0.232
				c0.236-0.155,0.354-0.394,0.354-0.717c0-0.255-0.086-0.467-0.259-0.635s-0.396-0.252-0.669-0.252
				c-0.271,0-0.496,0.086-0.677,0.258s-0.297,0.43-0.348,0.773l-0.719-0.125c0.085-0.471,0.281-0.836,0.584-1.096
				c0.304-0.259,0.682-0.389,1.134-0.389c0.312,0,0.599,0.067,0.861,0.2c0.263,0.134,0.463,0.315,0.603,0.546
				c0.139,0.231,0.208,0.476,0.208,0.735c0,0.246-0.066,0.47-0.199,0.672s-0.33,0.363-0.59,0.482
				c0.338,0.078,0.604,0.241,0.797,0.487c0.193,0.246,0.289,0.555,0.289,0.925c0,0.501-0.182,0.926-0.547,1.273
				c-0.365,0.349-0.826,0.522-1.383,0.522c-0.502,0-0.92-0.147-1.252-0.443S49.885,20.767,49.838,20.296z"/>
		</g>
		<path i:knockout="Off" fill="none" stroke="#000000" stroke-width="1.2" d="M68.699,26.722"/>
		<path i:knockout="Off" fill="none" stroke="#000000" stroke-width="1.2" d="M57.359,26.722"/>
		<g i:knockout="Off">
			<path i:knockout="Off" d="M63.383,21.796v-1.375h-2.484v-0.641l2.625-3.719h0.563v3.719h0.781v0.641h-0.781v1.375H63.383z
				 M63.383,19.781v-2.566l-1.792,2.566H63.383z"/>
		</g>
		<path i:knockout="Off" fill="none" stroke="#000000" stroke-width="0.7" d="M68.664,51.116h45.486"/>
		<path i:knockout="Off" fill="none" stroke="#000000" stroke-width="0.7" d="M0.602,51.116h45.486"/>
		<path i:knockout="Off" fill="none" stroke="#000000" stroke-width="0.7" d="M0.602,37.807h113.55"/>
		<path i:knockout="Off" fill="none" stroke="#000000" stroke-width="0.7" d="M0.602,24.433h113.55"/>
		<path i:knockout="Off" fill="none" stroke="#000000" stroke-width="0.7" d="M46.205,12.898h22.504"/>
		<path i:knockout="Off" fill="none" stroke="#000000" stroke-width="0.7" d="M46.17,40.108l22.813,13.244"/>
		<path i:knockout="Off" fill="none" stroke="#000000" stroke-width="0.7" d="M46.17,53.297L68.714,40.27"/>
	</g>
</svg>
