<?xml version="1.0" encoding="utf-8"?>
<!-- Generator: Adobe Illustrator 10.0, SVG Export Plug-In . SVG Version: 3.0.0 Build 77)  -->
<!DOCTYPE svg PUBLIC "-//W3C//DTD SVG 1.0//EN"    "http://www.w3.org/TR/2001/REC-SVG-20010904/DTD/svg10.dtd" [
	<!ENTITY ns_flows "http://ns.adobe.com/Flows/1.0/">
	<!ENTITY ns_extend "http://ns.adobe.com/Extensibility/1.0/">
	<!ENTITY ns_ai "http://ns.adobe.com/AdobeIllustrator/10.0/">
	<!ENTITY ns_graphs "http://ns.adobe.com/Graphs/1.0/">
	<!ENTITY ns_vars "http://ns.adobe.com/Variables/1.0/">
	<!ENTITY ns_imrep "http://ns.adobe.com/ImageReplacement/1.0/">
	<!ENTITY ns_sfw "http://ns.adobe.com/SaveForWeb/1.0/">
	<!ENTITY ns_custom "http://ns.adobe.com/GenericCustomNamespace/1.0/">
	<!ENTITY ns_adobe_xpath "http://ns.adobe.com/XPath/1.0/">
	<!ENTITY ns_svg "http://www.w3.org/2000/svg">
	<!ENTITY ns_xlink "http://www.w3.org/1999/xlink">
]>
<svg xmlns:x="&ns_extend;" xmlns:i="&ns_ai;" xmlns:graph="&ns_graphs;" i:viewOrigin="236.9297 446.0596" i:rulerOrigin="-1 0.1104" i:pageBounds="1 841.8896 596 -0.1104" xmlns="&ns_svg;" xmlns:xlink="&ns_xlink;" xmlns:a="http://ns.adobe.com/AdobeSVGViewerExtensions/3.0/" width="125.941" height="52.419" viewBox="0 0 125.941 52.419" overflow="visible" enable-background="new 0 0 125.941 52.419" xml:space="preserve" id="svgObj" onload="parent.svgLoad('Top', document)">
	<metadata>
		<variableSets xmlns="&ns_vars;">
			<variableSet varSetName="binding1" locked="none">
				<variables></variables>
				<v:sampleDataSets xmlns="&ns_custom;" xmlns:v="&ns_vars;"></v:sampleDataSets>
			</variableSet>
		</variableSets>
		<sfw xmlns="&ns_sfw;">
			<slices></slices>
			<sliceSourceBounds x="218.13" y="388.709" width="159.74" height="63.362" bottomLeftOrigin="true"></sliceSourceBounds>
		</sfw>
	</metadata>
	<g id="レイヤー_1" i:layer="yes" i:dimmedPercent="100" i:rgbTrio="#4F008000FFFF">
		<path i:knockout="Off" fill="none" stroke="#000000" stroke-width="0.7" d="M68.627,49.514h56.404"/>
		<path i:knockout="Off" fill="none" stroke="#000000" stroke-width="0.7" d="M0.634,49.514h45.28"/>
		<path i:knockout="Off" fill="none" stroke="#000000" stroke-width="0.7" d="M0.634,36.035h124.518"/>
		<path i:knockout="Off" fill="none" stroke="#000000" stroke-width="0.7" d="M0.634,22.569h124.518"/>
		<path i:knockout="Off" fill="none" stroke="#000000" stroke-width="0.7" d="M0.634,11.441h124.518"/>
		<path i:knockout="Off" fill="none" stroke="#000000" stroke-width="0.7" d="M11.94,51.819V38.357H0.6"/>
		<g i:knockout="Off">
			<path i:knockout="Off" d="M4.805,46.895H4.102v-4.48c-0.169,0.162-0.391,0.323-0.666,0.484c-0.275,0.162-0.521,0.283-0.74,0.363
				v-0.68c0.393-0.185,0.737-0.408,1.031-0.672c0.294-0.263,0.502-0.518,0.625-0.766h0.453V46.895z"/>
			<path i:knockout="Off" d="M7.691,43.791c-0.292-0.106-0.508-0.259-0.648-0.457s-0.21-0.436-0.21-0.712
				c0-0.417,0.149-0.767,0.448-1.052c0.298-0.283,0.695-0.426,1.191-0.426c0.498,0,0.899,0.146,1.203,0.436
				c0.304,0.291,0.456,0.645,0.456,1.062c0,0.267-0.069,0.497-0.208,0.694c-0.139,0.196-0.349,0.349-0.631,0.455
				c0.35,0.114,0.616,0.299,0.799,0.554s0.274,0.559,0.274,0.912c0,0.489-0.173,0.899-0.519,1.232s-0.8,0.499-1.364,0.499
				s-1.019-0.167-1.365-0.501s-0.518-0.751-0.518-1.25c0-0.371,0.094-0.683,0.284-0.934S7.341,43.882,7.691,43.791z M7.317,45.242
				c0,0.2,0.046,0.394,0.138,0.58c0.093,0.188,0.233,0.332,0.423,0.434c0.19,0.104,0.393,0.154,0.608,0.154
				c0.34,0,0.619-0.107,0.834-0.323c0.216-0.215,0.324-0.489,0.324-0.821c0-0.338-0.111-0.616-0.333-0.837s-0.505-0.331-0.848-0.331
				c-0.335,0-0.61,0.109-0.825,0.327C7.424,44.643,7.317,44.915,7.317,45.242z M7.551,42.598c0,0.271,0.085,0.492,0.256,0.664
				c0.171,0.172,0.398,0.258,0.681,0.258c0.275,0,0.497-0.085,0.667-0.256c0.17-0.17,0.255-0.379,0.255-0.627
				c0-0.258-0.087-0.475-0.263-0.65s-0.397-0.264-0.667-0.264c-0.272,0-0.496,0.086-0.669,0.258S7.551,42.358,7.551,42.598z"/>
		</g>
		<path i:knockout="Off" fill="none" stroke="#000000" stroke-width="0.7" d="M23.278,51.819V38.357h-11.34"/>
		<g i:knockout="Off">
			<path i:knockout="Off" d="M16.144,46.895H15.44v-4.48c-0.169,0.162-0.392,0.323-0.666,0.484c-0.275,0.162-0.521,0.283-0.74,0.363
				v-0.68c0.393-0.185,0.737-0.408,1.031-0.672c0.294-0.263,0.502-0.518,0.625-0.766h0.453V46.895z"/>
			<path i:knockout="Off" d="M18.03,45.566l0.672-0.063c0.057,0.318,0.167,0.549,0.328,0.691c0.161,0.144,0.368,0.215,0.621,0.215
				c0.216,0,0.407-0.049,0.572-0.147c0.165-0.099,0.299-0.229,0.4-0.395s0.188-0.387,0.258-0.667
				c0.07-0.279,0.105-0.565,0.105-0.857c0-0.031-0.001-0.078-0.004-0.141c-0.14,0.225-0.331,0.406-0.573,0.545
				c-0.242,0.14-0.505,0.209-0.787,0.209c-0.472,0-0.871-0.172-1.197-0.516c-0.326-0.345-0.489-0.798-0.489-1.361
				c0-0.581,0.171-1.049,0.514-1.404c0.342-0.354,0.771-0.531,1.287-0.531c0.372,0,0.713,0.101,1.021,0.301s0.543,0.486,0.703,0.856
				c0.16,0.371,0.24,0.907,0.24,1.61c0,0.731-0.08,1.313-0.239,1.747s-0.396,0.763-0.711,0.989c-0.315,0.227-0.684,0.34-1.107,0.34
				c-0.449,0-0.816-0.124-1.101-0.373C18.259,46.367,18.088,46.018,18.03,45.566z M20.921,43.041c0-0.404-0.106-0.725-0.319-0.963
				c-0.212-0.236-0.473-0.355-0.78-0.355c-0.318,0-0.592,0.128-0.822,0.384c-0.229,0.255-0.344,0.587-0.344,0.993
				c0,0.365,0.109,0.662,0.327,0.891c0.218,0.228,0.491,0.342,0.82,0.342c0.326,0,0.594-0.114,0.804-0.342
				C20.816,43.762,20.921,43.445,20.921,43.041z"/>
		</g>
		<path i:knockout="Off" fill="none" stroke="#000000" stroke-width="0.7" d="M34.627,51.819V38.357h-11.34"/>
		<g i:knockout="Off">
			<path i:knockout="Off" d="M28.532,46.223v0.672h-3.797c-0.005-0.169,0.022-0.332,0.083-0.488c0.098-0.258,0.253-0.511,0.467-0.76
				c0.214-0.248,0.521-0.537,0.92-0.864c0.619-0.517,1.04-0.923,1.261-1.221c0.221-0.298,0.332-0.58,0.332-0.849
				c0-0.277-0.1-0.513-0.299-0.703c-0.2-0.191-0.46-0.287-0.781-0.287c-0.339,0-0.611,0.104-0.814,0.311
				c-0.204,0.208-0.307,0.494-0.309,0.861l-0.719-0.094c0.049-0.539,0.235-0.949,0.558-1.232c0.322-0.282,0.755-0.424,1.299-0.424
				c0.549,0,0.983,0.152,1.303,0.457c0.32,0.305,0.48,0.683,0.48,1.133c0,0.229-0.046,0.455-0.14,0.677
				c-0.093,0.222-0.248,0.454-0.464,0.699c-0.217,0.245-0.577,0.581-1.081,1.009c-0.423,0.355-0.695,0.596-0.814,0.723
				c-0.12,0.126-0.219,0.253-0.297,0.381H28.532z"/>
			<path i:knockout="Off" d="M29.286,44.068c0-0.677,0.07-1.223,0.21-1.638s0.35-0.733,0.626-0.954
				c0.277-0.222,0.625-0.332,1.046-0.332c0.31,0,0.583,0.063,0.819,0.186s0.429,0.302,0.579,0.535
				c0.15,0.232,0.268,0.516,0.354,0.851c0.087,0.335,0.13,0.785,0.13,1.353c0,0.672-0.07,1.215-0.208,1.63
				c-0.14,0.415-0.348,0.733-0.625,0.956s-0.627,0.334-1.05,0.334c-0.557,0-0.994-0.195-1.312-0.586
				C29.476,45.922,29.286,45.144,29.286,44.068z M30.004,44.066c0,0.945,0.112,1.572,0.335,1.881s0.5,0.463,0.829,0.463
				s0.604-0.154,0.829-0.465c0.224-0.31,0.335-0.936,0.335-1.879c0-0.942-0.111-1.568-0.333-1.879
				c-0.223-0.31-0.502-0.465-0.839-0.465c-0.328,0-0.592,0.137-0.79,0.41C30.126,42.482,30.004,43.127,30.004,44.066z"/>
		</g>
		<g i:knockout="Off">
			<path i:knockout="Off" d="M39.87,46.223v0.672h-3.797c-0.005-0.169,0.022-0.332,0.083-0.488c0.097-0.258,0.252-0.511,0.467-0.76
				c0.214-0.248,0.521-0.537,0.92-0.864c0.62-0.517,1.04-0.923,1.261-1.221s0.332-0.58,0.332-0.849c0-0.277-0.1-0.513-0.299-0.703
				c-0.2-0.191-0.46-0.287-0.781-0.287c-0.339,0-0.61,0.104-0.814,0.311c-0.204,0.208-0.307,0.494-0.309,0.861l-0.719-0.094
				c0.049-0.539,0.235-0.949,0.558-1.232c0.323-0.282,0.756-0.424,1.3-0.424c0.549,0,0.983,0.152,1.303,0.457s0.48,0.683,0.48,1.133
				c0,0.229-0.047,0.455-0.14,0.677c-0.094,0.222-0.248,0.454-0.465,0.699c-0.216,0.245-0.576,0.581-1.081,1.009
				c-0.423,0.355-0.695,0.596-0.815,0.723c-0.12,0.126-0.219,0.253-0.297,0.381H39.87z"/>
			<path i:knockout="Off" d="M43.28,46.895h-0.703v-4.48c-0.169,0.162-0.392,0.323-0.666,0.484c-0.275,0.162-0.521,0.283-0.74,0.363
				v-0.68c0.393-0.185,0.737-0.408,1.031-0.672c0.294-0.263,0.502-0.518,0.625-0.766h0.453V46.895z"/>
		</g>
		<path i:knockout="Off" fill="none" stroke="#000000" stroke-width="1.2" d="M0.6,24.889v13.461"/>
		<path i:knockout="Off" fill="none" stroke="#000000" stroke-width="0.7" d="M11.94,38.351V24.889H0.6"/>
		<path i:knockout="Off" fill="none" stroke="#000000" stroke-width="1.2" d="M125.342,24.886V0.606h-25.305v10.818H94.07V2.869
			H31.884v8.556h-5.813V0.6H0.6v24.286"/>
		<g i:knockout="Off">
			<path i:knockout="Off" d="M4.42,28.441V27.77h3.703v0.544c-0.365,0.388-0.727,0.904-1.086,1.548
				c-0.359,0.645-0.636,1.307-0.832,1.988c-0.141,0.479-0.231,1.005-0.27,1.576H5.217c0.008-0.451,0.096-0.996,0.265-1.635
				c0.169-0.64,0.411-1.256,0.727-1.85c0.316-0.593,0.652-1.093,1.008-1.5H4.42z"/>
		</g>
		<g i:knockout="Off">
			<path i:knockout="Off" d="M12.117,20.198h-0.703v-4.48c-0.169,0.162-0.392,0.323-0.666,0.484
				c-0.275,0.162-0.521,0.283-0.74,0.363v-0.68c0.393-0.185,0.737-0.409,1.031-0.672c0.294-0.263,0.502-0.518,0.625-0.766h0.453
				V20.198z"/>
		</g>
		<g i:knockout="Off">
			<path i:knockout="Off" d="M33.819,19.526v0.672h-3.797c-0.005-0.169,0.022-0.332,0.083-0.488c0.098-0.258,0.253-0.511,0.467-0.76
				c0.214-0.249,0.521-0.537,0.92-0.864c0.619-0.516,1.04-0.923,1.261-1.221c0.221-0.298,0.332-0.58,0.332-0.849
				c0-0.278-0.1-0.513-0.299-0.704c-0.2-0.191-0.46-0.287-0.781-0.287c-0.339,0-0.611,0.104-0.814,0.311
				c-0.204,0.208-0.307,0.494-0.309,0.861l-0.719-0.094c0.049-0.539,0.235-0.95,0.558-1.232c0.322-0.282,0.755-0.424,1.299-0.424
				c0.549,0,0.983,0.152,1.303,0.457c0.32,0.305,0.48,0.683,0.48,1.133c0,0.229-0.046,0.455-0.14,0.676
				c-0.093,0.221-0.248,0.454-0.464,0.699c-0.217,0.245-0.577,0.581-1.081,1.009c-0.423,0.355-0.695,0.596-0.814,0.722
				c-0.12,0.126-0.219,0.253-0.297,0.381H33.819z"/>
		</g>
		<g i:knockout="Off">
			<path i:knockout="Off" d="M51.193,18.698l0.719-0.094c0.08,0.393,0.215,0.676,0.405,0.85c0.189,0.173,0.425,0.26,0.707,0.26
				c0.333,0,0.611-0.115,0.834-0.344s0.335-0.514,0.335-0.853c0-0.323-0.105-0.59-0.314-0.8s-0.475-0.315-0.798-0.315
				c-0.132,0-0.295,0.026-0.492,0.078l0.078-0.625c0.046,0.005,0.083,0.008,0.112,0.008c0.294,0,0.559-0.077,0.795-0.232
				c0.236-0.155,0.354-0.394,0.354-0.717c0-0.255-0.086-0.467-0.259-0.635s-0.396-0.252-0.669-0.252
				c-0.271,0-0.496,0.086-0.677,0.258s-0.297,0.43-0.348,0.773l-0.719-0.125c0.085-0.471,0.281-0.836,0.584-1.096
				c0.304-0.259,0.682-0.389,1.134-0.389c0.312,0,0.599,0.067,0.861,0.2c0.263,0.134,0.463,0.315,0.603,0.546
				c0.139,0.231,0.208,0.476,0.208,0.735c0,0.246-0.066,0.47-0.199,0.672s-0.33,0.363-0.59,0.482
				c0.338,0.078,0.604,0.241,0.797,0.487c0.193,0.246,0.289,0.555,0.289,0.925c0,0.501-0.182,0.926-0.547,1.273
				c-0.365,0.349-0.826,0.522-1.383,0.522c-0.502,0-0.92-0.147-1.252-0.443S51.24,19.169,51.193,18.698z"/>
		</g>
		<g i:knockout="Off">
			<path i:knockout="Off" d="M73.934,20.198v-1.375h-2.484v-0.641l2.625-3.719h0.563v3.719h0.781v0.641h-0.781v1.375H73.934z
				 M73.934,18.183v-2.566l-1.793,2.566H73.934z"/>
		</g>
		<g i:knockout="Off">
			<path i:knockout="Off" d="M91.955,18.698l0.719-0.063c0.055,0.358,0.182,0.627,0.379,0.808c0.198,0.181,0.441,0.271,0.73,0.271
				c0.348,0,0.639-0.127,0.871-0.382c0.231-0.254,0.348-0.592,0.348-1.013c0-0.399-0.111-0.715-0.332-0.946
				c-0.222-0.231-0.519-0.347-0.891-0.347c-0.232,0-0.438,0.051-0.617,0.152s-0.322,0.233-0.426,0.395l-0.656-0.094l0.563-2.938
				h2.844v0.672h-2.285l-0.313,1.549c0.344-0.241,0.704-0.361,1.082-0.361c0.5,0,0.922,0.173,1.266,0.519s0.516,0.791,0.516,1.334
				c0,0.518-0.151,0.965-0.453,1.343c-0.367,0.463-0.869,0.694-1.504,0.694c-0.521,0-0.946-0.146-1.275-0.437
				C92.189,19.564,92.002,19.179,91.955,18.698z"/>
		</g>
		<g i:knockout="Off">
			<path i:knockout="Off" d="M116.838,15.87l-0.703,0.063c-0.063-0.277-0.152-0.479-0.268-0.604
				c-0.191-0.201-0.428-0.302-0.708-0.302c-0.226,0-0.426,0.063-0.602,0.187c-0.218,0.161-0.391,0.396-0.52,0.705
				c-0.128,0.309-0.195,0.75-0.2,1.323c0.17-0.258,0.378-0.449,0.623-0.574c0.246-0.125,0.504-0.188,0.773-0.188
				c0.47,0,0.871,0.173,1.201,0.518c0.33,0.345,0.496,0.791,0.496,1.338c0,0.359-0.078,0.693-0.233,1.002s-0.369,0.545-0.642,0.709
				c-0.271,0.164-0.58,0.246-0.926,0.246c-0.588,0-1.068-0.215-1.439-0.646s-0.557-1.14-0.557-2.129c0-1.106,0.205-1.91,0.617-2.413
				c0.359-0.437,0.843-0.656,1.451-0.656c0.453,0,0.824,0.126,1.113,0.378C116.606,15.078,116.78,15.426,116.838,15.87z
				 M113.947,18.341c0,0.242,0.052,0.474,0.155,0.694c0.104,0.221,0.247,0.39,0.43,0.505c0.183,0.116,0.38,0.174,0.589,0.174
				c0.304,0,0.562-0.12,0.773-0.359s0.318-0.564,0.318-0.975c0-0.395-0.104-0.707-0.314-0.934c-0.209-0.228-0.478-0.341-0.805-0.341
				c-0.319,0-0.59,0.114-0.813,0.341S113.947,17.972,113.947,18.341z"/>
		</g>
		<path i:knockout="Off" fill="none" stroke="#000000" stroke-width="0.7" d="M23.278,38.351V24.889h-11.34"/>
		<path i:knockout="Off" fill="none" stroke="#000000" stroke-width="1.2" d="M11.938,38.351"/>
		<g i:knockout="Off">
			<path i:knockout="Off" d="M16.805,30.322c-0.292-0.106-0.507-0.259-0.648-0.457s-0.211-0.436-0.211-0.712
				c0-0.417,0.149-0.767,0.447-1.052c0.299-0.283,0.696-0.426,1.191-0.426c0.498,0,0.899,0.146,1.203,0.436
				c0.304,0.291,0.456,0.645,0.456,1.062c0,0.267-0.069,0.497-0.208,0.694c-0.139,0.196-0.349,0.349-0.631,0.455
				c0.35,0.114,0.617,0.299,0.799,0.554s0.274,0.559,0.274,0.912c0,0.489-0.173,0.899-0.519,1.232s-0.8,0.499-1.364,0.499
				s-1.019-0.167-1.364-0.501s-0.519-0.751-0.519-1.25c0-0.371,0.095-0.683,0.284-0.934S16.455,30.413,16.805,30.322z
				 M16.431,31.773c0,0.2,0.046,0.394,0.139,0.58c0.092,0.188,0.233,0.332,0.423,0.434c0.189,0.104,0.393,0.154,0.608,0.154
				c0.341,0,0.619-0.107,0.834-0.323c0.216-0.215,0.324-0.489,0.324-0.821c0-0.338-0.111-0.616-0.333-0.837
				s-0.505-0.331-0.848-0.331c-0.335,0-0.61,0.109-0.825,0.327S16.431,31.446,16.431,31.773z M16.665,29.129
				c0,0.271,0.085,0.492,0.257,0.664c0.171,0.172,0.398,0.258,0.681,0.258c0.275,0,0.497-0.085,0.667-0.256
				c0.17-0.17,0.255-0.379,0.255-0.627c0-0.258-0.088-0.475-0.263-0.65s-0.397-0.264-0.667-0.264c-0.272,0-0.495,0.086-0.669,0.258
				S16.665,28.89,16.665,29.129z"/>
		</g>
		<path i:knockout="Off" fill="none" stroke="#000000" stroke-width="0.7" d="M34.627,38.351V24.889h-11.34"/>
		<path i:knockout="Off" fill="none" stroke="#000000" stroke-width="1.2" d="M23.288,38.351"/>
		<g i:knockout="Off">
			<path i:knockout="Off" d="M27.155,32.098l0.672-0.063c0.057,0.318,0.167,0.549,0.328,0.691c0.162,0.144,0.369,0.215,0.621,0.215
				c0.216,0,0.407-0.049,0.572-0.147s0.299-0.229,0.4-0.395s0.188-0.387,0.258-0.667c0.07-0.279,0.105-0.565,0.105-0.857
				c0-0.031-0.001-0.078-0.004-0.141c-0.14,0.225-0.331,0.406-0.573,0.545c-0.242,0.14-0.504,0.209-0.787,0.209
				c-0.472,0-0.871-0.172-1.197-0.516c-0.327-0.345-0.49-0.798-0.49-1.361c0-0.581,0.171-1.049,0.514-1.404
				c0.342-0.354,0.771-0.531,1.287-0.531c0.373,0,0.713,0.101,1.021,0.301s0.543,0.486,0.703,0.856c0.16,0.371,0.24,0.907,0.24,1.61
				c0,0.731-0.08,1.313-0.239,1.747c-0.16,0.434-0.396,0.763-0.712,0.989c-0.314,0.227-0.684,0.34-1.106,0.34
				c-0.45,0-0.817-0.124-1.102-0.373C27.383,32.898,27.212,32.549,27.155,32.098z M30.045,29.572c0-0.404-0.106-0.725-0.319-0.963
				c-0.213-0.236-0.473-0.355-0.781-0.355c-0.318,0-0.592,0.128-0.822,0.384c-0.229,0.255-0.344,0.587-0.344,0.993
				c0,0.365,0.109,0.662,0.327,0.891c0.218,0.228,0.491,0.342,0.82,0.342c0.326,0,0.594-0.114,0.804-0.342
				C29.94,30.293,30.045,29.977,30.045,29.572z"/>
		</g>
		<path i:knockout="Off" fill="none" stroke="#000000" stroke-width="0.7" d="M45.966,51.768V24.889h-11.34"/>
		<path i:knockout="Off" fill="none" stroke="#000000" stroke-width="1.2" d="M34.626,38.351"/>
		<g i:knockout="Off">
			<path i:knockout="Off" d="M38.831,33.426h-0.703v-4.48c-0.169,0.162-0.392,0.323-0.666,0.484
				c-0.275,0.162-0.521,0.283-0.74,0.363v-0.68c0.393-0.185,0.737-0.408,1.031-0.672c0.294-0.263,0.502-0.518,0.625-0.766h0.453
				V33.426z"/>
			<path i:knockout="Off" d="M40.624,30.6c0-0.677,0.07-1.223,0.211-1.638c0.14-0.415,0.349-0.733,0.626-0.954
				c0.277-0.222,0.626-0.332,1.046-0.332c0.31,0,0.583,0.063,0.819,0.186s0.429,0.302,0.579,0.535
				c0.149,0.232,0.268,0.516,0.354,0.851c0.086,0.335,0.13,0.785,0.13,1.353c0,0.672-0.069,1.215-0.209,1.63
				c-0.139,0.415-0.347,0.733-0.624,0.956c-0.277,0.223-0.627,0.334-1.05,0.334c-0.557,0-0.994-0.195-1.312-0.586
				C40.814,32.453,40.624,31.675,40.624,30.6z M41.343,30.598c0,0.945,0.112,1.572,0.336,1.881c0.224,0.309,0.5,0.463,0.828,0.463
				c0.328,0,0.604-0.154,0.828-0.465c0.224-0.31,0.336-0.936,0.336-1.879c0-0.942-0.111-1.568-0.334-1.879
				c-0.223-0.31-0.502-0.465-0.838-0.465c-0.329,0-0.592,0.137-0.791,0.41C41.465,29.014,41.343,29.658,41.343,30.598z"/>
		</g>
		<path i:knockout="Off" fill="none" stroke="#000000" stroke-width="0.7" d="M79.967,51.819V38.357H68.626h-22.66h-11.34"/>
		<g i:knockout="Off">
			<path i:knockout="Off" d="M73.871,46.223v0.672h-3.797c-0.006-0.169,0.022-0.332,0.083-0.488c0.097-0.258,0.253-0.511,0.467-0.76
				c0.214-0.248,0.521-0.537,0.92-0.864c0.62-0.517,1.04-0.923,1.261-1.221c0.222-0.298,0.332-0.58,0.332-0.849
				c0-0.277-0.1-0.513-0.299-0.703c-0.2-0.191-0.461-0.287-0.781-0.287c-0.34,0-0.61,0.104-0.814,0.311
				c-0.203,0.208-0.307,0.494-0.309,0.861l-0.719-0.094c0.049-0.539,0.235-0.949,0.558-1.232c0.323-0.282,0.756-0.424,1.3-0.424
				c0.549,0,0.983,0.152,1.303,0.457c0.32,0.305,0.48,0.683,0.48,1.133c0,0.229-0.047,0.455-0.14,0.677
				c-0.094,0.222-0.248,0.454-0.465,0.699c-0.216,0.245-0.576,0.581-1.081,1.009c-0.423,0.355-0.694,0.596-0.814,0.723
				c-0.119,0.126-0.219,0.253-0.297,0.381H73.871z"/>
			<path i:knockout="Off" d="M78.32,46.223v0.672h-3.797c-0.006-0.169,0.022-0.332,0.083-0.488c0.097-0.258,0.253-0.511,0.467-0.76
				c0.214-0.248,0.521-0.537,0.92-0.864c0.62-0.517,1.04-0.923,1.261-1.221c0.222-0.298,0.332-0.58,0.332-0.849
				c0-0.277-0.1-0.513-0.299-0.703c-0.2-0.191-0.461-0.287-0.781-0.287c-0.34,0-0.61,0.104-0.814,0.311
				c-0.203,0.208-0.307,0.494-0.309,0.861l-0.719-0.094c0.049-0.539,0.235-0.949,0.558-1.232c0.323-0.282,0.756-0.424,1.3-0.424
				c0.549,0,0.983,0.152,1.303,0.457c0.32,0.305,0.48,0.683,0.48,1.133c0,0.229-0.047,0.455-0.14,0.677
				c-0.094,0.222-0.248,0.454-0.465,0.699c-0.216,0.245-0.576,0.581-1.081,1.009c-0.423,0.355-0.694,0.596-0.814,0.723
				c-0.119,0.126-0.219,0.253-0.297,0.381H78.32z"/>
		</g>
		<path i:knockout="Off" fill="none" stroke="#000000" stroke-width="0.7" d="M91.305,51.819V38.357h-11.34"/>
		<g i:knockout="Off">
			<path i:knockout="Off" d="M85.209,46.223v0.672h-3.797c-0.006-0.169,0.022-0.332,0.083-0.488c0.097-0.258,0.253-0.511,0.467-0.76
				c0.214-0.248,0.521-0.537,0.92-0.864c0.62-0.517,1.04-0.923,1.261-1.221c0.222-0.298,0.332-0.58,0.332-0.849
				c0-0.277-0.1-0.513-0.299-0.703c-0.2-0.191-0.461-0.287-0.781-0.287c-0.34,0-0.61,0.104-0.814,0.311
				c-0.203,0.208-0.307,0.494-0.309,0.861l-0.719-0.094c0.049-0.539,0.235-0.949,0.558-1.232c0.323-0.282,0.756-0.424,1.3-0.424
				c0.549,0,0.983,0.152,1.303,0.457c0.32,0.305,0.48,0.683,0.48,1.133c0,0.229-0.047,0.455-0.14,0.677
				c-0.094,0.222-0.248,0.454-0.465,0.699c-0.216,0.245-0.576,0.581-1.081,1.009c-0.423,0.355-0.694,0.596-0.814,0.723
				c-0.119,0.126-0.219,0.253-0.297,0.381H85.209z"/>
			<path i:knockout="Off" d="M85.979,45.395l0.719-0.094c0.08,0.393,0.215,0.676,0.404,0.85c0.19,0.173,0.426,0.26,0.707,0.26
				c0.333,0,0.611-0.115,0.835-0.344c0.224-0.23,0.335-0.515,0.335-0.854c0-0.323-0.104-0.59-0.313-0.801
				c-0.21-0.209-0.476-0.314-0.798-0.314c-0.132,0-0.296,0.026-0.492,0.078l0.078-0.625c0.046,0.006,0.083,0.008,0.111,0.008
				c0.295,0,0.56-0.077,0.795-0.232c0.235-0.154,0.354-0.394,0.354-0.717c0-0.256-0.086-0.467-0.26-0.635
				c-0.172-0.168-0.396-0.252-0.668-0.252c-0.271,0-0.497,0.086-0.678,0.258c-0.18,0.172-0.296,0.43-0.348,0.773l-0.719-0.125
				c0.086-0.471,0.28-0.836,0.584-1.096c0.305-0.259,0.683-0.389,1.135-0.389c0.312,0,0.599,0.066,0.861,0.2
				c0.262,0.134,0.463,0.315,0.602,0.546c0.14,0.23,0.209,0.476,0.209,0.735c0,0.246-0.066,0.47-0.199,0.673
				c-0.133,0.201-0.33,0.362-0.59,0.481c0.338,0.078,0.604,0.241,0.797,0.487c0.192,0.246,0.289,0.555,0.289,0.925
				c0,0.501-0.183,0.926-0.547,1.273c-0.365,0.349-0.826,0.522-1.383,0.522c-0.503,0-0.92-0.147-1.252-0.443
				S86.025,45.865,85.979,45.395z"/>
		</g>
		<path i:knockout="Off" fill="none" stroke="#000000" stroke-width="0.7" d="M102.654,51.819V38.357h-11.34"/>
		<g i:knockout="Off">
			<path i:knockout="Off" d="M96.559,46.223v0.672h-3.797c-0.006-0.169,0.022-0.332,0.083-0.488c0.097-0.258,0.253-0.511,0.467-0.76
				c0.214-0.248,0.521-0.537,0.92-0.864c0.62-0.517,1.04-0.923,1.261-1.221c0.222-0.298,0.332-0.58,0.332-0.849
				c0-0.277-0.1-0.513-0.299-0.703c-0.2-0.191-0.461-0.287-0.781-0.287c-0.34,0-0.61,0.104-0.814,0.311
				c-0.203,0.208-0.307,0.494-0.309,0.861l-0.719-0.094c0.049-0.539,0.235-0.949,0.558-1.232c0.323-0.282,0.756-0.424,1.3-0.424
				c0.549,0,0.983,0.152,1.303,0.457c0.32,0.305,0.48,0.683,0.48,1.133c0,0.229-0.047,0.455-0.14,0.677
				c-0.094,0.222-0.248,0.454-0.465,0.699c-0.216,0.245-0.576,0.581-1.081,1.009c-0.423,0.355-0.694,0.596-0.814,0.723
				c-0.119,0.126-0.219,0.253-0.297,0.381H96.559z"/>
			<path i:knockout="Off" d="M99.563,46.895V45.52h-2.484v-0.641l2.625-3.719h0.563v3.719h0.781v0.641h-0.781v1.375H99.563z
				 M99.563,44.879v-2.566l-1.793,2.566H99.563z"/>
		</g>
		<path i:knockout="Off" fill="none" stroke="#000000" stroke-width="0.7" d="M113.992,51.819V38.357h-11.34"/>
		<g i:knockout="Off">
			<path i:knockout="Off" d="M107.896,46.223v0.672H104.1c-0.006-0.169,0.022-0.332,0.083-0.488c0.097-0.258,0.253-0.511,0.467-0.76
				c0.214-0.248,0.521-0.537,0.92-0.864c0.62-0.517,1.04-0.923,1.261-1.221c0.222-0.298,0.332-0.58,0.332-0.849
				c0-0.277-0.1-0.513-0.299-0.703c-0.2-0.191-0.461-0.287-0.781-0.287c-0.34,0-0.61,0.104-0.814,0.311
				c-0.203,0.208-0.307,0.494-0.309,0.861l-0.719-0.094c0.049-0.539,0.235-0.949,0.558-1.232c0.323-0.282,0.756-0.424,1.3-0.424
				c0.549,0,0.983,0.152,1.303,0.457c0.32,0.305,0.48,0.683,0.48,1.133c0,0.229-0.047,0.455-0.14,0.677
				c-0.094,0.222-0.248,0.454-0.465,0.699c-0.216,0.245-0.576,0.581-1.081,1.009c-0.423,0.355-0.694,0.596-0.814,0.723
				c-0.119,0.126-0.219,0.253-0.297,0.381H107.896z"/>
			<path i:knockout="Off" d="M108.65,45.395l0.719-0.063c0.055,0.358,0.182,0.627,0.379,0.808c0.198,0.181,0.441,0.271,0.73,0.271
				c0.348,0,0.639-0.127,0.871-0.382c0.231-0.254,0.348-0.592,0.348-1.013c0-0.399-0.111-0.715-0.332-0.946
				c-0.222-0.231-0.519-0.347-0.891-0.347c-0.232,0-0.438,0.051-0.617,0.152s-0.322,0.232-0.426,0.395l-0.656-0.094l0.563-2.938
				h2.844v0.672h-2.285l-0.313,1.549c0.344-0.24,0.704-0.361,1.082-0.361c0.5,0,0.922,0.173,1.266,0.52
				c0.344,0.346,0.516,0.791,0.516,1.334c0,0.518-0.151,0.965-0.453,1.343c-0.367,0.463-0.869,0.694-1.504,0.694
				c-0.521,0-0.946-0.146-1.275-0.437C108.885,46.261,108.697,45.875,108.65,45.395z"/>
		</g>
		<path i:knockout="Off" fill="none" stroke="#000000" stroke-width="0.7" d="M79.967,38.351V24.889H68.626v26.878"/>
		<g i:knockout="Off">
			<path i:knockout="Off" d="M72.832,33.426h-0.703v-4.48c-0.17,0.162-0.392,0.323-0.666,0.484c-0.275,0.162-0.521,0.283-0.74,0.363
				v-0.68c0.393-0.185,0.736-0.408,1.031-0.672c0.294-0.263,0.502-0.518,0.625-0.766h0.453V33.426z"/>
			<path i:knockout="Off" d="M74.641,31.926l0.719-0.094c0.08,0.393,0.215,0.676,0.404,0.85c0.19,0.173,0.426,0.26,0.707,0.26
				c0.333,0,0.611-0.115,0.835-0.344c0.224-0.23,0.335-0.515,0.335-0.854c0-0.323-0.104-0.59-0.313-0.801
				c-0.21-0.209-0.476-0.314-0.798-0.314c-0.132,0-0.296,0.026-0.492,0.078l0.078-0.625c0.046,0.006,0.083,0.008,0.111,0.008
				c0.295,0,0.56-0.077,0.795-0.232c0.235-0.154,0.354-0.394,0.354-0.717c0-0.256-0.086-0.467-0.26-0.635
				c-0.172-0.168-0.396-0.252-0.668-0.252c-0.271,0-0.497,0.086-0.678,0.258c-0.18,0.172-0.296,0.43-0.348,0.773l-0.719-0.125
				c0.086-0.471,0.28-0.836,0.584-1.096c0.305-0.259,0.683-0.389,1.135-0.389c0.312,0,0.599,0.066,0.861,0.2
				c0.262,0.134,0.463,0.315,0.602,0.546c0.14,0.23,0.209,0.476,0.209,0.735c0,0.246-0.066,0.47-0.199,0.673
				c-0.133,0.201-0.33,0.362-0.59,0.481c0.338,0.078,0.604,0.241,0.797,0.487c0.192,0.246,0.289,0.555,0.289,0.925
				c0,0.501-0.183,0.926-0.547,1.273c-0.365,0.349-0.826,0.522-1.383,0.522c-0.503,0-0.92-0.147-1.252-0.443
				S74.688,32.396,74.641,31.926z"/>
		</g>
		<path i:knockout="Off" fill="none" stroke="#000000" stroke-width="0.7" d="M91.305,38.351V24.889h-11.34"/>
		<path i:knockout="Off" fill="none" stroke="#000000" stroke-width="1.2" d="M79.965,38.351"/>
		<g i:knockout="Off">
			<path i:knockout="Off" d="M84.17,33.426h-0.703v-4.48c-0.17,0.162-0.392,0.323-0.666,0.484c-0.275,0.162-0.521,0.283-0.74,0.363
				v-0.68c0.393-0.185,0.736-0.408,1.031-0.672c0.294-0.263,0.502-0.518,0.625-0.766h0.453V33.426z"/>
			<path i:knockout="Off" d="M88.213,33.426v-1.375h-2.484V31.41l2.625-3.719h0.563v3.719h0.781v0.641h-0.781v1.375H88.213z
				 M88.213,31.41v-2.566L86.42,31.41H88.213z"/>
		</g>
		<path i:knockout="Off" fill="none" stroke="#000000" stroke-width="0.7" d="M102.654,38.351V24.889h-11.34"/>
		<path i:knockout="Off" fill="none" stroke="#000000" stroke-width="1.2" d="M91.314,38.351"/>
		<g i:knockout="Off">
			<path i:knockout="Off" d="M95.52,33.426h-0.703v-4.48c-0.17,0.162-0.392,0.323-0.666,0.484c-0.275,0.162-0.521,0.283-0.74,0.363
				v-0.68c0.393-0.185,0.736-0.408,1.031-0.672c0.294-0.263,0.502-0.518,0.625-0.766h0.453V33.426z"/>
			<path i:knockout="Off" d="M97.313,31.926l0.719-0.063c0.055,0.358,0.182,0.627,0.379,0.808c0.198,0.181,0.441,0.271,0.73,0.271
				c0.348,0,0.639-0.127,0.871-0.382c0.231-0.254,0.348-0.592,0.348-1.013c0-0.399-0.111-0.715-0.332-0.946
				c-0.222-0.231-0.519-0.347-0.891-0.347c-0.232,0-0.438,0.051-0.617,0.152s-0.322,0.232-0.426,0.395l-0.656-0.094L98,27.77h2.844
				v0.672h-2.285l-0.313,1.549c0.344-0.24,0.704-0.361,1.082-0.361c0.5,0,0.922,0.173,1.266,0.52
				c0.344,0.346,0.516,0.791,0.516,1.334c0,0.518-0.151,0.965-0.453,1.343c-0.367,0.463-0.869,0.694-1.504,0.694
				c-0.521,0-0.946-0.146-1.275-0.437C97.547,32.792,97.359,32.406,97.313,31.926z"/>
		</g>
		<path i:knockout="Off" fill="none" stroke="#000000" stroke-width="0.7" d="M113.992,38.351V24.889h-11.34"/>
		<path i:knockout="Off" fill="none" stroke="#000000" stroke-width="1.2" d="M102.652,38.351"/>
		<g i:knockout="Off">
			<path i:knockout="Off" d="M106.857,33.426h-0.703v-4.48c-0.17,0.162-0.392,0.323-0.666,0.484
				c-0.275,0.162-0.521,0.283-0.74,0.363v-0.68c0.393-0.185,0.736-0.408,1.031-0.672c0.294-0.263,0.502-0.518,0.625-0.766h0.453
				V33.426z"/>
			<path i:knockout="Off" d="M112.322,29.098l-0.703,0.063c-0.063-0.277-0.152-0.479-0.268-0.604
				c-0.191-0.201-0.428-0.302-0.708-0.302c-0.226,0-0.426,0.063-0.602,0.188c-0.218,0.16-0.391,0.396-0.52,0.705
				c-0.128,0.309-0.195,0.75-0.2,1.322c0.17-0.258,0.378-0.449,0.623-0.574c0.246-0.125,0.504-0.188,0.773-0.188
				c0.47,0,0.871,0.173,1.201,0.518c0.33,0.346,0.496,0.791,0.496,1.338c0,0.359-0.078,0.693-0.233,1.002s-0.369,0.545-0.642,0.709
				c-0.271,0.164-0.58,0.246-0.926,0.246c-0.588,0-1.068-0.215-1.439-0.646c-0.371-0.43-0.557-1.14-0.557-2.129
				c0-1.105,0.205-1.91,0.617-2.412c0.359-0.438,0.843-0.656,1.451-0.656c0.453,0,0.824,0.126,1.113,0.378
				C112.091,28.306,112.265,28.653,112.322,29.098z M109.432,31.568c0,0.242,0.052,0.474,0.155,0.694
				c0.104,0.222,0.247,0.39,0.43,0.505c0.183,0.116,0.38,0.174,0.589,0.174c0.304,0,0.562-0.119,0.773-0.359
				c0.212-0.238,0.318-0.563,0.318-0.975c0-0.395-0.104-0.707-0.314-0.934c-0.209-0.229-0.478-0.342-0.805-0.342
				c-0.319,0-0.59,0.113-0.813,0.342C109.543,30.9,109.432,31.199,109.432,31.568z"/>
		</g>
		<path i:knockout="Off" fill="none" stroke="#000000" stroke-width="0.7" d="M125.334,38.357h-11.34"/>
		<path i:knockout="Off" fill="none" stroke="#000000" stroke-width="1.2" d="M0.6,38.357v13.462h11.34h102.054h11.34V38.357"/>
		<g i:knockout="Off">
			<path i:knockout="Off" d="M119.238,46.223v0.672h-3.797c-0.006-0.169,0.022-0.332,0.083-0.488
				c0.097-0.258,0.253-0.511,0.467-0.76c0.214-0.248,0.521-0.537,0.92-0.864c0.62-0.517,1.04-0.923,1.261-1.221
				c0.222-0.298,0.332-0.58,0.332-0.849c0-0.277-0.1-0.513-0.299-0.703c-0.2-0.191-0.461-0.287-0.781-0.287
				c-0.34,0-0.61,0.104-0.814,0.311c-0.203,0.208-0.307,0.494-0.309,0.861l-0.719-0.094c0.049-0.539,0.235-0.949,0.558-1.232
				c0.323-0.282,0.756-0.424,1.3-0.424c0.549,0,0.983,0.152,1.303,0.457c0.32,0.305,0.48,0.683,0.48,1.133
				c0,0.229-0.047,0.455-0.14,0.677c-0.094,0.222-0.248,0.454-0.465,0.699c-0.216,0.245-0.576,0.581-1.081,1.009
				c-0.423,0.355-0.694,0.596-0.814,0.723c-0.119,0.126-0.219,0.253-0.297,0.381H119.238z"/>
			<path i:knockout="Off" d="M123.664,42.566l-0.703,0.063c-0.063-0.277-0.152-0.479-0.268-0.604
				c-0.191-0.201-0.428-0.302-0.708-0.302c-0.226,0-0.426,0.063-0.602,0.188c-0.218,0.16-0.391,0.396-0.52,0.705
				c-0.128,0.309-0.195,0.75-0.2,1.322c0.17-0.258,0.378-0.449,0.623-0.574c0.246-0.125,0.504-0.188,0.773-0.188
				c0.47,0,0.871,0.173,1.201,0.518c0.33,0.346,0.496,0.791,0.496,1.338c0,0.359-0.078,0.693-0.233,1.002s-0.369,0.545-0.642,0.709
				c-0.271,0.164-0.58,0.246-0.926,0.246c-0.588,0-1.068-0.215-1.439-0.646c-0.371-0.43-0.557-1.14-0.557-2.129
				c0-1.105,0.205-1.91,0.617-2.412c0.359-0.438,0.843-0.656,1.451-0.656c0.453,0,0.824,0.126,1.113,0.378
				C123.433,41.774,123.606,42.122,123.664,42.566z M120.773,45.037c0,0.242,0.052,0.474,0.155,0.694
				c0.104,0.222,0.247,0.39,0.43,0.505c0.183,0.116,0.38,0.174,0.589,0.174c0.304,0,0.562-0.119,0.773-0.359
				c0.212-0.238,0.318-0.563,0.318-0.975c0-0.395-0.104-0.707-0.314-0.934c-0.209-0.229-0.478-0.342-0.805-0.342
				c-0.319,0-0.59,0.113-0.813,0.342C120.885,44.369,120.773,44.668,120.773,45.037z"/>
		</g>
		<path i:knockout="Off" fill="none" stroke="#000000" stroke-width="0.7" d="M125.334,24.889h-11.34"/>
		<path i:knockout="Off" fill="none" stroke="#000000" stroke-width="1.2" d="M125.334,38.351V24.889"/>
		<path i:knockout="Off" fill="none" stroke="#000000" stroke-width="1.2" d="M113.994,38.351"/>
		<g i:knockout="Off">
			<path i:knockout="Off" d="M118.199,33.426h-0.703v-4.48c-0.17,0.162-0.392,0.323-0.666,0.484
				c-0.275,0.162-0.521,0.283-0.74,0.363v-0.68c0.393-0.185,0.736-0.408,1.031-0.672c0.294-0.263,0.502-0.518,0.625-0.766h0.453
				V33.426z"/>
			<path i:knockout="Off" d="M120.039,28.441V27.77h3.703v0.544c-0.365,0.388-0.728,0.904-1.086,1.548
				c-0.359,0.645-0.636,1.307-0.832,1.988c-0.141,0.479-0.23,1.005-0.27,1.576h-0.719c0.008-0.451,0.096-0.996,0.266-1.635
				c0.168-0.64,0.41-1.256,0.727-1.85c0.315-0.593,0.651-1.093,1.008-1.5H120.039z"/>
		</g>
		<path i:knockout="Off" fill="none" stroke="#000000" stroke-width="0.7" d="M57.299,38.396V24.889h-11.34"/>
		<g i:knockout="Off">
			<path i:knockout="Off" d="M50.165,33.426h-0.703v-4.48c-0.169,0.162-0.391,0.323-0.666,0.484
				c-0.275,0.162-0.521,0.283-0.74,0.363v-0.68c0.393-0.185,0.737-0.408,1.031-0.672c0.294-0.263,0.502-0.518,0.625-0.766h0.453
				V33.426z"/>
			<path i:knockout="Off" d="M54.614,33.426h-0.703v-4.48c-0.169,0.162-0.391,0.323-0.666,0.484
				c-0.275,0.162-0.521,0.283-0.74,0.363v-0.68c0.393-0.185,0.737-0.408,1.031-0.672c0.294-0.263,0.502-0.518,0.625-0.766h0.453
				V33.426z"/>
		</g>
		<path i:knockout="Off" fill="none" stroke="#000000" stroke-width="0.7" d="M68.638,24.889h-11.34"/>
		<g i:knockout="Off">
			<path i:knockout="Off" d="M61.503,33.426H60.8v-4.48c-0.169,0.162-0.392,0.323-0.666,0.484c-0.275,0.162-0.521,0.283-0.74,0.363
				v-0.68c0.393-0.185,0.737-0.408,1.031-0.672c0.294-0.263,0.502-0.518,0.625-0.766h0.453V33.426z"/>
			<path i:knockout="Off" d="M66.991,32.754v0.672h-3.797c-0.005-0.169,0.022-0.332,0.083-0.488c0.097-0.258,0.252-0.511,0.467-0.76
				c0.214-0.248,0.521-0.537,0.92-0.864c0.62-0.517,1.04-0.923,1.262-1.221c0.221-0.298,0.331-0.58,0.331-0.849
				c0-0.277-0.1-0.513-0.3-0.703c-0.199-0.191-0.459-0.287-0.78-0.287c-0.339,0-0.61,0.104-0.813,0.311
				c-0.204,0.208-0.307,0.494-0.31,0.861l-0.719-0.094c0.05-0.539,0.235-0.949,0.558-1.232c0.322-0.282,0.756-0.424,1.3-0.424
				c0.549,0,0.983,0.152,1.304,0.457c0.319,0.305,0.479,0.683,0.479,1.133c0,0.229-0.047,0.455-0.14,0.677
				c-0.094,0.222-0.248,0.454-0.465,0.699c-0.216,0.245-0.576,0.581-1.08,1.009c-0.424,0.355-0.695,0.596-0.815,0.723
				c-0.12,0.126-0.219,0.253-0.297,0.381H66.991z"/>
		</g>
		<path i:knockout="Off" fill="none" stroke="#000000" stroke-width="0.7" d="M21.376,11.436v13.445"/>
		<path i:knockout="Off" fill="none" stroke="#000000" stroke-width="0.7" d="M42.16,11.436v13.445"/>
		<path i:knockout="Off" fill="none" stroke="#000000" stroke-width="0.7" d="M63,11.436v13.445"/>
		<path i:knockout="Off" fill="none" stroke="#000000" stroke-width="0.7" d="M83.783,11.436v13.445"/>
		<path i:knockout="Off" fill="none" stroke="#000000" stroke-width="0.7" d="M104.511,11.436v13.445"/>
		<path i:knockout="Off" fill="none" stroke="#000000" stroke-width="0.7" d="M46.074,38.345l22.509,13.182"/>
		<path i:knockout="Off" fill="none" stroke="#000000" stroke-width="0.7" d="M68.626,38.357L45.979,51.289"/>
	</g>
</svg>
