<?xml version="1.0" encoding="utf-8"?>
<!-- Generator: Adobe Illustrator 10.0, SVG Export Plug-In . SVG Version: 3.0.0 Build 77)  -->
<!DOCTYPE svg PUBLIC "-//W3C//DTD SVG 1.0//EN"    "http://www.w3.org/TR/2001/REC-SVG-20010904/DTD/svg10.dtd" [
	<!ENTITY ns_flows "http://ns.adobe.com/Flows/1.0/">
	<!ENTITY ns_extend "http://ns.adobe.com/Extensibility/1.0/">
	<!ENTITY ns_ai "http://ns.adobe.com/AdobeIllustrator/10.0/">
	<!ENTITY ns_graphs "http://ns.adobe.com/Graphs/1.0/">
	<!ENTITY ns_vars "http://ns.adobe.com/Variables/1.0/">
	<!ENTITY ns_imrep "http://ns.adobe.com/ImageReplacement/1.0/">
	<!ENTITY ns_sfw "http://ns.adobe.com/SaveForWeb/1.0/">
	<!ENTITY ns_custom "http://ns.adobe.com/GenericCustomNamespace/1.0/">
	<!ENTITY ns_adobe_xpath "http://ns.adobe.com/XPath/1.0/">
	<!ENTITY ns_svg "http://www.w3.org/2000/svg">
	<!ENTITY ns_xlink "http://www.w3.org/1999/xlink">
]>
<svg xmlns:x="&ns_extend;" xmlns:i="&ns_ai;" xmlns:graph="&ns_graphs;" i:viewOrigin="258.4033 438.6641" i:rulerOrigin="-1 0.1104" i:pageBounds="1 841.8896 596 -0.1104" xmlns="&ns_svg;" xmlns:xlink="&ns_xlink;" xmlns:a="http://ns.adobe.com/AdobeSVGViewerExtensions/3.0/" width="79.8" height="32.243" viewBox="0 0 79.8 32.243" overflow="visible" enable-background="new 0 0 79.8 32.243" xml:space="preserve" id="svgObj" onload="parent.svgLoad('Top', document)">
	<metadata>
		<variableSets xmlns="&ns_vars;">
			<variableSet varSetName="binding1" locked="none">
				<variables></variables>
				<v:sampleDataSets xmlns="&ns_custom;" xmlns:v="&ns_vars;"></v:sampleDataSets>
			</variableSet>
		</variableSets>
		<sfw xmlns="&ns_sfw;">
			<slices></slices>
			<sliceSourceBounds x="257.815" y="388.708" width="80.388" height="63.363" bottomLeftOrigin="true"></sliceSourceBounds>
		</sfw>
	</metadata>
	<g id="レイヤー_1" i:layer="yes" i:dimmedPercent="100" i:rgbTrio="#4F008000FFFF">
		<path i:knockout="Off" fill="none" stroke="#000000" d="M47.88,3.335V0.5H32.211v2.835"/>
		<path i:knockout="Off" fill="none" stroke="#000000" stroke-width="0.7" d="M39.847,18.05h8.806"/>
		<g i:knockout="Off">
			<path i:knockout="Off" d="M35.286,20.568v-0.672h3.703v0.544c-0.365,0.388-0.728,0.904-1.086,1.548
				c-0.359,0.645-0.636,1.308-0.832,1.987c-0.141,0.48-0.231,1.006-0.27,1.577h-0.719c0.008-0.451,0.096-0.996,0.265-1.636
				c0.169-0.639,0.411-1.255,0.727-1.848c0.315-0.594,0.651-1.094,1.008-1.501H35.286z"/>
		</g>
		<g i:knockout="Off">
			<path i:knockout="Off" d="M46.185,14.256v0.672h-3.797c-0.006-0.169,0.022-0.332,0.083-0.488c0.097-0.258,0.253-0.511,0.467-0.76
				c0.214-0.249,0.521-0.537,0.92-0.864c0.62-0.516,1.04-0.923,1.261-1.221c0.222-0.298,0.332-0.58,0.332-0.849
				c0-0.278-0.1-0.513-0.299-0.704c-0.2-0.191-0.461-0.287-0.781-0.287c-0.34,0-0.61,0.104-0.814,0.311
				c-0.203,0.208-0.307,0.494-0.309,0.861l-0.719-0.094c0.049-0.539,0.235-0.95,0.558-1.232c0.323-0.282,0.756-0.424,1.3-0.424
				c0.549,0,0.983,0.152,1.303,0.457c0.32,0.305,0.48,0.683,0.48,1.133c0,0.229-0.047,0.455-0.14,0.676
				c-0.094,0.221-0.248,0.454-0.465,0.699c-0.216,0.245-0.576,0.581-1.081,1.009c-0.423,0.355-0.694,0.596-0.814,0.722
				c-0.119,0.126-0.219,0.253-0.297,0.381H46.185z"/>
		</g>
		<path i:knockout="Off" fill="none" stroke="#000000" stroke-width="0.7" d="M33.432,27.658h7.296"/>
		<path i:knockout="Off" fill="none" stroke="#000000" d="M76.466,20.347H79.3v-5.67h-2.834"/>
		<path i:knockout="Off" fill="none" stroke="#000000" d="M3.334,20.347H0.5v-5.67h2.834"/>
		<path i:knockout="Off" fill="none" stroke="#000000" stroke-width="0.7" d="M42.779,23.309c0,3.13-2.537,5.666-5.667,5.666
			c-3.129,0-5.666-2.536-5.666-5.666s2.537-5.667,5.666-5.667C40.242,17.642,42.779,20.179,42.779,23.309z"/>
		<g i:knockout="Off">
			<path i:knockout="Off" d="M50.647,22.449c-0.292-0.106-0.508-0.259-0.648-0.457s-0.211-0.436-0.211-0.712
				c0-0.417,0.149-0.768,0.447-1.051c0.299-0.285,0.695-0.427,1.191-0.427c0.498,0,0.898,0.146,1.203,0.437
				c0.303,0.29,0.455,0.644,0.455,1.061c0,0.266-0.069,0.497-0.208,0.694c-0.139,0.196-0.349,0.349-0.632,0.455
				c0.351,0.114,0.617,0.299,0.8,0.554s0.274,0.559,0.274,0.912c0,0.489-0.173,0.899-0.519,1.232s-0.8,0.499-1.364,0.499
				s-1.019-0.167-1.364-0.501s-0.519-0.75-0.519-1.25c0-0.371,0.095-0.683,0.284-0.934S50.297,22.54,50.647,22.449z M50.272,23.9
				c0,0.2,0.046,0.394,0.139,0.58c0.092,0.187,0.232,0.331,0.423,0.435c0.189,0.102,0.393,0.153,0.608,0.153
				c0.341,0,0.619-0.107,0.834-0.323c0.217-0.215,0.324-0.489,0.324-0.821c0-0.337-0.111-0.616-0.334-0.837
				c-0.222-0.221-0.504-0.331-0.848-0.331c-0.336,0-0.61,0.109-0.824,0.327C50.38,23.301,50.272,23.573,50.272,23.9z M50.507,21.256
				c0,0.271,0.086,0.492,0.257,0.664s0.397,0.258,0.681,0.258c0.275,0,0.497-0.085,0.667-0.256s0.255-0.38,0.255-0.627
				c0-0.258-0.088-0.475-0.263-0.65s-0.397-0.264-0.667-0.264c-0.272,0-0.495,0.086-0.669,0.258S50.507,21.017,50.507,21.256z"/>
		</g>
		<path i:knockout="Off" fill="none" stroke="#000000" stroke-width="0.7" d="M47.747,27.658h7.295"/>
		<path i:knockout="Off" fill="none" stroke="#000000" stroke-width="0.7" d="M57.095,23.309c0,3.13-2.537,5.666-5.667,5.666
			s-5.667-2.536-5.667-5.666s2.537-5.667,5.667-5.667S57.095,20.179,57.095,23.309z"/>
		<g i:knockout="Off">
			<path i:knockout="Off" d="M60.897,24.225l0.672-0.063c0.057,0.317,0.166,0.548,0.328,0.691c0.161,0.144,0.368,0.215,0.621,0.215
				c0.216,0,0.406-0.049,0.572-0.147c0.165-0.099,0.299-0.23,0.4-0.395s0.188-0.387,0.258-0.667s0.105-0.565,0.105-0.857
				c0-0.031-0.002-0.078-0.004-0.141c-0.141,0.224-0.331,0.405-0.573,0.545s-0.505,0.209-0.787,0.209
				c-0.472,0-0.87-0.172-1.197-0.517c-0.326-0.344-0.489-0.797-0.489-1.36c0-0.581,0.171-1.05,0.514-1.403
				c0.342-0.355,0.771-0.532,1.287-0.532c0.372,0,0.713,0.101,1.021,0.301s0.543,0.485,0.703,0.856s0.24,0.908,0.24,1.61
				c0,0.731-0.08,1.313-0.239,1.747s-0.396,0.764-0.711,0.989c-0.315,0.227-0.685,0.34-1.107,0.34c-0.449,0-0.816-0.124-1.101-0.373
				C61.126,25.024,60.955,24.675,60.897,24.225z M63.788,21.699c0-0.404-0.106-0.726-0.319-0.962
				c-0.212-0.238-0.473-0.356-0.78-0.356c-0.318,0-0.592,0.128-0.822,0.384c-0.229,0.256-0.344,0.586-0.344,0.993
				c0,0.365,0.109,0.662,0.326,0.89c0.219,0.229,0.492,0.343,0.82,0.343c0.326,0,0.594-0.114,0.805-0.343
				C63.683,22.42,63.788,22.104,63.788,21.699z"/>
		</g>
		<path i:knockout="Off" fill="none" stroke="#000000" stroke-width="0.7" d="M58.997,27.658h7.295"/>
		<path i:knockout="Off" fill="none" stroke="#000000" stroke-width="0.7" d="M68.345,23.309c0,3.13-2.537,5.666-5.667,5.666
			s-5.667-2.536-5.667-5.666s2.537-5.667,5.667-5.667S68.345,20.179,68.345,23.309z"/>
		<g i:knockout="Off">
			<path i:knockout="Off" d="M55.215,14.103l0.719-0.094c0.08,0.393,0.215,0.676,0.405,0.85c0.189,0.173,0.425,0.26,0.706,0.26
				c0.333,0,0.611-0.115,0.835-0.344c0.223-0.229,0.335-0.514,0.335-0.853c0-0.323-0.104-0.59-0.313-0.8s-0.476-0.315-0.798-0.315
				c-0.132,0-0.296,0.026-0.492,0.078l0.077-0.625c0.047,0.005,0.084,0.008,0.112,0.008c0.294,0,0.56-0.077,0.795-0.232
				c0.235-0.155,0.354-0.394,0.354-0.717c0-0.255-0.087-0.467-0.259-0.635c-0.174-0.168-0.396-0.252-0.67-0.252
				c-0.271,0-0.496,0.086-0.676,0.258c-0.182,0.172-0.297,0.43-0.349,0.773l-0.719-0.125c0.086-0.471,0.28-0.836,0.585-1.096
				c0.304-0.259,0.682-0.389,1.134-0.389c0.312,0,0.599,0.067,0.861,0.2c0.263,0.134,0.463,0.315,0.603,0.546
				c0.139,0.231,0.208,0.476,0.208,0.735c0,0.246-0.066,0.47-0.199,0.672s-0.329,0.363-0.59,0.482
				c0.339,0.078,0.604,0.241,0.797,0.487c0.192,0.246,0.289,0.555,0.289,0.925c0,0.501-0.183,0.926-0.547,1.273
				c-0.364,0.349-0.825,0.522-1.383,0.522c-0.503,0-0.92-0.147-1.252-0.443S55.262,14.573,55.215,14.103z"/>
		</g>
		<path i:knockout="Off" fill="none" stroke="#000000" stroke-width="0.7" d="M53.392,17.708h7.296"/>
		<path i:knockout="Off" fill="none" stroke="#000000" stroke-width="0.7" d="M62.739,13.358c0,3.129-2.537,5.666-5.666,5.666
			s-5.666-2.537-5.666-5.666c0-3.13,2.537-5.667,5.666-5.667S62.739,10.229,62.739,13.358z"/>
		<g i:knockout="Off">
			<path i:knockout="Off" d="M68.974,15.603v-1.375h-2.484v-0.641l2.625-3.719h0.563v3.719h0.781v0.641h-0.781v1.375H68.974z
				 M68.974,13.587v-2.566l-1.793,2.566H68.974z"/>
		</g>
		<path i:knockout="Off" fill="none" stroke="#000000" stroke-width="0.7" d="M64.917,17.708h7.295"/>
		<path i:knockout="Off" fill="none" stroke="#000000" stroke-width="0.7" d="M74.265,13.358c0,3.129-2.537,5.666-5.666,5.666
			c-3.13,0-5.667-2.537-5.667-5.666c0-3.13,2.537-5.667,5.667-5.667C71.728,7.691,74.265,10.229,74.265,13.358z"/>
		<g i:knockout="Off">
			<path i:knockout="Off" d="M24.536,21.225l-0.703,0.063c-0.063-0.277-0.152-0.479-0.268-0.604
				c-0.191-0.201-0.427-0.302-0.708-0.302c-0.226,0-0.426,0.063-0.602,0.187c-0.218,0.162-0.391,0.396-0.52,0.705
				c-0.128,0.31-0.195,0.75-0.2,1.323c0.17-0.258,0.378-0.449,0.623-0.574c0.246-0.125,0.503-0.188,0.773-0.188
				c0.47,0,0.871,0.173,1.202,0.518s0.496,0.791,0.496,1.338c0,0.359-0.078,0.693-0.233,1.002C24.241,25,24.027,25.236,23.755,25.4
				c-0.271,0.164-0.58,0.246-0.925,0.246c-0.588,0-1.068-0.216-1.44-0.646c-0.371-0.432-0.557-1.141-0.557-2.13
				c0-1.106,0.206-1.91,0.617-2.413c0.359-0.437,0.843-0.655,1.451-0.655c0.453,0,0.825,0.126,1.114,0.378
				S24.479,20.78,24.536,21.225z M21.646,23.695c0,0.242,0.052,0.474,0.155,0.694s0.247,0.39,0.43,0.505
				c0.183,0.116,0.38,0.174,0.589,0.174c0.304,0,0.562-0.12,0.773-0.358c0.212-0.24,0.318-0.564,0.318-0.976
				c0-0.396-0.104-0.706-0.314-0.935c-0.209-0.227-0.478-0.341-0.805-0.341c-0.319,0-0.59,0.114-0.813,0.341
				C21.757,23.028,21.646,23.326,21.646,23.695z"/>
		</g>
		<path i:knockout="Off" fill="none" stroke="#000000" stroke-width="0.7" d="M19.057,27.658h7.296"/>
		<path i:knockout="Off" fill="none" stroke="#000000" stroke-width="0.7" d="M28.404,23.309c0,3.13-2.537,5.666-5.667,5.666
			c-3.129,0-5.666-2.536-5.666-5.666s2.537-5.667,5.666-5.667C25.867,17.642,28.404,20.179,28.404,23.309z"/>
		<g i:knockout="Off">
			<path i:knockout="Off" d="M9.239,24.053l0.719-0.063c0.055,0.358,0.181,0.628,0.379,0.808c0.198,0.181,0.441,0.271,0.729,0.271
				c0.349,0,0.639-0.127,0.871-0.382c0.232-0.254,0.348-0.592,0.348-1.013c0-0.399-0.111-0.715-0.332-0.946
				c-0.221-0.23-0.518-0.347-0.891-0.347c-0.232,0-0.438,0.051-0.617,0.152s-0.322,0.233-0.426,0.395l-0.656-0.094l0.563-2.938
				h2.844v0.672h-2.285l-0.313,1.549c0.344-0.241,0.705-0.361,1.082-0.361c0.5,0,0.922,0.173,1.266,0.519
				c0.344,0.347,0.516,0.791,0.516,1.335c0,0.518-0.151,0.966-0.453,1.343c-0.367,0.463-0.869,0.694-1.504,0.694
				c-0.521,0-0.946-0.146-1.275-0.437S9.286,24.533,9.239,24.053z"/>
		</g>
		<path i:knockout="Off" fill="none" stroke="#000000" stroke-width="0.7" d="M7.432,27.658h7.295"/>
		<path i:knockout="Off" fill="none" stroke="#000000" stroke-width="0.7" d="M16.779,23.309c0,3.13-2.537,5.666-5.667,5.666
			s-5.667-2.536-5.667-5.666s2.537-5.667,5.667-5.667S16.779,20.179,16.779,23.309z"/>
		<path i:knockout="Off" fill="none" stroke="#000000" stroke-width="0.7" d="M51.376,12.473c0,3.912-3.172,7.083-7.084,7.083
			s-7.083-3.171-7.083-7.083s3.171-7.083,7.083-7.083S51.376,8.561,51.376,12.473z"/>
		<path i:knockout="Off" fill="none" stroke="#000000" stroke-width="0.7" d="M25.472,18.05h8.806"/>
		<g i:knockout="Off">
			<path i:knockout="Off" d="M30.771,14.928h-0.703v-4.48c-0.169,0.162-0.392,0.323-0.666,0.484
				c-0.275,0.162-0.521,0.283-0.74,0.363v-0.68c0.393-0.185,0.737-0.409,1.031-0.672c0.294-0.263,0.502-0.518,0.625-0.766h0.453
				V14.928z"/>
		</g>
		<path i:knockout="Off" fill="none" stroke="#000000" stroke-width="0.7" d="M37.001,12.473c0,3.912-3.172,7.083-7.084,7.083
			s-7.083-3.171-7.083-7.083s3.171-7.083,7.083-7.083S37.001,8.561,37.001,12.473z"/>
		<path i:knockout="Off" fill="none" stroke="#000000" stroke-width="1.2" d="M76.592,24.644c0,3.866-3.134,7-7,7H10.376
			c-3.866,0-7-3.134-7-7V10.348c0-3.866,3.134-7,7-7h59.216c3.866,0,7,3.134,7,7V24.644z"/>
	</g>
</svg>
