<?xml version="1.0" encoding="utf-8"?>
<!-- Generator: Adobe Illustrator 10.0, SVG Export Plug-In . SVG Version: 3.0.0 Build 77)  -->
<!DOCTYPE svg PUBLIC "-//W3C//DTD SVG 1.0//EN"    "http://www.w3.org/TR/2001/REC-SVG-20010904/DTD/svg10.dtd" [
	<!ENTITY ns_flows "http://ns.adobe.com/Flows/1.0/">
	<!ENTITY ns_extend "http://ns.adobe.com/Extensibility/1.0/">
	<!ENTITY ns_ai "http://ns.adobe.com/AdobeIllustrator/10.0/">
	<!ENTITY ns_graphs "http://ns.adobe.com/Graphs/1.0/">
	<!ENTITY ns_vars "http://ns.adobe.com/Variables/1.0/">
	<!ENTITY ns_imrep "http://ns.adobe.com/ImageReplacement/1.0/">
	<!ENTITY ns_sfw "http://ns.adobe.com/SaveForWeb/1.0/">
	<!ENTITY ns_custom "http://ns.adobe.com/GenericCustomNamespace/1.0/">
	<!ENTITY ns_adobe_xpath "http://ns.adobe.com/XPath/1.0/">
	<!ENTITY ns_svg "http://www.w3.org/2000/svg">
	<!ENTITY ns_xlink "http://www.w3.org/1999/xlink">
]>
<svg xmlns:x="&ns_extend;" xmlns:i="&ns_ai;" xmlns:graph="&ns_graphs;" i:viewOrigin="286.1348 427.6084" i:rulerOrigin="0 9.765625e-004" i:pageBounds="0 841.8887 595.2754 -9.765625e-004" xmlns="&ns_svg;" xmlns:xlink="&ns_xlink;" xmlns:a="http://ns.adobe.com/AdobeSVGViewerExtensions/3.0/" width="27.324" height="21.91" viewBox="0 0 27.324 21.91" overflow="visible" enable-background="new 0 0 27.324 21.91" xml:space="preserve" id="svgObj" onload="parent.svgLoad('Top', document)">
	<metadata>
		<variableSets xmlns="&ns_vars;">
			<variableSet varSetName="binding1" locked="none">
				<variables></variables>
				<v:sampleDataSets xmlns="&ns_custom;" xmlns:v="&ns_vars;"></v:sampleDataSets>
			</variableSet>
		</variableSets>
		<sfw xmlns="&ns_sfw;">
			<slices></slices>
			<sliceSourceBounds y="405.698" x="286.135" width="27.324" height="21.91" bottomLeftOrigin="true"></sliceSourceBounds>
		</sfw>
	</metadata>
	<g id="レイヤー_1" i:layer="yes" i:dimmedPercent="50" i:rgbTrio="#4F008000FFFF">
		<g>
			<path i:knockout="Off" d="M7.3,15.736l-0.101-0.179H4.696v0.699h2.093l0.145,0.259l0.611-0.342L7.3,15.736z"/>
		</g>
		<path i:knockout="Off" d="M8.043,18.066l2.067,1.877l0.471-0.519l-2.067-1.877L8.043,18.066z"/>
		<path i:knockout="Off" d="M11.804,20.914l2.678,0.834l0.209-0.668l-2.679-0.834L11.804,20.914z"/>
		<path i:knockout="Off" d="M16.441,21.91l2.742-0.364l-0.092-0.693l-2.742,0.364L16.441,21.91z"/>
		<path i:knockout="Off" d="M21.004,20.886l2.353-1.491l-0.375-0.591l-2.353,1.49L21.004,20.886z"/>
		<path i:knockout="Off" d="M24.74,18.024l1.519-2.349l-0.588-0.38l-1.519,2.349L24.74,18.024z"/>
		<path i:knockout="Off" d="M26.941,13.841l0.383-2.792l-0.693-0.095l-0.384,2.792L26.941,13.841z"/>
		<path i:knockout="Off" d="M27.172,9.123l-0.805-2.651l-0.67,0.203l0.805,2.651L27.172,9.123z"/>
		<path i:knockout="Off" d="M25.416,4.777l-1.854-2.083l-0.523,0.465l1.854,2.083L25.416,4.777z"/>
		<path i:knockout="Off" d="M21.982,1.548l-2.569-1.117l-0.279,0.642l2.569,1.117L21.982,1.548z"/>
		<g>
			<path i:knockout="Off" d="M16.39,0.001L16.366,0l-0.022,0.001l-1.668,0.131L14.73,0.83l1.646-0.129l1.099,0.058l0.036-0.699
				L16.39,0.001z"/>
		</g>
		<path i:knockout="Off" d="M12.815,0.595l-2.494,1.233l0.31,0.627l2.494-1.233L12.815,0.595z"/>
		<path i:knockout="Off" d="M8.803,3.044L7.046,5.217l0.544,0.44l1.756-2.173L8.803,3.044z"/>
		<path i:knockout="Off" d="M5.849,5.657h-2.8v0.7h2.8V5.657z"/>
		<path i:knockout="Off" d="M1.249,5.657H0.096v0.7h1.153V5.657z"/>
		<path i:knockout="Off" d="M0.096,16.257h2.8v-0.699h-2.8V16.257z"/>
		<path i:knockout="Off" fill="none" stroke="#000000" stroke-width="1.2" d="M8.629,10.958c0,4.275,3.466,7.742,7.742,7.742
			c4.275,0,7.742-3.467,7.742-7.742c0-4.277-3.467-7.743-7.742-7.743C12.095,3.215,8.629,6.681,8.629,10.958z"/>
		<g i:knockout="Off">
			<path i:knockout="Off" d="M17.257,13.25h-0.703V8.77c-0.169,0.161-0.392,0.323-0.666,0.484s-0.521,0.282-0.74,0.363v-0.68
				c0.394-0.185,0.737-0.409,1.031-0.672s0.503-0.519,0.625-0.766h0.453V13.25z"/>
		</g>
		<path i:knockout="Off" fill="none" stroke="#000000" stroke-width="0.7" d="M8.629,10.958H0"/>
	</g>
</svg>
