<?xml version="1.0" encoding="utf-8"?>
<!-- Generator: Adobe Illustrator 10.0, SVG Export Plug-In . SVG Version: 3.0.0 Build 77)  -->
<!DOCTYPE svg PUBLIC "-//W3C//DTD SVG 1.0//EN"    "http://www.w3.org/TR/2001/REC-SVG-20010904/DTD/svg10.dtd" [
	<!ENTITY ns_flows "http://ns.adobe.com/Flows/1.0/">
	<!ENTITY ns_extend "http://ns.adobe.com/Extensibility/1.0/">
	<!ENTITY ns_ai "http://ns.adobe.com/AdobeIllustrator/10.0/">
	<!ENTITY ns_graphs "http://ns.adobe.com/Graphs/1.0/">
	<!ENTITY ns_vars "http://ns.adobe.com/Variables/1.0/">
	<!ENTITY ns_imrep "http://ns.adobe.com/ImageReplacement/1.0/">
	<!ENTITY ns_sfw "http://ns.adobe.com/SaveForWeb/1.0/">
	<!ENTITY ns_custom "http://ns.adobe.com/GenericCustomNamespace/1.0/">
	<!ENTITY ns_adobe_xpath "http://ns.adobe.com/XPath/1.0/">
	<!ENTITY ns_svg "http://www.w3.org/2000/svg">
	<!ENTITY ns_xlink "http://www.w3.org/1999/xlink">
]>
<svg xmlns:x="&ns_extend;" xmlns:i="&ns_ai;" xmlns:graph="&ns_graphs;" i:viewOrigin="259.793 454.731" i:rulerOrigin="-1 0.1104" i:pageBounds="1 841.8896 596 -0.1104" xmlns="&ns_svg;" xmlns:xlink="&ns_xlink;" xmlns:a="http://ns.adobe.com/AdobeSVGViewerExtensions/3.0/" width="76.863" height="70.331" viewBox="0 0 76.863 70.331" overflow="visible" enable-background="new 0 0 76.863 70.331" xml:space="preserve" id="svgObj" onload="parent.svgLoad('Top', document)">
	<metadata>
		<variableSets xmlns="&ns_vars;">
			<variableSet varSetName="binding1" locked="none">
				<variables></variables>
				<v:sampleDataSets xmlns="&ns_custom;" xmlns:v="&ns_vars;"></v:sampleDataSets>
			</variableSet>
		</variableSets>
		<sfw xmlns="&ns_sfw;">
			<slices></slices>
			<sliceSourceBounds x="257.815" y="384.4" width="80.371" height="70.331" bottomLeftOrigin="true"></sliceSourceBounds>
		</sfw>
	</metadata>
	<g id="レイヤー_1" i:layer="yes" i:dimmedPercent="100" i:rgbTrio="#4F008000FFFF">
		<g>
			<path i:knockout="Off" fill="none" stroke="#000000" stroke-width="1.2" stroke-linecap="square" d="M41.588,15.847v-3.729
				h-5.671v3.729"/>
			<path i:knockout="Off" fill="none" stroke="#000000" stroke-width="1.2" stroke-linecap="square" d="M11.984,3.392V0.6H9.906
				v2.792"/>
			<path i:knockout="Off" fill="none" stroke="#000000" stroke-width="1.2" stroke-linecap="square" d="M67.969,3.392V0.6h-2.078
				v2.792"/>
			<g i:knockout="Off">
				<path i:knockout="Off" d="M12.949,13.07l2.2-5.734h0.837l2.307,5.734h-0.862l-0.654-1.734h-2.396l-0.622,1.734H12.949z
					 M14.599,10.711h1.948l-0.597-1.58c-0.178-0.483-0.312-0.879-0.402-1.186c-0.073,0.369-0.179,0.734-0.315,1.094L14.599,10.711z"/>
			</g>
			<g i:knockout="Off">
				<path i:knockout="Off" d="M59.627,13.07l2.2-5.734h0.837l2.307,5.734h-0.862l-0.653-1.734h-2.396l-0.622,1.734H59.627z
					 M61.277,10.711h1.947l-0.597-1.58c-0.178-0.483-0.312-0.879-0.402-1.186c-0.073,0.369-0.179,0.734-0.315,1.094L61.277,10.711z"/>
			</g>
			<g i:knockout="Off">
				<path i:knockout="Off" d="M12.949,24.813l2.2-5.734h0.837l2.307,5.734h-0.862l-0.654-1.734h-2.396l-0.622,1.734H12.949z
					 M14.599,22.453h1.948l-0.597-1.58c-0.178-0.483-0.312-0.879-0.402-1.186c-0.073,0.369-0.179,0.734-0.315,1.094L14.599,22.453z"/>
			</g>
			<g i:knockout="Off">
				<path i:knockout="Off" d="M24.691,24.813l2.2-5.734h0.837l2.307,5.734h-0.862l-0.654-1.734h-2.396l-0.622,1.734H24.691z
					 M26.341,22.453h1.948l-0.597-1.58c-0.178-0.483-0.312-0.879-0.402-1.186c-0.073,0.369-0.179,0.734-0.315,1.094L26.341,22.453z"/>
			</g>
			<g i:knockout="Off">
				<path i:knockout="Off" d="M36.506,24.813l2.2-5.734h0.837l2.307,5.734h-0.862l-0.653-1.734h-2.396l-0.622,1.734H36.506z
					 M38.156,22.453h1.948l-0.597-1.58c-0.178-0.483-0.312-0.879-0.402-1.186c-0.073,0.369-0.179,0.734-0.315,1.094L38.156,22.453z"/>
			</g>
			<g i:knockout="Off">
				<path i:knockout="Off" d="M48.248,24.813l2.2-5.734h0.837l2.307,5.734h-0.862l-0.653-1.734H49.68l-0.622,1.734H48.248z
					 M49.898,22.453h1.947l-0.597-1.58c-0.178-0.483-0.312-0.879-0.402-1.186c-0.073,0.369-0.179,0.734-0.315,1.094L49.898,22.453z"/>
			</g>
			<g i:knockout="Off">
				<path i:knockout="Off" d="M59.627,24.813l2.2-5.734h0.837l2.307,5.734h-0.862l-0.653-1.734h-2.396l-0.622,1.734H59.627z
					 M61.277,22.453h1.947l-0.597-1.58c-0.178-0.483-0.312-0.879-0.402-1.186c-0.073,0.369-0.179,0.734-0.315,1.094L61.277,22.453z"/>
			</g>
			<path i:knockout="Off" fill="none" stroke="#000000" stroke-width="2" stroke-linecap="round" stroke-linejoin="round" d="
				M3.616,34.188c0,0-6.201,16.281,0,35.143"/>
			<path i:knockout="Off" fill="none" stroke="#000000" stroke-width="2" stroke-linecap="round" stroke-linejoin="round" d="
				M73.246,34.188c0,0,6.202,16.281,0,35.143"/>
			<path i:knockout="Off" fill="none" stroke="#000000" stroke-linecap="round" d="M70.874,68.708H6.57V35.196h64.304V68.708z"/>
			<path i:knockout="Off" fill="none" stroke="#000000" stroke-width="1.2" stroke-linecap="square" d="M67.96,28.335H9.909V3.7
				h11.628v12.341h34.816V3.7H67.96V28.335z"/>
			<path i:knockout="Off" fill="none" stroke="#000000" stroke-width="0.7" stroke-linecap="square" d="M56.378,15.899V28.24"/>
			<path i:knockout="Off" fill="none" stroke="#000000" stroke-width="0.7" stroke-linecap="square" d="M44.749,15.899V28.24"/>
			<path i:knockout="Off" fill="none" stroke="#000000" stroke-width="0.7" stroke-linecap="square" d="M33.072,15.899V28.24"/>
			<path i:knockout="Off" fill="none" stroke="#000000" stroke-width="0.7" stroke-linecap="square" d="M21.491,15.899V28.24"/>
			<path i:knockout="Off" fill="none" stroke="#000000" stroke-width="0.7" stroke-linecap="square" d="M9.861,15.994H21.49"/>
			<path i:knockout="Off" fill="none" stroke="#000000" stroke-width="0.7" stroke-linecap="square" d="M56.283,15.994h11.629"/>
			<path i:knockout="Off" fill="none" stroke="#000000" stroke-width="0.7" stroke-linecap="square" d="M41.588,53.588v-3.729
				h-5.671v3.729"/>
			<path i:knockout="Off" fill="none" stroke="#000000" stroke-width="0.7" stroke-linecap="square" d="M11.984,41.133v-2.792H9.906
				v2.792"/>
			<path i:knockout="Off" fill="none" stroke="#000000" stroke-width="0.7" stroke-linecap="square" d="M67.969,41.133v-2.792
				h-2.078v2.792"/>
			<path i:knockout="Off" fill="none" stroke="#000000" stroke-width="0.7" stroke-linecap="square" d="M67.96,66.077H9.909V41.442
				h11.628v12.341h34.816V41.442H67.96V66.077z"/>
			<path i:knockout="Off" fill="none" stroke="#000000" stroke-width="0.7" stroke-linecap="square" d="M56.378,53.64v12.341"/>
			<path i:knockout="Off" fill="none" stroke="#000000" stroke-width="0.7" stroke-linecap="square" d="M44.749,53.886v12.095"/>
			<path i:knockout="Off" fill="none" stroke="#000000" stroke-width="0.7" stroke-linecap="square" d="M33.072,53.886v12.095"/>
			<path i:knockout="Off" fill="none" stroke="#000000" stroke-width="0.7" stroke-linecap="square" d="M21.491,53.64v12.341"/>
			<path i:knockout="Off" fill="none" stroke="#000000" stroke-width="0.7" stroke-linecap="square" d="M10.035,53.735H21.49"/>
			<path i:knockout="Off" fill="none" stroke="#000000" stroke-width="0.7" stroke-linecap="square" d="M56.283,53.735h11.629"/>
			<path i:knockout="Off" fill="none" stroke="#000000" stroke-width="0.7" d="M38.568,60.469h24.339V47.607"/>
			<path i:knockout="Off" fill="none" stroke="#000000" stroke-width="0.7" d="M15.526,47.607v12.862h23.568"/>
			<path i:knockout="Off" d="M17.013,47.679c0,0.783-0.635,1.417-1.418,1.417c-0.781,0-1.416-0.634-1.416-1.417
				s0.635-1.417,1.416-1.417C16.378,46.262,17.013,46.896,17.013,47.679z"/>
			<path i:knockout="Off" d="M17.013,60.369c0,0.783-0.635,1.417-1.418,1.417c-0.781,0-1.416-0.634-1.416-1.417
				s0.635-1.417,1.416-1.417C16.378,58.952,17.013,59.585,17.013,60.369z"/>
			<path i:knockout="Off" d="M64.331,47.679c0,0.783-0.635,1.417-1.418,1.417c-0.781,0-1.416-0.634-1.416-1.417
				s0.635-1.417,1.416-1.417C63.696,46.262,64.331,46.896,64.331,47.679z"/>
			<path i:knockout="Off" d="M64.331,60.369c0,0.783-0.635,1.417-1.418,1.417c-0.781,0-1.416-0.634-1.416-1.417
				s0.635-1.417,1.416-1.417C63.696,58.952,64.331,59.585,64.331,60.369z"/>
			<path i:knockout="Off" d="M52.066,60.369c0,0.783-0.635,1.417-1.418,1.417c-0.781,0-1.416-0.634-1.416-1.417
				s0.635-1.417,1.416-1.417C51.432,58.952,52.066,59.585,52.066,60.369z"/>
			<path i:knockout="Off" d="M40.355,60.369c0,0.783-0.635,1.417-1.418,1.417c-0.781,0-1.416-0.634-1.416-1.417
				s0.635-1.417,1.416-1.417C39.721,58.952,40.355,59.585,40.355,60.369z"/>
			<path i:knockout="Off" d="M28.724,60.369c0,0.783-0.635,1.417-1.418,1.417c-0.781,0-1.416-0.634-1.416-1.417
				s0.635-1.417,1.416-1.417C28.089,58.952,28.724,59.585,28.724,60.369z"/>
		</g>
	</g>
</svg>
