<?xml version="1.0" encoding="utf-8"?>
<!-- Generator: Adobe Illustrator 10.0, SVG Export Plug-In . SVG Version: 3.0.0 Build 77)  -->
<!DOCTYPE svg PUBLIC "-//W3C//DTD SVG 1.0//EN"    "http://www.w3.org/TR/2001/REC-SVG-20010904/DTD/svg10.dtd" [
	<!ENTITY ns_flows "http://ns.adobe.com/Flows/1.0/">
	<!ENTITY ns_extend "http://ns.adobe.com/Extensibility/1.0/">
	<!ENTITY ns_ai "http://ns.adobe.com/AdobeIllustrator/10.0/">
	<!ENTITY ns_graphs "http://ns.adobe.com/Graphs/1.0/">
	<!ENTITY ns_vars "http://ns.adobe.com/Variables/1.0/">
	<!ENTITY ns_imrep "http://ns.adobe.com/ImageReplacement/1.0/">
	<!ENTITY ns_sfw "http://ns.adobe.com/SaveForWeb/1.0/">
	<!ENTITY ns_custom "http://ns.adobe.com/GenericCustomNamespace/1.0/">
	<!ENTITY ns_adobe_xpath "http://ns.adobe.com/XPath/1.0/">
	<!ENTITY ns_svg "http://www.w3.org/2000/svg">
	<!ENTITY ns_xlink "http://www.w3.org/1999/xlink">
]>
<svg xmlns:x="&ns_extend;" xmlns:i="&ns_ai;" xmlns:graph="&ns_graphs;" i:viewOrigin="263.6831 451.0972" i:rulerOrigin="0 9.765625e-004" i:pageBounds="0 841.8887 595.2754 -9.765625e-004" xmlns="&ns_svg;" xmlns:xlink="&ns_xlink;" xmlns:a="http://ns.adobe.com/AdobeSVGViewerExtensions/3.0/" width="71.26" height="119.283" viewBox="0 0 71.26 119.283" overflow="visible" enable-background="new 0 0 71.26 119.283" xml:space="preserve" id="svgObj" onload="parent.svgLoad('Top', document)">
	<metadata>
		<variableSets xmlns="&ns_vars;">
			<variableSet varSetName="binding1" locked="none">
				<variables></variables>
				<v:sampleDataSets xmlns="&ns_custom;" xmlns:v="&ns_vars;"></v:sampleDataSets>
			</variableSet>
		</variableSets>
		<sfw xmlns="&ns_sfw;">
			<slices></slices>
			<sliceSourceBounds y="329.914" x="259.88" width="80.37" height="125.725" bottomLeftOrigin="true"></sliceSourceBounds>
		</sfw>
	</metadata>
	<g id="connector" i:layer="yes" i:dimmedPercent="50" i:rgbTrio="#FFFF4F00FFFF">
		<g i:knockout="Off">
			<path i:knockout="Off" d="M4.844,4.656L6.25,5.094C6.035,5.881,5.676,6.466,5.175,6.849S4.04,7.422,3.269,7.422
				c-0.952,0-1.735-0.326-2.349-0.977C0.307,5.794,0,4.904,0,3.775C0,2.58,0.308,1.652,0.925,0.992C1.542,0.331,2.354,0,3.36,0
				C4.238,0,4.951,0.259,5.5,0.776c0.327,0.306,0.571,0.745,0.735,1.318L4.797,2.438c-0.085-0.372-0.263-0.665-0.533-0.88
				c-0.27-0.215-0.598-0.323-0.983-0.323c-0.534,0-0.966,0.191-1.298,0.574C1.65,2.191,1.484,2.81,1.484,3.667
				c0,0.909,0.164,1.557,0.491,1.942C2.302,5.995,2.727,6.188,3.25,6.188c0.386,0,0.717-0.123,0.996-0.369
				C4.523,5.572,4.723,5.185,4.844,4.656z"/>
			<path i:knockout="Off" d="M7.128,5.412L8.457,5.25c0.042,0.339,0.156,0.599,0.341,0.778c0.185,0.18,0.409,0.269,0.672,0.269
				c0.282,0,0.52-0.109,0.713-0.326c0.193-0.217,0.29-0.511,0.29-0.88c0-0.35-0.092-0.626-0.277-0.831s-0.41-0.307-0.675-0.307
				c-0.175,0-0.384,0.034-0.626,0.103l0.151-1.103c0.372,0.01,0.656-0.071,0.852-0.243c0.196-0.171,0.294-0.398,0.294-0.683
				c0-0.242-0.072-0.435-0.215-0.578s-0.333-0.215-0.57-0.215c-0.234,0-0.435,0.081-0.6,0.243C8.64,1.64,8.539,1.876,8.503,2.188
				L7.238,1.974c0.088-0.435,0.22-0.783,0.397-1.043S8.06,0.466,8.377,0.317C8.694,0.168,9.05,0.094,9.443,0.094
				c0.673,0,1.213,0.215,1.62,0.646c0.335,0.353,0.503,0.751,0.503,1.195c0,0.63-0.343,1.133-1.029,1.509
				c0.407,0.088,0.732,0.286,0.976,0.594s0.366,0.679,0.366,1.115c0,0.633-0.229,1.171-0.688,1.617s-1.029,0.668-1.711,0.668
				c-0.647,0-1.184-0.187-1.609-0.56C7.443,6.503,7.196,6.015,7.128,5.412z"/>
			<path i:knockout="Off" d="M15.424,7.297V5.859h-2.922V4.661L15.6,0.109h1.152v4.547h0.891v1.203h-0.891v1.438H15.424z
				 M15.424,4.656V2.223l-1.637,2.433H15.424z"/>
			<path i:knockout="Off" d="M18.251,5.412L19.58,5.25c0.042,0.339,0.156,0.599,0.341,0.778c0.186,0.18,0.409,0.269,0.672,0.269
				c0.282,0,0.521-0.109,0.713-0.326s0.29-0.511,0.29-0.88c0-0.35-0.092-0.626-0.276-0.831s-0.41-0.307-0.675-0.307
				c-0.175,0-0.384,0.034-0.627,0.103l0.152-1.103c0.372,0.01,0.656-0.071,0.852-0.243c0.196-0.171,0.293-0.398,0.293-0.683
				c0-0.242-0.071-0.435-0.214-0.578s-0.333-0.215-0.571-0.215c-0.234,0-0.434,0.081-0.6,0.243c-0.166,0.162-0.267,0.399-0.303,0.71
				l-1.266-0.214c0.088-0.435,0.221-0.783,0.398-1.043s0.424-0.464,0.742-0.614c0.317-0.148,0.673-0.223,1.066-0.223
				c0.673,0,1.213,0.215,1.62,0.646c0.335,0.353,0.502,0.751,0.502,1.195c0,0.63-0.343,1.133-1.028,1.509
				c0.406,0.088,0.731,0.286,0.976,0.594c0.243,0.308,0.365,0.679,0.365,1.115c0,0.633-0.229,1.171-0.688,1.617
				s-1.029,0.668-1.712,0.668c-0.646,0-1.184-0.187-1.609-0.56C18.567,6.503,18.32,6.015,18.251,5.412z"/>
		</g>
		<g i:knockout="Off">
			<path i:knockout="Off" d="M0.266,69.66v-7.156h5.297v1.219H1.719V65.3h3.578v1.219H1.719v1.922h3.984v1.219H0.266z"/>
			<path i:knockout="Off" d="M6.577,67.774l1.328-0.161c0.042,0.34,0.156,0.599,0.341,0.777c0.185,0.18,0.409,0.27,0.672,0.27
				c0.282,0,0.52-0.108,0.713-0.326c0.193-0.218,0.29-0.511,0.29-0.881c0-0.349-0.092-0.626-0.277-0.83s-0.41-0.307-0.675-0.307
				c-0.175,0-0.384,0.034-0.626,0.103l0.151-1.103c0.372,0.01,0.656-0.071,0.852-0.242c0.196-0.172,0.294-0.399,0.294-0.684
				c0-0.241-0.072-0.434-0.215-0.577s-0.333-0.216-0.57-0.216c-0.234,0-0.435,0.081-0.6,0.243c-0.166,0.162-0.267,0.399-0.302,0.71
				l-1.266-0.214c0.088-0.435,0.22-0.782,0.397-1.043c0.177-0.26,0.424-0.465,0.742-0.613c0.317-0.149,0.673-0.224,1.066-0.224
				c0.673,0,1.213,0.216,1.62,0.646c0.335,0.353,0.503,0.751,0.503,1.195c0,0.63-0.343,1.133-1.029,1.508
				c0.407,0.089,0.732,0.287,0.976,0.595s0.366,0.68,0.366,1.115c0,0.632-0.229,1.171-0.688,1.616S9.61,69.8,8.928,69.8
				c-0.647,0-1.184-0.187-1.609-0.561C6.892,68.867,6.645,68.377,6.577,67.774z"/>
			<path i:knockout="Off" d="M12.17,63.878v-1.281h4.688v1c-0.387,0.381-0.781,0.928-1.181,1.641c-0.4,0.712-0.705,1.47-0.915,2.271
				c-0.21,0.803-0.313,1.52-0.31,2.15h-1.328c0.023-0.988,0.227-1.997,0.614-3.024c0.387-1.028,0.903-1.946,1.549-2.757H12.17z"/>
			<path i:knockout="Off" d="M21.263,69.66h-1.375v-5.185c-0.5,0.471-1.088,0.818-1.766,1.044v-1.25
				c0.357-0.117,0.746-0.34,1.166-0.667s0.707-0.709,0.863-1.146h1.112V69.66z"/>
		</g>
	</g>
	<g id="レイヤー_1" i:layer="yes" i:dimmedPercent="50" i:rgbTrio="#4F008000FFFF">
		<g>
			<g>
				<g>
					<g>
						<g>
							<g>
								<path i:knockout="Off" fill="none" stroke="#000000" stroke-width="1.2" d="M33.383,24.38v-3.484h5.18v3.484"/>
							</g>
						</g>
					</g>
				</g>
			</g>
		</g>
		<g>
			<path i:knockout="Off" fill="none" stroke="#000000" stroke-width="1.2" stroke-linecap="round" d="M23.445,22.149v-9.118h-9.118
				v9.118H23.445z"/>
			<g i:knockout="Off">
				<path i:knockout="Off" d="M20.298,19.292v0.547h-3.055c-0.004-0.136,0.018-0.268,0.066-0.394
					c0.078-0.208,0.203-0.412,0.375-0.613c0.171-0.2,0.418-0.432,0.741-0.695c0.5-0.412,0.839-0.737,1.019-0.976
					c0.179-0.239,0.269-0.464,0.269-0.678c0-0.223-0.081-0.411-0.242-0.564c-0.162-0.153-0.372-0.229-0.631-0.229
					c-0.274,0-0.494,0.082-0.658,0.245s-0.248,0.389-0.25,0.677l-0.578-0.063c0.04-0.432,0.19-0.762,0.45-0.988
					s0.61-0.34,1.049-0.34c0.443,0,0.793,0.123,1.051,0.367c0.258,0.245,0.387,0.547,0.387,0.909c0,0.184-0.038,0.364-0.113,0.542
					c-0.075,0.178-0.201,0.365-0.376,0.561c-0.175,0.197-0.466,0.466-0.872,0.808c-0.34,0.284-0.56,0.477-0.657,0.578
					c-0.097,0.101-0.178,0.203-0.241,0.305H20.298z"/>
			</g>
		</g>
		<g>
			<path i:knockout="Off" fill="none" stroke="#000000" stroke-width="1.2" stroke-linecap="round" d="M12.047,22.149v-9.118H2.93
				v9.118H12.047z"/>
			<g i:knockout="Off">
				<path i:knockout="Off" d="M8.071,19.872H7.509v-3.598c-0.136,0.129-0.315,0.259-0.537,0.389c-0.221,0.13-0.42,0.227-0.596,0.292
					v-0.546c0.316-0.148,0.593-0.328,0.83-0.54c0.237-0.211,0.404-0.416,0.503-0.615h0.362V19.872z"/>
			</g>
		</g>
		<g>
			<path i:knockout="Off" fill="none" stroke="#000000" stroke-width="1.2" stroke-linecap="round" d="M46.24,33.545v-9.117h-9.119
				v9.117H46.24z"/>
			<g i:knockout="Off">
				<path i:knockout="Off" d="M40.989,28.905c-0.234-0.085-0.408-0.208-0.521-0.367c-0.113-0.159-0.17-0.349-0.17-0.571
					c0-0.334,0.121-0.616,0.362-0.843c0.24-0.228,0.562-0.342,0.962-0.342c0.402,0,0.727,0.117,0.972,0.35
					c0.246,0.233,0.368,0.517,0.368,0.851c0,0.213-0.056,0.399-0.167,0.557c-0.112,0.158-0.281,0.28-0.509,0.365
					c0.281,0.092,0.496,0.241,0.643,0.446c0.147,0.205,0.221,0.449,0.221,0.734c0,0.393-0.14,0.724-0.418,0.992
					c-0.279,0.268-0.646,0.401-1.102,0.401s-0.822-0.135-1.101-0.403c-0.279-0.269-0.419-0.604-0.419-1.005
					c0-0.299,0.076-0.549,0.229-0.751C40.491,29.116,40.708,28.979,40.989,28.905z M40.688,30.074c0,0.161,0.038,0.317,0.113,0.468
					s0.189,0.268,0.342,0.351c0.153,0.083,0.316,0.124,0.491,0.124c0.273,0,0.498-0.087,0.674-0.261
					c0.175-0.174,0.263-0.395,0.263-0.664c0-0.272-0.09-0.498-0.271-0.676s-0.409-0.267-0.685-0.267
					c-0.27,0-0.492,0.088-0.666,0.264C40.775,29.59,40.688,29.81,40.688,30.074z M40.875,27.948c0,0.218,0.07,0.396,0.21,0.534
					s0.323,0.208,0.551,0.208c0.221,0,0.4-0.068,0.539-0.206c0.139-0.137,0.208-0.305,0.208-0.504c0-0.208-0.071-0.382-0.214-0.523
					c-0.143-0.141-0.323-0.212-0.54-0.212c-0.219,0-0.399,0.069-0.541,0.208S40.875,27.755,40.875,27.948z"/>
			</g>
		</g>
		<g>
			<path i:knockout="Off" fill="none" stroke="#000000" stroke-width="1.2" stroke-linecap="round" d="M57.635,22.149v-9.118h-9.116
				v9.118H57.635z"/>
			<g i:knockout="Off">
				<path i:knockout="Off" d="M51.522,18.62l0.563-0.078c0.065,0.321,0.175,0.552,0.33,0.694c0.154,0.142,0.346,0.212,0.572,0.212
					c0.269,0,0.494-0.092,0.676-0.276c0.183-0.184,0.273-0.411,0.273-0.683c0-0.259-0.085-0.473-0.255-0.641
					c-0.169-0.168-0.385-0.252-0.647-0.252c-0.106,0-0.239,0.021-0.398,0.063l0.063-0.492c0.037,0.004,0.068,0.006,0.091,0.006
					c0.242,0,0.46-0.063,0.654-0.188c0.193-0.126,0.29-0.32,0.29-0.582c0-0.208-0.07-0.379-0.211-0.516
					c-0.142-0.136-0.323-0.205-0.546-0.205c-0.222,0-0.405,0.07-0.553,0.209s-0.242,0.348-0.284,0.627l-0.563-0.102
					c0.069-0.379,0.227-0.673,0.472-0.882c0.245-0.208,0.55-0.313,0.914-0.313c0.252,0,0.483,0.054,0.695,0.162
					c0.211,0.107,0.373,0.254,0.485,0.44s0.168,0.384,0.168,0.593c0,0.198-0.054,0.379-0.16,0.542s-0.265,0.292-0.474,0.389
					c0.271,0.063,0.483,0.193,0.634,0.39c0.151,0.197,0.227,0.444,0.227,0.741c0,0.401-0.146,0.741-0.439,1.02
					c-0.293,0.279-0.664,0.418-1.112,0.418c-0.404,0-0.739-0.121-1.007-0.361C51.712,19.315,51.56,19.003,51.522,18.62z"/>
			</g>
		</g>
		<g>
			<path i:knockout="Off" fill="none" stroke="#000000" stroke-width="1.2" stroke-linecap="round" d="M57.635,33.545v-9.117h-9.116
				v9.117H57.635z"/>
			<g i:knockout="Off">
				<path i:knockout="Off" d="M51.592,30.337l0.547-0.047c0.046,0.255,0.135,0.439,0.265,0.554s0.296,0.172,0.499,0.172
					c0.175,0,0.327-0.04,0.46-0.12c0.132-0.08,0.239-0.187,0.322-0.32c0.082-0.133,0.151-0.314,0.208-0.541
					c0.057-0.227,0.085-0.458,0.085-0.692c0-0.025-0.001-0.063-0.003-0.113c-0.113,0.18-0.268,0.326-0.463,0.438
					c-0.195,0.112-0.407,0.168-0.636,0.168c-0.381,0-0.703-0.138-0.967-0.414s-0.396-0.639-0.396-1.09
					c0-0.466,0.138-0.841,0.412-1.125c0.275-0.284,0.62-0.426,1.034-0.426c0.299,0,0.572,0.081,0.82,0.242
					c0.247,0.161,0.436,0.39,0.564,0.688c0.128,0.298,0.192,0.729,0.192,1.293c0,0.588-0.063,1.056-0.191,1.404
					s-0.318,0.613-0.57,0.795c-0.253,0.182-0.549,0.273-0.889,0.273c-0.36,0-0.654-0.1-0.883-0.299
					C51.776,30.979,51.638,30.699,51.592,30.337z M53.913,28.305c0-0.323-0.086-0.579-0.257-0.769
					c-0.172-0.19-0.381-0.285-0.626-0.285c-0.255,0-0.475,0.102-0.659,0.307c-0.186,0.204-0.278,0.469-0.278,0.794
					c0,0.292,0.088,0.529,0.264,0.712c0.176,0.182,0.396,0.273,0.657,0.273c0.263,0,0.478-0.091,0.646-0.273
					C53.829,28.881,53.913,28.628,53.913,28.305z"/>
			</g>
		</g>
		<g>
			<path i:knockout="Off" fill="none" stroke="#000000" stroke-width="1.2" stroke-linecap="round" d="M34.842,33.545v-9.117h-9.118
				v9.117H34.842z"/>
			<g i:knockout="Off">
				<path i:knockout="Off" d="M28.763,27.408v-0.547h2.984v0.442c-0.294,0.312-0.587,0.726-0.876,1.242
					c-0.29,0.516-0.513,1.046-0.671,1.592c-0.114,0.384-0.187,0.805-0.218,1.263h-0.578c0.006-0.361,0.078-0.798,0.214-1.31
					s0.333-1.005,0.588-1.481c0.255-0.475,0.527-0.875,0.815-1.202H28.763z"/>
			</g>
		</g>
		<g>
			<path i:knockout="Off" fill="none" stroke="#000000" stroke-width="1.2" stroke-linecap="round" d="M23.445,33.545v-9.117h-9.118
				v9.117H23.445z"/>
			<g i:knockout="Off">
				<path i:knockout="Off" d="M20.163,27.931l-0.563,0.047c-0.05-0.225-0.122-0.388-0.214-0.49
					c-0.154-0.163-0.343-0.245-0.568-0.245c-0.181,0-0.341,0.05-0.48,0.151c-0.177,0.13-0.316,0.319-0.419,0.569
					c-0.103,0.249-0.157,0.604-0.161,1.064c0.137-0.207,0.304-0.361,0.501-0.461c0.197-0.101,0.404-0.151,0.62-0.151
					c0.378,0,0.7,0.139,0.965,0.416c0.265,0.277,0.398,0.635,0.398,1.074c0,0.289-0.063,0.557-0.187,0.805
					c-0.125,0.248-0.296,0.438-0.515,0.57c-0.218,0.131-0.466,0.197-0.743,0.197c-0.472,0-0.857-0.173-1.155-0.519
					c-0.298-0.346-0.447-0.917-0.447-1.711c0-0.889,0.165-1.535,0.495-1.938c0.288-0.351,0.675-0.527,1.163-0.527
					c0.364,0,0.662,0.102,0.894,0.305C19.978,27.292,20.117,27.573,20.163,27.931z M17.843,29.912c0,0.194,0.042,0.381,0.125,0.559
					c0.083,0.178,0.198,0.313,0.347,0.407c0.148,0.093,0.305,0.14,0.472,0.14c0.243,0,0.449-0.096,0.621-0.289
					c0.171-0.192,0.256-0.454,0.256-0.785c0-0.318-0.084-0.569-0.253-0.752s-0.384-0.275-0.646-0.275
					c-0.257,0-0.475,0.092-0.653,0.275S17.843,29.614,17.843,29.912z"/>
			</g>
		</g>
		<g>
			<path i:knockout="Off" fill="none" stroke="#000000" stroke-width="1.2" stroke-linecap="round" d="M12.047,33.545v-9.117H2.93
				v9.117H12.047z"/>
			<g i:knockout="Off">
				<path i:knockout="Off" d="M5.825,30.197l0.594-0.047c0.044,0.288,0.146,0.505,0.304,0.649c0.159,0.146,0.353,0.218,0.582,0.218
					c0.276,0,0.507-0.103,0.694-0.309c0.187-0.206,0.28-0.479,0.28-0.818c0-0.323-0.089-0.578-0.269-0.765
					c-0.179-0.187-0.417-0.28-0.713-0.28c-0.185,0-0.35,0.043-0.495,0.128c-0.145,0.085-0.259,0.196-0.343,0.333l-0.531-0.078
					l0.445-2.367h2.289V27.4H6.826l-0.249,1.234c0.276-0.192,0.566-0.289,0.87-0.289c0.402,0,0.741,0.14,1.018,0.418
					s0.415,0.637,0.415,1.075c0,0.417-0.122,0.777-0.364,1.081c-0.295,0.373-0.699,0.56-1.21,0.56c-0.419,0-0.761-0.117-1.026-0.351
					C6.014,30.893,5.862,30.583,5.825,30.197z"/>
			</g>
		</g>
		<g>
			<path i:knockout="Off" fill="none" stroke="#000000" stroke-width="1.2" stroke-linecap="round" d="M57.635,44.946v-9.119h-9.116
				v9.119H57.635z"/>
			<g i:knockout="Off">
				<path i:knockout="Off" d="M51.629,42.797h-0.563V39.2c-0.136,0.13-0.314,0.259-0.536,0.389s-0.42,0.228-0.597,0.292v-0.546
					c0.316-0.148,0.594-0.328,0.83-0.539c0.237-0.212,0.404-0.417,0.503-0.615h0.362V42.797z"/>
				<path i:knockout="Off" d="M53.083,41.579l0.563-0.078c0.064,0.321,0.175,0.552,0.33,0.694c0.154,0.141,0.346,0.212,0.572,0.212
					c0.269,0,0.494-0.092,0.676-0.275c0.183-0.185,0.273-0.412,0.273-0.684c0-0.259-0.085-0.473-0.255-0.641
					s-0.386-0.252-0.647-0.252c-0.106,0-0.24,0.021-0.399,0.063l0.063-0.492c0.037,0.004,0.068,0.006,0.091,0.006
					c0.242,0,0.46-0.063,0.653-0.188c0.194-0.125,0.291-0.319,0.291-0.582c0-0.207-0.07-0.379-0.211-0.516
					c-0.142-0.136-0.323-0.204-0.547-0.204c-0.221,0-0.404,0.069-0.552,0.209s-0.242,0.349-0.284,0.627l-0.563-0.102
					c0.069-0.38,0.227-0.674,0.472-0.882c0.245-0.209,0.55-0.313,0.914-0.313c0.252,0,0.483,0.054,0.694,0.161
					c0.212,0.108,0.374,0.255,0.486,0.441c0.111,0.186,0.168,0.383,0.168,0.592c0,0.199-0.054,0.38-0.16,0.543
					s-0.265,0.293-0.474,0.389c0.271,0.063,0.483,0.192,0.634,0.391c0.151,0.197,0.227,0.443,0.227,0.74
					c0,0.401-0.146,0.741-0.439,1.021c-0.294,0.278-0.664,0.418-1.112,0.418c-0.404,0-0.74-0.12-1.007-0.361
					C53.272,42.274,53.12,41.961,53.083,41.579z"/>
			</g>
		</g>
		<g>
			<path i:knockout="Off" fill="none" stroke="#000000" stroke-width="1.2" stroke-linecap="round" d="M23.445,44.946v-9.119h-9.118
				v9.119H23.445z"/>
			<g i:knockout="Off">
				<path i:knockout="Off" d="M17.334,42.797h-0.563V39.2c-0.137,0.13-0.315,0.259-0.537,0.389s-0.42,0.228-0.596,0.292v-0.546
					c0.316-0.148,0.593-0.328,0.83-0.539c0.237-0.212,0.405-0.417,0.503-0.615h0.363V42.797z"/>
				<path i:knockout="Off" d="M21.754,42.25v0.547h-3.055c-0.004-0.137,0.018-0.268,0.066-0.394
					c0.078-0.207,0.203-0.412,0.375-0.612c0.171-0.201,0.418-0.433,0.741-0.695c0.5-0.412,0.839-0.737,1.019-0.976
					s0.269-0.465,0.269-0.679c0-0.223-0.081-0.41-0.242-0.563c-0.161-0.153-0.372-0.229-0.631-0.229
					c-0.274,0-0.494,0.081-0.658,0.245c-0.165,0.162-0.248,0.389-0.25,0.677l-0.578-0.063c0.04-0.433,0.19-0.762,0.45-0.988
					s0.61-0.34,1.048-0.34c0.443,0,0.793,0.122,1.052,0.366c0.258,0.245,0.387,0.548,0.387,0.909c0,0.185-0.038,0.365-0.113,0.543
					c-0.076,0.177-0.201,0.364-0.376,0.561s-0.466,0.466-0.873,0.809c-0.34,0.283-0.559,0.477-0.656,0.577
					c-0.098,0.102-0.178,0.203-0.241,0.306H21.754z"/>
			</g>
		</g>
		<g>
			<path i:knockout="Off" fill="none" stroke="#000000" stroke-width="1.2" stroke-linecap="round" d="M12.047,44.946v-9.119H2.93
				v9.119H12.047z"/>
			<g i:knockout="Off">
				<path i:knockout="Off" d="M6.283,42.797H5.72V39.2c-0.137,0.13-0.315,0.259-0.537,0.389s-0.42,0.228-0.596,0.292v-0.546
					c0.316-0.148,0.593-0.328,0.83-0.539c0.237-0.212,0.405-0.417,0.503-0.615h0.363V42.797z"/>
				<path i:knockout="Off" d="M9.86,42.797H9.298V39.2c-0.136,0.13-0.315,0.259-0.537,0.389s-0.42,0.228-0.596,0.292v-0.546
					c0.316-0.148,0.593-0.328,0.83-0.539c0.237-0.212,0.405-0.417,0.503-0.615H9.86V42.797z"/>
			</g>
		</g>
		<g>
			<path i:knockout="Off" fill="none" stroke="#000000" stroke-width="1.2" stroke-linecap="round" d="M46.24,56.321v-9.118h-9.119
				v9.118H46.24z"/>
			<g i:knockout="Off">
				<path i:knockout="Off" d="M40.119,54.175h-0.563v-3.598c-0.136,0.13-0.314,0.259-0.536,0.389s-0.42,0.227-0.597,0.292v-0.546
					c0.316-0.148,0.594-0.328,0.83-0.539c0.237-0.212,0.404-0.416,0.503-0.615h0.362V54.175z"/>
				<path i:knockout="Off" d="M42.435,51.681c-0.234-0.086-0.408-0.208-0.521-0.367s-0.17-0.35-0.17-0.57
					c0-0.335,0.12-0.616,0.361-0.844s0.563-0.342,0.963-0.342c0.402,0,0.727,0.116,0.972,0.35s0.368,0.517,0.368,0.852
					c0,0.213-0.056,0.398-0.167,0.557c-0.112,0.157-0.281,0.279-0.509,0.365c0.281,0.092,0.496,0.24,0.643,0.445
					c0.147,0.205,0.221,0.449,0.221,0.734c0,0.393-0.14,0.724-0.419,0.991c-0.278,0.268-0.646,0.401-1.101,0.401
					s-0.822-0.135-1.102-0.403c-0.278-0.269-0.418-0.604-0.418-1.005c0-0.3,0.076-0.55,0.229-0.752S42.154,51.753,42.435,51.681z
					 M42.134,52.849c0,0.162,0.038,0.318,0.113,0.469s0.189,0.268,0.342,0.351c0.153,0.083,0.316,0.124,0.491,0.124
					c0.273,0,0.498-0.087,0.674-0.261c0.175-0.174,0.263-0.396,0.263-0.663c0-0.272-0.091-0.498-0.271-0.676
					c-0.181-0.179-0.409-0.268-0.686-0.268c-0.27,0-0.491,0.088-0.665,0.264C42.221,52.366,42.134,52.585,42.134,52.849z
					 M42.322,50.723c0,0.218,0.069,0.396,0.209,0.534c0.14,0.138,0.323,0.207,0.552,0.207c0.221,0,0.4-0.068,0.539-0.206
					c0.139-0.137,0.208-0.305,0.208-0.504c0-0.207-0.071-0.382-0.214-0.523s-0.323-0.212-0.54-0.212
					c-0.22,0-0.399,0.069-0.541,0.207C42.393,50.365,42.322,50.531,42.322,50.723z"/>
			</g>
		</g>
		<g>
			<path i:knockout="Off" fill="none" stroke="#000000" stroke-width="1.2" stroke-linecap="round" d="M57.635,56.321v-9.118h-9.116
				v9.118H57.635z"/>
			<g i:knockout="Off">
				<path i:knockout="Off" d="M51.629,54.175h-0.563v-3.598c-0.136,0.13-0.314,0.259-0.536,0.389s-0.42,0.227-0.597,0.292v-0.546
					c0.316-0.148,0.594-0.328,0.83-0.539c0.237-0.212,0.404-0.416,0.503-0.615h0.362V54.175z"/>
				<path i:knockout="Off" d="M53.153,53.113l0.547-0.047c0.046,0.255,0.134,0.439,0.264,0.555c0.13,0.114,0.297,0.172,0.5,0.172
					c0.174,0,0.327-0.04,0.46-0.12c0.132-0.079,0.239-0.187,0.322-0.319c0.082-0.134,0.151-0.314,0.208-0.541
					s0.085-0.458,0.085-0.692c0-0.024-0.001-0.063-0.003-0.112c-0.113,0.18-0.268,0.325-0.463,0.438s-0.408,0.168-0.636,0.168
					c-0.381,0-0.703-0.138-0.967-0.414c-0.264-0.275-0.396-0.639-0.396-1.09c0-0.466,0.138-0.841,0.412-1.125
					c0.275-0.283,0.619-0.426,1.033-0.426c0.3,0,0.573,0.08,0.82,0.241c0.248,0.161,0.437,0.391,0.564,0.688
					c0.129,0.299,0.193,0.729,0.193,1.294c0,0.588-0.064,1.056-0.191,1.403c-0.128,0.349-0.318,0.613-0.571,0.796
					c-0.252,0.182-0.548,0.272-0.888,0.272c-0.36,0-0.654-0.1-0.883-0.299C53.336,53.754,53.199,53.474,53.153,53.113z
					 M55.473,51.081c0-0.323-0.086-0.579-0.258-0.769c-0.171-0.19-0.38-0.285-0.626-0.285c-0.254,0-0.474,0.103-0.659,0.307
					c-0.185,0.204-0.277,0.469-0.277,0.794c0,0.292,0.088,0.529,0.264,0.712s0.395,0.273,0.657,0.273s0.478-0.091,0.646-0.273
					S55.473,51.404,55.473,51.081z"/>
			</g>
		</g>
		<g>
			<path i:knockout="Off" fill="none" stroke="#000000" stroke-width="1.2" stroke-linecap="round" d="M69.034,22.149v-9.118h-9.118
				v9.118H69.034z"/>
			<g i:knockout="Off">
				<path i:knockout="Off" d="M64.724,19.839v-1.102h-2v-0.516l2.102-2.984h0.461v2.984h0.625v0.516h-0.625v1.102H64.724z
					 M64.724,18.222v-2.078l-1.444,2.078H64.724z"/>
			</g>
		</g>
		<g>
			<path i:knockout="Off" fill="none" stroke="#000000" stroke-width="1.2" stroke-linecap="round" d="M69.034,33.545v-9.117h-9.118
				v9.117H69.034z"/>
			<g i:knockout="Off">
				<path i:knockout="Off" d="M62.913,31.4H62.35v-3.598c-0.136,0.129-0.314,0.259-0.536,0.389c-0.222,0.13-0.42,0.227-0.597,0.292
					v-0.546c0.316-0.148,0.594-0.328,0.83-0.54c0.237-0.211,0.404-0.416,0.503-0.615h0.362V31.4z"/>
				<path i:knockout="Off" d="M64.358,29.132c0-0.543,0.056-0.982,0.168-1.314s0.279-0.588,0.501-0.767
					c0.221-0.178,0.499-0.268,0.835-0.268c0.247,0,0.465,0.05,0.653,0.149c0.188,0.1,0.342,0.243,0.462,0.43
					c0.121,0.187,0.216,0.415,0.285,0.684c0.068,0.269,0.104,0.631,0.104,1.086c0,0.54-0.056,0.976-0.167,1.309
					c-0.111,0.333-0.277,0.589-0.498,0.768c-0.222,0.18-0.501,0.27-0.839,0.27c-0.444,0-0.794-0.157-1.048-0.473
					C64.51,30.62,64.358,29.996,64.358,29.132z M64.936,29.134c0,0.758,0.089,1.261,0.267,1.51c0.179,0.249,0.397,0.373,0.659,0.373
					s0.48-0.125,0.659-0.375c0.178-0.25,0.267-0.752,0.267-1.508c0-0.757-0.089-1.26-0.266-1.509
					c-0.178-0.249-0.399-0.374-0.666-0.374c-0.262,0-0.471,0.11-0.628,0.33C65.034,27.861,64.936,28.379,64.936,29.134z"/>
			</g>
		</g>
		<g>
			<path i:knockout="Off" fill="none" stroke="#000000" stroke-width="1.2" stroke-linecap="round" d="M69.034,44.946v-9.119h-9.118
				v9.119H69.034z"/>
			<g i:knockout="Off">
				<path i:knockout="Off" d="M63.255,42.797h-0.563V39.2c-0.136,0.13-0.314,0.259-0.536,0.389s-0.42,0.228-0.597,0.292v-0.546
					c0.316-0.148,0.594-0.328,0.83-0.539c0.237-0.212,0.404-0.417,0.503-0.615h0.362V42.797z"/>
				<path i:knockout="Off" d="M66.513,42.797v-1.102h-2V41.18l2.102-2.984h0.461v2.984h0.625v0.516h-0.625v1.102H66.513z
					 M66.513,41.18v-2.078l-1.444,2.078H66.513z"/>
			</g>
		</g>
		<g>
			<path i:knockout="Off" fill="none" stroke="#000000" stroke-width="1.2" stroke-linecap="round" d="M69.034,56.321v-9.118h-9.118
				v9.118H69.034z"/>
			<g i:knockout="Off">
				<path i:knockout="Off" d="M63.984,53.628v0.547h-3.055c-0.004-0.137,0.018-0.268,0.066-0.394
					c0.078-0.208,0.202-0.412,0.374-0.612c0.172-0.201,0.419-0.433,0.741-0.695c0.5-0.412,0.839-0.737,1.019-0.976
					c0.179-0.238,0.269-0.465,0.269-0.679c0-0.223-0.081-0.41-0.242-0.563s-0.372-0.229-0.631-0.229
					c-0.274,0-0.494,0.082-0.658,0.244c-0.165,0.164-0.248,0.39-0.25,0.678l-0.578-0.063c0.04-0.433,0.189-0.762,0.45-0.988
					c0.26-0.227,0.609-0.34,1.049-0.34c0.442,0,0.793,0.122,1.051,0.367c0.259,0.244,0.388,0.547,0.388,0.908
					c0,0.185-0.038,0.365-0.113,0.543s-0.201,0.364-0.376,0.561s-0.466,0.466-0.872,0.809c-0.341,0.283-0.56,0.477-0.657,0.577
					c-0.097,0.102-0.178,0.203-0.241,0.306H63.984z"/>
				<path i:knockout="Off" d="M64.586,51.908c0-0.544,0.056-0.982,0.168-1.314c0.112-0.333,0.279-0.589,0.501-0.768
					c0.221-0.178,0.499-0.268,0.835-0.268c0.247,0,0.465,0.05,0.653,0.149c0.188,0.099,0.342,0.242,0.462,0.43
					c0.121,0.187,0.216,0.415,0.285,0.684c0.068,0.269,0.104,0.631,0.104,1.087c0,0.539-0.056,0.976-0.167,1.308
					c-0.111,0.333-0.277,0.589-0.498,0.769c-0.222,0.18-0.501,0.27-0.839,0.27c-0.444,0-0.794-0.157-1.048-0.473
					C64.739,53.395,64.586,52.771,64.586,51.908z M65.165,51.91c0,0.758,0.089,1.261,0.267,1.51
					c0.179,0.249,0.397,0.373,0.659,0.373s0.48-0.125,0.659-0.375c0.178-0.249,0.267-0.752,0.267-1.508
					c0-0.758-0.089-1.261-0.266-1.51c-0.178-0.248-0.399-0.373-0.666-0.373c-0.262,0-0.471,0.109-0.628,0.329
					C65.262,50.636,65.165,51.155,65.165,51.91z"/>
			</g>
		</g>
		<g>
			<path i:knockout="Off" fill="none" stroke="#000000" stroke-width="1.2" stroke-linecap="round" d="M34.842,56.321v-9.118h-9.118
				v9.118H34.842z"/>
			<g i:knockout="Off">
				<path i:knockout="Off" d="M28.84,54.175h-0.563v-3.598c-0.137,0.13-0.315,0.259-0.537,0.389s-0.42,0.227-0.596,0.292v-0.546
					c0.316-0.148,0.593-0.328,0.83-0.539c0.237-0.212,0.405-0.416,0.503-0.615h0.363V54.175z"/>
				<path i:knockout="Off" d="M30.324,50.183v-0.547h2.984v0.442c-0.295,0.313-0.587,0.726-0.876,1.242
					c-0.29,0.516-0.513,1.047-0.671,1.592c-0.114,0.384-0.186,0.806-0.218,1.263h-0.578c0.006-0.361,0.078-0.798,0.214-1.31
					s0.333-1.006,0.588-1.48c0.255-0.476,0.527-0.876,0.815-1.202H30.324z"/>
			</g>
		</g>
		<g>
			<path i:knockout="Off" fill="none" stroke="#000000" stroke-width="1.2" stroke-linecap="round" d="M23.445,56.321v-9.118h-9.118
				v9.118H23.445z"/>
			<g i:knockout="Off">
				<path i:knockout="Off" d="M17.334,54.175h-0.563v-3.598c-0.137,0.13-0.315,0.259-0.537,0.389s-0.42,0.227-0.596,0.292v-0.546
					c0.316-0.148,0.593-0.328,0.83-0.539c0.237-0.212,0.405-0.416,0.503-0.615h0.363V54.175z"/>
				<path i:knockout="Off" d="M21.724,50.707l-0.563,0.047c-0.051-0.225-0.122-0.388-0.215-0.489
					c-0.153-0.163-0.343-0.245-0.568-0.245c-0.181,0-0.341,0.051-0.48,0.15c-0.176,0.13-0.316,0.32-0.419,0.569
					c-0.104,0.249-0.157,0.604-0.161,1.064c0.137-0.207,0.303-0.361,0.5-0.462c0.197-0.1,0.404-0.15,0.621-0.15
					c0.378,0,0.699,0.139,0.965,0.416s0.398,0.635,0.398,1.074c0,0.289-0.063,0.558-0.188,0.805
					c-0.125,0.248-0.296,0.438-0.515,0.57c-0.218,0.131-0.466,0.197-0.743,0.197c-0.472,0-0.857-0.173-1.155-0.52
					c-0.298-0.346-0.447-0.916-0.447-1.711c0-0.889,0.165-1.534,0.495-1.938c0.288-0.352,0.675-0.527,1.163-0.527
					c0.363,0,0.661,0.102,0.894,0.305C21.539,50.067,21.678,50.348,21.724,50.707z M19.404,52.687c0,0.194,0.042,0.381,0.125,0.559
					c0.083,0.179,0.199,0.314,0.347,0.407s0.305,0.14,0.472,0.14c0.242,0,0.449-0.097,0.62-0.289
					c0.171-0.192,0.257-0.454,0.257-0.785c0-0.318-0.084-0.569-0.254-0.752c-0.169-0.184-0.384-0.275-0.646-0.275
					c-0.256,0-0.474,0.092-0.653,0.275C19.493,52.149,19.404,52.389,19.404,52.687z"/>
			</g>
		</g>
		<g>
			<path i:knockout="Off" fill="none" stroke="#000000" stroke-width="1.2" stroke-linecap="round" d="M12.047,56.321v-9.118H2.93
				v9.118H12.047z"/>
			<g i:knockout="Off">
				<path i:knockout="Off" d="M6.283,54.175H5.72v-3.598c-0.137,0.13-0.315,0.259-0.537,0.389s-0.42,0.227-0.596,0.292v-0.546
					c0.316-0.148,0.593-0.328,0.83-0.539c0.237-0.212,0.405-0.416,0.503-0.615h0.363V54.175z"/>
				<path i:knockout="Off" d="M7.728,52.972l0.594-0.047c0.044,0.288,0.145,0.505,0.304,0.649c0.159,0.146,0.353,0.218,0.582,0.218
					c0.276,0,0.507-0.103,0.694-0.309c0.187-0.205,0.28-0.479,0.28-0.818c0-0.323-0.089-0.578-0.269-0.765s-0.417-0.28-0.714-0.28
					c-0.185,0-0.35,0.043-0.495,0.128c-0.146,0.086-0.26,0.196-0.343,0.333l-0.531-0.078l0.445-2.367h2.289v0.539H8.728L8.479,51.41
					c0.276-0.192,0.566-0.289,0.87-0.289c0.402,0,0.742,0.14,1.018,0.418s0.415,0.637,0.415,1.074c0,0.417-0.122,0.777-0.365,1.081
					c-0.295,0.373-0.698,0.56-1.21,0.56c-0.419,0-0.761-0.117-1.026-0.351C7.917,53.668,7.765,53.359,7.728,52.972z"/>
			</g>
		</g>
		<path i:knockout="Off" fill="none" stroke="#000000" stroke-width="1.2" d="M70.661,118.683V72.646H2.617v46.037H70.661z"/>
		<g>
			<g>
				<g>
					<g>
						<g>
							<g>
								<path i:knockout="Off" fill="none" stroke="#000000" stroke-width="0.7" d="M34.257,85.826v-3.344h4.974v3.344"/>
							</g>
						</g>
					</g>
				</g>
			</g>
		</g>
		<g>
			<g>
				<path i:knockout="Off" fill="none" stroke="#000000" stroke-width="0.7" stroke-linecap="round" d="M24.719,83.685v-8.75H15.97
					v8.75H24.719z"/>
				<g i:knockout="Off">
					<path i:knockout="Off" d="M18.622,80.117l0.625-0.086c0.072,0.357,0.194,0.614,0.366,0.771s0.384,0.236,0.635,0.236
						c0.298,0,0.548-0.102,0.75-0.306s0.304-0.456,0.304-0.758c0-0.287-0.094-0.524-0.283-0.711s-0.428-0.279-0.719-0.279
						c-0.119,0-0.266,0.022-0.443,0.069l0.07-0.547c0.042,0.005,0.076,0.007,0.101,0.007c0.269,0,0.51-0.069,0.725-0.209
						s0.322-0.355,0.322-0.646c0-0.23-0.078-0.421-0.234-0.573c-0.156-0.15-0.358-0.227-0.605-0.227
						c-0.245,0-0.449,0.076-0.612,0.229s-0.268,0.381-0.314,0.686l-0.625-0.109c0.077-0.419,0.25-0.744,0.522-0.975
						c0.271-0.23,0.61-0.346,1.014-0.346c0.279,0,0.536,0.06,0.77,0.18c0.235,0.12,0.414,0.283,0.539,0.49
						c0.124,0.207,0.187,0.427,0.187,0.659c0,0.221-0.06,0.422-0.178,0.604c-0.118,0.181-0.293,0.325-0.525,0.433
						c0.302,0.069,0.536,0.213,0.703,0.432s0.25,0.492,0.25,0.821c0,0.444-0.163,0.82-0.488,1.13
						c-0.325,0.309-0.736,0.463-1.233,0.463c-0.448,0-0.82-0.134-1.116-0.4C18.833,80.887,18.664,80.542,18.622,80.117z"/>
				</g>
			</g>
			<g>
				<path i:knockout="Off" fill="none" stroke="#000000" stroke-width="0.7" stroke-linecap="round" d="M13.782,83.685v-8.75h-8.75
					v8.75H13.782z"/>
				<g i:knockout="Off">
					<path i:knockout="Off" d="M9.704,81.5v-1.219H7.485v-0.57l2.336-3.313h0.508v3.313h0.688v0.57h-0.688V81.5H9.704z
						 M9.704,79.711v-2.3l-1.603,2.3H9.704z"/>
				</g>
			</g>
			<g>
				<path i:knockout="Off" fill="none" stroke="#000000" stroke-width="0.7" stroke-linecap="round" d="M46.597,94.624v-8.749
					h-8.751v8.749H46.597z"/>
				<g i:knockout="Off">
					<path i:knockout="Off" d="M40.536,88.126v-0.602h3.297v0.486c-0.324,0.347-0.646,0.807-0.966,1.38
						c-0.318,0.573-0.565,1.163-0.739,1.77c-0.125,0.427-0.205,0.895-0.24,1.403h-0.641c0.007-0.401,0.086-0.887,0.236-1.456
						c0.15-0.568,0.366-1.117,0.647-1.646s0.581-0.974,0.897-1.336H40.536z"/>
				</g>
			</g>
			<g>
				<path i:knockout="Off" fill="none" stroke="#000000" stroke-width="0.7" stroke-linecap="round" d="M57.536,83.685v-8.75h-8.75
					v8.75H57.536z"/>
				<g i:knockout="Off">
					<path i:knockout="Off" d="M54.724,80.867v0.602h-3.375c-0.004-0.15,0.021-0.296,0.074-0.436
						c0.086-0.229,0.224-0.456,0.413-0.678c0.19-0.223,0.464-0.479,0.82-0.771c0.555-0.457,0.93-0.817,1.125-1.084
						c0.196-0.266,0.294-0.519,0.294-0.757c0-0.248-0.089-0.458-0.268-0.629c-0.178-0.17-0.41-0.256-0.697-0.256
						c-0.303,0-0.545,0.091-0.728,0.271c-0.182,0.182-0.273,0.432-0.276,0.752l-0.641-0.063c0.045-0.48,0.211-0.847,0.498-1.099
						c0.288-0.252,0.675-0.378,1.16-0.378c0.49,0,0.878,0.136,1.164,0.407c0.285,0.271,0.428,0.608,0.428,1.01
						c0,0.204-0.041,0.404-0.125,0.602c-0.083,0.197-0.222,0.405-0.416,0.623c-0.193,0.219-0.515,0.519-0.964,0.899
						c-0.376,0.315-0.618,0.53-0.727,0.643c-0.107,0.113-0.197,0.227-0.268,0.34H54.724z"/>
				</g>
			</g>
			<g>
				<path i:knockout="Off" fill="none" stroke="#000000" stroke-width="0.7" stroke-linecap="round" d="M57.536,94.624v-8.749h-8.75
					v8.749H57.536z"/>
				<g i:knockout="Off">
					<path i:knockout="Off" d="M54.694,88.712l-0.625,0.047c-0.056-0.246-0.135-0.425-0.237-0.536
						c-0.17-0.179-0.379-0.269-0.628-0.269c-0.2,0-0.378,0.056-0.531,0.167c-0.195,0.144-0.351,0.354-0.464,0.629
						c-0.114,0.276-0.174,0.669-0.179,1.18c0.151-0.229,0.336-0.4,0.555-0.512c0.218-0.111,0.447-0.167,0.687-0.167
						c0.418,0,0.774,0.154,1.068,0.461c0.294,0.309,0.44,0.705,0.44,1.193c0,0.32-0.069,0.618-0.207,0.893
						c-0.139,0.275-0.328,0.486-0.57,0.632c-0.241,0.146-0.516,0.22-0.822,0.22c-0.523,0-0.95-0.192-1.28-0.576
						s-0.495-1.017-0.495-1.898c0-0.986,0.183-1.703,0.549-2.151c0.318-0.39,0.748-0.585,1.288-0.585
						c0.402,0,0.732,0.113,0.99,0.339C54.489,88.003,54.643,88.315,54.694,88.712z M52.124,90.91c0,0.216,0.046,0.422,0.139,0.619
						c0.092,0.197,0.22,0.348,0.384,0.451c0.164,0.103,0.338,0.154,0.522,0.154c0.268,0,0.497-0.106,0.687-0.32
						c0.189-0.213,0.284-0.503,0.284-0.87c0-0.353-0.094-0.63-0.28-0.833c-0.188-0.203-0.426-0.305-0.715-0.305
						c-0.284,0-0.525,0.102-0.724,0.305C52.223,90.314,52.124,90.58,52.124,90.91z"/>
				</g>
			</g>
			<g>
				<path i:knockout="Off" fill="none" stroke="#000000" stroke-width="0.7" stroke-linecap="round" d="M35.659,94.624v-8.749h-8.75
					v8.749H35.659z"/>
				<g i:knockout="Off">
					<path i:knockout="Off" d="M30.526,89.794c-0.26-0.095-0.453-0.23-0.578-0.407c-0.125-0.176-0.188-0.387-0.188-0.633
						c0-0.371,0.133-0.684,0.4-0.937c0.267-0.252,0.621-0.379,1.064-0.379c0.445,0,0.803,0.129,1.074,0.388
						c0.271,0.259,0.407,0.574,0.407,0.945c0,0.236-0.062,0.442-0.186,0.617s-0.312,0.311-0.563,0.405
						c0.313,0.103,0.551,0.268,0.714,0.494c0.163,0.229,0.245,0.5,0.245,0.815c0,0.437-0.154,0.803-0.463,1.101
						c-0.308,0.297-0.714,0.445-1.217,0.445c-0.503,0-0.909-0.149-1.217-0.447c-0.309-0.299-0.462-0.67-0.462-1.116
						c0-0.332,0.083-0.61,0.251-0.834S30.216,89.875,30.526,89.794z M30.198,91.088c0,0.179,0.042,0.353,0.125,0.52
						s0.209,0.297,0.377,0.389s0.349,0.138,0.542,0.138c0.302,0,0.55-0.097,0.744-0.289c0.193-0.193,0.291-0.438,0.291-0.735
						c0-0.302-0.1-0.552-0.299-0.75c-0.2-0.197-0.451-0.296-0.755-0.296c-0.297,0-0.542,0.098-0.735,0.293
						S30.198,90.796,30.198,91.088z M30.401,88.735c0,0.241,0.077,0.438,0.231,0.592s0.357,0.229,0.608,0.229
						c0.244,0,0.442-0.076,0.595-0.229c0.153-0.151,0.23-0.338,0.23-0.559c0-0.229-0.079-0.423-0.237-0.579
						c-0.158-0.157-0.356-0.235-0.595-0.235c-0.242,0-0.441,0.076-0.598,0.229C30.479,88.337,30.401,88.521,30.401,88.735z"/>
				</g>
			</g>
			<g>
				<path i:knockout="Off" fill="none" stroke="#000000" stroke-width="0.7" stroke-linecap="round" d="M24.719,94.624v-8.749H15.97
					v8.749H24.719z"/>
				<g i:knockout="Off">
					<path i:knockout="Off" d="M18.606,91.384l0.602-0.047c0.051,0.279,0.149,0.482,0.293,0.608c0.145,0.126,0.33,0.188,0.555,0.188
						c0.193,0,0.363-0.044,0.51-0.133c0.146-0.088,0.266-0.206,0.358-0.354c0.092-0.148,0.169-0.348,0.232-0.599
						c0.063-0.251,0.094-0.506,0.094-0.766c0-0.028-0.001-0.069-0.003-0.126c-0.125,0.2-0.296,0.361-0.513,0.486
						c-0.217,0.123-0.452,0.186-0.704,0.186c-0.422,0-0.779-0.153-1.071-0.459s-0.438-0.709-0.438-1.21
						c0-0.518,0.152-0.934,0.457-1.249c0.305-0.314,0.687-0.473,1.146-0.473c0.332,0,0.635,0.09,0.909,0.268
						c0.275,0.18,0.483,0.434,0.626,0.765s0.214,0.81,0.214,1.436c0,0.652-0.071,1.172-0.213,1.558
						c-0.142,0.387-0.353,0.681-0.632,0.883c-0.28,0.202-0.608,0.303-0.985,0.303c-0.399,0-0.726-0.11-0.979-0.332
						C18.81,92.096,18.657,91.786,18.606,91.384z M21.177,89.126c0-0.359-0.095-0.645-0.286-0.855
						c-0.19-0.211-0.421-0.316-0.693-0.316c-0.281,0-0.524,0.113-0.729,0.341s-0.308,0.522-0.308,0.884
						c0,0.324,0.097,0.589,0.292,0.791c0.195,0.203,0.438,0.305,0.728,0.305c0.29,0,0.528-0.102,0.715-0.305
						C21.083,89.768,21.177,89.487,21.177,89.126z"/>
				</g>
			</g>
			<g>
				<path i:knockout="Off" fill="none" stroke="#000000" stroke-width="0.7" stroke-linecap="round" d="M13.782,94.624v-8.749h-8.75
					v8.749H13.782z"/>
				<g i:knockout="Off">
					<path i:knockout="Off" d="M7.954,92.564H7.329v-3.993c-0.15,0.144-0.348,0.288-0.592,0.432
						c-0.245,0.144-0.464,0.252-0.658,0.323V88.72c0.35-0.165,0.655-0.364,0.917-0.599c0.262-0.234,0.447-0.462,0.556-0.683h0.403
						V92.564z"/>
					<path i:knockout="Off" d="M9.567,90.046c0-0.604,0.062-1.09,0.186-1.459c0.124-0.369,0.308-0.652,0.553-0.851
						c0.244-0.198,0.551-0.298,0.922-0.298c0.273,0,0.514,0.055,0.721,0.165c0.208,0.11,0.378,0.27,0.511,0.478
						c0.133,0.207,0.238,0.46,0.314,0.759c0.077,0.298,0.115,0.7,0.115,1.206c0,0.599-0.062,1.082-0.184,1.451
						s-0.306,0.654-0.55,0.854c-0.245,0.199-0.553,0.299-0.926,0.299c-0.491,0-0.876-0.175-1.156-0.525
						C9.735,91.698,9.567,91.004,9.567,90.046z M10.208,90.044c0,0.841,0.098,1.399,0.294,1.676s0.438,0.414,0.726,0.414
						s0.529-0.139,0.726-0.416c0.196-0.277,0.294-0.835,0.294-1.674c0-0.841-0.098-1.398-0.293-1.676
						c-0.195-0.275-0.44-0.414-0.733-0.414c-0.288,0-0.518,0.122-0.691,0.365C10.315,88.631,10.208,89.207,10.208,90.044z"/>
				</g>
			</g>
			<g>
				<path i:knockout="Off" fill="none" stroke="#000000" stroke-width="0.7" stroke-linecap="round" d="M57.536,105.562v-8.751
					h-8.75v8.751H57.536z"/>
				<g i:knockout="Off">
					<path i:knockout="Off" d="M51.587,103.501h-0.625v-3.993c-0.151,0.144-0.349,0.288-0.593,0.432s-0.463,0.252-0.657,0.323
						v-0.605c0.349-0.165,0.654-0.364,0.916-0.599s0.447-0.462,0.556-0.683h0.403V103.501z"/>
					<path i:knockout="Off" d="M56.488,102.9v0.602h-3.375c-0.005-0.15,0.02-0.296,0.073-0.436c0.086-0.229,0.225-0.456,0.414-0.678
						c0.189-0.223,0.463-0.479,0.82-0.771c0.554-0.457,0.929-0.817,1.125-1.084c0.196-0.266,0.294-0.519,0.294-0.757
						c0-0.248-0.089-0.458-0.268-0.629c-0.179-0.17-0.411-0.256-0.697-0.256c-0.304,0-0.546,0.091-0.728,0.271
						c-0.182,0.182-0.273,0.432-0.276,0.752l-0.641-0.063c0.044-0.48,0.21-0.847,0.498-1.099s0.675-0.378,1.16-0.378
						c0.49,0,0.878,0.136,1.163,0.407c0.286,0.271,0.429,0.608,0.429,1.01c0,0.204-0.042,0.404-0.125,0.602
						c-0.084,0.197-0.223,0.405-0.416,0.623c-0.193,0.219-0.515,0.519-0.964,0.899c-0.377,0.315-0.619,0.53-0.727,0.643
						c-0.107,0.113-0.197,0.227-0.268,0.34H56.488z"/>
				</g>
			</g>
			<g>
				<path i:knockout="Off" fill="none" stroke="#000000" stroke-width="0.7" stroke-linecap="round" d="M24.719,105.562v-8.751
					H15.97v8.751H24.719z"/>
				<g i:knockout="Off">
					<path i:knockout="Off" d="M18.671,103.501h-0.625v-3.993c-0.15,0.144-0.348,0.288-0.592,0.432
						c-0.245,0.144-0.464,0.252-0.658,0.323v-0.605c0.35-0.165,0.655-0.364,0.917-0.599c0.262-0.234,0.447-0.462,0.556-0.683h0.403
						V103.501z"/>
					<path i:knockout="Off" d="M20.284,102.15l0.625-0.086c0.072,0.357,0.194,0.614,0.366,0.771s0.384,0.236,0.635,0.236
						c0.298,0,0.548-0.102,0.75-0.306s0.303-0.456,0.303-0.758c0-0.287-0.094-0.524-0.283-0.711
						c-0.188-0.187-0.428-0.279-0.718-0.279c-0.119,0-0.267,0.022-0.443,0.069l0.07-0.547c0.042,0.005,0.076,0.007,0.101,0.007
						c0.269,0,0.51-0.069,0.725-0.209c0.215-0.14,0.322-0.355,0.322-0.646c0-0.23-0.078-0.421-0.234-0.573
						c-0.156-0.15-0.357-0.227-0.604-0.227c-0.245,0-0.449,0.076-0.612,0.229s-0.268,0.381-0.314,0.686l-0.625-0.109
						c0.077-0.419,0.251-0.744,0.522-0.975c0.272-0.23,0.61-0.346,1.014-0.346c0.279,0,0.535,0.06,0.77,0.18
						c0.234,0.12,0.414,0.283,0.538,0.49c0.125,0.207,0.187,0.427,0.187,0.659c0,0.221-0.059,0.422-0.178,0.604
						c-0.118,0.181-0.293,0.325-0.525,0.433c0.301,0.069,0.536,0.213,0.703,0.432c0.167,0.219,0.25,0.492,0.25,0.821
						c0,0.444-0.163,0.82-0.488,1.13c-0.325,0.309-0.736,0.463-1.233,0.463c-0.448,0-0.82-0.134-1.116-0.4
						S20.326,102.575,20.284,102.15z"/>
				</g>
			</g>
			<g>
				<path i:knockout="Off" fill="none" stroke="#000000" stroke-width="0.7" stroke-linecap="round" d="M13.782,105.562v-8.751
					h-8.75v8.751H13.782z"/>
				<g i:knockout="Off">
					<path i:knockout="Off" d="M8.065,103.501H7.44v-3.993c-0.15,0.144-0.348,0.288-0.592,0.432
						c-0.245,0.144-0.464,0.252-0.658,0.323v-0.605c0.35-0.165,0.655-0.364,0.917-0.599c0.262-0.234,0.447-0.462,0.556-0.683h0.403
						V103.501z"/>
					<path i:knockout="Off" d="M11.686,103.501v-1.219H9.467v-0.57l2.336-3.313h0.508v3.313h0.688v0.57h-0.688v1.219H11.686z
						 M11.686,101.712v-2.3l-1.603,2.3H11.686z"/>
				</g>
			</g>
			<g>
				<path i:knockout="Off" fill="none" stroke="#000000" stroke-width="0.7" stroke-linecap="round" d="M46.597,116.482v-8.752
					h-8.751v8.752H46.597z"/>
				<g i:knockout="Off">
					<path i:knockout="Off" d="M40.541,114.421h-0.625v-3.993c-0.151,0.144-0.349,0.288-0.593,0.432s-0.463,0.252-0.657,0.323
						v-0.605c0.349-0.165,0.654-0.364,0.916-0.599s0.447-0.462,0.556-0.683h0.403V114.421z"/>
					<path i:knockout="Off" d="M42.192,109.984v-0.602h3.297v0.486c-0.325,0.347-0.646,0.807-0.966,1.38s-0.565,1.163-0.739,1.77
						c-0.125,0.427-0.205,0.895-0.24,1.403h-0.641c0.007-0.401,0.086-0.887,0.236-1.456c0.15-0.568,0.366-1.117,0.647-1.646
						s0.58-0.974,0.897-1.336H42.192z"/>
				</g>
			</g>
			<g>
				<path i:knockout="Off" fill="none" stroke="#000000" stroke-width="0.7" stroke-linecap="round" d="M57.536,116.482v-8.752
					h-8.75v8.752H57.536z"/>
				<g i:knockout="Off">
					<path i:knockout="Off" d="M51.587,114.421h-0.625v-3.993c-0.151,0.144-0.349,0.288-0.593,0.432s-0.463,0.252-0.657,0.323
						v-0.605c0.349-0.165,0.654-0.364,0.916-0.599s0.447-0.462,0.556-0.683h0.403V114.421z"/>
					<path i:knockout="Off" d="M56.458,110.57l-0.625,0.047c-0.056-0.246-0.135-0.425-0.237-0.536
						c-0.17-0.179-0.38-0.269-0.629-0.269c-0.2,0-0.377,0.056-0.53,0.167c-0.195,0.144-0.351,0.354-0.465,0.629
						c-0.113,0.276-0.173,0.669-0.178,1.18c0.151-0.229,0.336-0.4,0.555-0.512c0.218-0.111,0.447-0.167,0.687-0.167
						c0.418,0,0.774,0.154,1.067,0.461c0.295,0.309,0.441,0.705,0.441,1.193c0,0.32-0.069,0.618-0.207,0.893
						c-0.139,0.275-0.329,0.486-0.57,0.632c-0.242,0.146-0.517,0.22-0.823,0.22c-0.522,0-0.949-0.192-1.279-0.576
						s-0.495-1.017-0.495-1.898c0-0.986,0.183-1.703,0.548-2.151c0.319-0.39,0.749-0.585,1.289-0.585
						c0.402,0,0.732,0.113,0.989,0.339C56.252,109.861,56.407,110.172,56.458,110.57z M53.887,112.767
						c0,0.216,0.046,0.422,0.138,0.619c0.093,0.197,0.22,0.348,0.384,0.451c0.164,0.103,0.339,0.154,0.523,0.154
						c0.268,0,0.496-0.106,0.687-0.32c0.189-0.213,0.284-0.503,0.284-0.87c0-0.353-0.094-0.63-0.281-0.833s-0.426-0.305-0.715-0.305
						c-0.283,0-0.524,0.102-0.723,0.305S53.887,112.437,53.887,112.767z"/>
				</g>
			</g>
			<g>
				<path i:knockout="Off" fill="none" stroke="#000000" stroke-width="0.7" stroke-linecap="round" d="M68.473,83.685v-8.75h-8.75
					v8.75H68.473z"/>
				<g i:knockout="Off">
					<path i:knockout="Off" d="M64.725,81.468H64.1v-3.993c-0.15,0.144-0.348,0.288-0.592,0.432s-0.464,0.252-0.658,0.323v-0.605
						c0.35-0.165,0.655-0.364,0.917-0.599s0.446-0.462,0.556-0.683h0.402V81.468z"/>
				</g>
			</g>
			<g>
				<path i:knockout="Off" fill="none" stroke="#000000" stroke-width="0.7" stroke-linecap="round" d="M68.473,94.624v-8.749h-8.75
					v8.749H68.473z"/>
				<g i:knockout="Off">
					<path i:knockout="Off" d="M62.046,91.228l0.656-0.047c0.049,0.316,0.161,0.555,0.337,0.714s0.39,0.239,0.643,0.239
						c0.305,0,0.56-0.114,0.766-0.342c0.207-0.228,0.31-0.53,0.31-0.906c0-0.358-0.099-0.641-0.298-0.848
						c-0.198-0.207-0.461-0.311-0.79-0.311c-0.204,0-0.387,0.047-0.547,0.142c-0.161,0.094-0.288,0.216-0.381,0.366l-0.586-0.086
						l0.492-2.625h2.531v0.602h-2.03l-0.274,1.368c0.306-0.214,0.627-0.321,0.963-0.321c0.444,0,0.819,0.154,1.126,0.464
						c0.306,0.31,0.458,0.707,0.458,1.192c0,0.463-0.134,0.862-0.402,1.199c-0.326,0.414-0.772,0.621-1.337,0.621
						c-0.463,0-0.841-0.13-1.134-0.39C62.255,92.001,62.088,91.657,62.046,91.228z"/>
				</g>
			</g>
			<g>
				<path i:knockout="Off" fill="none" stroke="#000000" stroke-width="0.7" stroke-linecap="round" d="M68.473,105.562v-8.751
					h-8.75v8.751H68.473z"/>
				<g i:knockout="Off">
					<path i:knockout="Off" d="M62.744,103.501h-0.625v-3.993c-0.151,0.144-0.349,0.288-0.593,0.432s-0.463,0.252-0.657,0.323
						v-0.605c0.349-0.165,0.654-0.364,0.916-0.599s0.447-0.462,0.556-0.683h0.403V103.501z"/>
					<path i:knockout="Off" d="M66.708,103.501h-0.625v-3.993c-0.15,0.144-0.348,0.288-0.592,0.432s-0.464,0.252-0.658,0.323v-0.605
						c0.35-0.165,0.655-0.364,0.917-0.599c0.261-0.234,0.446-0.462,0.556-0.683h0.402V103.501z"/>
				</g>
			</g>
			<g>
				<path i:knockout="Off" fill="none" stroke="#000000" stroke-width="0.7" stroke-linecap="round" d="M68.473,116.482v-8.752
					h-8.75v8.752H68.473z"/>
				<g i:knockout="Off">
					<path i:knockout="Off" d="M62.635,114.421H62.01v-3.993c-0.151,0.144-0.349,0.288-0.593,0.432s-0.463,0.252-0.657,0.323v-0.605
						c0.349-0.165,0.654-0.364,0.916-0.599s0.447-0.462,0.556-0.683h0.403V114.421z"/>
					<path i:knockout="Off" d="M64.248,113.085l0.656-0.047c0.049,0.316,0.161,0.555,0.337,0.714
						c0.175,0.159,0.39,0.239,0.642,0.239c0.305,0,0.561-0.114,0.767-0.342s0.31-0.53,0.31-0.906c0-0.358-0.1-0.641-0.298-0.848
						s-0.462-0.311-0.79-0.311c-0.204,0-0.387,0.047-0.548,0.142c-0.16,0.094-0.287,0.216-0.38,0.366l-0.586-0.086l0.492-2.625
						h2.531v0.602h-2.031l-0.273,1.368c0.306-0.214,0.626-0.321,0.962-0.321c0.445,0,0.82,0.154,1.126,0.464
						s0.459,0.707,0.459,1.192c0,0.463-0.134,0.862-0.403,1.199c-0.326,0.414-0.771,0.621-1.336,0.621
						c-0.463,0-0.842-0.13-1.134-0.39C64.457,113.859,64.29,113.514,64.248,113.085z"/>
				</g>
			</g>
			<g>
				<path i:knockout="Off" fill="none" stroke="#000000" stroke-width="0.7" stroke-linecap="round" d="M35.659,116.482v-8.752
					h-8.75v8.752H35.659z"/>
				<g i:knockout="Off">
					<path i:knockout="Off" d="M29.714,114.421h-0.625v-3.993c-0.15,0.144-0.348,0.288-0.592,0.432
						c-0.245,0.144-0.464,0.252-0.658,0.323v-0.605c0.35-0.165,0.655-0.364,0.917-0.599c0.262-0.234,0.447-0.462,0.556-0.683h0.403
						V114.421z"/>
					<path i:knockout="Off" d="M32.288,111.652c-0.26-0.095-0.453-0.23-0.578-0.407c-0.125-0.176-0.188-0.387-0.188-0.633
						c0-0.371,0.133-0.684,0.4-0.937c0.267-0.252,0.621-0.379,1.064-0.379c0.445,0,0.803,0.129,1.075,0.388
						c0.271,0.259,0.407,0.574,0.407,0.945c0,0.236-0.062,0.442-0.186,0.617s-0.312,0.311-0.563,0.405
						c0.313,0.103,0.551,0.268,0.714,0.494c0.163,0.229,0.245,0.5,0.245,0.815c0,0.437-0.154,0.803-0.462,1.101
						c-0.309,0.297-0.714,0.445-1.217,0.445s-0.909-0.149-1.217-0.447c-0.308-0.299-0.462-0.67-0.462-1.116
						c0-0.332,0.084-0.61,0.252-0.834S31.978,111.733,32.288,111.652z M31.959,112.946c0,0.179,0.042,0.353,0.125,0.52
						s0.209,0.297,0.378,0.389c0.168,0.092,0.349,0.138,0.542,0.138c0.302,0,0.549-0.097,0.743-0.289
						c0.194-0.193,0.291-0.438,0.291-0.735c0-0.302-0.1-0.552-0.299-0.75c-0.199-0.197-0.451-0.296-0.755-0.296
						c-0.297,0-0.542,0.098-0.735,0.293S31.959,112.654,31.959,112.946z M32.163,110.592c0,0.241,0.077,0.438,0.231,0.592
						s0.356,0.229,0.607,0.229c0.244,0,0.442-0.076,0.596-0.229c0.153-0.151,0.229-0.338,0.229-0.559
						c0-0.229-0.079-0.423-0.236-0.579c-0.158-0.157-0.356-0.235-0.596-0.235c-0.242,0-0.441,0.076-0.597,0.229
						C32.241,110.195,32.163,110.378,32.163,110.592z"/>
				</g>
			</g>
			<g>
				<path i:knockout="Off" fill="none" stroke="#000000" stroke-width="0.7" stroke-linecap="round" d="M24.719,116.482v-8.752
					H15.97v8.752H24.719z"/>
				<g i:knockout="Off">
					<path i:knockout="Off" d="M18.671,114.421h-0.625v-3.993c-0.15,0.144-0.348,0.288-0.592,0.432
						c-0.245,0.144-0.464,0.252-0.658,0.323v-0.605c0.35-0.165,0.655-0.364,0.917-0.599c0.262-0.234,0.447-0.462,0.556-0.683h0.403
						V114.421z"/>
					<path i:knockout="Off" d="M20.37,113.242l0.602-0.047c0.051,0.279,0.149,0.482,0.293,0.608c0.145,0.126,0.33,0.188,0.556,0.188
						c0.193,0,0.363-0.044,0.51-0.133c0.146-0.088,0.266-0.206,0.358-0.354c0.092-0.148,0.169-0.348,0.232-0.599
						c0.063-0.251,0.094-0.506,0.094-0.766c0-0.028-0.001-0.069-0.003-0.126c-0.125,0.2-0.296,0.361-0.513,0.486
						c-0.217,0.123-0.452,0.186-0.705,0.186c-0.422,0-0.779-0.153-1.071-0.459c-0.292-0.306-0.438-0.709-0.438-1.21
						c0-0.518,0.152-0.934,0.457-1.249c0.305-0.314,0.687-0.473,1.146-0.473c0.332,0,0.635,0.09,0.909,0.268
						c0.275,0.18,0.483,0.434,0.626,0.765s0.214,0.81,0.214,1.436c0,0.652-0.071,1.172-0.213,1.558
						c-0.142,0.387-0.353,0.681-0.632,0.883s-0.608,0.303-0.984,0.303c-0.4,0-0.726-0.11-0.979-0.332S20.42,113.643,20.37,113.242z
						 M22.94,110.984c0-0.359-0.095-0.645-0.285-0.855c-0.19-0.211-0.421-0.316-0.693-0.316c-0.281,0-0.524,0.113-0.729,0.341
						c-0.205,0.228-0.308,0.522-0.308,0.884c0,0.324,0.098,0.589,0.292,0.791c0.195,0.203,0.438,0.305,0.728,0.305
						c0.29,0,0.529-0.102,0.715-0.305C22.846,111.625,22.94,111.344,22.94,110.984z"/>
				</g>
			</g>
			<g>
				<path i:knockout="Off" fill="none" stroke="#000000" stroke-width="0.7" stroke-linecap="round" d="M13.782,116.482v-8.752
					h-8.75v8.752H13.782z"/>
				<g i:knockout="Off">
					<path i:knockout="Off" d="M9.002,113.82v0.602H5.627c-0.004-0.15,0.02-0.296,0.074-0.436c0.086-0.229,0.224-0.456,0.414-0.678
						c0.19-0.223,0.463-0.479,0.82-0.771c0.554-0.457,0.929-0.817,1.125-1.084c0.196-0.266,0.294-0.519,0.294-0.757
						c0-0.248-0.089-0.458-0.268-0.629c-0.178-0.17-0.411-0.256-0.697-0.256c-0.303,0-0.545,0.091-0.728,0.271
						c-0.182,0.182-0.274,0.432-0.276,0.752l-0.641-0.063c0.044-0.48,0.21-0.847,0.498-1.099c0.288-0.252,0.675-0.378,1.16-0.378
						c0.49,0,0.878,0.136,1.164,0.407s0.428,0.608,0.428,1.01c0,0.204-0.042,0.404-0.125,0.602s-0.222,0.405-0.416,0.623
						c-0.193,0.219-0.515,0.519-0.964,0.899c-0.376,0.315-0.618,0.53-0.726,0.643c-0.108,0.113-0.197,0.227-0.268,0.34H9.002z"/>
					<path i:knockout="Off" d="M9.678,111.904c0-0.604,0.062-1.09,0.186-1.459c0.124-0.369,0.308-0.652,0.553-0.851
						c0.244-0.198,0.551-0.298,0.922-0.298c0.273,0,0.514,0.055,0.721,0.165c0.208,0.11,0.378,0.27,0.511,0.478
						c0.133,0.207,0.238,0.46,0.314,0.759c0.077,0.298,0.115,0.7,0.115,1.206c0,0.599-0.062,1.082-0.184,1.451
						s-0.306,0.654-0.55,0.854c-0.245,0.199-0.553,0.299-0.926,0.299c-0.491,0-0.876-0.175-1.156-0.525
						C9.846,113.555,9.678,112.862,9.678,111.904z M10.319,111.902c0,0.841,0.098,1.399,0.294,1.676s0.438,0.414,0.726,0.414
						s0.529-0.139,0.726-0.416c0.196-0.277,0.294-0.835,0.294-1.674c0-0.841-0.098-1.398-0.293-1.676
						c-0.195-0.275-0.44-0.414-0.733-0.414c-0.288,0-0.518,0.122-0.691,0.365C10.426,110.489,10.319,111.064,10.319,111.902z"/>
				</g>
			</g>
		</g>
	</g>
</svg>
