<?xml version="1.0" encoding="utf-8"?>
<!-- Generator: Adobe Illustrator 10.0, SVG Export Plug-In . SVG Version: 3.0.0 Build 77)  -->
<!DOCTYPE svg PUBLIC "-//W3C//DTD SVG 1.0//EN"    "http://www.w3.org/TR/2001/REC-SVG-20010904/DTD/svg10.dtd" [
	<!ENTITY ns_flows "http://ns.adobe.com/Flows/1.0/">
	<!ENTITY ns_extend "http://ns.adobe.com/Extensibility/1.0/">
	<!ENTITY ns_ai "http://ns.adobe.com/AdobeIllustrator/10.0/">
	<!ENTITY ns_graphs "http://ns.adobe.com/Graphs/1.0/">
	<!ENTITY ns_vars "http://ns.adobe.com/Variables/1.0/">
	<!ENTITY ns_imrep "http://ns.adobe.com/ImageReplacement/1.0/">
	<!ENTITY ns_sfw "http://ns.adobe.com/SaveForWeb/1.0/">
	<!ENTITY ns_custom "http://ns.adobe.com/GenericCustomNamespace/1.0/">
	<!ENTITY ns_adobe_xpath "http://ns.adobe.com/XPath/1.0/">
	<!ENTITY ns_svg "http://www.w3.org/2000/svg">
	<!ENTITY ns_xlink "http://www.w3.org/1999/xlink">
]>
<svg xmlns:x="&ns_extend;" xmlns:i="&ns_ai;" xmlns:graph="&ns_graphs;" i:viewOrigin="288.4023 467.5444" i:rulerOrigin="0 0" i:pageBounds="0 841.8896 595.2754 0" xmlns="&ns_svg;" xmlns:xlink="&ns_xlink;" xmlns:a="http://ns.adobe.com/AdobeSVGViewerExtensions/3.0/" width="28.958" height="21.311" viewBox="0 0 28.958 21.311" overflow="visible" enable-background="new 0 0 28.958 21.311" xml:space="preserve" id="svgObj" onload="parent.svgLoad('Top', document)">
	<metadata>
		<variableSets xmlns="&ns_vars;">
			<variableSet varSetName="binding1" locked="none">
				<variables></variables>
				<v:sampleDataSets xmlns="&ns_custom;" xmlns:v="&ns_vars;"></v:sampleDataSets>
			</variableSet>
		</variableSets>
		<sfw xmlns="&ns_sfw;">
			<slices></slices>
			<sliceSourceBounds x="262.5" y="426.027" width="80.37" height="63.362" bottomLeftOrigin="true"></sliceSourceBounds>
		</sfw>
	</metadata>
	<g id="Layer1" i:layer="yes" i:dimmedPercent="100" i:rgbTrio="#4F008000FFFF">
		<g>
			<path i:knockout="Off" fill="none" stroke="#000000" stroke-width="1.2" d="M16.604,17.959l4.742,0.003
				c7.15-0.409,7.013-7.016,7.013-7.016c-0.206-7.012-7.013-7.037-7.013-7.037h-4.798L16.604,17.959z"/>
			<path i:knockout="Off" fill="none" stroke="#000000" stroke-width="1.2" d="M7.544,17.962C0.531,17.347,0.6,10.946,0.6,10.946
				c0.344-6.737,6.944-7.161,6.944-7.161h5.989v14.173l-2.966-0.061v2.813H7.896v-2.75L7.544,17.962z"/>
			<path i:knockout="Off" fill="none" stroke="#000000" stroke-width="1.2" d="M18.245,3.718V0.6h-6.236v3.118"/>
			<path i:knockout="Off" fill="none" stroke="#000000" stroke-width="0.7" d="M7.615,10.946"/>
			<path i:knockout="Off" fill="none" stroke="#000000" stroke-width="0.7" d="M7.615,10.946"/>
			<path i:knockout="Off" fill="none" stroke="#000000" stroke-width="0.7" d="M13.533,15.828L2.646,15.832"/>
			<path i:knockout="Off" fill="none" stroke="#000000" stroke-width="0.7" d="M26.296,15.836H16.73"/>
			<g i:knockout="Off">
				<path i:knockout="Off" d="M8.35,13.467H7.646v-4.48C7.477,9.148,7.255,9.31,6.98,9.471C6.706,9.633,6.459,9.754,6.24,9.834
					v-0.68C6.633,8.97,6.977,8.746,7.271,8.483C7.565,8.22,7.774,7.965,7.896,7.717H8.35V13.467z"/>
			</g>
			<g i:knockout="Off">
				<path i:knockout="Off" d="M23.972,12.841v0.672h-3.797c-0.005-0.169,0.022-0.332,0.083-0.488
					c0.097-0.258,0.252-0.511,0.467-0.76c0.214-0.249,0.521-0.537,0.92-0.864c0.62-0.516,1.04-0.923,1.262-1.221
					c0.221-0.298,0.331-0.58,0.331-0.849c0-0.278-0.1-0.513-0.3-0.704c-0.199-0.191-0.459-0.287-0.78-0.287
					c-0.339,0-0.61,0.104-0.813,0.311c-0.204,0.208-0.307,0.494-0.31,0.861l-0.719-0.094c0.05-0.539,0.235-0.95,0.558-1.232
					c0.322-0.282,0.756-0.424,1.3-0.424c0.549,0,0.983,0.152,1.304,0.457c0.319,0.305,0.479,0.683,0.479,1.133
					c0,0.229-0.047,0.455-0.14,0.676c-0.094,0.221-0.248,0.454-0.465,0.699c-0.216,0.245-0.576,0.581-1.08,1.009
					c-0.424,0.355-0.695,0.596-0.815,0.722s-0.219,0.253-0.297,0.381H23.972z"/>
			</g>
		</g>
	</g>
</svg>
