<?xml version="1.0" encoding="utf-8"?>
<!-- Generator: Adobe Illustrator 10.0, SVG Export Plug-In . SVG Version: 3.0.0 Build 77)  -->
<!DOCTYPE svg PUBLIC "-//W3C//DTD SVG 1.0//EN"    "http://www.w3.org/TR/2001/REC-SVG-20010904/DTD/svg10.dtd" [
	<!ENTITY ns_flows "http://ns.adobe.com/Flows/1.0/">
	<!ENTITY ns_svg "http://www.w3.org/2000/svg">
	<!ENTITY ns_xlink "http://www.w3.org/1999/xlink">
]>
<svg  xmlns="&ns_svg;" xmlns:xlink="&ns_xlink;" xmlns:a="http://ns.adobe.com/AdobeSVGViewerExtensions/3.0/"
	 width="48.936" height="42.825" viewBox="0 0 48.936 42.825" overflow="visible" enable-background="new 0 0 48.936 42.825"
	 xml:space="preserve">
	<g id="レイヤー_2">
		<g>
			<path d="M12.783,21.584H12.08v-4.48c-0.169,0.162-0.392,0.323-0.666,0.484c-0.274,0.162-0.521,0.283-0.739,0.363v-0.68
				c0.393-0.184,0.736-0.408,1.03-0.671c0.294-0.263,0.502-0.518,0.625-0.766h0.453V21.584z"/>
		</g>
		<g>
			<path d="M25.905,20.913v0.672h-3.797c-0.006-0.169,0.021-0.332,0.083-0.488c0.097-0.258,0.253-0.511,0.467-0.76
				s0.521-0.537,0.92-0.864c0.62-0.516,1.04-0.923,1.261-1.221c0.223-0.298,0.332-0.58,0.332-0.849c0-0.278-0.1-0.513-0.299-0.704
				c-0.201-0.191-0.461-0.287-0.781-0.287c-0.34,0-0.609,0.104-0.813,0.311c-0.203,0.208-0.308,0.494-0.31,0.861l-0.719-0.094
				c0.049-0.539,0.235-0.95,0.559-1.232c0.322-0.282,0.756-0.424,1.3-0.424c0.548,0,0.981,0.152,1.302,0.457s0.48,0.683,0.48,1.133
				c0,0.229-0.047,0.455-0.141,0.676c-0.094,0.221-0.248,0.454-0.465,0.699c-0.215,0.245-0.576,0.581-1.08,1.009
				c-0.423,0.355-0.694,0.596-0.814,0.722c-0.118,0.126-0.219,0.253-0.297,0.381h2.813V20.913z"/>
		</g>
		<g>
			<path d="M28.755,32.507l0.721-0.063c0.055,0.358,0.182,0.627,0.379,0.808s0.439,0.271,0.729,0.271
				c0.352,0,0.641-0.127,0.871-0.382c0.232-0.254,0.35-0.592,0.35-1.013c0-0.399-0.109-0.715-0.332-0.946s-0.52-0.347-0.891-0.347
				c-0.23,0-0.438,0.051-0.617,0.152c-0.18,0.101-0.32,0.233-0.426,0.395l-0.656-0.094l0.563-2.938h2.844v0.672h-2.285l-0.313,1.549
				c0.344-0.241,0.705-0.361,1.082-0.361c0.5,0,0.922,0.173,1.266,0.519s0.516,0.791,0.516,1.334c0,0.518-0.15,0.965-0.451,1.343
				c-0.367,0.463-0.869,0.694-1.504,0.694c-0.521,0-0.947-0.146-1.275-0.437C28.993,33.372,28.802,32.988,28.755,32.507z"/>
		</g>
		<g>
			<path d="M18.044,34.007v-1.375H15.56v-0.641l2.626-3.719h0.563v3.719h0.781v0.641h-0.781v1.375H18.044z M18.044,31.992v-2.566
				l-1.792,2.566H18.044z"/>
		</g>
		<path fill="none" stroke="#000000" stroke-width="1.2" d="M36.679,7.225V0.6H12.054v6.624"/>
		<g>
			<path d="M34.101,20.084l0.719-0.094c0.08,0.393,0.215,0.676,0.404,0.85c0.189,0.173,0.426,0.26,0.705,0.26
				c0.334,0,0.611-0.115,0.836-0.344s0.336-0.514,0.336-0.853c0-0.323-0.105-0.59-0.314-0.8s-0.475-0.315-0.797-0.315
				c-0.133,0-0.297,0.026-0.492,0.078l0.078-0.625c0.045,0.005,0.082,0.008,0.111,0.008c0.295,0,0.559-0.077,0.795-0.232
				c0.234-0.155,0.354-0.394,0.354-0.717c0-0.255-0.086-0.467-0.26-0.635c-0.172-0.168-0.396-0.252-0.668-0.252
				s-0.498,0.086-0.678,0.258c-0.182,0.172-0.297,0.43-0.35,0.773l-0.717-0.125c0.086-0.471,0.279-0.836,0.584-1.096
				c0.305-0.259,0.682-0.389,1.135-0.389c0.313,0,0.6,0.067,0.861,0.2c0.262,0.134,0.463,0.315,0.602,0.546
				c0.141,0.231,0.209,0.476,0.209,0.735c0,0.246-0.066,0.47-0.199,0.672c-0.133,0.202-0.33,0.363-0.59,0.482
				c0.338,0.078,0.604,0.241,0.797,0.487c0.191,0.246,0.289,0.555,0.289,0.925c0,0.501-0.184,0.926-0.547,1.273
				c-0.365,0.349-0.826,0.522-1.383,0.522c-0.504,0-0.92-0.147-1.252-0.443S34.147,20.555,34.101,20.084z"/>
		</g>
		<path fill="none" stroke="#000000" stroke-width="0.7" d="M18.304,18.85c0,3.299-2.674,5.974-5.974,5.974
			s-5.974-2.674-5.974-5.974s2.674-5.974,5.974-5.974S18.304,15.551,18.304,18.85z"/>
		<path fill="none" stroke="#000000" stroke-width="0.7" d="M30.251,18.85c0,3.299-2.674,5.974-5.974,5.974
			c-3.299,0-5.974-2.674-5.974-5.974s2.674-5.974,5.974-5.974C27.577,12.876,30.251,15.551,30.251,18.85z"/>
		<path fill="none" stroke="#000000" stroke-width="0.7" d="M24.278,31.023c0,3.299-2.674,5.974-5.974,5.974
			s-5.974-2.674-5.974-5.974s2.674-5.974,5.974-5.974S24.278,27.724,24.278,31.023z"/>
		<path fill="none" stroke="#000000" stroke-width="0.7" d="M36.226,31.023c0,3.299-2.674,5.974-5.975,5.974
			c-3.299,0-5.973-2.674-5.973-5.974s2.674-5.974,5.973-5.974C33.552,25.049,36.226,27.724,36.226,31.023z"/>
		<path fill="none" stroke="#000000" stroke-width="0.7" d="M42.198,18.85c0,3.299-2.674,5.974-5.974,5.974
			s-5.974-2.674-5.974-5.974s2.674-5.974,5.974-5.974S42.198,15.551,42.198,18.85z"/>
		<path fill="none" stroke="#000000" stroke-width="0.7" d="M9.004,23.812h6.652"/>
		<path fill="none" stroke="#000000" stroke-width="0.7" d="M20.952,23.812h6.652"/>
		<path fill="none" stroke="#000000" stroke-width="0.7" d="M32.899,23.812h6.651"/>
		<path fill="none" stroke="#000000" stroke-width="1.2" d="M0.815,15.903c-1.313-4.772,1.664-8.678,6.614-8.678h34.125
			c4.95,0,7.927,3.905,6.614,8.678l-6.443,23.43c-0.438,1.591-2.146,2.893-3.796,2.893H11.054c-1.65,0-3.358-1.302-3.795-2.893
			L0.815,15.903z"/>
		<path fill="none" stroke="#000000" stroke-width="0.7" d="M14.844,7.225v2.656h5.495V7.225"/>
		<path fill="none" stroke="#000000" stroke-width="0.7" d="M31.147,7.225v2.656h2.656V7.225"/>
		<path fill="none" stroke="#000000" stroke-width="0.7" d="M17.592,7.225v2.656"/>
		<path fill="none" stroke="#000000" stroke-width="0.7" d="M23.116,42.475v-2.656h-5.495v2.656"/>
		<path fill="none" stroke="#000000" stroke-width="0.7" d="M20.368,42.475v-2.656"/>
		<path fill="none" stroke="#000000" stroke-width="0.7" d="M48.242,15.6h-4.876v2.563h4.181"/>
		<path fill="none" stroke="#000000" stroke-width="0.7" d="M44.241,30.183l-2.625-1.146l1-2.5l2.346,1.023"/>
	</g>
</svg>
