<?xml version="1.0" encoding="utf-8"?>
<!-- Generator: Adobe Illustrator 10.0, SVG Export Plug-In . SVG Version: 3.0.0 Build 77)  -->
<!DOCTYPE svg PUBLIC "-//W3C//DTD SVG 1.0//EN"    "http://www.w3.org/TR/2001/REC-SVG-20010904/DTD/svg10.dtd" [
	<!ENTITY ns_flows "http://ns.adobe.com/Flows/1.0/">
	<!ENTITY ns_extend "http://ns.adobe.com/Extensibility/1.0/">
	<!ENTITY ns_ai "http://ns.adobe.com/AdobeIllustrator/10.0/">
	<!ENTITY ns_graphs "http://ns.adobe.com/Graphs/1.0/">
	<!ENTITY ns_vars "http://ns.adobe.com/Variables/1.0/">
	<!ENTITY ns_imrep "http://ns.adobe.com/ImageReplacement/1.0/">
	<!ENTITY ns_sfw "http://ns.adobe.com/SaveForWeb/1.0/">
	<!ENTITY ns_custom "http://ns.adobe.com/GenericCustomNamespace/1.0/">
	<!ENTITY ns_adobe_xpath "http://ns.adobe.com/XPath/1.0/">
	<!ENTITY ns_svg "http://www.w3.org/2000/svg">
	<!ENTITY ns_xlink "http://www.w3.org/1999/xlink">
]>
<svg xmlns:x="&ns_extend;" xmlns:i="&ns_ai;" xmlns:graph="&ns_graphs;" i:viewOrigin="281.9795 481.6206" i:rulerOrigin="0 0" i:pageBounds="0 841.8896 595.2754 0" xmlns="&ns_svg;" xmlns:xlink="&ns_xlink;" xmlns:a="http://ns.adobe.com/AdobeSVGViewerExtensions/3.0/" width="41.366" height="43.628" viewBox="0 0 41.366 43.628" overflow="visible" enable-background="new 0 0 41.366 43.628" xml:space="preserve" id="svgObj" onload="parent.svgLoad('Top', document)">
	<metadata>
		<variableSets xmlns="&ns_vars;">
			<variableSet varSetName="binding1" locked="none">
				<variables></variables>
				<v:sampleDataSets xmlns="&ns_custom;" xmlns:v="&ns_vars;"></v:sampleDataSets>
			</variableSet>
		</variableSets>
		<sfw xmlns="&ns_sfw;">
			<slices></slices>
			<sliceSourceBounds y="426.027" x="262.5" width="80.37" height="63.362" bottomLeftOrigin="true"></sliceSourceBounds>
		</sfw>
	</metadata>
	<g id="レイヤー_1" i:layer="yes" i:dimmedPercent="100" i:rgbTrio="#4F008000FFFF">
		<path i:knockout="Off" fill="none" stroke="#000000" stroke-width="1.2" d="M40.767,21.446c0-10.264-8.32-18.584-18.585-18.584
			v18.547L40.767,21.446z"/>
		<path i:knockout="Off" fill="none" stroke="#000000" stroke-width="1.2" d="M40.767,24.446c0,10.262-8.32,18.582-18.585,18.582
			V24.409L40.767,24.446z"/>
		<path i:knockout="Off" fill="none" stroke="#000000" stroke-width="1.2" d="M0.6,24.446c0,10.262,8.32,18.582,18.582,18.582
			V24.409L0.6,24.446z"/>
		<path i:knockout="Off" fill="none" stroke="#000000" stroke-width="1.2" d="M0.6,21.446c0-10.264,8.32-18.584,18.582-18.584
			v18.547L0.6,21.446z"/>
		<path i:knockout="Off" fill="none" stroke="#000000" stroke-width="1.2" d="M24.593,3.202V0.6h-7.821v2.602"/>
		<path i:knockout="Off" fill="none" stroke="#000000" stroke-width="1.2" d="M34.336,7.073V2.276h-3.489v2.6"/>
		<path i:knockout="Off" fill="none" stroke="#000000" stroke-width="1.2" d="M7.022,7.073V2.276h3.492v2.6"/>
		<path i:knockout="Off" d="M13.209,15.088h-0.703v-4.48c-0.169,0.162-0.391,0.323-0.666,0.484c-0.275,0.162-0.521,0.283-0.74,0.363
			v-0.68c0.393-0.185,0.737-0.409,1.031-0.672c0.294-0.263,0.502-0.518,0.625-0.766h0.453V15.088z"/>
		<path i:knockout="Off" d="M32.413,14.417v0.672h-3.797c-0.006-0.169,0.021-0.332,0.082-0.488c0.098-0.258,0.253-0.511,0.467-0.76
			c0.215-0.249,0.521-0.537,0.921-0.864c0.619-0.516,1.04-0.923,1.261-1.221s0.332-0.58,0.332-0.849c0-0.278-0.101-0.513-0.3-0.704
			c-0.2-0.191-0.46-0.287-0.781-0.287c-0.339,0-0.61,0.104-0.813,0.311s-0.307,0.494-0.309,0.861l-0.72-0.094
			c0.05-0.539,0.235-0.95,0.559-1.232c0.322-0.282,0.755-0.424,1.3-0.424c0.549,0,0.982,0.152,1.303,0.457s0.48,0.683,0.48,1.133
			c0,0.229-0.047,0.455-0.141,0.676c-0.093,0.221-0.248,0.454-0.464,0.699c-0.217,0.245-0.577,0.581-1.081,1.009
			c-0.423,0.355-0.694,0.596-0.814,0.722s-0.219,0.253-0.297,0.381H32.413z"/>
		<path i:knockout="Off" d="M10.569,32.637l0.719-0.094c0.08,0.393,0.215,0.676,0.405,0.85c0.189,0.173,0.425,0.26,0.707,0.26
			c0.333,0,0.611-0.115,0.834-0.344s0.335-0.514,0.335-0.853c0-0.323-0.105-0.59-0.314-0.8s-0.475-0.315-0.798-0.315
			c-0.132,0-0.295,0.026-0.492,0.078l0.078-0.625c0.046,0.005,0.083,0.008,0.112,0.008c0.294,0,0.559-0.077,0.795-0.232
			c0.236-0.155,0.354-0.394,0.354-0.717c0-0.255-0.086-0.467-0.259-0.635s-0.396-0.252-0.669-0.252
			c-0.271,0-0.496,0.086-0.677,0.258s-0.297,0.43-0.348,0.773l-0.719-0.125c0.085-0.471,0.281-0.836,0.584-1.096
			c0.304-0.259,0.682-0.389,1.134-0.389c0.312,0,0.599,0.067,0.861,0.2c0.263,0.134,0.463,0.315,0.603,0.546
			c0.139,0.231,0.208,0.476,0.208,0.735c0,0.246-0.066,0.47-0.199,0.672s-0.33,0.363-0.59,0.482
			c0.338,0.078,0.604,0.241,0.797,0.487c0.193,0.246,0.289,0.555,0.289,0.925c0,0.501-0.182,0.926-0.547,1.273
			c-0.365,0.349-0.826,0.522-1.383,0.522c-0.502,0-0.92-0.147-1.252-0.443S10.616,33.108,10.569,32.637z"/>
		<path i:knockout="Off" d="M30.968,34.137v-1.375h-2.484v-0.641l2.625-3.719h0.563v3.719h0.781v0.641h-0.781v1.375H30.968z
			 M30.968,32.122v-2.566l-1.793,2.566H30.968z"/>
		<path i:knockout="Off" fill="none" stroke="#000000" stroke-width="0.7" stroke-linecap="round" d="M0.678,19.069h18.161"/>
		<path i:knockout="Off" fill="none" stroke="#000000" stroke-width="0.7" stroke-linecap="round" d="M22.086,19.069h18.162"/>
		<path i:knockout="Off" fill="none" stroke="#000000" stroke-width="0.7" stroke-linecap="round" d="M10.043,40.477h8.795"/>
		<path i:knockout="Off" fill="none" stroke="#000000" stroke-width="0.7" stroke-linecap="round" d="M22.086,40.477h9.574"/>
	</g>
</svg>
