<?xml version="1.0" encoding="utf-8"?>
<!-- Generator: Adobe Illustrator 10.0, SVG Export Plug-In . SVG Version: 3.0.0 Build 77)  -->
<!DOCTYPE svg PUBLIC "-//W3C//DTD SVG 1.0//EN"    "http://www.w3.org/TR/2001/REC-SVG-20010904/DTD/svg10.dtd" [
	<!ENTITY ns_flows "http://ns.adobe.com/Flows/1.0/">
	<!ENTITY ns_extend "http://ns.adobe.com/Extensibility/1.0/">
	<!ENTITY ns_ai "http://ns.adobe.com/AdobeIllustrator/10.0/">
	<!ENTITY ns_graphs "http://ns.adobe.com/Graphs/1.0/">
	<!ENTITY ns_vars "http://ns.adobe.com/Variables/1.0/">
	<!ENTITY ns_imrep "http://ns.adobe.com/ImageReplacement/1.0/">
	<!ENTITY ns_sfw "http://ns.adobe.com/SaveForWeb/1.0/">
	<!ENTITY ns_custom "http://ns.adobe.com/GenericCustomNamespace/1.0/">
	<!ENTITY ns_adobe_xpath "http://ns.adobe.com/XPath/1.0/">
	<!ENTITY ns_svg "http://www.w3.org/2000/svg">
	<!ENTITY ns_xlink "http://www.w3.org/1999/xlink">
]>
<svg xmlns:x="&ns_extend;" xmlns:i="&ns_ai;" xmlns:graph="&ns_graphs;" i:viewOrigin="287.4658 467.7139" i:rulerOrigin="0 0" i:pageBounds="0 841.8896 595.2754 0" xmlns="&ns_svg;" xmlns:xlink="&ns_xlink;" xmlns:a="http://ns.adobe.com/AdobeSVGViewerExtensions/3.0/" width="30.736" height="21.24" viewBox="0 0 30.736 21.24" overflow="visible" enable-background="new 0 0 30.736 21.24" xml:space="preserve" id="svgObj" onload="parent.svgLoad('Top', document)">
	<metadata>
		<variableSets xmlns="&ns_vars;">
			<variableSet varSetName="binding1" locked="none">
				<variables></variables>
				<v:sampleDataSets xmlns="&ns_custom;" xmlns:v="&ns_vars;"></v:sampleDataSets>
			</variableSet>
		</variableSets>
		<sfw xmlns="&ns_sfw;">
			<slices></slices>
			<sliceSourceBounds y="426.027" x="262.5" width="80.37" height="63.362" bottomLeftOrigin="true"></sliceSourceBounds>
		</sfw>
	</metadata>
	<g id="レイヤー_1" i:layer="yes" i:dimmedPercent="100" i:rgbTrio="#4F008000FFFF">
		<g>
			<path i:knockout="Off" fill="none" stroke="#000000" stroke-width="0.7087" stroke-linecap="round" d="M15.22,5.102v10.629
				 M5.582,15.731h19.276 M5.582,5.102h19.276"/>
			<path i:knockout="Off" fill="none" stroke="#000000" stroke-width="1.1339" stroke-linecap="round" d="M12.739,0.567h4.936
				 M12.739,0.567v2.468 M17.675,0.567v2.468 M7.803,3.035H22.61 M7.803,17.839H22.61"/>
			<path i:knockout="Off" fill="none" stroke="#000000" stroke-width="0.7087" stroke-linecap="round" d="M5.582,5.102v10.462
				 M24.857,5.102v10.462"/>
			<path i:knockout="Off" fill="none" stroke="#000000" stroke-width="1.1339" stroke-linecap="round" d="M7.803,3.035
				c-4.019,0.042-7.247,3.312-7.248,7.325c0,4.047,3.28,7.326,7.325,7.326c0.027,0,0.055,0,0.078,0"/>
			<path i:knockout="Off" fill="none" stroke="#000000" stroke-width="1.1339" stroke-linecap="round" d="M30.169,10.359
				c0-4.104-3.309-7.436-7.406-7.479"/>
			<path i:knockout="Off" fill="none" stroke="#000000" stroke-width="1.1339" stroke-linecap="round" d="M22.61,17.839
				c0.023,0.001,0.052,0.001,0.076,0.001c4.131,0,7.482-3.35,7.482-7.481"/>
			<path i:knockout="Off" fill="none" stroke="#000000" stroke-width="1.1339" stroke-linecap="round" d="M20.448,18.094v2.579
				h2.334l-0.096-2.579"/>
			<g i:knockout="Off">
				<path i:knockout="Off" d="M21.555,11.806v0.672h-3.797c-0.005-0.169,0.022-0.332,0.083-0.488
					c0.097-0.258,0.252-0.511,0.467-0.76c0.214-0.249,0.521-0.537,0.92-0.864c0.62-0.516,1.04-0.923,1.262-1.221
					c0.221-0.298,0.331-0.58,0.331-0.849c0-0.278-0.1-0.513-0.3-0.704c-0.199-0.191-0.459-0.287-0.78-0.287
					c-0.339,0-0.61,0.104-0.813,0.311c-0.204,0.208-0.307,0.494-0.31,0.861l-0.719-0.094c0.05-0.539,0.235-0.95,0.558-1.232
					c0.322-0.282,0.756-0.424,1.3-0.424c0.549,0,0.983,0.152,1.304,0.457c0.319,0.305,0.479,0.683,0.479,1.133
					c0,0.229-0.047,0.455-0.14,0.676c-0.094,0.221-0.248,0.454-0.465,0.699c-0.216,0.245-0.576,0.581-1.08,1.009
					c-0.424,0.355-0.695,0.596-0.815,0.722s-0.219,0.253-0.297,0.381H21.555z"/>
			</g>
			<g i:knockout="Off">
				<path i:knockout="Off" d="M11.215,12.478h-0.703v-4.48c-0.169,0.162-0.391,0.323-0.666,0.484
					c-0.275,0.162-0.521,0.283-0.74,0.363v-0.68c0.393-0.185,0.737-0.409,1.031-0.672c0.294-0.263,0.502-0.518,0.625-0.766h0.453
					V12.478z"/>
			</g>
			<path i:knockout="Off" fill="none" stroke="#000000" stroke-width="0.7087" stroke-linecap="round" d="M5.582,13.673h19.276"/>
		</g>
	</g>
</svg>
