<?xml version="1.0" encoding="utf-8"?>
<!-- Generator: Adobe Illustrator 10.0, SVG Export Plug-In . SVG Version: 3.0.0 Build 77)  -->
<!DOCTYPE svg PUBLIC "-//W3C//DTD SVG 1.0//EN"    "http://www.w3.org/TR/2001/REC-SVG-20010904/DTD/svg10.dtd" [
	<!ENTITY ns_flows "http://ns.adobe.com/Flows/1.0/">
	<!ENTITY ns_extend "http://ns.adobe.com/Extensibility/1.0/">
	<!ENTITY ns_ai "http://ns.adobe.com/AdobeIllustrator/10.0/">
	<!ENTITY ns_graphs "http://ns.adobe.com/Graphs/1.0/">
	<!ENTITY ns_vars "http://ns.adobe.com/Variables/1.0/">
	<!ENTITY ns_imrep "http://ns.adobe.com/ImageReplacement/1.0/">
	<!ENTITY ns_sfw "http://ns.adobe.com/SaveForWeb/1.0/">
	<!ENTITY ns_custom "http://ns.adobe.com/GenericCustomNamespace/1.0/">
	<!ENTITY ns_adobe_xpath "http://ns.adobe.com/XPath/1.0/">
	<!ENTITY ns_svg "http://www.w3.org/2000/svg">
	<!ENTITY ns_xlink "http://www.w3.org/1999/xlink">
]>
<svg xmlns:x="&ns_extend;" xmlns:i="&ns_ai;" xmlns:graph="&ns_graphs;" i:viewOrigin="214.6245 451.0737" i:rulerOrigin="-1 0.1104" i:pageBounds="1 841.8896 596 -0.1104" xmlns="&ns_svg;" xmlns:xlink="&ns_xlink;" xmlns:a="http://ns.adobe.com/AdobeSVGViewerExtensions/3.0/" width="166.39" height="57.676" viewBox="0 0 166.39 57.676" overflow="visible" enable-background="new 0 0 166.39 57.676" xml:space="preserve" id="svgObj" onload="parent.svgLoad('Top', document)">
	<metadata>
		<variableSets xmlns="&ns_vars;">
			<variableSet varSetName="binding1" locked="none">
				<variables></variables>
				<v:sampleDataSets xmlns="&ns_custom;" xmlns:v="&ns_vars;"></v:sampleDataSets>
			</variableSet>
		</variableSets>
		<sfw xmlns="&ns_sfw;">
			<slices></slices>
			<sliceSourceBounds y="388.708" x="178.445" width="239.111" height="63.363" bottomLeftOrigin="true"></sliceSourceBounds>
		</sfw>
	</metadata>
	<g id="illust" i:layer="yes" i:dimmedPercent="3" i:rgbTrio="#4F008000FFFF">
		<path i:knockout="Off" fill="none" stroke="#000000" stroke-width="0.7" d="M23.738,17.925c-2.967,0-5.371-2.404-5.371-5.371
			c0-2.966,2.404-5.37,5.371-5.37s5.371,2.404,5.371,5.37C29.109,15.521,26.705,17.925,23.738,17.925z"/>
		<g i:knockout="Off">
			<path i:knockout="Off" d="M24.527,14.754h-0.703v-4.48c-0.169,0.162-0.391,0.323-0.666,0.484
				c-0.275,0.162-0.521,0.283-0.74,0.363v-0.68c0.393-0.185,0.737-0.409,1.031-0.672c0.294-0.263,0.502-0.518,0.625-0.766h0.453
				V14.754z"/>
		</g>
		<path i:knockout="Off" fill="none" stroke="#000000" stroke-width="0.7" d="M20.021,16.474h7.254"/>
		<path i:knockout="Off" fill="none" stroke="#000000" stroke-width="0.7" d="M34.521,17.925c-2.967,0-5.371-2.404-5.371-5.371
			c0-2.966,2.404-5.37,5.371-5.37s5.371,2.404,5.371,5.37C39.893,15.521,37.488,17.925,34.521,17.925z"/>
		<g i:knockout="Off">
			<path i:knockout="Off" d="M36.35,14.083v0.672h-3.797c-0.005-0.169,0.022-0.332,0.083-0.488c0.098-0.258,0.253-0.511,0.467-0.76
				c0.214-0.249,0.521-0.537,0.92-0.864c0.619-0.516,1.04-0.923,1.261-1.221c0.221-0.298,0.332-0.58,0.332-0.849
				c0-0.278-0.1-0.513-0.299-0.704c-0.2-0.191-0.46-0.287-0.781-0.287c-0.339,0-0.611,0.104-0.814,0.311
				c-0.204,0.208-0.307,0.494-0.309,0.861l-0.719-0.094c0.049-0.539,0.235-0.95,0.558-1.232c0.322-0.282,0.755-0.424,1.299-0.424
				c0.549,0,0.983,0.152,1.303,0.457c0.32,0.305,0.48,0.683,0.48,1.133c0,0.229-0.046,0.455-0.14,0.676
				c-0.093,0.221-0.248,0.454-0.464,0.699c-0.217,0.245-0.577,0.581-1.081,1.009c-0.423,0.355-0.695,0.596-0.814,0.722
				c-0.12,0.126-0.219,0.253-0.297,0.381H36.35z"/>
		</g>
		<path i:knockout="Off" fill="none" stroke="#000000" stroke-width="0.7" d="M30.805,16.474h7.254"/>
		<path i:knockout="Off" fill="none" stroke="#000000" stroke-width="0.7" d="M45.305,17.925c-2.967,0-5.371-2.404-5.371-5.371
			c0-2.966,2.404-5.37,5.371-5.37s5.371,2.404,5.371,5.37C50.676,15.521,48.271,17.925,45.305,17.925z"/>
		<g i:knockout="Off">
			<path i:knockout="Off" d="M43.453,13.254l0.719-0.094c0.08,0.393,0.215,0.676,0.405,0.85c0.189,0.173,0.425,0.26,0.707,0.26
				c0.333,0,0.611-0.115,0.834-0.344s0.335-0.514,0.335-0.853c0-0.323-0.105-0.59-0.314-0.8s-0.475-0.315-0.798-0.315
				c-0.132,0-0.295,0.026-0.492,0.078l0.078-0.625c0.046,0.005,0.083,0.008,0.112,0.008c0.294,0,0.559-0.077,0.795-0.232
				c0.236-0.155,0.354-0.394,0.354-0.717c0-0.255-0.086-0.467-0.259-0.635s-0.396-0.252-0.669-0.252
				c-0.271,0-0.496,0.086-0.677,0.258s-0.297,0.43-0.348,0.773l-0.719-0.125c0.085-0.471,0.281-0.836,0.584-1.096
				c0.304-0.259,0.682-0.389,1.134-0.389c0.312,0,0.599,0.067,0.861,0.2c0.263,0.134,0.463,0.315,0.603,0.546
				c0.139,0.231,0.208,0.476,0.208,0.735c0,0.246-0.066,0.47-0.199,0.672s-0.33,0.363-0.59,0.482
				c0.338,0.078,0.604,0.241,0.797,0.487c0.193,0.246,0.289,0.555,0.289,0.925c0,0.501-0.182,0.926-0.547,1.273
				c-0.365,0.349-0.826,0.522-1.383,0.522c-0.502,0-0.92-0.147-1.252-0.443S43.5,13.725,43.453,13.254z"/>
		</g>
		<path i:knockout="Off" fill="none" stroke="#000000" stroke-width="0.7" d="M41.588,16.474h7.254"/>
		<path i:knockout="Off" fill="none" stroke="#000000" stroke-width="0.7" d="M56.088,17.925c-2.967,0-5.371-2.404-5.371-5.371
			c0-2.966,2.404-5.37,5.371-5.37s5.371,2.404,5.371,5.37C61.459,15.521,59.055,17.925,56.088,17.925z"/>
		<g i:knockout="Off">
			<path i:knockout="Off" d="M56.471,14.754v-1.375h-2.484v-0.641l2.625-3.719h0.563v3.719h0.781v0.641h-0.781v1.375H56.471z
				 M56.471,12.739v-2.566l-1.792,2.566H56.471z"/>
		</g>
		<path i:knockout="Off" fill="none" stroke="#000000" stroke-width="0.7" d="M52.371,16.474h7.254"/>
		<path i:knockout="Off" fill="none" stroke="#000000" stroke-width="0.7" d="M66.872,17.925c-2.967,0-5.371-2.404-5.371-5.371
			c0-2.966,2.404-5.37,5.371-5.37s5.371,2.404,5.371,5.37C72.243,15.521,69.838,17.925,66.872,17.925z"/>
		<g i:knockout="Off">
			<path i:knockout="Off" d="M65.004,13.254l0.719-0.063c0.055,0.358,0.182,0.627,0.379,0.808c0.198,0.181,0.441,0.271,0.729,0.271
				c0.349,0,0.639-0.127,0.871-0.382c0.232-0.254,0.348-0.592,0.348-1.013c0-0.399-0.111-0.715-0.332-0.946
				c-0.222-0.231-0.519-0.347-0.891-0.347c-0.232,0-0.438,0.051-0.617,0.152s-0.322,0.233-0.426,0.395l-0.656-0.094l0.563-2.938
				h2.844V9.77H66.25l-0.313,1.549c0.344-0.241,0.704-0.361,1.082-0.361c0.5,0,0.922,0.173,1.266,0.519s0.516,0.791,0.516,1.334
				c0,0.518-0.151,0.965-0.453,1.343c-0.367,0.463-0.869,0.694-1.504,0.694c-0.521,0-0.946-0.146-1.275-0.437
				C65.239,14.121,65.051,13.735,65.004,13.254z"/>
		</g>
		<path i:knockout="Off" fill="none" stroke="#000000" stroke-width="0.7" d="M63.155,16.474h7.254"/>
		<path i:knockout="Off" fill="none" stroke="#000000" stroke-width="0.7" d="M77.655,17.925c-2.967,0-5.371-2.404-5.371-5.371
			c0-2.966,2.404-5.37,5.371-5.37s5.371,2.404,5.371,5.37C83.026,15.521,80.622,17.925,77.655,17.925z"/>
		<g i:knockout="Off">
			<path i:knockout="Off" d="M79.459,10.426l-0.703,0.063c-0.063-0.277-0.152-0.479-0.268-0.604
				c-0.191-0.201-0.427-0.302-0.708-0.302c-0.226,0-0.426,0.063-0.602,0.187c-0.218,0.161-0.391,0.396-0.52,0.705
				c-0.128,0.309-0.195,0.75-0.2,1.323c0.17-0.258,0.378-0.449,0.623-0.574c0.246-0.125,0.503-0.188,0.773-0.188
				c0.47,0,0.871,0.173,1.202,0.518c0.331,0.345,0.496,0.791,0.496,1.338c0,0.359-0.078,0.693-0.233,1.002
				c-0.156,0.309-0.369,0.545-0.642,0.709c-0.271,0.164-0.58,0.246-0.925,0.246c-0.588,0-1.068-0.215-1.44-0.646
				c-0.371-0.431-0.557-1.14-0.557-2.129c0-1.106,0.206-1.91,0.617-2.413c0.359-0.437,0.843-0.656,1.451-0.656
				c0.453,0,0.825,0.126,1.114,0.378S79.402,9.982,79.459,10.426z M76.569,12.897c0,0.242,0.052,0.474,0.155,0.694
				c0.104,0.221,0.247,0.39,0.43,0.505c0.183,0.116,0.38,0.174,0.589,0.174c0.304,0,0.562-0.12,0.773-0.359s0.318-0.564,0.318-0.975
				c0-0.395-0.104-0.707-0.314-0.934c-0.209-0.228-0.478-0.341-0.805-0.341c-0.319,0-0.59,0.114-0.813,0.341
				C76.68,12.229,76.569,12.528,76.569,12.897z"/>
		</g>
		<path i:knockout="Off" fill="none" stroke="#000000" stroke-width="0.7" d="M73.938,16.474h7.254"/>
		<path i:knockout="Off" fill="none" stroke="#000000" stroke-width="0.7" d="M88.438,17.925c-2.967,0-5.371-2.404-5.371-5.371
			c0-2.966,2.404-5.37,5.371-5.37s5.371,2.404,5.371,5.37C93.809,15.521,91.405,17.925,88.438,17.925z"/>
		<g i:knockout="Off">
			<path i:knockout="Off" d="M86.618,9.77V9.098h3.703v0.544c-0.365,0.388-0.728,0.904-1.086,1.548
				c-0.359,0.645-0.636,1.307-0.832,1.988c-0.141,0.48-0.23,1.005-0.27,1.577h-0.719c0.008-0.451,0.096-0.996,0.266-1.635
				c0.168-0.639,0.41-1.255,0.727-1.849c0.315-0.593,0.651-1.093,1.008-1.5H86.618z"/>
		</g>
		<path i:knockout="Off" fill="none" stroke="#000000" stroke-width="0.7" d="M84.721,16.474h7.254"/>
		<path i:knockout="Off" fill="none" stroke="#000000" stroke-width="0.7" d="M99.221,17.925c-2.967,0-5.371-2.404-5.371-5.371
			c0-2.966,2.404-5.37,5.371-5.37s5.371,2.404,5.371,5.37C104.592,15.521,102.188,17.925,99.221,17.925z"/>
		<g i:knockout="Off">
			<path i:knockout="Off" d="M98.448,11.651c-0.292-0.106-0.508-0.259-0.648-0.457s-0.211-0.436-0.211-0.712
				c0-0.417,0.149-0.767,0.447-1.051c0.299-0.284,0.695-0.426,1.191-0.426c0.498,0,0.898,0.146,1.203,0.436
				c0.303,0.291,0.455,0.644,0.455,1.061c0,0.266-0.069,0.497-0.208,0.694c-0.139,0.196-0.349,0.349-0.632,0.455
				c0.351,0.114,0.617,0.299,0.8,0.554s0.274,0.559,0.274,0.912c0,0.489-0.173,0.899-0.519,1.232s-0.8,0.499-1.364,0.499
				s-1.019-0.167-1.364-0.501s-0.519-0.75-0.519-1.25c0-0.371,0.095-0.683,0.284-0.934S98.097,11.742,98.448,11.651z M98.073,13.102
				c0,0.2,0.046,0.394,0.139,0.58c0.092,0.187,0.232,0.332,0.423,0.434c0.189,0.103,0.393,0.154,0.608,0.154
				c0.341,0,0.619-0.107,0.834-0.323c0.217-0.215,0.324-0.489,0.324-0.821c0-0.337-0.111-0.616-0.334-0.837
				c-0.222-0.221-0.504-0.331-0.848-0.331c-0.336,0-0.61,0.109-0.824,0.327C98.18,12.502,98.073,12.775,98.073,13.102z
				 M98.307,10.458c0,0.271,0.086,0.492,0.257,0.664s0.397,0.258,0.681,0.258c0.275,0,0.497-0.085,0.667-0.256
				c0.17-0.17,0.255-0.379,0.255-0.627c0-0.258-0.088-0.475-0.263-0.65s-0.397-0.264-0.667-0.264c-0.272,0-0.495,0.086-0.669,0.258
				S98.307,10.218,98.307,10.458z"/>
		</g>
		<path i:knockout="Off" fill="none" stroke="#000000" stroke-width="0.7" d="M95.504,16.474h7.254"/>
		<path i:knockout="Off" fill="none" stroke="#000000" stroke-width="0.7" d="M110.004,17.925c-2.967,0-5.371-2.404-5.371-5.371
			c0-2.966,2.404-5.37,5.371-5.37s5.371,2.404,5.371,5.37C115.375,15.521,112.971,17.925,110.004,17.925z"/>
		<g i:knockout="Off">
			<path i:knockout="Off" d="M108.081,13.426l0.672-0.063c0.057,0.318,0.166,0.548,0.328,0.691c0.161,0.144,0.368,0.215,0.621,0.215
				c0.216,0,0.406-0.049,0.572-0.147c0.165-0.099,0.299-0.23,0.4-0.395s0.188-0.387,0.258-0.667c0.07-0.28,0.105-0.565,0.105-0.857
				c0-0.031-0.002-0.078-0.004-0.141c-0.141,0.224-0.331,0.406-0.573,0.545c-0.242,0.14-0.505,0.209-0.787,0.209
				c-0.472,0-0.87-0.172-1.197-0.516c-0.326-0.344-0.489-0.797-0.489-1.361c0-0.581,0.171-1.049,0.514-1.404
				c0.342-0.354,0.771-0.532,1.287-0.532c0.372,0,0.713,0.101,1.021,0.301s0.543,0.486,0.703,0.856c0.16,0.371,0.24,0.908,0.24,1.61
				c0,0.731-0.08,1.313-0.239,1.747s-0.396,0.763-0.711,0.989c-0.315,0.227-0.685,0.34-1.107,0.34c-0.449,0-0.816-0.124-1.101-0.373
				C108.309,14.227,108.138,13.877,108.081,13.426z M110.971,10.901c0-0.404-0.106-0.725-0.319-0.962
				c-0.212-0.237-0.473-0.356-0.78-0.356c-0.318,0-0.592,0.128-0.822,0.384c-0.229,0.255-0.344,0.586-0.344,0.993
				c0,0.365,0.109,0.662,0.326,0.89c0.219,0.228,0.492,0.342,0.82,0.342c0.326,0,0.594-0.114,0.805-0.342
				C110.866,11.622,110.971,11.305,110.971,10.901z"/>
		</g>
		<path i:knockout="Off" fill="none" stroke="#000000" stroke-width="0.7" d="M106.288,16.474h7.254"/>
		<path i:knockout="Off" fill="none" stroke="#000000" stroke-width="0.7" d="M120.788,17.925c-2.967,0-5.371-2.404-5.371-5.371
			c0-2.966,2.404-5.37,5.371-5.37s5.371,2.404,5.371,5.37C126.159,15.521,123.754,17.925,120.788,17.925z"/>
		<g i:knockout="Off">
			<path i:knockout="Off" d="M119.352,14.754h-0.703v-4.48c-0.17,0.162-0.392,0.323-0.666,0.484
				c-0.275,0.162-0.521,0.283-0.74,0.363v-0.68c0.393-0.185,0.736-0.409,1.031-0.672c0.294-0.263,0.502-0.518,0.625-0.766h0.453
				V14.754z"/>
			<path i:knockout="Off" d="M121.145,11.928c0-0.677,0.07-1.223,0.211-1.638s0.349-0.733,0.626-0.954
				c0.277-0.222,0.626-0.332,1.046-0.332c0.31,0,0.583,0.062,0.819,0.186s0.429,0.302,0.579,0.535
				c0.149,0.233,0.268,0.517,0.354,0.851s0.13,0.785,0.13,1.353c0,0.671-0.069,1.215-0.209,1.63
				c-0.139,0.415-0.348,0.734-0.624,0.956c-0.277,0.223-0.627,0.334-1.05,0.334c-0.557,0-0.994-0.195-1.312-0.585
				C121.335,13.781,121.145,13.003,121.145,11.928z M121.864,11.926c0,0.945,0.111,1.572,0.336,1.881
				c0.224,0.309,0.5,0.463,0.828,0.463s0.604-0.155,0.828-0.465c0.224-0.31,0.336-0.936,0.336-1.879
				c0-0.942-0.111-1.569-0.334-1.879c-0.223-0.31-0.502-0.465-0.838-0.465c-0.328,0-0.592,0.137-0.791,0.41
				C121.986,10.342,121.864,10.986,121.864,11.926z"/>
		</g>
		<path i:knockout="Off" fill="none" stroke="#000000" stroke-width="0.7" d="M117.071,16.474h7.254"/>
		<path i:knockout="Off" fill="none" stroke="#000000" stroke-width="0.7" d="M29.289,39.448c-2.967,0-5.371-2.404-5.371-5.371
			c0-2.965,2.404-5.369,5.371-5.369s5.371,2.404,5.371,5.369C34.66,37.043,32.255,39.448,29.289,39.448z"/>
		<g i:knockout="Off">
			<path i:knockout="Off" d="M27.503,36.278H26.8v-4.48c-0.169,0.162-0.391,0.323-0.666,0.484c-0.275,0.162-0.521,0.283-0.74,0.363
				v-0.68c0.393-0.185,0.737-0.408,1.031-0.672c0.294-0.263,0.502-0.518,0.625-0.766h0.453V36.278z"/>
			<path i:knockout="Off" d="M29.296,34.778l0.719-0.063c0.055,0.358,0.181,0.627,0.379,0.808s0.441,0.271,0.729,0.271
				c0.349,0,0.639-0.127,0.871-0.382c0.232-0.254,0.348-0.592,0.348-1.013c0-0.399-0.111-0.715-0.332-0.946
				s-0.518-0.347-0.891-0.347c-0.232,0-0.438,0.051-0.617,0.152s-0.322,0.232-0.426,0.395l-0.656-0.094l0.563-2.938h2.844v0.672
				h-2.285l-0.313,1.549c0.344-0.24,0.705-0.361,1.082-0.361c0.5,0,0.922,0.173,1.266,0.52c0.344,0.346,0.516,0.791,0.516,1.334
				c0,0.518-0.151,0.965-0.453,1.343c-0.367,0.463-0.869,0.694-1.504,0.694c-0.521,0-0.946-0.146-1.275-0.437
				S29.343,35.258,29.296,34.778z"/>
		</g>
		<g i:knockout="Off">
			<path i:knockout="Off" d="M11.983,40.933v0.672H8.186c-0.005-0.169,0.022-0.332,0.083-0.488c0.097-0.258,0.252-0.511,0.467-0.76
				c0.214-0.249,0.521-0.536,0.92-0.864c0.62-0.516,1.04-0.923,1.261-1.221s0.332-0.58,0.332-0.849c0-0.278-0.1-0.513-0.299-0.704
				c-0.2-0.19-0.46-0.286-0.781-0.286c-0.339,0-0.61,0.104-0.814,0.312c-0.204,0.207-0.307,0.494-0.309,0.86l-0.719-0.094
				c0.049-0.539,0.235-0.95,0.558-1.232c0.323-0.282,0.756-0.424,1.3-0.424c0.549,0,0.983,0.152,1.303,0.457s0.48,0.683,0.48,1.134
				c0,0.229-0.047,0.454-0.14,0.676c-0.094,0.221-0.248,0.454-0.465,0.699c-0.216,0.245-0.576,0.581-1.081,1.009
				c-0.423,0.354-0.695,0.596-0.815,0.722c-0.12,0.127-0.219,0.254-0.297,0.382H11.983z"/>
			<path i:knockout="Off" d="M16.409,37.277l-0.703,0.063c-0.063-0.277-0.152-0.479-0.268-0.604
				c-0.191-0.201-0.427-0.302-0.708-0.302c-0.226,0-0.426,0.063-0.602,0.187c-0.218,0.162-0.391,0.396-0.52,0.705
				c-0.128,0.31-0.195,0.75-0.2,1.323c0.17-0.258,0.378-0.449,0.623-0.574c0.246-0.125,0.503-0.188,0.773-0.188
				c0.47,0,0.871,0.173,1.202,0.518s0.496,0.791,0.496,1.338c0,0.359-0.078,0.693-0.233,1.002c-0.156,0.309-0.369,0.545-0.642,0.709
				c-0.271,0.164-0.58,0.246-0.925,0.246c-0.588,0-1.068-0.216-1.44-0.646c-0.371-0.432-0.557-1.141-0.557-2.13
				c0-1.106,0.206-1.91,0.617-2.413c0.359-0.437,0.843-0.655,1.451-0.655c0.453,0,0.825,0.126,1.114,0.378
				S16.351,36.833,16.409,37.277z M13.518,39.748c0,0.242,0.052,0.474,0.155,0.694s0.247,0.39,0.43,0.505
				c0.183,0.116,0.38,0.174,0.589,0.174c0.304,0,0.562-0.12,0.773-0.358c0.212-0.24,0.318-0.564,0.318-0.976
				c0-0.396-0.104-0.706-0.314-0.935c-0.209-0.227-0.478-0.341-0.805-0.341c-0.319,0-0.59,0.114-0.813,0.341
				C13.629,39.081,13.518,39.378,13.518,39.748z"/>
		</g>
		<path i:knockout="Off" fill="none" stroke="#000000" stroke-width="0.7" d="M25.572,37.997h7.254"/>
		<path i:knockout="Off" fill="none" stroke="#000000" stroke-width="0.7" d="M40.072,39.448c-2.967,0-5.371-2.404-5.371-5.371
			c0-2.965,2.404-5.369,5.371-5.369s5.371,2.404,5.371,5.369C45.443,37.043,43.039,39.448,40.072,39.448z"/>
		<g i:knockout="Off">
			<path i:knockout="Off" d="M38.286,36.278h-0.703v-4.48c-0.169,0.162-0.391,0.323-0.666,0.484
				c-0.275,0.162-0.521,0.283-0.74,0.363v-0.68c0.393-0.185,0.737-0.408,1.031-0.672c0.294-0.263,0.502-0.518,0.625-0.766h0.453
				V36.278z"/>
			<path i:knockout="Off" d="M43.751,31.95l-0.703,0.063c-0.063-0.277-0.152-0.479-0.267-0.604
				c-0.191-0.201-0.428-0.302-0.708-0.302c-0.226,0-0.427,0.063-0.602,0.188c-0.218,0.16-0.391,0.396-0.519,0.705
				c-0.129,0.309-0.195,0.75-0.201,1.322c0.17-0.258,0.377-0.449,0.624-0.574c0.245-0.125,0.503-0.188,0.772-0.188
				c0.471,0,0.871,0.173,1.202,0.518c0.331,0.346,0.496,0.791,0.496,1.338c0,0.359-0.078,0.693-0.233,1.002s-0.37,0.545-0.641,0.709
				c-0.272,0.164-0.581,0.246-0.926,0.246c-0.588,0-1.068-0.215-1.439-0.646c-0.372-0.43-0.557-1.14-0.557-2.129
				c0-1.105,0.206-1.91,0.617-2.413c0.359-0.437,0.842-0.656,1.451-0.656c0.453,0,0.825,0.126,1.114,0.378
				S43.693,31.505,43.751,31.95z M40.86,34.42c0,0.242,0.051,0.474,0.155,0.694c0.104,0.222,0.247,0.39,0.43,0.505
				c0.183,0.116,0.379,0.174,0.589,0.174c0.303,0,0.561-0.119,0.773-0.359c0.212-0.238,0.318-0.563,0.318-0.975
				c0-0.395-0.105-0.707-0.314-0.934c-0.21-0.229-0.478-0.342-0.805-0.342c-0.319,0-0.59,0.113-0.813,0.342
				C40.971,33.752,40.86,34.051,40.86,34.42z"/>
		</g>
		<path i:knockout="Off" fill="none" stroke="#000000" stroke-width="0.7" d="M36.355,37.997h7.254"/>
		<path i:knockout="Off" fill="none" stroke="#000000" stroke-width="0.7" d="M50.855,39.448c-2.967,0-5.371-2.404-5.371-5.371
			c0-2.965,2.404-5.369,5.371-5.369s5.371,2.404,5.371,5.369C56.226,37.043,53.822,39.448,50.855,39.448z"/>
		<g i:knockout="Off">
			<path i:knockout="Off" d="M49.069,36.278h-0.703v-4.48c-0.169,0.162-0.391,0.323-0.666,0.484
				c-0.275,0.162-0.521,0.283-0.74,0.363v-0.68c0.393-0.185,0.737-0.408,1.031-0.672c0.294-0.263,0.502-0.518,0.625-0.766h0.453
				V36.278z"/>
			<path i:knockout="Off" d="M50.909,31.293v-0.672h3.703v0.544c-0.365,0.388-0.727,0.904-1.086,1.548
				c-0.359,0.645-0.636,1.307-0.832,1.988c-0.141,0.479-0.231,1.005-0.27,1.576h-0.719c0.008-0.451,0.096-0.996,0.265-1.635
				c0.169-0.64,0.411-1.256,0.727-1.85c0.316-0.593,0.652-1.093,1.008-1.5H50.909z"/>
		</g>
		<path i:knockout="Off" fill="none" stroke="#000000" stroke-width="0.7" d="M47.138,37.997h7.254"/>
		<path i:knockout="Off" fill="none" stroke="#000000" stroke-width="0.7" d="M61.638,39.448c-2.967,0-5.371-2.404-5.371-5.371
			c0-2.965,2.404-5.369,5.371-5.369s5.371,2.404,5.371,5.369C67.009,37.043,64.605,39.448,61.638,39.448z"/>
		<g i:knockout="Off">
			<path i:knockout="Off" d="M59.853,36.278h-0.703v-4.48c-0.169,0.162-0.391,0.323-0.666,0.484
				c-0.275,0.162-0.521,0.283-0.74,0.363v-0.68c0.393-0.185,0.737-0.408,1.031-0.672c0.294-0.263,0.502-0.518,0.625-0.766h0.453
				V36.278z"/>
			<path i:knockout="Off" d="M62.739,33.174c-0.292-0.106-0.508-0.259-0.648-0.457s-0.21-0.436-0.21-0.712
				c0-0.417,0.149-0.767,0.448-1.051c0.298-0.284,0.695-0.426,1.191-0.426c0.498,0,0.899,0.146,1.203,0.436s0.456,0.644,0.456,1.061
				c0,0.267-0.069,0.497-0.208,0.694c-0.139,0.196-0.349,0.349-0.631,0.455c0.35,0.114,0.616,0.299,0.799,0.554
				s0.274,0.559,0.274,0.912c0,0.489-0.173,0.899-0.519,1.232s-0.8,0.499-1.364,0.499s-1.019-0.167-1.365-0.501
				s-0.518-0.751-0.518-1.25c0-0.371,0.094-0.683,0.284-0.934S62.389,33.265,62.739,33.174z M62.364,34.625
				c0,0.2,0.046,0.394,0.138,0.58c0.093,0.188,0.233,0.332,0.423,0.434c0.19,0.104,0.393,0.154,0.608,0.154
				c0.34,0,0.619-0.107,0.834-0.323c0.216-0.215,0.324-0.489,0.324-0.821c0-0.338-0.111-0.616-0.333-0.837s-0.505-0.331-0.848-0.331
				c-0.335,0-0.61,0.109-0.825,0.327C62.471,34.026,62.364,34.298,62.364,34.625z M62.599,31.981c0,0.271,0.085,0.492,0.256,0.664
				c0.171,0.172,0.398,0.258,0.681,0.258c0.275,0,0.497-0.085,0.667-0.256c0.17-0.17,0.255-0.379,0.255-0.627
				c0-0.258-0.087-0.475-0.263-0.65s-0.397-0.264-0.667-0.264c-0.272,0-0.496,0.086-0.669,0.258S62.599,31.742,62.599,31.981z"/>
		</g>
		<path i:knockout="Off" fill="none" stroke="#000000" stroke-width="0.7" d="M57.921,37.997h7.254"/>
		<path i:knockout="Off" fill="none" stroke="#000000" stroke-width="0.7" d="M72.422,39.448c-2.967,0-5.371-2.404-5.371-5.371
			c0-2.965,2.404-5.369,5.371-5.369s5.371,2.404,5.371,5.369C77.793,37.043,75.389,39.448,72.422,39.448z"/>
		<g i:knockout="Off">
			<path i:knockout="Off" d="M70.636,36.278h-0.703v-4.48c-0.169,0.162-0.392,0.323-0.666,0.484
				c-0.275,0.162-0.521,0.283-0.74,0.363v-0.68c0.393-0.185,0.737-0.408,1.031-0.672c0.294-0.263,0.502-0.518,0.625-0.766h0.453
				V36.278z"/>
			<path i:knockout="Off" d="M72.523,34.95l0.672-0.063c0.057,0.318,0.167,0.549,0.328,0.691c0.161,0.144,0.368,0.215,0.621,0.215
				c0.216,0,0.407-0.049,0.572-0.147c0.165-0.099,0.299-0.229,0.4-0.395s0.188-0.387,0.258-0.667
				c0.07-0.279,0.105-0.565,0.105-0.857c0-0.031-0.001-0.078-0.004-0.141c-0.14,0.225-0.331,0.406-0.573,0.545
				c-0.242,0.14-0.505,0.209-0.787,0.209c-0.472,0-0.871-0.172-1.197-0.516c-0.326-0.345-0.489-0.798-0.489-1.361
				c0-0.581,0.171-1.049,0.514-1.404c0.342-0.354,0.771-0.532,1.287-0.532c0.372,0,0.713,0.101,1.021,0.301s0.543,0.486,0.703,0.856
				c0.16,0.371,0.24,0.907,0.24,1.61c0,0.731-0.08,1.313-0.239,1.747s-0.396,0.763-0.711,0.989c-0.315,0.227-0.684,0.34-1.107,0.34
				c-0.449,0-0.816-0.124-1.101-0.373C72.751,35.75,72.581,35.401,72.523,34.95z M75.414,32.424c0-0.404-0.106-0.725-0.319-0.963
				c-0.212-0.236-0.473-0.355-0.78-0.355c-0.318,0-0.592,0.128-0.822,0.384c-0.229,0.255-0.344,0.587-0.344,0.993
				c0,0.365,0.109,0.662,0.327,0.891c0.218,0.228,0.491,0.342,0.82,0.342c0.326,0,0.594-0.114,0.804-0.342
				C75.309,33.145,75.414,32.829,75.414,32.424z"/>
		</g>
		<path i:knockout="Off" fill="none" stroke="#000000" stroke-width="0.7" d="M68.705,37.997h7.254"/>
		<path i:knockout="Off" fill="none" stroke="#000000" stroke-width="0.7" d="M83.206,39.448c-2.967,0-5.372-2.404-5.372-5.371
			c0-2.965,2.405-5.369,5.372-5.369s5.371,2.404,5.371,5.369C88.577,37.043,86.172,39.448,83.206,39.448z"/>
		<g i:knockout="Off">
			<path i:knockout="Off" d="M82.458,35.606v0.672h-3.797c-0.005-0.169,0.022-0.332,0.083-0.488c0.097-0.258,0.252-0.511,0.467-0.76
				c0.214-0.248,0.521-0.537,0.92-0.864c0.62-0.517,1.04-0.923,1.261-1.221s0.332-0.58,0.332-0.849c0-0.277-0.1-0.513-0.299-0.703
				c-0.2-0.191-0.46-0.287-0.781-0.287c-0.339,0-0.61,0.104-0.814,0.311c-0.204,0.208-0.307,0.494-0.309,0.861l-0.719-0.094
				c0.049-0.539,0.235-0.949,0.558-1.232c0.323-0.282,0.756-0.424,1.3-0.424c0.549,0,0.983,0.152,1.303,0.457s0.48,0.683,0.48,1.133
				c0,0.229-0.047,0.455-0.14,0.677c-0.094,0.222-0.248,0.454-0.465,0.699c-0.216,0.245-0.576,0.581-1.081,1.009
				c-0.423,0.355-0.695,0.596-0.815,0.723c-0.12,0.126-0.219,0.253-0.297,0.381H82.458z"/>
			<path i:knockout="Off" d="M83.211,33.452c0-0.677,0.07-1.223,0.211-1.638c0.14-0.415,0.349-0.733,0.626-0.954
				c0.277-0.222,0.626-0.332,1.046-0.332c0.31,0,0.583,0.062,0.819,0.186s0.429,0.302,0.579,0.535
				c0.149,0.232,0.268,0.516,0.354,0.851s0.13,0.785,0.13,1.353c0,0.672-0.069,1.215-0.209,1.63
				c-0.139,0.415-0.348,0.733-0.624,0.956c-0.277,0.223-0.627,0.334-1.05,0.334c-0.557,0-0.994-0.195-1.312-0.586
				C83.402,35.305,83.211,34.527,83.211,33.452z M83.93,33.45c0,0.945,0.112,1.572,0.336,1.881c0.224,0.309,0.5,0.463,0.828,0.463
				s0.604-0.154,0.828-0.465c0.224-0.31,0.336-0.936,0.336-1.879c0-0.942-0.111-1.568-0.334-1.879
				c-0.223-0.31-0.502-0.465-0.838-0.465c-0.328,0-0.592,0.137-0.791,0.41C84.052,31.866,83.93,32.51,83.93,33.45z"/>
		</g>
		<path i:knockout="Off" fill="none" stroke="#000000" stroke-width="0.7" d="M79.489,37.997h7.254"/>
		<path i:knockout="Off" fill="none" stroke="#000000" stroke-width="0.7" d="M93.989,39.448c-2.967,0-5.371-2.404-5.371-5.371
			c0-2.965,2.404-5.369,5.371-5.369s5.371,2.404,5.371,5.369C99.36,37.043,96.956,39.448,93.989,39.448z"/>
		<g i:knockout="Off">
			<path i:knockout="Off" d="M93.243,35.606v0.672h-3.797c-0.006-0.169,0.022-0.332,0.083-0.488c0.097-0.258,0.253-0.511,0.467-0.76
				c0.214-0.248,0.521-0.537,0.92-0.864c0.62-0.517,1.04-0.923,1.261-1.221c0.222-0.298,0.332-0.58,0.332-0.849
				c0-0.277-0.1-0.513-0.299-0.703c-0.2-0.191-0.461-0.287-0.781-0.287c-0.34,0-0.61,0.104-0.814,0.311
				c-0.203,0.208-0.307,0.494-0.309,0.861l-0.719-0.094c0.049-0.539,0.235-0.949,0.558-1.232c0.323-0.282,0.756-0.424,1.3-0.424
				c0.549,0,0.983,0.152,1.303,0.457c0.32,0.305,0.48,0.683,0.48,1.133c0,0.229-0.047,0.455-0.14,0.677
				c-0.094,0.222-0.248,0.454-0.465,0.699c-0.216,0.245-0.576,0.581-1.081,1.009c-0.423,0.355-0.694,0.596-0.814,0.723
				c-0.119,0.126-0.219,0.253-0.297,0.381H93.243z"/>
			<path i:knockout="Off" d="M96.653,36.278H95.95v-4.48c-0.17,0.162-0.392,0.323-0.666,0.484c-0.275,0.162-0.521,0.283-0.74,0.363
				v-0.68c0.393-0.185,0.736-0.408,1.031-0.672c0.294-0.263,0.502-0.518,0.625-0.766h0.453V36.278z"/>
		</g>
		<path i:knockout="Off" fill="none" stroke="#000000" stroke-width="0.7" d="M90.272,37.997h7.254"/>
		<path i:knockout="Off" fill="none" stroke="#000000" stroke-width="0.7" d="M104.772,39.448c-2.967,0-5.371-2.404-5.371-5.371
			c0-2.965,2.404-5.369,5.371-5.369s5.371,2.404,5.371,5.369C110.143,37.043,107.739,39.448,104.772,39.448z"/>
		<g i:knockout="Off">
			<path i:knockout="Off" d="M104.375,35.606v0.672h-3.797c-0.006-0.169,0.022-0.332,0.083-0.488
				c0.097-0.258,0.253-0.511,0.467-0.76c0.214-0.248,0.521-0.537,0.92-0.864c0.62-0.517,1.04-0.923,1.261-1.221
				c0.222-0.298,0.332-0.58,0.332-0.849c0-0.277-0.1-0.513-0.299-0.703c-0.2-0.191-0.461-0.287-0.781-0.287
				c-0.34,0-0.61,0.104-0.814,0.311c-0.203,0.208-0.307,0.494-0.309,0.861l-0.719-0.094c0.049-0.539,0.235-0.949,0.558-1.232
				c0.323-0.282,0.756-0.424,1.3-0.424c0.549,0,0.983,0.152,1.303,0.457c0.32,0.305,0.48,0.683,0.48,1.133
				c0,0.229-0.047,0.455-0.14,0.677c-0.094,0.222-0.248,0.454-0.465,0.699c-0.216,0.245-0.576,0.581-1.081,1.009
				c-0.423,0.355-0.694,0.596-0.814,0.723c-0.119,0.126-0.219,0.253-0.297,0.381H104.375z"/>
			<path i:knockout="Off" d="M108.825,35.606v0.672h-3.797c-0.006-0.169,0.022-0.332,0.083-0.488
				c0.097-0.258,0.253-0.511,0.467-0.76c0.214-0.248,0.521-0.537,0.92-0.864c0.62-0.517,1.04-0.923,1.261-1.221
				c0.222-0.298,0.332-0.58,0.332-0.849c0-0.277-0.1-0.513-0.299-0.703c-0.2-0.191-0.461-0.287-0.781-0.287
				c-0.34,0-0.61,0.104-0.814,0.311c-0.203,0.208-0.307,0.494-0.309,0.861l-0.719-0.094c0.049-0.539,0.235-0.949,0.558-1.232
				c0.323-0.282,0.756-0.424,1.3-0.424c0.549,0,0.983,0.152,1.303,0.457c0.32,0.305,0.48,0.683,0.48,1.133
				c0,0.229-0.047,0.455-0.14,0.677c-0.094,0.222-0.248,0.454-0.465,0.699c-0.216,0.245-0.576,0.581-1.081,1.009
				c-0.423,0.355-0.694,0.596-0.814,0.723c-0.119,0.126-0.219,0.253-0.297,0.381H108.825z"/>
		</g>
		<path i:knockout="Off" fill="none" stroke="#000000" stroke-width="0.7" d="M101.055,37.997h7.254"/>
		<path i:knockout="Off" fill="none" stroke="#000000" stroke-width="0.7" d="M115.555,39.448c-2.967,0-5.371-2.404-5.371-5.371
			c0-2.965,2.404-5.369,5.371-5.369s5.371,2.404,5.371,5.369C120.926,37.043,118.522,39.448,115.555,39.448z"/>
		<g i:knockout="Off">
			<path i:knockout="Off" d="M115.159,35.606v0.672h-3.797c-0.006-0.169,0.022-0.332,0.083-0.488
				c0.097-0.258,0.253-0.511,0.467-0.76c0.214-0.248,0.521-0.537,0.92-0.864c0.62-0.517,1.04-0.923,1.261-1.221
				c0.222-0.298,0.332-0.58,0.332-0.849c0-0.277-0.1-0.513-0.299-0.703c-0.2-0.191-0.461-0.287-0.781-0.287
				c-0.34,0-0.61,0.104-0.814,0.311c-0.203,0.208-0.307,0.494-0.309,0.861l-0.719-0.094c0.049-0.539,0.235-0.949,0.558-1.232
				c0.323-0.282,0.756-0.424,1.3-0.424c0.549,0,0.983,0.152,1.303,0.457c0.32,0.305,0.48,0.683,0.48,1.133
				c0,0.229-0.047,0.455-0.14,0.677c-0.094,0.222-0.248,0.454-0.465,0.699c-0.216,0.245-0.576,0.581-1.081,1.009
				c-0.423,0.355-0.694,0.596-0.814,0.723c-0.119,0.126-0.219,0.253-0.297,0.381H115.159z"/>
			<path i:knockout="Off" d="M115.928,34.778l0.719-0.094c0.08,0.393,0.215,0.676,0.404,0.85c0.19,0.173,0.426,0.26,0.707,0.26
				c0.333,0,0.611-0.115,0.835-0.344c0.224-0.23,0.335-0.515,0.335-0.854c0-0.323-0.104-0.59-0.313-0.801
				c-0.21-0.209-0.476-0.314-0.798-0.314c-0.132,0-0.296,0.026-0.492,0.078l0.078-0.625c0.046,0.006,0.083,0.008,0.111,0.008
				c0.295,0,0.56-0.077,0.795-0.232c0.235-0.154,0.354-0.394,0.354-0.717c0-0.256-0.086-0.467-0.26-0.635
				c-0.172-0.168-0.396-0.252-0.668-0.252c-0.271,0-0.497,0.086-0.678,0.258c-0.18,0.172-0.296,0.43-0.348,0.773l-0.719-0.125
				c0.086-0.471,0.28-0.836,0.584-1.096c0.305-0.259,0.683-0.389,1.135-0.389c0.312,0,0.599,0.067,0.861,0.2
				c0.262,0.134,0.463,0.315,0.602,0.546c0.14,0.23,0.209,0.476,0.209,0.735c0,0.246-0.066,0.47-0.199,0.673
				c-0.133,0.201-0.33,0.362-0.59,0.481c0.338,0.078,0.604,0.241,0.797,0.487c0.192,0.246,0.289,0.555,0.289,0.925
				c0,0.501-0.183,0.926-0.547,1.273c-0.365,0.349-0.826,0.522-1.383,0.522c-0.503,0-0.92-0.147-1.252-0.443
				S115.975,35.249,115.928,34.778z"/>
		</g>
		<path i:knockout="Off" fill="none" stroke="#000000" stroke-width="0.7" d="M111.838,37.997h7.254"/>
		<path i:knockout="Off" fill="none" stroke="#000000" stroke-width="0.7" d="M126.338,39.448c-2.967,0-5.371-2.404-5.371-5.371
			c0-2.965,2.404-5.369,5.371-5.369s5.371,2.404,5.371,5.369C131.709,37.043,129.305,39.448,126.338,39.448z"/>
		<g i:knockout="Off">
			<path i:knockout="Off" d="M125.942,35.606v0.672h-3.797c-0.006-0.169,0.022-0.332,0.083-0.488
				c0.097-0.258,0.253-0.511,0.467-0.76c0.214-0.248,0.521-0.537,0.92-0.864c0.62-0.517,1.04-0.923,1.261-1.221
				c0.222-0.298,0.332-0.58,0.332-0.849c0-0.277-0.1-0.513-0.299-0.703c-0.2-0.191-0.461-0.287-0.781-0.287
				c-0.34,0-0.61,0.104-0.814,0.311c-0.203,0.208-0.307,0.494-0.309,0.861l-0.719-0.094c0.049-0.539,0.235-0.949,0.558-1.232
				c0.323-0.282,0.756-0.424,1.3-0.424c0.549,0,0.983,0.152,1.303,0.457c0.32,0.305,0.48,0.683,0.48,1.133
				c0,0.229-0.047,0.455-0.14,0.677c-0.094,0.222-0.248,0.454-0.465,0.699c-0.216,0.245-0.576,0.581-1.081,1.009
				c-0.423,0.355-0.694,0.596-0.814,0.723c-0.119,0.126-0.219,0.253-0.297,0.381H125.942z"/>
			<path i:knockout="Off" d="M128.946,36.278v-1.375h-2.484v-0.641l2.625-3.719h0.563v3.719h0.781v0.641h-0.781v1.375H128.946z
				 M128.946,34.262v-2.566l-1.793,2.566H128.946z"/>
		</g>
		<path i:knockout="Off" fill="none" stroke="#000000" stroke-width="0.7" d="M122.622,37.997h7.254"/>
		<path i:knockout="Off" fill="none" stroke="#000000" stroke-width="0.7" d="M29.289,50.27c-2.967,0-5.371-2.404-5.371-5.371
			c0-2.965,2.404-5.369,5.371-5.369s5.371,2.404,5.371,5.369C34.66,47.866,32.255,50.27,29.289,50.27z"/>
		<g i:knockout="Off">
			<path i:knockout="Off" d="M28.892,46.428V47.1h-3.797c-0.005-0.169,0.022-0.332,0.083-0.488c0.097-0.258,0.252-0.511,0.467-0.76
				c0.214-0.248,0.521-0.537,0.92-0.864c0.62-0.517,1.04-0.923,1.261-1.221s0.332-0.58,0.332-0.849c0-0.277-0.1-0.513-0.299-0.703
				c-0.2-0.191-0.46-0.287-0.781-0.287c-0.339,0-0.61,0.104-0.814,0.311c-0.204,0.208-0.307,0.494-0.309,0.861l-0.719-0.094
				c0.049-0.539,0.235-0.949,0.558-1.232c0.323-0.282,0.756-0.424,1.3-0.424c0.549,0,0.983,0.152,1.303,0.457s0.48,0.683,0.48,1.133
				c0,0.229-0.047,0.455-0.14,0.677c-0.094,0.222-0.248,0.454-0.465,0.699c-0.216,0.245-0.576,0.581-1.081,1.009
				c-0.423,0.355-0.695,0.596-0.815,0.723c-0.12,0.126-0.219,0.253-0.297,0.381H28.892z"/>
			<path i:knockout="Off" d="M30.739,43.997c-0.292-0.106-0.507-0.259-0.648-0.457s-0.211-0.436-0.211-0.712
				c0-0.417,0.149-0.767,0.447-1.052c0.299-0.283,0.696-0.426,1.191-0.426c0.498,0,0.899,0.146,1.203,0.436
				c0.304,0.291,0.456,0.645,0.456,1.062c0,0.267-0.069,0.497-0.208,0.694c-0.139,0.196-0.349,0.349-0.631,0.455
				c0.35,0.114,0.617,0.299,0.799,0.554s0.274,0.559,0.274,0.912c0,0.489-0.173,0.899-0.519,1.232s-0.8,0.499-1.364,0.499
				s-1.019-0.167-1.364-0.501s-0.519-0.751-0.519-1.25c0-0.371,0.095-0.683,0.284-0.934S30.389,44.087,30.739,43.997z
				 M30.365,45.448c0,0.2,0.046,0.394,0.139,0.58c0.092,0.188,0.233,0.332,0.423,0.434c0.189,0.104,0.393,0.154,0.608,0.154
				c0.341,0,0.619-0.107,0.834-0.323c0.216-0.215,0.324-0.489,0.324-0.821c0-0.338-0.111-0.616-0.333-0.837
				s-0.505-0.331-0.848-0.331c-0.335,0-0.61,0.109-0.825,0.327S30.365,45.121,30.365,45.448z M30.599,42.803
				c0,0.271,0.085,0.492,0.257,0.664c0.171,0.172,0.398,0.258,0.681,0.258c0.275,0,0.497-0.085,0.667-0.256
				c0.17-0.17,0.255-0.379,0.255-0.627c0-0.258-0.088-0.475-0.263-0.65s-0.397-0.264-0.667-0.264c-0.272,0-0.495,0.086-0.669,0.258
				S30.599,42.564,30.599,42.803z"/>
		</g>
		<path i:knockout="Off" fill="none" stroke="#000000" stroke-width="0.7" d="M25.572,48.819h7.254"/>
		<path i:knockout="Off" fill="none" stroke="#000000" stroke-width="0.7" d="M40.072,50.27c-2.967,0-5.371-2.404-5.371-5.371
			c0-2.965,2.404-5.369,5.371-5.369s5.371,2.404,5.371,5.369C45.443,47.866,43.039,50.27,40.072,50.27z"/>
		<g i:knockout="Off">
			<path i:knockout="Off" d="M39.675,46.428V47.1h-3.797c-0.005-0.169,0.022-0.332,0.083-0.488c0.097-0.258,0.252-0.511,0.467-0.76
				c0.214-0.248,0.521-0.537,0.92-0.864c0.62-0.517,1.04-0.923,1.261-1.221s0.332-0.58,0.332-0.849c0-0.277-0.1-0.513-0.299-0.703
				c-0.2-0.191-0.46-0.287-0.781-0.287c-0.339,0-0.61,0.104-0.814,0.311c-0.204,0.208-0.307,0.494-0.309,0.861l-0.719-0.094
				c0.049-0.539,0.235-0.949,0.558-1.232c0.323-0.282,0.756-0.424,1.3-0.424c0.549,0,0.983,0.152,1.303,0.457s0.48,0.683,0.48,1.133
				c0,0.229-0.047,0.455-0.14,0.677c-0.094,0.222-0.248,0.454-0.465,0.699c-0.216,0.245-0.576,0.581-1.081,1.009
				c-0.423,0.355-0.695,0.596-0.815,0.723c-0.12,0.126-0.219,0.253-0.297,0.381H39.675z"/>
			<path i:knockout="Off" d="M40.523,45.772l0.672-0.063c0.057,0.318,0.167,0.549,0.328,0.691c0.161,0.144,0.368,0.215,0.621,0.215
				c0.216,0,0.407-0.049,0.572-0.147c0.165-0.099,0.299-0.229,0.4-0.395s0.188-0.387,0.258-0.667
				c0.07-0.279,0.105-0.565,0.105-0.857c0-0.031-0.001-0.078-0.004-0.141c-0.14,0.225-0.331,0.406-0.573,0.545
				c-0.242,0.14-0.505,0.209-0.787,0.209c-0.472,0-0.871-0.172-1.197-0.516c-0.326-0.345-0.489-0.798-0.489-1.361
				c0-0.581,0.171-1.049,0.514-1.404c0.342-0.354,0.771-0.531,1.287-0.531c0.372,0,0.713,0.101,1.021,0.301s0.543,0.486,0.703,0.856
				c0.16,0.371,0.24,0.907,0.24,1.61c0,0.731-0.08,1.313-0.239,1.747s-0.396,0.763-0.711,0.989c-0.315,0.227-0.684,0.34-1.107,0.34
				c-0.449,0-0.816-0.124-1.101-0.373C40.751,46.573,40.581,46.223,40.523,45.772z M43.414,43.247c0-0.404-0.106-0.725-0.319-0.963
				c-0.212-0.236-0.473-0.355-0.78-0.355c-0.318,0-0.592,0.128-0.822,0.384c-0.229,0.255-0.344,0.587-0.344,0.993
				c0,0.365,0.109,0.662,0.327,0.891c0.218,0.228,0.491,0.342,0.82,0.342c0.326,0,0.594-0.114,0.804-0.342
				C43.309,43.967,43.414,43.651,43.414,43.247z"/>
		</g>
		<path i:knockout="Off" fill="none" stroke="#000000" stroke-width="0.7" d="M36.355,48.819h7.254"/>
		<path i:knockout="Off" fill="none" stroke="#000000" stroke-width="0.7" d="M50.855,50.27c-2.967,0-5.371-2.404-5.371-5.371
			c0-2.965,2.404-5.369,5.371-5.369s5.371,2.404,5.371,5.369C56.226,47.866,53.822,50.27,50.855,50.27z"/>
		<g i:knockout="Off">
			<path i:knockout="Off" d="M46.779,45.6l0.719-0.094c0.08,0.393,0.215,0.676,0.405,0.85c0.19,0.173,0.425,0.26,0.707,0.26
				c0.333,0,0.611-0.115,0.835-0.344c0.223-0.23,0.335-0.515,0.335-0.854c0-0.323-0.104-0.59-0.313-0.801
				c-0.209-0.209-0.476-0.314-0.798-0.314c-0.132,0-0.296,0.026-0.492,0.078l0.078-0.625c0.046,0.006,0.083,0.008,0.112,0.008
				c0.294,0,0.56-0.077,0.795-0.232c0.235-0.154,0.354-0.394,0.354-0.717c0-0.256-0.086-0.467-0.259-0.635s-0.396-0.252-0.669-0.252
				c-0.271,0-0.497,0.086-0.677,0.258c-0.181,0.172-0.296,0.43-0.348,0.773l-0.719-0.125c0.086-0.471,0.28-0.836,0.584-1.096
				c0.304-0.259,0.682-0.389,1.134-0.389c0.312,0,0.599,0.066,0.861,0.2c0.262,0.134,0.463,0.315,0.602,0.546
				s0.208,0.476,0.208,0.735c0,0.246-0.066,0.47-0.199,0.673c-0.133,0.201-0.33,0.362-0.59,0.481
				c0.338,0.078,0.604,0.241,0.797,0.487c0.192,0.246,0.289,0.555,0.289,0.925c0,0.501-0.183,0.926-0.547,1.273
				c-0.365,0.349-0.826,0.522-1.383,0.522c-0.503,0-0.92-0.147-1.252-0.443S46.826,46.071,46.779,45.6z"/>
			<path i:knockout="Off" d="M51.212,44.274c0-0.677,0.07-1.223,0.211-1.638c0.14-0.415,0.349-0.733,0.626-0.954
				c0.277-0.222,0.626-0.332,1.046-0.332c0.31,0,0.583,0.063,0.819,0.186s0.429,0.302,0.579,0.535
				c0.149,0.232,0.268,0.516,0.354,0.851c0.086,0.335,0.13,0.785,0.13,1.353c0,0.672-0.069,1.215-0.209,1.63
				c-0.139,0.415-0.347,0.733-0.624,0.956c-0.277,0.223-0.627,0.334-1.05,0.334c-0.557,0-0.994-0.195-1.312-0.586
				C51.403,46.127,51.212,45.349,51.212,44.274z M51.931,44.272c0,0.945,0.112,1.572,0.336,1.881c0.224,0.309,0.5,0.463,0.828,0.463
				c0.328,0,0.604-0.154,0.828-0.465c0.224-0.31,0.336-0.936,0.336-1.879c0-0.942-0.111-1.568-0.334-1.879
				c-0.223-0.31-0.502-0.465-0.838-0.465c-0.329,0-0.592,0.137-0.791,0.41C52.053,42.688,51.931,43.333,51.931,44.272z"/>
		</g>
		<path i:knockout="Off" fill="none" stroke="#000000" stroke-width="0.7" d="M47.138,48.819h7.254"/>
		<path i:knockout="Off" fill="none" stroke="#000000" stroke-width="0.7" d="M61.638,50.27c-2.967,0-5.371-2.404-5.371-5.371
			c0-2.965,2.404-5.369,5.371-5.369s5.371,2.404,5.371,5.369C67.009,47.866,64.605,50.27,61.638,50.27z"/>
		<g i:knockout="Off">
			<path i:knockout="Off" d="M57.562,45.6l0.719-0.094c0.08,0.393,0.215,0.676,0.405,0.85c0.19,0.173,0.425,0.26,0.707,0.26
				c0.333,0,0.611-0.115,0.835-0.344c0.223-0.23,0.335-0.515,0.335-0.854c0-0.323-0.104-0.59-0.313-0.801
				c-0.209-0.209-0.476-0.314-0.798-0.314c-0.132,0-0.296,0.026-0.492,0.078l0.078-0.625c0.046,0.006,0.083,0.008,0.112,0.008
				c0.294,0,0.56-0.077,0.795-0.232c0.235-0.154,0.354-0.394,0.354-0.717c0-0.256-0.086-0.467-0.259-0.635s-0.396-0.252-0.669-0.252
				c-0.271,0-0.497,0.086-0.677,0.258c-0.181,0.172-0.296,0.43-0.348,0.773l-0.719-0.125c0.086-0.471,0.28-0.836,0.584-1.096
				c0.304-0.259,0.682-0.389,1.134-0.389c0.312,0,0.599,0.066,0.861,0.2c0.262,0.134,0.463,0.315,0.602,0.546
				s0.208,0.476,0.208,0.735c0,0.246-0.066,0.47-0.199,0.673c-0.133,0.201-0.33,0.362-0.59,0.481
				c0.338,0.078,0.604,0.241,0.797,0.487c0.192,0.246,0.289,0.555,0.289,0.925c0,0.501-0.183,0.926-0.547,1.273
				c-0.365,0.349-0.826,0.522-1.383,0.522c-0.503,0-0.92-0.147-1.252-0.443S57.609,46.071,57.562,45.6z"/>
			<path i:knockout="Off" d="M64.652,47.1h-0.703v-4.48c-0.169,0.162-0.392,0.323-0.666,0.484c-0.275,0.162-0.521,0.283-0.74,0.363
				v-0.68c0.393-0.185,0.737-0.408,1.031-0.672c0.294-0.263,0.502-0.518,0.625-0.766h0.453V47.1z"/>
		</g>
		<path i:knockout="Off" fill="none" stroke="#000000" stroke-width="0.7" d="M57.921,48.819h7.254"/>
		<path i:knockout="Off" fill="none" stroke="#000000" stroke-width="0.7" d="M72.422,50.27c-2.967,0-5.371-2.404-5.371-5.371
			c0-2.965,2.404-5.369,5.371-5.369s5.371,2.404,5.371,5.369C77.793,47.866,75.389,50.27,72.422,50.27z"/>
		<g i:knockout="Off">
			<path i:knockout="Off" d="M68.346,45.6l0.719-0.094c0.08,0.393,0.215,0.676,0.405,0.85c0.189,0.173,0.425,0.26,0.707,0.26
				c0.333,0,0.611-0.115,0.834-0.344c0.223-0.23,0.335-0.515,0.335-0.854c0-0.323-0.105-0.59-0.314-0.801
				c-0.209-0.209-0.475-0.314-0.798-0.314c-0.132,0-0.295,0.026-0.492,0.078l0.078-0.625c0.046,0.006,0.083,0.008,0.112,0.008
				c0.294,0,0.559-0.077,0.795-0.232c0.236-0.154,0.354-0.394,0.354-0.717c0-0.256-0.086-0.467-0.259-0.635
				s-0.396-0.252-0.669-0.252c-0.271,0-0.496,0.086-0.677,0.258s-0.297,0.43-0.348,0.773l-0.719-0.125
				c0.085-0.471,0.281-0.836,0.584-1.096c0.304-0.259,0.682-0.389,1.134-0.389c0.312,0,0.599,0.066,0.861,0.2
				c0.263,0.134,0.463,0.315,0.603,0.546c0.139,0.23,0.208,0.476,0.208,0.735c0,0.246-0.066,0.47-0.199,0.673
				c-0.133,0.201-0.33,0.362-0.59,0.481c0.338,0.078,0.604,0.241,0.797,0.487s0.289,0.555,0.289,0.925
				c0,0.501-0.182,0.926-0.547,1.273c-0.365,0.349-0.826,0.522-1.383,0.522c-0.502,0-0.92-0.147-1.252-0.443
				S68.393,46.071,68.346,45.6z"/>
			<path i:knockout="Off" d="M76.475,46.428V47.1h-3.797c-0.005-0.169,0.022-0.332,0.083-0.488c0.098-0.258,0.253-0.511,0.467-0.76
				c0.214-0.248,0.521-0.537,0.92-0.864c0.619-0.517,1.04-0.923,1.261-1.221c0.221-0.298,0.332-0.58,0.332-0.849
				c0-0.277-0.1-0.513-0.299-0.703c-0.2-0.191-0.46-0.287-0.781-0.287c-0.339,0-0.611,0.104-0.814,0.311
				c-0.204,0.208-0.307,0.494-0.309,0.861l-0.719-0.094c0.049-0.539,0.235-0.949,0.558-1.232c0.322-0.282,0.755-0.424,1.299-0.424
				c0.549,0,0.983,0.152,1.303,0.457c0.32,0.305,0.48,0.683,0.48,1.133c0,0.229-0.046,0.455-0.14,0.677
				c-0.093,0.222-0.248,0.454-0.464,0.699c-0.217,0.245-0.577,0.581-1.081,1.009c-0.423,0.355-0.695,0.596-0.814,0.723
				c-0.12,0.126-0.219,0.253-0.297,0.381H76.475z"/>
		</g>
		<path i:knockout="Off" fill="none" stroke="#000000" stroke-width="0.7" d="M68.705,48.819h7.254"/>
		<path i:knockout="Off" fill="none" stroke="#000000" stroke-width="0.7" d="M83.206,50.27c-2.967,0-5.372-2.404-5.372-5.371
			c0-2.965,2.405-5.369,5.372-5.369s5.371,2.404,5.371,5.369C88.577,47.866,86.172,50.27,83.206,50.27z"/>
		<g i:knockout="Off">
			<path i:knockout="Off" d="M79.129,45.6l0.719-0.094c0.08,0.393,0.215,0.676,0.405,0.85c0.19,0.173,0.425,0.26,0.707,0.26
				c0.333,0,0.611-0.115,0.835-0.344c0.223-0.23,0.335-0.515,0.335-0.854c0-0.323-0.104-0.59-0.313-0.801
				c-0.209-0.209-0.476-0.314-0.798-0.314c-0.132,0-0.296,0.026-0.492,0.078l0.078-0.625c0.046,0.006,0.083,0.008,0.112,0.008
				c0.294,0,0.56-0.077,0.795-0.232c0.235-0.154,0.354-0.394,0.354-0.717c0-0.256-0.086-0.467-0.259-0.635s-0.396-0.252-0.669-0.252
				c-0.271,0-0.497,0.086-0.677,0.258c-0.181,0.172-0.296,0.43-0.348,0.773l-0.719-0.125c0.086-0.471,0.28-0.836,0.584-1.096
				c0.304-0.259,0.682-0.389,1.134-0.389c0.312,0,0.599,0.066,0.861,0.2c0.262,0.134,0.463,0.315,0.602,0.546
				s0.208,0.476,0.208,0.735c0,0.246-0.066,0.47-0.199,0.673c-0.133,0.201-0.33,0.362-0.59,0.481
				c0.338,0.078,0.604,0.241,0.797,0.487c0.192,0.246,0.289,0.555,0.289,0.925c0,0.501-0.183,0.926-0.547,1.273
				c-0.365,0.349-0.826,0.522-1.383,0.522c-0.503,0-0.92-0.147-1.252-0.443S79.176,46.071,79.129,45.6z"/>
			<path i:knockout="Off" d="M83.579,45.6l0.719-0.094c0.08,0.393,0.215,0.676,0.404,0.85c0.19,0.173,0.426,0.26,0.707,0.26
				c0.333,0,0.611-0.115,0.835-0.344c0.224-0.23,0.335-0.515,0.335-0.854c0-0.323-0.104-0.59-0.313-0.801
				c-0.21-0.209-0.476-0.314-0.798-0.314c-0.132,0-0.296,0.026-0.492,0.078l0.078-0.625c0.046,0.006,0.083,0.008,0.111,0.008
				c0.295,0,0.56-0.077,0.795-0.232c0.235-0.154,0.354-0.394,0.354-0.717c0-0.256-0.086-0.467-0.26-0.635
				c-0.172-0.168-0.396-0.252-0.668-0.252c-0.271,0-0.497,0.086-0.678,0.258c-0.18,0.172-0.296,0.43-0.348,0.773l-0.719-0.125
				c0.086-0.471,0.28-0.836,0.584-1.096c0.304-0.259,0.682-0.389,1.134-0.389c0.312,0,0.599,0.066,0.861,0.2
				c0.262,0.134,0.463,0.315,0.602,0.546c0.14,0.23,0.209,0.476,0.209,0.735c0,0.246-0.066,0.47-0.199,0.673
				c-0.133,0.201-0.33,0.362-0.59,0.481c0.338,0.078,0.604,0.241,0.797,0.487c0.192,0.246,0.289,0.555,0.289,0.925
				c0,0.501-0.183,0.926-0.547,1.273c-0.365,0.349-0.826,0.522-1.383,0.522c-0.503,0-0.92-0.147-1.252-0.443
				S83.625,46.071,83.579,45.6z"/>
		</g>
		<path i:knockout="Off" fill="none" stroke="#000000" stroke-width="0.7" d="M79.489,48.819h7.254"/>
		<path i:knockout="Off" fill="none" stroke="#000000" stroke-width="0.7" d="M93.989,50.27c-2.967,0-5.371-2.404-5.371-5.371
			c0-2.965,2.404-5.369,5.371-5.369s5.371,2.404,5.371,5.369C99.36,47.866,96.956,50.27,93.989,50.27z"/>
		<g i:knockout="Off">
			<path i:knockout="Off" d="M89.913,45.6l0.719-0.094c0.08,0.393,0.215,0.676,0.404,0.85c0.19,0.173,0.426,0.26,0.707,0.26
				c0.333,0,0.611-0.115,0.835-0.344c0.224-0.23,0.335-0.515,0.335-0.854c0-0.323-0.104-0.59-0.313-0.801
				c-0.21-0.209-0.476-0.314-0.798-0.314c-0.132,0-0.296,0.026-0.492,0.078l0.078-0.625c0.046,0.006,0.083,0.008,0.111,0.008
				c0.295,0,0.56-0.077,0.795-0.232c0.235-0.154,0.354-0.394,0.354-0.717c0-0.256-0.086-0.467-0.26-0.635
				c-0.172-0.168-0.396-0.252-0.668-0.252c-0.271,0-0.497,0.086-0.678,0.258c-0.18,0.172-0.296,0.43-0.348,0.773l-0.719-0.125
				c0.086-0.471,0.28-0.836,0.584-1.096c0.305-0.259,0.683-0.389,1.135-0.389c0.312,0,0.599,0.066,0.861,0.2
				c0.262,0.134,0.463,0.315,0.602,0.546c0.14,0.23,0.209,0.476,0.209,0.735c0,0.246-0.066,0.47-0.199,0.673
				c-0.133,0.201-0.33,0.362-0.59,0.481c0.338,0.078,0.604,0.241,0.797,0.487c0.192,0.246,0.289,0.555,0.289,0.925
				c0,0.501-0.183,0.926-0.547,1.273c-0.365,0.349-0.826,0.522-1.383,0.522c-0.503,0-0.92-0.147-1.252-0.443
				S89.959,46.071,89.913,45.6z"/>
			<path i:knockout="Off" d="M96.596,47.1v-1.375h-2.484v-0.641l2.625-3.719h0.563v3.719h0.781v0.641h-0.781V47.1H96.596z
				 M96.596,45.084v-2.566l-1.793,2.566H96.596z"/>
		</g>
		<path i:knockout="Off" fill="none" stroke="#000000" stroke-width="0.7" d="M90.272,48.819h7.254"/>
		<path i:knockout="Off" fill="none" stroke="#000000" stroke-width="0.7" d="M104.772,50.27c-2.967,0-5.371-2.404-5.371-5.371
			c0-2.965,2.404-5.369,5.371-5.369s5.371,2.404,5.371,5.369C110.143,47.866,107.739,50.27,104.772,50.27z"/>
		<g i:knockout="Off">
			<path i:knockout="Off" d="M100.696,45.6l0.719-0.094c0.08,0.393,0.215,0.676,0.404,0.85c0.19,0.173,0.426,0.26,0.707,0.26
				c0.333,0,0.611-0.115,0.835-0.344c0.224-0.23,0.335-0.515,0.335-0.854c0-0.323-0.104-0.59-0.313-0.801
				c-0.21-0.209-0.476-0.314-0.798-0.314c-0.132,0-0.296,0.026-0.492,0.078l0.078-0.625c0.046,0.006,0.083,0.008,0.111,0.008
				c0.295,0,0.56-0.077,0.795-0.232c0.235-0.154,0.354-0.394,0.354-0.717c0-0.256-0.086-0.467-0.26-0.635
				c-0.172-0.168-0.396-0.252-0.668-0.252c-0.271,0-0.497,0.086-0.678,0.258c-0.18,0.172-0.296,0.43-0.348,0.773l-0.719-0.125
				c0.086-0.471,0.28-0.836,0.584-1.096c0.305-0.259,0.683-0.389,1.135-0.389c0.312,0,0.599,0.066,0.861,0.2
				c0.262,0.134,0.463,0.315,0.602,0.546c0.14,0.23,0.209,0.476,0.209,0.735c0,0.246-0.066,0.47-0.199,0.673
				c-0.133,0.201-0.33,0.362-0.59,0.481c0.338,0.078,0.604,0.241,0.797,0.487c0.192,0.246,0.289,0.555,0.289,0.925
				c0,0.501-0.183,0.926-0.547,1.273c-0.365,0.349-0.826,0.522-1.383,0.522c-0.503,0-0.92-0.147-1.252-0.443
				S100.743,46.071,100.696,45.6z"/>
			<path i:knockout="Off" d="M105.129,45.6l0.719-0.063c0.055,0.358,0.182,0.627,0.379,0.808c0.198,0.181,0.441,0.271,0.73,0.271
				c0.348,0,0.639-0.127,0.871-0.382c0.231-0.254,0.348-0.592,0.348-1.013c0-0.399-0.111-0.715-0.332-0.946
				c-0.222-0.231-0.519-0.347-0.891-0.347c-0.232,0-0.438,0.051-0.617,0.152s-0.322,0.232-0.426,0.395l-0.656-0.094l0.563-2.938
				h2.844v0.672h-2.285l-0.313,1.549c0.344-0.24,0.704-0.361,1.082-0.361c0.5,0,0.922,0.173,1.266,0.52
				c0.344,0.346,0.516,0.791,0.516,1.334c0,0.518-0.151,0.965-0.453,1.343c-0.367,0.463-0.869,0.694-1.504,0.694
				c-0.521,0-0.946-0.146-1.275-0.437C105.364,46.466,105.176,46.081,105.129,45.6z"/>
		</g>
		<path i:knockout="Off" fill="none" stroke="#000000" stroke-width="0.7" d="M101.055,48.819h7.254"/>
		<path i:knockout="Off" fill="none" stroke="#000000" stroke-width="0.7" d="M115.555,50.27c-2.967,0-5.371-2.404-5.371-5.371
			c0-2.965,2.404-5.369,5.371-5.369s5.371,2.404,5.371,5.369C120.926,47.866,118.522,50.27,115.555,50.27z"/>
		<g i:knockout="Off">
			<path i:knockout="Off" d="M111.479,45.6l0.719-0.094c0.08,0.393,0.215,0.676,0.404,0.85c0.19,0.173,0.426,0.26,0.707,0.26
				c0.333,0,0.611-0.115,0.835-0.344c0.224-0.23,0.335-0.515,0.335-0.854c0-0.323-0.104-0.59-0.313-0.801
				c-0.21-0.209-0.476-0.314-0.798-0.314c-0.132,0-0.296,0.026-0.492,0.078l0.078-0.625c0.046,0.006,0.083,0.008,0.111,0.008
				c0.295,0,0.56-0.077,0.795-0.232c0.235-0.154,0.354-0.394,0.354-0.717c0-0.256-0.086-0.467-0.26-0.635
				c-0.172-0.168-0.396-0.252-0.668-0.252c-0.271,0-0.497,0.086-0.678,0.258c-0.18,0.172-0.296,0.43-0.348,0.773l-0.719-0.125
				c0.086-0.471,0.28-0.836,0.584-1.096c0.305-0.259,0.683-0.389,1.135-0.389c0.312,0,0.599,0.066,0.861,0.2
				c0.262,0.134,0.463,0.315,0.602,0.546c0.14,0.23,0.209,0.476,0.209,0.735c0,0.246-0.066,0.47-0.199,0.673
				c-0.133,0.201-0.33,0.362-0.59,0.481c0.338,0.078,0.604,0.241,0.797,0.487c0.192,0.246,0.289,0.555,0.289,0.925
				c0,0.501-0.183,0.926-0.547,1.273c-0.365,0.349-0.826,0.522-1.383,0.522c-0.503,0-0.92-0.147-1.252-0.443
				S111.526,46.071,111.479,45.6z"/>
			<path i:knockout="Off" d="M119.584,42.772l-0.703,0.063c-0.063-0.277-0.152-0.479-0.268-0.604
				c-0.191-0.201-0.428-0.302-0.708-0.302c-0.226,0-0.426,0.063-0.602,0.188c-0.218,0.16-0.391,0.396-0.52,0.705
				c-0.128,0.309-0.195,0.75-0.2,1.322c0.17-0.258,0.378-0.449,0.623-0.574c0.246-0.125,0.504-0.188,0.773-0.188
				c0.47,0,0.871,0.173,1.201,0.518c0.33,0.346,0.496,0.791,0.496,1.338c0,0.359-0.078,0.693-0.233,1.002s-0.369,0.545-0.642,0.709
				c-0.271,0.164-0.58,0.246-0.926,0.246c-0.588,0-1.068-0.215-1.439-0.646c-0.371-0.43-0.557-1.14-0.557-2.129
				c0-1.105,0.205-1.91,0.617-2.412c0.359-0.438,0.843-0.656,1.451-0.656c0.453,0,0.824,0.126,1.113,0.378
				C119.353,41.98,119.527,42.328,119.584,42.772z M116.694,45.243c0,0.242,0.052,0.474,0.155,0.694
				c0.104,0.222,0.247,0.39,0.43,0.505c0.183,0.116,0.38,0.174,0.589,0.174c0.304,0,0.562-0.119,0.773-0.359
				c0.212-0.238,0.318-0.563,0.318-0.975c0-0.395-0.104-0.707-0.314-0.934c-0.209-0.229-0.478-0.342-0.805-0.342
				c-0.319,0-0.59,0.113-0.813,0.342C116.805,44.575,116.694,44.874,116.694,45.243z"/>
		</g>
		<path i:knockout="Off" fill="none" stroke="#000000" stroke-width="0.7" d="M111.838,48.819h7.254"/>
		<path i:knockout="Off" fill="none" stroke="#000000" stroke-width="0.7" d="M126.338,50.27c-2.967,0-5.371-2.404-5.371-5.371
			c0-2.965,2.404-5.369,5.371-5.369s5.371,2.404,5.371,5.369C131.709,47.866,129.305,50.27,126.338,50.27z"/>
		<g i:knockout="Off">
			<path i:knockout="Off" d="M122.262,45.6l0.719-0.094c0.08,0.393,0.215,0.676,0.404,0.85c0.19,0.173,0.426,0.26,0.707,0.26
				c0.333,0,0.611-0.115,0.835-0.344c0.224-0.23,0.335-0.515,0.335-0.854c0-0.323-0.104-0.59-0.313-0.801
				c-0.21-0.209-0.476-0.314-0.798-0.314c-0.132,0-0.296,0.026-0.492,0.078l0.078-0.625c0.046,0.006,0.083,0.008,0.111,0.008
				c0.295,0,0.56-0.077,0.795-0.232c0.235-0.154,0.354-0.394,0.354-0.717c0-0.256-0.086-0.467-0.26-0.635
				c-0.172-0.168-0.396-0.252-0.668-0.252c-0.271,0-0.497,0.086-0.678,0.258c-0.18,0.172-0.296,0.43-0.348,0.773l-0.719-0.125
				c0.086-0.471,0.28-0.836,0.584-1.096c0.305-0.259,0.683-0.389,1.135-0.389c0.312,0,0.599,0.066,0.861,0.2
				c0.262,0.134,0.463,0.315,0.602,0.546c0.14,0.23,0.209,0.476,0.209,0.735c0,0.246-0.066,0.47-0.199,0.673
				c-0.133,0.201-0.33,0.362-0.59,0.481c0.338,0.078,0.604,0.241,0.797,0.487c0.192,0.246,0.289,0.555,0.289,0.925
				c0,0.501-0.183,0.926-0.547,1.273c-0.365,0.349-0.826,0.522-1.383,0.522c-0.503,0-0.92-0.147-1.252-0.443
				S122.309,46.071,122.262,45.6z"/>
			<path i:knockout="Off" d="M126.743,42.116v-0.672h3.703v0.544c-0.365,0.388-0.728,0.904-1.086,1.548
				c-0.359,0.645-0.636,1.307-0.832,1.988c-0.141,0.479-0.23,1.005-0.27,1.576h-0.719c0.008-0.451,0.096-0.996,0.266-1.635
				c0.168-0.64,0.41-1.256,0.727-1.85c0.315-0.593,0.651-1.093,1.008-1.5H126.743z"/>
		</g>
		<path i:knockout="Off" fill="none" stroke="#000000" stroke-width="0.7" d="M122.622,48.819h7.254"/>
		<path i:knockout="Off" fill="none" stroke="#000000" stroke-width="0.7" d="M9.238,21.04c-3.857,0-6.982-3.125-6.982-6.981
			c0-3.855,3.125-6.981,6.982-6.981s6.982,3.126,6.982,6.981C16.221,17.915,13.095,21.04,9.238,21.04z"/>
		<g i:knockout="Off">
			<path i:knockout="Off" d="M7.533,16.259H6.83v-4.48c-0.169,0.162-0.391,0.323-0.666,0.484s-0.521,0.283-0.74,0.363v-0.68
				c0.393-0.185,0.737-0.409,1.031-0.672s0.502-0.518,0.625-0.766h0.453V16.259z"/>
			<path i:knockout="Off" d="M9.342,14.759l0.719-0.094c0.08,0.393,0.215,0.676,0.405,0.849c0.189,0.174,0.425,0.26,0.707,0.26
				c0.333,0,0.611-0.115,0.834-0.344s0.335-0.514,0.335-0.854c0-0.323-0.105-0.59-0.314-0.8s-0.475-0.315-0.798-0.315
				c-0.132,0-0.295,0.026-0.492,0.078l0.078-0.625c0.046,0.005,0.083,0.008,0.112,0.008c0.294,0,0.559-0.078,0.795-0.232
				s0.354-0.394,0.354-0.716c0-0.256-0.086-0.468-0.259-0.636c-0.173-0.167-0.396-0.251-0.669-0.251
				c-0.271,0-0.496,0.086-0.677,0.258s-0.297,0.43-0.348,0.773l-0.719-0.125c0.085-0.471,0.281-0.836,0.584-1.096
				s0.682-0.389,1.134-0.389c0.312,0,0.599,0.067,0.861,0.2c0.263,0.133,0.463,0.316,0.603,0.546
				c0.139,0.23,0.208,0.476,0.208,0.734c0,0.246-0.066,0.471-0.199,0.673s-0.33,0.363-0.59,0.482
				c0.338,0.079,0.604,0.241,0.797,0.487c0.193,0.247,0.289,0.555,0.289,0.926c0,0.5-0.182,0.925-0.547,1.273
				c-0.365,0.348-0.826,0.522-1.383,0.522c-0.502,0-0.92-0.148-1.252-0.444S9.389,15.23,9.342,14.759z"/>
		</g>
		<path i:knockout="Off" fill="none" stroke="#000000" stroke-width="0.7" d="M4.406,19.154h9.43"/>
		<path i:knockout="Off" fill="none" stroke="#000000" stroke-width="0.7" d="M12.729,49.875c-5.785,0-10.474-4.689-10.474-10.473
			s4.688-10.47,10.474-10.47s10.474,4.687,10.474,10.47S18.515,49.875,12.729,49.875z"/>
		<path i:knockout="Off" fill="none" stroke="#000000" stroke-width="0.7" d="M5.481,47.045h14.146"/>
		<path i:knockout="Off" fill="none" stroke="#000000" stroke-width="0.7" d="M157.101,21.04c-3.857,0-6.982-3.125-6.982-6.981
			c0-3.855,3.125-6.981,6.982-6.981c3.856,0,6.982,3.126,6.982,6.981C164.083,17.915,160.958,21.04,157.101,21.04z"/>
		<g i:knockout="Off">
			<path i:knockout="Off" d="M155.396,16.259h-0.703v-4.48c-0.169,0.162-0.392,0.323-0.666,0.484s-0.521,0.283-0.74,0.363v-0.68
				c0.394-0.185,0.737-0.409,1.031-0.672s0.503-0.518,0.625-0.766h0.453V16.259z"/>
			<path i:knockout="Off" d="M159.439,16.259v-1.375h-2.484v-0.641l2.625-3.719h0.563v3.719h0.781v0.641h-0.781v1.375H159.439z
				 M159.439,14.243v-2.567l-1.792,2.567H159.439z"/>
		</g>
		<path i:knockout="Off" fill="none" stroke="#000000" stroke-width="0.7" d="M152.269,19.154h9.43"/>
		<path i:knockout="Off" fill="none" stroke="#000000" stroke-width="0.7" d="M153.61,49.875c-5.786,0-10.474-4.689-10.474-10.473
			s4.688-10.47,10.474-10.47s10.474,4.687,10.474,10.47S159.396,49.875,153.61,49.875z"/>
		<path i:knockout="Off" fill="none" stroke="#000000" stroke-width="0.7" d="M146.362,47.045h14.145"/>
		<path i:knockout="Off" fill="none" stroke="#000000" stroke-width="1.2" d="M165.791,46.287c0,3.131-2.537,5.67-5.67,5.67H6.27
			c-3.131,0-5.669-2.539-5.669-5.67V11.164c0-3.132,2.538-5.67,5.669-5.67h153.851c3.133,0,5.67,2.538,5.67,5.67V46.287z"/>
		<path i:knockout="Off" fill="none" stroke="#000000" stroke-width="0.7" d="M131.551,17.925c-2.967,0-5.371-2.404-5.371-5.371
			c0-2.966,2.404-5.37,5.371-5.37s5.371,2.404,5.371,5.37C136.922,15.521,134.518,17.925,131.551,17.925z"/>
		<g i:knockout="Off">
			<path i:knockout="Off" d="M129.965,14.754h-0.703v-4.48c-0.17,0.162-0.392,0.323-0.666,0.484
				c-0.275,0.162-0.521,0.283-0.74,0.363v-0.68c0.393-0.185,0.736-0.409,1.031-0.672c0.294-0.263,0.502-0.518,0.625-0.766h0.453
				V14.754z"/>
			<path i:knockout="Off" d="M134.415,14.754h-0.703v-4.48c-0.17,0.162-0.392,0.323-0.666,0.484
				c-0.275,0.162-0.521,0.283-0.74,0.363v-0.68c0.393-0.185,0.736-0.409,1.031-0.672c0.294-0.263,0.502-0.518,0.625-0.766h0.453
				V14.754z"/>
		</g>
		<path i:knockout="Off" fill="none" stroke="#000000" stroke-width="0.7" d="M127.834,16.474h7.254"/>
		<path i:knockout="Off" fill="none" stroke="#000000" stroke-width="0.7" d="M142.334,17.925c-2.967,0-5.371-2.404-5.371-5.371
			c0-2.966,2.404-5.37,5.371-5.37s5.371,2.404,5.371,5.37C147.706,15.521,145.301,17.925,142.334,17.925z"/>
		<g i:knockout="Off">
			<path i:knockout="Off" d="M140.899,14.754h-0.703v-4.48c-0.17,0.162-0.392,0.323-0.666,0.484
				c-0.275,0.162-0.521,0.283-0.74,0.363v-0.68c0.393-0.185,0.736-0.409,1.031-0.672c0.294-0.263,0.502-0.518,0.625-0.766h0.453
				V14.754z"/>
			<path i:knockout="Off" d="M146.387,14.083v0.672h-3.797c-0.006-0.169,0.022-0.332,0.083-0.488
				c0.097-0.258,0.253-0.511,0.467-0.76c0.214-0.249,0.521-0.537,0.92-0.864c0.62-0.516,1.04-0.923,1.261-1.221
				c0.222-0.298,0.332-0.58,0.332-0.849c0-0.278-0.1-0.513-0.299-0.704c-0.2-0.191-0.461-0.287-0.781-0.287
				c-0.34,0-0.61,0.104-0.814,0.311c-0.203,0.208-0.307,0.494-0.309,0.861l-0.719-0.094c0.049-0.539,0.235-0.95,0.558-1.232
				c0.323-0.282,0.756-0.424,1.3-0.424c0.549,0,0.983,0.152,1.303,0.457c0.32,0.305,0.48,0.683,0.48,1.133
				c0,0.229-0.047,0.455-0.14,0.676c-0.094,0.221-0.248,0.454-0.465,0.699c-0.216,0.245-0.576,0.581-1.081,1.009
				c-0.423,0.355-0.694,0.596-0.814,0.722c-0.119,0.126-0.219,0.253-0.297,0.381H146.387z"/>
		</g>
		<path i:knockout="Off" fill="none" stroke="#000000" stroke-width="0.7" d="M138.618,16.474h7.254"/>
		<path i:knockout="Off" fill="none" stroke="#000000" stroke-width="0.7" d="M137.102,39.448c-2.967,0-5.371-2.404-5.371-5.371
			c0-2.965,2.404-5.369,5.371-5.369s5.371,2.404,5.371,5.369C142.473,37.043,140.069,39.448,137.102,39.448z"/>
		<g i:knockout="Off">
			<path i:knockout="Off" d="M136.706,35.606v0.672h-3.797c-0.006-0.169,0.022-0.332,0.083-0.488
				c0.097-0.258,0.253-0.511,0.467-0.76c0.214-0.248,0.521-0.537,0.92-0.864c0.62-0.517,1.04-0.923,1.261-1.221
				c0.222-0.298,0.332-0.58,0.332-0.849c0-0.277-0.1-0.513-0.299-0.703c-0.2-0.191-0.461-0.287-0.781-0.287
				c-0.34,0-0.61,0.104-0.814,0.311c-0.203,0.208-0.307,0.494-0.309,0.861l-0.719-0.094c0.049-0.539,0.235-0.949,0.558-1.232
				c0.323-0.282,0.756-0.424,1.3-0.424c0.549,0,0.983,0.152,1.303,0.457c0.32,0.305,0.48,0.683,0.48,1.133
				c0,0.229-0.047,0.455-0.14,0.677c-0.094,0.222-0.248,0.454-0.465,0.699c-0.216,0.245-0.576,0.581-1.081,1.009
				c-0.423,0.355-0.694,0.596-0.814,0.723c-0.119,0.126-0.219,0.253-0.297,0.381H136.706z"/>
			<path i:knockout="Off" d="M137.459,34.778l0.719-0.063c0.055,0.358,0.182,0.627,0.379,0.808c0.198,0.181,0.441,0.271,0.73,0.271
				c0.348,0,0.639-0.127,0.871-0.382c0.231-0.254,0.348-0.592,0.348-1.013c0-0.399-0.111-0.715-0.332-0.946
				c-0.222-0.231-0.519-0.347-0.891-0.347c-0.232,0-0.438,0.051-0.617,0.152s-0.322,0.232-0.426,0.395l-0.656-0.094l0.563-2.938
				h2.844v0.672h-2.285l-0.313,1.549c0.344-0.24,0.704-0.361,1.082-0.361c0.5,0,0.922,0.173,1.266,0.52
				c0.344,0.346,0.516,0.791,0.516,1.334c0,0.518-0.151,0.965-0.453,1.343c-0.367,0.463-0.869,0.694-1.504,0.694
				c-0.521,0-0.946-0.146-1.275-0.437C137.694,35.644,137.506,35.258,137.459,34.778z"/>
		</g>
		<g i:knockout="Off">
			<path i:knockout="Off" d="M153.213,40.933v0.672h-3.797c-0.006-0.169,0.022-0.332,0.083-0.488
				c0.097-0.258,0.253-0.511,0.467-0.76s0.521-0.536,0.92-0.864c0.62-0.516,1.04-0.923,1.261-1.221
				c0.222-0.298,0.332-0.58,0.332-0.849c0-0.278-0.1-0.513-0.299-0.704c-0.2-0.19-0.461-0.286-0.781-0.286
				c-0.34,0-0.61,0.104-0.814,0.312c-0.203,0.207-0.307,0.494-0.309,0.86l-0.719-0.094c0.049-0.539,0.235-0.95,0.558-1.232
				c0.323-0.282,0.756-0.424,1.3-0.424c0.549,0,0.983,0.152,1.303,0.457c0.32,0.305,0.48,0.683,0.48,1.134
				c0,0.229-0.047,0.454-0.14,0.676c-0.094,0.221-0.248,0.454-0.465,0.699c-0.216,0.245-0.576,0.581-1.081,1.009
				c-0.423,0.354-0.694,0.596-0.814,0.722c-0.119,0.127-0.219,0.254-0.297,0.382H153.213z"/>
			<path i:knockout="Off" d="M154.014,36.621v-0.672h3.703v0.544c-0.365,0.388-0.728,0.904-1.086,1.548
				c-0.359,0.645-0.636,1.308-0.832,1.987c-0.141,0.48-0.23,1.006-0.27,1.577h-0.719c0.008-0.451,0.096-0.996,0.266-1.636
				c0.168-0.639,0.41-1.255,0.727-1.848c0.315-0.594,0.651-1.094,1.008-1.501H154.014z"/>
		</g>
		<path i:knockout="Off" fill="none" stroke="#000000" stroke-width="0.7" d="M133.385,37.997h7.254"/>
		<path i:knockout="Off" fill="none" stroke="#000000" stroke-width="0.7" d="M137.102,50.27c-2.967,0-5.371-2.404-5.371-5.371
			c0-2.965,2.404-5.369,5.371-5.369s5.371,2.404,5.371,5.369C142.473,47.866,140.069,50.27,137.102,50.27z"/>
		<g i:knockout="Off">
			<path i:knockout="Off" d="M133.026,45.6l0.719-0.094c0.08,0.393,0.215,0.676,0.404,0.85c0.19,0.173,0.426,0.26,0.707,0.26
				c0.333,0,0.611-0.115,0.835-0.344c0.224-0.23,0.335-0.515,0.335-0.854c0-0.323-0.104-0.59-0.313-0.801
				c-0.21-0.209-0.476-0.314-0.798-0.314c-0.132,0-0.296,0.026-0.492,0.078l0.078-0.625c0.046,0.006,0.083,0.008,0.111,0.008
				c0.295,0,0.56-0.077,0.795-0.232c0.235-0.154,0.354-0.394,0.354-0.717c0-0.256-0.086-0.467-0.26-0.635
				c-0.172-0.168-0.396-0.252-0.668-0.252c-0.271,0-0.497,0.086-0.678,0.258c-0.18,0.172-0.296,0.43-0.348,0.773l-0.719-0.125
				c0.086-0.471,0.28-0.836,0.584-1.096c0.305-0.259,0.683-0.389,1.135-0.389c0.312,0,0.599,0.066,0.861,0.2
				c0.262,0.134,0.463,0.315,0.602,0.546c0.14,0.23,0.209,0.476,0.209,0.735c0,0.246-0.066,0.47-0.199,0.673
				c-0.133,0.201-0.33,0.362-0.59,0.481c0.338,0.078,0.604,0.241,0.797,0.487c0.192,0.246,0.289,0.555,0.289,0.925
				c0,0.501-0.183,0.926-0.547,1.273c-0.365,0.349-0.826,0.522-1.383,0.522c-0.503,0-0.92-0.147-1.252-0.443
				S133.073,46.071,133.026,45.6z"/>
			<path i:knockout="Off" d="M138.553,43.997c-0.292-0.106-0.508-0.259-0.648-0.457s-0.211-0.436-0.211-0.712
				c0-0.417,0.149-0.767,0.447-1.052c0.299-0.283,0.695-0.426,1.191-0.426c0.498,0,0.898,0.146,1.203,0.436
				c0.303,0.291,0.455,0.645,0.455,1.062c0,0.267-0.069,0.497-0.208,0.694c-0.139,0.196-0.349,0.349-0.632,0.455
				c0.351,0.114,0.617,0.299,0.8,0.554s0.274,0.559,0.274,0.912c0,0.489-0.173,0.899-0.519,1.232s-0.8,0.499-1.364,0.499
				s-1.019-0.167-1.364-0.501s-0.519-0.751-0.519-1.25c0-0.371,0.095-0.683,0.284-0.934S138.203,44.087,138.553,43.997z
				 M138.178,45.448c0,0.2,0.046,0.394,0.139,0.58c0.092,0.188,0.232,0.332,0.423,0.434c0.189,0.104,0.393,0.154,0.608,0.154
				c0.341,0,0.619-0.107,0.834-0.323c0.217-0.215,0.324-0.489,0.324-0.821c0-0.338-0.111-0.616-0.334-0.837
				c-0.222-0.221-0.504-0.331-0.848-0.331c-0.336,0-0.61,0.109-0.824,0.327C138.286,44.848,138.178,45.121,138.178,45.448z
				 M138.413,42.803c0,0.271,0.086,0.492,0.257,0.664s0.397,0.258,0.681,0.258c0.275,0,0.497-0.085,0.667-0.256
				c0.17-0.17,0.255-0.379,0.255-0.627c0-0.258-0.088-0.475-0.263-0.65s-0.397-0.264-0.667-0.264c-0.272,0-0.495,0.086-0.669,0.258
				S138.413,42.564,138.413,42.803z"/>
		</g>
		<path i:knockout="Off" fill="none" stroke="#000000" stroke-width="0.7" d="M133.385,48.819h7.254"/>
		<path i:knockout="Off" fill="none" stroke="#000000" stroke-width="0.7" d="M136.81,22.651H28.968v-2.919H136.81V22.651z"/>
		<path i:knockout="Off" fill="none" stroke="#000000" stroke-width="0.7" d="M37.62,51.899v5.204h-2.919v-5.204"/>
		<path i:knockout="Off" fill="none" stroke="#000000" stroke-width="0.7" d="M39.934,5.554V0.35h2.919v5.204"/>
		<path i:knockout="Off" fill="none" stroke="#000000" stroke-width="0.7" d="M138.561,52.123v5.204h-2.918v-5.204"/>
	</g>
</svg>
