<?xml version="1.0" encoding="utf-8"?>
<!-- Generator: Adobe Illustrator 10.0, SVG Export Plug-In . SVG Version: 3.0.0 Build 77)  -->
<!DOCTYPE svg PUBLIC "-//W3C//DTD SVG 1.0//EN"    "http://www.w3.org/TR/2001/REC-SVG-20010904/DTD/svg10.dtd" [
	<!ENTITY ns_flows "http://ns.adobe.com/Flows/1.0/">
	<!ENTITY ns_extend "http://ns.adobe.com/Extensibility/1.0/">
	<!ENTITY ns_ai "http://ns.adobe.com/AdobeIllustrator/10.0/">
	<!ENTITY ns_graphs "http://ns.adobe.com/Graphs/1.0/">
	<!ENTITY ns_vars "http://ns.adobe.com/Variables/1.0/">
	<!ENTITY ns_imrep "http://ns.adobe.com/ImageReplacement/1.0/">
	<!ENTITY ns_sfw "http://ns.adobe.com/SaveForWeb/1.0/">
	<!ENTITY ns_custom "http://ns.adobe.com/GenericCustomNamespace/1.0/">
	<!ENTITY ns_adobe_xpath "http://ns.adobe.com/XPath/1.0/">
	<!ENTITY ns_svg "http://www.w3.org/2000/svg">
	<!ENTITY ns_xlink "http://www.w3.org/1999/xlink">
]>
<svg xmlns:x="&ns_extend;" xmlns:i="&ns_ai;" xmlns:graph="&ns_graphs;" i:viewOrigin="290.8931 467.5737" i:rulerOrigin="0 0" i:pageBounds="0 841.8896 595.2754 0" xmlns="&ns_svg;" xmlns:xlink="&ns_xlink;" xmlns:a="http://ns.adobe.com/AdobeSVGViewerExtensions/3.0/" width="23.823" height="16.649" viewBox="0 0 23.823 16.649" overflow="visible" enable-background="new 0 0 23.823 16.649" xml:space="preserve" id="svgObj" onload="parent.svgLoad('Top', document)">
	<metadata>
		<variableSets xmlns="&ns_vars;">
			<variableSet varSetName="binding1" locked="none">
				<variables></variables>
				<v:sampleDataSets xmlns="&ns_custom;" xmlns:v="&ns_vars;"></v:sampleDataSets>
			</variableSet>
		</variableSets>
		<sfw xmlns="&ns_sfw;">
			<slices></slices>
			<sliceSourceBounds y="426.027" x="262.5" width="80.37" height="63.362" bottomLeftOrigin="true"></sliceSourceBounds>
		</sfw>
	</metadata>
	<g id="レイヤー_1" i:layer="yes" i:dimmedPercent="100" i:rgbTrio="#4F008000FFFF">
		<g>
			<path i:knockout="Off" fill="none" stroke="#000000" stroke-width="1.2" d="M18.83,3.154V0.6h1.914v2.554"/>
			<path i:knockout="Off" fill="none" stroke="#000000" stroke-width="1.2" d="M3.399,3.158V0.604h1.914v2.554"/>
			<path i:knockout="Off" fill="none" stroke="#000000" stroke-width="1.2" d="M9.103,3.158V0.604h5.382v2.554"/>
			<path i:knockout="Off" fill="none" stroke="#000000" stroke-width="1.2" d="M23.223,16.049V3.158H0.6v12.892H23.223z"/>
			<path i:knockout="Off" fill="none" stroke="#000000" stroke-width="0.7" d="M0.872,14.516h10.764 M11.992,14.516h11.329"/>
			<g i:knockout="Off">
				<path i:knockout="Off" d="M19.426,11.342v0.672h-3.797c-0.005-0.169,0.022-0.332,0.083-0.488
					c0.097-0.258,0.252-0.511,0.467-0.76c0.214-0.249,0.521-0.537,0.92-0.864c0.62-0.516,1.04-0.923,1.262-1.221
					c0.221-0.298,0.331-0.58,0.331-0.849c0-0.278-0.1-0.513-0.3-0.704c-0.199-0.191-0.459-0.287-0.78-0.287
					c-0.339,0-0.61,0.104-0.813,0.311c-0.204,0.208-0.307,0.494-0.31,0.861L15.77,7.92c0.05-0.539,0.235-0.95,0.558-1.232
					c0.322-0.282,0.756-0.424,1.3-0.424c0.549,0,0.983,0.152,1.304,0.457c0.319,0.305,0.479,0.683,0.479,1.133
					c0,0.229-0.047,0.455-0.14,0.676c-0.094,0.221-0.248,0.454-0.465,0.699c-0.216,0.245-0.576,0.581-1.08,1.009
					c-0.424,0.355-0.695,0.596-0.815,0.722s-0.219,0.253-0.297,0.381H19.426z"/>
			</g>
			<g i:knockout="Off">
				<path i:knockout="Off" d="M7.047,12.014H6.344v-4.48C6.175,7.695,5.953,7.857,5.678,8.018C5.403,8.18,5.157,8.301,4.938,8.381
					v-0.68C5.331,7.517,5.675,7.293,5.969,7.03c0.294-0.263,0.502-0.518,0.625-0.766h0.453V12.014z"/>
			</g>
			<path i:knockout="Off" fill="none" stroke="#000000" stroke-width="0.7" d="M11.792,3.68v12.49"/>
		</g>
	</g>
</svg>
