<?xml version="1.0" encoding="utf-8"?>
<!-- Generator: Adobe Illustrator 10.0, SVG Export Plug-In . SVG Version: 3.0.0 Build 77)  -->
<!DOCTYPE svg PUBLIC "-//W3C//DTD SVG 1.0//EN"    "http://www.w3.org/TR/2001/REC-SVG-20010904/DTD/svg10.dtd" [
	<!ENTITY ns_flows "http://ns.adobe.com/Flows/1.0/">
	<!ENTITY ns_extend "http://ns.adobe.com/Extensibility/1.0/">
	<!ENTITY ns_ai "http://ns.adobe.com/AdobeIllustrator/10.0/">
	<!ENTITY ns_graphs "http://ns.adobe.com/Graphs/1.0/">
	<!ENTITY ns_vars "http://ns.adobe.com/Variables/1.0/">
	<!ENTITY ns_imrep "http://ns.adobe.com/ImageReplacement/1.0/">
	<!ENTITY ns_sfw "http://ns.adobe.com/SaveForWeb/1.0/">
	<!ENTITY ns_custom "http://ns.adobe.com/GenericCustomNamespace/1.0/">
	<!ENTITY ns_adobe_xpath "http://ns.adobe.com/XPath/1.0/">
	<!ENTITY ns_svg "http://www.w3.org/2000/svg">
	<!ENTITY ns_xlink "http://www.w3.org/1999/xlink">
]>
<svg xmlns:x="&ns_extend;" xmlns:i="&ns_ai;" xmlns:graph="&ns_graphs;" i:viewOrigin="284.918 468.9907" i:rulerOrigin="0 0" i:pageBounds="0 841.8896 595.2754 0" xmlns="&ns_svg;" xmlns:xlink="&ns_xlink;" xmlns:a="http://ns.adobe.com/AdobeSVGViewerExtensions/3.0/" width="31.769" height="18.572" viewBox="0 0 31.769 18.572" overflow="visible" enable-background="new 0 0 31.769 18.572" xml:space="preserve" id="svgObj" onload="parent.svgLoad('Top', document)">
	<metadata>
		<variableSets xmlns="&ns_vars;">
			<variableSet varSetName="binding1" locked="none">
				<variables></variables>
				<v:sampleDataSets xmlns="&ns_custom;" xmlns:v="&ns_vars;"></v:sampleDataSets>
			</variableSet>
		</variableSets>
		<sfw xmlns="&ns_sfw;">
			<slices></slices>
			<sliceSourceBounds y="426.027" x="262.5" width="80.37" height="63.362" bottomLeftOrigin="true"></sliceSourceBounds>
		</sfw>
	</metadata>
	<g id="レイヤー_1" i:layer="yes" i:dimmedPercent="100" i:rgbTrio="#4F008000FFFF">
		<path i:knockout="Off" fill="none" stroke="#000000" stroke-width="1.2" d="M3.225,8.23H0.6v4.667h2.834"/>
		<path i:knockout="Off" fill="none" stroke="#000000" stroke-width="1.2" d="M19.284,17.959l4.742,0.002
			c7.149-0.408,7.012-7.016,7.012-7.016c-0.206-7.012-7.012-7.016-7.012-7.016l-4.798-0.041L19.284,17.959z"/>
		<path i:knockout="Off" fill="none" stroke="#000000" stroke-width="1.2" d="M10.224,17.961c-7.014-0.615-6.943-7.016-6.943-7.016
			c0.344-6.736,6.943-7.172,6.943-7.172l5.99,0.023v14.162l-2.966-0.061v-0.043h-2.672v0.105H10.224z"/>
		<path i:knockout="Off" fill="none" stroke="#000000" stroke-width="1.2" d="M20.926,3.717V0.6h-6.237v3.117"/>
		<path i:knockout="Off" fill="none" stroke="#000000" stroke-width="0.7" d="M10.296,10.946 M10.296,10.946 M16.214,15.829
			L5.326,15.831 M28.976,15.836h-9.563"/>
		<g i:knockout="Off">
			<path i:knockout="Off" d="M11.029,13.467h-0.703v-4.48C10.156,9.148,9.935,9.31,9.66,9.471c-0.275,0.162-0.521,0.283-0.74,0.363
				v-0.68C9.313,8.97,9.656,8.746,9.951,8.483c0.294-0.263,0.502-0.518,0.625-0.766h0.453V13.467z"/>
		</g>
		<g i:knockout="Off">
			<path i:knockout="Off" d="M26.652,12.842v0.672h-3.797c-0.006-0.169,0.022-0.332,0.083-0.488c0.097-0.258,0.253-0.511,0.467-0.76
				c0.214-0.249,0.521-0.537,0.92-0.864c0.62-0.516,1.04-0.923,1.261-1.221c0.222-0.298,0.332-0.58,0.332-0.849
				c0-0.278-0.1-0.513-0.299-0.704c-0.2-0.191-0.461-0.287-0.781-0.287c-0.34,0-0.61,0.104-0.814,0.311
				c-0.203,0.208-0.307,0.494-0.309,0.861L22.996,9.42c0.049-0.539,0.235-0.95,0.558-1.232c0.323-0.282,0.756-0.424,1.3-0.424
				c0.549,0,0.983,0.152,1.303,0.457c0.32,0.305,0.48,0.683,0.48,1.133c0,0.229-0.047,0.455-0.14,0.676
				c-0.094,0.221-0.248,0.454-0.465,0.699c-0.216,0.245-0.576,0.581-1.081,1.009c-0.423,0.355-0.694,0.596-0.814,0.722
				c-0.119,0.126-0.219,0.253-0.297,0.381H26.652z"/>
		</g>
		<path i:knockout="Off" fill="none" stroke="#000000" stroke-width="1.2" d="M19.229,3.889l11.935,0.039l-0.125,13.908H18.816"/>
	</g>
</svg>
