<?xml version="1.0" encoding="utf-8"?>
<!-- Generator: Adobe Illustrator 10.0, SVG Export Plug-In . SVG Version: 3.0.0 Build 77)  -->
<!DOCTYPE svg PUBLIC "-//W3C//DTD SVG 1.0//EN"    "http://www.w3.org/TR/2001/REC-SVG-20010904/DTD/svg10.dtd" [
	<!ENTITY ns_flows "http://ns.adobe.com/Flows/1.0/">
	<!ENTITY ns_extend "http://ns.adobe.com/Extensibility/1.0/">
	<!ENTITY ns_ai "http://ns.adobe.com/AdobeIllustrator/10.0/">
	<!ENTITY ns_graphs "http://ns.adobe.com/Graphs/1.0/">
	<!ENTITY ns_vars "http://ns.adobe.com/Variables/1.0/">
	<!ENTITY ns_imrep "http://ns.adobe.com/ImageReplacement/1.0/">
	<!ENTITY ns_sfw "http://ns.adobe.com/SaveForWeb/1.0/">
	<!ENTITY ns_custom "http://ns.adobe.com/GenericCustomNamespace/1.0/">
	<!ENTITY ns_adobe_xpath "http://ns.adobe.com/XPath/1.0/">
	<!ENTITY ns_svg "http://www.w3.org/2000/svg">
	<!ENTITY ns_xlink "http://www.w3.org/1999/xlink">
]>
<svg xmlns:x="&ns_extend;" xmlns:i="&ns_ai;" xmlns:graph="&ns_graphs;" i:viewOrigin="278.5234 431.3213" i:rulerOrigin="-1 0.1104" i:pageBounds="1 841.8896 596 -0.1104" xmlns="&ns_svg;" xmlns:xlink="&ns_xlink;" xmlns:a="http://ns.adobe.com/AdobeSVGViewerExtensions/3.0/" width="40.898" height="23.482" viewBox="0 0 40.898 23.482" overflow="visible" enable-background="new 0 0 40.898 23.482" xml:space="preserve" id="svgObj" onload="parent.svgLoad('Top', document)">
	<metadata>
		<variableSets xmlns="&ns_vars;">
			<variableSet varSetName="binding1" locked="none">
				<variables></variables>
				<v:sampleDataSets xmlns="&ns_custom;" xmlns:v="&ns_vars;"></v:sampleDataSets>
			</variableSet>
		</variableSets>
		<sfw xmlns="&ns_sfw;">
			<slices></slices>
			<sliceSourceBounds y="407.839" x="278.523" width="40.898" height="23.482" bottomLeftOrigin="true"></sliceSourceBounds>
		</sfw>
	</metadata>
	<g id="レイヤー_1" i:layer="yes" i:dimmedPercent="50" i:rgbTrio="#4F008000FFFF">
		<g>
			<path i:knockout="Off" fill="none" stroke="#000000" stroke-width="1.2" d="M23.336,3.852V0.6h-7.504v3.252"/>
			<path i:knockout="Off" fill="none" stroke="#000000" stroke-width="1.2" d="M26.84,21.91c5.01,0,9.07-4.061,9.07-9.07
				c0-5.01-4.061-9.071-9.07-9.071H12.134c-5.009,0-9.071,4.061-9.071,9.071c0,5.01,4.062,9.07,9.071,9.07H26.84z"/>
			<path i:knockout="Off" fill="none" stroke="#000000" stroke-width="0.7" d="M12.337,19.643c3.757,0,6.803-3.046,6.803-6.803
				c0-3.757-3.046-6.803-6.803-6.803c-3.757,0-6.803,3.046-6.803,6.803C5.535,16.597,8.581,19.643,12.337,19.643z"/>
			<path i:knockout="Off" fill="none" stroke="#000000" stroke-width="0.7" d="M26.596,19.643c3.758,0,6.804-3.046,6.804-6.803
				c0-3.757-3.046-6.803-6.804-6.803c-3.756,0-6.803,3.046-6.803,6.803C19.793,16.597,22.84,19.643,26.596,19.643z"/>
			<path i:knockout="Off" fill="none" stroke="#000000" stroke-width="0.7" d="M17.096,17.622H7.756"/>
			<path i:knockout="Off" fill="none" stroke="#000000" stroke-width="0.7" d="M31.242,17.622h-9.34"/>
			<g i:knockout="Off">
				<path i:knockout="Off" d="M13.097,15.624h-0.703v-4.48c-0.169,0.162-0.391,0.323-0.666,0.484s-0.521,0.282-0.74,0.363v-0.68
					c0.393-0.185,0.737-0.409,1.031-0.672c0.294-0.263,0.502-0.518,0.625-0.766h0.453V15.624z"/>
			</g>
			<g i:knockout="Off">
				<path i:knockout="Off" d="M28.395,14.952v0.672h-3.797c-0.006-0.169,0.022-0.332,0.083-0.488
					c0.097-0.258,0.253-0.511,0.467-0.76s0.521-0.536,0.92-0.864c0.62-0.516,1.04-0.923,1.261-1.221
					c0.222-0.298,0.332-0.58,0.332-0.849c0-0.278-0.1-0.513-0.299-0.704c-0.2-0.191-0.461-0.287-0.781-0.287
					c-0.34,0-0.61,0.104-0.814,0.311c-0.203,0.208-0.307,0.494-0.309,0.861l-0.719-0.094c0.049-0.539,0.235-0.95,0.558-1.232
					c0.323-0.282,0.756-0.424,1.3-0.424c0.549,0,0.983,0.152,1.303,0.457c0.32,0.305,0.48,0.683,0.48,1.134
					c0,0.229-0.047,0.454-0.14,0.676c-0.094,0.221-0.248,0.454-0.465,0.699c-0.216,0.245-0.576,0.581-1.081,1.009
					c-0.423,0.354-0.694,0.596-0.814,0.722c-0.119,0.127-0.219,0.254-0.297,0.382H28.395z"/>
			</g>
			<path i:knockout="Off" fill="none" stroke="#000000" stroke-width="1.2" d="M36.047,14.344h4.252v-3.402h-4.252"/>
			<path i:knockout="Off" fill="none" stroke="#000000" stroke-width="1.2" d="M40.299,10.942h-4.252v3.402h4.252"/>
			<path i:knockout="Off" fill="none" stroke="#000000" stroke-width="1.2" d="M4.194,17.343l-3.352,2.616l2.093,2.682l3.352-2.617"/>
		</g>
	</g>
</svg>
