<?xml version="1.0" encoding="utf-8"?>
<!-- Generator: Adobe Illustrator 10.0, SVG Export Plug-In . SVG Version: 3.0.0 Build 77)  -->
<!DOCTYPE svg PUBLIC "-//W3C//DTD SVG 1.0//EN"    "http://www.w3.org/TR/2001/REC-SVG-20010904/DTD/svg10.dtd" [
	<!ENTITY ns_flows "http://ns.adobe.com/Flows/1.0/">
	<!ENTITY ns_extend "http://ns.adobe.com/Extensibility/1.0/">
	<!ENTITY ns_ai "http://ns.adobe.com/AdobeIllustrator/10.0/">
	<!ENTITY ns_graphs "http://ns.adobe.com/Graphs/1.0/">
	<!ENTITY ns_vars "http://ns.adobe.com/Variables/1.0/">
	<!ENTITY ns_imrep "http://ns.adobe.com/ImageReplacement/1.0/">
	<!ENTITY ns_sfw "http://ns.adobe.com/SaveForWeb/1.0/">
	<!ENTITY ns_custom "http://ns.adobe.com/GenericCustomNamespace/1.0/">
	<!ENTITY ns_adobe_xpath "http://ns.adobe.com/XPath/1.0/">
	<!ENTITY ns_svg "http://www.w3.org/2000/svg">
	<!ENTITY ns_xlink "http://www.w3.org/1999/xlink">
]>
<svg xmlns:x="&ns_extend;" xmlns:i="&ns_ai;" xmlns:graph="&ns_graphs;" i:viewOrigin="282.9004 427.6094" i:rulerOrigin="-1 0.1104" i:pageBounds="1 841.8896 596 -0.1104" xmlns="&ns_svg;" xmlns:xlink="&ns_xlink;" xmlns:a="http://ns.adobe.com/AdobeSVGViewerExtensions/3.0/" width="34.263" height="18.572" viewBox="0 0 34.263 18.572" overflow="visible" enable-background="new 0 0 34.263 18.572" xml:space="preserve" id="svgObj" onload="parent.svgLoad('Top', document)">
	<metadata>
		<variableSets xmlns="&ns_vars;">
			<variableSet varSetName="binding1" locked="none">
				<variables></variables>
				<v:sampleDataSets xmlns="&ns_custom;" xmlns:v="&ns_vars;"></v:sampleDataSets>
			</variableSet>
		</variableSets>
		<sfw xmlns="&ns_sfw;">
			<slices></slices>
			<sliceSourceBounds y="388.708" x="257.815" width="80.371" height="63.363" bottomLeftOrigin="true"></sliceSourceBounds>
		</sfw>
	</metadata>
	<g id="レイヤー_1" i:layer="yes" i:dimmedPercent="100" i:rgbTrio="#4F008000FFFF">
		<g>
			<path i:knockout="Off" fill="none" stroke="#000000" stroke-width="1.2" d="M29.413,6.306h4.25v3.229h-2.834"/>
			<path i:knockout="Off" fill="none" stroke="#000000" stroke-width="1.2" d="M4.663,15.628H0.6v-3.229h2.834"/>
			<path i:knockout="Off" fill="none" stroke="#000000" stroke-width="1.2" d="M19.346,17.96l4.742,0.002
				c7.15-0.408,7.013-7.016,7.013-7.016c-0.206-7.012-7.013-7.015-7.013-7.015L19.29,3.888L19.346,17.96z"/>
			<path i:knockout="Off" fill="none" stroke="#000000" stroke-width="1.2" d="M10.286,17.962c-7.013-0.615-6.944-7.016-6.944-7.016
				c0.344-6.737,6.944-7.172,6.944-7.172l5.989,0.022V17.96l-2.966-0.061v-0.043h-2.671v0.105H10.286z"/>
			<path i:knockout="Off" fill="none" stroke="#000000" stroke-width="1.2" d="M20.987,3.718V0.6h-6.236v3.118"/>
			<path i:knockout="Off" fill="none" stroke="#000000" stroke-width="0.7" d="M10.358,10.946"/>
			<path i:knockout="Off" fill="none" stroke="#000000" stroke-width="0.7" d="M10.358,10.946"/>
			<path i:knockout="Off" fill="none" stroke="#000000" stroke-width="0.7" d="M16.275,15.828L5.388,15.831"/>
			<path i:knockout="Off" fill="none" stroke="#000000" stroke-width="0.7" d="M29.038,15.837h-9.565"/>
			<g i:knockout="Off">
				<path i:knockout="Off" d="M11.092,13.468h-0.703v-4.48c-0.169,0.162-0.392,0.323-0.666,0.484
					c-0.275,0.162-0.521,0.283-0.74,0.363v-0.68c0.393-0.185,0.737-0.408,1.031-0.672c0.294-0.263,0.502-0.518,0.625-0.766h0.453
					V13.468z"/>
			</g>
			<g i:knockout="Off">
				<path i:knockout="Off" d="M26.714,12.841v0.672h-3.797c-0.005-0.169,0.022-0.332,0.083-0.488
					c0.097-0.258,0.252-0.511,0.467-0.76c0.214-0.248,0.521-0.537,0.92-0.864c0.62-0.517,1.04-0.923,1.262-1.221
					c0.221-0.298,0.331-0.58,0.331-0.849c0-0.277-0.1-0.513-0.3-0.703c-0.199-0.191-0.459-0.287-0.78-0.287
					c-0.339,0-0.61,0.104-0.813,0.311c-0.204,0.208-0.307,0.494-0.31,0.861l-0.719-0.094c0.05-0.539,0.235-0.949,0.558-1.232
					c0.322-0.282,0.756-0.424,1.3-0.424c0.549,0,0.983,0.152,1.304,0.457c0.319,0.305,0.479,0.683,0.479,1.133
					c0,0.229-0.047,0.455-0.14,0.677c-0.094,0.222-0.248,0.454-0.465,0.699c-0.216,0.245-0.576,0.581-1.08,1.009
					c-0.424,0.355-0.695,0.596-0.815,0.723c-0.12,0.126-0.219,0.253-0.297,0.381H26.714z"/>
			</g>
		</g>
	</g>
</svg>
