<?xml version="1.0" encoding="utf-8"?>
<!-- Generator: Adobe Illustrator 10.0, SVG Export Plug-In . SVG Version: 3.0.0 Build 77)  -->
<!DOCTYPE svg PUBLIC "-//W3C//DTD SVG 1.0//EN"    "http://www.w3.org/TR/2001/REC-SVG-20010904/DTD/svg10.dtd" [
	<!ENTITY ns_flows "http://ns.adobe.com/Flows/1.0/">
	<!ENTITY ns_extend "http://ns.adobe.com/Extensibility/1.0/">
	<!ENTITY ns_ai "http://ns.adobe.com/AdobeIllustrator/10.0/">
	<!ENTITY ns_graphs "http://ns.adobe.com/Graphs/1.0/">
	<!ENTITY ns_vars "http://ns.adobe.com/Variables/1.0/">
	<!ENTITY ns_imrep "http://ns.adobe.com/ImageReplacement/1.0/">
	<!ENTITY ns_sfw "http://ns.adobe.com/SaveForWeb/1.0/">
	<!ENTITY ns_custom "http://ns.adobe.com/GenericCustomNamespace/1.0/">
	<!ENTITY ns_adobe_xpath "http://ns.adobe.com/XPath/1.0/">
	<!ENTITY ns_svg "http://www.w3.org/2000/svg">
	<!ENTITY ns_xlink "http://www.w3.org/1999/xlink">
]>
<svg xmlns:x="&ns_extend;" xmlns:i="&ns_ai;" xmlns:graph="&ns_graphs;" i:viewOrigin="285.2964 475.6436" i:rulerOrigin="0 0" i:pageBounds="0 841.8896 595.2754 0" xmlns="&ns_svg;" xmlns:xlink="&ns_xlink;" xmlns:a="http://ns.adobe.com/AdobeSVGViewerExtensions/3.0/" width="33.07" height="32.998" viewBox="0 0 33.07 32.998" overflow="visible" enable-background="new 0 0 33.07 32.998" xml:space="preserve" id="svgObj" onload="parent.svgLoad('Top', document)">
	<metadata>
		<variableSets xmlns="&ns_vars;">
			<variableSet varSetName="binding1" locked="none">
				<variables></variables>
				<v:sampleDataSets xmlns="&ns_custom;" xmlns:v="&ns_vars;"></v:sampleDataSets>
			</variableSet>
		</variableSets>
		<sfw xmlns="&ns_sfw;">
			<slices></slices>
			<sliceSourceBounds y="426.027" x="262.5" width="80.37" height="63.362" bottomLeftOrigin="true"></sliceSourceBounds>
		</sfw>
	</metadata>
	<g id="illust" i:layer="yes" i:dimmedPercent="3" i:rgbTrio="#4F008000FFFF">
		<g>
			<g>
				<g>
					<g>
						<path i:knockout="Off" d="M27.362,12.203v0.672h-3.797c-0.005-0.169,0.022-0.332,0.083-0.488
							c0.097-0.258,0.253-0.511,0.467-0.76c0.214-0.249,0.521-0.537,0.92-0.864c0.62-0.516,1.04-0.923,1.261-1.221
							c0.222-0.298,0.332-0.58,0.332-0.849c0-0.278-0.1-0.513-0.299-0.704c-0.2-0.191-0.46-0.287-0.781-0.287
							c-0.34,0-0.61,0.104-0.814,0.311c-0.203,0.208-0.307,0.494-0.309,0.861l-0.719-0.094c0.05-0.539,0.235-0.95,0.558-1.232
							c0.322-0.282,0.756-0.424,1.3-0.424c0.549,0,0.983,0.152,1.303,0.457c0.32,0.305,0.48,0.683,0.48,1.133
							c0,0.229-0.047,0.455-0.14,0.676c-0.094,0.221-0.248,0.454-0.465,0.699c-0.216,0.245-0.576,0.581-1.081,1.009
							c-0.423,0.355-0.694,0.596-0.814,0.722s-0.219,0.253-0.297,0.381H27.362z"/>
						<path i:knockout="Off" fill="none" stroke="#000000" stroke-width="0.7" d="M31.25,15.224h-12.5"/>
						<path i:knockout="Off" fill="none" stroke="#000000" stroke-width="1.2" d="M25.386,17.66c5.844,0,7.087-1.871,7.087-5.785
							s-2.576-8.388-7.087-8.388c-5.156,0-7.086,4.808-7.086,8.722C18.3,16.122,19.563,17.66,25.386,17.66z"/>
					</g>
					<g>
						<path i:knockout="Off" d="M11.99,12.875h-0.703v-4.48c-0.169,0.162-0.392,0.323-0.666,0.484
							c-0.275,0.162-0.521,0.283-0.74,0.363v-0.68c0.393-0.185,0.737-0.409,1.031-0.672c0.294-0.263,0.502-0.518,0.625-0.766h0.453
							V12.875z"/>
						<path i:knockout="Off" fill="none" stroke="#000000" stroke-width="0.7" d="M16.917,15.224h-12.5"/>
						<path i:knockout="Off" fill="none" stroke="#000000" stroke-width="1.2" d="M11.053,17.66c5.844,0,7.087-1.871,7.087-5.785
							s-2.577-8.388-7.087-8.388c-5.156,0-7.087,4.808-7.087,8.722C3.966,16.122,5.23,17.66,11.053,17.66z"/>
					</g>
				</g>
			</g>
			<g>
				<g>
					<g>
						<path i:knockout="Off" d="M25.917,27.615V26.24h-2.484v-0.641l2.625-3.719h0.563v3.719h0.781v0.641H26.62v1.375H25.917z
							 M25.917,25.599v-2.567l-1.793,2.567H25.917z"/>
						<path i:knockout="Off" fill="none" stroke="#000000" stroke-width="0.7" d="M31.25,29.964h-12.5"/>
						<path i:knockout="Off" fill="none" stroke="#000000" stroke-width="1.2" d="M25.386,32.4c5.844,0,7.087-1.871,7.087-5.785
							c0-3.914-2.576-8.388-7.087-8.388c-5.156,0-7.086,4.807-7.086,8.721S19.563,32.4,25.386,32.4z"/>
					</g>
					<g>
						<path i:knockout="Off" d="M9.349,26.115l0.719-0.094c0.08,0.393,0.215,0.676,0.405,0.849c0.19,0.174,0.425,0.26,0.707,0.26
							c0.333,0,0.611-0.115,0.835-0.344c0.223-0.229,0.335-0.514,0.335-0.854c0-0.323-0.104-0.59-0.313-0.8
							c-0.209-0.21-0.476-0.315-0.798-0.315c-0.132,0-0.296,0.026-0.492,0.078l0.078-0.625c0.046,0.005,0.083,0.008,0.112,0.008
							c0.294,0,0.56-0.078,0.795-0.232s0.354-0.394,0.354-0.716c0-0.256-0.086-0.468-0.259-0.636
							c-0.173-0.167-0.396-0.251-0.669-0.251c-0.271,0-0.497,0.086-0.677,0.258c-0.181,0.172-0.296,0.43-0.348,0.773l-0.719-0.125
							c0.086-0.471,0.28-0.836,0.584-1.096s0.682-0.389,1.134-0.389c0.312,0,0.599,0.067,0.861,0.2
							c0.262,0.133,0.463,0.316,0.602,0.546s0.208,0.476,0.208,0.734c0,0.246-0.066,0.471-0.199,0.673s-0.33,0.363-0.59,0.482
							c0.338,0.079,0.604,0.241,0.797,0.487c0.192,0.247,0.289,0.555,0.289,0.926c0,0.5-0.183,0.925-0.547,1.273
							c-0.365,0.348-0.826,0.522-1.383,0.522c-0.503,0-0.92-0.148-1.252-0.444S9.396,26.586,9.349,26.115z"/>
						<path i:knockout="Off" fill="none" stroke="#000000" stroke-width="0.7" d="M16.917,29.964h-12.5"/>
						<path i:knockout="Off" fill="none" stroke="#000000" stroke-width="1.2" d="M11.053,32.4c5.844,0,7.087-1.871,7.087-5.785
							c0-3.914-2.577-8.388-7.087-8.388c-5.156,0-7.087,4.807-7.087,8.721S5.23,32.4,11.053,32.4z"/>
					</g>
				</g>
			</g>
			<g>
				<path i:knockout="Off" fill="none" stroke="#000000" stroke-width="1.2" stroke-linecap="round" d="M3.759,10.926H0.6V7.138
					h4.579"/>
			</g>
			<g>
				<path i:knockout="Off" fill="none" stroke="#000000" stroke-width="1.2" stroke-linecap="round" d="M15.975,5.372V0.6h5.151
					v4.333"/>
			</g>
		</g>
	</g>
</svg>
