<?xml version="1.0" encoding="utf-8"?>
<!-- Generator: Adobe Illustrator 10.0, SVG Export Plug-In . SVG Version: 3.0.0 Build 77)  -->
<!DOCTYPE svg PUBLIC "-//W3C//DTD SVG 1.0//EN"    "http://www.w3.org/TR/2001/REC-SVG-20010904/DTD/svg10.dtd" [
	<!ENTITY ns_flows "http://ns.adobe.com/Flows/1.0/">
	<!ENTITY ns_extend "http://ns.adobe.com/Extensibility/1.0/">
	<!ENTITY ns_ai "http://ns.adobe.com/AdobeIllustrator/10.0/">
	<!ENTITY ns_graphs "http://ns.adobe.com/Graphs/1.0/">
	<!ENTITY ns_vars "http://ns.adobe.com/Variables/1.0/">
	<!ENTITY ns_imrep "http://ns.adobe.com/ImageReplacement/1.0/">
	<!ENTITY ns_sfw "http://ns.adobe.com/SaveForWeb/1.0/">
	<!ENTITY ns_custom "http://ns.adobe.com/GenericCustomNamespace/1.0/">
	<!ENTITY ns_adobe_xpath "http://ns.adobe.com/XPath/1.0/">
	<!ENTITY ns_svg "http://www.w3.org/2000/svg">
	<!ENTITY ns_xlink "http://www.w3.org/1999/xlink">
]>
<svg xmlns:x="&ns_extend;" xmlns:i="&ns_ai;" xmlns:graph="&ns_graphs;" i:viewOrigin="272.7852 430.1484" i:rulerOrigin="-1 0.1104" i:pageBounds="1 841.8896 596 -0.1104" xmlns="&ns_svg;" xmlns:xlink="&ns_xlink;" xmlns:a="http://ns.adobe.com/AdobeSVGViewerExtensions/3.0/" width="54.283" height="19.04" viewBox="0 0 54.283 19.04" overflow="visible" enable-background="new 0 0 54.283 19.04" xml:space="preserve" id="svgObj" onload="parent.svgLoad('Top', document)">
	<metadata>
		<variableSets xmlns="&ns_vars;">
			<variableSet varSetName="binding1" locked="none">
				<variables></variables>
				<v:sampleDataSets xmlns="&ns_custom;" xmlns:v="&ns_vars;"></v:sampleDataSets>
			</variableSet>
		</variableSets>
		<sfw xmlns="&ns_sfw;">
			<slices></slices>
			<sliceSourceBounds y="411.108" x="272.785" width="54.283" height="19.04" bottomLeftOrigin="true"></sliceSourceBounds>
		</sfw>
	</metadata>
	<g id="レイヤー_1" i:layer="yes" i:dimmedPercent="50" i:rgbTrio="#4F008000FFFF">
		<g>
			<path i:knockout="Off" fill="none" stroke="#000000" stroke-width="1.2" d="M31.047,4.852V0.6h-7.655v4.252"/>
			<path i:knockout="Off" fill="none" stroke="#000000" stroke-width="1.2" d="M43.906,18.44c3.758,0,6.803-3.045,6.803-6.803
				c0-3.757-3.045-6.802-6.803-6.802H10.346c-3.757,0-6.803,3.045-6.803,6.802c0,3.758,3.046,6.803,6.803,6.803H43.906z"/>
			<g i:knockout="Off">
				<path i:knockout="Off" d="M11.105,14.423h-0.703v-4.48c-0.169,0.162-0.392,0.323-0.666,0.484
					c-0.275,0.162-0.521,0.283-0.74,0.363v-0.68c0.393-0.185,0.737-0.409,1.031-0.672c0.294-0.263,0.502-0.518,0.625-0.766h0.453
					V14.423z"/>
			</g>
			<g i:knockout="Off">
				<path i:knockout="Off" d="M29.02,13.749v0.672h-3.797c-0.005-0.169,0.022-0.332,0.083-0.488c0.097-0.258,0.252-0.511,0.467-0.76
					c0.214-0.248,0.521-0.537,0.92-0.864c0.62-0.517,1.04-0.923,1.261-1.221c0.222-0.298,0.332-0.58,0.332-0.849
					c0-0.278-0.1-0.513-0.299-0.704c-0.2-0.191-0.461-0.287-0.781-0.287c-0.34,0-0.61,0.104-0.814,0.311
					c-0.203,0.208-0.306,0.494-0.309,0.861l-0.719-0.094c0.049-0.539,0.235-0.95,0.558-1.232c0.323-0.282,0.756-0.424,1.3-0.424
					c0.549,0,0.983,0.152,1.303,0.457c0.32,0.305,0.48,0.683,0.48,1.133c0,0.229-0.047,0.455-0.14,0.677
					c-0.094,0.222-0.248,0.454-0.465,0.699c-0.216,0.245-0.576,0.581-1.081,1.009c-0.423,0.355-0.694,0.596-0.814,0.723
					c-0.119,0.126-0.219,0.253-0.297,0.381H29.02z"/>
			</g>
			<path i:knockout="Off" fill="none" stroke="#000000" stroke-width="0.665" d="M19.324,17.546c0.611,0,1.107-0.496,1.107-1.107
				l0.02-9.625c0-0.612-0.496-1.108-1.107-1.108c-0.612,0-1.108,0.496-1.108,1.108l-0.02,9.625
				C18.215,17.05,18.711,17.546,19.324,17.546z"/>
			<g i:knockout="Off">
				<path i:knockout="Off" d="M42.025,12.923l0.719-0.094c0.08,0.393,0.215,0.676,0.404,0.85c0.19,0.173,0.426,0.26,0.707,0.26
					c0.333,0,0.611-0.115,0.835-0.344c0.224-0.23,0.335-0.515,0.335-0.854c0-0.323-0.104-0.59-0.313-0.801
					c-0.21-0.209-0.476-0.314-0.798-0.314c-0.132,0-0.296,0.026-0.492,0.078l0.078-0.625c0.046,0.006,0.083,0.008,0.111,0.008
					c0.295,0,0.56-0.077,0.795-0.232c0.235-0.154,0.354-0.394,0.354-0.717c0-0.255-0.086-0.467-0.26-0.635
					c-0.172-0.168-0.396-0.252-0.668-0.252c-0.271,0-0.497,0.086-0.678,0.258c-0.18,0.172-0.296,0.43-0.348,0.773l-0.719-0.125
					c0.086-0.471,0.28-0.836,0.584-1.096c0.305-0.259,0.683-0.389,1.135-0.389c0.312,0,0.599,0.067,0.861,0.2
					c0.262,0.134,0.463,0.315,0.602,0.546c0.14,0.231,0.209,0.476,0.209,0.735c0,0.246-0.066,0.47-0.199,0.673
					c-0.133,0.201-0.33,0.362-0.59,0.481c0.338,0.078,0.604,0.241,0.797,0.487c0.192,0.246,0.289,0.555,0.289,0.925
					c0,0.501-0.183,0.926-0.547,1.273c-0.365,0.349-0.826,0.522-1.383,0.522c-0.503,0-0.92-0.147-1.252-0.443
					S42.072,13.394,42.025,12.923z"/>
			</g>
			<path i:knockout="Off" fill="none" stroke="#000000" stroke-width="0.665" d="M34.967,17.546c0.611,0,1.107-0.496,1.107-1.107
				l0.02-9.625c0-0.612-0.496-1.108-1.107-1.108c-0.613,0-1.109,0.496-1.109,1.108l-0.02,9.625
				C33.857,17.05,34.354,17.546,34.967,17.546z"/>
			<path i:knockout="Off" fill="none" stroke="#000000" stroke-width="1.2" d="M3.684,12.935H0.601L0.6,10.354l3.037-0.01"/>
			<path i:knockout="Off" fill="none" stroke="#000000" stroke-width="1.2" d="M50.633,12.919l3.051-0.014v-2.582l-3.063-0.012"/>
		</g>
	</g>
</svg>
