<?xml version="1.0" encoding="utf-8"?>
<!-- Generator: Adobe Illustrator 10.0, SVG Export Plug-In . SVG Version: 3.0.0 Build 77)  -->
<!DOCTYPE svg PUBLIC "-//W3C//DTD SVG 1.0//EN"    "http://www.w3.org/TR/2001/REC-SVG-20010904/DTD/svg10.dtd" [
	<!ENTITY ns_flows "http://ns.adobe.com/Flows/1.0/">
	<!ENTITY ns_extend "http://ns.adobe.com/Extensibility/1.0/">
	<!ENTITY ns_ai "http://ns.adobe.com/AdobeIllustrator/10.0/">
	<!ENTITY ns_graphs "http://ns.adobe.com/Graphs/1.0/">
	<!ENTITY ns_vars "http://ns.adobe.com/Variables/1.0/">
	<!ENTITY ns_imrep "http://ns.adobe.com/ImageReplacement/1.0/">
	<!ENTITY ns_sfw "http://ns.adobe.com/SaveForWeb/1.0/">
	<!ENTITY ns_custom "http://ns.adobe.com/GenericCustomNamespace/1.0/">
	<!ENTITY ns_adobe_xpath "http://ns.adobe.com/XPath/1.0/">
	<!ENTITY ns_svg "http://www.w3.org/2000/svg">
	<!ENTITY ns_xlink "http://www.w3.org/1999/xlink">
]>
<svg xmlns:x="&ns_extend;" xmlns:i="&ns_ai;" xmlns:graph="&ns_graphs;" i:viewOrigin="270.6133 432.5762" i:rulerOrigin="-1 0.1104" i:pageBounds="1 841.8896 596 -0.1104" xmlns="&ns_svg;" xmlns:xlink="&ns_xlink;" xmlns:a="http://ns.adobe.com/AdobeSVGViewerExtensions/3.0/" width="58.121" height="31.316" viewBox="0 0 58.121 31.316" overflow="visible" enable-background="new 0 0 58.121 31.316" xml:space="preserve" id="svgObj" onload="parent.svgLoad('Top', document)">
	<metadata>
		<variableSets xmlns="&ns_vars;">
			<variableSet varSetName="binding1" locked="none">
				<variables></variables>
				<v:sampleDataSets xmlns="&ns_custom;" xmlns:v="&ns_vars;"></v:sampleDataSets>
			</variableSet>
		</variableSets>
		<sfw xmlns="&ns_sfw;">
			<slices></slices>
			<sliceSourceBounds y="388.708" x="257.815" width="80.371" height="63.363" bottomLeftOrigin="true"></sliceSourceBounds>
		</sfw>
	</metadata>
	<g id="レイヤー_1" i:layer="yes" i:dimmedPercent="100" i:rgbTrio="#4F008000FFFF">
		<g>
			<g>
				<path i:knockout="Off" fill="none" stroke="#000000" stroke-width="1.2" d="M0.636,26.961V4.207h22.74v11.237h22.722V4.207
					h11.424v22.754H0.636z"/>
				<path i:knockout="Off" fill="none" stroke="#000000" stroke-width="0.7" d="M0.636,15.629h22.74v11.332"/>
				<path i:knockout="Off" fill="none" stroke="#000000" stroke-width="0.7" d="M57.521,15.629h-11.33v11.332"/>
				<g i:knockout="Off">
					<path i:knockout="Off" d="M6.969,13.031H6.266v-4.48C6.096,8.712,5.874,8.874,5.6,9.035c-0.275,0.162-0.521,0.283-0.74,0.363
						v-0.68C5.252,8.534,5.596,8.31,5.891,8.047c0.294-0.263,0.502-0.518,0.625-0.766h0.453V13.031z"/>
				</g>
				<g i:knockout="Off">
					<path i:knockout="Off" d="M19.431,12.359v0.672h-3.797c-0.005-0.169,0.022-0.332,0.083-0.488
						c0.097-0.258,0.252-0.511,0.467-0.76c0.214-0.249,0.521-0.537,0.92-0.864c0.62-0.516,1.04-0.923,1.261-1.221
						s0.332-0.58,0.332-0.849c0-0.278-0.1-0.513-0.299-0.704s-0.46-0.287-0.781-0.287c-0.339,0-0.61,0.104-0.814,0.311
						s-0.307,0.494-0.309,0.861l-0.719-0.094c0.049-0.539,0.235-0.95,0.558-1.232c0.323-0.282,0.756-0.424,1.3-0.424
						c0.549,0,0.983,0.152,1.303,0.457s0.48,0.683,0.48,1.133c0,0.229-0.047,0.455-0.14,0.676c-0.094,0.221-0.248,0.454-0.465,0.699
						c-0.216,0.245-0.576,0.581-1.081,1.009c-0.423,0.355-0.695,0.596-0.815,0.722c-0.12,0.126-0.219,0.253-0.297,0.381H19.431z"/>
				</g>
				<g i:knockout="Off">
					<path i:knockout="Off" d="M49.93,11.578l0.719-0.094c0.08,0.393,0.215,0.676,0.404,0.85c0.19,0.173,0.426,0.26,0.707,0.26
						c0.333,0,0.611-0.115,0.835-0.344s0.335-0.514,0.335-0.853c0-0.323-0.104-0.59-0.313-0.8c-0.21-0.21-0.476-0.315-0.798-0.315
						c-0.132,0-0.296,0.026-0.492,0.078l0.078-0.625c0.046,0.005,0.083,0.008,0.111,0.008c0.295,0,0.56-0.077,0.795-0.232
						c0.235-0.155,0.354-0.394,0.354-0.717c0-0.255-0.086-0.467-0.26-0.635c-0.172-0.168-0.396-0.252-0.668-0.252
						c-0.271,0-0.497,0.086-0.678,0.258c-0.18,0.172-0.296,0.43-0.348,0.773l-0.719-0.125c0.086-0.471,0.28-0.836,0.584-1.096
						c0.305-0.259,0.683-0.389,1.135-0.389c0.312,0,0.599,0.067,0.861,0.2c0.262,0.134,0.463,0.315,0.602,0.546
						c0.14,0.231,0.209,0.476,0.209,0.735c0,0.246-0.066,0.47-0.199,0.672s-0.33,0.363-0.59,0.482
						c0.338,0.078,0.604,0.241,0.797,0.487c0.192,0.246,0.289,0.555,0.289,0.925c0,0.501-0.183,0.926-0.547,1.273
						c-0.365,0.349-0.826,0.522-1.383,0.522c-0.503,0-0.92-0.147-1.252-0.443S49.977,12.049,49.93,11.578z"/>
				</g>
				<g i:knockout="Off">
					<path i:knockout="Off" d="M51.008,20.887c-0.292-0.106-0.508-0.259-0.648-0.457s-0.211-0.436-0.211-0.712
						c0-0.417,0.149-0.768,0.447-1.051c0.299-0.285,0.695-0.427,1.191-0.427c0.498,0,0.898,0.146,1.203,0.437
						c0.303,0.29,0.455,0.644,0.455,1.061c0,0.266-0.069,0.497-0.208,0.694c-0.139,0.196-0.349,0.349-0.632,0.455
						c0.351,0.114,0.617,0.299,0.8,0.554s0.274,0.559,0.274,0.912c0,0.489-0.173,0.899-0.519,1.232s-0.8,0.499-1.364,0.499
						s-1.019-0.167-1.364-0.501s-0.519-0.75-0.519-1.25c0-0.371,0.095-0.683,0.284-0.934S50.657,20.978,51.008,20.887z
						 M50.633,22.338c0,0.2,0.046,0.394,0.139,0.58c0.092,0.187,0.232,0.331,0.423,0.435c0.189,0.102,0.393,0.153,0.608,0.153
						c0.341,0,0.619-0.107,0.834-0.323c0.217-0.215,0.324-0.489,0.324-0.821c0-0.337-0.111-0.616-0.334-0.837
						c-0.222-0.221-0.504-0.331-0.848-0.331c-0.336,0-0.61,0.109-0.824,0.327C50.74,21.738,50.633,22.011,50.633,22.338z
						 M50.867,19.693c0,0.271,0.086,0.492,0.257,0.664s0.397,0.258,0.681,0.258c0.275,0,0.497-0.085,0.667-0.256
						s0.255-0.38,0.255-0.627c0-0.258-0.088-0.475-0.263-0.65s-0.397-0.264-0.667-0.264c-0.272,0-0.495,0.086-0.669,0.258
						S50.867,19.454,50.867,19.693z"/>
				</g>
				<g i:knockout="Off">
					<path i:knockout="Off" d="M7.058,23.99v-1.375H4.573v-0.641l2.625-3.719h0.563v3.719h0.781v0.641H7.761v1.375H7.058z
						 M7.058,21.975v-2.566l-1.792,2.566H7.058z"/>
				</g>
				<g i:knockout="Off">
					<path i:knockout="Off" d="M31.11,19.662l-0.703,0.063c-0.063-0.277-0.152-0.479-0.268-0.604
						c-0.191-0.201-0.427-0.302-0.708-0.302c-0.226,0-0.426,0.063-0.602,0.187c-0.218,0.162-0.391,0.396-0.52,0.705
						c-0.128,0.31-0.195,0.75-0.2,1.323c0.17-0.258,0.378-0.449,0.623-0.574c0.246-0.125,0.503-0.188,0.772-0.188
						c0.471,0,0.871,0.173,1.202,0.518s0.496,0.791,0.496,1.338c0,0.359-0.078,0.693-0.233,1.002
						c-0.156,0.309-0.369,0.545-0.642,0.709c-0.271,0.164-0.58,0.246-0.925,0.246c-0.589,0-1.069-0.216-1.44-0.646
						c-0.371-0.432-0.557-1.141-0.557-2.13c0-1.106,0.206-1.91,0.617-2.413c0.359-0.437,0.843-0.655,1.45-0.655
						c0.453,0,0.825,0.126,1.115,0.378C30.879,18.87,31.053,19.218,31.11,19.662z M28.22,22.133c0,0.242,0.052,0.474,0.155,0.694
						s0.246,0.39,0.43,0.505c0.184,0.116,0.38,0.174,0.589,0.174c0.304,0,0.562-0.12,0.773-0.358
						c0.212-0.24,0.318-0.564,0.318-0.976c0-0.396-0.104-0.706-0.314-0.935c-0.209-0.227-0.478-0.341-0.805-0.341
						c-0.319,0-0.591,0.114-0.813,0.341C28.331,21.466,28.22,21.764,28.22,22.133z"/>
				</g>
				<g i:knockout="Off">
					<path i:knockout="Off" d="M38.862,19.006v-0.672h3.703v0.544c-0.365,0.388-0.728,0.904-1.086,1.548
						c-0.358,0.645-0.636,1.308-0.831,1.987c-0.142,0.48-0.231,1.006-0.271,1.577h-0.719c0.008-0.451,0.097-0.996,0.265-1.636
						c0.17-0.639,0.412-1.255,0.728-1.848c0.315-0.594,0.651-1.094,1.008-1.501H38.862z"/>
				</g>
				<g i:knockout="Off">
					<path i:knockout="Off" d="M16.186,22.49l0.719-0.063c0.055,0.358,0.182,0.628,0.379,0.808c0.198,0.181,0.441,0.271,0.729,0.271
						c0.349,0,0.639-0.127,0.871-0.382c0.232-0.254,0.348-0.592,0.348-1.013c0-0.399-0.111-0.715-0.332-0.946
						c-0.222-0.23-0.519-0.347-0.891-0.347c-0.232,0-0.438,0.051-0.617,0.152s-0.322,0.233-0.426,0.395l-0.656-0.094l0.563-2.938
						h2.844v0.672h-2.285l-0.313,1.549c0.344-0.241,0.704-0.361,1.082-0.361c0.5,0,0.922,0.173,1.266,0.519
						c0.344,0.347,0.516,0.791,0.516,1.335c0,0.518-0.151,0.966-0.453,1.343c-0.367,0.463-0.869,0.694-1.504,0.694
						c-0.521,0-0.946-0.146-1.275-0.437C16.42,23.356,16.232,22.971,16.186,22.49z"/>
				</g>
				<path i:knockout="Off" fill="none" stroke="#000000" stroke-width="0.7" d="M34.829,27.053V15.49"/>
				<path i:knockout="Off" fill="none" stroke="#000000" stroke-width="0.7" d="M12.029,27.053V4.251"/>
				<path i:knockout="Off" fill="none" stroke="#000000" stroke-width="1.2" d="M37.958,15.436v-3.161H31.64v3.161"/>
			</g>
			<path i:knockout="Off" fill="none" stroke="#000000" stroke-width="1.2" d="M0.636,26.961l4.855,3.756H52.74l4.781-3.756"/>
			<path i:knockout="Off" fill="none" stroke="#000000" stroke-width="1.2" d="M54.93,0.6h2.592v3.606H54.93V0.6z"/>
			<path i:knockout="Off" fill="none" stroke="#000000" stroke-width="1.2" d="M0.6,0.6h2.592v3.606H0.6V0.6z"/>
		</g>
	</g>
</svg>
