<?xml version="1.0" encoding="utf-8"?>
<!-- Generator: Adobe Illustrator 10.0, SVG Export Plug-In . SVG Version: 3.0.0 Build 77)  -->
<!DOCTYPE svg PUBLIC "-//W3C//DTD SVG 1.0//EN"    "http://www.w3.org/TR/2001/REC-SVG-20010904/DTD/svg10.dtd" [
	<!ENTITY ns_flows "http://ns.adobe.com/Flows/1.0/">
	<!ENTITY ns_extend "http://ns.adobe.com/Extensibility/1.0/">
	<!ENTITY ns_ai "http://ns.adobe.com/AdobeIllustrator/10.0/">
	<!ENTITY ns_graphs "http://ns.adobe.com/Graphs/1.0/">
	<!ENTITY ns_vars "http://ns.adobe.com/Variables/1.0/">
	<!ENTITY ns_imrep "http://ns.adobe.com/ImageReplacement/1.0/">
	<!ENTITY ns_sfw "http://ns.adobe.com/SaveForWeb/1.0/">
	<!ENTITY ns_custom "http://ns.adobe.com/GenericCustomNamespace/1.0/">
	<!ENTITY ns_adobe_xpath "http://ns.adobe.com/XPath/1.0/">
	<!ENTITY ns_svg "http://www.w3.org/2000/svg">
	<!ENTITY ns_xlink "http://www.w3.org/1999/xlink">
]>
<svg xmlns:x="&ns_extend;" xmlns:i="&ns_ai;" xmlns:graph="&ns_graphs;" i:viewOrigin="255.2695 474.5366" i:rulerOrigin="0 0" i:pageBounds="0 841.8896 595.2754 0" xmlns="&ns_svg;" xmlns:xlink="&ns_xlink;" xmlns:a="http://ns.adobe.com/AdobeSVGViewerExtensions/3.0/" width="102.487" height="28.667" viewBox="0 0 102.487 28.667" overflow="visible" enable-background="new 0 0 102.487 28.667" xml:space="preserve" id="svgObj" onload="parent.svgLoad('Top', document)">
	<metadata>
		<variableSets xmlns="&ns_vars;">
			<variableSet varSetName="binding1" locked="none">
				<variables></variables>
				<v:sampleDataSets xmlns="&ns_custom;" xmlns:v="&ns_vars;"></v:sampleDataSets>
			</variableSet>
		</variableSets>
		<sfw xmlns="&ns_sfw;">
			<slices></slices>
			<sliceSourceBounds y="427.527" x="228" width="159.74" height="63.362" bottomLeftOrigin="true"></sliceSourceBounds>
		</sfw>
	</metadata>
	<g id="レイヤー_1" i:layer="yes" i:dimmedPercent="100" i:rgbTrio="#4F008000FFFF">
		<g>
			<path i:knockout="Off" fill="none" stroke="#000000" stroke-width="1.2" d="M53.654,14.405v-4.007h-4.969v4.007"/>
			<path i:knockout="Off" fill="none" stroke="#000000" stroke-width="0.7" d="M0.898,12.264h20.576"/>
			<path i:knockout="Off" fill="none" stroke="#000000" stroke-width="0.7" d="M0.865,14.436h20.61"/>
			<path i:knockout="Off" fill="none" stroke="#000000" stroke-width="0.7" d="M0.898,12.264h22.434"/>
			<path i:knockout="Off" fill="none" stroke="#000000" stroke-width="0.7" d="M0.865,14.436h22.467"/>
			<path i:knockout="Off" fill="none" stroke="#000000" stroke-width="0.7" d="M11.988,0.684v13.752"/>
			<path i:knockout="Off" fill="none" stroke="#000000" stroke-width="0.7" d="M11.988,14.184v13.752"/>
			<path i:knockout="Off" fill="none" stroke="#000000" stroke-width="0.7" d="M101.59,12.264H81.014"/>
			<path i:knockout="Off" fill="none" stroke="#000000" stroke-width="0.7" d="M101.623,14.436H81.014"/>
			<path i:knockout="Off" fill="none" stroke="#000000" stroke-width="0.7" d="M101.59,12.264H79.156"/>
			<path i:knockout="Off" fill="none" stroke="#000000" stroke-width="0.7" d="M101.623,14.436H79.156"/>
			<path i:knockout="Off" fill="none" stroke="#000000" stroke-width="0.7" d="M101.311,25.774H0.641"/>
			<path i:knockout="Off" fill="none" stroke="#000000" stroke-width="0.7" d="M90.498,0.684v13.752"/>
			<path i:knockout="Off" fill="none" stroke="#000000" stroke-width="0.7" d="M56.854,14.184v13.752 M79.355,13.936v14.293
				 M90.355,14.186v13.672"/>
			<path i:knockout="Off" fill="none" stroke="#000000" stroke-width="0.7" d="M23.359,14.184v13.752"/>
			<path i:knockout="Off" fill="none" stroke="#000000" stroke-width="0.7" d="M56.861,14.186v13.672"/>
			<path i:knockout="Off" fill="none" stroke="#000000" stroke-width="0.7" d="M34.383,14.059v13.752"/>
			<path i:knockout="Off" fill="none" stroke="#000000" stroke-width="0.7" d="M45.359,14.059v13.752"/>
			<path i:knockout="Off" fill="none" stroke="#000000" stroke-width="0.7" d="M67.854,14.059v13.752"/>
			<g i:knockout="Off">
				<path i:knockout="Off" d="M27.339,17.831v-0.672h3.703v0.544c-0.365,0.388-0.728,0.904-1.086,1.548
					c-0.359,0.645-0.636,1.307-0.832,1.988c-0.141,0.48-0.231,1.005-0.27,1.577h-0.719c0.008-0.451,0.096-0.996,0.265-1.635
					s0.411-1.255,0.727-1.849c0.315-0.593,0.651-1.093,1.008-1.5H27.339z"/>
			</g>
			<g i:knockout="Off">
				<path i:knockout="Off" d="M60.679,22.815h-0.703v-4.48c-0.169,0.162-0.392,0.323-0.666,0.484
					c-0.274,0.162-0.521,0.283-0.74,0.363v-0.68c0.394-0.185,0.737-0.409,1.031-0.672c0.294-0.263,0.503-0.518,0.625-0.766h0.453
					V22.815z"/>
				<path i:knockout="Off" d="M62.472,19.989c0-0.677,0.07-1.223,0.211-1.638c0.14-0.415,0.349-0.733,0.626-0.954
					c0.277-0.222,0.626-0.332,1.046-0.332c0.31,0,0.583,0.062,0.819,0.186s0.43,0.302,0.579,0.535s0.268,0.517,0.354,0.851
					c0.086,0.334,0.13,0.785,0.13,1.353c0,0.671-0.069,1.215-0.209,1.63c-0.139,0.415-0.347,0.734-0.624,0.956
					c-0.277,0.223-0.627,0.334-1.05,0.334c-0.557,0-0.994-0.195-1.312-0.585C62.662,21.842,62.472,21.064,62.472,19.989z
					 M63.19,19.987c0,0.945,0.112,1.572,0.336,1.881s0.499,0.463,0.828,0.463c0.328,0,0.604-0.155,0.828-0.465
					c0.224-0.31,0.336-0.936,0.336-1.879c0-0.942-0.111-1.569-0.334-1.879c-0.223-0.31-0.502-0.465-0.838-0.465
					c-0.329,0-0.592,0.137-0.791,0.41C63.313,18.402,63.19,19.047,63.19,19.987z"/>
			</g>
			<g i:knockout="Off">
				<path i:knockout="Off" d="M5.149,21.379l0.719-0.063c0.055,0.358,0.182,0.627,0.379,0.808c0.198,0.181,0.441,0.271,0.729,0.271
					c0.349,0,0.639-0.127,0.871-0.382C8.08,21.759,8.196,21.421,8.196,21c0-0.399-0.111-0.715-0.332-0.946
					c-0.222-0.231-0.519-0.347-0.891-0.347c-0.232,0-0.438,0.051-0.617,0.152s-0.322,0.233-0.426,0.395l-0.656-0.094l0.563-2.938
					h2.844v0.672H6.396l-0.313,1.549c0.344-0.241,0.704-0.361,1.082-0.361c0.5,0,0.922,0.173,1.266,0.519s0.516,0.791,0.516,1.334
					c0,0.518-0.151,0.965-0.453,1.343c-0.367,0.463-0.869,0.694-1.504,0.694c-0.521,0-0.946-0.146-1.275-0.437
					C5.384,22.246,5.196,21.86,5.149,21.379z"/>
			</g>
			<g i:knockout="Off">
				<path i:knockout="Off" d="M19.993,18.551l-0.703,0.063c-0.063-0.277-0.152-0.479-0.268-0.604
					c-0.191-0.201-0.427-0.302-0.708-0.302c-0.226,0-0.426,0.063-0.602,0.187c-0.218,0.161-0.391,0.396-0.52,0.705
					c-0.128,0.309-0.195,0.75-0.2,1.323c0.17-0.258,0.378-0.449,0.623-0.574c0.246-0.125,0.503-0.188,0.773-0.188
					c0.47,0,0.871,0.173,1.202,0.518c0.331,0.345,0.496,0.791,0.496,1.338c0,0.359-0.078,0.693-0.233,1.002
					c-0.156,0.309-0.369,0.545-0.642,0.709c-0.271,0.164-0.58,0.246-0.925,0.246c-0.588,0-1.068-0.215-1.44-0.646
					c-0.371-0.431-0.557-1.14-0.557-2.129c0-1.106,0.206-1.91,0.617-2.413c0.359-0.437,0.843-0.656,1.451-0.656
					c0.453,0,0.825,0.126,1.114,0.378S19.936,18.107,19.993,18.551z M17.103,21.022c0,0.242,0.052,0.474,0.155,0.694
					c0.104,0.221,0.247,0.39,0.43,0.505c0.183,0.116,0.38,0.174,0.589,0.174c0.304,0,0.562-0.12,0.773-0.359
					s0.318-0.564,0.318-0.975c0-0.395-0.104-0.707-0.314-0.934c-0.209-0.228-0.478-0.341-0.805-0.341
					c-0.319,0-0.59,0.114-0.813,0.341C17.214,20.354,17.103,20.653,17.103,21.022z"/>
			</g>
			<g i:knockout="Off">
				<path i:knockout="Off" d="M7.806,10.213H7.103v-4.48C6.933,5.894,6.711,6.055,6.437,6.217C6.162,6.378,5.915,6.5,5.696,6.58V5.9
					c0.393-0.185,0.737-0.409,1.031-0.672C7.021,4.965,7.23,4.71,7.353,4.463h0.453V10.213z"/>
			</g>
			<g i:knockout="Off">
				<path i:knockout="Off" d="M20.017,9.541v0.672H16.22c-0.005-0.169,0.022-0.332,0.083-0.488c0.097-0.258,0.252-0.511,0.467-0.76
					c0.214-0.249,0.521-0.537,0.92-0.864c0.62-0.516,1.04-0.923,1.261-1.221c0.221-0.297,0.332-0.581,0.332-0.848
					c0-0.278-0.1-0.513-0.299-0.704c-0.2-0.191-0.46-0.287-0.781-0.287c-0.339,0-0.61,0.104-0.814,0.311s-0.307,0.494-0.309,0.861
					L16.36,6.119c0.049-0.539,0.235-0.95,0.558-1.232c0.323-0.283,0.756-0.424,1.3-0.424c0.549,0,0.983,0.153,1.303,0.458
					s0.48,0.682,0.48,1.133c0,0.229-0.047,0.455-0.14,0.676c-0.094,0.222-0.248,0.455-0.465,0.7
					c-0.216,0.245-0.576,0.581-1.081,1.009c-0.423,0.355-0.695,0.596-0.815,0.722c-0.12,0.126-0.219,0.254-0.297,0.381H20.017z"/>
			</g>
			<g i:knockout="Off">
				<path i:knockout="Off" d="M83.665,8.713l0.719-0.094c0.08,0.393,0.215,0.676,0.405,0.849c0.189,0.174,0.425,0.26,0.706,0.26
					c0.333,0,0.611-0.115,0.835-0.344c0.223-0.229,0.335-0.514,0.335-0.854c0-0.323-0.104-0.59-0.313-0.8s-0.476-0.315-0.798-0.315
					c-0.132,0-0.296,0.026-0.492,0.078l0.077-0.625c0.047,0.005,0.084,0.008,0.112,0.008c0.294,0,0.56-0.078,0.795-0.232
					s0.354-0.394,0.354-0.716c0-0.256-0.087-0.468-0.259-0.636c-0.174-0.167-0.396-0.251-0.67-0.251
					c-0.271,0-0.496,0.086-0.676,0.258c-0.182,0.172-0.297,0.43-0.349,0.773l-0.719-0.125c0.086-0.471,0.28-0.836,0.585-1.096
					c0.304-0.259,0.682-0.389,1.134-0.389c0.312,0,0.599,0.067,0.861,0.2s0.463,0.316,0.603,0.546
					c0.139,0.23,0.208,0.476,0.208,0.734c0,0.246-0.066,0.471-0.199,0.673s-0.329,0.363-0.59,0.482
					c0.339,0.079,0.604,0.241,0.797,0.487c0.192,0.247,0.289,0.555,0.289,0.926c0,0.5-0.183,0.925-0.547,1.273
					c-0.364,0.348-0.825,0.522-1.383,0.522c-0.503,0-0.92-0.148-1.252-0.444S83.712,9.184,83.665,8.713z"/>
			</g>
			<g i:knockout="Off">
				<path i:knockout="Off" d="M97.071,10.213V8.838h-2.484V8.197l2.625-3.719h0.563v3.719h0.781v0.641h-0.781v1.375H97.071z
					 M97.071,8.197V5.63l-1.792,2.567H97.071z"/>
			</g>
			<g i:knockout="Off">
				<path i:knockout="Off" d="M39.243,19.776c-0.292-0.106-0.507-0.259-0.648-0.457s-0.211-0.436-0.211-0.712
					c0-0.417,0.149-0.767,0.447-1.051c0.299-0.284,0.696-0.426,1.191-0.426c0.498,0,0.899,0.146,1.203,0.436
					s0.456,0.644,0.456,1.061c0,0.266-0.069,0.497-0.208,0.694c-0.139,0.196-0.349,0.349-0.631,0.455
					c0.35,0.114,0.617,0.299,0.799,0.554s0.274,0.559,0.274,0.912c0,0.489-0.173,0.899-0.519,1.232s-0.8,0.499-1.364,0.499
					s-1.019-0.167-1.364-0.501s-0.519-0.75-0.519-1.25c0-0.371,0.095-0.683,0.284-0.934S38.893,19.867,39.243,19.776z
					 M38.868,21.227c0,0.2,0.046,0.394,0.139,0.58c0.092,0.187,0.233,0.332,0.423,0.434c0.189,0.103,0.393,0.154,0.608,0.154
					c0.341,0,0.619-0.107,0.834-0.323c0.216-0.215,0.324-0.489,0.324-0.821c0-0.337-0.111-0.616-0.333-0.837
					s-0.505-0.331-0.848-0.331c-0.335,0-0.61,0.109-0.825,0.327S38.868,20.9,38.868,21.227z M39.103,18.583
					c0,0.271,0.085,0.492,0.257,0.664c0.171,0.172,0.398,0.258,0.681,0.258c0.275,0,0.497-0.085,0.667-0.256
					c0.17-0.17,0.255-0.379,0.255-0.627c0-0.258-0.088-0.475-0.263-0.65s-0.397-0.264-0.667-0.264c-0.272,0-0.495,0.086-0.669,0.258
					S39.103,18.343,39.103,18.583z"/>
			</g>
			<g i:knockout="Off">
				<path i:knockout="Off" d="M49.415,21.551l0.672-0.063c0.058,0.318,0.167,0.548,0.328,0.691c0.161,0.144,0.368,0.215,0.621,0.215
					c0.216,0,0.407-0.049,0.572-0.147s0.299-0.23,0.4-0.395s0.188-0.387,0.258-0.667c0.07-0.28,0.105-0.565,0.105-0.857
					c0-0.031-0.001-0.078-0.004-0.141c-0.14,0.224-0.331,0.406-0.573,0.545c-0.242,0.14-0.505,0.209-0.787,0.209
					c-0.472,0-0.871-0.172-1.197-0.516s-0.489-0.797-0.489-1.361c0-0.581,0.171-1.049,0.514-1.404s0.771-0.532,1.287-0.532
					c0.372,0,0.713,0.101,1.021,0.301s0.543,0.486,0.703,0.856c0.16,0.371,0.24,0.908,0.24,1.61c0,0.731-0.08,1.313-0.239,1.747
					s-0.396,0.763-0.711,0.989c-0.315,0.227-0.684,0.34-1.107,0.34c-0.449,0-0.816-0.124-1.102-0.373
					C49.644,22.352,49.473,22.002,49.415,21.551z M52.306,19.026c0-0.404-0.106-0.725-0.319-0.962s-0.473-0.356-0.78-0.356
					c-0.318,0-0.593,0.128-0.821,0.384c-0.23,0.255-0.345,0.586-0.345,0.993c0,0.365,0.108,0.662,0.327,0.89
					c0.217,0.228,0.49,0.342,0.819,0.342c0.326,0,0.595-0.114,0.804-0.342C52.201,19.747,52.306,19.43,52.306,19.026z"/>
			</g>
			<g i:knockout="Off">
				<path i:knockout="Off" d="M71.911,22.879h-0.703v-4.48c-0.169,0.162-0.392,0.323-0.666,0.484
					c-0.274,0.162-0.521,0.283-0.74,0.363v-0.68c0.394-0.185,0.737-0.409,1.031-0.672c0.294-0.263,0.503-0.518,0.625-0.766h0.453
					V22.879z"/>
				<path i:knockout="Off" d="M76.36,22.879h-0.703v-4.48c-0.169,0.162-0.392,0.323-0.666,0.484
					c-0.274,0.162-0.521,0.283-0.74,0.363v-0.68c0.394-0.185,0.737-0.409,1.031-0.672c0.294-0.263,0.503-0.518,0.625-0.766h0.453
					V22.879z"/>
			</g>
			<g i:knockout="Off">
				<path i:knockout="Off" d="M83.169,22.879h-0.703v-4.48c-0.169,0.162-0.392,0.323-0.666,0.484
					c-0.274,0.162-0.521,0.283-0.74,0.363v-0.68c0.394-0.185,0.737-0.409,1.031-0.672c0.294-0.263,0.503-0.518,0.625-0.766h0.453
					V22.879z"/>
				<path i:knockout="Off" d="M88.657,22.208v0.672H84.86c-0.005-0.169,0.022-0.332,0.083-0.488c0.097-0.258,0.252-0.511,0.467-0.76
					c0.214-0.249,0.521-0.537,0.92-0.864c0.62-0.516,1.04-0.923,1.262-1.221c0.221-0.298,0.331-0.58,0.331-0.849
					c0-0.278-0.1-0.513-0.3-0.704c-0.199-0.191-0.459-0.287-0.78-0.287c-0.339,0-0.61,0.104-0.813,0.311
					c-0.204,0.208-0.307,0.494-0.31,0.861l-0.719-0.094c0.05-0.539,0.235-0.95,0.558-1.232c0.322-0.282,0.756-0.424,1.3-0.424
					c0.549,0,0.983,0.152,1.304,0.457c0.319,0.305,0.479,0.683,0.479,1.133c0,0.229-0.047,0.455-0.14,0.676
					c-0.094,0.221-0.248,0.454-0.465,0.699c-0.216,0.245-0.576,0.581-1.08,1.009c-0.424,0.355-0.695,0.596-0.815,0.722
					s-0.219,0.253-0.297,0.381H88.657z"/>
			</g>
			<g i:knockout="Off">
				<path i:knockout="Off" d="M94.335,22.879h-0.703v-4.48c-0.169,0.162-0.392,0.323-0.666,0.484
					c-0.274,0.162-0.521,0.283-0.74,0.363v-0.68c0.394-0.185,0.737-0.409,1.031-0.672c0.294-0.263,0.503-0.518,0.625-0.766h0.453
					V22.879z"/>
				<path i:knockout="Off" d="M96.144,21.379l0.719-0.094c0.08,0.393,0.215,0.676,0.405,0.85c0.189,0.173,0.425,0.26,0.706,0.26
					c0.333,0,0.611-0.115,0.835-0.344c0.223-0.229,0.335-0.514,0.335-0.853c0-0.323-0.104-0.59-0.313-0.8s-0.476-0.315-0.798-0.315
					c-0.132,0-0.296,0.026-0.492,0.078l0.077-0.625c0.047,0.005,0.084,0.008,0.112,0.008c0.294,0,0.56-0.077,0.795-0.232
					c0.235-0.155,0.354-0.394,0.354-0.717c0-0.255-0.087-0.467-0.259-0.635c-0.174-0.168-0.396-0.252-0.67-0.252
					c-0.271,0-0.496,0.086-0.676,0.258c-0.182,0.172-0.297,0.43-0.349,0.773l-0.719-0.125c0.086-0.471,0.28-0.836,0.585-1.096
					c0.304-0.259,0.682-0.389,1.134-0.389c0.312,0,0.599,0.067,0.861,0.2c0.263,0.134,0.463,0.315,0.603,0.546
					c0.139,0.231,0.208,0.476,0.208,0.735c0,0.246-0.066,0.47-0.199,0.672s-0.329,0.363-0.59,0.482
					c0.339,0.078,0.604,0.241,0.797,0.487c0.192,0.246,0.289,0.555,0.289,0.925c0,0.501-0.183,0.926-0.547,1.273
					c-0.364,0.349-0.825,0.522-1.383,0.522c-0.503,0-0.92-0.147-1.252-0.443S96.19,21.85,96.144,21.379z"/>
			</g>
			<path i:knockout="Off" fill="none" stroke="#000000" stroke-width="0.7" d="M68.248,14.193h10.891V0.684h22.748v8.203"/>
			<path i:knockout="Off" fill="none" stroke="#000000" stroke-width="0.7" d="M55.828,27.734H34.026H0.646V19.53L0.601,8.553V0.35
				h22.747v13.51h5.654h0.117h5.264H57.05"/>
			<path i:knockout="Off" fill="none" stroke="#000000" stroke-width="0.7" d="M101.892,8.898l-0.052,10.966v8.203H67.892h-0.865"/>
			<path i:knockout="Off" fill="none" stroke="#000000" stroke-width="1.2" d="M67.725,28.067h34.115l0.047-27.383H79.139
				l0.217,13.51H68.06H56.861H23.348V0.684H0.601l0.045,27.383h55.88H67.725z"/>
		</g>
	</g>
</svg>
