<?xml version="1.0" encoding="utf-8"?>
<!-- Generator: Adobe Illustrator 10.0, SVG Export Plug-In . SVG Version: 3.0.0 Build 77)  -->
<!DOCTYPE svg PUBLIC "-//W3C//DTD SVG 1.0//EN"    "http://www.w3.org/TR/2001/REC-SVG-20010904/DTD/svg10.dtd" [
	<!ENTITY ns_flows "http://ns.adobe.com/Flows/1.0/">
	<!ENTITY ns_extend "http://ns.adobe.com/Extensibility/1.0/">
	<!ENTITY ns_ai "http://ns.adobe.com/AdobeIllustrator/10.0/">
	<!ENTITY ns_graphs "http://ns.adobe.com/Graphs/1.0/">
	<!ENTITY ns_vars "http://ns.adobe.com/Variables/1.0/">
	<!ENTITY ns_imrep "http://ns.adobe.com/ImageReplacement/1.0/">
	<!ENTITY ns_sfw "http://ns.adobe.com/SaveForWeb/1.0/">
	<!ENTITY ns_custom "http://ns.adobe.com/GenericCustomNamespace/1.0/">
	<!ENTITY ns_adobe_xpath "http://ns.adobe.com/XPath/1.0/">
	<!ENTITY ns_svg "http://www.w3.org/2000/svg">
	<!ENTITY ns_xlink "http://www.w3.org/1999/xlink">
]>
<svg xmlns:x="&ns_extend;" xmlns:i="&ns_ai;" xmlns:graph="&ns_graphs;" i:viewOrigin="287.5493 429.5581" i:rulerOrigin="-1 0.1104" i:pageBounds="1 841.8896 596 -0.1104" xmlns="&ns_svg;" xmlns:xlink="&ns_xlink;" xmlns:a="http://ns.adobe.com/AdobeSVGViewerExtensions/3.0/" width="23.56" height="21.08" viewBox="0 0 23.56 21.08" overflow="visible" enable-background="new 0 0 23.56 21.08" xml:space="preserve" id="svgObj" onload="parent.svgLoad('Top', document)">
	<metadata>
		<variableSets xmlns="&ns_vars;">
			<variableSet varSetName="binding1" locked="none">
				<variables></variables>
				<v:sampleDataSets xmlns="&ns_custom;" xmlns:v="&ns_vars;"></v:sampleDataSets>
			</variableSet>
		</variableSets>
		<sfw xmlns="&ns_sfw;">
			<slices></slices>
			<sliceSourceBounds y="388.708" x="257.815" width="80.371" height="63.363" bottomLeftOrigin="true"></sliceSourceBounds>
		</sfw>
	</metadata>
	<g id="レイヤー_1" i:layer="yes" i:dimmedPercent="100" i:rgbTrio="#4F008000FFFF">
		<path i:knockout="Off" fill="none" stroke="#000000" stroke-width="1.2" d="M8.145,3.814V0.6h7.066v3.214"/>
		<path i:knockout="Off" fill="none" stroke="#000000" stroke-width="1.2" d="M20.21,17.267v3.213H3.144v-3.213"/>
		<path i:knockout="Off" fill="none" stroke="#000000" stroke-width="1.2" d="M0.613,3.814V0.6h1.941v3.214"/>
		<path i:knockout="Off" fill="none" stroke="#000000" stroke-width="0.7" d="M11.58,17.133V4.26"/>
		<path i:knockout="Off" fill="none" stroke="#000000" stroke-width="1.2" d="M11.951,17.133H0.6V4.178h22.36v12.956H11.58"/>
		<path i:knockout="Off" fill="none" stroke="#000000" stroke-width="0.7" d="M22.93,15.6H0.431"/>
		<g i:knockout="Off">
			<path i:knockout="Off" d="M7.535,12.848H6.832v-4.48C6.662,8.529,6.44,8.691,6.166,8.852c-0.275,0.162-0.521,0.283-0.74,0.363
				v-0.68c0.393-0.185,0.737-0.409,1.031-0.672C6.75,7.601,6.959,7.346,7.082,7.098h0.453V12.848z"/>
		</g>
		<g i:knockout="Off">
			<path i:knockout="Off" d="M19.054,12.426v0.672h-3.797c-0.006-0.169,0.022-0.332,0.083-0.488c0.097-0.258,0.253-0.511,0.467-0.76
				c0.214-0.248,0.521-0.537,0.92-0.864c0.62-0.517,1.04-0.923,1.261-1.221c0.222-0.298,0.332-0.58,0.332-0.849
				c0-0.278-0.1-0.513-0.299-0.704c-0.2-0.191-0.461-0.287-0.781-0.287c-0.34,0-0.61,0.104-0.814,0.311
				c-0.203,0.208-0.307,0.494-0.309,0.861l-0.719-0.094c0.049-0.539,0.235-0.95,0.558-1.232c0.323-0.282,0.756-0.424,1.3-0.424
				c0.549,0,0.983,0.152,1.303,0.457c0.32,0.305,0.48,0.683,0.48,1.133c0,0.229-0.047,0.455-0.14,0.676
				c-0.094,0.222-0.248,0.454-0.465,0.699c-0.216,0.245-0.576,0.581-1.081,1.009c-0.423,0.355-0.694,0.596-0.814,0.723
				c-0.119,0.126-0.219,0.253-0.297,0.381H19.054z"/>
		</g>
	</g>
</svg>
