<?xml version="1.0" encoding="utf-8"?>
<!-- Generator: Adobe Illustrator 10.0, SVG Export Plug-In . SVG Version: 3.0.0 Build 77)  -->
<!DOCTYPE svg PUBLIC "-//W3C//DTD SVG 1.0//EN"    "http://www.w3.org/TR/2001/REC-SVG-20010904/DTD/svg10.dtd" [
	<!ENTITY ns_flows "http://ns.adobe.com/Flows/1.0/">
	<!ENTITY ns_extend "http://ns.adobe.com/Extensibility/1.0/">
	<!ENTITY ns_ai "http://ns.adobe.com/AdobeIllustrator/10.0/">
	<!ENTITY ns_graphs "http://ns.adobe.com/Graphs/1.0/">
	<!ENTITY ns_vars "http://ns.adobe.com/Variables/1.0/">
	<!ENTITY ns_imrep "http://ns.adobe.com/ImageReplacement/1.0/">
	<!ENTITY ns_sfw "http://ns.adobe.com/SaveForWeb/1.0/">
	<!ENTITY ns_custom "http://ns.adobe.com/GenericCustomNamespace/1.0/">
	<!ENTITY ns_adobe_xpath "http://ns.adobe.com/XPath/1.0/">
	<!ENTITY ns_svg "http://www.w3.org/2000/svg">
	<!ENTITY ns_xlink "http://www.w3.org/1999/xlink">
]>
<svg xmlns:x="&ns_extend;" xmlns:i="&ns_ai;" xmlns:graph="&ns_graphs;" i:viewOrigin="200.2148 465.2222" i:rulerOrigin="0 0" i:pageBounds="0 841.8896 595.2754 0" xmlns="&ns_svg;" xmlns:xlink="&ns_xlink;" xmlns:a="http://ns.adobe.com/AdobeSVGViewerExtensions/3.0/" width="228.43" height="29.102" viewBox="0 0 228.43 29.102" overflow="visible" enable-background="new 0 0 228.43 29.102" xml:space="preserve" id="svgObj" onload="parent.svgLoad('Top', document)">
	<metadata>
		<variableSets xmlns="&ns_vars;">
			<variableSet varSetName="binding1" locked="none">
				<variables></variables>
				<v:sampleDataSets xmlns="&ns_custom;" xmlns:v="&ns_vars;"></v:sampleDataSets>
			</variableSet>
		</variableSets>
		<sfw xmlns="&ns_sfw;">
			<slices></slices>
			<sliceSourceBounds y="419.027" x="194" width="239.11" height="63.362" bottomLeftOrigin="true"></sliceSourceBounds>
		</sfw>
	</metadata>
	<g id="レイヤー_1" i:layer="yes" i:dimmedPercent="100" i:rgbTrio="#4F008000FFFF">
		<g>
			<path i:knockout="Off" fill="none" stroke="#000000" stroke-width="0.7" stroke-linecap="round" d="M0.615,16.486V4.777h11.34
				v11.709H0.615z"/>
			<g i:knockout="Off">
				<path i:knockout="Off" d="M6.978,13.057H6.274v-4.48C6.105,8.738,5.883,8.9,5.608,9.061c-0.275,0.162-0.521,0.283-0.74,0.363
					v-0.68C5.261,8.56,5.605,8.336,5.899,8.073C6.193,7.81,6.402,7.555,6.524,7.307h0.453V13.057z"/>
			</g>
			<path i:knockout="Off" fill="none" stroke="#000000" stroke-width="0.7" stroke-linecap="round" d="M11.831,14.82H0.956"/>
			<path i:knockout="Off" fill="none" stroke="#000000" stroke-width="0.7" stroke-linecap="round" d="M11.99,16.486V4.777h11.34
				v11.709H11.99z"/>
			<g i:knockout="Off">
				<path i:knockout="Off" d="M19.392,12.385v0.672h-3.797c-0.005-0.169,0.022-0.332,0.083-0.488
					c0.097-0.258,0.252-0.511,0.467-0.76c0.214-0.249,0.521-0.537,0.92-0.864c0.62-0.516,1.04-0.923,1.261-1.221
					s0.332-0.58,0.332-0.849c0-0.278-0.1-0.513-0.299-0.704s-0.46-0.287-0.781-0.287c-0.339,0-0.61,0.104-0.814,0.311
					s-0.307,0.494-0.309,0.861l-0.719-0.094c0.049-0.539,0.235-0.95,0.558-1.232c0.323-0.282,0.756-0.424,1.3-0.424
					c0.549,0,0.983,0.152,1.303,0.457s0.48,0.683,0.48,1.133c0,0.229-0.047,0.455-0.14,0.676c-0.094,0.221-0.248,0.454-0.465,0.699
					c-0.216,0.245-0.576,0.581-1.081,1.009c-0.423,0.355-0.695,0.596-0.815,0.722c-0.12,0.126-0.219,0.253-0.297,0.381H19.392z"/>
			</g>
			<path i:knockout="Off" fill="none" stroke="#000000" stroke-width="0.7" stroke-linecap="round" d="M23.206,14.82H12.331"/>
			<path i:knockout="Off" fill="none" stroke="#000000" stroke-width="0.7" stroke-linecap="round" d="M23.365,16.486V4.777h11.34
				v11.709H23.365z"/>
			<g i:knockout="Off">
				<path i:knockout="Off" d="M27.087,11.557l0.719-0.094c0.08,0.393,0.215,0.676,0.405,0.85c0.19,0.173,0.425,0.26,0.707,0.26
					c0.333,0,0.611-0.115,0.835-0.344c0.223-0.229,0.335-0.514,0.335-0.853c0-0.323-0.104-0.59-0.313-0.8
					c-0.209-0.21-0.476-0.315-0.798-0.315c-0.132,0-0.296,0.026-0.492,0.078l0.078-0.625c0.046,0.005,0.083,0.008,0.112,0.008
					c0.294,0,0.56-0.077,0.795-0.232c0.235-0.155,0.354-0.394,0.354-0.717c0-0.255-0.086-0.467-0.259-0.635
					s-0.396-0.252-0.669-0.252c-0.271,0-0.497,0.086-0.677,0.258c-0.181,0.172-0.296,0.43-0.348,0.773l-0.719-0.125
					c0.086-0.471,0.28-0.836,0.584-1.096c0.304-0.259,0.682-0.389,1.134-0.389c0.312,0,0.599,0.067,0.861,0.2
					c0.262,0.134,0.463,0.315,0.602,0.546c0.139,0.231,0.208,0.476,0.208,0.735c0,0.246-0.066,0.47-0.199,0.672
					s-0.33,0.363-0.59,0.482c0.338,0.078,0.604,0.241,0.797,0.487c0.192,0.246,0.289,0.555,0.289,0.925
					c0,0.501-0.183,0.926-0.547,1.273c-0.365,0.349-0.826,0.522-1.383,0.522c-0.503,0-0.92-0.147-1.252-0.443
					S27.134,12.028,27.087,11.557z"/>
			</g>
			<path i:knockout="Off" fill="none" stroke="#000000" stroke-width="0.7" stroke-linecap="round" d="M34.581,14.82H23.706"/>
			<path i:knockout="Off" fill="none" stroke="#000000" stroke-width="0.7" stroke-linecap="round" d="M34.74,16.486V4.777h11.34
				v11.709H34.74z"/>
			<g i:knockout="Off">
				<path i:knockout="Off" d="M40.696,13.057v-1.375h-2.484v-0.641l2.625-3.719h0.563v3.719h0.781v0.641h-0.781v1.375H40.696z
					 M40.696,11.042V8.475l-1.792,2.566H40.696z"/>
			</g>
			<path i:knockout="Off" fill="none" stroke="#000000" stroke-width="0.7" stroke-linecap="round" d="M45.956,14.82H35.081"/>
			<path i:knockout="Off" fill="none" stroke="#000000" stroke-width="0.7" stroke-linecap="round" d="M46.115,16.486V4.777h11.34
				v11.709H46.115z"/>
			<g i:knockout="Off">
				<path i:knockout="Off" d="M49.821,11.557l0.719-0.063c0.055,0.358,0.182,0.627,0.379,0.808c0.198,0.181,0.441,0.271,0.729,0.271
					c0.349,0,0.639-0.127,0.871-0.382c0.232-0.254,0.348-0.592,0.348-1.013c0-0.399-0.111-0.715-0.332-0.946
					c-0.222-0.231-0.519-0.347-0.891-0.347c-0.232,0-0.438,0.051-0.617,0.152s-0.322,0.233-0.426,0.395l-0.656-0.094l0.563-2.938
					h2.844v0.672h-2.285l-0.313,1.549c0.344-0.241,0.704-0.361,1.082-0.361c0.5,0,0.922,0.173,1.266,0.519s0.516,0.791,0.516,1.334
					c0,0.518-0.151,0.965-0.453,1.343c-0.367,0.463-0.869,0.694-1.504,0.694c-0.521,0-0.946-0.146-1.275-0.437
					C50.056,12.423,49.868,12.038,49.821,11.557z"/>
			</g>
			<path i:knockout="Off" fill="none" stroke="#000000" stroke-width="0.7" stroke-linecap="round" d="M57.331,14.82H46.456"/>
			<path i:knockout="Off" fill="none" stroke="#000000" stroke-width="0.7" stroke-linecap="round" d="M57.49,16.486V4.777h11.34
				v11.709H57.49z"/>
			<g i:knockout="Off">
				<path i:knockout="Off" d="M64.868,8.729l-0.703,0.063c-0.063-0.277-0.152-0.479-0.268-0.604
					c-0.191-0.201-0.427-0.302-0.708-0.302c-0.226,0-0.426,0.063-0.602,0.187c-0.218,0.161-0.391,0.396-0.52,0.705
					c-0.128,0.309-0.195,0.75-0.2,1.323c0.17-0.258,0.378-0.449,0.623-0.574c0.246-0.125,0.503-0.188,0.773-0.188
					c0.47,0,0.871,0.173,1.202,0.518c0.331,0.345,0.496,0.791,0.496,1.338c0,0.359-0.078,0.693-0.233,1.002
					c-0.156,0.309-0.369,0.545-0.642,0.709c-0.271,0.164-0.58,0.246-0.925,0.246c-0.588,0-1.068-0.215-1.44-0.646
					c-0.371-0.431-0.557-1.14-0.557-2.129c0-1.106,0.206-1.91,0.617-2.413c0.359-0.437,0.843-0.656,1.451-0.656
					c0.453,0,0.825,0.126,1.114,0.378S64.811,8.285,64.868,8.729z M61.978,11.2c0,0.242,0.052,0.474,0.155,0.694
					c0.104,0.221,0.247,0.39,0.43,0.505c0.183,0.116,0.38,0.174,0.589,0.174c0.304,0,0.562-0.12,0.773-0.359
					s0.318-0.564,0.318-0.975c0-0.395-0.104-0.707-0.314-0.934c-0.209-0.228-0.478-0.341-0.805-0.341
					c-0.319,0-0.59,0.114-0.813,0.341C62.089,10.532,61.978,10.831,61.978,11.2z"/>
			</g>
			<path i:knockout="Off" fill="none" stroke="#000000" stroke-width="0.7" stroke-linecap="round" d="M68.706,14.82H57.831"/>
			<path i:knockout="Off" fill="none" stroke="#000000" stroke-width="0.7" stroke-linecap="round" d="M0.615,28.501V16.498h11.34
				v12.004H0.615z"/>
			<g i:knockout="Off">
				<path i:knockout="Off" d="M5.792,24.106v0.672H1.995c-0.005-0.169,0.022-0.332,0.083-0.488c0.097-0.258,0.252-0.511,0.467-0.76
					c0.214-0.249,0.521-0.537,0.92-0.864c0.62-0.516,1.04-0.923,1.261-1.221s0.332-0.58,0.332-0.849c0-0.278-0.1-0.513-0.299-0.704
					s-0.46-0.287-0.781-0.287c-0.339,0-0.61,0.104-0.814,0.311s-0.307,0.494-0.309,0.861l-0.719-0.094
					c0.049-0.539,0.235-0.95,0.558-1.232c0.323-0.282,0.756-0.424,1.3-0.424c0.549,0,0.983,0.152,1.303,0.457s0.48,0.683,0.48,1.133
					c0,0.229-0.047,0.455-0.14,0.676c-0.094,0.221-0.248,0.454-0.465,0.699c-0.216,0.245-0.576,0.581-1.081,1.009
					c-0.423,0.355-0.695,0.596-0.815,0.722c-0.12,0.126-0.219,0.253-0.297,0.381H5.792z"/>
				<path i:knockout="Off" d="M9.202,24.778H8.499v-4.48c-0.169,0.162-0.392,0.323-0.666,0.484c-0.275,0.162-0.521,0.283-0.74,0.363
					v-0.68c0.393-0.185,0.737-0.409,1.031-0.672c0.294-0.263,0.502-0.518,0.625-0.766h0.453V24.778z"/>
			</g>
			<path i:knockout="Off" fill="none" stroke="#000000" stroke-width="0.7" stroke-linecap="round" d="M11.831,26.541H0.956"/>
			<path i:knockout="Off" fill="none" stroke="#000000" stroke-width="0.7" stroke-linecap="round" d="M11.99,28.501V16.498h11.34
				v12.004H11.99z"/>
			<g i:knockout="Off">
				<path i:knockout="Off" d="M17.167,24.106v0.672H13.37c-0.005-0.169,0.022-0.332,0.083-0.488c0.097-0.258,0.252-0.511,0.467-0.76
					c0.214-0.249,0.521-0.537,0.92-0.864c0.62-0.516,1.04-0.923,1.261-1.221s0.332-0.58,0.332-0.849c0-0.278-0.1-0.513-0.299-0.704
					s-0.46-0.287-0.781-0.287c-0.339,0-0.61,0.104-0.814,0.311s-0.307,0.494-0.309,0.861l-0.719-0.094
					c0.049-0.539,0.235-0.95,0.558-1.232c0.323-0.282,0.756-0.424,1.3-0.424c0.549,0,0.983,0.152,1.303,0.457s0.48,0.683,0.48,1.133
					c0,0.229-0.047,0.455-0.14,0.676c-0.094,0.221-0.248,0.454-0.465,0.699c-0.216,0.245-0.576,0.581-1.081,1.009
					c-0.423,0.355-0.695,0.596-0.815,0.722c-0.12,0.126-0.219,0.253-0.297,0.381H17.167z"/>
				<path i:knockout="Off" d="M21.616,24.106v0.672h-3.797c-0.005-0.169,0.022-0.332,0.083-0.488
					c0.097-0.258,0.252-0.511,0.467-0.76c0.214-0.249,0.521-0.537,0.92-0.864c0.62-0.516,1.04-0.923,1.261-1.221
					s0.332-0.58,0.332-0.849c0-0.278-0.1-0.513-0.299-0.704s-0.46-0.287-0.781-0.287c-0.339,0-0.61,0.104-0.814,0.311
					s-0.307,0.494-0.309,0.861l-0.719-0.094c0.049-0.539,0.235-0.95,0.558-1.232c0.323-0.282,0.756-0.424,1.3-0.424
					c0.549,0,0.983,0.152,1.303,0.457s0.48,0.683,0.48,1.133c0,0.229-0.047,0.455-0.14,0.676c-0.094,0.221-0.248,0.454-0.465,0.699
					c-0.216,0.245-0.576,0.581-1.081,1.009c-0.423,0.355-0.695,0.596-0.815,0.722c-0.12,0.126-0.219,0.253-0.297,0.381H21.616z"/>
			</g>
			<path i:knockout="Off" fill="none" stroke="#000000" stroke-width="0.7" stroke-linecap="round" d="M23.206,26.541H12.331"/>
			<path i:knockout="Off" fill="none" stroke="#000000" stroke-width="0.7" stroke-linecap="round" d="M23.365,28.501V16.498h11.34
				v12.004H23.365z"/>
			<g i:knockout="Off">
				<path i:knockout="Off" d="M28.542,24.106v0.672h-3.797c-0.005-0.169,0.022-0.332,0.083-0.488
					c0.097-0.258,0.252-0.511,0.467-0.76c0.214-0.249,0.521-0.537,0.92-0.864c0.62-0.516,1.04-0.923,1.261-1.221
					s0.332-0.58,0.332-0.849c0-0.278-0.1-0.513-0.299-0.704s-0.46-0.287-0.781-0.287c-0.339,0-0.61,0.104-0.814,0.311
					s-0.307,0.494-0.309,0.861l-0.719-0.094c0.049-0.539,0.235-0.95,0.558-1.232c0.323-0.282,0.756-0.424,1.3-0.424
					c0.549,0,0.983,0.152,1.303,0.457s0.48,0.683,0.48,1.133c0,0.229-0.047,0.455-0.14,0.676c-0.094,0.221-0.248,0.454-0.465,0.699
					c-0.216,0.245-0.576,0.581-1.081,1.009c-0.423,0.355-0.695,0.596-0.815,0.722c-0.12,0.126-0.219,0.253-0.297,0.381H28.542z"/>
				<path i:knockout="Off" d="M29.312,23.278l0.719-0.094c0.08,0.393,0.215,0.676,0.405,0.85c0.19,0.173,0.425,0.26,0.707,0.26
					c0.333,0,0.611-0.115,0.835-0.344c0.223-0.229,0.335-0.514,0.335-0.853c0-0.323-0.104-0.59-0.313-0.8
					c-0.209-0.21-0.476-0.315-0.798-0.315c-0.132,0-0.296,0.026-0.492,0.078l0.078-0.625c0.046,0.005,0.083,0.008,0.112,0.008
					c0.294,0,0.56-0.077,0.795-0.232c0.235-0.155,0.354-0.394,0.354-0.717c0-0.255-0.086-0.467-0.259-0.635
					s-0.396-0.252-0.669-0.252c-0.271,0-0.497,0.086-0.677,0.258c-0.181,0.172-0.296,0.43-0.348,0.773l-0.719-0.125
					c0.086-0.471,0.28-0.836,0.584-1.096c0.304-0.259,0.682-0.389,1.134-0.389c0.312,0,0.599,0.067,0.861,0.2
					c0.262,0.134,0.463,0.315,0.602,0.546c0.139,0.231,0.208,0.476,0.208,0.735c0,0.246-0.066,0.47-0.199,0.672
					s-0.33,0.363-0.59,0.482c0.338,0.078,0.604,0.241,0.797,0.487c0.192,0.246,0.289,0.555,0.289,0.925
					c0,0.501-0.183,0.926-0.547,1.273c-0.365,0.349-0.826,0.522-1.383,0.522c-0.503,0-0.92-0.147-1.252-0.443
					S29.358,23.749,29.312,23.278z"/>
			</g>
			<path i:knockout="Off" fill="none" stroke="#000000" stroke-width="0.7" stroke-linecap="round" d="M34.581,26.541H23.706"/>
			<path i:knockout="Off" fill="none" stroke="#000000" stroke-width="0.7" stroke-linecap="round" d="M34.74,28.501V16.498h11.34
				v12.004H34.74z"/>
			<g i:knockout="Off">
				<path i:knockout="Off" d="M39.917,24.106v0.672H36.12c-0.005-0.169,0.022-0.332,0.083-0.488c0.097-0.258,0.252-0.511,0.467-0.76
					c0.214-0.249,0.521-0.537,0.92-0.864c0.62-0.516,1.04-0.923,1.261-1.221s0.332-0.58,0.332-0.849c0-0.278-0.1-0.513-0.299-0.704
					s-0.46-0.287-0.781-0.287c-0.339,0-0.61,0.104-0.814,0.311s-0.307,0.494-0.309,0.861l-0.719-0.094
					c0.049-0.539,0.235-0.95,0.558-1.232c0.323-0.282,0.756-0.424,1.3-0.424c0.549,0,0.983,0.152,1.303,0.457s0.48,0.683,0.48,1.133
					c0,0.229-0.047,0.455-0.14,0.676c-0.094,0.221-0.248,0.454-0.465,0.699c-0.216,0.245-0.576,0.581-1.081,1.009
					c-0.423,0.355-0.695,0.596-0.815,0.722c-0.12,0.126-0.219,0.253-0.297,0.381H39.917z"/>
				<path i:knockout="Off" d="M42.921,24.778v-1.375h-2.484v-0.641l2.625-3.719h0.563v3.719h0.781v0.641h-0.781v1.375H42.921z
					 M42.921,22.762v-2.566l-1.792,2.566H42.921z"/>
			</g>
			<path i:knockout="Off" fill="none" stroke="#000000" stroke-width="0.7" stroke-linecap="round" d="M45.956,26.541H35.081"/>
			<path i:knockout="Off" fill="none" stroke="#000000" stroke-width="0.7" stroke-linecap="round" d="M46.115,28.501V16.498h11.34
				v12.004H46.115z"/>
			<g i:knockout="Off">
				<path i:knockout="Off" d="M51.292,24.106v0.672h-3.797c-0.005-0.169,0.022-0.332,0.083-0.488
					c0.097-0.258,0.252-0.511,0.467-0.76c0.214-0.249,0.521-0.537,0.92-0.864c0.62-0.516,1.04-0.923,1.261-1.221
					s0.332-0.58,0.332-0.849c0-0.278-0.1-0.513-0.299-0.704s-0.46-0.287-0.781-0.287c-0.339,0-0.61,0.104-0.814,0.311
					s-0.307,0.494-0.309,0.861l-0.719-0.094c0.049-0.539,0.235-0.95,0.558-1.232c0.323-0.282,0.756-0.424,1.3-0.424
					c0.549,0,0.983,0.152,1.303,0.457s0.48,0.683,0.48,1.133c0,0.229-0.047,0.455-0.14,0.676c-0.094,0.221-0.248,0.454-0.465,0.699
					c-0.216,0.245-0.576,0.581-1.081,1.009c-0.423,0.355-0.695,0.596-0.815,0.722c-0.12,0.126-0.219,0.253-0.297,0.381H51.292z"/>
				<path i:knockout="Off" d="M52.046,23.278l0.719-0.063c0.055,0.358,0.182,0.627,0.379,0.808c0.198,0.181,0.441,0.271,0.729,0.271
					c0.349,0,0.639-0.127,0.871-0.382c0.232-0.254,0.348-0.592,0.348-1.013c0-0.399-0.111-0.715-0.332-0.946
					c-0.222-0.231-0.519-0.347-0.891-0.347c-0.232,0-0.438,0.051-0.617,0.152s-0.322,0.233-0.426,0.395l-0.656-0.094l0.563-2.938
					h2.844v0.672h-2.285l-0.313,1.549c0.344-0.241,0.704-0.361,1.082-0.361c0.5,0,0.922,0.173,1.266,0.519s0.516,0.791,0.516,1.334
					c0,0.518-0.151,0.965-0.453,1.343c-0.367,0.463-0.869,0.694-1.504,0.694c-0.521,0-0.946-0.146-1.275-0.437
					C52.281,24.144,52.093,23.758,52.046,23.278z"/>
			</g>
			<path i:knockout="Off" fill="none" stroke="#000000" stroke-width="0.7" stroke-linecap="round" d="M57.331,26.541H46.456"/>
			<path i:knockout="Off" fill="none" stroke="#000000" stroke-width="0.7" stroke-linecap="round" d="M57.49,28.501V16.498h11.34
				v12.004H57.49z"/>
			<g i:knockout="Off">
				<path i:knockout="Off" d="M62.667,24.106v0.672H58.87c-0.005-0.169,0.022-0.332,0.083-0.488c0.097-0.258,0.252-0.511,0.467-0.76
					c0.214-0.249,0.521-0.537,0.92-0.864c0.62-0.516,1.04-0.923,1.261-1.221s0.332-0.58,0.332-0.849c0-0.278-0.1-0.513-0.299-0.704
					s-0.46-0.287-0.781-0.287c-0.339,0-0.61,0.104-0.814,0.311s-0.307,0.494-0.309,0.861l-0.719-0.094
					c0.049-0.539,0.235-0.95,0.558-1.232c0.323-0.282,0.756-0.424,1.3-0.424c0.549,0,0.983,0.152,1.303,0.457s0.48,0.683,0.48,1.133
					c0,0.229-0.047,0.455-0.14,0.676c-0.094,0.221-0.248,0.454-0.465,0.699c-0.216,0.245-0.576,0.581-1.081,1.009
					c-0.423,0.355-0.695,0.596-0.815,0.722c-0.12,0.126-0.219,0.253-0.297,0.381H62.667z"/>
				<path i:knockout="Off" d="M67.093,20.45l-0.703,0.063c-0.063-0.277-0.152-0.479-0.268-0.604
					c-0.191-0.201-0.427-0.302-0.708-0.302c-0.226,0-0.426,0.063-0.602,0.187c-0.218,0.161-0.391,0.396-0.52,0.705
					c-0.128,0.309-0.195,0.75-0.2,1.323c0.17-0.258,0.378-0.449,0.623-0.574c0.246-0.125,0.503-0.188,0.773-0.188
					c0.47,0,0.871,0.173,1.202,0.518c0.331,0.345,0.496,0.791,0.496,1.338c0,0.359-0.078,0.693-0.233,1.002
					c-0.156,0.309-0.369,0.545-0.642,0.709c-0.271,0.164-0.58,0.246-0.925,0.246c-0.588,0-1.068-0.215-1.44-0.646
					c-0.371-0.431-0.557-1.14-0.557-2.129c0-1.106,0.206-1.91,0.617-2.413c0.359-0.437,0.843-0.656,1.451-0.656
					c0.453,0,0.825,0.126,1.114,0.378S67.035,20.005,67.093,20.45z M64.202,22.92c0,0.242,0.052,0.474,0.155,0.694
					c0.104,0.221,0.247,0.39,0.43,0.505c0.183,0.116,0.38,0.174,0.589,0.174c0.304,0,0.562-0.12,0.773-0.359
					s0.318-0.564,0.318-0.975c0-0.395-0.104-0.707-0.314-0.934c-0.209-0.228-0.478-0.341-0.805-0.341
					c-0.319,0-0.59,0.114-0.813,0.341C64.313,22.253,64.202,22.551,64.202,22.92z"/>
			</g>
			<path i:knockout="Off" fill="none" stroke="#000000" stroke-width="0.7" stroke-linecap="round" d="M68.706,26.541H57.831"/>
			<path i:knockout="Off" fill="none" stroke="#000000" stroke-width="0.7" stroke-linecap="round" d="M68.865,16.486V4.777h11.34
				v11.709H68.865z"/>
			<g i:knockout="Off">
				<path i:knockout="Off" d="M72.618,8.073V7.401h3.703v0.544c-0.365,0.388-0.728,0.904-1.086,1.548
					c-0.359,0.645-0.636,1.307-0.832,1.988c-0.141,0.48-0.231,1.005-0.27,1.577h-0.719c0.008-0.451,0.096-0.996,0.265-1.635
					s0.411-1.255,0.727-1.849c0.315-0.593,0.651-1.093,1.008-1.5H72.618z"/>
			</g>
			<path i:knockout="Off" fill="none" stroke="#000000" stroke-width="0.7" stroke-linecap="round" d="M80.081,14.82H69.206"/>
			<path i:knockout="Off" fill="none" stroke="#000000" stroke-width="0.7" stroke-linecap="round" d="M68.865,28.501V16.498h11.34
				v12.004H68.865z"/>
			<g i:knockout="Off">
				<path i:knockout="Off" d="M74.042,24.106v0.672h-3.797c-0.005-0.169,0.022-0.332,0.083-0.488
					c0.097-0.258,0.252-0.511,0.467-0.76c0.214-0.249,0.521-0.537,0.92-0.864c0.62-0.516,1.04-0.923,1.261-1.221
					s0.332-0.58,0.332-0.849c0-0.278-0.1-0.513-0.299-0.704s-0.46-0.287-0.781-0.287c-0.339,0-0.61,0.104-0.814,0.311
					s-0.307,0.494-0.309,0.861l-0.719-0.094c0.049-0.539,0.235-0.95,0.558-1.232c0.323-0.282,0.756-0.424,1.3-0.424
					c0.549,0,0.983,0.152,1.303,0.457s0.48,0.683,0.48,1.133c0,0.229-0.047,0.455-0.14,0.676c-0.094,0.221-0.248,0.454-0.465,0.699
					c-0.216,0.245-0.576,0.581-1.081,1.009c-0.423,0.355-0.695,0.596-0.815,0.722c-0.12,0.126-0.219,0.253-0.297,0.381H74.042z"/>
				<path i:knockout="Off" d="M74.843,19.793v-0.672h3.703v0.544c-0.365,0.388-0.728,0.904-1.086,1.548
					c-0.359,0.645-0.636,1.307-0.832,1.988c-0.141,0.48-0.231,1.005-0.27,1.577H75.64c0.008-0.451,0.096-0.996,0.265-1.635
					s0.411-1.255,0.727-1.849c0.315-0.593,0.651-1.093,1.008-1.5H74.843z"/>
			</g>
			<path i:knockout="Off" fill="none" stroke="#000000" stroke-width="0.7" stroke-linecap="round" d="M80.081,26.541H69.206"/>
			<path i:knockout="Off" fill="none" stroke="#000000" stroke-width="0.7" stroke-linecap="round" d="M80.24,16.486V4.777h11.34
				v11.709H80.24z"/>
			<g i:knockout="Off">
				<path i:knockout="Off" d="M85.04,9.954c-0.292-0.106-0.507-0.259-0.648-0.457s-0.211-0.436-0.211-0.712
					c0-0.417,0.149-0.767,0.447-1.051c0.299-0.284,0.696-0.426,1.191-0.426c0.498,0,0.899,0.146,1.203,0.436
					s0.456,0.644,0.456,1.061c0,0.266-0.069,0.497-0.208,0.694c-0.139,0.196-0.349,0.349-0.631,0.455
					c0.35,0.114,0.617,0.299,0.799,0.554s0.274,0.559,0.274,0.912c0,0.489-0.173,0.899-0.519,1.232s-0.8,0.499-1.364,0.499
					s-1.019-0.167-1.364-0.501s-0.519-0.75-0.519-1.25c0-0.371,0.095-0.683,0.284-0.934S84.689,10.044,85.04,9.954z M84.665,11.405
					c0,0.2,0.046,0.394,0.139,0.58c0.092,0.187,0.233,0.332,0.423,0.434c0.189,0.103,0.393,0.154,0.608,0.154
					c0.341,0,0.619-0.107,0.834-0.323c0.216-0.215,0.324-0.489,0.324-0.821c0-0.337-0.111-0.616-0.333-0.837
					s-0.505-0.331-0.848-0.331c-0.335,0-0.61,0.109-0.825,0.327S84.665,11.078,84.665,11.405z M84.899,8.76
					c0,0.271,0.085,0.492,0.257,0.664c0.171,0.172,0.398,0.258,0.681,0.258c0.275,0,0.497-0.085,0.667-0.256
					c0.17-0.17,0.255-0.379,0.255-0.627c0-0.258-0.088-0.475-0.263-0.65s-0.397-0.264-0.667-0.264c-0.272,0-0.495,0.086-0.669,0.258
					S84.899,8.521,84.899,8.76z"/>
			</g>
			<path i:knockout="Off" fill="none" stroke="#000000" stroke-width="0.7" stroke-linecap="round" d="M91.456,14.82H80.581"/>
			<path i:knockout="Off" fill="none" stroke="#000000" stroke-width="0.7" stroke-linecap="round" d="M80.24,28.501V16.498h11.34
				v12.004H80.24z"/>
			<g i:knockout="Off">
				<path i:knockout="Off" d="M85.417,24.106v0.672H81.62c-0.005-0.169,0.022-0.332,0.083-0.488c0.097-0.258,0.252-0.511,0.467-0.76
					c0.214-0.249,0.521-0.537,0.92-0.864c0.62-0.516,1.04-0.923,1.261-1.221s0.332-0.58,0.332-0.849c0-0.278-0.1-0.513-0.299-0.704
					s-0.46-0.287-0.781-0.287c-0.339,0-0.61,0.104-0.814,0.311s-0.307,0.494-0.309,0.861l-0.719-0.094
					c0.049-0.539,0.235-0.95,0.558-1.232c0.323-0.282,0.756-0.424,1.3-0.424c0.549,0,0.983,0.152,1.303,0.457s0.48,0.683,0.48,1.133
					c0,0.229-0.047,0.455-0.14,0.676c-0.094,0.221-0.248,0.454-0.465,0.699c-0.216,0.245-0.576,0.581-1.081,1.009
					c-0.423,0.355-0.695,0.596-0.815,0.722c-0.12,0.126-0.219,0.253-0.297,0.381H85.417z"/>
				<path i:knockout="Off" d="M87.264,21.674c-0.292-0.106-0.507-0.259-0.648-0.457s-0.211-0.436-0.211-0.712
					c0-0.417,0.149-0.767,0.447-1.051c0.299-0.284,0.696-0.426,1.191-0.426c0.498,0,0.899,0.146,1.203,0.436
					s0.456,0.644,0.456,1.061c0,0.266-0.069,0.497-0.208,0.694c-0.139,0.196-0.349,0.349-0.631,0.455
					c0.35,0.114,0.617,0.299,0.799,0.554s0.274,0.559,0.274,0.912c0,0.489-0.173,0.899-0.519,1.232s-0.8,0.499-1.364,0.499
					s-1.019-0.167-1.364-0.501s-0.519-0.75-0.519-1.25c0-0.371,0.095-0.683,0.284-0.934S86.914,21.765,87.264,21.674z M86.89,23.125
					c0,0.2,0.046,0.394,0.139,0.58c0.092,0.187,0.233,0.332,0.423,0.434c0.189,0.103,0.393,0.154,0.608,0.154
					c0.341,0,0.619-0.107,0.834-0.323c0.216-0.215,0.324-0.489,0.324-0.821c0-0.337-0.111-0.616-0.333-0.837
					s-0.505-0.331-0.848-0.331c-0.335,0-0.61,0.109-0.825,0.327S86.89,22.798,86.89,23.125z M87.124,20.481
					c0,0.271,0.085,0.492,0.257,0.664c0.171,0.172,0.398,0.258,0.681,0.258c0.275,0,0.497-0.085,0.667-0.256
					c0.17-0.17,0.255-0.379,0.255-0.627c0-0.258-0.088-0.475-0.263-0.65s-0.397-0.264-0.667-0.264c-0.272,0-0.495,0.086-0.669,0.258
					S87.124,20.242,87.124,20.481z"/>
			</g>
			<path i:knockout="Off" fill="none" stroke="#000000" stroke-width="0.7" stroke-linecap="round" d="M91.456,26.541H80.581"/>
			<path i:knockout="Off" fill="none" stroke="#000000" stroke-width="0.7" stroke-linecap="round" d="M91.615,16.486V4.777h11.34
				v11.709H91.615z"/>
			<g i:knockout="Off">
				<path i:knockout="Off" d="M95.415,11.729l0.672-0.063c0.057,0.318,0.167,0.548,0.328,0.691c0.161,0.144,0.368,0.215,0.621,0.215
					c0.216,0,0.407-0.049,0.572-0.147c0.165-0.099,0.299-0.23,0.4-0.395s0.188-0.387,0.258-0.667c0.07-0.28,0.105-0.565,0.105-0.857
					c0-0.031-0.001-0.078-0.004-0.141c-0.14,0.224-0.331,0.406-0.573,0.545c-0.242,0.14-0.505,0.209-0.787,0.209
					c-0.472,0-0.871-0.172-1.197-0.516c-0.326-0.344-0.489-0.797-0.489-1.361c0-0.581,0.171-1.049,0.514-1.404
					c0.342-0.354,0.771-0.532,1.287-0.532c0.372,0,0.713,0.101,1.021,0.301s0.543,0.486,0.703,0.856
					c0.16,0.371,0.24,0.908,0.24,1.61c0,0.731-0.08,1.313-0.239,1.747s-0.396,0.763-0.711,0.989c-0.315,0.227-0.684,0.34-1.107,0.34
					c-0.449,0-0.816-0.124-1.101-0.373C95.644,12.529,95.473,12.18,95.415,11.729z M98.306,9.204c0-0.404-0.106-0.725-0.319-0.962
					c-0.212-0.237-0.473-0.356-0.78-0.356c-0.318,0-0.592,0.128-0.822,0.384c-0.229,0.255-0.344,0.586-0.344,0.993
					c0,0.365,0.109,0.662,0.327,0.89s0.491,0.342,0.82,0.342c0.326,0,0.594-0.114,0.804-0.342S98.306,9.608,98.306,9.204z"/>
			</g>
			<path i:knockout="Off" fill="none" stroke="#000000" stroke-width="0.7" stroke-linecap="round" d="M102.83,14.82H91.956"/>
			<path i:knockout="Off" fill="none" stroke="#000000" stroke-width="0.7" stroke-linecap="round" d="M91.615,28.501V16.498h11.34
				v12.004H91.615z"/>
			<g i:knockout="Off">
				<path i:knockout="Off" d="M96.792,24.106v0.672h-3.797c-0.005-0.169,0.022-0.332,0.083-0.488
					c0.097-0.258,0.252-0.511,0.467-0.76c0.214-0.249,0.521-0.537,0.92-0.864c0.62-0.516,1.04-0.923,1.261-1.221
					s0.332-0.58,0.332-0.849c0-0.278-0.1-0.513-0.299-0.704s-0.46-0.287-0.781-0.287c-0.339,0-0.61,0.104-0.814,0.311
					s-0.307,0.494-0.309,0.861l-0.719-0.094c0.049-0.539,0.235-0.95,0.558-1.232c0.323-0.282,0.756-0.424,1.3-0.424
					c0.549,0,0.983,0.152,1.303,0.457s0.48,0.683,0.48,1.133c0,0.229-0.047,0.455-0.14,0.676c-0.094,0.221-0.248,0.454-0.465,0.699
					c-0.216,0.245-0.576,0.581-1.081,1.009c-0.423,0.355-0.695,0.596-0.815,0.722c-0.12,0.126-0.219,0.253-0.297,0.381H96.792z"/>
				<path i:knockout="Off" d="M97.64,23.45l0.672-0.063c0.057,0.318,0.167,0.548,0.328,0.691c0.161,0.144,0.368,0.215,0.621,0.215
					c0.216,0,0.407-0.049,0.572-0.147s0.299-0.23,0.4-0.395s0.188-0.387,0.258-0.667c0.07-0.28,0.105-0.565,0.105-0.857
					c0-0.031-0.001-0.078-0.004-0.141c-0.14,0.224-0.331,0.406-0.573,0.545c-0.242,0.14-0.505,0.209-0.787,0.209
					c-0.472,0-0.871-0.172-1.197-0.516c-0.326-0.344-0.489-0.797-0.489-1.361c0-0.581,0.171-1.049,0.514-1.404
					c0.342-0.354,0.771-0.532,1.287-0.532c0.372,0,0.713,0.101,1.021,0.301s0.543,0.486,0.703,0.856
					c0.16,0.371,0.24,0.908,0.24,1.61c0,0.731-0.08,1.313-0.239,1.747s-0.396,0.763-0.711,0.989c-0.315,0.227-0.684,0.34-1.107,0.34
					c-0.449,0-0.816-0.124-1.101-0.373C97.868,24.25,97.697,23.9,97.64,23.45z M100.53,20.924c0-0.404-0.106-0.725-0.319-0.962
					s-0.473-0.356-0.78-0.356c-0.318,0-0.593,0.128-0.822,0.384c-0.229,0.255-0.344,0.586-0.344,0.993
					c0,0.365,0.109,0.662,0.327,0.89c0.217,0.228,0.491,0.342,0.82,0.342c0.326,0,0.595-0.114,0.804-0.342
					C100.426,21.645,100.53,21.329,100.53,20.924z"/>
			</g>
			<path i:knockout="Off" fill="none" stroke="#000000" stroke-width="0.7" stroke-linecap="round" d="M102.83,26.541H91.956"/>
			<path i:knockout="Off" fill="none" stroke="#000000" stroke-width="0.7" stroke-linecap="round" d="M102.99,16.486V4.777h11.34
				v11.709H102.99z"/>
			<g i:knockout="Off">
				<path i:knockout="Off" d="M107.128,13.057h-0.703v-4.48c-0.169,0.162-0.392,0.323-0.666,0.484
					c-0.274,0.162-0.521,0.283-0.74,0.363v-0.68c0.394-0.185,0.737-0.409,1.031-0.672c0.294-0.263,0.503-0.518,0.625-0.766h0.453
					V13.057z"/>
				<path i:knockout="Off" d="M108.921,10.231c0-0.677,0.07-1.223,0.211-1.638c0.14-0.415,0.349-0.733,0.626-0.954
					c0.277-0.222,0.626-0.332,1.046-0.332c0.31,0,0.583,0.062,0.819,0.186s0.43,0.302,0.579,0.535s0.268,0.517,0.354,0.851
					c0.086,0.334,0.13,0.785,0.13,1.353c0,0.671-0.069,1.215-0.209,1.63c-0.139,0.415-0.347,0.734-0.624,0.956
					c-0.277,0.223-0.627,0.334-1.05,0.334c-0.557,0-0.994-0.195-1.312-0.585C109.111,12.084,108.921,11.306,108.921,10.231z
					 M109.64,10.229c0,0.945,0.112,1.572,0.336,1.881s0.499,0.463,0.828,0.463c0.328,0,0.604-0.155,0.828-0.465
					c0.224-0.31,0.336-0.936,0.336-1.879c0-0.942-0.111-1.569-0.334-1.879c-0.223-0.31-0.502-0.465-0.838-0.465
					c-0.329,0-0.592,0.137-0.791,0.41C109.762,8.645,109.64,9.289,109.64,10.229z"/>
			</g>
			<path i:knockout="Off" fill="none" stroke="#000000" stroke-width="0.7" stroke-linecap="round" d="M114.205,14.82H103.33"/>
			<path i:knockout="Off" fill="none" stroke="#000000" stroke-width="0.7" stroke-linecap="round" d="M102.99,28.501V16.498h11.34
				v12.004H102.99z"/>
			<g i:knockout="Off">
				<path i:knockout="Off" d="M104.487,23.278l0.719-0.094c0.08,0.393,0.215,0.676,0.405,0.85c0.189,0.173,0.425,0.26,0.706,0.26
					c0.333,0,0.611-0.115,0.835-0.344c0.223-0.229,0.335-0.514,0.335-0.853c0-0.323-0.104-0.59-0.313-0.8s-0.476-0.315-0.798-0.315
					c-0.132,0-0.296,0.026-0.492,0.078l0.077-0.625c0.047,0.005,0.084,0.008,0.112,0.008c0.294,0,0.56-0.077,0.795-0.232
					c0.235-0.155,0.354-0.394,0.354-0.717c0-0.255-0.087-0.467-0.259-0.635c-0.174-0.168-0.396-0.252-0.67-0.252
					c-0.271,0-0.496,0.086-0.676,0.258c-0.182,0.172-0.297,0.43-0.349,0.773l-0.719-0.125c0.086-0.471,0.28-0.836,0.585-1.096
					c0.304-0.259,0.682-0.389,1.134-0.389c0.312,0,0.599,0.067,0.861,0.2c0.263,0.134,0.463,0.315,0.603,0.546
					c0.139,0.231,0.208,0.476,0.208,0.735c0,0.246-0.066,0.47-0.199,0.672s-0.329,0.363-0.59,0.482
					c0.339,0.078,0.604,0.241,0.797,0.487c0.192,0.246,0.289,0.555,0.289,0.925c0,0.501-0.183,0.926-0.547,1.273
					c-0.364,0.349-0.825,0.522-1.383,0.522c-0.503,0-0.92-0.147-1.252-0.443S104.534,23.749,104.487,23.278z"/>
				<path i:knockout="Off" d="M108.921,21.952c0-0.677,0.07-1.223,0.211-1.638c0.14-0.415,0.349-0.733,0.626-0.954
					c0.277-0.222,0.626-0.332,1.046-0.332c0.31,0,0.583,0.062,0.819,0.186s0.43,0.302,0.579,0.535s0.268,0.517,0.354,0.851
					c0.086,0.334,0.13,0.785,0.13,1.353c0,0.671-0.069,1.215-0.209,1.63c-0.139,0.415-0.347,0.734-0.624,0.956
					c-0.277,0.223-0.627,0.334-1.05,0.334c-0.557,0-0.994-0.195-1.312-0.585C109.111,23.805,108.921,23.027,108.921,21.952z
					 M109.64,21.95c0,0.945,0.112,1.572,0.336,1.881s0.499,0.463,0.828,0.463c0.328,0,0.604-0.155,0.828-0.465
					c0.224-0.31,0.336-0.936,0.336-1.879c0-0.942-0.111-1.569-0.334-1.879c-0.223-0.31-0.502-0.465-0.838-0.465
					c-0.329,0-0.592,0.137-0.791,0.41C109.762,20.365,109.64,21.01,109.64,21.95z"/>
			</g>
			<path i:knockout="Off" fill="none" stroke="#000000" stroke-width="0.7" stroke-linecap="round" d="M114.205,26.541H103.33"/>
			<path i:knockout="Off" fill="none" stroke="#000000" stroke-width="0.7" stroke-linecap="round" d="M114.365,16.486V4.777h11.34
				v11.709H114.365z"/>
			<g i:knockout="Off">
				<path i:knockout="Off" d="M118.503,13.057H117.8v-4.48c-0.169,0.162-0.392,0.323-0.666,0.484
					c-0.274,0.162-0.521,0.283-0.74,0.363v-0.68c0.394-0.185,0.737-0.409,1.031-0.672c0.294-0.263,0.503-0.518,0.625-0.766h0.453
					V13.057z"/>
				<path i:knockout="Off" d="M122.952,13.057h-0.703v-4.48c-0.169,0.162-0.392,0.323-0.666,0.484
					c-0.274,0.162-0.521,0.283-0.74,0.363v-0.68c0.394-0.185,0.737-0.409,1.031-0.672c0.294-0.263,0.503-0.518,0.625-0.766h0.453
					V13.057z"/>
			</g>
			<path i:knockout="Off" fill="none" stroke="#000000" stroke-width="0.7" stroke-linecap="round" d="M125.58,14.82h-10.875"/>
			<path i:knockout="Off" fill="none" stroke="#000000" stroke-width="0.7" stroke-linecap="round" d="M114.365,28.501V16.498h11.34
				v12.004H114.365z"/>
			<g i:knockout="Off">
				<path i:knockout="Off" d="M115.862,23.278l0.719-0.094c0.08,0.393,0.215,0.676,0.405,0.85c0.189,0.173,0.425,0.26,0.706,0.26
					c0.333,0,0.611-0.115,0.835-0.344c0.223-0.229,0.335-0.514,0.335-0.853c0-0.323-0.104-0.59-0.313-0.8s-0.476-0.315-0.798-0.315
					c-0.132,0-0.296,0.026-0.492,0.078l0.077-0.625c0.047,0.005,0.084,0.008,0.112,0.008c0.294,0,0.56-0.077,0.795-0.232
					c0.235-0.155,0.354-0.394,0.354-0.717c0-0.255-0.087-0.467-0.259-0.635c-0.174-0.168-0.396-0.252-0.67-0.252
					c-0.271,0-0.496,0.086-0.676,0.258c-0.182,0.172-0.297,0.43-0.349,0.773l-0.719-0.125c0.086-0.471,0.28-0.836,0.585-1.096
					c0.304-0.259,0.682-0.389,1.134-0.389c0.312,0,0.599,0.067,0.861,0.2c0.263,0.134,0.463,0.315,0.603,0.546
					c0.139,0.231,0.208,0.476,0.208,0.735c0,0.246-0.066,0.47-0.199,0.672s-0.329,0.363-0.59,0.482
					c0.339,0.078,0.604,0.241,0.797,0.487c0.192,0.246,0.289,0.555,0.289,0.925c0,0.501-0.183,0.926-0.547,1.273
					c-0.364,0.349-0.825,0.522-1.383,0.522c-0.503,0-0.92-0.147-1.252-0.443S115.909,23.749,115.862,23.278z"/>
				<path i:knockout="Off" d="M122.952,24.778h-0.703v-4.48c-0.169,0.162-0.392,0.323-0.666,0.484
					c-0.274,0.162-0.521,0.283-0.74,0.363v-0.68c0.394-0.185,0.737-0.409,1.031-0.672c0.294-0.263,0.503-0.518,0.625-0.766h0.453
					V24.778z"/>
			</g>
			<path i:knockout="Off" fill="none" stroke="#000000" stroke-width="0.7" stroke-linecap="round" d="M125.58,26.541h-10.875"/>
			<path i:knockout="Off" fill="none" stroke="#000000" stroke-width="0.7" stroke-linecap="round" d="M125.74,16.486V4.777h11.34
				v11.709H125.74z"/>
			<g i:knockout="Off">
				<path i:knockout="Off" d="M129.878,13.057h-0.703v-4.48c-0.169,0.162-0.392,0.323-0.666,0.484
					c-0.274,0.162-0.521,0.283-0.74,0.363v-0.68c0.394-0.185,0.737-0.409,1.031-0.672c0.294-0.263,0.503-0.518,0.625-0.766h0.453
					V13.057z"/>
				<path i:knockout="Off" d="M135.366,12.385v0.672h-3.797c-0.005-0.169,0.022-0.332,0.083-0.488
					c0.097-0.258,0.252-0.511,0.467-0.76c0.214-0.249,0.521-0.537,0.92-0.864c0.62-0.516,1.04-0.923,1.262-1.221
					c0.221-0.298,0.331-0.58,0.331-0.849c0-0.278-0.1-0.513-0.3-0.704c-0.199-0.191-0.459-0.287-0.78-0.287
					c-0.339,0-0.61,0.104-0.813,0.311c-0.204,0.208-0.307,0.494-0.31,0.861l-0.719-0.094c0.05-0.539,0.235-0.95,0.558-1.232
					c0.322-0.282,0.756-0.424,1.3-0.424c0.549,0,0.983,0.152,1.304,0.457c0.319,0.305,0.479,0.683,0.479,1.133
					c0,0.229-0.047,0.455-0.14,0.676c-0.094,0.221-0.248,0.454-0.465,0.699c-0.216,0.245-0.576,0.581-1.08,1.009
					c-0.424,0.355-0.695,0.596-0.815,0.722s-0.219,0.253-0.297,0.381H135.366z"/>
			</g>
			<path i:knockout="Off" fill="none" stroke="#000000" stroke-width="0.7" stroke-linecap="round" d="M136.955,14.82H126.08"/>
			<path i:knockout="Off" fill="none" stroke="#000000" stroke-width="0.7" stroke-linecap="round" d="M125.74,28.501V16.498h11.34
				v12.004H125.74z"/>
			<g i:knockout="Off">
				<path i:knockout="Off" d="M127.237,23.278l0.719-0.094c0.08,0.393,0.215,0.676,0.405,0.85c0.189,0.173,0.425,0.26,0.706,0.26
					c0.333,0,0.611-0.115,0.835-0.344c0.223-0.229,0.335-0.514,0.335-0.853c0-0.323-0.104-0.59-0.313-0.8s-0.476-0.315-0.798-0.315
					c-0.132,0-0.296,0.026-0.492,0.078l0.077-0.625c0.047,0.005,0.084,0.008,0.112,0.008c0.294,0,0.56-0.077,0.795-0.232
					c0.235-0.155,0.354-0.394,0.354-0.717c0-0.255-0.087-0.467-0.259-0.635c-0.174-0.168-0.396-0.252-0.67-0.252
					c-0.271,0-0.496,0.086-0.676,0.258c-0.182,0.172-0.297,0.43-0.349,0.773l-0.719-0.125c0.086-0.471,0.28-0.836,0.585-1.096
					c0.304-0.259,0.682-0.389,1.134-0.389c0.312,0,0.599,0.067,0.861,0.2c0.263,0.134,0.463,0.315,0.603,0.546
					c0.139,0.231,0.208,0.476,0.208,0.735c0,0.246-0.066,0.47-0.199,0.672s-0.329,0.363-0.59,0.482
					c0.339,0.078,0.604,0.241,0.797,0.487c0.192,0.246,0.289,0.555,0.289,0.925c0,0.501-0.183,0.926-0.547,1.273
					c-0.364,0.349-0.825,0.522-1.383,0.522c-0.503,0-0.92-0.147-1.252-0.443S127.284,23.749,127.237,23.278z"/>
				<path i:knockout="Off" d="M135.366,24.106v0.672h-3.797c-0.005-0.169,0.022-0.332,0.083-0.488
					c0.097-0.258,0.252-0.511,0.467-0.76c0.214-0.249,0.521-0.537,0.92-0.864c0.62-0.516,1.04-0.923,1.262-1.221
					c0.221-0.298,0.331-0.58,0.331-0.849c0-0.278-0.1-0.513-0.3-0.704c-0.199-0.191-0.459-0.287-0.78-0.287
					c-0.339,0-0.61,0.104-0.813,0.311c-0.204,0.208-0.307,0.494-0.31,0.861l-0.719-0.094c0.05-0.539,0.235-0.95,0.558-1.232
					c0.322-0.282,0.756-0.424,1.3-0.424c0.549,0,0.983,0.152,1.304,0.457c0.319,0.305,0.479,0.683,0.479,1.133
					c0,0.229-0.047,0.455-0.14,0.676c-0.094,0.221-0.248,0.454-0.465,0.699c-0.216,0.245-0.576,0.581-1.08,1.009
					c-0.424,0.355-0.695,0.596-0.815,0.722s-0.219,0.253-0.297,0.381H135.366z"/>
			</g>
			<path i:knockout="Off" fill="none" stroke="#000000" stroke-width="0.7" stroke-linecap="round" d="M136.955,26.541H126.08"/>
			<path i:knockout="Off" fill="none" stroke="#000000" stroke-width="0.7" stroke-linecap="round" d="M137.115,16.486V4.777h11.34
				v11.709H137.115z"/>
			<g i:knockout="Off">
				<path i:knockout="Off" d="M141.253,13.057h-0.703v-4.48c-0.169,0.162-0.392,0.323-0.666,0.484
					c-0.274,0.162-0.521,0.283-0.74,0.363v-0.68c0.394-0.185,0.737-0.409,1.031-0.672c0.294-0.263,0.503-0.518,0.625-0.766h0.453
					V13.057z"/>
				<path i:knockout="Off" d="M143.062,11.557l0.719-0.094c0.08,0.393,0.215,0.676,0.405,0.85c0.189,0.173,0.425,0.26,0.706,0.26
					c0.333,0,0.611-0.115,0.835-0.344c0.223-0.229,0.335-0.514,0.335-0.853c0-0.323-0.104-0.59-0.313-0.8s-0.476-0.315-0.798-0.315
					c-0.132,0-0.296,0.026-0.492,0.078l0.077-0.625c0.047,0.005,0.084,0.008,0.112,0.008c0.294,0,0.56-0.077,0.795-0.232
					c0.235-0.155,0.354-0.394,0.354-0.717c0-0.255-0.087-0.467-0.259-0.635c-0.174-0.168-0.396-0.252-0.67-0.252
					c-0.271,0-0.496,0.086-0.676,0.258c-0.182,0.172-0.297,0.43-0.349,0.773l-0.719-0.125c0.086-0.471,0.28-0.836,0.585-1.096
					c0.304-0.259,0.682-0.389,1.134-0.389c0.312,0,0.599,0.067,0.861,0.2c0.263,0.134,0.463,0.315,0.603,0.546
					c0.139,0.231,0.208,0.476,0.208,0.735c0,0.246-0.066,0.47-0.199,0.672s-0.329,0.363-0.59,0.482
					c0.339,0.078,0.604,0.241,0.797,0.487c0.192,0.246,0.289,0.555,0.289,0.925c0,0.501-0.183,0.926-0.547,1.273
					c-0.364,0.349-0.825,0.522-1.383,0.522c-0.503,0-0.92-0.147-1.252-0.443S143.108,12.028,143.062,11.557z"/>
			</g>
			<path i:knockout="Off" fill="none" stroke="#000000" stroke-width="0.7" stroke-linecap="round" d="M148.33,14.82h-10.875"/>
			<path i:knockout="Off" fill="none" stroke="#000000" stroke-width="0.7" stroke-linecap="round" d="M137.115,28.501V16.498h11.34
				v12.004H137.115z"/>
			<g i:knockout="Off">
				<path i:knockout="Off" d="M138.612,23.278l0.719-0.094c0.08,0.393,0.215,0.676,0.405,0.85c0.189,0.173,0.425,0.26,0.706,0.26
					c0.333,0,0.611-0.115,0.835-0.344c0.223-0.229,0.335-0.514,0.335-0.853c0-0.323-0.104-0.59-0.313-0.8s-0.476-0.315-0.798-0.315
					c-0.132,0-0.296,0.026-0.492,0.078l0.077-0.625c0.047,0.005,0.084,0.008,0.112,0.008c0.294,0,0.56-0.077,0.795-0.232
					c0.235-0.155,0.354-0.394,0.354-0.717c0-0.255-0.087-0.467-0.259-0.635c-0.174-0.168-0.396-0.252-0.67-0.252
					c-0.271,0-0.496,0.086-0.676,0.258c-0.182,0.172-0.297,0.43-0.349,0.773l-0.719-0.125c0.086-0.471,0.28-0.836,0.585-1.096
					c0.304-0.259,0.682-0.389,1.134-0.389c0.312,0,0.599,0.067,0.861,0.2c0.263,0.134,0.463,0.315,0.603,0.546
					c0.139,0.231,0.208,0.476,0.208,0.735c0,0.246-0.066,0.47-0.199,0.672s-0.329,0.363-0.59,0.482
					c0.339,0.078,0.604,0.241,0.797,0.487c0.192,0.246,0.289,0.555,0.289,0.925c0,0.501-0.183,0.926-0.547,1.273
					c-0.364,0.349-0.825,0.522-1.383,0.522c-0.503,0-0.92-0.147-1.252-0.443S138.659,23.749,138.612,23.278z"/>
				<path i:knockout="Off" d="M143.062,23.278l0.719-0.094c0.08,0.393,0.215,0.676,0.405,0.85c0.189,0.173,0.425,0.26,0.706,0.26
					c0.333,0,0.611-0.115,0.835-0.344c0.223-0.229,0.335-0.514,0.335-0.853c0-0.323-0.104-0.59-0.313-0.8s-0.476-0.315-0.798-0.315
					c-0.132,0-0.296,0.026-0.492,0.078l0.077-0.625c0.047,0.005,0.084,0.008,0.112,0.008c0.294,0,0.56-0.077,0.795-0.232
					c0.235-0.155,0.354-0.394,0.354-0.717c0-0.255-0.087-0.467-0.259-0.635c-0.174-0.168-0.396-0.252-0.67-0.252
					c-0.271,0-0.496,0.086-0.676,0.258c-0.182,0.172-0.297,0.43-0.349,0.773l-0.719-0.125c0.086-0.471,0.28-0.836,0.585-1.096
					c0.304-0.259,0.682-0.389,1.134-0.389c0.312,0,0.599,0.067,0.861,0.2c0.263,0.134,0.463,0.315,0.603,0.546
					c0.139,0.231,0.208,0.476,0.208,0.735c0,0.246-0.066,0.47-0.199,0.672s-0.329,0.363-0.59,0.482
					c0.339,0.078,0.604,0.241,0.797,0.487c0.192,0.246,0.289,0.555,0.289,0.925c0,0.501-0.183,0.926-0.547,1.273
					c-0.364,0.349-0.825,0.522-1.383,0.522c-0.503,0-0.92-0.147-1.252-0.443S143.108,23.749,143.062,23.278z"/>
			</g>
			<path i:knockout="Off" fill="none" stroke="#000000" stroke-width="0.7" stroke-linecap="round" d="M148.33,26.541h-10.875"/>
			<path i:knockout="Off" fill="none" stroke="#000000" stroke-width="0.7" stroke-linecap="round" d="M148.49,16.486V4.777h11.34
				v11.709H148.49z"/>
			<g i:knockout="Off">
				<path i:knockout="Off" d="M152.628,13.057h-0.703v-4.48c-0.169,0.162-0.392,0.323-0.666,0.484
					c-0.274,0.162-0.521,0.283-0.74,0.363v-0.68c0.394-0.185,0.737-0.409,1.031-0.672c0.294-0.263,0.503-0.518,0.625-0.766h0.453
					V13.057z"/>
				<path i:knockout="Off" d="M156.671,13.057v-1.375h-2.484v-0.641l2.625-3.719h0.563v3.719h0.781v0.641h-0.781v1.375H156.671z
					 M156.671,11.042V8.475l-1.792,2.566H156.671z"/>
			</g>
			<path i:knockout="Off" fill="none" stroke="#000000" stroke-width="0.7" stroke-linecap="round" d="M159.705,14.82H148.83"/>
			<path i:knockout="Off" fill="none" stroke="#000000" stroke-width="0.7" stroke-linecap="round" d="M148.49,28.501V16.498h11.34
				v12.004H148.49z"/>
			<g i:knockout="Off">
				<path i:knockout="Off" d="M149.987,23.278l0.719-0.094c0.08,0.393,0.215,0.676,0.405,0.85c0.189,0.173,0.425,0.26,0.706,0.26
					c0.333,0,0.611-0.115,0.835-0.344c0.223-0.229,0.335-0.514,0.335-0.853c0-0.323-0.104-0.59-0.313-0.8s-0.476-0.315-0.798-0.315
					c-0.132,0-0.296,0.026-0.492,0.078l0.077-0.625c0.047,0.005,0.084,0.008,0.112,0.008c0.294,0,0.56-0.077,0.795-0.232
					c0.235-0.155,0.354-0.394,0.354-0.717c0-0.255-0.087-0.467-0.259-0.635c-0.174-0.168-0.396-0.252-0.67-0.252
					c-0.271,0-0.496,0.086-0.676,0.258c-0.182,0.172-0.297,0.43-0.349,0.773l-0.719-0.125c0.086-0.471,0.28-0.836,0.585-1.096
					c0.304-0.259,0.682-0.389,1.134-0.389c0.312,0,0.599,0.067,0.861,0.2c0.263,0.134,0.463,0.315,0.603,0.546
					c0.139,0.231,0.208,0.476,0.208,0.735c0,0.246-0.066,0.47-0.199,0.672s-0.329,0.363-0.59,0.482
					c0.339,0.078,0.604,0.241,0.797,0.487c0.192,0.246,0.289,0.555,0.289,0.925c0,0.501-0.183,0.926-0.547,1.273
					c-0.364,0.349-0.825,0.522-1.383,0.522c-0.503,0-0.92-0.147-1.252-0.443S150.034,23.749,149.987,23.278z"/>
				<path i:knockout="Off" d="M156.671,24.778v-1.375h-2.484v-0.641l2.625-3.719h0.563v3.719h0.781v0.641h-0.781v1.375H156.671z
					 M156.671,22.762v-2.566l-1.792,2.566H156.671z"/>
			</g>
			<path i:knockout="Off" fill="none" stroke="#000000" stroke-width="0.7" stroke-linecap="round" d="M159.705,26.541H148.83"/>
			<path i:knockout="Off" fill="none" stroke="#000000" stroke-width="0.7" stroke-linecap="round" d="M159.865,16.486V4.777h11.34
				v11.709H159.865z"/>
			<g i:knockout="Off">
				<path i:knockout="Off" d="M164.003,13.057H163.3v-4.48c-0.169,0.162-0.392,0.323-0.666,0.484
					c-0.274,0.162-0.521,0.283-0.74,0.363v-0.68c0.394-0.185,0.737-0.409,1.031-0.672c0.294-0.263,0.503-0.518,0.625-0.766h0.453
					V13.057z"/>
				<path i:knockout="Off" d="M165.796,11.557l0.719-0.063c0.055,0.358,0.182,0.627,0.38,0.808c0.197,0.181,0.44,0.271,0.729,0.271
					c0.35,0,0.64-0.127,0.871-0.382c0.232-0.254,0.349-0.592,0.349-1.013c0-0.399-0.11-0.715-0.332-0.946
					c-0.222-0.231-0.519-0.347-0.891-0.347c-0.231,0-0.438,0.051-0.617,0.152s-0.321,0.233-0.426,0.395l-0.656-0.094l0.563-2.938
					h2.844v0.672h-2.285l-0.313,1.549c0.344-0.241,0.704-0.361,1.082-0.361c0.5,0,0.922,0.173,1.266,0.519s0.516,0.791,0.516,1.334
					c0,0.518-0.151,0.965-0.453,1.343c-0.367,0.463-0.868,0.694-1.504,0.694c-0.521,0-0.946-0.146-1.275-0.437
					S165.843,12.038,165.796,11.557z"/>
			</g>
			<path i:knockout="Off" fill="none" stroke="#000000" stroke-width="0.7" stroke-linecap="round" d="M171.08,14.82h-10.875"/>
			<path i:knockout="Off" fill="none" stroke="#000000" stroke-width="0.7" stroke-linecap="round" d="M159.865,28.501V16.498h11.34
				v12.004H159.865z"/>
			<g i:knockout="Off">
				<path i:knockout="Off" d="M161.362,23.278l0.719-0.094c0.08,0.393,0.215,0.676,0.405,0.85c0.189,0.173,0.425,0.26,0.706,0.26
					c0.333,0,0.611-0.115,0.835-0.344c0.223-0.229,0.335-0.514,0.335-0.853c0-0.323-0.104-0.59-0.313-0.8s-0.476-0.315-0.798-0.315
					c-0.132,0-0.296,0.026-0.492,0.078l0.077-0.625c0.047,0.005,0.084,0.008,0.112,0.008c0.294,0,0.56-0.077,0.795-0.232
					c0.235-0.155,0.354-0.394,0.354-0.717c0-0.255-0.087-0.467-0.259-0.635c-0.174-0.168-0.396-0.252-0.67-0.252
					c-0.271,0-0.496,0.086-0.676,0.258c-0.182,0.172-0.297,0.43-0.349,0.773l-0.719-0.125c0.086-0.471,0.28-0.836,0.585-1.096
					c0.304-0.259,0.682-0.389,1.134-0.389c0.312,0,0.599,0.067,0.861,0.2c0.263,0.134,0.463,0.315,0.603,0.546
					c0.139,0.231,0.208,0.476,0.208,0.735c0,0.246-0.066,0.47-0.199,0.672s-0.329,0.363-0.59,0.482
					c0.339,0.078,0.604,0.241,0.797,0.487c0.192,0.246,0.289,0.555,0.289,0.925c0,0.501-0.183,0.926-0.547,1.273
					c-0.364,0.349-0.825,0.522-1.383,0.522c-0.503,0-0.92-0.147-1.252-0.443S161.409,23.749,161.362,23.278z"/>
				<path i:knockout="Off" d="M165.796,23.278l0.719-0.063c0.055,0.358,0.182,0.627,0.38,0.808c0.197,0.181,0.44,0.271,0.729,0.271
					c0.35,0,0.64-0.127,0.871-0.382c0.232-0.254,0.349-0.592,0.349-1.013c0-0.399-0.11-0.715-0.332-0.946
					c-0.222-0.231-0.519-0.347-0.891-0.347c-0.231,0-0.438,0.051-0.617,0.152s-0.321,0.233-0.426,0.395l-0.656-0.094l0.563-2.938
					h2.844v0.672h-2.285l-0.313,1.549c0.344-0.241,0.704-0.361,1.082-0.361c0.5,0,0.922,0.173,1.266,0.519s0.516,0.791,0.516,1.334
					c0,0.518-0.151,0.965-0.453,1.343c-0.367,0.463-0.868,0.694-1.504,0.694c-0.521,0-0.946-0.146-1.275-0.437
					S165.843,23.758,165.796,23.278z"/>
			</g>
			<path i:knockout="Off" fill="none" stroke="#000000" stroke-width="0.7" stroke-linecap="round" d="M171.08,26.541h-10.875"/>
			<path i:knockout="Off" fill="none" stroke="#000000" stroke-width="0.7" stroke-linecap="round" d="M171.24,16.486V4.777h11.34
				v11.709H171.24z"/>
			<g i:knockout="Off">
				<path i:knockout="Off" d="M175.378,13.057h-0.703v-4.48c-0.169,0.162-0.392,0.323-0.666,0.484
					c-0.274,0.162-0.521,0.283-0.74,0.363v-0.68c0.394-0.185,0.737-0.409,1.031-0.672c0.294-0.263,0.503-0.518,0.625-0.766h0.453
					V13.057z"/>
				<path i:knockout="Off" d="M180.843,8.729l-0.703,0.063c-0.063-0.277-0.152-0.479-0.268-0.604
					c-0.191-0.201-0.427-0.302-0.708-0.302c-0.226,0-0.426,0.063-0.602,0.187c-0.218,0.161-0.391,0.396-0.52,0.705
					c-0.128,0.309-0.195,0.75-0.2,1.323c0.17-0.258,0.378-0.449,0.623-0.574c0.246-0.125,0.503-0.188,0.772-0.188
					c0.471,0,0.871,0.173,1.202,0.518c0.331,0.345,0.496,0.791,0.496,1.338c0,0.359-0.078,0.693-0.233,1.002
					c-0.156,0.309-0.369,0.545-0.642,0.709c-0.271,0.164-0.58,0.246-0.925,0.246c-0.589,0-1.068-0.215-1.44-0.646
					c-0.371-0.431-0.557-1.14-0.557-2.129c0-1.106,0.206-1.91,0.617-2.413c0.358-0.437,0.843-0.656,1.45-0.656
					c0.453,0,0.825,0.126,1.115,0.378C180.611,7.937,180.785,8.285,180.843,8.729z M177.952,11.2c0,0.242,0.052,0.474,0.155,0.694
					c0.104,0.221,0.246,0.39,0.43,0.505c0.184,0.116,0.38,0.174,0.589,0.174c0.304,0,0.562-0.12,0.773-0.359
					s0.318-0.564,0.318-0.975c0-0.395-0.104-0.707-0.314-0.934c-0.209-0.228-0.478-0.341-0.805-0.341
					c-0.319,0-0.591,0.114-0.813,0.341C178.063,10.532,177.952,10.831,177.952,11.2z"/>
			</g>
			<path i:knockout="Off" fill="none" stroke="#000000" stroke-width="0.7" stroke-linecap="round" d="M182.455,14.82H171.58"/>
			<path i:knockout="Off" fill="none" stroke="#000000" stroke-width="0.7" stroke-linecap="round" d="M171.24,28.501V16.498h11.34
				v12.004H171.24z"/>
			<g i:knockout="Off">
				<path i:knockout="Off" d="M172.737,23.278l0.719-0.094c0.08,0.393,0.215,0.676,0.405,0.85c0.189,0.173,0.425,0.26,0.706,0.26
					c0.333,0,0.611-0.115,0.835-0.344c0.223-0.229,0.335-0.514,0.335-0.853c0-0.323-0.104-0.59-0.313-0.8s-0.476-0.315-0.798-0.315
					c-0.132,0-0.296,0.026-0.492,0.078l0.077-0.625c0.047,0.005,0.084,0.008,0.112,0.008c0.294,0,0.56-0.077,0.795-0.232
					c0.235-0.155,0.354-0.394,0.354-0.717c0-0.255-0.087-0.467-0.259-0.635c-0.174-0.168-0.396-0.252-0.67-0.252
					c-0.271,0-0.496,0.086-0.676,0.258c-0.182,0.172-0.297,0.43-0.349,0.773l-0.719-0.125c0.086-0.471,0.28-0.836,0.585-1.096
					c0.304-0.259,0.682-0.389,1.134-0.389c0.312,0,0.599,0.067,0.861,0.2c0.263,0.134,0.463,0.315,0.603,0.546
					c0.139,0.231,0.208,0.476,0.208,0.735c0,0.246-0.066,0.47-0.199,0.672s-0.329,0.363-0.59,0.482
					c0.339,0.078,0.604,0.241,0.797,0.487c0.192,0.246,0.289,0.555,0.289,0.925c0,0.501-0.183,0.926-0.547,1.273
					c-0.364,0.349-0.825,0.522-1.383,0.522c-0.503,0-0.92-0.147-1.252-0.443S172.784,23.749,172.737,23.278z"/>
				<path i:knockout="Off" d="M180.843,20.45l-0.703,0.063c-0.063-0.277-0.152-0.479-0.268-0.604
					c-0.191-0.201-0.427-0.302-0.708-0.302c-0.226,0-0.426,0.063-0.602,0.187c-0.218,0.161-0.391,0.396-0.52,0.705
					c-0.128,0.309-0.195,0.75-0.2,1.323c0.17-0.258,0.378-0.449,0.623-0.574c0.246-0.125,0.503-0.188,0.772-0.188
					c0.471,0,0.871,0.173,1.202,0.518c0.331,0.345,0.496,0.791,0.496,1.338c0,0.359-0.078,0.693-0.233,1.002
					c-0.156,0.309-0.369,0.545-0.642,0.709c-0.271,0.164-0.58,0.246-0.925,0.246c-0.589,0-1.068-0.215-1.44-0.646
					c-0.371-0.431-0.557-1.14-0.557-2.129c0-1.106,0.206-1.91,0.617-2.413c0.358-0.437,0.843-0.656,1.45-0.656
					c0.453,0,0.825,0.126,1.115,0.378C180.611,19.658,180.785,20.005,180.843,20.45z M177.952,22.92
					c0,0.242,0.052,0.474,0.155,0.694c0.104,0.221,0.246,0.39,0.43,0.505c0.184,0.116,0.38,0.174,0.589,0.174
					c0.304,0,0.562-0.12,0.773-0.359s0.318-0.564,0.318-0.975c0-0.395-0.104-0.707-0.314-0.934
					c-0.209-0.228-0.478-0.341-0.805-0.341c-0.319,0-0.591,0.114-0.813,0.341C178.063,22.253,177.952,22.551,177.952,22.92z"/>
			</g>
			<path i:knockout="Off" fill="none" stroke="#000000" stroke-width="0.7" stroke-linecap="round" d="M182.455,26.541H171.58"/>
			<path i:knockout="Off" fill="none" stroke="#000000" stroke-width="0.7" stroke-linecap="round" d="M182.553,16.486V4.777h11.34
				v11.709H182.553z"/>
			<g i:knockout="Off">
				<path i:knockout="Off" d="M186.69,13.057h-0.703v-4.48c-0.169,0.162-0.392,0.323-0.666,0.484
					c-0.274,0.162-0.521,0.283-0.74,0.363v-0.68c0.394-0.185,0.737-0.409,1.031-0.672c0.294-0.263,0.503-0.518,0.625-0.766h0.453
					V13.057z"/>
				<path i:knockout="Off" d="M188.53,8.073V7.401h3.703v0.544c-0.365,0.388-0.728,0.904-1.086,1.548
					c-0.358,0.645-0.636,1.307-0.831,1.988c-0.142,0.48-0.231,1.005-0.271,1.577h-0.719c0.008-0.451,0.097-0.996,0.265-1.635
					c0.17-0.639,0.412-1.255,0.728-1.849s0.651-1.093,1.008-1.5H188.53z"/>
			</g>
			<path i:knockout="Off" fill="none" stroke="#000000" stroke-width="0.7" stroke-linecap="round" d="M193.768,14.82h-10.875"/>
			<path i:knockout="Off" fill="none" stroke="#000000" stroke-width="0.7" stroke-linecap="round" d="M182.553,28.501V16.498h11.34
				v12.004H182.553z"/>
			<g i:knockout="Off">
				<path i:knockout="Off" d="M184.05,23.278l0.719-0.094c0.08,0.393,0.215,0.676,0.405,0.85c0.189,0.173,0.425,0.26,0.706,0.26
					c0.333,0,0.611-0.115,0.835-0.344c0.223-0.229,0.335-0.514,0.335-0.853c0-0.323-0.104-0.59-0.313-0.8s-0.476-0.315-0.798-0.315
					c-0.132,0-0.296,0.026-0.492,0.078l0.077-0.625c0.047,0.005,0.084,0.008,0.112,0.008c0.294,0,0.56-0.077,0.795-0.232
					c0.235-0.155,0.354-0.394,0.354-0.717c0-0.255-0.087-0.467-0.259-0.635c-0.174-0.168-0.396-0.252-0.67-0.252
					c-0.271,0-0.496,0.086-0.676,0.258c-0.182,0.172-0.297,0.43-0.349,0.773l-0.719-0.125c0.086-0.471,0.28-0.836,0.585-1.096
					c0.304-0.259,0.682-0.389,1.134-0.389c0.312,0,0.599,0.067,0.861,0.2c0.263,0.134,0.463,0.315,0.603,0.546
					c0.139,0.231,0.208,0.476,0.208,0.735c0,0.246-0.066,0.47-0.199,0.672s-0.329,0.363-0.59,0.482
					c0.339,0.078,0.604,0.241,0.797,0.487c0.192,0.246,0.289,0.555,0.289,0.925c0,0.501-0.183,0.926-0.547,1.273
					c-0.364,0.349-0.825,0.522-1.383,0.522c-0.503,0-0.92-0.147-1.252-0.443S184.097,23.749,184.05,23.278z"/>
				<path i:knockout="Off" d="M188.53,19.793v-0.672h3.703v0.544c-0.365,0.388-0.728,0.904-1.086,1.548
					c-0.358,0.645-0.636,1.307-0.831,1.988c-0.142,0.48-0.231,1.005-0.271,1.577h-0.719c0.008-0.451,0.097-0.996,0.265-1.635
					c0.17-0.639,0.412-1.255,0.728-1.849s0.651-1.093,1.008-1.5H188.53z"/>
			</g>
			<path i:knockout="Off" fill="none" stroke="#000000" stroke-width="0.7" stroke-linecap="round" d="M193.768,26.541h-10.875"/>
			<path i:knockout="Off" fill="none" stroke="#000000" stroke-width="0.7" stroke-linecap="round" d="M193.865,16.486V4.777h11.34
				v11.709H193.865z"/>
			<g i:knockout="Off">
				<path i:knockout="Off" d="M198.003,13.057H197.3v-4.48c-0.169,0.162-0.392,0.323-0.666,0.484
					c-0.274,0.162-0.521,0.283-0.74,0.363v-0.68c0.394-0.185,0.737-0.409,1.031-0.672c0.294-0.263,0.503-0.518,0.625-0.766h0.453
					V13.057z"/>
				<path i:knockout="Off" d="M200.889,9.954c-0.291-0.106-0.507-0.259-0.647-0.457s-0.211-0.436-0.211-0.712
					c0-0.417,0.149-0.767,0.447-1.051c0.299-0.284,0.696-0.426,1.191-0.426c0.498,0,0.899,0.146,1.202,0.436
					c0.305,0.291,0.456,0.644,0.456,1.061c0,0.266-0.069,0.497-0.208,0.694c-0.139,0.196-0.35,0.349-0.631,0.455
					c0.35,0.114,0.616,0.299,0.799,0.554s0.274,0.559,0.274,0.912c0,0.489-0.173,0.899-0.519,1.232s-0.801,0.499-1.364,0.499
					s-1.019-0.167-1.364-0.501s-0.519-0.75-0.519-1.25c0-0.371,0.095-0.683,0.284-0.934S200.539,10.044,200.889,9.954z
					 M200.515,11.405c0,0.2,0.046,0.394,0.139,0.58c0.092,0.187,0.233,0.332,0.423,0.434s0.393,0.154,0.608,0.154
					c0.341,0,0.618-0.107,0.835-0.323c0.215-0.215,0.323-0.489,0.323-0.821c0-0.337-0.111-0.616-0.333-0.837
					c-0.223-0.221-0.506-0.331-0.849-0.331c-0.335,0-0.61,0.109-0.825,0.327C200.622,10.805,200.515,11.078,200.515,11.405z
					 M200.749,8.76c0,0.271,0.085,0.492,0.257,0.664c0.171,0.172,0.398,0.258,0.681,0.258c0.274,0,0.497-0.085,0.667-0.256
					c0.17-0.17,0.255-0.379,0.255-0.627c0-0.258-0.088-0.475-0.263-0.65s-0.397-0.264-0.667-0.264c-0.272,0-0.495,0.086-0.669,0.258
					S200.749,8.521,200.749,8.76z"/>
			</g>
			<path i:knockout="Off" fill="none" stroke="#000000" stroke-width="0.7" stroke-linecap="round" d="M205.08,14.82h-10.875"/>
			<path i:knockout="Off" fill="none" stroke="#000000" stroke-width="0.7" stroke-linecap="round" d="M193.865,28.501V16.498h11.34
				v12.004H193.865z"/>
			<g i:knockout="Off">
				<path i:knockout="Off" d="M195.362,23.278l0.719-0.094c0.08,0.393,0.215,0.676,0.405,0.85c0.189,0.173,0.425,0.26,0.706,0.26
					c0.333,0,0.611-0.115,0.835-0.344c0.223-0.229,0.335-0.514,0.335-0.853c0-0.323-0.104-0.59-0.313-0.8s-0.476-0.315-0.798-0.315
					c-0.132,0-0.296,0.026-0.492,0.078l0.077-0.625c0.047,0.005,0.084,0.008,0.112,0.008c0.294,0,0.56-0.077,0.795-0.232
					c0.235-0.155,0.354-0.394,0.354-0.717c0-0.255-0.087-0.467-0.259-0.635c-0.174-0.168-0.396-0.252-0.67-0.252
					c-0.271,0-0.496,0.086-0.676,0.258c-0.182,0.172-0.297,0.43-0.349,0.773l-0.719-0.125c0.086-0.471,0.28-0.836,0.585-1.096
					c0.304-0.259,0.682-0.389,1.134-0.389c0.312,0,0.599,0.067,0.861,0.2c0.263,0.134,0.463,0.315,0.603,0.546
					c0.139,0.231,0.208,0.476,0.208,0.735c0,0.246-0.066,0.47-0.199,0.672s-0.329,0.363-0.59,0.482
					c0.339,0.078,0.604,0.241,0.797,0.487c0.192,0.246,0.289,0.555,0.289,0.925c0,0.501-0.183,0.926-0.547,1.273
					c-0.364,0.349-0.825,0.522-1.383,0.522c-0.503,0-0.92-0.147-1.252-0.443S195.409,23.749,195.362,23.278z"/>
				<path i:knockout="Off" d="M200.889,21.674c-0.291-0.106-0.507-0.259-0.647-0.457s-0.211-0.436-0.211-0.712
					c0-0.417,0.149-0.767,0.447-1.051c0.299-0.284,0.696-0.426,1.191-0.426c0.498,0,0.899,0.146,1.202,0.436
					c0.305,0.291,0.456,0.644,0.456,1.061c0,0.266-0.069,0.497-0.208,0.694c-0.139,0.196-0.35,0.349-0.631,0.455
					c0.35,0.114,0.616,0.299,0.799,0.554s0.274,0.559,0.274,0.912c0,0.489-0.173,0.899-0.519,1.232s-0.801,0.499-1.364,0.499
					s-1.019-0.167-1.364-0.501s-0.519-0.75-0.519-1.25c0-0.371,0.095-0.683,0.284-0.934S200.539,21.765,200.889,21.674z
					 M200.515,23.125c0,0.2,0.046,0.394,0.139,0.58c0.092,0.187,0.233,0.332,0.423,0.434s0.393,0.154,0.608,0.154
					c0.341,0,0.618-0.107,0.835-0.323c0.215-0.215,0.323-0.489,0.323-0.821c0-0.337-0.111-0.616-0.333-0.837
					c-0.223-0.221-0.506-0.331-0.849-0.331c-0.335,0-0.61,0.109-0.825,0.327C200.622,22.526,200.515,22.798,200.515,23.125z
					 M200.749,20.481c0,0.271,0.085,0.492,0.257,0.664c0.171,0.172,0.398,0.258,0.681,0.258c0.274,0,0.497-0.085,0.667-0.256
					c0.17-0.17,0.255-0.379,0.255-0.627c0-0.258-0.088-0.475-0.263-0.65s-0.397-0.264-0.667-0.264c-0.272,0-0.495,0.086-0.669,0.258
					S200.749,20.242,200.749,20.481z"/>
			</g>
			<path i:knockout="Off" fill="none" stroke="#000000" stroke-width="0.7" stroke-linecap="round" d="M205.08,26.541h-10.875"/>
			<path i:knockout="Off" fill="none" stroke="#000000" stroke-width="0.7" stroke-linecap="round" d="M205.178,16.486V4.777h11.34
				v11.709H205.178z"/>
			<g i:knockout="Off">
				<path i:knockout="Off" d="M209.315,13.057h-0.703v-4.48c-0.169,0.162-0.392,0.323-0.666,0.484
					c-0.274,0.162-0.521,0.283-0.74,0.363v-0.68c0.394-0.185,0.737-0.409,1.031-0.672c0.294-0.263,0.503-0.518,0.625-0.766h0.453
					V13.057z"/>
				<path i:knockout="Off" d="M211.202,11.729l0.672-0.063c0.058,0.318,0.167,0.548,0.328,0.691
					c0.161,0.144,0.368,0.215,0.621,0.215c0.216,0,0.407-0.049,0.572-0.147s0.299-0.23,0.4-0.395s0.188-0.387,0.258-0.667
					c0.07-0.28,0.105-0.565,0.105-0.857c0-0.031-0.001-0.078-0.004-0.141c-0.14,0.224-0.331,0.406-0.573,0.545
					c-0.242,0.14-0.505,0.209-0.787,0.209c-0.472,0-0.871-0.172-1.197-0.516s-0.489-0.797-0.489-1.361
					c0-0.581,0.171-1.049,0.514-1.404s0.771-0.532,1.287-0.532c0.372,0,0.713,0.101,1.021,0.301s0.543,0.486,0.703,0.856
					c0.16,0.371,0.24,0.908,0.24,1.61c0,0.731-0.08,1.313-0.239,1.747s-0.396,0.763-0.711,0.989c-0.315,0.227-0.684,0.34-1.107,0.34
					c-0.449,0-0.816-0.124-1.102-0.373C211.431,12.529,211.26,12.18,211.202,11.729z M214.093,9.204
					c0-0.404-0.106-0.725-0.319-0.962s-0.473-0.356-0.78-0.356c-0.318,0-0.593,0.128-0.821,0.384
					c-0.23,0.255-0.345,0.586-0.345,0.993c0,0.365,0.108,0.662,0.327,0.89c0.217,0.228,0.49,0.342,0.819,0.342
					c0.326,0,0.595-0.114,0.804-0.342C213.988,9.924,214.093,9.608,214.093,9.204z"/>
			</g>
			<path i:knockout="Off" fill="none" stroke="#000000" stroke-width="0.7" stroke-linecap="round" d="M216.393,14.82h-10.875"/>
			<path i:knockout="Off" fill="none" stroke="#000000" stroke-width="0.7" stroke-linecap="round" d="M205.178,28.501V16.498h11.34
				v12.004H205.178z"/>
			<g i:knockout="Off">
				<path i:knockout="Off" d="M206.675,23.278l0.719-0.094c0.08,0.393,0.215,0.676,0.405,0.85c0.189,0.173,0.425,0.26,0.706,0.26
					c0.333,0,0.611-0.115,0.835-0.344c0.223-0.229,0.335-0.514,0.335-0.853c0-0.323-0.104-0.59-0.313-0.8s-0.476-0.315-0.798-0.315
					c-0.132,0-0.296,0.026-0.492,0.078l0.077-0.625c0.047,0.005,0.084,0.008,0.112,0.008c0.294,0,0.56-0.077,0.795-0.232
					c0.235-0.155,0.354-0.394,0.354-0.717c0-0.255-0.087-0.467-0.259-0.635c-0.174-0.168-0.396-0.252-0.67-0.252
					c-0.271,0-0.496,0.086-0.676,0.258c-0.182,0.172-0.297,0.43-0.349,0.773l-0.719-0.125c0.086-0.471,0.28-0.836,0.585-1.096
					c0.304-0.259,0.682-0.389,1.134-0.389c0.312,0,0.599,0.067,0.861,0.2c0.263,0.134,0.463,0.315,0.603,0.546
					c0.139,0.231,0.208,0.476,0.208,0.735c0,0.246-0.066,0.47-0.199,0.672s-0.329,0.363-0.59,0.482
					c0.339,0.078,0.604,0.241,0.797,0.487c0.192,0.246,0.289,0.555,0.289,0.925c0,0.501-0.183,0.926-0.547,1.273
					c-0.364,0.349-0.825,0.522-1.383,0.522c-0.503,0-0.92-0.147-1.252-0.443S206.722,23.749,206.675,23.278z"/>
				<path i:knockout="Off" d="M211.202,23.45l0.672-0.063c0.058,0.318,0.167,0.548,0.328,0.691c0.161,0.144,0.368,0.215,0.621,0.215
					c0.216,0,0.407-0.049,0.572-0.147s0.299-0.23,0.4-0.395s0.188-0.387,0.258-0.667c0.07-0.28,0.105-0.565,0.105-0.857
					c0-0.031-0.001-0.078-0.004-0.141c-0.14,0.224-0.331,0.406-0.573,0.545c-0.242,0.14-0.505,0.209-0.787,0.209
					c-0.472,0-0.871-0.172-1.197-0.516s-0.489-0.797-0.489-1.361c0-0.581,0.171-1.049,0.514-1.404s0.771-0.532,1.287-0.532
					c0.372,0,0.713,0.101,1.021,0.301s0.543,0.486,0.703,0.856c0.16,0.371,0.24,0.908,0.24,1.61c0,0.731-0.08,1.313-0.239,1.747
					s-0.396,0.763-0.711,0.989c-0.315,0.227-0.684,0.34-1.107,0.34c-0.449,0-0.816-0.124-1.102-0.373
					C211.431,24.25,211.26,23.9,211.202,23.45z M214.093,20.924c0-0.404-0.106-0.725-0.319-0.962s-0.473-0.356-0.78-0.356
					c-0.318,0-0.593,0.128-0.821,0.384c-0.23,0.255-0.345,0.586-0.345,0.993c0,0.365,0.108,0.662,0.327,0.89
					c0.217,0.228,0.49,0.342,0.819,0.342c0.326,0,0.595-0.114,0.804-0.342C213.988,21.645,214.093,21.329,214.093,20.924z"/>
			</g>
			<path i:knockout="Off" fill="none" stroke="#000000" stroke-width="0.7" stroke-linecap="round" d="M216.393,26.541h-10.875"/>
			<path i:knockout="Off" fill="none" stroke="#000000" stroke-width="0.7" stroke-linecap="round" d="M216.49,16.486V4.777h11.34
				v11.709H216.49z"/>
			<g i:knockout="Off">
				<path i:knockout="Off" d="M221.667,12.385v0.672h-3.797c-0.005-0.169,0.022-0.332,0.083-0.488
					c0.097-0.258,0.252-0.511,0.467-0.76c0.214-0.249,0.521-0.537,0.92-0.864c0.62-0.516,1.04-0.923,1.262-1.221
					c0.221-0.298,0.331-0.58,0.331-0.849c0-0.278-0.1-0.513-0.3-0.704c-0.199-0.191-0.459-0.287-0.78-0.287
					c-0.339,0-0.61,0.104-0.813,0.311c-0.204,0.208-0.307,0.494-0.31,0.861l-0.719-0.094c0.05-0.539,0.235-0.95,0.558-1.232
					c0.322-0.282,0.756-0.424,1.3-0.424c0.549,0,0.983,0.152,1.304,0.457c0.319,0.305,0.479,0.683,0.479,1.133
					c0,0.229-0.047,0.455-0.14,0.676c-0.094,0.221-0.248,0.454-0.465,0.699c-0.216,0.245-0.576,0.581-1.08,1.009
					c-0.424,0.355-0.695,0.596-0.815,0.722s-0.219,0.253-0.297,0.381H221.667z"/>
				<path i:knockout="Off" d="M222.421,10.231c0-0.677,0.07-1.223,0.211-1.638c0.14-0.415,0.349-0.733,0.626-0.954
					c0.277-0.222,0.626-0.332,1.046-0.332c0.31,0,0.583,0.062,0.819,0.186s0.43,0.302,0.579,0.535s0.268,0.517,0.354,0.851
					c0.086,0.334,0.13,0.785,0.13,1.353c0,0.671-0.069,1.215-0.209,1.63c-0.139,0.415-0.347,0.734-0.624,0.956
					c-0.277,0.223-0.627,0.334-1.05,0.334c-0.557,0-0.994-0.195-1.312-0.585C222.611,12.084,222.421,11.306,222.421,10.231z
					 M223.14,10.229c0,0.945,0.112,1.572,0.336,1.881s0.499,0.463,0.828,0.463c0.328,0,0.604-0.155,0.828-0.465
					c0.224-0.31,0.336-0.936,0.336-1.879c0-0.942-0.111-1.569-0.334-1.879c-0.223-0.31-0.502-0.465-0.838-0.465
					c-0.329,0-0.592,0.137-0.791,0.41C223.262,8.645,223.14,9.289,223.14,10.229z"/>
			</g>
			<path i:knockout="Off" fill="none" stroke="#000000" stroke-width="0.7" stroke-linecap="round" d="M227.705,14.82H216.83"/>
			<path i:knockout="Off" fill="none" stroke="#000000" stroke-width="0.7" stroke-linecap="round" d="M216.49,28.501V16.498h11.34
				v12.004H216.49z"/>
			<g i:knockout="Off">
				<path i:knockout="Off" d="M220.222,24.778v-1.375h-2.484v-0.641l2.625-3.719h0.563v3.719h0.781v0.641h-0.781v1.375H220.222z
					 M220.222,22.762v-2.566l-1.792,2.566H220.222z"/>
				<path i:knockout="Off" d="M222.421,21.952c0-0.677,0.07-1.223,0.211-1.638c0.14-0.415,0.349-0.733,0.626-0.954
					c0.277-0.222,0.626-0.332,1.046-0.332c0.31,0,0.583,0.062,0.819,0.186s0.43,0.302,0.579,0.535s0.268,0.517,0.354,0.851
					c0.086,0.334,0.13,0.785,0.13,1.353c0,0.671-0.069,1.215-0.209,1.63c-0.139,0.415-0.347,0.734-0.624,0.956
					c-0.277,0.223-0.627,0.334-1.05,0.334c-0.557,0-0.994-0.195-1.312-0.585C222.611,23.805,222.421,23.027,222.421,21.952z
					 M223.14,21.95c0,0.945,0.112,1.572,0.336,1.881s0.499,0.463,0.828,0.463c0.328,0,0.604-0.155,0.828-0.465
					c0.224-0.31,0.336-0.936,0.336-1.879c0-0.942-0.111-1.569-0.334-1.879c-0.223-0.31-0.502-0.465-0.838-0.465
					c-0.329,0-0.592,0.137-0.791,0.41C223.262,20.365,223.14,21.01,223.14,21.95z"/>
			</g>
			<path i:knockout="Off" fill="none" stroke="#000000" stroke-width="0.7" stroke-linecap="round" d="M227.705,26.541H216.83"/>
			<g>
				<g>
					<g>
						<path i:knockout="Off" fill="none" stroke="#000000" stroke-width="1.2" stroke-linecap="round" d="M110.8,4.584V0.6h7.116
							v3.984"/>
					</g>
				</g>
				<g>
					<g>
						<path i:knockout="Off" fill="none" stroke="#000000" stroke-width="1.2" stroke-linecap="round" d="M192.507,4.652V0.667
							h2.547v3.984"/>
					</g>
				</g>
				<g>
					<g>
						<path i:knockout="Off" fill="none" stroke="#000000" stroke-width="1.2" stroke-linecap="round" d="M33.257,4.652V0.667h2.547
							v3.984"/>
					</g>
				</g>
				<g>
					<g>
						<path i:knockout="Off" fill="none" stroke="#000000" stroke-width="1.2" stroke-linecap="round" d="M0.6,4.652V0.667h2.016
							v3.984"/>
					</g>
				</g>
				<g>
					<g>
						<path i:knockout="Off" fill="none" stroke="#000000" stroke-width="1.2" stroke-linecap="round" d="M225.812,4.652V0.667
							h2.016v3.984"/>
					</g>
				</g>
			</g>
			<path i:knockout="Off" fill="none" stroke="#000000" stroke-width="1.2" stroke-linecap="round" d="M227.83,4.777v23.725H0.615
				V4.777H227.83z"/>
		</g>
	</g>
</svg>
