<?xml version="1.0" encoding="utf-8"?>
<!-- Generator: Adobe Illustrator 10.0, SVG Export Plug-In . SVG Version: 3.0.0 Build 77)  -->
<!DOCTYPE svg PUBLIC "-//W3C//DTD SVG 1.0//EN"    "http://www.w3.org/TR/2001/REC-SVG-20010904/DTD/svg10.dtd" [
	<!ENTITY ns_flows "http://ns.adobe.com/Flows/1.0/">
	<!ENTITY ns_extend "http://ns.adobe.com/Extensibility/1.0/">
	<!ENTITY ns_ai "http://ns.adobe.com/AdobeIllustrator/10.0/">
	<!ENTITY ns_graphs "http://ns.adobe.com/Graphs/1.0/">
	<!ENTITY ns_vars "http://ns.adobe.com/Variables/1.0/">
	<!ENTITY ns_imrep "http://ns.adobe.com/ImageReplacement/1.0/">
	<!ENTITY ns_sfw "http://ns.adobe.com/SaveForWeb/1.0/">
	<!ENTITY ns_custom "http://ns.adobe.com/GenericCustomNamespace/1.0/">
	<!ENTITY ns_adobe_xpath "http://ns.adobe.com/XPath/1.0/">
	<!ENTITY ns_svg "http://www.w3.org/2000/svg">
	<!ENTITY ns_xlink "http://www.w3.org/1999/xlink">
]>
<svg xmlns:x="&ns_extend;" xmlns:i="&ns_ai;" xmlns:graph="&ns_graphs;" i:viewOrigin="268.7749 425.1885" i:rulerOrigin="0 9.765625e-004" i:pageBounds="0 841.8887 595.2754 -9.765625e-004" xmlns="&ns_svg;" xmlns:xlink="&ns_xlink;" xmlns:a="http://ns.adobe.com/AdobeSVGViewerExtensions/3.0/" width="111.45" height="32.7" viewBox="0 0 111.45 32.7" overflow="visible" enable-background="new 0 0 111.45 32.7" xml:space="preserve" id="svgObj" onload="parent.svgLoad('Top', document)">
	<metadata>
		<variableSets xmlns="&ns_vars;">
			<variableSet varSetName="binding1" locked="none">
				<variables></variables>
				<v:sampleDataSets xmlns="&ns_custom;" xmlns:v="&ns_vars;"></v:sampleDataSets>
			</variableSet>
		</variableSets>
		<sfw xmlns="&ns_sfw;">
			<slices></slices>
			<sliceSourceBounds y="392.488" x="268.775" width="111.45" height="32.7" bottomLeftOrigin="true"></sliceSourceBounds>
		</sfw>
	</metadata>
	<g id="Layer_1" i:layer="yes" i:dimmedPercent="100" i:rgbTrio="#4F008000FFFF">
		<path i:knockout="Off" fill="none" stroke="#000000" stroke-width="1.2" d="M38.85,32.101V0.6H0.6v31.5H38.85z"/>
		<path i:knockout="Off" fill="none" stroke="#000000" stroke-width="1.2" d="M110.85,32.101V0.6H72.6v31.5H110.85z"/>
		<path i:knockout="Off" fill="none" stroke="#000000" stroke-width="0.7" d="M9.475,23.725v-13.25h-5.5v13.25H9.475z"/>
		<path i:knockout="Off" fill="none" stroke="#000000" stroke-width="0.7" d="M107.85,23.6V10.35h-5.5V23.6H107.85z"/>
		<path i:knockout="Off" fill="#FFFFFF" stroke="#000000" stroke-width="1.2" d="M101.4,29.028V3.986H10.588v25.042H101.4z"/>
		<path i:knockout="Off" fill="none" stroke="#000000" stroke-width="0.7" d="M10.717,15.327h90.64"/>
		<path i:knockout="Off" fill="none" stroke="#000000" stroke-width="0.7" d="M10.76,17.412h90.597"/>
		<path i:knockout="Off" fill="none" stroke="#000000" stroke-width="1.2" d="M59.063,1.465v2.521h-5.708V1.465H59.063z"/>
		<g>
			<path i:knockout="Off" fill="none" stroke="#000000" stroke-width="0.7" d="M21.936,17.412v11.616"/>
			<path i:knockout="Off" fill="none" stroke="#000000" stroke-width="0.7" d="M33.282,17.412v11.616"/>
			<path i:knockout="Off" fill="none" stroke="#000000" stroke-width="0.7" d="M44.63,17.412v11.616"/>
			<path i:knockout="Off" fill="none" stroke="#000000" stroke-width="0.7" d="M55.976,17.412v11.616"/>
			<path i:knockout="Off" fill="none" stroke="#000000" stroke-width="0.7" d="M67.325,17.412v11.616"/>
			<path i:knockout="Off" fill="none" stroke="#000000" stroke-width="0.7" d="M78.67,17.412v11.616"/>
			<path i:knockout="Off" fill="none" stroke="#000000" stroke-width="0.7" d="M90.018,17.412v11.616"/>
		</g>
		<g>
			<path i:knockout="Off" fill="none" stroke="#000000" stroke-width="0.7" d="M21.936,3.907v11.617"/>
			<path i:knockout="Off" fill="none" stroke="#000000" stroke-width="0.7" d="M33.282,3.907v11.617"/>
			<path i:knockout="Off" fill="none" stroke="#000000" stroke-width="0.7" d="M44.63,3.907v11.617"/>
			<path i:knockout="Off" fill="none" stroke="#000000" stroke-width="0.7" d="M55.976,3.907v11.617"/>
			<path i:knockout="Off" fill="none" stroke="#000000" stroke-width="0.7" d="M67.325,3.907v11.617"/>
			<path i:knockout="Off" fill="none" stroke="#000000" stroke-width="0.7" d="M78.67,3.907v11.617"/>
			<path i:knockout="Off" fill="none" stroke="#000000" stroke-width="0.7" d="M90.018,3.907v11.617"/>
		</g>
		<g i:knockout="Off">
			<path i:knockout="Off" d="M94.334,24.96h-0.703v-4.48c-0.17,0.162-0.392,0.323-0.666,0.484c-0.275,0.162-0.521,0.283-0.74,0.363
				v-0.68c0.393-0.185,0.736-0.408,1.031-0.672c0.294-0.263,0.502-0.518,0.625-0.766h0.453V24.96z"/>
			<path i:knockout="Off" d="M99.799,20.632l-0.703,0.063c-0.063-0.277-0.152-0.479-0.268-0.604
				c-0.191-0.201-0.428-0.302-0.708-0.302c-0.226,0-0.426,0.063-0.602,0.188c-0.218,0.16-0.391,0.396-0.52,0.705
				c-0.128,0.309-0.195,0.75-0.2,1.322c0.17-0.258,0.378-0.449,0.623-0.574c0.246-0.125,0.504-0.188,0.773-0.188
				c0.47,0,0.871,0.173,1.201,0.518c0.33,0.346,0.496,0.791,0.496,1.338c0,0.359-0.078,0.693-0.233,1.002s-0.369,0.545-0.642,0.709
				c-0.271,0.164-0.58,0.246-0.926,0.246c-0.588,0-1.068-0.215-1.439-0.646c-0.371-0.43-0.557-1.14-0.557-2.129
				c0-1.105,0.205-1.91,0.617-2.412c0.359-0.438,0.843-0.656,1.451-0.656c0.453,0,0.824,0.126,1.113,0.378
				C99.568,19.84,99.742,20.188,99.799,20.632z M96.909,23.103c0,0.242,0.052,0.474,0.155,0.694c0.104,0.222,0.247,0.39,0.43,0.505
				c0.183,0.116,0.38,0.174,0.589,0.174c0.304,0,0.562-0.119,0.773-0.359c0.212-0.238,0.318-0.563,0.318-0.975
				c0-0.395-0.104-0.707-0.314-0.934c-0.209-0.229-0.478-0.342-0.805-0.342c-0.319,0-0.59,0.113-0.813,0.342
				C97.02,22.435,96.909,22.733,96.909,23.103z"/>
		</g>
		<g i:knockout="Off">
			<path i:knockout="Off" d="M83.175,24.96h-0.703v-4.48c-0.169,0.162-0.392,0.323-0.666,0.484c-0.274,0.162-0.521,0.283-0.74,0.363
				v-0.68c0.394-0.185,0.737-0.408,1.031-0.672c0.294-0.263,0.503-0.518,0.625-0.766h0.453V24.96z"/>
			<path i:knockout="Off" d="M84.968,23.46l0.719-0.063c0.055,0.358,0.182,0.627,0.38,0.808c0.197,0.181,0.44,0.271,0.729,0.271
				c0.35,0,0.64-0.127,0.871-0.382c0.232-0.254,0.349-0.592,0.349-1.013c0-0.399-0.11-0.715-0.332-0.946s-0.519-0.347-0.891-0.347
				c-0.231,0-0.438,0.051-0.617,0.152s-0.321,0.232-0.426,0.395l-0.656-0.094l0.563-2.938H88.5v0.672h-2.285l-0.313,1.549
				c0.344-0.24,0.704-0.361,1.082-0.361c0.5,0,0.922,0.173,1.266,0.52c0.344,0.346,0.516,0.791,0.516,1.334
				c0,0.518-0.151,0.965-0.453,1.343c-0.367,0.463-0.868,0.694-1.504,0.694c-0.521,0-0.946-0.146-1.275-0.437
				S85.015,23.94,84.968,23.46z"/>
		</g>
		<g i:knockout="Off">
			<path i:knockout="Off" d="M71.674,24.96h-0.703v-4.48c-0.17,0.162-0.392,0.323-0.666,0.484c-0.275,0.162-0.521,0.283-0.74,0.363
				v-0.68c0.393-0.185,0.736-0.408,1.031-0.672c0.294-0.263,0.502-0.518,0.625-0.766h0.453V24.96z"/>
			<path i:knockout="Off" d="M75.717,24.96v-1.375h-2.484v-0.641l2.625-3.719h0.563v3.719h0.781v0.641H76.42v1.375H75.717z
				 M75.717,22.944v-2.566l-1.793,2.566H75.717z"/>
		</g>
		<g i:knockout="Off">
			<path i:knockout="Off" d="M60.516,24.96h-0.703v-4.48c-0.17,0.162-0.392,0.323-0.666,0.484c-0.275,0.162-0.521,0.283-0.74,0.363
				v-0.68c0.393-0.185,0.736-0.408,1.031-0.672c0.294-0.263,0.502-0.518,0.625-0.766h0.453V24.96z"/>
			<path i:knockout="Off" d="M62.325,23.46l0.719-0.094c0.08,0.393,0.215,0.676,0.404,0.85c0.19,0.173,0.426,0.26,0.707,0.26
				c0.333,0,0.611-0.115,0.835-0.344c0.224-0.23,0.335-0.515,0.335-0.854c0-0.323-0.104-0.59-0.313-0.801
				c-0.21-0.209-0.476-0.314-0.798-0.314c-0.132,0-0.296,0.026-0.492,0.078l0.078-0.625c0.046,0.006,0.083,0.008,0.111,0.008
				c0.295,0,0.56-0.077,0.795-0.232c0.235-0.154,0.354-0.394,0.354-0.717c0-0.256-0.086-0.467-0.26-0.635
				c-0.172-0.168-0.396-0.252-0.668-0.252c-0.271,0-0.497,0.086-0.678,0.258c-0.18,0.172-0.296,0.43-0.348,0.773l-0.719-0.125
				c0.086-0.471,0.28-0.836,0.584-1.096c0.305-0.259,0.683-0.389,1.135-0.389c0.312,0,0.599,0.066,0.861,0.2
				c0.262,0.134,0.463,0.315,0.602,0.546c0.14,0.23,0.209,0.476,0.209,0.735c0,0.246-0.066,0.47-0.199,0.673
				c-0.133,0.201-0.33,0.362-0.59,0.481c0.338,0.078,0.604,0.241,0.797,0.487c0.192,0.246,0.289,0.555,0.289,0.925
				c0,0.501-0.183,0.926-0.547,1.273c-0.365,0.349-0.826,0.522-1.383,0.522c-0.503,0-0.92-0.147-1.252-0.443
				S62.372,23.931,62.325,23.46z"/>
		</g>
		<g i:knockout="Off">
			<path i:knockout="Off" d="M49.014,24.96h-0.703v-4.48c-0.17,0.162-0.392,0.323-0.666,0.484c-0.275,0.162-0.521,0.283-0.74,0.363
				v-0.68c0.393-0.185,0.736-0.408,1.031-0.672c0.294-0.263,0.502-0.518,0.625-0.766h0.453V24.96z"/>
			<path i:knockout="Off" d="M54.502,24.288v0.672h-3.797c-0.006-0.169,0.022-0.332,0.083-0.488c0.097-0.258,0.253-0.511,0.467-0.76
				c0.214-0.248,0.521-0.537,0.92-0.864c0.62-0.517,1.04-0.923,1.261-1.221c0.222-0.298,0.332-0.58,0.332-0.849
				c0-0.277-0.1-0.513-0.299-0.703c-0.2-0.191-0.461-0.287-0.781-0.287c-0.34,0-0.61,0.104-0.814,0.311
				c-0.203,0.208-0.307,0.494-0.309,0.861l-0.719-0.094c0.049-0.539,0.235-0.949,0.558-1.232c0.323-0.282,0.756-0.424,1.3-0.424
				c0.549,0,0.983,0.152,1.303,0.457c0.32,0.305,0.48,0.683,0.48,1.133c0,0.229-0.047,0.455-0.14,0.677
				c-0.094,0.222-0.248,0.454-0.465,0.699c-0.216,0.245-0.576,0.581-1.081,1.009c-0.423,0.355-0.694,0.596-0.814,0.723
				c-0.119,0.126-0.219,0.253-0.297,0.381H54.502z"/>
		</g>
		<g i:knockout="Off">
			<path i:knockout="Off" d="M37.856,24.96h-0.703v-4.48c-0.17,0.162-0.392,0.323-0.666,0.484c-0.275,0.162-0.521,0.283-0.74,0.363
				v-0.68c0.393-0.185,0.736-0.408,1.031-0.672c0.294-0.263,0.502-0.518,0.625-0.766h0.453V24.96z"/>
			<path i:knockout="Off" d="M42.305,24.96h-0.703v-4.48c-0.17,0.162-0.392,0.323-0.666,0.484c-0.275,0.162-0.521,0.283-0.74,0.363
				v-0.68c0.393-0.185,0.736-0.408,1.031-0.672c0.294-0.263,0.502-0.518,0.625-0.766h0.453V24.96z"/>
		</g>
		<g i:knockout="Off">
			<path i:knockout="Off" d="M26.526,24.96h-0.703v-4.48c-0.169,0.162-0.392,0.323-0.666,0.484c-0.275,0.162-0.521,0.283-0.74,0.363
				v-0.68c0.393-0.185,0.737-0.408,1.031-0.672c0.294-0.263,0.502-0.518,0.625-0.766h0.453V24.96z"/>
			<path i:knockout="Off" d="M28.319,22.134c0-0.677,0.07-1.223,0.211-1.638c0.14-0.415,0.349-0.733,0.626-0.954
				c0.277-0.222,0.626-0.332,1.046-0.332c0.31,0,0.583,0.063,0.819,0.186s0.429,0.302,0.579,0.535
				c0.149,0.232,0.268,0.516,0.354,0.851s0.13,0.785,0.13,1.353c0,0.672-0.069,1.215-0.209,1.63
				c-0.139,0.415-0.348,0.733-0.624,0.956c-0.277,0.223-0.627,0.334-1.05,0.334c-0.557,0-0.994-0.195-1.312-0.586
				C28.509,23.987,28.319,23.209,28.319,22.134z M29.038,22.132c0,0.945,0.112,1.572,0.336,1.881c0.224,0.309,0.5,0.463,0.828,0.463
				c0.328,0,0.604-0.154,0.828-0.465c0.224-0.31,0.336-0.936,0.336-1.879c0-0.942-0.111-1.568-0.334-1.879
				c-0.223-0.31-0.502-0.465-0.838-0.465c-0.329,0-0.592,0.137-0.791,0.41C29.16,20.548,29.038,21.192,29.038,22.132z"/>
		</g>
		<g i:knockout="Off">
			<path i:knockout="Off" d="M14.084,23.632l0.672-0.063c0.057,0.318,0.167,0.549,0.328,0.691c0.161,0.144,0.368,0.215,0.621,0.215
				c0.216,0,0.407-0.049,0.572-0.147c0.165-0.099,0.299-0.229,0.4-0.395s0.188-0.387,0.258-0.667
				c0.07-0.279,0.105-0.565,0.105-0.857c0-0.031-0.001-0.078-0.004-0.141c-0.14,0.225-0.331,0.406-0.573,0.545
				c-0.242,0.14-0.505,0.209-0.787,0.209c-0.472,0-0.871-0.172-1.197-0.516c-0.326-0.345-0.489-0.798-0.489-1.361
				c0-0.581,0.171-1.049,0.514-1.404c0.342-0.354,0.771-0.531,1.287-0.531c0.372,0,0.713,0.101,1.021,0.301s0.543,0.486,0.703,0.856
				c0.16,0.371,0.24,0.907,0.24,1.61c0,0.731-0.08,1.313-0.239,1.747s-0.396,0.763-0.711,0.989c-0.315,0.227-0.684,0.34-1.107,0.34
				c-0.449,0-0.816-0.124-1.101-0.373C14.313,24.433,14.142,24.083,14.084,23.632z M16.975,21.106c0-0.404-0.106-0.725-0.319-0.963
				c-0.212-0.236-0.473-0.355-0.78-0.355c-0.318,0-0.592,0.128-0.822,0.384c-0.229,0.255-0.344,0.587-0.344,0.993
				c0,0.365,0.109,0.662,0.327,0.891c0.218,0.228,0.491,0.342,0.82,0.342c0.326,0,0.594-0.114,0.804-0.342
				C16.87,21.827,16.975,21.511,16.975,21.106z"/>
		</g>
		<g i:knockout="Off">
			<path i:knockout="Off" d="M94.223,8.591c-0.292-0.106-0.508-0.259-0.648-0.457s-0.211-0.436-0.211-0.712
				c0-0.417,0.149-0.767,0.447-1.052c0.299-0.283,0.695-0.426,1.191-0.426c0.498,0,0.898,0.146,1.203,0.436
				c0.303,0.291,0.455,0.645,0.455,1.062c0,0.267-0.069,0.497-0.208,0.694c-0.139,0.196-0.349,0.349-0.632,0.455
				c0.351,0.114,0.617,0.299,0.8,0.554s0.274,0.559,0.274,0.912c0,0.489-0.173,0.899-0.519,1.232s-0.8,0.499-1.364,0.499
				s-1.019-0.167-1.364-0.501s-0.519-0.751-0.519-1.25c0-0.371,0.095-0.683,0.284-0.934S93.873,8.682,94.223,8.591z M93.848,10.042
				c0,0.2,0.046,0.394,0.139,0.58c0.092,0.188,0.232,0.332,0.423,0.434c0.189,0.104,0.393,0.154,0.608,0.154
				c0.341,0,0.619-0.107,0.834-0.323c0.217-0.215,0.324-0.489,0.324-0.821c0-0.338-0.111-0.616-0.334-0.837
				c-0.222-0.221-0.504-0.331-0.848-0.331c-0.336,0-0.61,0.109-0.824,0.327C93.956,9.442,93.848,9.715,93.848,10.042z M94.083,7.397
				c0,0.271,0.086,0.492,0.257,0.664s0.397,0.258,0.681,0.258c0.275,0,0.497-0.085,0.667-0.256c0.17-0.17,0.255-0.379,0.255-0.627
				c0-0.258-0.088-0.475-0.263-0.65s-0.397-0.264-0.667-0.264c-0.272,0-0.495,0.086-0.669,0.258S94.083,7.158,94.083,7.397z"/>
		</g>
		<g i:knockout="Off">
			<path i:knockout="Off" d="M83.017,6.71V6.038h3.703v0.544c-0.365,0.388-0.728,0.904-1.086,1.548
				c-0.358,0.645-0.636,1.307-0.831,1.988c-0.142,0.479-0.231,1.005-0.271,1.576h-0.719c0.008-0.451,0.097-0.996,0.265-1.635
				c0.17-0.64,0.412-1.256,0.728-1.85c0.315-0.593,0.651-1.093,1.008-1.5H83.017z"/>
		</g>
		<g i:knockout="Off">
			<path i:knockout="Off" d="M75.141,7.366l-0.703,0.063c-0.063-0.277-0.152-0.479-0.268-0.604
				c-0.191-0.201-0.428-0.302-0.708-0.302c-0.226,0-0.426,0.063-0.602,0.188c-0.218,0.16-0.391,0.396-0.52,0.705
				c-0.128,0.309-0.195,0.75-0.2,1.322c0.17-0.258,0.378-0.449,0.623-0.574c0.246-0.125,0.504-0.188,0.773-0.188
				c0.47,0,0.871,0.173,1.201,0.518c0.33,0.346,0.496,0.791,0.496,1.338c0,0.359-0.078,0.693-0.233,1.002s-0.369,0.545-0.642,0.709
				c-0.271,0.164-0.58,0.246-0.926,0.246c-0.588,0-1.068-0.215-1.439-0.646c-0.371-0.43-0.557-1.14-0.557-2.129
				c0-1.105,0.205-1.91,0.617-2.412c0.359-0.438,0.843-0.656,1.451-0.656c0.453,0,0.824,0.126,1.113,0.378
				C74.91,6.574,75.083,6.922,75.141,7.366z M72.25,9.837c0,0.242,0.052,0.474,0.155,0.694c0.104,0.222,0.247,0.39,0.43,0.505
				c0.183,0.116,0.38,0.174,0.589,0.174c0.304,0,0.562-0.119,0.773-0.359c0.212-0.238,0.318-0.563,0.318-0.975
				c0-0.395-0.104-0.707-0.314-0.934c-0.209-0.229-0.478-0.342-0.805-0.342c-0.319,0-0.59,0.113-0.813,0.342
				C72.362,9.169,72.25,9.468,72.25,9.837z"/>
		</g>
		<g i:knockout="Off">
			<path i:knockout="Off" d="M60.311,10.194l0.719-0.063c0.055,0.358,0.182,0.627,0.379,0.808c0.198,0.181,0.441,0.271,0.73,0.271
				c0.348,0,0.639-0.127,0.871-0.382c0.231-0.254,0.348-0.592,0.348-1.013c0-0.399-0.111-0.715-0.332-0.946
				c-0.222-0.231-0.519-0.347-0.891-0.347c-0.232,0-0.438,0.051-0.617,0.152s-0.322,0.232-0.426,0.395l-0.656-0.094l0.563-2.938
				h2.844V6.71h-2.285l-0.313,1.549c0.344-0.24,0.704-0.361,1.082-0.361c0.5,0,0.922,0.173,1.266,0.52
				c0.344,0.346,0.516,0.791,0.516,1.334c0,0.518-0.151,0.965-0.453,1.343c-0.367,0.463-0.869,0.694-1.504,0.694
				c-0.521,0-0.946-0.146-1.275-0.437C60.545,11.061,60.358,10.675,60.311,10.194z"/>
		</g>
		<g i:knockout="Off">
			<path i:knockout="Off" d="M51.059,11.694v-1.375h-2.484V9.679L51.2,5.96h0.563v3.719h0.781v0.641h-0.781v1.375H51.059z
				 M51.059,9.679V7.112l-1.793,2.566H51.059z"/>
		</g>
		<g i:knockout="Off">
			<path i:knockout="Off" d="M37.667,10.194l0.719-0.094c0.08,0.393,0.215,0.676,0.404,0.85c0.19,0.173,0.426,0.26,0.707,0.26
				c0.333,0,0.611-0.115,0.835-0.344c0.224-0.23,0.335-0.515,0.335-0.854c0-0.323-0.104-0.59-0.313-0.801
				c-0.21-0.209-0.476-0.314-0.798-0.314c-0.132,0-0.296,0.026-0.492,0.078l0.078-0.625c0.046,0.006,0.083,0.008,0.111,0.008
				c0.295,0,0.56-0.077,0.795-0.232c0.235-0.154,0.354-0.394,0.354-0.717c0-0.256-0.086-0.467-0.26-0.635
				c-0.172-0.168-0.396-0.252-0.668-0.252c-0.271,0-0.497,0.086-0.678,0.258c-0.18,0.172-0.296,0.43-0.348,0.773l-0.719-0.125
				c0.086-0.471,0.28-0.836,0.584-1.096c0.305-0.259,0.683-0.389,1.135-0.389c0.312,0,0.599,0.066,0.861,0.2
				c0.262,0.134,0.463,0.315,0.602,0.546c0.14,0.23,0.209,0.476,0.209,0.735c0,0.246-0.066,0.47-0.199,0.673
				c-0.133,0.201-0.33,0.362-0.59,0.481c0.338,0.078,0.604,0.241,0.797,0.487c0.192,0.246,0.289,0.555,0.289,0.925
				c0,0.501-0.183,0.926-0.547,1.273c-0.365,0.349-0.826,0.522-1.383,0.522c-0.503,0-0.92-0.147-1.252-0.443
				S37.713,10.665,37.667,10.194z"/>
		</g>
		<g i:knockout="Off">
			<path i:knockout="Off" d="M30.016,11.022v0.672h-3.797c-0.005-0.169,0.022-0.332,0.083-0.488c0.097-0.258,0.252-0.511,0.467-0.76
				c0.214-0.248,0.521-0.537,0.92-0.864c0.62-0.517,1.04-0.923,1.261-1.221s0.332-0.58,0.332-0.849c0-0.277-0.1-0.513-0.299-0.703
				c-0.2-0.191-0.46-0.287-0.781-0.287c-0.339,0-0.61,0.104-0.814,0.311c-0.204,0.208-0.307,0.494-0.309,0.861L26.36,7.601
				c0.049-0.539,0.235-0.949,0.558-1.232c0.323-0.282,0.756-0.424,1.3-0.424c0.549,0,0.983,0.152,1.303,0.457S30,7.084,30,7.534
				c0,0.229-0.047,0.455-0.14,0.677c-0.094,0.222-0.248,0.454-0.465,0.699c-0.216,0.245-0.576,0.581-1.081,1.009
				c-0.423,0.355-0.695,0.596-0.815,0.723c-0.12,0.126-0.219,0.253-0.297,0.381H30.016z"/>
		</g>
		<g i:knockout="Off">
			<path i:knockout="Off" d="M17.647,11.694h-0.703v-4.48c-0.169,0.162-0.392,0.323-0.666,0.484
				c-0.275,0.162-0.521,0.283-0.74,0.363v-0.68c0.393-0.185,0.737-0.408,1.031-0.672c0.294-0.263,0.502-0.518,0.625-0.766h0.453
				V11.694z"/>
		</g>
		<path i:knockout="Off" fill="#FFFFFF" stroke="#000000" stroke-width="1.2" d="M10.588,3.986v25.042H4.923L10.588,3.986z"/>
		<path i:knockout="Off" fill="#FFFFFF" stroke="#000000" stroke-width="1.2" d="M101.357,3.986v25.042h5.665L101.357,3.986z"/>
		<path i:knockout="Off" fill="none" stroke="#000000" stroke-width="0.7" d="M10.767,14.037h90.167"/>
		<path i:knockout="Off" fill="none" stroke="#000000" stroke-width="0.7" d="M10.517,27.413h90.167"/>
	</g>
</svg>
