<?xml version="1.0" encoding="utf-8"?>
<!-- Generator: Adobe Illustrator 10.0, SVG Export Plug-In . SVG Version: 3.0.0 Build 77)  -->
<!DOCTYPE svg PUBLIC "-//W3C//DTD SVG 1.0//EN"    "http://www.w3.org/TR/2001/REC-SVG-20010904/DTD/svg10.dtd" [
	<!ENTITY ns_flows "http://ns.adobe.com/Flows/1.0/">
	<!ENTITY ns_extend "http://ns.adobe.com/Extensibility/1.0/">
	<!ENTITY ns_ai "http://ns.adobe.com/AdobeIllustrator/10.0/">
	<!ENTITY ns_graphs "http://ns.adobe.com/Graphs/1.0/">
	<!ENTITY ns_vars "http://ns.adobe.com/Variables/1.0/">
	<!ENTITY ns_imrep "http://ns.adobe.com/ImageReplacement/1.0/">
	<!ENTITY ns_sfw "http://ns.adobe.com/SaveForWeb/1.0/">
	<!ENTITY ns_custom "http://ns.adobe.com/GenericCustomNamespace/1.0/">
	<!ENTITY ns_adobe_xpath "http://ns.adobe.com/XPath/1.0/">
	<!ENTITY ns_svg "http://www.w3.org/2000/svg">
	<!ENTITY ns_xlink "http://www.w3.org/1999/xlink">
]>
<svg xmlns:x="&ns_extend;" xmlns:i="&ns_ai;" xmlns:graph="&ns_graphs;" i:viewOrigin="274.5186 435.1245" i:rulerOrigin="-1 0.1104" i:pageBounds="1 841.8896 596 -0.1104" xmlns="&ns_svg;" xmlns:xlink="&ns_xlink;" xmlns:a="http://ns.adobe.com/AdobeSVGViewerExtensions/3.0/" width="47.282" height="28.916" viewBox="0 0 47.282 28.916" overflow="visible" enable-background="new 0 0 47.282 28.916" xml:space="preserve" id="svgObj" onload="parent.svgLoad('Top', document)">
	<metadata>
		<variableSets xmlns="&ns_vars;">
			<variableSet varSetName="binding1" locked="none">
				<variables></variables>
				<v:sampleDataSets xmlns="&ns_custom;" xmlns:v="&ns_vars;"></v:sampleDataSets>
			</variableSet>
		</variableSets>
		<sfw xmlns="&ns_sfw;">
			<slices></slices>
			<sliceSourceBounds y="388.708" x="257.815" width="80.371" height="63.363" bottomLeftOrigin="true"></sliceSourceBounds>
		</sfw>
	</metadata>
	<g id="レイヤー_1" i:layer="yes" i:dimmedPercent="100" i:rgbTrio="#4F008000FFFF">
		<g>
			<path i:knockout="Off" fill="none" stroke="#000000" stroke-width="0.7" d="M11.719,3.812v22.556"/>
			<path i:knockout="Off" fill="none" stroke="#000000" stroke-width="0.7" d="M23.329,3.812v22.556"/>
			<path i:knockout="Off" fill="none" stroke="#000000" stroke-width="0.7" d="M34.938,3.812v22.556"/>
			<path i:knockout="Off" fill="none" stroke="#000000" stroke-width="1.2" d="M26.429,3.815V0.6h-6.191v3.215"/>
			<path i:knockout="Off" fill="none" stroke="#000000" stroke-width="1.2" d="M42.683,1.374v2.44H4.6v-2.44
				c-2.34-1.938-4,0.001-4,0.001v12.938l2.66,1.75L0.6,18.188v10.128h46.083V18.188L43.868,16l2.814-1.813V1.375
				C46.683,1.375,44.868-0.438,42.683,1.374z"/>
			<path i:knockout="Off" fill="none" stroke="#000000" stroke-width="0.7" d="M3.227,16.131h40.364"/>
			<path i:knockout="Off" fill="none" stroke="#000000" stroke-width="0.7" d="M0.691,26.274h45.701"/>
			<path i:knockout="Off" fill="none" stroke="#000000" stroke-width="0.7" d="M0.691,14.308h45.701"/>
			<path i:knockout="Off" fill="none" d="M21.557,18.154"/>
			<g i:knockout="Off">
				<path i:knockout="Off" d="M19.934,11.279v0.672h-3.797c-0.005-0.169,0.022-0.332,0.083-0.488
					c0.098-0.258,0.253-0.511,0.467-0.76c0.214-0.249,0.521-0.537,0.92-0.864c0.619-0.516,1.04-0.923,1.261-1.221
					C19.089,8.32,19.2,8.038,19.2,7.769c0-0.278-0.1-0.513-0.299-0.704c-0.2-0.191-0.46-0.287-0.781-0.287
					c-0.339,0-0.611,0.104-0.814,0.311c-0.204,0.208-0.307,0.494-0.309,0.861l-0.719-0.094c0.049-0.539,0.235-0.95,0.558-1.232
					c0.322-0.282,0.755-0.424,1.299-0.424c0.549,0,0.983,0.152,1.303,0.457c0.32,0.305,0.48,0.683,0.48,1.133
					c0,0.229-0.046,0.455-0.14,0.676c-0.093,0.221-0.248,0.454-0.464,0.699c-0.217,0.245-0.577,0.581-1.081,1.009
					c-0.423,0.355-0.695,0.596-0.814,0.722c-0.12,0.126-0.219,0.253-0.297,0.381H19.934z"/>
			</g>
			<g i:knockout="Off">
				<path i:knockout="Off" d="M7.517,11.951H6.814V7.47C6.645,7.632,6.423,7.793,6.148,7.955c-0.275,0.162-0.521,0.283-0.74,0.363
					v-0.68c0.393-0.185,0.737-0.409,1.031-0.672c0.294-0.263,0.502-0.518,0.625-0.766h0.453V11.951z"/>
			</g>
			<g i:knockout="Off">
				<path i:knockout="Off" d="M19.911,19.877l-0.703,0.063c-0.063-0.277-0.152-0.479-0.267-0.604
					c-0.191-0.201-0.428-0.302-0.708-0.302c-0.226,0-0.427,0.063-0.602,0.188c-0.218,0.16-0.391,0.396-0.519,0.705
					c-0.129,0.309-0.195,0.75-0.201,1.322c0.17-0.258,0.377-0.449,0.624-0.574c0.245-0.125,0.503-0.188,0.772-0.188
					c0.471,0,0.871,0.173,1.202,0.518c0.331,0.346,0.496,0.791,0.496,1.338c0,0.359-0.078,0.693-0.233,1.002
					s-0.37,0.545-0.641,0.709c-0.272,0.164-0.581,0.246-0.926,0.246c-0.588,0-1.068-0.215-1.439-0.646
					c-0.372-0.43-0.557-1.14-0.557-2.129c0-1.105,0.206-1.91,0.617-2.412c0.359-0.438,0.842-0.656,1.451-0.656
					c0.453,0,0.825,0.126,1.114,0.378S19.853,19.433,19.911,19.877z M17.02,22.348c0,0.242,0.051,0.474,0.155,0.694
					c0.104,0.222,0.247,0.39,0.43,0.505c0.183,0.116,0.379,0.174,0.589,0.174c0.303,0,0.561-0.119,0.773-0.359
					c0.212-0.238,0.318-0.563,0.318-0.975c0-0.395-0.105-0.707-0.314-0.934c-0.21-0.229-0.478-0.342-0.805-0.342
					c-0.319,0-0.59,0.113-0.813,0.342C17.131,21.68,17.02,21.979,17.02,22.348z"/>
			</g>
			<g i:knockout="Off">
				<path i:knockout="Off" d="M27.331,10.451l0.719-0.094c0.08,0.393,0.215,0.676,0.404,0.85c0.19,0.173,0.426,0.26,0.707,0.26
					c0.333,0,0.611-0.115,0.835-0.344s0.335-0.514,0.335-0.853c0-0.323-0.104-0.59-0.313-0.8c-0.21-0.21-0.476-0.315-0.798-0.315
					c-0.132,0-0.296,0.026-0.492,0.078l0.078-0.625c0.046,0.005,0.083,0.008,0.111,0.008c0.295,0,0.56-0.077,0.795-0.232
					c0.235-0.155,0.354-0.394,0.354-0.717c0-0.255-0.086-0.467-0.26-0.635c-0.172-0.168-0.396-0.252-0.668-0.252
					c-0.271,0-0.497,0.086-0.678,0.258c-0.18,0.172-0.296,0.43-0.348,0.773l-0.719-0.125c0.086-0.471,0.28-0.836,0.584-1.096
					c0.305-0.259,0.683-0.389,1.135-0.389c0.312,0,0.599,0.067,0.861,0.2c0.262,0.134,0.463,0.315,0.602,0.546
					c0.14,0.231,0.209,0.476,0.209,0.735c0,0.246-0.066,0.47-0.199,0.672s-0.33,0.363-0.59,0.482
					c0.338,0.078,0.604,0.241,0.797,0.487c0.192,0.246,0.289,0.555,0.289,0.925c0,0.501-0.183,0.926-0.547,1.273
					c-0.365,0.349-0.826,0.522-1.383,0.522c-0.503,0-0.92-0.147-1.252-0.443S27.378,10.921,27.331,10.451z"/>
			</g>
			<g i:knockout="Off">
				<path i:knockout="Off" d="M27.362,19.221v-0.672h3.703v0.544c-0.365,0.388-0.728,0.904-1.086,1.548
					c-0.359,0.645-0.636,1.307-0.832,1.988c-0.141,0.479-0.23,1.005-0.27,1.576h-0.719c0.008-0.451,0.096-0.996,0.266-1.635
					c0.168-0.64,0.41-1.256,0.727-1.85c0.315-0.593,0.651-1.093,1.008-1.5H27.362z"/>
			</g>
			<g i:knockout="Off">
				<path i:knockout="Off" d="M40.915,11.951v-1.375h-2.484V9.935l2.625-3.719h0.563v3.719h0.781v0.641h-0.781v1.375H40.915z
					 M40.915,9.935V7.369l-1.793,2.566H40.915z"/>
			</g>
			<g i:knockout="Off">
				<path i:knockout="Off" d="M39.759,21.102c-0.292-0.106-0.508-0.259-0.648-0.457s-0.211-0.436-0.211-0.712
					c0-0.417,0.149-0.767,0.447-1.052c0.299-0.283,0.695-0.426,1.191-0.426c0.498,0,0.898,0.146,1.203,0.436
					c0.303,0.291,0.455,0.645,0.455,1.062c0,0.267-0.069,0.497-0.208,0.694c-0.139,0.196-0.349,0.349-0.632,0.455
					c0.351,0.114,0.617,0.299,0.8,0.554s0.274,0.559,0.274,0.912c0,0.489-0.173,0.899-0.519,1.232s-0.8,0.499-1.364,0.499
					s-1.019-0.167-1.364-0.501s-0.519-0.751-0.519-1.25c0-0.371,0.095-0.683,0.284-0.934S39.408,21.193,39.759,21.102z
					 M39.384,22.553c0,0.2,0.046,0.394,0.139,0.58c0.092,0.188,0.232,0.332,0.423,0.434c0.189,0.104,0.393,0.154,0.608,0.154
					c0.341,0,0.619-0.107,0.834-0.323c0.217-0.215,0.324-0.489,0.324-0.821c0-0.338-0.111-0.616-0.334-0.837
					c-0.222-0.221-0.504-0.331-0.848-0.331c-0.336,0-0.61,0.109-0.824,0.327C39.491,21.954,39.384,22.226,39.384,22.553z
					 M39.618,19.909c0,0.271,0.086,0.492,0.257,0.664s0.397,0.258,0.681,0.258c0.275,0,0.497-0.085,0.667-0.256
					c0.17-0.17,0.255-0.379,0.255-0.627c0-0.258-0.088-0.475-0.263-0.65s-0.397-0.264-0.667-0.264c-0.272,0-0.495,0.086-0.669,0.258
					S39.618,19.669,39.618,19.909z"/>
			</g>
			<g i:knockout="Off">
				<path i:knockout="Off" d="M4.861,22.706l0.719-0.063c0.055,0.358,0.181,0.627,0.379,0.808s0.441,0.271,0.729,0.271
					c0.349,0,0.639-0.127,0.871-0.382c0.232-0.254,0.348-0.592,0.348-1.013c0-0.399-0.111-0.715-0.332-0.946
					s-0.518-0.347-0.891-0.347c-0.232,0-0.438,0.051-0.617,0.152s-0.322,0.232-0.426,0.395l-0.656-0.094l0.563-2.938h2.844v0.672
					H6.107L5.794,20.77c0.344-0.24,0.705-0.361,1.082-0.361c0.5,0,0.922,0.173,1.266,0.52c0.344,0.346,0.516,0.791,0.516,1.334
					c0,0.518-0.151,0.965-0.453,1.343c-0.367,0.463-0.869,0.694-1.504,0.694c-0.521,0-0.946-0.146-1.275-0.437
					S4.908,23.186,4.861,22.706z"/>
			</g>
		</g>
	</g>
</svg>
