<?xml version="1.0" encoding="utf-8"?>
<!-- Generator: Adobe Illustrator 10.0, SVG Export Plug-In . SVG Version: 3.0.0 Build 77)  -->
<!DOCTYPE svg PUBLIC "-//W3C//DTD SVG 1.0//EN"    "http://www.w3.org/TR/2001/REC-SVG-20010904/DTD/svg10.dtd" [
	<!ENTITY ns_flows "http://ns.adobe.com/Flows/1.0/">
	<!ENTITY ns_extend "http://ns.adobe.com/Extensibility/1.0/">
	<!ENTITY ns_ai "http://ns.adobe.com/AdobeIllustrator/10.0/">
	<!ENTITY ns_graphs "http://ns.adobe.com/Graphs/1.0/">
	<!ENTITY ns_vars "http://ns.adobe.com/Variables/1.0/">
	<!ENTITY ns_imrep "http://ns.adobe.com/ImageReplacement/1.0/">
	<!ENTITY ns_sfw "http://ns.adobe.com/SaveForWeb/1.0/">
	<!ENTITY ns_custom "http://ns.adobe.com/GenericCustomNamespace/1.0/">
	<!ENTITY ns_adobe_xpath "http://ns.adobe.com/XPath/1.0/">
	<!ENTITY ns_svg "http://www.w3.org/2000/svg">
	<!ENTITY ns_xlink "http://www.w3.org/1999/xlink">
]>
<svg xmlns:x="&ns_extend;" xmlns:i="&ns_ai;" xmlns:graph="&ns_graphs;" i:viewOrigin="227.3169 433.8311" i:rulerOrigin="-1 0.1104" i:pageBounds="1 841.8896 596 -0.1104" xmlns="&ns_svg;" xmlns:xlink="&ns_xlink;" xmlns:a="http://ns.adobe.com/AdobeSVGViewerExtensions/3.0/" width="141.975" height="28.74" viewBox="0 0 141.975 28.74" overflow="visible" enable-background="new 0 0 141.975 28.74" xml:space="preserve" id="svgObj" onload="parent.svgLoad('Top', document)">
	<metadata>
		<variableSets xmlns="&ns_vars;">
			<variableSet varSetName="binding1" locked="none">
				<variables></variables>
				<v:sampleDataSets xmlns="&ns_custom;" xmlns:v="&ns_vars;"></v:sampleDataSets>
			</variableSet>
		</variableSets>
		<sfw xmlns="&ns_sfw;">
			<slices></slices>
			<sliceSourceBounds y="388.709" x="218.13" width="159.74" height="63.362" bottomLeftOrigin="true"></sliceSourceBounds>
		</sfw>
	</metadata>
	<g id="レイヤー_1" i:layer="yes" i:dimmedPercent="100" i:rgbTrio="#4F008000FFFF">
		<path i:knockout="Off" fill="none" stroke="#000000" stroke-width="0.7" d="M12.321,16.303V4.462H0.592v11.84H12.321z"/>
		<g i:knockout="Off">
			<path i:knockout="Off" d="M6.859,12.584H6.156v-4.48C5.987,8.266,5.765,8.427,5.49,8.588S4.969,8.871,4.75,8.952v-0.68
				C5.143,8.087,5.487,7.863,5.781,7.6s0.502-0.518,0.625-0.766h0.453V12.584z"/>
		</g>
		<path i:knockout="Off" fill="none" stroke="#000000" stroke-width="0.7" d="M24.054,16.303V4.462H12.324v11.84H24.054z"/>
		<g i:knockout="Off">
			<path i:knockout="Off" d="M19.631,11.913v0.672h-3.797c-0.005-0.169,0.022-0.332,0.083-0.488c0.098-0.258,0.253-0.511,0.467-0.76
				s0.521-0.537,0.92-0.864c0.619-0.516,1.04-0.923,1.261-1.221c0.221-0.297,0.332-0.581,0.332-0.848c0-0.278-0.1-0.513-0.299-0.704
				c-0.2-0.191-0.46-0.287-0.781-0.287c-0.339,0-0.611,0.104-0.814,0.311c-0.204,0.207-0.307,0.494-0.309,0.861l-0.719-0.094
				c0.049-0.539,0.235-0.95,0.558-1.232c0.322-0.283,0.755-0.424,1.299-0.424c0.549,0,0.983,0.153,1.303,0.458
				c0.32,0.305,0.48,0.682,0.48,1.133c0,0.229-0.046,0.455-0.14,0.676c-0.093,0.222-0.248,0.455-0.464,0.7
				c-0.217,0.245-0.577,0.581-1.081,1.009c-0.423,0.355-0.695,0.596-0.814,0.722c-0.12,0.126-0.219,0.254-0.297,0.381H19.631z"/>
		</g>
		<path i:knockout="Off" fill="none" stroke="#000000" stroke-width="0.7" d="M35.797,16.303V4.462H24.067v11.84H35.797z"/>
		<g i:knockout="Off">
			<path i:knockout="Off" d="M27.694,11.084l0.719-0.094c0.08,0.393,0.215,0.676,0.405,0.849c0.189,0.174,0.425,0.26,0.707,0.26
				c0.333,0,0.611-0.115,0.834-0.344s0.335-0.514,0.335-0.854c0-0.323-0.105-0.59-0.314-0.8s-0.475-0.315-0.798-0.315
				c-0.132,0-0.295,0.026-0.492,0.078l0.078-0.625c0.046,0.005,0.083,0.008,0.112,0.008c0.294,0,0.559-0.078,0.795-0.232
				s0.354-0.394,0.354-0.716c0-0.256-0.086-0.468-0.259-0.636c-0.173-0.167-0.396-0.251-0.669-0.251
				c-0.271,0-0.496,0.086-0.677,0.258s-0.297,0.43-0.348,0.773l-0.719-0.125c0.085-0.471,0.281-0.836,0.584-1.096
				s0.682-0.389,1.134-0.389c0.312,0,0.599,0.067,0.861,0.2c0.263,0.133,0.463,0.316,0.603,0.546
				c0.139,0.23,0.208,0.476,0.208,0.734c0,0.246-0.066,0.471-0.199,0.673s-0.33,0.363-0.59,0.482
				c0.338,0.079,0.604,0.241,0.797,0.487c0.193,0.247,0.289,0.555,0.289,0.926c0,0.5-0.182,0.925-0.547,1.273
				c-0.365,0.348-0.826,0.522-1.383,0.522c-0.502,0-0.92-0.148-1.252-0.444S27.741,11.556,27.694,11.084z"/>
		</g>
		<path i:knockout="Off" fill="none" stroke="#000000" stroke-width="0.7" d="M47.529,16.303V4.462H35.8v11.84H47.529z"/>
		<g i:knockout="Off">
			<path i:knockout="Off" d="M41.661,12.584v-1.375h-2.484v-0.641l2.625-3.719h0.563v3.719h0.781v0.641h-0.781v1.375H41.661z
				 M41.661,10.569V8.002l-1.792,2.567H41.661z"/>
		</g>
		<path i:knockout="Off" fill="none" stroke="#000000" stroke-width="0.7" d="M59.259,16.303V4.462H47.53v11.84H59.259z"/>
		<g i:knockout="Off">
			<path i:knockout="Off" d="M51.141,11.084l0.719-0.063c0.055,0.358,0.182,0.627,0.379,0.808S52.68,12.1,52.969,12.1
				c0.349,0,0.639-0.127,0.871-0.381c0.232-0.255,0.348-0.592,0.348-1.013c0-0.4-0.111-0.716-0.332-0.947
				c-0.222-0.231-0.519-0.347-0.891-0.347c-0.232,0-0.438,0.051-0.617,0.152c-0.18,0.102-0.322,0.233-0.426,0.395l-0.656-0.094
				l0.563-2.938h2.844V7.6h-2.285l-0.313,1.549c0.344-0.241,0.704-0.362,1.082-0.362c0.5,0,0.922,0.173,1.266,0.519
				c0.344,0.346,0.516,0.791,0.516,1.334c0,0.518-0.151,0.965-0.453,1.342c-0.367,0.463-0.869,0.695-1.504,0.695
				c-0.521,0-0.946-0.145-1.275-0.436C51.376,11.951,51.188,11.565,51.141,11.084z"/>
		</g>
		<path i:knockout="Off" fill="none" stroke="#000000" stroke-width="0.7" d="M70.992,16.303V4.462H59.262v11.84H70.992z"/>
		<g i:knockout="Off">
			<path i:knockout="Off" d="M66.545,8.256l-0.703,0.063c-0.063-0.277-0.152-0.479-0.268-0.604
				c-0.191-0.201-0.427-0.302-0.708-0.302c-0.226,0-0.426,0.063-0.602,0.187c-0.218,0.161-0.391,0.396-0.52,0.705
				c-0.128,0.309-0.195,0.75-0.2,1.323c0.17-0.258,0.378-0.449,0.623-0.574c0.246-0.125,0.503-0.188,0.773-0.188
				c0.47,0,0.871,0.172,1.202,0.518s0.496,0.791,0.496,1.338c0,0.359-0.078,0.693-0.233,1.002c-0.156,0.309-0.369,0.545-0.642,0.709
				c-0.271,0.164-0.58,0.246-0.925,0.246c-0.588,0-1.068-0.215-1.44-0.646c-0.371-0.431-0.557-1.141-0.557-2.129
				c0-1.106,0.206-1.91,0.617-2.413c0.359-0.437,0.843-0.656,1.451-0.656c0.453,0,0.825,0.126,1.114,0.378
				S66.488,7.813,66.545,8.256z M63.655,10.727c0,0.242,0.052,0.473,0.155,0.694s0.247,0.389,0.43,0.505
				c0.183,0.115,0.38,0.173,0.589,0.173c0.304,0,0.562-0.12,0.773-0.359s0.318-0.564,0.318-0.975c0-0.395-0.104-0.707-0.314-0.934
				c-0.209-0.228-0.478-0.341-0.805-0.341c-0.319,0-0.59,0.114-0.813,0.341C63.766,10.06,63.655,10.358,63.655,10.727z"/>
		</g>
		<path i:knockout="Off" fill="none" stroke="#000000" stroke-width="0.7" d="M12.321,28.139v-11.84H0.592v11.84H12.321z"/>
		<g i:knockout="Off">
			<path i:knockout="Off" d="M4.635,24.051H3.932v-4.48c-0.169,0.162-0.391,0.323-0.666,0.484c-0.275,0.162-0.521,0.283-0.74,0.363
				v-0.68c0.393-0.185,0.737-0.408,1.031-0.672c0.294-0.263,0.502-0.518,0.625-0.766h0.453V24.051z"/>
			<path i:knockout="Off" d="M6.443,22.551l0.719-0.094c0.08,0.393,0.215,0.676,0.405,0.85c0.189,0.173,0.425,0.26,0.707,0.26
				c0.333,0,0.611-0.115,0.834-0.344c0.223-0.23,0.335-0.515,0.335-0.854c0-0.323-0.105-0.59-0.314-0.801
				c-0.209-0.209-0.475-0.314-0.798-0.314c-0.132,0-0.295,0.026-0.492,0.078l0.078-0.625c0.046,0.006,0.083,0.008,0.112,0.008
				c0.294,0,0.559-0.077,0.795-0.232c0.236-0.154,0.354-0.394,0.354-0.717c0-0.256-0.086-0.467-0.259-0.635
				s-0.396-0.252-0.669-0.252c-0.271,0-0.496,0.086-0.677,0.258s-0.297,0.43-0.348,0.773l-0.719-0.125
				c0.085-0.471,0.281-0.836,0.584-1.096c0.304-0.259,0.682-0.389,1.134-0.389c0.312,0,0.599,0.066,0.861,0.2
				c0.263,0.134,0.463,0.315,0.603,0.546c0.139,0.23,0.208,0.476,0.208,0.735c0,0.246-0.066,0.47-0.199,0.673
				c-0.133,0.201-0.33,0.362-0.59,0.481c0.338,0.078,0.604,0.241,0.797,0.487s0.289,0.555,0.289,0.925
				c0,0.501-0.182,0.926-0.547,1.273c-0.365,0.349-0.826,0.522-1.383,0.522c-0.502,0-0.92-0.147-1.252-0.443
				S6.49,23.021,6.443,22.551z"/>
		</g>
		<path i:knockout="Off" fill="none" stroke="#000000" stroke-width="0.7" d="M24.054,28.139v-11.84H12.324v11.84H24.054z"/>
		<g i:knockout="Off">
			<path i:knockout="Off" d="M16.367,24.051h-0.703v-4.48c-0.169,0.162-0.391,0.323-0.666,0.484
				c-0.275,0.162-0.521,0.283-0.74,0.363v-0.68c0.393-0.185,0.737-0.408,1.031-0.672c0.294-0.263,0.502-0.518,0.625-0.766h0.453
				V24.051z"/>
			<path i:knockout="Off" d="M20.41,24.051v-1.375h-2.484v-0.641l2.625-3.719h0.563v3.719h0.781v0.641h-0.781v1.375H20.41z
				 M20.41,22.035v-2.566l-1.792,2.566H20.41z"/>
		</g>
		<path i:knockout="Off" fill="none" stroke="#000000" stroke-width="0.7" d="M35.797,28.139v-11.84H24.067v11.84H35.797z"/>
		<g i:knockout="Off">
			<path i:knockout="Off" d="M28.11,24.051h-0.703v-4.48c-0.169,0.162-0.391,0.323-0.666,0.484c-0.275,0.162-0.521,0.283-0.74,0.363
				v-0.68c0.393-0.185,0.737-0.408,1.031-0.672c0.294-0.263,0.502-0.518,0.625-0.766h0.453V24.051z"/>
			<path i:knockout="Off" d="M29.903,22.551l0.719-0.063c0.055,0.358,0.181,0.627,0.379,0.808s0.441,0.271,0.729,0.271
				c0.349,0,0.639-0.127,0.871-0.382c0.232-0.254,0.348-0.592,0.348-1.013c0-0.399-0.111-0.715-0.332-0.946
				s-0.518-0.347-0.891-0.347c-0.232,0-0.438,0.051-0.617,0.152s-0.322,0.232-0.426,0.395l-0.656-0.094l0.563-2.938h2.844v0.672
				H31.15l-0.313,1.549c0.344-0.24,0.705-0.361,1.082-0.361c0.5,0,0.922,0.173,1.266,0.52c0.344,0.346,0.516,0.791,0.516,1.334
				c0,0.518-0.151,0.965-0.453,1.343c-0.367,0.463-0.869,0.694-1.504,0.694c-0.521,0-0.946-0.146-1.275-0.437
				S29.95,23.031,29.903,22.551z"/>
		</g>
		<path i:knockout="Off" fill="none" stroke="#000000" stroke-width="0.7" d="M47.529,28.139v-11.84H35.8v11.84H47.529z"/>
		<g i:knockout="Off">
			<path i:knockout="Off" d="M39.843,24.051H39.14v-4.48c-0.169,0.162-0.391,0.323-0.666,0.484c-0.275,0.162-0.521,0.283-0.74,0.363
				v-0.68c0.393-0.185,0.737-0.408,1.031-0.672c0.294-0.263,0.502-0.518,0.625-0.766h0.453V24.051z"/>
			<path i:knockout="Off" d="M45.308,19.723l-0.703,0.063c-0.063-0.277-0.152-0.479-0.267-0.604
				c-0.191-0.201-0.428-0.302-0.708-0.302c-0.226,0-0.427,0.063-0.602,0.188c-0.218,0.16-0.391,0.396-0.519,0.705
				c-0.129,0.309-0.195,0.75-0.201,1.322c0.17-0.258,0.377-0.449,0.624-0.574c0.245-0.125,0.503-0.188,0.772-0.188
				c0.471,0,0.871,0.173,1.202,0.518c0.331,0.346,0.496,0.791,0.496,1.338c0,0.359-0.078,0.693-0.233,1.002s-0.37,0.545-0.641,0.709
				c-0.272,0.164-0.581,0.246-0.926,0.246c-0.588,0-1.068-0.215-1.439-0.646c-0.372-0.43-0.557-1.14-0.557-2.129
				c0-1.105,0.206-1.91,0.617-2.412c0.359-0.438,0.842-0.656,1.451-0.656c0.453,0,0.825,0.126,1.114,0.378
				S45.25,19.278,45.308,19.723z M42.417,22.193c0,0.242,0.051,0.474,0.155,0.694c0.104,0.222,0.247,0.39,0.43,0.505
				c0.183,0.116,0.379,0.174,0.589,0.174c0.303,0,0.561-0.119,0.773-0.359c0.212-0.238,0.318-0.563,0.318-0.975
				c0-0.395-0.105-0.707-0.314-0.934c-0.21-0.229-0.478-0.342-0.805-0.342c-0.319,0-0.59,0.113-0.813,0.342
				C42.528,21.525,42.417,21.824,42.417,22.193z"/>
		</g>
		<path i:knockout="Off" fill="none" stroke="#000000" stroke-width="0.7" d="M59.259,28.139v-11.84H47.53v11.84H59.259z"/>
		<g i:knockout="Off">
			<path i:knockout="Off" d="M51.573,24.051H50.87v-4.48c-0.169,0.162-0.392,0.323-0.666,0.484c-0.275,0.162-0.521,0.283-0.74,0.363
				v-0.68c0.393-0.185,0.737-0.408,1.031-0.672c0.294-0.263,0.502-0.518,0.625-0.766h0.453V24.051z"/>
			<path i:knockout="Off" d="M53.413,19.066v-0.672h3.703v0.544c-0.365,0.388-0.728,0.904-1.086,1.548
				c-0.359,0.645-0.636,1.307-0.832,1.988c-0.141,0.479-0.231,1.005-0.27,1.576h-0.719c0.008-0.451,0.096-0.996,0.265-1.635
				c0.169-0.64,0.411-1.256,0.727-1.85c0.315-0.593,0.651-1.093,1.008-1.5H53.413z"/>
		</g>
		<path i:knockout="Off" fill="none" stroke="#000000" stroke-width="0.7" d="M70.992,28.139v-11.84H59.262v11.84H70.992z"/>
		<g i:knockout="Off">
			<path i:knockout="Off" d="M63.305,24.051h-0.703v-4.48c-0.169,0.162-0.392,0.323-0.666,0.484
				c-0.275,0.162-0.521,0.283-0.74,0.363v-0.68c0.393-0.185,0.737-0.408,1.031-0.672c0.294-0.263,0.502-0.518,0.625-0.766h0.453
				V24.051z"/>
			<path i:knockout="Off" d="M66.191,20.947c-0.292-0.106-0.507-0.259-0.648-0.457s-0.211-0.436-0.211-0.712
				c0-0.417,0.149-0.767,0.447-1.052c0.299-0.283,0.696-0.426,1.191-0.426c0.498,0,0.899,0.146,1.203,0.436
				c0.304,0.291,0.456,0.645,0.456,1.062c0,0.267-0.069,0.497-0.208,0.694c-0.139,0.196-0.349,0.349-0.631,0.455
				c0.35,0.114,0.617,0.299,0.799,0.554s0.274,0.559,0.274,0.912c0,0.489-0.173,0.899-0.519,1.232s-0.8,0.499-1.364,0.499
				s-1.019-0.167-1.364-0.501s-0.519-0.751-0.519-1.25c0-0.371,0.095-0.683,0.284-0.934S65.841,21.038,66.191,20.947z
				 M65.817,22.398c0,0.2,0.046,0.394,0.139,0.58c0.092,0.188,0.233,0.332,0.423,0.434c0.189,0.104,0.393,0.154,0.608,0.154
				c0.341,0,0.619-0.107,0.834-0.323c0.216-0.215,0.324-0.489,0.324-0.821c0-0.338-0.111-0.616-0.333-0.837
				s-0.505-0.331-0.848-0.331c-0.335,0-0.61,0.109-0.825,0.327S65.817,22.071,65.817,22.398z M66.051,19.754
				c0,0.271,0.085,0.492,0.257,0.664c0.171,0.172,0.398,0.258,0.681,0.258c0.275,0,0.497-0.085,0.667-0.256
				c0.17-0.17,0.255-0.379,0.255-0.627c0-0.258-0.088-0.475-0.263-0.65s-0.397-0.264-0.667-0.264c-0.272,0-0.495,0.086-0.669,0.258
				S66.051,19.515,66.051,19.754z"/>
		</g>
		<path i:knockout="Off" fill="none" stroke="#000000" stroke-width="0.7" d="M106.16,16.303V4.462H94.431v11.84H106.16z"/>
		<g i:knockout="Off">
			<path i:knockout="Off" d="M98.136,11.256l0.672-0.063c0.057,0.318,0.166,0.548,0.328,0.691c0.161,0.143,0.368,0.215,0.621,0.215
				c0.216,0,0.406-0.049,0.572-0.147c0.165-0.098,0.299-0.23,0.4-0.395s0.188-0.387,0.258-0.667c0.07-0.28,0.105-0.566,0.105-0.858
				c0-0.031-0.002-0.078-0.004-0.141c-0.141,0.224-0.331,0.406-0.573,0.545s-0.505,0.209-0.787,0.209
				c-0.472,0-0.87-0.172-1.197-0.516c-0.326-0.344-0.489-0.798-0.489-1.361c0-0.582,0.171-1.049,0.514-1.404
				c0.342-0.354,0.771-0.532,1.287-0.532c0.372,0,0.713,0.1,1.021,0.3c0.309,0.201,0.543,0.486,0.703,0.857
				c0.16,0.371,0.24,0.907,0.24,1.61c0,0.731-0.08,1.314-0.239,1.747s-0.396,0.763-0.711,0.99c-0.315,0.227-0.685,0.339-1.107,0.339
				c-0.449,0-0.816-0.125-1.101-0.373C98.365,12.057,98.194,11.707,98.136,11.256z M101.027,8.731c0-0.404-0.106-0.725-0.319-0.962
				c-0.212-0.237-0.473-0.356-0.78-0.356c-0.318,0-0.592,0.128-0.822,0.383c-0.229,0.256-0.344,0.587-0.344,0.994
				c0,0.365,0.109,0.662,0.326,0.89c0.219,0.229,0.492,0.342,0.82,0.342c0.326,0,0.594-0.114,0.805-0.342
				C100.921,9.452,101.027,9.135,101.027,8.731z"/>
		</g>
		<path i:knockout="Off" fill="none" stroke="#000000" stroke-width="0.7" d="M117.892,16.303V4.462h-11.729v11.84H117.892z"/>
		<g i:knockout="Off">
			<path i:knockout="Off" d="M110.207,12.584h-0.703v-4.48c-0.17,0.162-0.392,0.323-0.666,0.484
				c-0.275,0.162-0.521,0.283-0.74,0.363v-0.68c0.393-0.185,0.736-0.409,1.031-0.672c0.294-0.263,0.502-0.518,0.625-0.766h0.453
				V12.584z"/>
			<path i:knockout="Off" d="M112,9.758c0-0.676,0.07-1.222,0.211-1.637s0.349-0.733,0.626-0.955
				c0.277-0.221,0.626-0.332,1.046-0.332c0.31,0,0.583,0.062,0.819,0.186s0.429,0.302,0.579,0.535
				c0.149,0.233,0.268,0.517,0.354,0.851s0.13,0.785,0.13,1.353c0,0.671-0.069,1.215-0.209,1.63
				c-0.139,0.415-0.348,0.734-0.624,0.957c-0.277,0.223-0.627,0.333-1.05,0.333c-0.557,0-0.994-0.195-1.312-0.585
				C112.19,11.611,112,10.833,112,9.758z M112.718,9.756c0,0.945,0.111,1.572,0.336,1.881c0.224,0.309,0.5,0.463,0.828,0.463
				s0.604-0.155,0.828-0.465s0.336-0.936,0.336-1.879s-0.111-1.569-0.334-1.879s-0.502-0.465-0.838-0.465
				c-0.328,0-0.592,0.137-0.791,0.41C112.84,8.172,112.718,8.816,112.718,9.756z"/>
		</g>
		<path i:knockout="Off" fill="none" stroke="#000000" stroke-width="0.7" d="M129.623,16.303V4.462h-11.729v11.84H129.623z"/>
		<g i:knockout="Off">
			<path i:knockout="Off" d="M121.936,12.584h-0.703v-4.48c-0.169,0.162-0.392,0.323-0.666,0.484s-0.521,0.283-0.74,0.363v-0.68
				c0.394-0.185,0.737-0.409,1.031-0.672s0.503-0.518,0.625-0.766h0.453V12.584z"/>
			<path i:knockout="Off" d="M126.385,12.584h-0.703v-4.48c-0.169,0.162-0.392,0.323-0.666,0.484s-0.521,0.283-0.74,0.363v-0.68
				c0.394-0.185,0.737-0.409,1.031-0.672s0.503-0.518,0.625-0.766h0.453V12.584z"/>
		</g>
		<path i:knockout="Off" fill="none" stroke="#000000" stroke-width="0.7" d="M141.355,16.303V4.462h-11.729v11.84H141.355z"/>
		<g i:knockout="Off">
			<path i:knockout="Off" d="M133.668,12.584h-0.703v-4.48c-0.169,0.162-0.392,0.323-0.666,0.484s-0.521,0.283-0.74,0.363v-0.68
				c0.394-0.185,0.737-0.409,1.031-0.672s0.503-0.518,0.625-0.766h0.453V12.584z"/>
			<path i:knockout="Off" d="M139.157,11.913v0.672h-3.797c-0.005-0.169,0.022-0.332,0.083-0.488
				c0.097-0.258,0.252-0.511,0.467-0.76c0.214-0.249,0.521-0.537,0.92-0.864c0.62-0.516,1.04-0.923,1.262-1.221
				c0.221-0.297,0.331-0.581,0.331-0.848c0-0.278-0.1-0.513-0.3-0.704c-0.199-0.191-0.459-0.287-0.78-0.287
				c-0.339,0-0.61,0.104-0.813,0.311c-0.204,0.207-0.307,0.494-0.31,0.861L135.5,8.491c0.05-0.539,0.235-0.95,0.558-1.232
				s0.756-0.424,1.3-0.424c0.549,0,0.983,0.153,1.304,0.458c0.319,0.305,0.479,0.682,0.479,1.133c0,0.229-0.047,0.455-0.14,0.676
				c-0.094,0.222-0.248,0.455-0.465,0.7c-0.216,0.245-0.576,0.581-1.08,1.009c-0.424,0.355-0.695,0.596-0.815,0.722
				s-0.219,0.254-0.297,0.381H139.157z"/>
		</g>
		<path i:knockout="Off" fill="none" stroke="#000000" stroke-width="0.7" d="M106.16,28.139v-11.84H94.431v11.84H106.16z"/>
		<g i:knockout="Off">
			<path i:knockout="Off" d="M99.513,23.379v0.672h-3.797c-0.006-0.169,0.022-0.332,0.083-0.488c0.097-0.258,0.253-0.511,0.467-0.76
				c0.214-0.248,0.521-0.537,0.92-0.864c0.62-0.517,1.04-0.923,1.261-1.221c0.222-0.298,0.332-0.58,0.332-0.849
				c0-0.277-0.1-0.513-0.299-0.703c-0.2-0.191-0.461-0.287-0.781-0.287c-0.34,0-0.61,0.104-0.814,0.311
				c-0.203,0.208-0.307,0.494-0.309,0.861l-0.719-0.094c0.049-0.539,0.235-0.949,0.558-1.232c0.323-0.282,0.756-0.424,1.3-0.424
				c0.549,0,0.983,0.152,1.303,0.457c0.32,0.305,0.48,0.683,0.48,1.133c0,0.229-0.047,0.455-0.14,0.677
				c-0.094,0.222-0.248,0.454-0.465,0.699c-0.216,0.245-0.576,0.581-1.081,1.009c-0.423,0.355-0.694,0.596-0.814,0.723
				c-0.119,0.126-0.219,0.253-0.297,0.381H99.513z"/>
			<path i:knockout="Off" d="M102.923,24.051h-0.703v-4.48c-0.17,0.162-0.392,0.323-0.666,0.484
				c-0.275,0.162-0.521,0.283-0.74,0.363v-0.68c0.393-0.185,0.736-0.408,1.031-0.672c0.294-0.263,0.502-0.518,0.625-0.766h0.453
				V24.051z"/>
		</g>
		<path i:knockout="Off" fill="none" stroke="#000000" stroke-width="0.7" d="M117.892,28.139v-11.84h-11.729v11.84H117.892z"/>
		<g i:knockout="Off">
			<path i:knockout="Off" d="M111.246,23.379v0.672h-3.797c-0.006-0.169,0.022-0.332,0.083-0.488
				c0.097-0.258,0.253-0.511,0.467-0.76c0.214-0.248,0.521-0.537,0.92-0.864c0.62-0.517,1.04-0.923,1.261-1.221
				c0.222-0.298,0.332-0.58,0.332-0.849c0-0.277-0.1-0.513-0.299-0.703c-0.2-0.191-0.461-0.287-0.781-0.287
				c-0.34,0-0.61,0.104-0.814,0.311c-0.203,0.208-0.307,0.494-0.309,0.861l-0.719-0.094c0.049-0.539,0.235-0.949,0.558-1.232
				c0.323-0.282,0.756-0.424,1.3-0.424c0.549,0,0.983,0.152,1.303,0.457c0.32,0.305,0.48,0.683,0.48,1.133
				c0,0.229-0.047,0.455-0.14,0.677c-0.094,0.222-0.248,0.454-0.465,0.699c-0.216,0.245-0.576,0.581-1.081,1.009
				c-0.423,0.355-0.694,0.596-0.814,0.723c-0.119,0.126-0.219,0.253-0.297,0.381H111.246z"/>
			<path i:knockout="Off" d="M115.695,23.379v0.672h-3.797c-0.006-0.169,0.022-0.332,0.083-0.488
				c0.097-0.258,0.253-0.511,0.467-0.76c0.214-0.248,0.521-0.537,0.92-0.864c0.62-0.517,1.04-0.923,1.261-1.221
				c0.222-0.298,0.332-0.58,0.332-0.849c0-0.277-0.1-0.513-0.299-0.703c-0.2-0.191-0.461-0.287-0.781-0.287
				c-0.34,0-0.61,0.104-0.814,0.311c-0.203,0.208-0.307,0.494-0.309,0.861l-0.719-0.094c0.049-0.539,0.235-0.949,0.558-1.232
				c0.323-0.282,0.756-0.424,1.3-0.424c0.549,0,0.983,0.152,1.303,0.457c0.32,0.305,0.48,0.683,0.48,1.133
				c0,0.229-0.047,0.455-0.14,0.677c-0.094,0.222-0.248,0.454-0.465,0.699c-0.216,0.245-0.576,0.581-1.081,1.009
				c-0.423,0.355-0.694,0.596-0.814,0.723c-0.119,0.126-0.219,0.253-0.297,0.381H115.695z"/>
		</g>
		<path i:knockout="Off" fill="none" stroke="#000000" stroke-width="0.7" d="M129.623,28.139v-11.84h-11.729v11.84H129.623z"/>
		<g i:knockout="Off">
			<path i:knockout="Off" d="M122.975,23.379v0.672h-3.797c-0.005-0.169,0.022-0.332,0.083-0.488
				c0.097-0.258,0.252-0.511,0.467-0.76c0.214-0.248,0.521-0.537,0.92-0.864c0.62-0.517,1.04-0.923,1.262-1.221
				c0.221-0.298,0.331-0.58,0.331-0.849c0-0.277-0.1-0.513-0.3-0.703c-0.199-0.191-0.459-0.287-0.78-0.287
				c-0.339,0-0.61,0.104-0.813,0.311c-0.204,0.208-0.307,0.494-0.31,0.861l-0.719-0.094c0.05-0.539,0.235-0.949,0.558-1.232
				c0.322-0.282,0.756-0.424,1.3-0.424c0.549,0,0.983,0.152,1.304,0.457c0.319,0.305,0.479,0.683,0.479,1.133
				c0,0.229-0.047,0.455-0.14,0.677c-0.094,0.222-0.248,0.454-0.465,0.699c-0.216,0.245-0.576,0.581-1.08,1.009
				c-0.424,0.355-0.695,0.596-0.815,0.723c-0.12,0.126-0.219,0.253-0.297,0.381H122.975z"/>
			<path i:knockout="Off" d="M123.745,22.551l0.719-0.094c0.08,0.393,0.215,0.676,0.405,0.85c0.189,0.173,0.425,0.26,0.706,0.26
				c0.333,0,0.611-0.115,0.835-0.344c0.223-0.23,0.335-0.515,0.335-0.854c0-0.323-0.104-0.59-0.313-0.801
				c-0.209-0.209-0.476-0.314-0.798-0.314c-0.132,0-0.296,0.026-0.492,0.078l0.077-0.625c0.047,0.006,0.084,0.008,0.112,0.008
				c0.294,0,0.56-0.077,0.795-0.232c0.235-0.154,0.354-0.394,0.354-0.717c0-0.256-0.087-0.467-0.259-0.635
				c-0.174-0.168-0.396-0.252-0.67-0.252c-0.271,0-0.496,0.086-0.676,0.258c-0.182,0.172-0.297,0.43-0.349,0.773l-0.719-0.125
				c0.086-0.471,0.28-0.836,0.585-1.096c0.304-0.259,0.682-0.389,1.134-0.389c0.312,0,0.599,0.066,0.861,0.2
				s0.463,0.315,0.603,0.546c0.139,0.23,0.208,0.476,0.208,0.735c0,0.246-0.066,0.47-0.199,0.673
				c-0.133,0.201-0.329,0.362-0.59,0.481c0.339,0.078,0.604,0.241,0.797,0.487s0.289,0.555,0.289,0.925
				c0,0.501-0.183,0.926-0.547,1.273c-0.364,0.349-0.825,0.522-1.383,0.522c-0.503,0-0.92-0.147-1.252-0.443
				S123.792,23.021,123.745,22.551z"/>
		</g>
		<path i:knockout="Off" fill="none" stroke="#000000" stroke-width="0.7" d="M141.355,28.139v-11.84h-11.729v11.84H141.355z"/>
		<g i:knockout="Off">
			<path i:knockout="Off" d="M134.708,23.379v0.672h-3.797c-0.005-0.169,0.022-0.332,0.083-0.488
				c0.097-0.258,0.252-0.511,0.467-0.76c0.214-0.248,0.521-0.537,0.92-0.864c0.62-0.517,1.04-0.923,1.262-1.221
				c0.221-0.298,0.331-0.58,0.331-0.849c0-0.277-0.1-0.513-0.3-0.703c-0.199-0.191-0.459-0.287-0.78-0.287
				c-0.339,0-0.61,0.104-0.813,0.311c-0.204,0.208-0.307,0.494-0.31,0.861l-0.719-0.094c0.05-0.539,0.235-0.949,0.558-1.232
				c0.322-0.282,0.756-0.424,1.3-0.424c0.549,0,0.983,0.152,1.304,0.457c0.319,0.305,0.479,0.683,0.479,1.133
				c0,0.229-0.047,0.455-0.14,0.677c-0.094,0.222-0.248,0.454-0.465,0.699c-0.216,0.245-0.576,0.581-1.08,1.009
				c-0.424,0.355-0.695,0.596-0.815,0.723c-0.12,0.126-0.219,0.253-0.297,0.381H134.708z"/>
			<path i:knockout="Off" d="M137.711,24.051v-1.375h-2.484v-0.641l2.625-3.719h0.563v3.719h0.781v0.641h-0.781v1.375H137.711z
				 M137.711,22.035v-2.566l-1.792,2.566H137.711z"/>
		</g>
		<path i:knockout="Off" fill="none" stroke="#000000" stroke-width="0.7" d="M82.708,16.303V4.462h-11.73v11.84H82.708z"/>
		<g i:knockout="Off">
			<path i:knockout="Off" d="M74.636,7.6V6.928h3.703v0.543c-0.365,0.389-0.728,0.904-1.086,1.549
				c-0.359,0.644-0.636,1.307-0.832,1.987c-0.141,0.48-0.23,1.006-0.27,1.577h-0.719c0.008-0.451,0.096-0.996,0.266-1.635
				c0.168-0.639,0.41-1.255,0.727-1.849c0.315-0.593,0.651-1.094,1.008-1.5H74.636z"/>
		</g>
		<path i:knockout="Off" fill="none" stroke="#000000" stroke-width="0.7" d="M94.441,16.303V4.462H82.71v11.84H94.441z"/>
		<g i:knockout="Off">
			<path i:knockout="Off" d="M87.416,9.481c-0.292-0.107-0.508-0.259-0.648-0.458c-0.141-0.198-0.211-0.435-0.211-0.711
				c0-0.417,0.149-0.767,0.447-1.051c0.299-0.284,0.695-0.426,1.191-0.426c0.498,0,0.898,0.146,1.203,0.436
				c0.303,0.291,0.455,0.645,0.455,1.062c0,0.266-0.069,0.497-0.208,0.693c-0.139,0.197-0.349,0.349-0.632,0.456
				c0.351,0.115,0.617,0.299,0.8,0.554c0.183,0.255,0.274,0.559,0.274,0.913c0,0.488-0.173,0.899-0.519,1.232
				s-0.8,0.499-1.364,0.499s-1.019-0.167-1.364-0.501s-0.519-0.75-0.519-1.25c0-0.372,0.095-0.683,0.284-0.934
				C86.795,9.743,87.065,9.572,87.416,9.481z M87.041,10.932c0,0.2,0.046,0.393,0.139,0.58c0.092,0.187,0.232,0.332,0.423,0.434
				c0.189,0.103,0.393,0.154,0.608,0.154c0.341,0,0.619-0.108,0.834-0.323c0.217-0.216,0.324-0.489,0.324-0.822
				c0-0.337-0.111-0.616-0.334-0.837c-0.222-0.221-0.504-0.331-0.848-0.331c-0.336,0-0.61,0.109-0.824,0.327
				C87.148,10.333,87.041,10.605,87.041,10.932z M87.275,8.288c0,0.271,0.086,0.492,0.257,0.664s0.397,0.258,0.681,0.258
				c0.275,0,0.497-0.085,0.667-0.256s0.255-0.379,0.255-0.627c0-0.258-0.088-0.475-0.263-0.65s-0.397-0.264-0.667-0.264
				c-0.272,0-0.495,0.086-0.669,0.258S87.275,8.048,87.275,8.288z"/>
		</g>
		<path i:knockout="Off" fill="none" stroke="#000000" stroke-width="0.7" d="M82.708,28.139v-11.84h-11.73v11.84H82.708z"/>
		<g i:knockout="Off">
			<path i:knockout="Off" d="M75.021,24.051h-0.703v-4.48c-0.17,0.162-0.392,0.323-0.666,0.484c-0.275,0.162-0.521,0.283-0.74,0.363
				v-0.68c0.393-0.185,0.736-0.408,1.031-0.672c0.294-0.263,0.502-0.518,0.625-0.766h0.453V24.051z"/>
			<path i:knockout="Off" d="M76.908,22.723l0.672-0.063c0.057,0.318,0.166,0.549,0.328,0.691c0.161,0.144,0.368,0.215,0.621,0.215
				c0.216,0,0.406-0.049,0.572-0.147c0.165-0.099,0.299-0.229,0.4-0.395s0.188-0.387,0.258-0.667
				c0.07-0.279,0.105-0.565,0.105-0.857c0-0.031-0.002-0.078-0.004-0.141c-0.141,0.225-0.331,0.406-0.573,0.545
				c-0.242,0.14-0.505,0.209-0.787,0.209c-0.472,0-0.87-0.172-1.197-0.516c-0.326-0.345-0.489-0.798-0.489-1.361
				c0-0.581,0.171-1.049,0.514-1.404c0.342-0.354,0.771-0.531,1.287-0.531c0.372,0,0.713,0.101,1.021,0.301s0.543,0.486,0.703,0.856
				c0.16,0.371,0.24,0.907,0.24,1.61c0,0.731-0.08,1.313-0.239,1.747s-0.396,0.763-0.711,0.989c-0.315,0.227-0.685,0.34-1.107,0.34
				c-0.449,0-0.816-0.124-1.101-0.373C77.136,23.523,76.965,23.174,76.908,22.723z M79.798,20.197c0-0.404-0.106-0.725-0.319-0.963
				c-0.212-0.236-0.473-0.355-0.78-0.355c-0.318,0-0.592,0.128-0.822,0.384c-0.229,0.255-0.344,0.587-0.344,0.993
				c0,0.365,0.109,0.662,0.326,0.891c0.219,0.228,0.492,0.342,0.82,0.342c0.326,0,0.594-0.114,0.805-0.342
				C79.693,20.918,79.798,20.602,79.798,20.197z"/>
		</g>
		<path i:knockout="Off" fill="none" stroke="#000000" stroke-width="0.7" d="M94.441,28.139v-11.84H82.71v11.84H94.441z"/>
		<g i:knockout="Off">
			<path i:knockout="Off" d="M87.792,23.379v0.672h-3.797c-0.006-0.169,0.022-0.332,0.083-0.488c0.097-0.258,0.253-0.511,0.467-0.76
				c0.214-0.248,0.521-0.537,0.92-0.864c0.62-0.517,1.04-0.923,1.261-1.221c0.222-0.298,0.332-0.58,0.332-0.849
				c0-0.277-0.1-0.513-0.299-0.703c-0.2-0.191-0.461-0.287-0.781-0.287c-0.34,0-0.61,0.104-0.814,0.311
				c-0.203,0.208-0.307,0.494-0.309,0.861l-0.719-0.094c0.049-0.539,0.235-0.949,0.558-1.232c0.323-0.282,0.756-0.424,1.3-0.424
				c0.549,0,0.983,0.152,1.303,0.457c0.32,0.305,0.48,0.683,0.48,1.133c0,0.229-0.047,0.455-0.14,0.677
				c-0.094,0.222-0.248,0.454-0.465,0.699c-0.216,0.245-0.576,0.581-1.081,1.009c-0.423,0.355-0.694,0.596-0.814,0.723
				c-0.119,0.126-0.219,0.253-0.297,0.381H87.792z"/>
			<path i:knockout="Off" d="M88.546,21.225c0-0.677,0.07-1.223,0.211-1.638s0.349-0.733,0.626-0.954
				c0.277-0.222,0.626-0.332,1.046-0.332c0.31,0,0.583,0.063,0.819,0.186s0.429,0.302,0.579,0.535
				c0.149,0.232,0.268,0.516,0.354,0.851s0.13,0.785,0.13,1.353c0,0.672-0.069,1.215-0.209,1.63
				c-0.139,0.415-0.348,0.733-0.624,0.956c-0.277,0.223-0.627,0.334-1.05,0.334c-0.557,0-0.994-0.195-1.312-0.586
				C88.737,23.078,88.546,22.3,88.546,21.225z M89.265,21.223c0,0.945,0.111,1.572,0.336,1.881c0.224,0.309,0.5,0.463,0.828,0.463
				s0.604-0.154,0.828-0.465c0.224-0.31,0.336-0.936,0.336-1.879c0-0.942-0.111-1.568-0.334-1.879
				c-0.223-0.31-0.502-0.465-0.838-0.465c-0.328,0-0.592,0.137-0.791,0.41C89.387,19.639,89.265,20.283,89.265,21.223z"/>
		</g>
		<path i:knockout="Off" fill="none" stroke="#000000" stroke-width="0.7" d="M0.701,14.818h140.622"/>
		<path i:knockout="Off" fill="none" stroke="#000000" stroke-width="0.7" d="M0.701,26.297h140.654"/>
		<path i:knockout="Off" fill="none" stroke="#000000" stroke-width="1.2" d="M0.6,4.27V0.6h2.786v3.534"/>
		<path i:knockout="Off" fill="none" stroke="#000000" stroke-width="1.2" d="M23.944,4.27V0.6h2.786v3.534"/>
		<path i:knockout="Off" fill="none" stroke="#000000" stroke-width="1.2" d="M47.479,4.27V0.6h46.97v3.534"/>
		<path i:knockout="Off" fill="none" stroke="#000000" stroke-width="1.2" d="M138.578,4.27V0.6h2.787v3.534"/>
		<path i:knockout="Off" fill="none" stroke="#000000" stroke-width="1.2" d="M106.14,4.27V0.6h2.787v3.534"/>
		<path i:knockout="Off" fill="none" stroke="#000000" stroke-width="1.2" d="M141.375,28.141H0.61V4.468h140.766V28.141z"/>
	</g>
</svg>
