<?xml version="1.0" encoding="utf-8"?>
<!-- Generator: Adobe Illustrator 10.0, SVG Export Plug-In . SVG Version: 3.0.0 Build 77)  -->
<!DOCTYPE svg PUBLIC "-//W3C//DTD SVG 1.0//EN"    "http://www.w3.org/TR/2001/REC-SVG-20010904/DTD/svg10.dtd" [
	<!ENTITY ns_flows "http://ns.adobe.com/Flows/1.0/">
	<!ENTITY ns_extend "http://ns.adobe.com/Extensibility/1.0/">
	<!ENTITY ns_ai "http://ns.adobe.com/AdobeIllustrator/10.0/">
	<!ENTITY ns_graphs "http://ns.adobe.com/Graphs/1.0/">
	<!ENTITY ns_vars "http://ns.adobe.com/Variables/1.0/">
	<!ENTITY ns_imrep "http://ns.adobe.com/ImageReplacement/1.0/">
	<!ENTITY ns_sfw "http://ns.adobe.com/SaveForWeb/1.0/">
	<!ENTITY ns_custom "http://ns.adobe.com/GenericCustomNamespace/1.0/">
	<!ENTITY ns_adobe_xpath "http://ns.adobe.com/XPath/1.0/">
	<!ENTITY ns_svg "http://www.w3.org/2000/svg">
	<!ENTITY ns_xlink "http://www.w3.org/1999/xlink">
]>
<svg xmlns:x="&ns_extend;" xmlns:i="&ns_ai;" xmlns:graph="&ns_graphs;" i:viewOrigin="282.0142 437.4507" i:rulerOrigin="-1 0.1104" i:pageBounds="1 841.8896 596 -0.1104" xmlns="&ns_svg;" xmlns:xlink="&ns_xlink;" xmlns:a="http://ns.adobe.com/AdobeSVGViewerExtensions/3.0/" width="32.512" height="32.189" viewBox="0 0 32.512 32.189" overflow="visible" enable-background="new 0 0 32.512 32.189" xml:space="preserve" id="svgObj" onload="parent.svgLoad('Top', document)">
	<metadata>
		<variableSets xmlns="&ns_vars;">
			<variableSet varSetName="binding1" locked="none">
				<variables></variables>
				<v:sampleDataSets xmlns="&ns_custom;" xmlns:v="&ns_vars;"></v:sampleDataSets>
			</variableSet>
		</variableSets>
		<sfw xmlns="&ns_sfw;">
			<slices></slices>
			<sliceSourceBounds y="388.708" x="257.815" width="80.371" height="63.363" bottomLeftOrigin="true"></sliceSourceBounds>
		</sfw>
	</metadata>
	<g id="レイヤー_1" i:layer="yes" i:dimmedPercent="100" i:rgbTrio="#4F008000FFFF">
		<g>
			<path i:knockout="Off" fill="none" stroke="#000000" stroke-width="1.2" d="M19.735,3.704L19.737,0.6h7.001v3.104"/>
			<path i:knockout="Off" fill="none" stroke="#000000" stroke-width="1.2" d="M3.867,3.715v12.096h22.875V3.715H3.867z"/>
			<path i:knockout="Off" fill="none" stroke="#000000" stroke-width="0.7" d="M15.212,3.78v12.031"/>
			<g i:knockout="Off">
				<path i:knockout="Off" d="M10.574,11.586H9.871v-4.48C9.701,7.268,9.479,7.429,9.205,7.59C8.93,7.752,8.683,7.873,8.464,7.954
					v-0.68c0.393-0.185,0.737-0.409,1.031-0.672c0.294-0.263,0.502-0.518,0.625-0.766h0.453V11.586z"/>
			</g>
			<g i:knockout="Off">
				<path i:knockout="Off" d="M22.775,10.915v0.672h-3.797c-0.006-0.169,0.022-0.332,0.083-0.488
					c0.097-0.258,0.253-0.511,0.467-0.76c0.214-0.249,0.521-0.537,0.92-0.864c0.62-0.516,1.04-0.923,1.261-1.221
					c0.222-0.298,0.332-0.58,0.332-0.849c0-0.278-0.1-0.513-0.299-0.704c-0.2-0.191-0.461-0.287-0.781-0.287
					c-0.34,0-0.61,0.104-0.814,0.311c-0.203,0.208-0.307,0.494-0.309,0.861l-0.719-0.094c0.049-0.539,0.235-0.95,0.558-1.232
					c0.323-0.282,0.756-0.424,1.3-0.424c0.549,0,0.983,0.152,1.303,0.457c0.32,0.305,0.48,0.683,0.48,1.133
					c0,0.229-0.047,0.455-0.14,0.676c-0.094,0.221-0.248,0.454-0.465,0.699c-0.216,0.245-0.576,0.581-1.081,1.009
					c-0.423,0.355-0.694,0.596-0.814,0.722c-0.119,0.126-0.219,0.253-0.297,0.381H22.775z"/>
			</g>
		</g>
		<path i:knockout="Off" fill="none" stroke="#000000" stroke-width="0.7" d="M3.867,13.633h22.875"/>
		<g>
			<path i:knockout="Off" d="M18.812,25.52l-7.563,4.73V20.79L18.812,25.52z"/>
			<path i:knockout="Off" fill="none" stroke="#000000" stroke-width="1.5" d="M19.218,20.934v9.145"/>
		</g>
		<path i:knockout="Off" stroke="#000000" stroke-width="0.7" d="M5.697,25.583h6.167h7.167h6.832"/>
		<g i:knockout="Off">
			<path i:knockout="Off" d="M2.422,32.189c-0.678-0.856-1.251-1.86-1.719-3.009C0.234,28.032,0,26.842,0,25.612
				c0-1.085,0.175-2.124,0.525-3.117c0.409-1.153,1.042-2.303,1.896-3.446h0.875c-0.548,0.948-0.911,1.625-1.087,2.03
				c-0.276,0.629-0.494,1.285-0.652,1.969c-0.195,0.854-0.292,1.71-0.292,2.571c0,2.192,0.677,4.382,2.031,6.57H2.422z"/>
		</g>
		<g i:knockout="Off">
			<path i:knockout="Off" d="M30.09,32.022h-0.875c1.354-2.188,2.031-4.378,2.031-6.57c0-0.857-0.098-1.707-0.292-2.551
				c-0.154-0.684-0.369-1.34-0.646-1.969c-0.177-0.41-0.541-1.094-1.094-2.051h0.875c0.854,1.145,1.487,2.293,1.896,3.445
				c0.351,0.994,0.525,2.033,0.525,3.118c0,1.23-0.235,2.421-0.706,3.569S30.763,31.165,30.09,32.022z"/>
		</g>
	</g>
</svg>
