<?xml version="1.0" encoding="utf-8"?>
<!-- Generator: Adobe Illustrator 10.0, SVG Export Plug-In . SVG Version: 3.0.0 Build 77)  -->
<!DOCTYPE svg PUBLIC "-//W3C//DTD SVG 1.0//EN"    "http://www.w3.org/TR/2001/REC-SVG-20010904/DTD/svg10.dtd" [
	<!ENTITY ns_flows "http://ns.adobe.com/Flows/1.0/">
	<!ENTITY ns_extend "http://ns.adobe.com/Extensibility/1.0/">
	<!ENTITY ns_ai "http://ns.adobe.com/AdobeIllustrator/10.0/">
	<!ENTITY ns_graphs "http://ns.adobe.com/Graphs/1.0/">
	<!ENTITY ns_vars "http://ns.adobe.com/Variables/1.0/">
	<!ENTITY ns_imrep "http://ns.adobe.com/ImageReplacement/1.0/">
	<!ENTITY ns_sfw "http://ns.adobe.com/SaveForWeb/1.0/">
	<!ENTITY ns_custom "http://ns.adobe.com/GenericCustomNamespace/1.0/">
	<!ENTITY ns_adobe_xpath "http://ns.adobe.com/XPath/1.0/">
	<!ENTITY ns_svg "http://www.w3.org/2000/svg">
	<!ENTITY ns_xlink "http://www.w3.org/1999/xlink">
]>
<svg xmlns:x="&ns_extend;" xmlns:i="&ns_ai;" xmlns:graph="&ns_graphs;" i:viewOrigin="281.519 438.4194" i:rulerOrigin="-1 0.1104" i:pageBounds="1 841.8896 596 -0.1104" xmlns="&ns_svg;" xmlns:xlink="&ns_xlink;" xmlns:a="http://ns.adobe.com/AdobeSVGViewerExtensions/3.0/" width="31.409" height="37.834" viewBox="0 0 31.409 37.834" overflow="visible" enable-background="new 0 0 31.409 37.834" xml:space="preserve" id="svgObj" onload="parent.svgLoad('Top', document)">
	<metadata>
		<variableSets xmlns="&ns_vars;">
			<variableSet varSetName="binding1" locked="none">
				<variables></variables>
				<v:sampleDataSets xmlns="&ns_custom;" xmlns:v="&ns_vars;"></v:sampleDataSets>
			</variableSet>
		</variableSets>
		<sfw xmlns="&ns_sfw;">
			<slices></slices>
			<sliceSourceBounds y="388.708" x="257.815" width="80.371" height="63.363" bottomLeftOrigin="true"></sliceSourceBounds>
		</sfw>
	</metadata>
	<g id="レイヤー_1" i:layer="yes" i:dimmedPercent="100" i:rgbTrio="#4F008000FFFF">
		<g>
			<g i:knockout="Off">
				<path i:knockout="Off" d="M9.067,11.197H8.364v-4.48C8.194,6.878,7.972,7.04,7.698,7.201c-0.275,0.162-0.521,0.283-0.74,0.363
					v-0.68C7.351,6.7,7.694,6.476,7.989,6.212C8.283,5.95,8.491,5.694,8.614,5.447h0.453V11.197z"/>
			</g>
			<g i:knockout="Off">
				<path i:knockout="Off" d="M24.307,10.525v0.672H20.51c-0.006-0.169,0.022-0.332,0.083-0.488c0.097-0.258,0.253-0.511,0.467-0.76
					c0.214-0.249,0.521-0.537,0.92-0.864c0.62-0.516,1.04-0.923,1.261-1.221c0.222-0.298,0.332-0.58,0.332-0.849
					c0-0.278-0.1-0.513-0.299-0.704c-0.2-0.191-0.461-0.287-0.781-0.287c-0.34,0-0.61,0.104-0.814,0.311
					c-0.203,0.208-0.307,0.494-0.309,0.861l-0.719-0.094c0.049-0.539,0.235-0.95,0.558-1.232c0.323-0.282,0.756-0.424,1.3-0.424
					c0.549,0,0.983,0.152,1.303,0.457c0.32,0.305,0.48,0.683,0.48,1.133c0,0.229-0.047,0.455-0.14,0.676
					c-0.094,0.221-0.248,0.454-0.465,0.699c-0.216,0.245-0.576,0.581-1.081,1.009c-0.423,0.355-0.694,0.596-0.814,0.722
					c-0.119,0.126-0.219,0.253-0.297,0.381H24.307z"/>
			</g>
			<path i:knockout="Off" fill="none" stroke="#000000" stroke-width="0.7" d="M16.774,2.63v11.549h11.35V2.63H16.774z"/>
			<path i:knockout="Off" fill="none" stroke="#000000" stroke-width="0.7" d="M2.935,2.63v11.549h11.351V2.63H2.935z"/>
			<path i:knockout="Off" fill="none" stroke="#000000" stroke-width="0.7" d="M20.645,16.671v3.298h5.603v-3.298"/>
			<path i:knockout="Off" fill="none" stroke="#000000" stroke-width="0.7" d="M4.543,14.157v2.527h21.721v-2.527"/>
			<path i:knockout="Off" fill="none" stroke="#000000" stroke-width="1.2" d="M30.809,37.235H0.6V0.6h30.209V37.235z"/>
		</g>
	</g>
</svg>
