<?xml version="1.0" encoding="utf-8"?>
<!-- Generator: Adobe Illustrator 10.0, SVG Export Plug-In . SVG Version: 3.0.0 Build 77)  -->
<!DOCTYPE svg PUBLIC "-//W3C//DTD SVG 1.0//EN"    "http://www.w3.org/TR/2001/REC-SVG-20010904/DTD/svg10.dtd" [
	<!ENTITY ns_flows "http://ns.adobe.com/Flows/1.0/">
	<!ENTITY ns_extend "http://ns.adobe.com/Extensibility/1.0/">
	<!ENTITY ns_ai "http://ns.adobe.com/AdobeIllustrator/10.0/">
	<!ENTITY ns_graphs "http://ns.adobe.com/Graphs/1.0/">
	<!ENTITY ns_vars "http://ns.adobe.com/Variables/1.0/">
	<!ENTITY ns_imrep "http://ns.adobe.com/ImageReplacement/1.0/">
	<!ENTITY ns_sfw "http://ns.adobe.com/SaveForWeb/1.0/">
	<!ENTITY ns_custom "http://ns.adobe.com/GenericCustomNamespace/1.0/">
	<!ENTITY ns_adobe_xpath "http://ns.adobe.com/XPath/1.0/">
	<!ENTITY ns_svg "http://www.w3.org/2000/svg">
	<!ENTITY ns_xlink "http://www.w3.org/1999/xlink">
]>
<svg xmlns:x="&ns_extend;" xmlns:i="&ns_ai;" xmlns:graph="&ns_graphs;" i:viewOrigin="256.3325 447.5293" i:rulerOrigin="-1 0.1104" i:pageBounds="1 841.8896 596 -0.1104" xmlns="&ns_svg;" xmlns:xlink="&ns_xlink;" xmlns:a="http://ns.adobe.com/AdobeSVGViewerExtensions/3.0/" width="83.985" height="96.509" viewBox="0 0 83.985 96.509" overflow="visible" enable-background="new 0 0 83.985 96.509" xml:space="preserve" id="svgObj" onload="parent.svgLoad('Top', document)">
	<metadata>
		<variableSets xmlns="&ns_vars;">
			<variableSet varSetName="binding1" locked="none">
				<variables></variables>
				<v:sampleDataSets xmlns="&ns_custom;" xmlns:v="&ns_vars;"></v:sampleDataSets>
			</variableSet>
		</variableSets>
		<sfw xmlns="&ns_sfw;">
			<slices></slices>
			<sliceSourceBounds y="326.345" x="256.333" width="83.985" height="125.726" bottomLeftOrigin="true"></sliceSourceBounds>
		</sfw>
	</metadata>
	<g id="connector" i:layer="yes" i:dimmedPercent="50" i:rgbTrio="#FFFF4F00FFFF">
		<g i:knockout="Off">
			<path i:knockout="Off" d="M8.879,4.672V3.453h3.109V6.33c-0.303,0.293-0.741,0.551-1.314,0.773
				C10.1,7.326,9.519,7.438,8.93,7.438c-0.748,0-1.399-0.158-1.956-0.474C6.418,6.648,6,6.197,5.721,5.61S5.301,4.385,5.301,3.694
				c0-0.749,0.156-1.415,0.468-1.997c0.313-0.582,0.77-1.028,1.371-1.339C7.598,0.119,8.169,0,8.852,0
				c0.887,0,1.581,0.187,2.08,0.561s0.82,0.89,0.963,1.549l-1.438,0.266c-0.101-0.353-0.29-0.631-0.568-0.835
				C9.611,1.336,9.264,1.234,8.848,1.234c-0.631,0-1.132,0.202-1.504,0.605C6.972,2.243,6.786,2.842,6.786,3.635
				c0,0.856,0.189,1.499,0.567,1.927c0.378,0.428,0.873,0.642,1.486,0.642c0.303,0,0.606-0.06,0.911-0.18
				c0.305-0.12,0.566-0.265,0.785-0.436V4.672H8.879z"/>
			<path i:knockout="Off" d="M12.971,5.411l1.328-0.161c0.042,0.339,0.156,0.599,0.341,0.778s0.409,0.269,0.672,0.269
				c0.282,0,0.52-0.108,0.713-0.326c0.193-0.218,0.29-0.511,0.29-0.88c0-0.349-0.092-0.626-0.277-0.831s-0.41-0.307-0.675-0.307
				c-0.175,0-0.384,0.034-0.626,0.103l0.151-1.103c0.372,0.01,0.656-0.071,0.852-0.242c0.196-0.172,0.294-0.399,0.294-0.684
				c0-0.241-0.072-0.434-0.215-0.577s-0.333-0.216-0.57-0.216c-0.234,0-0.435,0.081-0.6,0.243c-0.166,0.162-0.267,0.399-0.302,0.71
				L13.08,1.974c0.088-0.435,0.22-0.783,0.397-1.043c0.177-0.26,0.424-0.465,0.742-0.613c0.317-0.149,0.673-0.224,1.066-0.224
				c0.673,0,1.213,0.216,1.62,0.646c0.335,0.353,0.503,0.751,0.503,1.195c0,0.63-0.343,1.133-1.029,1.508
				c0.407,0.089,0.732,0.287,0.976,0.595s0.366,0.68,0.366,1.115c0,0.632-0.229,1.171-0.688,1.616s-1.029,0.668-1.711,0.668
				c-0.647,0-1.184-0.187-1.609-0.561C13.286,6.504,13.039,6.015,12.971,5.411z"/>
			<path i:knockout="Off" d="M21.267,7.297V5.859h-2.922V4.661l3.098-4.552h1.152v4.547h0.891v1.203h-0.891v1.438H21.267z
				 M21.267,4.656V2.224L19.63,4.656H21.267z"/>
			<path i:knockout="Off" d="M28.782,1.886l-1.328,0.146c-0.033-0.272-0.118-0.473-0.256-0.603
				c-0.138-0.129-0.316-0.194-0.536-0.194c-0.292,0-0.539,0.131-0.741,0.394c-0.202,0.263-0.329,0.807-0.381,1.634
				c0.344-0.403,0.771-0.605,1.283-0.605c0.577,0,1.071,0.219,1.482,0.656s0.617,1.001,0.617,1.693c0,0.734-0.216,1.323-0.647,1.767
				s-0.985,0.666-1.661,0.666c-0.725,0-1.321-0.282-1.788-0.846c-0.467-0.564-0.701-1.489-0.701-2.774
				c0-1.318,0.243-2.269,0.729-2.851s1.117-0.873,1.893-0.873c0.544,0,0.995,0.153,1.352,0.459
				C28.456,0.859,28.684,1.303,28.782,1.886z M25.657,4.899c0,0.447,0.104,0.792,0.311,1.034c0.208,0.243,0.445,0.364,0.711,0.364
				c0.257,0,0.471-0.1,0.642-0.298c0.171-0.199,0.257-0.525,0.257-0.978c0-0.466-0.092-0.807-0.277-1.024s-0.415-0.325-0.691-0.325
				c-0.267,0-0.493,0.104-0.677,0.311S25.657,4.495,25.657,4.899z"/>
		</g>
		<g i:knockout="Off">
			<path i:knockout="Off" d="M5.176,67.332l1.406-0.141c0.084,0.474,0.255,0.82,0.513,1.042c0.257,0.223,0.604,0.333,1.042,0.333
				c0.463,0,0.812-0.099,1.046-0.296c0.235-0.197,0.353-0.429,0.353-0.693c0-0.169-0.05-0.313-0.148-0.433s-0.271-0.223-0.517-0.312
				c-0.169-0.059-0.552-0.163-1.151-0.313c-0.771-0.192-1.311-0.429-1.622-0.71c-0.437-0.395-0.655-0.876-0.655-1.444
				c0-0.365,0.103-0.707,0.31-1.025c0.206-0.318,0.503-0.561,0.891-0.727c0.388-0.167,0.857-0.25,1.406-0.25
				c0.896,0,1.57,0.198,2.023,0.597c0.453,0.396,0.691,0.928,0.714,1.591l-1.453,0.047c-0.062-0.366-0.193-0.63-0.396-0.79
				c-0.203-0.161-0.506-0.241-0.911-0.241c-0.417,0-0.744,0.086-0.98,0.259c-0.152,0.11-0.229,0.258-0.229,0.443
				c0,0.169,0.071,0.313,0.214,0.434c0.182,0.152,0.624,0.313,1.326,0.479c0.702,0.167,1.221,0.34,1.557,0.518
				c0.336,0.179,0.599,0.423,0.79,0.732c0.19,0.309,0.285,0.691,0.285,1.146c0,0.412-0.114,0.799-0.341,1.158
				c-0.228,0.36-0.549,0.628-0.965,0.803s-0.935,0.263-1.556,0.263c-0.904,0-1.598-0.21-2.082-0.631
				C5.56,68.75,5.271,68.137,5.176,67.332z"/>
			<path i:knockout="Off" d="M15.425,69.66H14.05v-5.185c-0.5,0.471-1.088,0.818-1.766,1.044v-1.25
				c0.357-0.117,0.746-0.339,1.166-0.667c0.419-0.327,0.707-0.709,0.863-1.146h1.112V69.66z"/>
			<path i:knockout="Off" d="M17.455,63.879v-1.281h4.688v1c-0.387,0.381-0.781,0.928-1.181,1.64
				c-0.4,0.713-0.705,1.471-0.915,2.272c-0.21,0.803-0.313,1.519-0.31,2.15h-1.328c0.023-0.989,0.227-1.997,0.614-3.024
				c0.387-1.028,0.903-1.947,1.549-2.757H17.455z"/>
			<path i:knockout="Off" d="M26.548,69.66h-1.375v-5.185c-0.5,0.471-1.088,0.818-1.766,1.044v-1.25
				c0.357-0.117,0.746-0.339,1.166-0.667c0.419-0.327,0.707-0.709,0.863-1.146h1.112V69.66z"/>
		</g>
	</g>
	<g id="レイヤー_1" i:layer="yes" i:dimmedPercent="100" i:rgbTrio="#4F008000FFFF">
		<g>
			<g>
				<path i:knockout="Off" fill="none" stroke="#000000" stroke-width="1.2" stroke-linecap="round" d="M3.412,24.018v-3.343H0.6
					v3.343H3.412z"/>
				<path i:knockout="Off" fill="none" stroke="#000000" stroke-width="1.2" stroke-linecap="round" d="M83.385,24.018v-3.343
					h-2.812v3.343H83.385z"/>
				<path i:knockout="Off" fill="none" stroke="#000000" stroke-width="0.7" stroke-linecap="round" d="M83.174,36.386V24.044
					H69.557v12.342H83.174z"/>
				<g i:knockout="Off">
					<path i:knockout="Off" d="M78.528,28.041l-0.703,0.063c-0.063-0.277-0.152-0.479-0.268-0.604
						c-0.191-0.201-0.427-0.302-0.708-0.302c-0.226,0-0.426,0.063-0.602,0.187c-0.218,0.161-0.391,0.396-0.52,0.705
						c-0.128,0.31-0.195,0.75-0.2,1.323c0.17-0.258,0.378-0.449,0.623-0.574c0.246-0.125,0.503-0.188,0.772-0.188
						c0.471,0,0.871,0.173,1.202,0.518s0.496,0.791,0.496,1.338c0,0.359-0.078,0.693-0.233,1.002
						c-0.156,0.309-0.369,0.545-0.642,0.709c-0.271,0.164-0.58,0.246-0.925,0.246c-0.589,0-1.068-0.216-1.44-0.646
						c-0.371-0.432-0.557-1.141-0.557-2.13c0-1.106,0.206-1.91,0.617-2.413c0.358-0.437,0.843-0.656,1.45-0.656
						c0.453,0,0.825,0.126,1.115,0.378C78.296,27.249,78.47,27.597,78.528,28.041z M75.637,30.512c0,0.242,0.052,0.474,0.155,0.694
						s0.246,0.39,0.43,0.505c0.184,0.116,0.38,0.174,0.589,0.174c0.304,0,0.562-0.12,0.773-0.358
						c0.212-0.24,0.318-0.564,0.318-0.976c0-0.396-0.104-0.706-0.314-0.935c-0.209-0.227-0.478-0.341-0.805-0.341
						c-0.319,0-0.591,0.114-0.813,0.341C75.749,29.845,75.637,30.143,75.637,30.512z"/>
				</g>
				<path i:knockout="Off" fill="none" stroke="#000000" stroke-width="0.7" stroke-linecap="round" d="M69.424,36.386V24.044
					H55.807v12.342H69.424z"/>
				<g i:knockout="Off">
					<path i:knockout="Off" d="M61.106,30.869l0.719-0.063c0.055,0.358,0.182,0.628,0.38,0.808c0.197,0.181,0.44,0.271,0.729,0.271
						c0.35,0,0.64-0.127,0.871-0.382c0.232-0.254,0.349-0.592,0.349-1.013c0-0.399-0.11-0.715-0.332-0.946
						c-0.222-0.23-0.519-0.347-0.891-0.347c-0.231,0-0.438,0.051-0.617,0.152s-0.321,0.233-0.426,0.395l-0.656-0.094l0.563-2.938
						h2.844v0.672h-2.285l-0.313,1.549c0.344-0.241,0.704-0.361,1.082-0.361c0.5,0,0.922,0.173,1.266,0.519
						c0.344,0.347,0.516,0.791,0.516,1.335c0,0.518-0.151,0.966-0.453,1.343c-0.367,0.463-0.868,0.694-1.504,0.694
						c-0.521,0-0.946-0.146-1.275-0.437S61.153,31.35,61.106,30.869z"/>
				</g>
				<path i:knockout="Off" fill="none" stroke="#000000" stroke-width="0.7" stroke-linecap="round" d="M55.674,36.386V24.044
					H42.057v12.342H55.674z"/>
				<g i:knockout="Off">
					<path i:knockout="Off" d="M49.606,32.369v-1.375h-2.484v-0.641l2.625-3.719h0.563v3.719h0.781v0.641h-0.781v1.375H49.606z
						 M49.606,30.354v-2.566l-1.792,2.566H49.606z"/>
				</g>
				<path i:knockout="Off" fill="none" stroke="#000000" stroke-width="0.7" stroke-linecap="round" d="M41.924,36.386V24.044
					H28.308v12.342H41.924z"/>
				<g i:knockout="Off">
					<path i:knockout="Off" d="M33.622,30.869l0.719-0.094c0.08,0.394,0.215,0.676,0.405,0.85c0.19,0.173,0.425,0.26,0.707,0.26
						c0.333,0,0.611-0.114,0.835-0.345c0.223-0.229,0.335-0.514,0.335-0.853c0-0.323-0.104-0.591-0.313-0.8
						c-0.209-0.211-0.476-0.315-0.798-0.315c-0.132,0-0.296,0.026-0.492,0.078l0.078-0.625c0.046,0.005,0.083,0.008,0.112,0.008
						c0.294,0,0.56-0.077,0.795-0.232s0.354-0.394,0.354-0.717c0-0.255-0.086-0.467-0.259-0.635s-0.396-0.252-0.669-0.252
						c-0.271,0-0.497,0.086-0.677,0.258c-0.181,0.172-0.296,0.43-0.348,0.773l-0.719-0.125c0.086-0.471,0.28-0.836,0.584-1.096
						c0.304-0.259,0.682-0.389,1.134-0.389c0.312,0,0.599,0.067,0.861,0.2c0.262,0.134,0.463,0.315,0.602,0.546
						c0.139,0.231,0.208,0.476,0.208,0.735c0,0.246-0.066,0.471-0.199,0.672c-0.133,0.203-0.33,0.363-0.59,0.482
						c0.338,0.078,0.604,0.24,0.797,0.487c0.192,0.246,0.289,0.555,0.289,0.925c0,0.501-0.183,0.926-0.547,1.273
						c-0.365,0.349-0.826,0.522-1.383,0.522c-0.503,0-0.92-0.147-1.252-0.443S33.668,31.34,33.622,30.869z"/>
				</g>
				<path i:knockout="Off" fill="none" stroke="#000000" stroke-width="0.7" stroke-linecap="round" d="M28.175,36.386V24.044
					H14.558v12.342H28.175z"/>
				<g i:knockout="Off">
					<path i:knockout="Off" d="M23.551,31.697v0.672h-3.797c-0.005-0.169,0.022-0.332,0.083-0.488
						c0.097-0.258,0.252-0.511,0.467-0.76c0.214-0.249,0.521-0.536,0.92-0.864c0.62-0.516,1.04-0.923,1.261-1.221
						s0.332-0.58,0.332-0.849c0-0.278-0.1-0.513-0.299-0.704s-0.46-0.287-0.781-0.287c-0.339,0-0.61,0.104-0.814,0.311
						s-0.307,0.495-0.309,0.861l-0.719-0.094c0.049-0.539,0.235-0.95,0.558-1.232c0.323-0.282,0.756-0.424,1.3-0.424
						c0.549,0,0.983,0.152,1.303,0.457s0.48,0.683,0.48,1.134c0,0.229-0.047,0.454-0.14,0.676c-0.094,0.221-0.248,0.454-0.465,0.699
						c-0.216,0.245-0.576,0.581-1.081,1.009c-0.423,0.354-0.695,0.596-0.815,0.722c-0.12,0.127-0.219,0.254-0.297,0.382H23.551z"/>
				</g>
				<path i:knockout="Off" fill="none" stroke="#000000" stroke-width="0.7" stroke-linecap="round" d="M14.425,36.386V24.044H0.808
					v12.342H14.425z"/>
				<g i:knockout="Off">
					<path i:knockout="Off" d="M8.762,32.369H8.059v-4.48c-0.169,0.161-0.392,0.323-0.666,0.484
						c-0.275,0.161-0.521,0.282-0.74,0.363v-0.68c0.393-0.185,0.737-0.409,1.031-0.672c0.294-0.263,0.502-0.518,0.625-0.766h0.453
						V32.369z"/>
				</g>
				<path i:knockout="Off" fill="none" stroke="#000000" stroke-width="1.2" d="M83.336,36.335V24.06H0.639v12.275H83.336z"/>
				<path i:knockout="Off" fill="none" stroke="#000000" stroke-width="1.2" d="M44.603,24.018v-3.401h-5.669v3.401H44.603z"/>
			</g>
			<path i:knockout="Off" fill="none" stroke="#000000" stroke-width="0.7" stroke-linecap="round" d="M0.85,34.518h81.911"/>
		</g>
		<g>
			<g>
				<g>
					<path i:knockout="Off" fill="none" stroke="#000000" stroke-width="0.75" stroke-linecap="round" d="M9.08,83.461V80.62H6.69
						v2.841H9.08z"/>
					<path i:knockout="Off" fill="none" stroke="#000000" stroke-width="0.75" stroke-linecap="round" d="M77.058,83.461V80.62
						h-2.391v2.841H77.058z"/>
					<path i:knockout="Off" fill="none" stroke="#000000" stroke-width="0.7" stroke-linecap="round" d="M76.878,93.974v-10.49
						H65.304v10.49H76.878z"/>
					<g i:knockout="Off">
						<path i:knockout="Off" d="M72.06,90.56h-0.594v-3.805c-0.146,0.137-0.335,0.274-0.57,0.411
							c-0.235,0.138-0.446,0.24-0.633,0.309v-0.577c0.335-0.157,0.629-0.347,0.88-0.57c0.252-0.224,0.43-0.44,0.534-0.65h0.383
							V90.56z"/>
					</g>
					<path i:knockout="Off" fill="none" stroke="#000000" stroke-width="0.7" stroke-linecap="round" d="M65.191,93.974v-10.49
						H53.617v10.49H65.191z"/>
					<g i:knockout="Off">
						<path i:knockout="Off" d="M61.262,89.989v0.57h-3.227c-0.005-0.144,0.019-0.282,0.07-0.415
							c0.083-0.22,0.216-0.435,0.398-0.647c0.183-0.211,0.443-0.456,0.782-0.734c0.525-0.436,0.882-0.78,1.069-1.033
							s0.281-0.492,0.281-0.719c0-0.236-0.085-0.436-0.255-0.599c-0.17-0.162-0.392-0.243-0.665-0.243
							c-0.288,0-0.52,0.086-0.692,0.259s-0.261,0.412-0.263,0.718l-0.617-0.063c0.042-0.458,0.2-0.807,0.477-1.047
							c0.275-0.239,0.645-0.359,1.109-0.359c0.469,0,0.84,0.13,1.113,0.389s0.41,0.579,0.41,0.962c0,0.195-0.04,0.387-0.12,0.574
							c-0.08,0.188-0.212,0.386-0.397,0.595c-0.185,0.207-0.492,0.493-0.922,0.856c-0.359,0.301-0.591,0.505-0.693,0.612
							s-0.188,0.216-0.255,0.324H61.262z"/>
					</g>
					<path i:knockout="Off" fill="none" stroke="#000000" stroke-width="0.7" stroke-linecap="round" d="M53.503,93.974v-10.49
						H41.929v10.49H53.503z"/>
					<g i:knockout="Off">
						<path i:knockout="Off" d="M46.443,89.271l0.594-0.078c0.068,0.338,0.185,0.581,0.348,0.729
							c0.163,0.149,0.364,0.224,0.604,0.224c0.283,0,0.521-0.097,0.714-0.291c0.191-0.194,0.288-0.436,0.288-0.723
							c0-0.273-0.09-0.499-0.269-0.677c-0.18-0.178-0.407-0.267-0.684-0.267c-0.112,0-0.253,0.022-0.421,0.066l0.066-0.523
							c0.04,0.005,0.071,0.007,0.096,0.007c0.252,0,0.479-0.066,0.682-0.198c0.201-0.133,0.303-0.337,0.303-0.613
							c0-0.219-0.074-0.399-0.221-0.543c-0.147-0.143-0.338-0.215-0.57-0.215c-0.23,0-0.423,0.073-0.577,0.219
							c-0.153,0.146-0.252,0.364-0.296,0.656l-0.594-0.109c0.072-0.399,0.237-0.709,0.495-0.929s0.578-0.329,0.962-0.329
							c0.265,0,0.508,0.057,0.73,0.171c0.223,0.113,0.393,0.269,0.511,0.466c0.117,0.196,0.177,0.405,0.177,0.626
							c0,0.21-0.057,0.401-0.17,0.573c-0.112,0.172-0.279,0.31-0.501,0.411c0.288,0.065,0.512,0.203,0.672,0.412
							c0.161,0.208,0.241,0.47,0.241,0.782c0,0.424-0.155,0.783-0.464,1.078c-0.31,0.294-0.7,0.441-1.173,0.441
							c-0.426,0-0.78-0.127-1.062-0.381S46.482,89.675,46.443,89.271z"/>
					</g>
					<path i:knockout="Off" fill="none" stroke="#000000" stroke-width="0.7" stroke-linecap="round" d="M41.816,93.974v-10.49
						H30.242v10.49H41.816z"/>
					<g i:knockout="Off">
						<path i:knockout="Off" d="M36.669,90.56v-1.164h-2.125v-0.547l2.234-3.156h0.484v3.156h0.656v0.547h-0.656v1.164H36.669z
							 M36.669,88.849v-2.197l-1.537,2.197H36.669z"/>
					</g>
					<path i:knockout="Off" fill="none" stroke="#000000" stroke-width="0.7" stroke-linecap="round" d="M30.128,93.974v-10.49
						H18.554v10.49H30.128z"/>
					<g i:knockout="Off">
						<path i:knockout="Off" d="M23.06,89.278l0.625-0.047c0.047,0.304,0.154,0.532,0.322,0.685
							c0.168,0.153,0.374,0.229,0.616,0.229c0.292,0,0.537-0.108,0.734-0.325c0.198-0.217,0.296-0.504,0.296-0.862
							c0-0.341-0.094-0.609-0.284-0.807c-0.189-0.196-0.44-0.295-0.753-0.295c-0.195,0-0.369,0.044-0.522,0.133
							c-0.153,0.088-0.274,0.203-0.363,0.344l-0.563-0.078l0.469-2.5h2.422v0.57h-1.943l-0.262,1.308
							c0.292-0.205,0.598-0.308,0.919-0.308c0.425,0,0.783,0.147,1.075,0.441c0.292,0.295,0.438,0.674,0.438,1.137
							c0,0.441-0.128,0.822-0.385,1.143c-0.312,0.395-0.738,0.592-1.278,0.592c-0.442,0-0.804-0.124-1.083-0.372
							C23.259,90.018,23.1,89.688,23.06,89.278z"/>
					</g>
					<path i:knockout="Off" fill="none" stroke="#000000" stroke-width="0.7" stroke-linecap="round" d="M18.441,93.974v-10.49
						H6.867v10.49H18.441z"/>
					<g i:knockout="Off">
						<path i:knockout="Off" d="M14.482,86.888l-0.594,0.047c-0.053-0.234-0.129-0.404-0.227-0.511
							c-0.162-0.17-0.362-0.255-0.599-0.255c-0.191,0-0.36,0.053-0.507,0.159c-0.186,0.137-0.333,0.336-0.442,0.599
							s-0.166,0.637-0.17,1.124c0.144-0.22,0.32-0.382,0.527-0.488c0.208-0.106,0.426-0.159,0.654-0.159
							c0.398,0,0.737,0.146,1.017,0.439c0.28,0.292,0.419,0.671,0.419,1.135c0,0.305-0.065,0.588-0.197,0.85
							c-0.131,0.262-0.313,0.463-0.542,0.602c-0.23,0.14-0.491,0.209-0.783,0.209c-0.498,0-0.903-0.183-1.217-0.549
							c-0.314-0.365-0.471-0.968-0.471-1.808c0-0.938,0.174-1.621,0.522-2.048c0.304-0.371,0.712-0.557,1.227-0.557
							c0.383,0,0.698,0.107,0.943,0.322C14.287,86.213,14.433,86.51,14.482,86.888z M12.037,88.982c0,0.205,0.043,0.4,0.131,0.588
							c0.087,0.188,0.208,0.33,0.363,0.428c0.155,0.099,0.32,0.147,0.494,0.147c0.254,0,0.47-0.102,0.649-0.304
							c0.18-0.203,0.269-0.479,0.269-0.826c0-0.335-0.088-0.599-0.266-0.792c-0.177-0.192-0.402-0.289-0.676-0.289
							c-0.269,0-0.497,0.097-0.684,0.289C12.13,88.417,12.037,88.669,12.037,88.982z"/>
					</g>
					<path i:knockout="Off" fill="none" stroke="#000000" stroke-width="0.75" d="M77.017,93.931V83.496H6.724v10.435H77.017z"/>
					<path i:knockout="Off" fill="none" stroke="#000000" stroke-width="0.75" d="M44.093,83.461v-2.892h-4.82v2.892H44.093z"/>
				</g>
				<path i:knockout="Off" fill="none" stroke="#000000" stroke-width="0.7" stroke-linecap="round" d="M6.903,92.386h69.624"/>
			</g>
			<path i:knockout="Off" fill="none" stroke="#000000" stroke-width="1.2" d="M79.335,95.909H4.327V78.891h75.008V95.909z"/>
		</g>
	</g>
</svg>
