<?xml version="1.0" encoding="utf-8"?>
<!-- Generator: Adobe Illustrator 10.0, SVG Export Plug-In . SVG Version: 3.0.0 Build 77)  -->
<!DOCTYPE svg PUBLIC "-//W3C//DTD SVG 1.0//EN"    "http://www.w3.org/TR/2001/REC-SVG-20010904/DTD/svg10.dtd" [
	<!ENTITY ns_flows "http://ns.adobe.com/Flows/1.0/">
	<!ENTITY ns_extend "http://ns.adobe.com/Extensibility/1.0/">
	<!ENTITY ns_ai "http://ns.adobe.com/AdobeIllustrator/10.0/">
	<!ENTITY ns_graphs "http://ns.adobe.com/Graphs/1.0/">
	<!ENTITY ns_vars "http://ns.adobe.com/Variables/1.0/">
	<!ENTITY ns_imrep "http://ns.adobe.com/ImageReplacement/1.0/">
	<!ENTITY ns_sfw "http://ns.adobe.com/SaveForWeb/1.0/">
	<!ENTITY ns_custom "http://ns.adobe.com/GenericCustomNamespace/1.0/">
	<!ENTITY ns_adobe_xpath "http://ns.adobe.com/XPath/1.0/">
	<!ENTITY ns_svg "http://www.w3.org/2000/svg">
	<!ENTITY ns_xlink "http://www.w3.org/1999/xlink">
]>
<svg xmlns:x="&ns_extend;" xmlns:i="&ns_ai;" xmlns:graph="&ns_graphs;" i:viewOrigin="231.8188 486.2544" i:rulerOrigin="0 0" i:pageBounds="0 841.8896 595.2754 0" xmlns="&ns_svg;" xmlns:xlink="&ns_xlink;" xmlns:a="http://ns.adobe.com/AdobeSVGViewerExtensions/3.0/" width="149.245" height="117.704" viewBox="0 0 149.245 117.704" overflow="visible" enable-background="new 0 0 149.245 117.704" xml:space="preserve" id="svgObj" onload="parent.svgLoad('Top', document)">
	<metadata>
		<variableSets xmlns="&ns_vars;">
			<variableSet varSetName="binding1" locked="none">
				<variables></variables>
				<v:sampleDataSets xmlns="&ns_custom;" xmlns:v="&ns_vars;"></v:sampleDataSets>
			</variableSet>
		</variableSets>
		<sfw xmlns="&ns_sfw;">
			<slices></slices>
			<sliceSourceBounds y="365.165" x="228" width="159.74" height="125.725" bottomLeftOrigin="true"></sliceSourceBounds>
		</sfw>
	</metadata>
	<g id="connector" i:layer="yes" i:dimmedPercent="50" i:rgbTrio="#FFFF4F00FFFF">
		<g i:knockout="Off">
			<path i:knockout="Off" d="M0.281,7.203V0.109h1.453v5.875h3.594v1.219H0.281z"/>
			<path i:knockout="Off" d="M6,5.318l1.328-0.162C7.37,5.496,7.483,5.755,7.668,5.934c0.185,0.18,0.409,0.269,0.672,0.269
				c0.282,0,0.52-0.109,0.713-0.326s0.29-0.511,0.29-0.88c0-0.35-0.093-0.626-0.277-0.831S8.657,3.859,8.391,3.859
				c-0.175,0-0.384,0.034-0.626,0.103l0.151-1.103c0.372,0.01,0.656-0.071,0.852-0.243c0.196-0.171,0.294-0.398,0.294-0.683
				c0-0.242-0.072-0.435-0.215-0.578s-0.333-0.215-0.57-0.215c-0.234,0-0.435,0.081-0.601,0.243C7.511,1.546,7.41,1.783,7.375,2.094
				L6.109,1.88c0.088-0.435,0.22-0.783,0.397-1.043s0.424-0.464,0.742-0.614C7.565,0.075,7.92,0,8.314,0
				c0.674,0,1.213,0.215,1.62,0.646c0.335,0.353,0.503,0.751,0.503,1.195c0,0.63-0.343,1.133-1.029,1.509
				c0.407,0.088,0.732,0.286,0.976,0.594c0.244,0.308,0.366,0.679,0.366,1.115c0,0.633-0.229,1.171-0.688,1.617
				S9.033,7.344,8.35,7.344c-0.647,0-1.184-0.187-1.609-0.56C6.314,6.41,6.067,5.921,6,5.318z"/>
			<path i:knockout="Off" d="M11.639,5.553l1.328-0.147C13,5.677,13.084,5.877,13.221,6.007c0.137,0.131,0.318,0.196,0.543,0.196
				c0.284,0,0.525-0.131,0.724-0.394s0.326-0.805,0.382-1.629c-0.346,0.4-0.778,0.601-1.297,0.601c-0.564,0-1.051-0.218-1.461-0.653
				c-0.409-0.436-0.614-1.002-0.614-1.701c0-0.728,0.215-1.314,0.647-1.759C12.577,0.223,13.126,0,13.794,0
				c0.726,0,1.322,0.282,1.787,0.846c0.466,0.564,0.699,1.491,0.699,2.782c0,1.314-0.243,2.262-0.727,2.844
				c-0.485,0.582-1.116,0.873-1.894,0.873c-0.56,0-1.012-0.15-1.356-0.449C11.958,6.595,11.737,6.148,11.639,5.553z M14.749,2.544
				c0-0.445-0.103-0.79-0.307-1.036S14,1.141,13.731,1.141c-0.255,0-0.468,0.101-0.636,0.302c-0.169,0.201-0.253,0.53-0.253,0.988
				c0,0.465,0.091,0.806,0.275,1.023c0.184,0.218,0.413,0.327,0.688,0.327c0.265,0,0.489-0.104,0.67-0.314S14.749,2.95,14.749,2.544
				z"/>
			<path i:knockout="Off" d="M17.201,5.553l1.328-0.147c0.033,0.271,0.117,0.471,0.254,0.601c0.137,0.131,0.318,0.196,0.543,0.196
				c0.284,0,0.525-0.131,0.724-0.394c0.199-0.262,0.326-0.805,0.381-1.629c-0.346,0.4-0.778,0.601-1.297,0.601
				c-0.564,0-1.051-0.218-1.46-0.653c-0.41-0.436-0.614-1.002-0.614-1.701c0-0.728,0.216-1.314,0.647-1.759
				C18.139,0.223,18.688,0,19.355,0c0.726,0,1.322,0.282,1.788,0.846c0.465,0.564,0.698,1.491,0.698,2.782
				c0,1.314-0.242,2.262-0.727,2.844s-1.116,0.873-1.893,0.873c-0.56,0-1.012-0.15-1.357-0.449
				C17.52,6.595,17.298,6.148,17.201,5.553z M20.31,2.544c0-0.445-0.103-0.79-0.307-1.036s-0.441-0.368-0.71-0.368
				c-0.255,0-0.467,0.101-0.636,0.302c-0.168,0.201-0.253,0.53-0.253,0.988c0,0.465,0.092,0.806,0.275,1.023
				c0.183,0.218,0.413,0.327,0.688,0.327c0.265,0,0.489-0.104,0.671-0.314C20.219,3.258,20.31,2.95,20.31,2.544z"/>
		</g>
		<g i:knockout="Off">
			<path i:knockout="Off" d="M3.578,66.941v-1.219h3.109v2.877c-0.302,0.293-0.741,0.551-1.315,0.773
				c-0.574,0.223-1.155,0.334-1.743,0.334c-0.748,0-1.4-0.158-1.956-0.474c-0.557-0.315-0.975-0.767-1.254-1.354
				C0.14,67.292,0,66.654,0,65.963c0-0.749,0.156-1.415,0.468-1.997c0.312-0.582,0.769-1.028,1.37-1.339
				c0.459-0.239,1.029-0.358,1.712-0.358c0.888,0,1.581,0.187,2.08,0.561s0.82,0.89,0.963,1.549l-1.438,0.266
				c-0.101-0.353-0.291-0.631-0.568-0.835c-0.278-0.204-0.625-0.306-1.041-0.306c-0.631,0-1.133,0.202-1.505,0.605
				s-0.558,1.002-0.558,1.795c0,0.856,0.189,1.498,0.567,1.927c0.378,0.428,0.874,0.642,1.486,0.642c0.303,0,0.607-0.06,0.912-0.18
				c0.305-0.119,0.566-0.265,0.785-0.436v-0.916H3.578z"/>
			<path i:knockout="Off" d="M7.669,67.68l1.328-0.161c0.042,0.34,0.156,0.599,0.341,0.777c0.185,0.18,0.409,0.27,0.672,0.27
				c0.282,0,0.52-0.108,0.713-0.326c0.193-0.218,0.29-0.511,0.29-0.881c0-0.349-0.092-0.626-0.277-0.83s-0.41-0.307-0.675-0.307
				c-0.175,0-0.384,0.034-0.626,0.103l0.151-1.103c0.372,0.01,0.656-0.071,0.852-0.242c0.196-0.172,0.294-0.399,0.294-0.684
				c0-0.241-0.072-0.434-0.215-0.577s-0.333-0.216-0.57-0.216c-0.234,0-0.435,0.081-0.6,0.243c-0.166,0.162-0.267,0.399-0.302,0.71
				l-1.266-0.214c0.088-0.435,0.22-0.783,0.397-1.043c0.177-0.26,0.424-0.465,0.742-0.613c0.317-0.149,0.673-0.224,1.066-0.224
				c0.673,0,1.213,0.216,1.62,0.646c0.335,0.353,0.503,0.751,0.503,1.195c0,0.63-0.343,1.133-1.029,1.508
				c0.407,0.089,0.732,0.287,0.976,0.595s0.366,0.68,0.366,1.115c0,0.632-0.229,1.171-0.688,1.616s-1.029,0.668-1.711,0.668
				c-0.647,0-1.184-0.187-1.609-0.561C7.984,68.773,7.737,68.284,7.669,67.68z"/>
			<path i:knockout="Off" d="M15.965,69.566v-1.438h-2.922V66.93l3.098-4.552h1.152v4.547h0.891v1.203h-0.891v1.438H15.965z
				 M15.965,66.925v-2.433l-1.637,2.433H15.965z"/>
			<path i:knockout="Off" d="M18.871,67.916l1.328-0.146c0.032,0.271,0.117,0.471,0.254,0.602c0.137,0.13,0.318,0.195,0.543,0.195
				c0.284,0,0.525-0.131,0.724-0.394s0.326-0.806,0.382-1.629c-0.346,0.4-0.778,0.601-1.297,0.601c-0.564,0-1.051-0.218-1.461-0.653
				c-0.409-0.436-0.614-1.002-0.614-1.701c0-0.728,0.215-1.314,0.647-1.759c0.431-0.445,0.981-0.668,1.648-0.668
				c0.726,0,1.322,0.282,1.787,0.846c0.466,0.564,0.699,1.491,0.699,2.782c0,1.313-0.243,2.262-0.727,2.843
				c-0.485,0.582-1.116,0.873-1.894,0.873c-0.56,0-1.012-0.149-1.356-0.449C19.19,68.958,18.969,68.511,18.871,67.916z
				 M21.98,64.907c0-0.445-0.103-0.79-0.307-1.036c-0.205-0.245-0.441-0.368-0.71-0.368c-0.255,0-0.468,0.101-0.636,0.302
				c-0.169,0.201-0.253,0.531-0.253,0.989c0,0.465,0.091,0.806,0.275,1.023s0.413,0.326,0.688,0.326c0.265,0,0.489-0.104,0.67-0.314
				S21.98,65.313,21.98,64.907z"/>
		</g>
	</g>
	<g id="レイヤー_1" i:layer="yes" i:dimmedPercent="100" i:rgbTrio="#4F008000FFFF">
		<path i:knockout="Off" fill="none" stroke="#000000" stroke-width="0.7" stroke-linecap="round" d="M38.598,48.474V37.136H27.259
			v11.338H38.598z"/>
		<path i:knockout="Off" fill="none" stroke="#000000" stroke-width="0.7" stroke-linecap="round" d="M49.936,48.474V37.136H38.598
			v11.338H49.936z"/>
		<path i:knockout="Off" fill="none" stroke="#000000" stroke-width="0.7" stroke-linecap="round" d="M117.968,48.474V37.136
			h-11.339v11.338H117.968z"/>
		<path i:knockout="Off" fill="none" stroke="#000000" stroke-width="0.7" stroke-linecap="round" d="M129.306,48.474V37.136
			h-11.338v11.338H129.306z"/>
		<path i:knockout="Off" fill="none" stroke="#000000" stroke-width="0.7" stroke-linecap="round" d="M38.598,34.869V23.531H27.259
			v11.338H38.598z"/>
		<path i:knockout="Off" fill="none" stroke="#000000" stroke-width="0.7" stroke-linecap="round" d="M49.936,34.869V23.531H38.598
			v11.338H49.936z"/>
		<path i:knockout="Off" fill="none" stroke="#000000" stroke-width="0.7" stroke-linecap="round" d="M61.275,34.869V23.531H49.936
			v11.338H61.275z"/>
		<path i:knockout="Off" fill="none" stroke="#000000" stroke-width="0.7" stroke-linecap="round" d="M72.614,34.869V23.531H61.275
			v11.338H72.614z"/>
		<path i:knockout="Off" fill="none" stroke="#000000" stroke-width="0.7" stroke-linecap="round" d="M83.936,48.474V37.136H72.597
			v11.338H83.936z"/>
		<path i:knockout="Off" fill="none" stroke="#000000" stroke-width="0.7" stroke-linecap="round" d="M95.275,48.474V37.136H83.936
			v11.338H95.275z"/>
		<path i:knockout="Off" fill="none" stroke="#000000" stroke-width="0.7" stroke-linecap="round" d="M72.597,48.474V37.136H61.259
			v11.338H72.597z"/>
		<path i:knockout="Off" fill="none" stroke="#000000" stroke-width="0.7" stroke-linecap="round" d="M83.953,34.869V23.531H72.614
			v11.338H83.953z"/>
		<path i:knockout="Off" fill="none" stroke="#000000" stroke-width="0.7" stroke-linecap="round" d="M95.291,34.869V23.531H83.953
			v11.338H95.291z"/>
		<path i:knockout="Off" fill="none" stroke="#000000" stroke-width="0.7" stroke-linecap="round" d="M106.629,34.869V23.531H95.291
			v11.338H106.629z"/>
		<path i:knockout="Off" fill="none" stroke="#000000" stroke-width="0.7" stroke-linecap="round" d="M117.968,34.869V23.531
			h-11.339v11.338H117.968z"/>
		<path i:knockout="Off" fill="none" stroke="#000000" stroke-width="0.7" stroke-linecap="round" d="M129.306,34.869V23.531
			h-11.338v11.338H129.306z"/>
		<path i:knockout="Off" fill="none" stroke="#000000" stroke-width="0.7" stroke-linecap="round" d="M49.936,50.742v-2.268H27.259
			v2.268H49.936z"/>
		<path i:knockout="Off" fill="none" stroke="#000000" stroke-width="0.7" stroke-linecap="round" d="M25.265,50.742v-2.268H11.921
			v2.268H25.265z"/>
		<path i:knockout="Off" fill="none" stroke="#000000" stroke-width="0.7" stroke-linecap="round" d="M25.265,37.136v-2.268H11.921
			v2.268H25.265z"/>
		<path i:knockout="Off" fill="none" stroke="#000000" stroke-width="0.7" stroke-linecap="round" d="M144.598,37.136v-2.268
			h-13.343v2.268H144.598z"/>
		<path i:knockout="Off" fill="none" stroke="#000000" stroke-width="0.7" stroke-linecap="round" d="M144.598,50.742v-2.268
			h-13.343v2.268H144.598z"/>
		<path i:knockout="Off" fill="none" stroke="#000000" stroke-width="0.7" stroke-linecap="round" d="M129.306,50.742v-2.268
			h-22.677v2.268H129.306z"/>
		<path i:knockout="Off" fill="none" stroke="#000000" stroke-width="0.7" stroke-linecap="round" d="M129.306,37.136v-2.268H27.259
			v2.268H129.306z"/>
		<path i:knockout="Off" fill="none" stroke="#000000" stroke-width="0.7" stroke-linecap="round" d="M95.275,50.742v-2.268H61.259
			v2.268H95.275z"/>
		<path i:knockout="Off" fill="none" stroke="#000000" stroke-width="1.2" stroke-linecap="round" d="M101.385,21.07V10.365H55.133
			V21.07H101.385z"/>
		<path i:knockout="Off" fill="none" stroke="#000000" stroke-width="1.2" stroke-linecap="round" d="M12.921,21.07v-6.705h-3v6.705
			H12.921z"/>
		<path i:knockout="Off" fill="none" stroke="#000000" stroke-width="1.2" stroke-linecap="round" d="M45.496,21.07V10.365h-3V21.07
			H45.496z"/>
		<path i:knockout="Off" fill="none" stroke="#000000" stroke-width="1.2" stroke-linecap="round" d="M114.023,21.07V10.365h-3
			V21.07H114.023z"/>
		<path i:knockout="Off" fill="none" stroke="#000000" stroke-width="1.2" stroke-linecap="round" d="M146.645,21.07v-6.705h-3
			v6.705H146.645z"/>
		<path i:knockout="Off" fill="none" stroke="#000000" stroke-width="1.2" stroke-linecap="round" d="M104.629,52.742h42.016V21.074
			L9.921,21.066v31.675h42.015V39.136h7.323v13.605h38.016l0.053-13.541l7.302-0.064V52.742z"/>
		<g i:knockout="Off">
			<path i:knockout="Off" d="M34.605,31.087v0.672h-3.797c-0.005-0.169,0.022-0.332,0.083-0.488c0.097-0.258,0.252-0.511,0.467-0.76
				c0.214-0.249,0.521-0.537,0.92-0.864c0.62-0.516,1.04-0.923,1.261-1.221s0.332-0.58,0.332-0.849c0-0.278-0.1-0.513-0.299-0.704
				s-0.46-0.287-0.781-0.287c-0.339,0-0.61,0.104-0.814,0.311s-0.307,0.494-0.309,0.861l-0.719-0.094
				c0.049-0.539,0.235-0.95,0.558-1.232c0.323-0.282,0.756-0.424,1.3-0.424c0.549,0,0.983,0.152,1.303,0.457s0.48,0.683,0.48,1.133
				c0,0.229-0.047,0.455-0.14,0.676c-0.094,0.221-0.248,0.454-0.465,0.699c-0.216,0.245-0.576,0.581-1.081,1.009
				c-0.423,0.355-0.695,0.596-0.815,0.722c-0.12,0.126-0.219,0.253-0.297,0.381H34.605z"/>
		</g>
		<g i:knockout="Off">
			<path i:knockout="Off" d="M42.092,30.259l0.719-0.094c0.08,0.393,0.215,0.676,0.405,0.85c0.19,0.173,0.425,0.26,0.707,0.26
				c0.333,0,0.611-0.115,0.835-0.344c0.223-0.229,0.335-0.514,0.335-0.853c0-0.323-0.104-0.59-0.313-0.8
				c-0.209-0.21-0.476-0.315-0.798-0.315c-0.132,0-0.296,0.026-0.492,0.078l0.078-0.625c0.046,0.005,0.083,0.008,0.112,0.008
				c0.294,0,0.56-0.077,0.795-0.232c0.235-0.155,0.354-0.394,0.354-0.717c0-0.255-0.086-0.467-0.259-0.635s-0.396-0.252-0.669-0.252
				c-0.271,0-0.497,0.086-0.677,0.258c-0.181,0.172-0.296,0.43-0.348,0.773l-0.719-0.125c0.086-0.471,0.28-0.836,0.584-1.096
				c0.304-0.259,0.682-0.389,1.134-0.389c0.312,0,0.599,0.067,0.861,0.2c0.262,0.134,0.463,0.315,0.602,0.546
				c0.139,0.231,0.208,0.476,0.208,0.735c0,0.246-0.066,0.47-0.199,0.672s-0.33,0.363-0.59,0.482
				c0.338,0.078,0.604,0.241,0.797,0.487c0.192,0.246,0.289,0.555,0.289,0.925c0,0.501-0.183,0.926-0.547,1.273
				c-0.365,0.349-0.826,0.522-1.383,0.522c-0.503,0-0.92-0.147-1.252-0.443S42.139,30.73,42.092,30.259z"/>
		</g>
		<g i:knockout="Off">
			<path i:knockout="Off" d="M55.827,31.759v-1.375h-2.484v-0.641l2.625-3.719h0.563v3.719h0.781v0.641H56.53v1.375H55.827z
				 M55.827,29.744v-2.566l-1.792,2.566H55.827z"/>
		</g>
		<g i:knockout="Off">
			<path i:knockout="Off" d="M64.91,30.259l0.719-0.063c0.055,0.358,0.182,0.627,0.379,0.808c0.198,0.181,0.441,0.271,0.729,0.271
				c0.349,0,0.639-0.127,0.872-0.382c0.231-0.254,0.348-0.592,0.348-1.013c0-0.399-0.111-0.715-0.332-0.946
				c-0.222-0.231-0.519-0.347-0.891-0.347c-0.232,0-0.438,0.051-0.617,0.152s-0.322,0.233-0.426,0.395l-0.656-0.094l0.563-2.938
				h2.844v0.672h-2.285l-0.313,1.549c0.344-0.241,0.704-0.361,1.082-0.361c0.5,0,0.922,0.173,1.266,0.519s0.516,0.791,0.516,1.334
				c0,0.518-0.151,0.965-0.453,1.343c-0.367,0.463-0.869,0.694-1.504,0.694c-0.521,0-0.946-0.146-1.275-0.437
				C65.145,31.125,64.957,30.74,64.91,30.259z"/>
		</g>
		<g i:knockout="Off">
			<path i:knockout="Off" d="M79.957,27.431l-0.703,0.063c-0.063-0.277-0.152-0.479-0.268-0.604
				c-0.191-0.201-0.428-0.302-0.708-0.302c-0.226,0-0.426,0.063-0.602,0.187c-0.218,0.161-0.391,0.396-0.52,0.705
				c-0.128,0.309-0.195,0.75-0.2,1.323c0.17-0.258,0.378-0.449,0.623-0.574c0.246-0.125,0.504-0.188,0.773-0.188
				c0.47,0,0.871,0.173,1.201,0.518c0.33,0.345,0.496,0.791,0.496,1.338c0,0.359-0.078,0.693-0.233,1.002s-0.369,0.545-0.642,0.709
				c-0.271,0.164-0.58,0.246-0.926,0.246c-0.588,0-1.068-0.215-1.439-0.646s-0.557-1.14-0.557-2.129c0-1.106,0.205-1.91,0.617-2.413
				c0.359-0.437,0.843-0.656,1.451-0.656c0.453,0,0.824,0.126,1.113,0.378C79.725,26.639,79.899,26.987,79.957,27.431z
				 M77.066,29.902c0,0.242,0.052,0.474,0.155,0.694c0.104,0.221,0.247,0.39,0.43,0.505c0.183,0.116,0.38,0.174,0.589,0.174
				c0.304,0,0.562-0.12,0.773-0.359s0.318-0.564,0.318-0.975c0-0.395-0.104-0.707-0.314-0.934c-0.209-0.228-0.478-0.341-0.805-0.341
				c-0.319,0-0.59,0.114-0.813,0.341S77.066,29.533,77.066,29.902z"/>
		</g>
		<g i:knockout="Off">
			<path i:knockout="Off" d="M87.582,26.775v-0.672h3.703v0.544c-0.365,0.388-0.728,0.904-1.086,1.548
				c-0.359,0.645-0.636,1.307-0.832,1.988c-0.141,0.48-0.23,1.005-0.27,1.577h-0.719c0.008-0.451,0.096-0.996,0.266-1.635
				c0.168-0.639,0.41-1.255,0.727-1.849c0.315-0.593,0.651-1.093,1.008-1.5H87.582z"/>
		</g>
		<g i:knockout="Off">
			<path i:knockout="Off" d="M99.837,28.656c-0.292-0.106-0.508-0.259-0.648-0.457s-0.211-0.436-0.211-0.712
				c0-0.417,0.149-0.767,0.447-1.051c0.299-0.284,0.695-0.426,1.191-0.426c0.498,0,0.898,0.146,1.203,0.436
				c0.303,0.291,0.455,0.644,0.455,1.061c0,0.266-0.069,0.497-0.208,0.694c-0.139,0.196-0.349,0.349-0.632,0.455
				c0.351,0.114,0.617,0.299,0.8,0.554s0.274,0.559,0.274,0.912c0,0.489-0.173,0.899-0.519,1.232s-0.8,0.499-1.364,0.499
				s-1.019-0.167-1.364-0.501s-0.519-0.75-0.519-1.25c0-0.371,0.095-0.683,0.284-0.934S99.487,28.747,99.837,28.656z M99.462,30.107
				c0,0.2,0.046,0.394,0.139,0.58c0.092,0.187,0.232,0.332,0.423,0.434c0.189,0.103,0.393,0.154,0.608,0.154
				c0.341,0,0.619-0.107,0.834-0.323c0.217-0.215,0.324-0.489,0.324-0.821c0-0.337-0.111-0.616-0.334-0.837
				c-0.222-0.221-0.504-0.331-0.848-0.331c-0.336,0-0.61,0.109-0.824,0.327C99.57,29.507,99.462,29.78,99.462,30.107z
				 M99.697,27.462c0,0.271,0.086,0.492,0.257,0.664s0.397,0.258,0.681,0.258c0.275,0,0.497-0.085,0.667-0.256
				c0.17-0.17,0.255-0.379,0.255-0.627c0-0.258-0.088-0.475-0.263-0.65s-0.397-0.264-0.667-0.264c-0.272,0-0.495,0.086-0.669,0.258
				S99.697,27.223,99.697,27.462z"/>
		</g>
		<g i:knockout="Off">
			<path i:knockout="Off" d="M110.337,30.431l0.672-0.063c0.057,0.318,0.166,0.548,0.328,0.691c0.161,0.144,0.368,0.215,0.621,0.215
				c0.216,0,0.406-0.049,0.572-0.147c0.165-0.099,0.299-0.23,0.4-0.395s0.188-0.387,0.258-0.667c0.07-0.28,0.105-0.565,0.105-0.857
				c0-0.031-0.002-0.078-0.004-0.141c-0.141,0.224-0.331,0.406-0.573,0.545c-0.242,0.14-0.505,0.209-0.787,0.209
				c-0.472,0-0.87-0.172-1.197-0.516c-0.326-0.344-0.489-0.797-0.489-1.361c0-0.581,0.171-1.049,0.514-1.404
				c0.342-0.354,0.771-0.532,1.287-0.532c0.372,0,0.713,0.101,1.021,0.301s0.543,0.486,0.703,0.856c0.16,0.371,0.24,0.908,0.24,1.61
				c0,0.731-0.08,1.313-0.239,1.747s-0.396,0.763-0.711,0.989c-0.315,0.227-0.685,0.34-1.107,0.34c-0.449,0-0.816-0.124-1.101-0.373
				C110.566,31.231,110.395,30.882,110.337,30.431z M113.228,27.906c0-0.404-0.106-0.725-0.319-0.962
				c-0.212-0.237-0.473-0.356-0.78-0.356c-0.318,0-0.592,0.128-0.822,0.384c-0.229,0.255-0.344,0.586-0.344,0.993
				c0,0.365,0.109,0.662,0.326,0.89c0.219,0.228,0.492,0.342,0.82,0.342c0.326,0,0.594-0.114,0.805-0.342
				C113.123,28.626,113.228,28.31,113.228,27.906z"/>
		</g>
		<g i:knockout="Off">
			<path i:knockout="Off" d="M121.841,31.759h-0.703v-4.48c-0.17,0.162-0.392,0.323-0.666,0.484
				c-0.275,0.162-0.521,0.283-0.74,0.363v-0.68c0.393-0.185,0.736-0.409,1.031-0.672c0.294-0.263,0.502-0.518,0.625-0.766h0.453
				V31.759z"/>
			<path i:knockout="Off" d="M123.634,28.933c0-0.677,0.07-1.223,0.211-1.638s0.349-0.733,0.626-0.954
				c0.277-0.222,0.626-0.332,1.046-0.332c0.31,0,0.583,0.062,0.819,0.186s0.429,0.302,0.579,0.535
				c0.149,0.233,0.268,0.517,0.354,0.851s0.13,0.785,0.13,1.353c0,0.671-0.069,1.215-0.209,1.63
				c-0.139,0.415-0.348,0.734-0.624,0.956c-0.277,0.223-0.627,0.334-1.05,0.334c-0.557,0-0.994-0.195-1.312-0.585
				C123.825,30.786,123.634,30.008,123.634,28.933z M124.353,28.931c0,0.945,0.111,1.572,0.336,1.881
				c0.224,0.309,0.5,0.463,0.828,0.463s0.604-0.155,0.828-0.465c0.224-0.31,0.336-0.936,0.336-1.879
				c0-0.942-0.111-1.569-0.334-1.879c-0.223-0.31-0.502-0.465-0.838-0.465c-0.328,0-0.592,0.137-0.791,0.41
				C124.475,27.347,124.353,27.991,124.353,28.931z"/>
		</g>
		<g i:knockout="Off">
			<path i:knockout="Off" d="M31.341,45.699h-0.703v-4.48c-0.169,0.162-0.392,0.323-0.666,0.484
				c-0.275,0.162-0.521,0.283-0.74,0.363v-0.68c0.393-0.185,0.737-0.409,1.031-0.672c0.294-0.263,0.502-0.518,0.625-0.766h0.453
				V45.699z"/>
			<path i:knockout="Off" d="M33.15,44.199l0.719-0.094c0.08,0.393,0.215,0.676,0.405,0.85c0.19,0.173,0.425,0.26,0.707,0.26
				c0.333,0,0.611-0.115,0.835-0.344c0.223-0.229,0.335-0.514,0.335-0.853c0-0.323-0.104-0.59-0.313-0.8
				c-0.209-0.21-0.476-0.315-0.798-0.315c-0.132,0-0.296,0.026-0.492,0.078l0.078-0.625c0.046,0.005,0.083,0.008,0.112,0.008
				c0.294,0,0.56-0.077,0.795-0.232c0.235-0.155,0.354-0.394,0.354-0.717c0-0.255-0.086-0.467-0.259-0.635s-0.396-0.252-0.669-0.252
				c-0.271,0-0.497,0.086-0.677,0.258c-0.181,0.172-0.296,0.43-0.348,0.773l-0.719-0.125c0.086-0.471,0.28-0.836,0.584-1.096
				c0.304-0.259,0.682-0.389,1.134-0.389c0.312,0,0.599,0.067,0.861,0.2c0.262,0.134,0.463,0.315,0.602,0.546
				c0.139,0.231,0.208,0.476,0.208,0.735c0,0.246-0.066,0.47-0.199,0.672s-0.33,0.363-0.59,0.482
				c0.338,0.078,0.604,0.241,0.797,0.487c0.192,0.246,0.289,0.555,0.289,0.925c0,0.501-0.183,0.926-0.547,1.273
				c-0.365,0.349-0.826,0.522-1.383,0.522c-0.503,0-0.92-0.147-1.252-0.443S33.197,44.669,33.15,44.199z"/>
		</g>
		<path i:knockout="Off" fill="none" stroke="#000000" stroke-width="0.7" stroke-linecap="round" d="M25.259,48.474V37.136H11.921
			v11.338H25.259z"/>
		<path i:knockout="Off" fill="none" stroke="#000000" stroke-width="0.7" stroke-linecap="round" d="M25.259,34.869V23.531H11.921
			v11.338H25.259z"/>
		<g i:knockout="Off">
			<path i:knockout="Off" d="M19.228,31.759h-0.703v-4.48c-0.169,0.162-0.391,0.323-0.666,0.484
				c-0.275,0.162-0.521,0.283-0.74,0.363v-0.68c0.393-0.185,0.737-0.409,1.031-0.672c0.294-0.263,0.502-0.518,0.625-0.766h0.453
				V31.759z"/>
		</g>
		<g i:knockout="Off">
			<path i:knockout="Off" d="M17.003,45.699H16.3v-4.48c-0.169,0.162-0.391,0.323-0.666,0.484c-0.275,0.162-0.521,0.283-0.74,0.363
				v-0.68c0.393-0.185,0.737-0.409,1.031-0.672c0.294-0.263,0.502-0.518,0.625-0.766h0.453V45.699z"/>
			<path i:knockout="Off" d="M22.491,45.027v0.672h-3.797c-0.005-0.169,0.022-0.332,0.083-0.488c0.098-0.258,0.253-0.511,0.467-0.76
				c0.214-0.249,0.521-0.537,0.92-0.864c0.619-0.516,1.04-0.923,1.261-1.221c0.221-0.298,0.332-0.58,0.332-0.849
				c0-0.278-0.1-0.513-0.299-0.704c-0.2-0.191-0.46-0.287-0.781-0.287c-0.339,0-0.611,0.104-0.814,0.311
				c-0.204,0.208-0.307,0.494-0.309,0.861l-0.719-0.094c0.049-0.539,0.235-0.95,0.558-1.232c0.322-0.282,0.755-0.424,1.299-0.424
				c0.549,0,0.983,0.152,1.303,0.457c0.32,0.305,0.48,0.683,0.48,1.133c0,0.229-0.046,0.455-0.14,0.676
				c-0.093,0.221-0.248,0.454-0.464,0.699c-0.217,0.245-0.577,0.581-1.081,1.009c-0.423,0.355-0.695,0.596-0.814,0.722
				c-0.12,0.126-0.219,0.253-0.297,0.381H22.491z"/>
		</g>
		<path i:knockout="Off" fill="none" stroke="#000000" stroke-width="0.7" stroke-linecap="round" d="M144.645,48.474V37.136
			h-13.339v11.338H144.645z"/>
		<path i:knockout="Off" fill="none" stroke="#000000" stroke-width="0.7" stroke-linecap="round" d="M144.645,34.869V23.531
			h-13.339v11.338H144.645z"/>
		<g i:knockout="Off">
			<path i:knockout="Off" d="M136.388,31.759h-0.703v-4.48c-0.17,0.162-0.392,0.323-0.666,0.484
				c-0.275,0.162-0.521,0.283-0.74,0.363v-0.68c0.393-0.185,0.736-0.409,1.031-0.672c0.294-0.263,0.502-0.518,0.625-0.766h0.453
				V31.759z"/>
			<path i:knockout="Off" d="M140.837,31.759h-0.703v-4.48c-0.17,0.162-0.392,0.323-0.666,0.484
				c-0.275,0.162-0.521,0.283-0.74,0.363v-0.68c0.393-0.185,0.736-0.409,1.031-0.672c0.294-0.263,0.502-0.518,0.625-0.766h0.453
				V31.759z"/>
		</g>
		<g i:knockout="Off">
			<path i:knockout="Off" d="M137.427,45.027v0.672h-3.797c-0.006-0.169,0.022-0.332,0.083-0.488
				c0.097-0.258,0.253-0.511,0.467-0.76c0.214-0.249,0.521-0.537,0.92-0.864c0.62-0.516,1.04-0.923,1.261-1.221
				c0.222-0.298,0.332-0.58,0.332-0.849c0-0.278-0.1-0.513-0.299-0.704c-0.2-0.191-0.461-0.287-0.781-0.287
				c-0.34,0-0.61,0.104-0.814,0.311c-0.203,0.208-0.307,0.494-0.309,0.861l-0.719-0.094c0.049-0.539,0.235-0.95,0.558-1.232
				c0.323-0.282,0.756-0.424,1.3-0.424c0.549,0,0.983,0.152,1.303,0.457c0.32,0.305,0.48,0.683,0.48,1.133
				c0,0.229-0.047,0.455-0.14,0.676c-0.094,0.221-0.248,0.454-0.465,0.699c-0.216,0.245-0.576,0.581-1.081,1.009
				c-0.423,0.355-0.694,0.596-0.814,0.722c-0.119,0.126-0.219,0.253-0.297,0.381H137.427z"/>
			<path i:knockout="Off" d="M138.181,42.873c0-0.677,0.07-1.223,0.211-1.638s0.349-0.733,0.626-0.954
				c0.277-0.222,0.626-0.332,1.046-0.332c0.31,0,0.583,0.062,0.819,0.186s0.429,0.302,0.579,0.535
				c0.149,0.233,0.268,0.517,0.354,0.851s0.13,0.785,0.13,1.353c0,0.671-0.069,1.215-0.209,1.63
				c-0.139,0.415-0.348,0.734-0.624,0.956c-0.277,0.223-0.627,0.334-1.05,0.334c-0.557,0-0.994-0.195-1.312-0.585
				C138.372,44.726,138.181,43.948,138.181,42.873z M138.9,42.871c0,0.945,0.111,1.572,0.336,1.881
				c0.224,0.309,0.5,0.463,0.828,0.463s0.604-0.155,0.828-0.465c0.224-0.31,0.336-0.936,0.336-1.879
				c0-0.942-0.111-1.569-0.334-1.879c-0.223-0.31-0.502-0.465-0.838-0.465c-0.328,0-0.592,0.137-0.791,0.41
				C139.022,41.286,138.9,41.931,138.9,42.871z"/>
		</g>
		<g i:knockout="Off">
			<path i:knockout="Off" d="M42.508,45.699h-0.703v-4.48c-0.169,0.162-0.392,0.323-0.666,0.484
				c-0.275,0.162-0.521,0.283-0.74,0.363v-0.68c0.393-0.185,0.737-0.409,1.031-0.672c0.294-0.263,0.502-0.518,0.625-0.766h0.453
				V45.699z"/>
			<path i:knockout="Off" d="M46.551,45.699v-1.375h-2.484v-0.641l2.625-3.719h0.563v3.719h0.781v0.641h-0.781v1.375H46.551z
				 M46.551,43.683v-2.566l-1.792,2.566H46.551z"/>
		</g>
		<g i:knockout="Off">
			<path i:knockout="Off" d="M65.341,45.699h-0.703v-4.48c-0.169,0.162-0.392,0.323-0.666,0.484
				c-0.275,0.162-0.521,0.283-0.74,0.363v-0.68c0.393-0.185,0.737-0.409,1.031-0.672c0.294-0.263,0.502-0.518,0.625-0.766h0.453
				V45.699z"/>
			<path i:knockout="Off" d="M67.134,44.199l0.719-0.063c0.055,0.358,0.182,0.627,0.379,0.808c0.198,0.181,0.441,0.271,0.73,0.271
				c0.348,0,0.639-0.127,0.871-0.382c0.231-0.254,0.348-0.592,0.348-1.013c0-0.399-0.111-0.715-0.332-0.946
				c-0.222-0.231-0.519-0.347-0.891-0.347c-0.232,0-0.438,0.051-0.617,0.152s-0.322,0.233-0.426,0.395l-0.656-0.094l0.563-2.938
				h2.844v0.672H68.38l-0.313,1.549c0.344-0.241,0.704-0.361,1.082-0.361c0.5,0,0.922,0.173,1.266,0.519s0.516,0.791,0.516,1.334
				c0,0.518-0.151,0.965-0.453,1.343c-0.367,0.463-0.869,0.694-1.504,0.694c-0.521,0-0.946-0.146-1.275-0.437
				C67.369,45.065,67.181,44.679,67.134,44.199z"/>
		</g>
		<g i:knockout="Off">
			<path i:knockout="Off" d="M76.716,45.699h-0.703v-4.48c-0.17,0.162-0.392,0.323-0.666,0.484c-0.275,0.162-0.521,0.283-0.74,0.363
				v-0.68c0.393-0.185,0.736-0.409,1.031-0.672c0.294-0.263,0.502-0.518,0.625-0.766h0.453V45.699z"/>
			<path i:knockout="Off" d="M82.181,41.371l-0.703,0.063c-0.063-0.277-0.152-0.479-0.268-0.604
				c-0.191-0.201-0.428-0.302-0.708-0.302c-0.226,0-0.426,0.063-0.602,0.187c-0.218,0.161-0.391,0.396-0.52,0.705
				c-0.128,0.309-0.195,0.75-0.2,1.323c0.17-0.258,0.378-0.449,0.623-0.574c0.246-0.125,0.504-0.188,0.773-0.188
				c0.47,0,0.871,0.173,1.201,0.518c0.33,0.345,0.496,0.791,0.496,1.338c0,0.359-0.078,0.693-0.233,1.002s-0.369,0.545-0.642,0.709
				c-0.271,0.164-0.58,0.246-0.926,0.246c-0.588,0-1.068-0.215-1.439-0.646s-0.557-1.14-0.557-2.129c0-1.106,0.205-1.91,0.617-2.413
				c0.359-0.437,0.843-0.656,1.451-0.656c0.453,0,0.824,0.126,1.113,0.378C81.95,40.579,82.124,40.926,82.181,41.371z
				 M79.291,43.841c0,0.242,0.052,0.474,0.155,0.694c0.104,0.221,0.247,0.39,0.43,0.505c0.183,0.116,0.38,0.174,0.589,0.174
				c0.304,0,0.562-0.12,0.773-0.359s0.318-0.564,0.318-0.975c0-0.395-0.104-0.707-0.314-0.934c-0.209-0.228-0.478-0.341-0.805-0.341
				c-0.319,0-0.59,0.114-0.813,0.341S79.291,43.472,79.291,43.841z"/>
		</g>
		<g i:knockout="Off">
			<path i:knockout="Off" d="M87.966,45.699h-0.703v-4.48c-0.17,0.162-0.392,0.323-0.666,0.484c-0.275,0.162-0.521,0.283-0.74,0.363
				v-0.68c0.393-0.185,0.736-0.409,1.031-0.672c0.294-0.263,0.502-0.518,0.625-0.766h0.453V45.699z"/>
			<path i:knockout="Off" d="M89.806,40.714v-0.672h3.703v0.544c-0.365,0.388-0.728,0.904-1.086,1.548
				c-0.359,0.645-0.636,1.307-0.832,1.988c-0.141,0.48-0.23,1.005-0.27,1.577h-0.719c0.008-0.451,0.096-0.996,0.266-1.635
				c0.168-0.639,0.41-1.255,0.727-1.849c0.315-0.593,0.651-1.093,1.008-1.5H89.806z"/>
		</g>
		<g i:knockout="Off">
			<path i:knockout="Off" d="M110.675,45.699h-0.703v-4.48c-0.17,0.162-0.392,0.323-0.666,0.484
				c-0.275,0.162-0.521,0.283-0.74,0.363v-0.68c0.393-0.185,0.736-0.409,1.031-0.672c0.294-0.263,0.502-0.518,0.625-0.766h0.453
				V45.699z"/>
			<path i:knockout="Off" d="M113.562,42.595c-0.292-0.106-0.508-0.259-0.648-0.457s-0.211-0.436-0.211-0.712
				c0-0.417,0.149-0.767,0.447-1.051c0.299-0.284,0.695-0.426,1.191-0.426c0.498,0,0.898,0.146,1.203,0.436
				c0.303,0.291,0.455,0.644,0.455,1.061c0,0.266-0.069,0.497-0.208,0.694c-0.139,0.196-0.349,0.349-0.632,0.455
				c0.351,0.114,0.617,0.299,0.8,0.554s0.274,0.559,0.274,0.912c0,0.489-0.173,0.899-0.519,1.232s-0.8,0.499-1.364,0.499
				s-1.019-0.167-1.364-0.501s-0.519-0.75-0.519-1.25c0-0.371,0.095-0.683,0.284-0.934S113.211,42.686,113.562,42.595z
				 M113.187,44.046c0,0.2,0.046,0.394,0.139,0.58c0.092,0.187,0.232,0.332,0.423,0.434c0.189,0.103,0.393,0.154,0.608,0.154
				c0.341,0,0.619-0.107,0.834-0.323c0.217-0.215,0.324-0.489,0.324-0.821c0-0.337-0.111-0.616-0.334-0.837
				c-0.222-0.221-0.504-0.331-0.848-0.331c-0.336,0-0.61,0.109-0.824,0.327C113.294,43.447,113.187,43.719,113.187,44.046z
				 M113.421,41.402c0,0.271,0.086,0.492,0.257,0.664s0.397,0.258,0.681,0.258c0.275,0,0.497-0.085,0.667-0.256
				c0.17-0.17,0.255-0.379,0.255-0.627c0-0.258-0.088-0.475-0.263-0.65s-0.397-0.264-0.667-0.264c-0.272,0-0.495,0.086-0.669,0.258
				S113.421,41.163,113.421,41.402z"/>
		</g>
		<g i:knockout="Off">
			<path i:knockout="Off" d="M121.841,45.699h-0.703v-4.48c-0.17,0.162-0.392,0.323-0.666,0.484
				c-0.275,0.162-0.521,0.283-0.74,0.363v-0.68c0.393-0.185,0.736-0.409,1.031-0.672c0.294-0.263,0.502-0.518,0.625-0.766h0.453
				V45.699z"/>
			<path i:knockout="Off" d="M123.728,44.371l0.672-0.063c0.057,0.318,0.166,0.548,0.328,0.691c0.161,0.144,0.368,0.215,0.621,0.215
				c0.216,0,0.406-0.049,0.572-0.147c0.165-0.099,0.299-0.23,0.4-0.395s0.188-0.387,0.258-0.667c0.07-0.28,0.105-0.565,0.105-0.857
				c0-0.031-0.002-0.078-0.004-0.141c-0.141,0.224-0.331,0.406-0.573,0.545c-0.242,0.14-0.505,0.209-0.787,0.209
				c-0.472,0-0.87-0.172-1.197-0.516c-0.326-0.344-0.489-0.797-0.489-1.361c0-0.581,0.171-1.049,0.514-1.404
				c0.342-0.354,0.771-0.532,1.287-0.532c0.372,0,0.713,0.101,1.021,0.301s0.543,0.486,0.703,0.856c0.16,0.371,0.24,0.908,0.24,1.61
				c0,0.731-0.08,1.313-0.239,1.747s-0.396,0.763-0.711,0.989c-0.315,0.227-0.685,0.34-1.107,0.34c-0.449,0-0.816-0.124-1.101-0.373
				C123.957,45.171,123.786,44.821,123.728,44.371z M126.619,41.845c0-0.404-0.106-0.725-0.319-0.962
				c-0.212-0.237-0.473-0.356-0.78-0.356c-0.318,0-0.592,0.128-0.822,0.384c-0.229,0.255-0.344,0.586-0.344,0.993
				c0,0.365,0.109,0.662,0.326,0.89c0.219,0.228,0.492,0.342,0.82,0.342c0.326,0,0.594-0.114,0.805-0.342
				C126.513,42.566,126.619,42.25,126.619,41.845z"/>
		</g>
		<path i:knockout="Off" fill="none" stroke="#000000" stroke-width="0.7" stroke-linecap="round" d="M38.598,34.869v2.268"/>
		<path i:knockout="Off" fill="none" stroke="#000000" stroke-width="0.7" stroke-linecap="round" d="M38.598,48.24v2.268"/>
		<path i:knockout="Off" fill="none" stroke="#000000" stroke-width="0.7" stroke-linecap="round" d="M49.936,34.869v2.268"/>
		<path i:knockout="Off" fill="none" stroke="#000000" stroke-width="0.7" stroke-linecap="round" d="M61.274,34.869v2.268"/>
		<path i:knockout="Off" fill="none" stroke="#000000" stroke-width="0.7" stroke-linecap="round" d="M72.613,34.869v2.268"/>
		<path i:knockout="Off" fill="none" stroke="#000000" stroke-width="0.7" stroke-linecap="round" d="M83.951,34.869v2.268"/>
		<path i:knockout="Off" fill="none" stroke="#000000" stroke-width="0.7" stroke-linecap="round" d="M72.613,48.474v2.268"/>
		<path i:knockout="Off" fill="none" stroke="#000000" stroke-width="0.7" stroke-linecap="round" d="M83.951,48.474v2.268"/>
		<path i:knockout="Off" fill="none" stroke="#000000" stroke-width="0.7" stroke-linecap="round" d="M95.289,34.869v2.268"/>
		<path i:knockout="Off" fill="none" stroke="#000000" stroke-width="0.7" stroke-linecap="round" d="M106.626,34.869v2.268"/>
		<path i:knockout="Off" fill="none" stroke="#000000" stroke-width="0.7" stroke-linecap="round" d="M117.964,34.869v2.268"/>
		<path i:knockout="Off" fill="none" stroke="#000000" stroke-width="0.7" stroke-linecap="round" d="M117.968,48.474v2.268"/>
		<path i:knockout="Off" fill="none" stroke="#000000" stroke-width="0.7" stroke-linecap="round" d="M38.597,110.836V99.499H27.259
			v11.338H38.597z"/>
		<path i:knockout="Off" fill="none" stroke="#000000" stroke-width="0.7" stroke-linecap="round" d="M49.936,110.836V99.499H38.597
			v11.338H49.936z"/>
		<path i:knockout="Off" fill="none" stroke="#000000" stroke-width="0.7" stroke-linecap="round" d="M117.968,110.836V99.499
			h-11.339v11.338H117.968z"/>
		<path i:knockout="Off" fill="none" stroke="#000000" stroke-width="0.7" stroke-linecap="round" d="M129.306,110.836V99.499
			h-11.338v11.338H129.306z"/>
		<path i:knockout="Off" fill="none" stroke="#000000" stroke-width="0.7" stroke-linecap="round" d="M38.597,97.231V85.893H27.259
			v11.338H38.597z"/>
		<path i:knockout="Off" fill="none" stroke="#000000" stroke-width="0.7" stroke-linecap="round" d="M49.936,97.231V85.893H38.597
			v11.338H49.936z"/>
		<path i:knockout="Off" fill="none" stroke="#000000" stroke-width="0.7" stroke-linecap="round" d="M61.275,97.231V85.893H49.936
			v11.338H61.275z"/>
		<path i:knockout="Off" fill="none" stroke="#000000" stroke-width="0.7" stroke-linecap="round" d="M72.614,97.231V85.893H61.275
			v11.338H72.614z"/>
		<path i:knockout="Off" fill="none" stroke="#000000" stroke-width="0.7" stroke-linecap="round" d="M83.936,110.836V99.499H72.597
			v11.338H83.936z"/>
		<path i:knockout="Off" fill="none" stroke="#000000" stroke-width="0.7" stroke-linecap="round" d="M95.275,110.836V99.499H83.936
			v11.338H95.275z"/>
		<path i:knockout="Off" fill="none" stroke="#000000" stroke-width="0.7" stroke-linecap="round" d="M72.597,110.836V99.499H61.259
			v11.338H72.597z"/>
		<path i:knockout="Off" fill="none" stroke="#000000" stroke-width="0.7" stroke-linecap="round" d="M83.953,97.231V85.893H72.614
			v11.338H83.953z"/>
		<path i:knockout="Off" fill="none" stroke="#000000" stroke-width="0.7" stroke-linecap="round" d="M95.291,97.231V85.893H83.953
			v11.338H95.291z"/>
		<path i:knockout="Off" fill="none" stroke="#000000" stroke-width="0.7" stroke-linecap="round" d="M106.629,97.231V85.893H95.291
			v11.338H106.629z"/>
		<path i:knockout="Off" fill="none" stroke="#000000" stroke-width="0.7" stroke-linecap="round" d="M117.968,97.231V85.893
			h-11.339v11.338H117.968z"/>
		<path i:knockout="Off" fill="none" stroke="#000000" stroke-width="0.7" stroke-linecap="round" d="M129.306,97.231V85.893
			h-11.338v11.338H129.306z"/>
		<path i:knockout="Off" fill="none" stroke="#000000" stroke-width="0.7" stroke-linecap="round" d="M49.936,113.104v-2.268H27.259
			v2.268H49.936z"/>
		<path i:knockout="Off" fill="none" stroke="#000000" stroke-width="0.7" stroke-linecap="round" d="M25.265,113.104v-2.268H11.921
			v2.268H25.265z"/>
		<path i:knockout="Off" fill="none" stroke="#000000" stroke-width="0.7" stroke-linecap="round" d="M25.265,99.499v-2.268H11.921
			v2.268H25.265z"/>
		<path i:knockout="Off" fill="none" stroke="#000000" stroke-width="0.7" stroke-linecap="round" d="M144.598,99.499v-2.268
			h-13.343v2.268H144.598z"/>
		<path i:knockout="Off" fill="none" stroke="#000000" stroke-width="0.7" stroke-linecap="round" d="M144.598,113.104v-2.268
			h-13.343v2.268H144.598z"/>
		<path i:knockout="Off" fill="none" stroke="#000000" stroke-width="0.7" stroke-linecap="round" d="M129.306,113.104v-2.268
			h-22.677v2.268H129.306z"/>
		<path i:knockout="Off" fill="none" stroke="#000000" stroke-width="0.7" stroke-linecap="round" d="M129.306,99.499v-2.268H27.259
			v2.268H129.306z"/>
		<path i:knockout="Off" fill="none" stroke="#000000" stroke-width="0.7" stroke-linecap="round" d="M95.275,113.104v-2.268H61.259
			v2.268H95.275z"/>
		<path i:knockout="Off" fill="none" stroke="#000000" stroke-width="1.2" stroke-linecap="round" d="M101.385,81.432V70.727H55.133
			v10.705H101.385z"/>
		<path i:knockout="Off" fill="none" stroke="#000000" stroke-width="1.2" stroke-linecap="round" d="M12.921,81.432v-6.705h-3
			v6.705H12.921z"/>
		<path i:knockout="Off" fill="none" stroke="#000000" stroke-width="1.2" stroke-linecap="round" d="M45.496,81.432V70.727h-3
			v10.705H45.496z"/>
		<path i:knockout="Off" fill="none" stroke="#000000" stroke-width="1.2" stroke-linecap="round" d="M114.023,81.432V70.727h-3
			v10.705H114.023z"/>
		<path i:knockout="Off" fill="none" stroke="#000000" stroke-width="1.2" stroke-linecap="round" d="M146.645,81.432v-6.705h-3
			v6.705H146.645z"/>
		<path i:knockout="Off" fill="none" stroke="#000000" stroke-width="1.2" stroke-linecap="round" d="M104.629,115.104h42.016
			V83.436L9.921,83.428v31.676h42.015v-13.605h7.323v13.605h38.016l0.053-13.541l7.302-0.064V115.104z"/>
		<path i:knockout="Off" fill="none" stroke="#000000" stroke-width="1.2" stroke-linecap="round" d="M148.645,117.104V81.436
			L7.921,81.428v35.676H148.645z"/>
		<g i:knockout="Off">
			<path i:knockout="Off" d="M31.341,94.122h-0.703v-4.48c-0.169,0.161-0.392,0.323-0.666,0.484
				c-0.275,0.161-0.521,0.282-0.74,0.363v-0.68c0.393-0.185,0.737-0.409,1.031-0.672c0.294-0.263,0.502-0.519,0.625-0.766h0.453
				V94.122z"/>
			<path i:knockout="Off" d="M33.134,91.295c0-0.677,0.07-1.223,0.211-1.638c0.14-0.415,0.349-0.733,0.626-0.954
				c0.277-0.222,0.626-0.332,1.046-0.332c0.31,0,0.583,0.062,0.819,0.186s0.429,0.302,0.579,0.534
				c0.149,0.233,0.268,0.518,0.354,0.852c0.086,0.334,0.13,0.785,0.13,1.353c0,0.671-0.069,1.215-0.209,1.63
				c-0.139,0.415-0.347,0.734-0.624,0.956c-0.277,0.223-0.627,0.334-1.05,0.334c-0.557,0-0.994-0.195-1.312-0.585
				C33.325,93.148,33.134,92.371,33.134,91.295z M33.853,91.293c0,0.945,0.112,1.572,0.336,1.881c0.224,0.309,0.5,0.463,0.828,0.463
				c0.328,0,0.604-0.155,0.828-0.465s0.336-0.937,0.336-1.879s-0.111-1.569-0.334-1.879s-0.502-0.465-0.838-0.465
				c-0.329,0-0.592,0.137-0.791,0.41C33.975,89.708,33.853,90.353,33.853,91.293z"/>
		</g>
		<g i:knockout="Off">
			<path i:knockout="Off" d="M42.17,92.793l0.672-0.063c0.057,0.317,0.167,0.548,0.328,0.691c0.161,0.144,0.368,0.215,0.621,0.215
				c0.216,0,0.407-0.049,0.572-0.147c0.165-0.099,0.299-0.23,0.4-0.395s0.188-0.387,0.258-0.667s0.105-0.565,0.105-0.857
				c0-0.031-0.001-0.078-0.004-0.141c-0.14,0.224-0.331,0.405-0.573,0.545s-0.505,0.209-0.787,0.209
				c-0.472,0-0.871-0.172-1.197-0.517c-0.326-0.344-0.489-0.797-0.489-1.36c0-0.581,0.171-1.05,0.514-1.403
				c0.342-0.355,0.771-0.532,1.287-0.532c0.372,0,0.713,0.101,1.021,0.301s0.543,0.485,0.703,0.856s0.24,0.908,0.24,1.61
				c0,0.731-0.08,1.313-0.239,1.747s-0.396,0.764-0.711,0.989c-0.315,0.227-0.684,0.34-1.107,0.34c-0.449,0-0.816-0.124-1.101-0.373
				S42.228,93.244,42.17,92.793z M45.061,90.268c0-0.404-0.106-0.726-0.319-0.962c-0.212-0.238-0.473-0.356-0.78-0.356
				c-0.318,0-0.592,0.128-0.822,0.384s-0.344,0.586-0.344,0.993c0,0.365,0.109,0.662,0.327,0.89c0.218,0.229,0.491,0.343,0.82,0.343
				c0.326,0,0.594-0.114,0.804-0.343C44.956,90.989,45.061,90.672,45.061,90.268z"/>
		</g>
		<g i:knockout="Off">
			<path i:knockout="Off" d="M54.67,91.018c-0.292-0.106-0.507-0.259-0.648-0.457s-0.211-0.436-0.211-0.712
				c0-0.417,0.149-0.768,0.447-1.051c0.299-0.285,0.696-0.427,1.191-0.427c0.498,0,0.899,0.146,1.203,0.437
				c0.304,0.29,0.456,0.644,0.456,1.061c0,0.266-0.069,0.497-0.208,0.694c-0.139,0.196-0.349,0.349-0.631,0.455
				c0.35,0.114,0.617,0.299,0.799,0.554s0.274,0.559,0.274,0.912c0,0.489-0.173,0.899-0.519,1.232s-0.8,0.499-1.364,0.499
				s-1.019-0.167-1.364-0.501s-0.519-0.75-0.519-1.25c0-0.371,0.095-0.683,0.284-0.934S54.32,91.109,54.67,91.018z M54.295,92.469
				c0,0.2,0.046,0.394,0.139,0.58c0.092,0.187,0.233,0.331,0.423,0.435c0.189,0.102,0.393,0.153,0.608,0.153
				c0.341,0,0.619-0.107,0.834-0.323c0.216-0.215,0.324-0.489,0.324-0.821c0-0.337-0.111-0.616-0.333-0.837
				s-0.505-0.331-0.848-0.331c-0.335,0-0.61,0.109-0.825,0.327S54.295,92.142,54.295,92.469z M54.53,89.825
				c0,0.271,0.085,0.492,0.257,0.664c0.171,0.172,0.398,0.258,0.681,0.258c0.275,0,0.497-0.085,0.667-0.256s0.255-0.38,0.255-0.627
				c0-0.258-0.088-0.475-0.263-0.65s-0.397-0.264-0.667-0.264c-0.272,0-0.495,0.086-0.669,0.258S54.53,89.585,54.53,89.825z"/>
		</g>
		<g i:knockout="Off">
			<path i:knockout="Off" d="M64.957,89.137v-0.672h3.703v0.544c-0.365,0.388-0.728,0.904-1.086,1.548
				c-0.359,0.645-0.636,1.308-0.832,1.987c-0.141,0.48-0.231,1.006-0.27,1.577h-0.719c0.008-0.451,0.096-0.996,0.265-1.636
				c0.169-0.639,0.411-1.255,0.727-1.848c0.315-0.594,0.651-1.094,1.008-1.501H64.957z"/>
		</g>
		<g i:knockout="Off">
			<path i:knockout="Off" d="M79.957,89.793l-0.703,0.063c-0.063-0.277-0.152-0.479-0.268-0.604
				c-0.191-0.201-0.428-0.302-0.708-0.302c-0.226,0-0.426,0.063-0.602,0.187c-0.218,0.162-0.391,0.396-0.52,0.705
				c-0.128,0.31-0.195,0.75-0.2,1.323c0.17-0.258,0.378-0.449,0.623-0.574c0.246-0.125,0.504-0.188,0.773-0.188
				c0.47,0,0.871,0.173,1.201,0.518s0.496,0.791,0.496,1.338c0,0.359-0.078,0.693-0.233,1.002s-0.369,0.545-0.642,0.709
				c-0.271,0.164-0.58,0.246-0.926,0.246c-0.588,0-1.068-0.216-1.439-0.646c-0.371-0.432-0.557-1.141-0.557-2.13
				c0-1.106,0.205-1.91,0.617-2.413c0.359-0.437,0.843-0.655,1.451-0.655c0.453,0,0.824,0.126,1.113,0.378
				C79.725,89.001,79.899,89.349,79.957,89.793z M77.066,92.264c0,0.242,0.052,0.474,0.155,0.694s0.247,0.39,0.43,0.505
				c0.183,0.116,0.38,0.174,0.589,0.174c0.304,0,0.562-0.12,0.773-0.358c0.212-0.24,0.318-0.564,0.318-0.976
				c0-0.396-0.104-0.706-0.314-0.935c-0.209-0.227-0.478-0.341-0.805-0.341c-0.319,0-0.59,0.114-0.813,0.341
				C77.177,91.597,77.066,91.895,77.066,92.264z"/>
		</g>
		<g i:knockout="Off">
			<path i:knockout="Off" d="M87.535,92.622l0.719-0.063c0.055,0.358,0.182,0.628,0.379,0.808c0.198,0.181,0.441,0.271,0.73,0.271
				c0.348,0,0.639-0.127,0.871-0.382c0.231-0.254,0.348-0.592,0.348-1.013c0-0.399-0.111-0.715-0.332-0.946
				c-0.222-0.23-0.519-0.347-0.891-0.347c-0.232,0-0.438,0.051-0.617,0.152s-0.322,0.233-0.426,0.395l-0.656-0.094l0.563-2.938
				h2.844v0.672h-2.285l-0.313,1.549c0.344-0.241,0.704-0.361,1.082-0.361c0.5,0,0.922,0.173,1.266,0.519
				c0.344,0.347,0.516,0.791,0.516,1.335c0,0.518-0.151,0.966-0.453,1.343c-0.367,0.463-0.869,0.694-1.504,0.694
				c-0.521,0-0.946-0.146-1.275-0.437C87.769,93.488,87.582,93.102,87.535,92.622z"/>
		</g>
		<g i:knockout="Off">
			<path i:knockout="Off" d="M100.994,94.122v-1.375h-2.484v-0.641l2.625-3.719h0.563v3.719h0.781v0.641h-0.781v1.375H100.994z
				 M100.994,92.106V89.54l-1.793,2.566H100.994z"/>
		</g>
		<g i:knockout="Off">
			<path i:knockout="Off" d="M110.259,92.622l0.719-0.094c0.08,0.394,0.215,0.676,0.404,0.85c0.19,0.173,0.426,0.26,0.707,0.26
				c0.333,0,0.611-0.114,0.835-0.345c0.224-0.229,0.335-0.514,0.335-0.853c0-0.323-0.104-0.591-0.313-0.8
				c-0.21-0.211-0.476-0.315-0.798-0.315c-0.132,0-0.296,0.026-0.492,0.078l0.078-0.625c0.046,0.005,0.083,0.008,0.111,0.008
				c0.295,0,0.56-0.077,0.795-0.232s0.354-0.394,0.354-0.717c0-0.255-0.086-0.467-0.26-0.635c-0.172-0.168-0.396-0.252-0.668-0.252
				c-0.271,0-0.497,0.086-0.678,0.258c-0.18,0.172-0.296,0.43-0.348,0.773l-0.719-0.125c0.086-0.472,0.28-0.837,0.584-1.096
				c0.305-0.259,0.683-0.389,1.135-0.389c0.312,0,0.599,0.067,0.861,0.2c0.262,0.134,0.463,0.315,0.602,0.546
				c0.14,0.231,0.209,0.476,0.209,0.735c0,0.246-0.066,0.471-0.199,0.672c-0.133,0.203-0.33,0.363-0.59,0.482
				c0.338,0.078,0.604,0.24,0.797,0.487c0.192,0.246,0.289,0.555,0.289,0.925c0,0.501-0.183,0.926-0.547,1.273
				c-0.365,0.349-0.826,0.522-1.383,0.522c-0.503,0-0.92-0.147-1.252-0.443S110.306,93.092,110.259,92.622z"/>
		</g>
		<g i:knockout="Off">
			<path i:knockout="Off" d="M125.105,93.45v0.672h-3.797c-0.006-0.169,0.022-0.332,0.083-0.488c0.097-0.258,0.253-0.511,0.467-0.76
				s0.521-0.536,0.92-0.864c0.62-0.516,1.04-0.923,1.261-1.221c0.222-0.298,0.332-0.58,0.332-0.849c0-0.278-0.1-0.513-0.299-0.704
				c-0.2-0.19-0.461-0.286-0.781-0.286c-0.34,0-0.61,0.104-0.814,0.312c-0.203,0.207-0.307,0.494-0.309,0.86l-0.719-0.094
				c0.049-0.539,0.235-0.95,0.558-1.232c0.323-0.282,0.756-0.424,1.3-0.424c0.549,0,0.983,0.152,1.303,0.457
				c0.32,0.305,0.48,0.683,0.48,1.134c0,0.229-0.047,0.454-0.14,0.676c-0.094,0.221-0.248,0.454-0.465,0.699
				c-0.216,0.245-0.576,0.581-1.081,1.009c-0.423,0.354-0.694,0.596-0.814,0.722c-0.119,0.127-0.219,0.254-0.297,0.382H125.105z"/>
		</g>
		<g i:knockout="Off">
			<path i:knockout="Off" d="M31.341,108.061h-0.703v-4.48c-0.169,0.161-0.392,0.323-0.666,0.484
				c-0.275,0.161-0.521,0.282-0.74,0.363v-0.68c0.393-0.185,0.737-0.409,1.031-0.672c0.294-0.263,0.502-0.519,0.625-0.766h0.453
				V108.061z"/>
			<path i:knockout="Off" d="M33.228,106.733l0.672-0.063c0.057,0.317,0.167,0.548,0.328,0.691c0.161,0.144,0.368,0.215,0.621,0.215
				c0.216,0,0.407-0.049,0.572-0.147c0.165-0.099,0.299-0.23,0.4-0.395s0.188-0.387,0.258-0.667s0.105-0.565,0.105-0.857
				c0-0.031-0.001-0.078-0.004-0.141c-0.14,0.224-0.331,0.405-0.573,0.545s-0.505,0.209-0.787,0.209
				c-0.472,0-0.871-0.172-1.197-0.517c-0.326-0.344-0.489-0.797-0.489-1.36c0-0.581,0.171-1.05,0.514-1.403
				c0.342-0.355,0.771-0.532,1.287-0.532c0.372,0,0.713,0.101,1.021,0.301s0.543,0.485,0.703,0.856s0.24,0.908,0.24,1.61
				c0,0.731-0.08,1.313-0.239,1.747s-0.396,0.764-0.711,0.989c-0.315,0.227-0.684,0.34-1.107,0.34c-0.449,0-0.816-0.124-1.101-0.373
				S33.286,107.183,33.228,106.733z M36.119,104.208c0-0.404-0.106-0.726-0.319-0.962c-0.212-0.238-0.473-0.356-0.78-0.356
				c-0.318,0-0.592,0.128-0.822,0.384s-0.344,0.586-0.344,0.993c0,0.365,0.109,0.662,0.327,0.89c0.218,0.229,0.491,0.343,0.82,0.343
				c0.326,0,0.594-0.114,0.804-0.343C36.014,104.928,36.119,104.612,36.119,104.208z"/>
		</g>
		<path i:knockout="Off" fill="none" stroke="#000000" stroke-width="0.7" stroke-linecap="round" d="M25.259,110.836V99.499H11.921
			v11.338H25.259z"/>
		<path i:knockout="Off" fill="none" stroke="#000000" stroke-width="0.7" stroke-linecap="round" d="M25.259,97.231V85.893H11.921
			v11.338H25.259z"/>
		<g i:knockout="Off">
			<path i:knockout="Off" d="M17.003,94.122H16.3v-4.48c-0.169,0.161-0.392,0.323-0.666,0.484c-0.275,0.161-0.521,0.282-0.74,0.363
				v-0.68c0.393-0.185,0.737-0.409,1.031-0.672c0.294-0.263,0.502-0.519,0.625-0.766h0.453V94.122z"/>
			<path i:knockout="Off" d="M21.453,94.122H20.75v-4.48c-0.169,0.161-0.392,0.323-0.666,0.484c-0.275,0.161-0.521,0.282-0.74,0.363
				v-0.68c0.393-0.185,0.737-0.409,1.031-0.672c0.294-0.263,0.502-0.519,0.625-0.766h0.453V94.122z"/>
		</g>
		<g i:knockout="Off">
			<path i:knockout="Off" d="M18.042,107.389v0.672h-3.797c-0.005-0.169,0.022-0.332,0.083-0.488
				c0.097-0.258,0.252-0.511,0.467-0.76c0.214-0.249,0.521-0.536,0.92-0.864c0.62-0.516,1.04-0.923,1.261-1.221
				s0.332-0.58,0.332-0.849c0-0.278-0.1-0.513-0.299-0.704c-0.2-0.19-0.46-0.286-0.781-0.286c-0.339,0-0.61,0.104-0.814,0.312
				c-0.204,0.207-0.307,0.494-0.309,0.86l-0.719-0.094c0.049-0.539,0.235-0.95,0.558-1.232c0.323-0.282,0.756-0.424,1.3-0.424
				c0.549,0,0.983,0.152,1.303,0.457s0.48,0.683,0.48,1.134c0,0.229-0.047,0.454-0.14,0.676c-0.094,0.221-0.248,0.454-0.465,0.699
				c-0.216,0.245-0.576,0.581-1.081,1.009c-0.423,0.354-0.695,0.596-0.815,0.722c-0.12,0.127-0.219,0.254-0.297,0.382H18.042z"/>
			<path i:knockout="Off" d="M18.796,105.235c0-0.677,0.07-1.223,0.211-1.638c0.14-0.415,0.349-0.733,0.626-0.954
				c0.277-0.222,0.626-0.332,1.046-0.332c0.31,0,0.583,0.062,0.819,0.186s0.429,0.302,0.579,0.534
				c0.149,0.233,0.268,0.518,0.354,0.852c0.086,0.334,0.13,0.785,0.13,1.353c0,0.671-0.069,1.215-0.209,1.63
				c-0.139,0.415-0.347,0.734-0.624,0.956c-0.277,0.223-0.627,0.334-1.05,0.334c-0.557,0-0.994-0.195-1.312-0.585
				C18.987,107.087,18.796,106.31,18.796,105.235z M19.515,105.233c0,0.945,0.112,1.572,0.336,1.881
				c0.224,0.309,0.5,0.463,0.828,0.463c0.328,0,0.604-0.155,0.828-0.465s0.336-0.937,0.336-1.879s-0.111-1.569-0.334-1.879
				s-0.502-0.465-0.838-0.465c-0.329,0-0.592,0.137-0.791,0.41C19.637,103.648,19.515,104.292,19.515,105.233z"/>
		</g>
		<path i:knockout="Off" fill="none" stroke="#000000" stroke-width="0.7" stroke-linecap="round" d="M144.645,110.836V99.499
			h-13.339v11.338H144.645z"/>
		<path i:knockout="Off" fill="none" stroke="#000000" stroke-width="0.7" stroke-linecap="round" d="M144.645,97.231V85.893
			h-13.339v11.338H144.645z"/>
		<g i:knockout="Off">
			<path i:knockout="Off" d="M138.613,94.122h-0.703v-4.48c-0.17,0.161-0.392,0.323-0.666,0.484
				c-0.275,0.161-0.521,0.282-0.74,0.363v-0.68c0.393-0.185,0.736-0.409,1.031-0.672c0.294-0.263,0.502-0.519,0.625-0.766h0.453
				V94.122z"/>
		</g>
		<g i:knockout="Off">
			<path i:knockout="Off" d="M136.388,108.061h-0.703v-4.48c-0.17,0.161-0.392,0.323-0.666,0.484
				c-0.275,0.161-0.521,0.282-0.74,0.363v-0.68c0.393-0.185,0.736-0.409,1.031-0.672c0.294-0.263,0.502-0.519,0.625-0.766h0.453
				V108.061z"/>
			<path i:knockout="Off" d="M141.876,107.389v0.672h-3.797c-0.006-0.169,0.022-0.332,0.083-0.488
				c0.097-0.258,0.253-0.511,0.467-0.76s0.521-0.536,0.92-0.864c0.62-0.516,1.04-0.923,1.261-1.221
				c0.222-0.298,0.332-0.58,0.332-0.849c0-0.278-0.1-0.513-0.299-0.704c-0.2-0.19-0.461-0.286-0.781-0.286
				c-0.34,0-0.61,0.104-0.814,0.312c-0.203,0.207-0.307,0.494-0.309,0.86l-0.719-0.094c0.049-0.539,0.235-0.95,0.558-1.232
				c0.323-0.282,0.756-0.424,1.3-0.424c0.549,0,0.983,0.152,1.303,0.457c0.32,0.305,0.48,0.683,0.48,1.134
				c0,0.229-0.047,0.454-0.14,0.676c-0.094,0.221-0.248,0.454-0.465,0.699c-0.216,0.245-0.576,0.581-1.081,1.009
				c-0.423,0.354-0.694,0.596-0.814,0.722c-0.119,0.127-0.219,0.254-0.297,0.382H141.876z"/>
		</g>
		<g i:knockout="Off">
			<path i:knockout="Off" d="M42.508,108.061h-0.703v-4.48c-0.169,0.161-0.392,0.323-0.666,0.484
				c-0.275,0.161-0.521,0.282-0.74,0.363v-0.68c0.393-0.185,0.737-0.409,1.031-0.672c0.294-0.263,0.502-0.519,0.625-0.766h0.453
				V108.061z"/>
			<path i:knockout="Off" d="M45.395,104.958c-0.292-0.106-0.507-0.259-0.648-0.457s-0.211-0.436-0.211-0.712
				c0-0.417,0.149-0.768,0.447-1.051c0.299-0.285,0.696-0.427,1.191-0.427c0.498,0,0.899,0.146,1.203,0.437
				c0.304,0.29,0.456,0.644,0.456,1.061c0,0.266-0.069,0.497-0.208,0.694c-0.139,0.196-0.349,0.349-0.631,0.455
				c0.35,0.114,0.617,0.299,0.799,0.554s0.274,0.559,0.274,0.912c0,0.489-0.173,0.899-0.519,1.232s-0.8,0.499-1.364,0.499
				s-1.019-0.167-1.364-0.501s-0.519-0.75-0.519-1.25c0-0.371,0.095-0.683,0.284-0.934S45.044,105.048,45.395,104.958z
				 M45.02,106.409c0,0.2,0.046,0.394,0.139,0.58c0.092,0.187,0.233,0.331,0.423,0.435c0.189,0.102,0.393,0.153,0.608,0.153
				c0.341,0,0.619-0.107,0.834-0.323c0.216-0.215,0.324-0.489,0.324-0.821c0-0.337-0.111-0.616-0.333-0.837
				s-0.505-0.331-0.848-0.331c-0.335,0-0.61,0.109-0.825,0.327S45.02,106.082,45.02,106.409z M45.254,103.764
				c0,0.271,0.085,0.492,0.257,0.664c0.171,0.172,0.398,0.258,0.681,0.258c0.275,0,0.497-0.085,0.667-0.256s0.255-0.38,0.255-0.627
				c0-0.258-0.088-0.475-0.263-0.65s-0.397-0.264-0.667-0.264c-0.272,0-0.495,0.086-0.669,0.258S45.254,103.525,45.254,103.764z"/>
		</g>
		<g i:knockout="Off">
			<path i:knockout="Off" d="M65.341,108.061h-0.703v-4.48c-0.169,0.161-0.392,0.323-0.666,0.484
				c-0.275,0.161-0.521,0.282-0.74,0.363v-0.68c0.393-0.185,0.737-0.409,1.031-0.672c0.294-0.263,0.502-0.519,0.625-0.766h0.453
				V108.061z"/>
			<path i:knockout="Off" d="M67.181,103.077v-0.672h3.703v0.544c-0.365,0.388-0.728,0.904-1.086,1.548
				c-0.359,0.645-0.636,1.308-0.832,1.987c-0.141,0.48-0.23,1.006-0.27,1.577h-0.719c0.008-0.451,0.096-0.996,0.266-1.636
				c0.168-0.639,0.41-1.255,0.727-1.848c0.315-0.594,0.651-1.094,1.008-1.501H67.181z"/>
		</g>
		<g i:knockout="Off">
			<path i:knockout="Off" d="M76.716,108.061h-0.703v-4.48c-0.17,0.161-0.392,0.323-0.666,0.484
				c-0.275,0.161-0.521,0.282-0.74,0.363v-0.68c0.393-0.185,0.736-0.409,1.031-0.672c0.294-0.263,0.502-0.519,0.625-0.766h0.453
				V108.061z"/>
			<path i:knockout="Off" d="M82.181,103.733l-0.703,0.063c-0.063-0.277-0.152-0.479-0.268-0.604
				c-0.191-0.201-0.428-0.302-0.708-0.302c-0.226,0-0.426,0.063-0.602,0.187c-0.218,0.162-0.391,0.396-0.52,0.705
				c-0.128,0.31-0.195,0.75-0.2,1.323c0.17-0.258,0.378-0.449,0.623-0.574c0.246-0.125,0.504-0.188,0.773-0.188
				c0.47,0,0.871,0.173,1.201,0.518s0.496,0.791,0.496,1.338c0,0.359-0.078,0.693-0.233,1.002s-0.369,0.545-0.642,0.709
				c-0.271,0.164-0.58,0.246-0.926,0.246c-0.588,0-1.068-0.216-1.439-0.646c-0.371-0.432-0.557-1.141-0.557-2.13
				c0-1.106,0.205-1.91,0.617-2.413c0.359-0.437,0.843-0.655,1.451-0.655c0.453,0,0.824,0.126,1.113,0.378
				C81.95,102.941,82.124,103.289,82.181,103.733z M79.291,106.204c0,0.242,0.052,0.474,0.155,0.694s0.247,0.39,0.43,0.505
				c0.183,0.116,0.38,0.174,0.589,0.174c0.304,0,0.562-0.12,0.773-0.358c0.212-0.24,0.318-0.564,0.318-0.976
				c0-0.396-0.104-0.706-0.314-0.935c-0.209-0.227-0.478-0.341-0.805-0.341c-0.319,0-0.59,0.114-0.813,0.341
				C79.402,105.537,79.291,105.834,79.291,106.204z"/>
		</g>
		<g i:knockout="Off">
			<path i:knockout="Off" d="M87.966,108.061h-0.703v-4.48c-0.17,0.161-0.392,0.323-0.666,0.484
				c-0.275,0.161-0.521,0.282-0.74,0.363v-0.68c0.393-0.185,0.736-0.409,1.031-0.672c0.294-0.263,0.502-0.519,0.625-0.766h0.453
				V108.061z"/>
			<path i:knockout="Off" d="M89.759,106.561l0.719-0.063c0.055,0.358,0.182,0.628,0.379,0.808c0.198,0.181,0.441,0.271,0.73,0.271
				c0.348,0,0.639-0.127,0.871-0.382c0.231-0.254,0.348-0.592,0.348-1.013c0-0.399-0.111-0.715-0.332-0.946
				c-0.222-0.23-0.519-0.347-0.891-0.347c-0.232,0-0.438,0.051-0.617,0.152s-0.322,0.233-0.426,0.395l-0.656-0.094l0.563-2.938
				h2.844v0.672h-2.285l-0.313,1.549c0.344-0.241,0.704-0.361,1.082-0.361c0.5,0,0.922,0.173,1.266,0.519
				c0.344,0.347,0.516,0.791,0.516,1.335c0,0.518-0.151,0.966-0.453,1.343c-0.367,0.463-0.869,0.694-1.504,0.694
				c-0.521,0-0.946-0.146-1.275-0.437C89.994,107.427,89.806,107.042,89.759,106.561z"/>
		</g>
		<g i:knockout="Off">
			<path i:knockout="Off" d="M110.675,108.061h-0.703v-4.48c-0.17,0.161-0.392,0.323-0.666,0.484
				c-0.275,0.161-0.521,0.282-0.74,0.363v-0.68c0.393-0.185,0.736-0.409,1.031-0.672c0.294-0.263,0.502-0.519,0.625-0.766h0.453
				V108.061z"/>
			<path i:knockout="Off" d="M114.718,108.061v-1.375h-2.484v-0.641l2.625-3.719h0.563v3.719h0.781v0.641h-0.781v1.375H114.718z
				 M114.718,106.045v-2.566l-1.793,2.566H114.718z"/>
		</g>
		<g i:knockout="Off">
			<path i:knockout="Off" d="M121.841,108.061h-0.703v-4.48c-0.17,0.161-0.392,0.323-0.666,0.484
				c-0.275,0.161-0.521,0.282-0.74,0.363v-0.68c0.393-0.185,0.736-0.409,1.031-0.672c0.294-0.263,0.502-0.519,0.625-0.766h0.453
				V108.061z"/>
			<path i:knockout="Off" d="M123.65,106.561l0.719-0.094c0.08,0.394,0.215,0.676,0.404,0.85c0.19,0.173,0.426,0.26,0.707,0.26
				c0.333,0,0.611-0.114,0.835-0.345c0.224-0.229,0.335-0.514,0.335-0.853c0-0.323-0.104-0.591-0.313-0.8
				c-0.21-0.211-0.476-0.315-0.798-0.315c-0.132,0-0.296,0.026-0.492,0.078l0.078-0.625c0.046,0.005,0.083,0.008,0.111,0.008
				c0.295,0,0.56-0.077,0.795-0.232s0.354-0.394,0.354-0.717c0-0.255-0.086-0.467-0.26-0.635c-0.172-0.168-0.396-0.252-0.668-0.252
				c-0.271,0-0.497,0.086-0.678,0.258c-0.18,0.172-0.296,0.43-0.348,0.773l-0.719-0.125c0.086-0.472,0.28-0.837,0.584-1.096
				c0.305-0.259,0.683-0.389,1.135-0.389c0.312,0,0.599,0.067,0.861,0.2c0.262,0.134,0.463,0.315,0.602,0.546
				c0.14,0.231,0.209,0.476,0.209,0.735c0,0.246-0.066,0.471-0.199,0.672c-0.133,0.203-0.33,0.363-0.59,0.482
				c0.338,0.078,0.604,0.24,0.797,0.487c0.192,0.246,0.289,0.555,0.289,0.925c0,0.501-0.183,0.926-0.547,1.273
				c-0.365,0.349-0.826,0.522-1.383,0.522c-0.503,0-0.92-0.147-1.252-0.443S123.697,107.032,123.65,106.561z"/>
		</g>
		<path i:knockout="Off" fill="none" stroke="#000000" stroke-width="0.7" stroke-linecap="round" d="M38.597,97.231v2.268"/>
		<path i:knockout="Off" fill="none" stroke="#000000" stroke-width="0.7" stroke-linecap="round" d="M49.936,97.231v2.268"/>
		<path i:knockout="Off" fill="none" stroke="#000000" stroke-width="0.7" stroke-linecap="round" d="M61.275,97.231v2.268"/>
		<path i:knockout="Off" fill="none" stroke="#000000" stroke-width="0.7" stroke-linecap="round" d="M72.613,97.231v2.268"/>
		<path i:knockout="Off" fill="none" stroke="#000000" stroke-width="0.7" stroke-linecap="round" d="M83.951,97.231v2.268"/>
		<path i:knockout="Off" fill="none" stroke="#000000" stroke-width="0.7" stroke-linecap="round" d="M72.613,110.836v2.268"/>
		<path i:knockout="Off" fill="none" stroke="#000000" stroke-width="0.7" stroke-linecap="round" d="M38.597,110.836v2.268"/>
		<path i:knockout="Off" fill="none" stroke="#000000" stroke-width="0.7" stroke-linecap="round" d="M117.968,110.836v2.268"/>
		<path i:knockout="Off" fill="none" stroke="#000000" stroke-width="0.7" stroke-linecap="round" d="M83.951,110.836v2.268"/>
		<path i:knockout="Off" fill="none" stroke="#000000" stroke-width="0.7" stroke-linecap="round" d="M95.289,97.231v2.268"/>
		<path i:knockout="Off" fill="none" stroke="#000000" stroke-width="0.7" stroke-linecap="round" d="M106.626,97.231v2.268"/>
		<path i:knockout="Off" fill="none" stroke="#000000" stroke-width="0.7" stroke-linecap="round" d="M117.964,97.231v2.268"/>
	</g>
</svg>
