<?xml version="1.0" encoding="utf-8"?>
<!-- Generator: Adobe Illustrator 10.0, SVG Export Plug-In . SVG Version: 3.0.0 Build 77)  -->
<!DOCTYPE svg PUBLIC "-//W3C//DTD SVG 1.0//EN"    "http://www.w3.org/TR/2001/REC-SVG-20010904/DTD/svg10.dtd" [
	<!ENTITY ns_flows "http://ns.adobe.com/Flows/1.0/">
	<!ENTITY ns_extend "http://ns.adobe.com/Extensibility/1.0/">
	<!ENTITY ns_ai "http://ns.adobe.com/AdobeIllustrator/10.0/">
	<!ENTITY ns_graphs "http://ns.adobe.com/Graphs/1.0/">
	<!ENTITY ns_vars "http://ns.adobe.com/Variables/1.0/">
	<!ENTITY ns_imrep "http://ns.adobe.com/ImageReplacement/1.0/">
	<!ENTITY ns_sfw "http://ns.adobe.com/SaveForWeb/1.0/">
	<!ENTITY ns_custom "http://ns.adobe.com/GenericCustomNamespace/1.0/">
	<!ENTITY ns_adobe_xpath "http://ns.adobe.com/XPath/1.0/">
	<!ENTITY ns_svg "http://www.w3.org/2000/svg">
	<!ENTITY ns_xlink "http://www.w3.org/1999/xlink">
]>
<svg xmlns:x="&ns_extend;" xmlns:i="&ns_ai;" xmlns:graph="&ns_graphs;" i:viewOrigin="266.3184 484.8481" i:rulerOrigin="0 0" i:pageBounds="0 841.8896 595.2754 0" xmlns="&ns_svg;" xmlns:xlink="&ns_xlink;" xmlns:a="http://ns.adobe.com/AdobeSVGViewerExtensions/3.0/" width="52.199" height="99.988" viewBox="0 0 52.199 99.988" overflow="visible" enable-background="new 0 0 52.199 99.988" xml:space="preserve" id="svgObj" onload="parent.svgLoad('Top', document)">
	<metadata>
		<variableSets xmlns="&ns_vars;">
			<variableSet varSetName="binding1" locked="none">
				<variables></variables>
				<v:sampleDataSets xmlns="&ns_custom;" xmlns:v="&ns_vars;"></v:sampleDataSets>
			</variableSet>
		</variableSets>
		<sfw xmlns="&ns_sfw;">
			<slices></slices>
			<sliceSourceBounds y="363.665" x="262.5" width="80.371" height="125.725" bottomLeftOrigin="true"></sliceSourceBounds>
		</sfw>
	</metadata>
	<g id="connector" i:layer="yes" i:dimmedPercent="50" i:rgbTrio="#FFFF4F00FFFF">
		<g i:knockout="Off">
			<path i:knockout="Off" d="M3.579,4.672V3.453h3.109V6.33C6.386,6.623,5.947,6.88,5.373,7.103C4.799,7.326,4.218,7.438,3.63,7.438
				c-0.748,0-1.4-0.158-1.956-0.473C1.117,6.649,0.699,6.197,0.42,5.61C0.14,5.023,0,4.384,0,3.694C0,2.945,0.156,2.28,0.469,1.698
				c0.312-0.582,0.769-1.029,1.37-1.34C2.298,0.12,2.868,0,3.551,0c0.888,0,1.581,0.187,2.08,0.561s0.82,0.89,0.963,1.549
				L5.157,2.375c-0.101-0.353-0.291-0.63-0.568-0.834C4.311,1.336,3.964,1.234,3.548,1.234c-0.631,0-1.133,0.202-1.505,0.605
				S1.485,2.841,1.485,3.635c0,0.856,0.189,1.498,0.567,1.926C2.43,5.989,2.926,6.203,3.538,6.203c0.303,0,0.607-0.06,0.912-0.18
				s0.566-0.265,0.785-0.436V4.672H3.579z"/>
			<path i:knockout="Off" d="M7.67,5.412L8.998,5.25C9.04,5.589,9.154,5.849,9.339,6.028c0.185,0.18,0.409,0.269,0.672,0.269
				c0.282,0,0.52-0.109,0.713-0.326c0.193-0.217,0.29-0.511,0.29-0.88c0-0.35-0.092-0.626-0.277-0.831s-0.41-0.307-0.675-0.307
				c-0.175,0-0.384,0.034-0.626,0.103l0.151-1.103c0.372,0.01,0.656-0.071,0.852-0.243c0.196-0.171,0.294-0.398,0.294-0.683
				c0-0.242-0.072-0.435-0.215-0.578s-0.333-0.215-0.57-0.215c-0.234,0-0.435,0.081-0.6,0.243C9.181,1.64,9.081,1.876,9.045,2.188
				L7.779,1.974C7.867,1.539,8,1.191,8.177,0.931s0.424-0.464,0.742-0.614c0.317-0.148,0.673-0.223,1.066-0.223
				c0.673,0,1.213,0.215,1.62,0.646c0.335,0.353,0.503,0.751,0.503,1.195c0,0.63-0.343,1.133-1.029,1.509
				c0.407,0.088,0.732,0.286,0.976,0.594s0.366,0.679,0.366,1.115c0,0.633-0.229,1.171-0.688,1.617s-1.029,0.668-1.711,0.668
				c-0.647,0-1.184-0.187-1.609-0.56C7.985,6.503,7.738,6.015,7.67,5.412z"/>
			<path i:knockout="Off" d="M13.263,1.516V0.234h4.688v1c-0.387,0.381-0.781,0.927-1.181,1.64s-0.705,1.47-0.915,2.272
				c-0.21,0.802-0.313,1.519-0.31,2.15h-1.328c0.023-0.989,0.228-1.997,0.614-3.025c0.386-1.027,0.903-1.946,1.549-2.756H13.263z"/>
			<path i:knockout="Off" d="M23.481,6.016v1.281h-4.813c0.052-0.483,0.208-0.94,0.469-1.373c0.261-0.432,0.776-1.005,1.545-1.72
				c0.619-0.577,0.999-0.969,1.139-1.175c0.189-0.283,0.284-0.564,0.284-0.841c0-0.307-0.083-0.542-0.249-0.707
				s-0.395-0.247-0.688-0.247c-0.289,0-0.519,0.087-0.69,0.26c-0.171,0.174-0.27,0.462-0.295,0.865l-1.375-0.137
				c0.082-0.759,0.338-1.303,0.771-1.633c0.432-0.33,0.971-0.496,1.619-0.496c0.71,0,1.268,0.191,1.673,0.572
				s0.609,0.856,0.609,1.423c0,0.323-0.058,0.63-0.174,0.922s-0.299,0.597-0.55,0.917c-0.166,0.212-0.467,0.517-0.903,0.915
				c-0.436,0.397-0.712,0.662-0.828,0.792s-0.209,0.258-0.281,0.381H23.481z"/>
		</g>
		<g i:knockout="Off">
			<path i:knockout="Off" d="M3.578,67.034v-1.219h3.109v2.877c-0.303,0.293-0.741,0.551-1.314,0.773
				c-0.574,0.223-1.155,0.334-1.744,0.334c-0.748,0-1.399-0.157-1.956-0.474c-0.556-0.315-0.974-0.767-1.253-1.354
				S0,66.747,0,66.056c0-0.749,0.156-1.415,0.468-1.997c0.313-0.582,0.77-1.028,1.371-1.339c0.458-0.239,1.029-0.358,1.712-0.358
				c0.887,0,1.581,0.187,2.08,0.561s0.82,0.89,0.963,1.549l-1.438,0.266c-0.101-0.353-0.29-0.631-0.568-0.835
				c-0.278-0.204-0.625-0.306-1.041-0.306c-0.631,0-1.132,0.202-1.504,0.605c-0.373,0.403-0.559,1.002-0.559,1.795
				c0,0.856,0.189,1.499,0.567,1.927c0.378,0.428,0.873,0.642,1.486,0.642c0.303,0,0.606-0.06,0.911-0.18s0.566-0.265,0.785-0.436
				v-0.916H3.578z"/>
			<path i:knockout="Off" d="M7.669,67.773l1.328-0.161c0.042,0.339,0.156,0.599,0.341,0.778c0.185,0.179,0.409,0.269,0.672,0.269
				c0.282,0,0.52-0.108,0.713-0.326c0.193-0.218,0.29-0.511,0.29-0.88c0-0.35-0.092-0.627-0.277-0.831s-0.41-0.307-0.675-0.307
				c-0.175,0-0.384,0.034-0.626,0.103l0.151-1.103c0.372,0.01,0.656-0.071,0.852-0.242c0.196-0.172,0.294-0.399,0.294-0.684
				c0-0.241-0.072-0.434-0.215-0.577s-0.333-0.216-0.57-0.216c-0.234,0-0.435,0.081-0.6,0.243c-0.166,0.162-0.267,0.399-0.302,0.71
				l-1.266-0.214c0.088-0.435,0.22-0.783,0.397-1.043c0.177-0.26,0.424-0.465,0.742-0.613c0.317-0.149,0.673-0.224,1.066-0.224
				c0.673,0,1.213,0.216,1.62,0.646c0.335,0.353,0.503,0.751,0.503,1.195c0,0.63-0.343,1.133-1.029,1.508
				c0.407,0.089,0.732,0.287,0.976,0.595s0.366,0.68,0.366,1.115c0,0.632-0.229,1.171-0.688,1.616s-1.029,0.668-1.711,0.668
				c-0.647,0-1.184-0.187-1.609-0.561C7.984,68.866,7.737,68.376,7.669,67.773z"/>
			<path i:knockout="Off" d="M13.262,63.877v-1.281h4.688v1c-0.387,0.381-0.781,0.928-1.181,1.64
				c-0.4,0.713-0.705,1.471-0.915,2.272c-0.21,0.803-0.313,1.519-0.31,2.15h-1.328c0.023-0.989,0.228-1.997,0.614-3.024
				c0.386-1.028,0.903-1.947,1.549-2.757H13.262z"/>
			<path i:knockout="Off" d="M18.793,67.773l1.328-0.161c0.042,0.339,0.156,0.599,0.341,0.778c0.185,0.179,0.409,0.269,0.672,0.269
				c0.282,0,0.52-0.108,0.713-0.326c0.193-0.218,0.29-0.511,0.29-0.88c0-0.35-0.092-0.627-0.277-0.831s-0.41-0.307-0.675-0.307
				c-0.175,0-0.384,0.034-0.626,0.103l0.151-1.103c0.372,0.01,0.656-0.071,0.852-0.242c0.196-0.172,0.294-0.399,0.294-0.684
				c0-0.241-0.072-0.434-0.215-0.577s-0.333-0.216-0.57-0.216c-0.234,0-0.435,0.081-0.6,0.243c-0.166,0.162-0.267,0.399-0.302,0.71
				l-1.266-0.214c0.088-0.435,0.22-0.783,0.397-1.043c0.177-0.26,0.424-0.465,0.742-0.613c0.317-0.149,0.673-0.224,1.066-0.224
				c0.673,0,1.213,0.216,1.62,0.646c0.335,0.353,0.503,0.751,0.503,1.195c0,0.63-0.343,1.133-1.029,1.508
				c0.407,0.089,0.732,0.287,0.976,0.595s0.366,0.68,0.366,1.115c0,0.632-0.229,1.171-0.688,1.616s-1.029,0.668-1.711,0.668
				c-0.647,0-1.184-0.187-1.609-0.561C19.108,68.866,18.861,68.376,18.793,67.773z"/>
		</g>
	</g>
	<g id="レイヤー_1" i:layer="yes" i:dimmedPercent="100" i:rgbTrio="#4F008000FFFF">
		<path i:knockout="Off" fill="none" stroke="#000000" stroke-width="1.2" stroke-linecap="round" d="M37.871,21.297v-2.823H32.2
			v2.823"/>
		<g i:knockout="Off">
			<path i:knockout="Off" d="M28.647,30.203h-0.703v-4.48c-0.169,0.162-0.391,0.323-0.666,0.484s-0.521,0.283-0.74,0.363v-0.68
				c0.393-0.185,0.737-0.409,1.031-0.672s0.502-0.518,0.625-0.766h0.453V30.203z"/>
		</g>
		<path i:knockout="Off" fill="none" stroke="#000000" stroke-width="1.2" stroke-linecap="round" d="M33.887,33.793V21.422H22.325
			v12.371H33.887z"/>
		<path i:knockout="Off" fill="none" stroke="#000000" stroke-width="0.7" stroke-linecap="square" d="M22.49,32.146h11.022"/>
		<g i:knockout="Off">
			<path i:knockout="Off" d="M43.728,29.49v0.672h-3.797c-0.005-0.169,0.022-0.332,0.083-0.488c0.097-0.258,0.252-0.511,0.467-0.76
				c0.214-0.249,0.521-0.537,0.92-0.864c0.62-0.516,1.04-0.923,1.262-1.221c0.221-0.297,0.331-0.581,0.331-0.848
				c0-0.278-0.1-0.513-0.3-0.704c-0.199-0.191-0.459-0.287-0.78-0.287c-0.339,0-0.61,0.104-0.813,0.311
				c-0.204,0.207-0.307,0.494-0.31,0.861l-0.719-0.094c0.05-0.539,0.235-0.95,0.558-1.232s0.756-0.424,1.3-0.424
				c0.549,0,0.983,0.153,1.304,0.458c0.319,0.305,0.479,0.682,0.479,1.133c0,0.229-0.047,0.455-0.14,0.676
				c-0.094,0.222-0.248,0.455-0.465,0.7c-0.216,0.245-0.576,0.581-1.08,1.009c-0.424,0.355-0.695,0.596-0.815,0.722
				s-0.219,0.254-0.297,0.381H43.728z"/>
		</g>
		<path i:knockout="Off" fill="none" stroke="#000000" stroke-width="1.2" stroke-linecap="round" d="M47.93,33.752V21.381H36.367
			v12.371H47.93z"/>
		<path i:knockout="Off" fill="none" stroke="#000000" stroke-width="0.7" stroke-linecap="square" d="M36.663,32.105h11.021"/>
		<g>
			<g>
				<path i:knockout="Off" fill="none" stroke="#000000" stroke-width="1.2" d="M39.809,81.037v-3.414H32.98v3.414"/>
				<path i:knockout="Off" fill="none" stroke="#000000" stroke-width="0.7" d="M23.248,96.717V83.537h12.364v13.181H23.248z"/>
				<path i:knockout="Off" fill="none" stroke="#000000" stroke-width="1.2" d="M51.6,99.388V81.037H21.041v18.352H51.6z"/>
				<g i:knockout="Off">
					<path i:knockout="Off" d="M31.572,91.587v0.672h-3.797c-0.005-0.169,0.022-0.332,0.083-0.488
						c0.097-0.258,0.252-0.511,0.467-0.76c0.214-0.248,0.521-0.537,0.92-0.864c0.62-0.517,1.04-0.923,1.261-1.221
						s0.332-0.58,0.332-0.849c0-0.277-0.1-0.513-0.299-0.703c-0.2-0.191-0.46-0.287-0.781-0.287c-0.339,0-0.61,0.104-0.814,0.311
						c-0.204,0.208-0.307,0.494-0.309,0.861l-0.719-0.094c0.049-0.539,0.235-0.949,0.558-1.232c0.323-0.282,0.756-0.424,1.3-0.424
						c0.549,0,0.983,0.152,1.303,0.457s0.48,0.683,0.48,1.133c0,0.229-0.047,0.455-0.14,0.677c-0.094,0.222-0.248,0.454-0.465,0.699
						c-0.216,0.245-0.576,0.581-1.081,1.009c-0.423,0.355-0.695,0.596-0.815,0.723c-0.12,0.126-0.219,0.253-0.297,0.381H31.572z"/>
				</g>
				<path i:knockout="Off" fill="none" stroke="#000000" stroke-width="0.7" d="M23.178,95.115h12.378"/>
				<path i:knockout="Off" fill="none" stroke="#000000" stroke-width="0.7" d="M37.167,96.717V83.537H49.53v13.181H37.167z"/>
				<g i:knockout="Off">
					<path i:knockout="Off" d="M44.452,92.259h-0.703v-4.48c-0.169,0.162-0.392,0.323-0.666,0.484
						c-0.274,0.162-0.521,0.283-0.74,0.363v-0.68c0.394-0.185,0.737-0.408,1.031-0.672c0.294-0.263,0.503-0.518,0.625-0.766h0.453
						V92.259z"/>
				</g>
				<path i:knockout="Off" fill="none" stroke="#000000" stroke-width="0.7" d="M37.098,95.115h12.379"/>
			</g>
		</g>
	</g>
</svg>
