<?xml version="1.0" encoding="utf-8"?>
<!-- Generator: Adobe Illustrator 10.0, SVG Export Plug-In . SVG Version: 3.0.0 Build 77)  -->
<!DOCTYPE svg PUBLIC "-//W3C//DTD SVG 1.0//EN"    "http://www.w3.org/TR/2001/REC-SVG-20010904/DTD/svg10.dtd" [
	<!ENTITY ns_flows "http://ns.adobe.com/Flows/1.0/">
	<!ENTITY ns_extend "http://ns.adobe.com/Extensibility/1.0/">
	<!ENTITY ns_ai "http://ns.adobe.com/AdobeIllustrator/10.0/">
	<!ENTITY ns_graphs "http://ns.adobe.com/Graphs/1.0/">
	<!ENTITY ns_vars "http://ns.adobe.com/Variables/1.0/">
	<!ENTITY ns_imrep "http://ns.adobe.com/ImageReplacement/1.0/">
	<!ENTITY ns_sfw "http://ns.adobe.com/SaveForWeb/1.0/">
	<!ENTITY ns_custom "http://ns.adobe.com/GenericCustomNamespace/1.0/">
	<!ENTITY ns_adobe_xpath "http://ns.adobe.com/XPath/1.0/">
	<!ENTITY ns_svg "http://www.w3.org/2000/svg">
	<!ENTITY ns_xlink "http://www.w3.org/1999/xlink">
]>
<svg xmlns:x="&ns_extend;" xmlns:i="&ns_ai;" xmlns:graph="&ns_graphs;" i:viewOrigin="257.7993 432.1089" i:rulerOrigin="-1 0.1104" i:pageBounds="1 841.8896 596 -0.1104" xmlns="&ns_svg;" xmlns:xlink="&ns_xlink;" xmlns:a="http://ns.adobe.com/AdobeSVGViewerExtensions/3.0/" width="80.402" height="22.938" viewBox="0 0 80.402 22.938" overflow="visible" enable-background="new 0 0 80.402 22.938" xml:space="preserve" id="svgObj" onload="parent.svgLoad('Top', document)">
	<metadata>
		<variableSets xmlns="&ns_vars;">
			<variableSet varSetName="binding1" locked="none">
				<variables></variables>
				<v:sampleDataSets xmlns="&ns_custom;" xmlns:v="&ns_vars;"></v:sampleDataSets>
			</variableSet>
		</variableSets>
		<sfw xmlns="&ns_sfw;">
			<slices></slices>
			<sliceSourceBounds y="388.708" x="257.799" width="80.402" height="63.363" bottomLeftOrigin="true"></sliceSourceBounds>
		</sfw>
	</metadata>
	<g id="レイヤー_1" i:layer="yes" i:dimmedPercent="100" i:rgbTrio="#4F008000FFFF">
		<path i:knockout="Off" fill="none" stroke="#000000" stroke-width="1.2" stroke-linecap="round" d="M79.802,22.338V1.119h-5.74
			v2.794H6.319V1.1H0.6v21.238H79.802z"/>
		<path i:knockout="Off" fill="none" stroke="#000000" stroke-width="0.7" stroke-linecap="round" d="M0.592,3.875v11.338h11.339
			V3.875"/>
		<path i:knockout="Off" fill="none" stroke="#000000" stroke-width="0.7" stroke-linecap="round" d="M23.27,15.213V3.875H11.931
			v11.338H23.27z"/>
		<path i:knockout="Off" fill="none" stroke="#000000" stroke-width="0.7" stroke-linecap="round" d="M34.608,15.213V3.875H23.27
			v11.338H34.608z"/>
		<path i:knockout="Off" fill="none" stroke="#000000" stroke-width="0.7" stroke-linecap="round" d="M45.947,15.213V3.875H34.608
			v11.338H45.947z"/>
		<path i:knockout="Off" fill="none" stroke="#000000" stroke-width="0.7" stroke-linecap="round" d="M57.287,15.213V3.875h-11.34
			v11.338H57.287z"/>
		<path i:knockout="Off" fill="none" stroke="#000000" stroke-width="0.7" stroke-linecap="round" d="M68.625,15.213V3.875H57.287
			v11.338H68.625z"/>
		<path i:knockout="Off" fill="none" stroke="#000000" stroke-width="0.7" stroke-linecap="round" d="M68.625,3.875v11.338h11.338
			V3.875"/>
		<path i:knockout="Off" fill="none" stroke="#000000" stroke-width="0.7" d="M11.931,22.338L0.592,18.086"/>
		<path i:knockout="Off" fill="none" stroke="#000000" stroke-width="0.7" d="M0.592,22.338l11.339-4.252"/>
		<path i:knockout="Off" fill="none" stroke="#000000" stroke-width="0.7" d="M23.27,22.338l-11.339-4.252"/>
		<path i:knockout="Off" fill="none" stroke="#000000" stroke-width="0.7" d="M11.931,22.338l11.339-4.252"/>
		<path i:knockout="Off" fill="none" stroke="#000000" stroke-width="0.7" d="M34.608,22.338L23.27,18.086"/>
		<path i:knockout="Off" fill="none" stroke="#000000" stroke-width="0.7" d="M23.27,22.338l11.338-4.252"/>
		<path i:knockout="Off" fill="none" stroke="#000000" stroke-width="0.7" d="M45.947,22.338l-11.338-4.252"/>
		<path i:knockout="Off" fill="none" stroke="#000000" stroke-width="0.7" d="M34.608,22.338l11.338-4.252"/>
		<path i:knockout="Off" fill="none" stroke="#000000" stroke-width="0.7" d="M57.287,22.338l-11.34-4.252"/>
		<path i:knockout="Off" fill="none" stroke="#000000" stroke-width="0.7" d="M45.947,22.338l11.34-4.252"/>
		<path i:knockout="Off" fill="none" stroke="#000000" stroke-width="0.7" d="M79.982,18.086H0.494"/>
		<path i:knockout="Off" fill="none" stroke="#000000" stroke-width="0.7" d="M68.625,22.338l-11.338-4.252"/>
		<path i:knockout="Off" fill="none" stroke="#000000" stroke-width="0.7" d="M57.287,22.338l11.338-4.252"/>
		<path i:knockout="Off" fill="none" stroke="#000000" stroke-width="0.7" d="M79.962,22.338l-11.338-4.252"/>
		<path i:knockout="Off" fill="none" stroke="#000000" stroke-width="0.7" d="M68.625,22.338l11.338-4.252"/>
		<path i:knockout="Off" fill="none" stroke="#000000" stroke-width="1.2" d="M43.121,4.002V0.6h-5.669v3.402"/>
		<g i:knockout="Off">
			<path i:knockout="Off" d="M7.022,12.497H6.319v-4.48C6.149,8.178,5.927,8.339,5.653,8.5c-0.275,0.162-0.521,0.283-0.74,0.363
				v-0.68C5.306,8,5.649,7.775,5.944,7.512C6.238,7.25,6.446,6.994,6.569,6.747h0.453V12.497z"/>
		</g>
		<g i:knockout="Off">
			<path i:knockout="Off" d="M19.243,11.825v0.672h-3.797c-0.005-0.169,0.022-0.332,0.083-0.488c0.097-0.258,0.252-0.511,0.467-0.76
				c0.214-0.249,0.521-0.537,0.92-0.864c0.62-0.516,1.04-0.923,1.261-1.221s0.332-0.58,0.332-0.849c0-0.278-0.1-0.513-0.299-0.704
				s-0.46-0.287-0.781-0.287c-0.339,0-0.61,0.104-0.814,0.311s-0.307,0.494-0.309,0.861l-0.719-0.094
				c0.049-0.539,0.235-0.95,0.558-1.232c0.323-0.282,0.756-0.424,1.3-0.424c0.549,0,0.983,0.152,1.303,0.457s0.48,0.683,0.48,1.133
				c0,0.229-0.047,0.455-0.14,0.676c-0.094,0.221-0.248,0.454-0.465,0.699c-0.216,0.245-0.576,0.581-1.081,1.009
				c-0.423,0.355-0.695,0.596-0.815,0.722c-0.12,0.126-0.219,0.253-0.297,0.381H19.243z"/>
		</g>
		<g i:knockout="Off">
			<path i:knockout="Off" d="M26.897,10.997l0.719-0.094c0.08,0.393,0.215,0.676,0.405,0.85c0.19,0.173,0.425,0.26,0.707,0.26
				c0.333,0,0.611-0.115,0.835-0.344c0.223-0.229,0.335-0.514,0.335-0.853c0-0.323-0.104-0.59-0.313-0.8
				C29.374,9.805,29.108,9.7,28.786,9.7c-0.132,0-0.296,0.026-0.492,0.078l0.078-0.625c0.046,0.005,0.083,0.008,0.112,0.008
				c0.294,0,0.56-0.077,0.795-0.232c0.235-0.155,0.354-0.394,0.354-0.717c0-0.255-0.086-0.467-0.259-0.635s-0.396-0.252-0.669-0.252
				c-0.271,0-0.497,0.086-0.677,0.258c-0.181,0.172-0.296,0.43-0.348,0.773l-0.719-0.125c0.086-0.471,0.28-0.836,0.584-1.096
				c0.304-0.259,0.682-0.389,1.134-0.389c0.312,0,0.599,0.067,0.861,0.2c0.262,0.134,0.463,0.315,0.602,0.546
				c0.139,0.231,0.208,0.476,0.208,0.735c0,0.246-0.066,0.47-0.199,0.672s-0.33,0.363-0.59,0.482
				c0.338,0.078,0.604,0.241,0.797,0.487c0.192,0.246,0.289,0.555,0.289,0.925c0,0.501-0.183,0.926-0.547,1.273
				c-0.365,0.349-0.826,0.522-1.383,0.522c-0.503,0-0.92-0.147-1.252-0.443S26.944,11.467,26.897,10.997z"/>
		</g>
		<g i:knockout="Off">
			<path i:knockout="Off" d="M40.632,12.497v-1.375h-2.484v-0.641l2.625-3.719h0.563v3.719h0.781v0.641h-0.781v1.375H40.632z
				 M40.632,10.481V7.915l-1.792,2.566H40.632z"/>
		</g>
		<g i:knockout="Off">
			<path i:knockout="Off" d="M49.714,10.997l0.719-0.063c0.055,0.358,0.182,0.627,0.379,0.808c0.198,0.181,0.441,0.271,0.73,0.271
				c0.348,0,0.639-0.127,0.871-0.382c0.231-0.254,0.348-0.592,0.348-1.013c0-0.399-0.111-0.715-0.332-0.946
				c-0.222-0.231-0.519-0.347-0.891-0.347c-0.232,0-0.438,0.051-0.617,0.152s-0.322,0.233-0.426,0.395l-0.656-0.094l0.563-2.938
				h2.844v0.672H50.96l-0.313,1.549C50.992,8.82,51.352,8.7,51.73,8.7c0.5,0,0.922,0.173,1.266,0.519s0.516,0.791,0.516,1.334
				c0,0.518-0.151,0.965-0.453,1.343c-0.367,0.463-0.869,0.694-1.504,0.694c-0.521,0-0.946-0.146-1.275-0.437
				C49.949,11.863,49.761,11.477,49.714,10.997z"/>
		</g>
		<g i:knockout="Off">
			<path i:knockout="Off" d="M64.554,8.168l-0.703,0.063c-0.063-0.277-0.152-0.479-0.268-0.604
				c-0.191-0.201-0.428-0.302-0.708-0.302c-0.226,0-0.426,0.063-0.602,0.187c-0.218,0.161-0.391,0.396-0.52,0.705
				c-0.128,0.309-0.195,0.75-0.2,1.323c0.17-0.258,0.378-0.449,0.623-0.574c0.246-0.125,0.504-0.188,0.773-0.188
				c0.47,0,0.871,0.173,1.201,0.518c0.33,0.345,0.496,0.791,0.496,1.338c0,0.359-0.078,0.693-0.233,1.002s-0.369,0.545-0.642,0.709
				c-0.271,0.164-0.58,0.246-0.926,0.246c-0.588,0-1.068-0.215-1.439-0.646c-0.371-0.431-0.557-1.14-0.557-2.129
				c0-1.106,0.205-1.91,0.617-2.413c0.359-0.437,0.843-0.656,1.451-0.656c0.453,0,0.824,0.126,1.113,0.378
				C64.323,7.376,64.497,7.724,64.554,8.168z M61.664,10.639c0,0.242,0.052,0.474,0.155,0.694c0.104,0.221,0.247,0.39,0.43,0.505
				c0.183,0.116,0.38,0.174,0.589,0.174c0.304,0,0.562-0.12,0.773-0.359s0.318-0.564,0.318-0.975c0-0.395-0.104-0.707-0.314-0.934
				c-0.209-0.228-0.478-0.341-0.805-0.341c-0.319,0-0.59,0.114-0.813,0.341S61.664,10.27,61.664,10.639z"/>
		</g>
		<g i:knockout="Off">
			<path i:knockout="Off" d="M72.261,7.512V6.84h3.703v0.544c-0.365,0.388-0.728,0.904-1.086,1.548
				c-0.359,0.645-0.636,1.307-0.832,1.988c-0.141,0.48-0.23,1.005-0.27,1.577h-0.719c0.008-0.451,0.096-0.996,0.266-1.635
				c0.168-0.639,0.41-1.255,0.727-1.849c0.315-0.593,0.651-1.093,1.008-1.5H72.261z"/>
		</g>
		<path i:knockout="Off" fill="none" stroke="#000000" stroke-width="0.7" d="M68.625,15.213v6.992"/>
		<path i:knockout="Off" fill="none" stroke="#000000" stroke-width="0.7" d="M57.287,15.213v6.992"/>
		<path i:knockout="Off" fill="none" stroke="#000000" stroke-width="0.7" d="M45.947,15.213v6.992"/>
		<path i:knockout="Off" fill="none" stroke="#000000" stroke-width="0.7" d="M34.608,15.213v6.992"/>
		<path i:knockout="Off" fill="none" stroke="#000000" stroke-width="0.7" d="M23.27,15.213v6.992"/>
		<path i:knockout="Off" fill="none" stroke="#000000" stroke-width="0.7" d="M11.931,15.213v6.992"/>
	</g>
</svg>
