<?xml version="1.0" encoding="utf-8"?>
<!-- Generator: Adobe Illustrator 10.0, SVG Export Plug-In . SVG Version: 3.0.0 Build 77)  -->
<!DOCTYPE svg PUBLIC "-//W3C//DTD SVG 1.0//EN"    "http://www.w3.org/TR/2001/REC-SVG-20010904/DTD/svg10.dtd" [
	<!ENTITY ns_flows "http://ns.adobe.com/Flows/1.0/">
	<!ENTITY ns_extend "http://ns.adobe.com/Extensibility/1.0/">
	<!ENTITY ns_ai "http://ns.adobe.com/AdobeIllustrator/10.0/">
	<!ENTITY ns_graphs "http://ns.adobe.com/Graphs/1.0/">
	<!ENTITY ns_vars "http://ns.adobe.com/Variables/1.0/">
	<!ENTITY ns_imrep "http://ns.adobe.com/ImageReplacement/1.0/">
	<!ENTITY ns_sfw "http://ns.adobe.com/SaveForWeb/1.0/">
	<!ENTITY ns_custom "http://ns.adobe.com/GenericCustomNamespace/1.0/">
	<!ENTITY ns_adobe_xpath "http://ns.adobe.com/XPath/1.0/">
	<!ENTITY ns_svg "http://www.w3.org/2000/svg">
	<!ENTITY ns_xlink "http://www.w3.org/1999/xlink">
]>
<svg xmlns:x="&ns_extend;" xmlns:i="&ns_ai;" xmlns:graph="&ns_graphs;" i:viewOrigin="73.0308 774.7183" i:rulerOrigin="0 0" i:pageBounds="0 842 595 0" xmlns="&ns_svg;" xmlns:xlink="&ns_xlink;" xmlns:a="http://ns.adobe.com/AdobeSVGViewerExtensions/3.0/" width="76.741" height="13.285" viewBox="0 0 76.741 13.285" overflow="visible" enable-background="new 0 0 76.741 13.285" xml:space="preserve" id="svgObj" onload="parent.svgLoad('Top', document)">
	<metadata>
		<variableSets xmlns="&ns_vars;">
			<variableSet varSetName="binding1" locked="none">
				<variables></variables>
				<v:sampleDataSets xmlns="&ns_custom;" xmlns:v="&ns_vars;"></v:sampleDataSets>
			</variableSet>
		</variableSets>
		<sfw xmlns="&ns_sfw;">
			<slices></slices>
			<sliceSourceBounds y="761.433" x="73.031" width="76.741" height="13.285" bottomLeftOrigin="true"></sliceSourceBounds>
		</sfw>
	</metadata>
	<g id="レイヤー_1" i:layer="yes" i:dimmedPercent="100" i:rgbTrio="#4F008000FFFF">
		<g i:knockout="Off">
			<path i:knockout="Off" d="M18.568,9.157v0.672h-3.797c-0.005-0.169,0.022-0.332,0.083-0.488c0.097-0.258,0.252-0.511,0.467-0.76
				c0.214-0.249,0.521-0.537,0.92-0.864c0.62-0.516,1.04-0.923,1.261-1.221s0.332-0.58,0.332-0.849c0-0.278-0.1-0.513-0.299-0.704
				s-0.46-0.287-0.781-0.287c-0.339,0-0.61,0.104-0.814,0.311s-0.307,0.494-0.309,0.861l-0.719-0.094
				c0.049-0.539,0.235-0.95,0.558-1.232c0.323-0.282,0.756-0.424,1.3-0.424c0.549,0,0.983,0.152,1.303,0.457s0.48,0.683,0.48,1.133
				c0,0.229-0.047,0.455-0.14,0.676c-0.094,0.221-0.248,0.454-0.465,0.699c-0.216,0.245-0.576,0.581-1.081,1.009
				c-0.423,0.355-0.695,0.596-0.815,0.722c-0.12,0.126-0.219,0.253-0.297,0.381H18.568z"/>
		</g>
		<g i:knockout="Off">
			<path i:knockout="Off" d="M6.548,9.829H5.845v-4.48C5.676,5.51,5.454,5.671,5.179,5.833c-0.275,0.162-0.521,0.283-0.74,0.363
				v-0.68C4.832,5.332,5.176,5.107,5.47,4.844c0.294-0.263,0.502-0.518,0.625-0.766h0.453V9.829z"/>
		</g>
		<g i:knockout="Off">
			<path i:knockout="Off" d="M38.897,9.829V8.454h-2.484V7.813l2.625-3.719H39.6v3.719h0.781v0.641H39.6v1.375H38.897z
				 M38.897,7.813V5.247l-1.792,2.566H38.897z"/>
		</g>
		<g i:knockout="Off">
			<path i:knockout="Off" d="M26.253,8.329l0.719-0.094c0.08,0.393,0.215,0.676,0.405,0.85c0.19,0.173,0.425,0.26,0.707,0.26
				c0.333,0,0.611-0.115,0.835-0.344c0.223-0.229,0.335-0.514,0.335-0.853c0-0.323-0.104-0.59-0.313-0.8
				c-0.209-0.21-0.476-0.315-0.798-0.315c-0.132,0-0.296,0.026-0.492,0.078l0.078-0.625c0.046,0.005,0.083,0.008,0.112,0.008
				c0.294,0,0.56-0.077,0.795-0.232c0.235-0.155,0.354-0.394,0.354-0.717c0-0.255-0.086-0.467-0.259-0.635s-0.396-0.252-0.669-0.252
				c-0.271,0-0.497,0.086-0.677,0.258c-0.181,0.172-0.296,0.43-0.348,0.773l-0.719-0.125c0.086-0.471,0.28-0.836,0.584-1.096
				c0.304-0.259,0.682-0.389,1.134-0.389c0.312,0,0.599,0.067,0.861,0.2c0.262,0.134,0.463,0.315,0.602,0.546
				c0.139,0.231,0.208,0.476,0.208,0.735c0,0.246-0.066,0.47-0.199,0.672s-0.33,0.363-0.59,0.482
				c0.338,0.078,0.604,0.241,0.797,0.487c0.192,0.246,0.289,0.555,0.289,0.925c0,0.501-0.183,0.926-0.547,1.273
				c-0.365,0.349-0.826,0.522-1.383,0.522c-0.503,0-0.92-0.147-1.252-0.443S26.3,8.799,26.253,8.329z"/>
		</g>
		<g i:knockout="Off">
			<path i:knockout="Off" d="M61.808,5.5l-0.703,0.063c-0.063-0.277-0.152-0.479-0.268-0.604c-0.191-0.201-0.427-0.302-0.708-0.302
				c-0.226,0-0.426,0.063-0.602,0.187c-0.218,0.161-0.391,0.396-0.52,0.705c-0.128,0.309-0.195,0.75-0.2,1.323
				c0.17-0.258,0.378-0.449,0.623-0.574c0.246-0.125,0.503-0.188,0.773-0.188c0.47,0,0.871,0.173,1.202,0.518
				c0.331,0.345,0.496,0.791,0.496,1.338c0,0.359-0.078,0.693-0.233,1.002c-0.156,0.309-0.369,0.545-0.642,0.709
				c-0.271,0.164-0.58,0.246-0.925,0.246c-0.588,0-1.068-0.215-1.44-0.646c-0.371-0.431-0.557-1.14-0.557-2.129
				c0-1.106,0.206-1.91,0.617-2.413c0.359-0.437,0.843-0.656,1.451-0.656c0.453,0,0.825,0.126,1.114,0.378S61.75,5.056,61.808,5.5z
				 M58.917,7.971c0,0.242,0.052,0.474,0.155,0.694c0.104,0.221,0.247,0.39,0.43,0.505c0.183,0.116,0.38,0.174,0.589,0.174
				c0.304,0,0.562-0.12,0.773-0.359s0.318-0.564,0.318-0.975c0-0.395-0.104-0.707-0.314-0.934c-0.209-0.228-0.478-0.341-0.805-0.341
				c-0.319,0-0.59,0.114-0.813,0.341C59.029,7.304,58.917,7.602,58.917,7.971z"/>
		</g>
		<g i:knockout="Off">
			<path i:knockout="Off" d="M47.441,8.329l0.719-0.063c0.055,0.358,0.181,0.627,0.379,0.808c0.198,0.181,0.441,0.271,0.729,0.271
				c0.349,0,0.639-0.127,0.871-0.382c0.232-0.254,0.348-0.592,0.348-1.013c0-0.399-0.111-0.715-0.332-0.946
				c-0.221-0.231-0.518-0.347-0.891-0.347c-0.232,0-0.438,0.051-0.617,0.152s-0.322,0.233-0.426,0.395L47.566,7.11l0.563-2.938
				h2.844v0.672h-2.285l-0.313,1.549c0.344-0.241,0.705-0.361,1.082-0.361c0.5,0,0.922,0.173,1.266,0.519s0.516,0.791,0.516,1.334
				c0,0.518-0.151,0.965-0.453,1.343c-0.367,0.463-0.869,0.694-1.504,0.694c-0.521,0-0.946-0.146-1.275-0.437
				S47.488,8.809,47.441,8.329z"/>
		</g>
		<g i:knockout="Off">
			<path i:knockout="Off" d="M69.263,4.844V4.172h3.703v0.544c-0.365,0.388-0.728,0.904-1.086,1.548
				c-0.359,0.645-0.636,1.307-0.832,1.988c-0.141,0.48-0.231,1.005-0.27,1.577H70.06c0.008-0.451,0.096-0.996,0.265-1.635
				s0.411-1.255,0.727-1.849c0.315-0.593,0.651-1.093,1.008-1.5H69.263z"/>
		</g>
		<path i:knockout="Off" fill="none" stroke="#000000" stroke-width="1.1339" stroke-linecap="round" d="M0.567,2.727v9.991"/>
		<path i:knockout="Off" fill="none" stroke="#000000" stroke-width="0.7087" stroke-linecap="round" d="M76.174,2.727v9.991"/>
		<path i:knockout="Off" fill="none" stroke="#000000" stroke-width="0.7087" stroke-linecap="round" d="M22.169,2.727v9.991"/>
		<path i:knockout="Off" fill="none" stroke="#000000" stroke-width="0.7087" stroke-linecap="round" d="M43.771,2.727v9.991"/>
		<path i:knockout="Off" fill="none" stroke="#000000" stroke-width="0.7087" stroke-linecap="round" d="M54.572,2.727v9.991"/>
		<path i:knockout="Off" fill="none" stroke="#000000" stroke-width="0.7087" stroke-linecap="round" d="M65.374,2.727v9.991"/>
		<path i:knockout="Off" fill="none" stroke="#000000" stroke-width="1.1339" stroke-linecap="round" d="M39.991,0.567v2.16"/>
		<path i:knockout="Off" fill="none" stroke="#000000" stroke-width="1.1339" stroke-linecap="round" d="M36.75,0.567h3.241"/>
		<path i:knockout="Off" fill="none" stroke="#000000" stroke-width="1.1339" stroke-linecap="round" d="M36.75,0.567v2.16"/>
		<path i:knockout="Off" fill="none" stroke="#000000" stroke-width="1.1339" stroke-linecap="round" d="M0.567,2.727H32.97"/>
		<path i:knockout="Off" fill="none" stroke="#000000" stroke-width="0.7087" stroke-linecap="round" d="M32.97,2.727v9.991"/>
		<path i:knockout="Off" fill="none" stroke="#000000" stroke-width="1.1339" stroke-linecap="round" d="M0.567,2.727h75.607"/>
		<path i:knockout="Off" fill="none" stroke="#000000" stroke-width="0.7087" stroke-linecap="round" d="M11.368,2.727v9.991"/>
		<path i:knockout="Off" fill="none" stroke="#000000" stroke-width="1.1339" stroke-linecap="round" d="M0.567,12.718H32.97"/>
		<path i:knockout="Off" fill="none" stroke="#000000" stroke-width="1.1339" stroke-linecap="round" d="M61.998,2.727h14.176"/>
		<path i:knockout="Off" fill="none" stroke="#000000" stroke-width="0.7087" stroke-linecap="round" d="M0.567,11.368h75.607"/>
		<path i:knockout="Off" fill="none" stroke="#000000" stroke-width="1.1339" stroke-linecap="round" d="M32.97,12.718h10.801"/>
		<path i:knockout="Off" fill="none" stroke="#000000" stroke-width="1.1339" stroke-linecap="round" d="M43.771,12.718h32.403"/>
	</g>
</svg>
