<?xml version="1.0" encoding="utf-8"?>
<!-- Generator: Adobe Illustrator 10.0, SVG Export Plug-In . SVG Version: 3.0.0 Build 77)  -->
<!DOCTYPE svg PUBLIC "-//W3C//DTD SVG 1.0//EN"    "http://www.w3.org/TR/2001/REC-SVG-20010904/DTD/svg10.dtd" [
	<!ENTITY ns_flows "http://ns.adobe.com/Flows/1.0/">
	<!ENTITY ns_extend "http://ns.adobe.com/Extensibility/1.0/">
	<!ENTITY ns_ai "http://ns.adobe.com/AdobeIllustrator/10.0/">
	<!ENTITY ns_graphs "http://ns.adobe.com/Graphs/1.0/">
	<!ENTITY ns_vars "http://ns.adobe.com/Variables/1.0/">
	<!ENTITY ns_imrep "http://ns.adobe.com/ImageReplacement/1.0/">
	<!ENTITY ns_sfw "http://ns.adobe.com/SaveForWeb/1.0/">
	<!ENTITY ns_custom "http://ns.adobe.com/GenericCustomNamespace/1.0/">
	<!ENTITY ns_adobe_xpath "http://ns.adobe.com/XPath/1.0/">
	<!ENTITY ns_svg "http://www.w3.org/2000/svg">
	<!ENTITY ns_xlink "http://www.w3.org/1999/xlink">
]>
<svg xmlns:x="&ns_extend;" xmlns:i="&ns_ai;" xmlns:graph="&ns_graphs;" i:viewOrigin="288.2236 476.9604" i:rulerOrigin="0 0" i:pageBounds="0 841.8896 595.2754 0" xmlns="&ns_svg;" xmlns:xlink="&ns_xlink;" xmlns:a="http://ns.adobe.com/AdobeSVGViewerExtensions/3.0/" width="28.935" height="33.231" viewBox="0 0 28.935 33.231" overflow="visible" enable-background="new 0 0 28.935 33.231" xml:space="preserve" id="svgObj" onload="parent.svgLoad('Top', document)">
	<metadata>
		<variableSets xmlns="&ns_vars;">
			<variableSet varSetName="binding1" locked="none">
				<variables></variables>
				<v:sampleDataSets xmlns="&ns_custom;" xmlns:v="&ns_vars;"></v:sampleDataSets>
			</variableSet>
		</variableSets>
		<sfw xmlns="&ns_sfw;">
			<slices></slices>
			<sliceSourceBounds y="426.027" x="262.5" width="80.37" height="63.362" bottomLeftOrigin="true"></sliceSourceBounds>
		</sfw>
	</metadata>
	<g id="illust" i:layer="yes" i:dimmedPercent="3" i:rgbTrio="#4F008000FFFF">
		<g>
			<path i:knockout="Off" fill="none" stroke="#000000" stroke-width="1.2" stroke-linecap="round" d="M16.633,6.209V3.375h-4.251
				v2.834H16.633z"/>
			<path i:knockout="Off" fill="none" stroke="#000000" stroke-width="1.2" stroke-linecap="round" d="M25.81,6.209L25.804,0.6
				h-2.143l0.005,5.609H25.81z"/>
			<path i:knockout="Off" fill="none" stroke="#000000" stroke-width="1.2" stroke-linecap="round" d="M28.335,20.931v-3.354h-2.536
				v3.354H28.335z"/>
			<path i:knockout="Off" fill="none" stroke="#000000" stroke-width="1.2" stroke-linecap="round" d="M5.264,6.209L5.259,0.6H3.116
				l0.005,5.609H5.264z"/>
			<path i:knockout="Off" fill="none" stroke="#000000" stroke-width="1.2" stroke-linecap="round" d="M3.122,21.076v-3.335H0.6
				v3.335H3.122z"/>
			<path i:knockout="Off" fill="none" stroke="#000000" stroke-width="0.7" stroke-linecap="round" d="M14.462,17.548V6.209H3.122
				v11.339H14.462z"/>
			<path i:knockout="Off" fill="none" stroke="#000000" stroke-width="0.7" stroke-linecap="round" d="M25.799,17.548V6.209H14.462
				v11.339H25.799z"/>
			<g i:knockout="Off">
				<path i:knockout="Off" d="M9.637,14.378H8.934v-4.48c-0.169,0.162-0.391,0.323-0.666,0.484c-0.275,0.162-0.521,0.283-0.74,0.363
					v-0.68c0.393-0.185,0.737-0.409,1.031-0.672c0.294-0.263,0.502-0.518,0.625-0.766h0.453V14.378z"/>
			</g>
			<g i:knockout="Off">
				<path i:knockout="Off" d="M21.843,13.707v0.672h-3.797c-0.006-0.169,0.022-0.332,0.083-0.488
					c0.097-0.258,0.253-0.511,0.467-0.76c0.214-0.249,0.521-0.537,0.92-0.864c0.62-0.516,1.04-0.923,1.261-1.221
					c0.222-0.298,0.332-0.58,0.332-0.849c0-0.278-0.1-0.513-0.299-0.704c-0.2-0.191-0.461-0.287-0.781-0.287
					c-0.34,0-0.61,0.104-0.814,0.311c-0.203,0.208-0.307,0.494-0.309,0.861l-0.719-0.094c0.049-0.539,0.235-0.95,0.558-1.232
					c0.323-0.282,0.756-0.424,1.3-0.424c0.549,0,0.983,0.152,1.303,0.457c0.32,0.305,0.48,0.683,0.48,1.133
					c0,0.229-0.047,0.455-0.14,0.676c-0.094,0.221-0.248,0.454-0.465,0.699c-0.216,0.245-0.576,0.581-1.081,1.009
					c-0.423,0.355-0.694,0.596-0.814,0.722c-0.119,0.126-0.219,0.253-0.297,0.381H21.843z"/>
			</g>
			<path i:knockout="Off" fill="none" stroke="#000000" stroke-width="0.7" stroke-linecap="round" d="M14.462,17.548v2.435"/>
			<path i:knockout="Off" fill="none" stroke="#000000" stroke-width="1.2" stroke-linecap="round" d="M25.799,32.631V6.209H3.122
				v26.422H25.799z"/>
			<path i:knockout="Off" fill="none" stroke="#000000" stroke-width="0.7" stroke-linecap="round" d="M14.462,30.591V19.252H3.122
				v11.339H14.462z"/>
			<path i:knockout="Off" fill="none" stroke="#000000" stroke-width="0.7" stroke-linecap="round" d="M25.799,30.591V19.252H14.462
				v11.339H25.799z"/>
			<g i:knockout="Off">
				<path i:knockout="Off" d="M6.997,26.878l0.719-0.094c0.08,0.393,0.215,0.676,0.405,0.85c0.189,0.173,0.425,0.26,0.707,0.26
					c0.333,0,0.611-0.115,0.834-0.344s0.335-0.514,0.335-0.853c0-0.323-0.105-0.59-0.314-0.8s-0.475-0.315-0.798-0.315
					c-0.132,0-0.295,0.026-0.492,0.078l0.078-0.625c0.046,0.005,0.083,0.008,0.112,0.008c0.294,0,0.559-0.077,0.795-0.232
					c0.236-0.155,0.354-0.394,0.354-0.717c0-0.255-0.086-0.467-0.259-0.635s-0.396-0.252-0.669-0.252
					c-0.271,0-0.496,0.086-0.677,0.258s-0.297,0.43-0.348,0.773l-0.719-0.125c0.085-0.471,0.281-0.836,0.584-1.096
					c0.304-0.259,0.682-0.389,1.134-0.389c0.312,0,0.599,0.067,0.861,0.2c0.263,0.134,0.463,0.315,0.603,0.546
					c0.139,0.231,0.208,0.476,0.208,0.735c0,0.246-0.066,0.47-0.199,0.672s-0.33,0.363-0.59,0.482
					c0.338,0.078,0.604,0.241,0.797,0.487c0.193,0.246,0.289,0.555,0.289,0.925c0,0.501-0.182,0.926-0.547,1.273
					c-0.365,0.349-0.826,0.522-1.383,0.522c-0.502,0-0.92-0.147-1.252-0.443S7.043,27.349,6.997,26.878z"/>
			</g>
			<g i:knockout="Off">
				<path i:knockout="Off" d="M20.397,28.378v-1.375h-2.484v-0.641l2.625-3.719h0.563v3.719h0.781v0.641h-0.781v1.375H20.397z
					 M20.397,26.363v-2.566l-1.793,2.566H20.397z"/>
			</g>
			<path i:knockout="Off" fill="none" stroke="#000000" stroke-width="0.7" stroke-linecap="round" d="M14.462,30.197v2.435"/>
		</g>
	</g>
</svg>
