<?xml version="1.0" encoding="utf-8"?>
<!-- Generator: Adobe Illustrator 10.0, SVG Export Plug-In . SVG Version: 3.0.0 Build 77)  -->
<!DOCTYPE svg PUBLIC "-//W3C//DTD SVG 1.0//EN"    "http://www.w3.org/TR/2001/REC-SVG-20010904/DTD/svg10.dtd" [
	<!ENTITY ns_flows "http://ns.adobe.com/Flows/1.0/">
	<!ENTITY ns_extend "http://ns.adobe.com/Extensibility/1.0/">
	<!ENTITY ns_ai "http://ns.adobe.com/AdobeIllustrator/10.0/">
	<!ENTITY ns_graphs "http://ns.adobe.com/Graphs/1.0/">
	<!ENTITY ns_vars "http://ns.adobe.com/Variables/1.0/">
	<!ENTITY ns_imrep "http://ns.adobe.com/ImageReplacement/1.0/">
	<!ENTITY ns_sfw "http://ns.adobe.com/SaveForWeb/1.0/">
	<!ENTITY ns_custom "http://ns.adobe.com/GenericCustomNamespace/1.0/">
	<!ENTITY ns_adobe_xpath "http://ns.adobe.com/XPath/1.0/">
	<!ENTITY ns_svg "http://www.w3.org/2000/svg">
	<!ENTITY ns_xlink "http://www.w3.org/1999/xlink">
]>
<svg xmlns:x="&ns_extend;" xmlns:i="&ns_ai;" xmlns:graph="&ns_graphs;" i:viewOrigin="58.0981 804.2461" i:rulerOrigin="-0.5 -0.5" i:pageBounds="0.5 842.5 595.5 0.5" xmlns="&ns_svg;" xmlns:xlink="&ns_xlink;" xmlns:a="http://ns.adobe.com/AdobeSVGViewerExtensions/3.0/" width="28.335" height="20.622" viewBox="0 0 28.335 20.622" overflow="visible" enable-background="new 0 0 28.335 20.622" xml:space="preserve" id="svgObj" onload="parent.svgLoad('Top', document)">
	<metadata>
		<variableSets xmlns="&ns_vars;">
			<variableSet varSetName="binding1" locked="none">
				<variables></variables>
				<v:sampleDataSets xmlns="&ns_custom;" xmlns:v="&ns_vars;"></v:sampleDataSets>
			</variableSet>
		</variableSets>
		<sfw xmlns="&ns_sfw;">
			<slices></slices>
			<sliceSourceBounds y="783.624" x="58.098" width="28.335" height="20.622" bottomLeftOrigin="true"></sliceSourceBounds>
		</sfw>
	</metadata>
	<g id="L-1" i:layer="yes" i:dimmedPercent="100" i:rgbTrio="#4F008000FFFF">
		<g>
			<path i:knockout="Off" fill="none" stroke="#000000" stroke-width="1.1339" stroke-linecap="round" d="M8.493,16.441h11.338"/>
			<path i:knockout="Off" fill="none" stroke="#000000" stroke-width="1.1339" stroke-linecap="round" d="M8.493,0.567h11.338"/>
			<path i:knockout="Off" fill="none" stroke="#000000" stroke-width="0.7087" stroke-linecap="round" d="M14.162,4.677v7.725"/>
			<path i:knockout="Off" fill="none" stroke="#000000" stroke-width="1.1339" stroke-linecap="round" d="M8.493,20.055h11.338"/>
			<path i:knockout="Off" fill="none" stroke="#000000" stroke-width="1.1339" stroke-linecap="round" d="M8.493,16.441v3.614"/>
			<path i:knockout="Off" fill="none" stroke="#000000" stroke-width="1.1339" stroke-linecap="round" d="M19.831,16.441v3.614"/>
			<path i:knockout="Off" fill="none" stroke="#000000" stroke-width="0.7087" stroke-linecap="round" d="M11.894,0.567v3.402"/>
			<path i:knockout="Off" fill="none" stroke="#000000" stroke-width="0.7087" stroke-linecap="round" d="M16.43,0.567v3.402"/>
			<path i:knockout="Off" fill="none" stroke="#000000" stroke-width="0.7087" stroke-linecap="round" d="M25.5,8.504
				c-0.039-3.106-2.569-5.598-5.669-5.599c-1.194,0-2.302,0.369-3.196,0.987"/>
			<path i:knockout="Off" fill="none" stroke="#000000" stroke-width="0.7087" stroke-linecap="round" d="M11.681,3.897
				c-0.98-0.679-2.102-1.001-3.188-0.996c-3.094,0-5.603,2.509-5.603,5.603c0,3.094,2.509,5.602,5.603,5.602
				c1.203,0,2.317-0.379,3.213-1.013"/>
			<path i:knockout="Off" fill="none" stroke="#000000" stroke-width="1.1339" stroke-linecap="round" d="M27.768,8.504
				c0-4.384-3.554-7.938-7.937-7.938"/>
			<path i:knockout="Off" fill="none" stroke="#000000" stroke-width="1.1339" stroke-linecap="round" d="M19.831,16.441
				c4.383,0,7.937-3.554,7.937-7.937"/>
			<path i:knockout="Off" fill="none" stroke="#000000" stroke-width="1.1339" stroke-linecap="round" d="M8.493,0.567
				c-4.383,0-7.937,3.554-7.937,7.938c0,4.383,3.554,7.937,7.937,7.937"/>
			<path i:knockout="Off" fill="none" stroke="#000000" stroke-width="0.7087" stroke-linecap="round" d="M16.571,13.181
				c-1.493-0.995-3.376-0.944-4.813-0.004"/>
			<path i:knockout="Off" fill="none" stroke="#000000" stroke-width="0.7087" stroke-linecap="round" d="M11.681,3.897
				c1.506,1.099,3.497,1.051,4.958,0.003"/>
			<path i:knockout="Off" fill="none" stroke="#000000" stroke-width="0.7087" stroke-linecap="round" d="M16.571,13.181
				c1.018,0.725,2.19,1.07,3.331,1.065c3.165,0,5.732-2.561,5.742-5.725"/>
		</g>
		<g i:knockout="Off">
			<path i:knockout="Off" d="M20.851,11.414h-0.703v-4.48c-0.169,0.162-0.392,0.323-0.666,0.484
				c-0.275,0.162-0.521,0.283-0.74,0.363v-0.68c0.393-0.185,0.737-0.409,1.031-0.672c0.294-0.263,0.502-0.518,0.625-0.766h0.453
				V11.414z"/>
		</g>
		<g i:knockout="Off">
			<path i:knockout="Off" d="M10.066,10.742v0.672H6.269c-0.005-0.169,0.022-0.332,0.083-0.488c0.097-0.258,0.252-0.511,0.467-0.76
				c0.214-0.249,0.521-0.537,0.92-0.864C8.359,8.786,8.779,8.379,9,8.081s0.332-0.58,0.332-0.849c0-0.278-0.1-0.513-0.299-0.704
				s-0.46-0.287-0.781-0.287c-0.339,0-0.61,0.104-0.814,0.311S7.131,7.047,7.128,7.414L6.41,7.32
				c0.049-0.539,0.235-0.95,0.558-1.232c0.323-0.282,0.756-0.424,1.3-0.424c0.549,0,0.983,0.152,1.303,0.457s0.48,0.683,0.48,1.133
				c0,0.229-0.047,0.455-0.14,0.676C9.817,8.152,9.663,8.385,9.446,8.63C9.23,8.875,8.87,9.211,8.365,9.639
				C7.942,9.994,7.67,10.234,7.55,10.361c-0.12,0.126-0.219,0.253-0.297,0.381H10.066z"/>
		</g>
	</g>
</svg>
