<?xml version="1.0" encoding="utf-8"?>
<!-- Generator: Adobe Illustrator 10.0, SVG Export Plug-In . SVG Version: 3.0.0 Build 77)  -->
<!DOCTYPE svg PUBLIC "-//W3C//DTD SVG 1.0//EN"    "http://www.w3.org/TR/2001/REC-SVG-20010904/DTD/svg10.dtd" [
	<!ENTITY ns_flows "http://ns.adobe.com/Flows/1.0/">
	<!ENTITY ns_extend "http://ns.adobe.com/Extensibility/1.0/">
	<!ENTITY ns_ai "http://ns.adobe.com/AdobeIllustrator/10.0/">
	<!ENTITY ns_graphs "http://ns.adobe.com/Graphs/1.0/">
	<!ENTITY ns_vars "http://ns.adobe.com/Variables/1.0/">
	<!ENTITY ns_imrep "http://ns.adobe.com/ImageReplacement/1.0/">
	<!ENTITY ns_sfw "http://ns.adobe.com/SaveForWeb/1.0/">
	<!ENTITY ns_custom "http://ns.adobe.com/GenericCustomNamespace/1.0/">
	<!ENTITY ns_adobe_xpath "http://ns.adobe.com/XPath/1.0/">
	<!ENTITY ns_svg "http://www.w3.org/2000/svg">
	<!ENTITY ns_xlink "http://www.w3.org/1999/xlink">
]>
<svg xmlns:x="&ns_extend;" xmlns:i="&ns_ai;" xmlns:graph="&ns_graphs;" i:viewOrigin="261.3213 447.4355" i:rulerOrigin="-1 0.1104" i:pageBounds="1 841.8896 596 -0.1104" xmlns="&ns_svg;" xmlns:xlink="&ns_xlink;" xmlns:a="http://ns.adobe.com/AdobeSVGViewerExtensions/3.0/" width="73.95" height="112.071" viewBox="0 0 73.95 112.071" overflow="visible" enable-background="new 0 0 73.95 112.071" xml:space="preserve" id="svgObj" onload="parent.svgLoad('Top', document)">
	<metadata>
		<variableSets xmlns="&ns_vars;">
			<variableSet varSetName="binding1" locked="none">
				<variables></variables>
				<v:sampleDataSets xmlns="&ns_custom;" xmlns:v="&ns_vars;"></v:sampleDataSets>
			</variableSet>
		</variableSets>
		<sfw xmlns="&ns_sfw;">
			<slices></slices>
			<sliceSourceBounds y="326.345" x="257.814" width="80.371" height="125.726" bottomLeftOrigin="true"></sliceSourceBounds>
		</sfw>
	</metadata>
	<g id="connector" i:layer="yes" i:dimmedPercent="50" i:rgbTrio="#FFFF4F00FFFF">
		<g i:knockout="Off">
			<path i:knockout="Off" d="M3.125,0.047h1.453v4.542c0,0.594-0.052,1.051-0.156,1.371c-0.14,0.417-0.394,0.753-0.761,1.006
				C3.293,7.217,2.808,7.344,2.206,7.344c-0.706,0-1.25-0.2-1.63-0.6C0.195,6.344,0.003,5.758,0,4.984l1.375-0.141
				C1.391,5.258,1.45,5.55,1.553,5.72C1.707,5.979,1.94,6.109,2.255,6.109c0.317,0,0.542-0.092,0.673-0.276s0.197-0.567,0.197-1.148
				V0.047z"/>
			<path i:knockout="Off" d="M10.452,5.922v1.281H5.64c0.052-0.482,0.208-0.94,0.469-1.372C6.37,5.398,6.885,4.825,7.654,4.11
				c0.619-0.577,0.999-0.969,1.139-1.174c0.189-0.284,0.284-0.564,0.284-0.842c0-0.307-0.083-0.542-0.249-0.707
				C8.662,1.223,8.433,1.141,8.141,1.141c-0.289,0-0.519,0.087-0.69,0.261C7.28,1.575,7.182,1.863,7.155,2.266L5.78,2.128
				C5.862,1.37,6.119,0.825,6.551,0.495S7.522,0,8.17,0c0.71,0,1.268,0.191,1.673,0.572s0.608,0.855,0.608,1.423
				c0,0.323-0.058,0.63-0.173,0.922s-0.299,0.598-0.55,0.917C9.563,4.046,9.262,4.351,8.826,4.748
				C8.39,5.146,8.114,5.41,7.998,5.541S7.789,5.798,7.717,5.922H10.452z"/>
			<path i:knockout="Off" d="M14.889,7.203h-1.375V2.019c-0.5,0.471-1.088,0.818-1.766,1.044v-1.25
				c0.357-0.117,0.746-0.339,1.166-0.667C13.333,0.818,13.621,0.437,13.777,0h1.112V7.203z"/>
			<path i:knockout="Off" d="M18.123,3.339c-0.355-0.15-0.613-0.357-0.774-0.62c-0.161-0.264-0.242-0.552-0.242-0.865
				c0-0.536,0.185-0.979,0.555-1.329S18.558,0,19.24,0c0.675,0,1.2,0.175,1.573,0.524c0.373,0.35,0.56,0.793,0.56,1.329
				c0,0.333-0.086,0.63-0.258,0.89c-0.172,0.26-0.414,0.458-0.726,0.596c0.398,0.16,0.701,0.394,0.908,0.701
				c0.207,0.307,0.311,0.662,0.311,1.063c0,0.664-0.21,1.203-0.63,1.618s-0.978,0.623-1.675,0.623c-0.648,0-1.188-0.171-1.619-0.515
				c-0.509-0.405-0.764-0.961-0.764-1.667c0-0.389,0.097-0.746,0.29-1.071C17.402,3.766,17.707,3.515,18.123,3.339z M18.279,5.034
				c0,0.382,0.096,0.681,0.287,0.895c0.191,0.214,0.429,0.321,0.715,0.321c0.279,0,0.51-0.103,0.693-0.309s0.274-0.504,0.274-0.893
				c0-0.339-0.093-0.612-0.279-0.818s-0.422-0.309-0.708-0.309c-0.331,0-0.577,0.117-0.739,0.351S18.279,4.761,18.279,5.034z
				 M18.404,1.954c0,0.275,0.076,0.49,0.227,0.644s0.353,0.231,0.604,0.231c0.255,0,0.459-0.078,0.612-0.233
				C20,2.439,20.076,2.224,20.076,1.949c0-0.259-0.076-0.466-0.227-0.622c-0.151-0.155-0.351-0.233-0.599-0.233
				c-0.258,0-0.463,0.079-0.616,0.236S18.404,1.695,18.404,1.954z"/>
		</g>
		<g i:knockout="Off">
			<path i:knockout="Off" d="M0.594,69.566v-7.094h1.453v5.875h3.594v1.219H0.594z"/>
			<path i:knockout="Off" d="M6.312,67.681L7.64,67.52c0.042,0.339,0.156,0.599,0.341,0.778c0.186,0.179,0.409,0.269,0.672,0.269
				c0.282,0,0.521-0.108,0.713-0.326s0.29-0.511,0.29-0.88c0-0.35-0.092-0.627-0.276-0.831s-0.41-0.307-0.675-0.307
				c-0.175,0-0.384,0.034-0.627,0.103l0.152-1.103c0.372,0.01,0.656-0.071,0.852-0.242c0.196-0.172,0.293-0.399,0.293-0.684
				c0-0.241-0.071-0.434-0.214-0.577s-0.333-0.216-0.571-0.216c-0.234,0-0.434,0.081-0.6,0.243c-0.166,0.162-0.267,0.398-0.303,0.71
				l-1.266-0.214c0.088-0.436,0.221-0.783,0.398-1.043s0.424-0.465,0.742-0.613c0.317-0.149,0.673-0.224,1.066-0.224
				c0.673,0,1.213,0.216,1.62,0.646c0.335,0.353,0.502,0.751,0.502,1.195c0,0.63-0.343,1.133-1.028,1.508
				c0.406,0.089,0.731,0.287,0.976,0.595c0.243,0.308,0.365,0.68,0.365,1.115c0,0.632-0.229,1.171-0.688,1.616
				s-1.029,0.668-1.712,0.668c-0.646,0-1.184-0.187-1.609-0.561C6.627,68.773,6.38,68.284,6.312,67.681z"/>
			<path i:knockout="Off" d="M13.108,65.702c-0.355-0.15-0.613-0.357-0.774-0.62c-0.161-0.264-0.242-0.552-0.242-0.865
				c0-0.536,0.185-0.979,0.555-1.329s0.896-0.524,1.578-0.524c0.675,0,1.2,0.175,1.573,0.524s0.56,0.793,0.56,1.329
				c0,0.333-0.086,0.63-0.258,0.89c-0.172,0.26-0.414,0.458-0.726,0.596c0.398,0.16,0.7,0.394,0.907,0.701
				c0.207,0.307,0.311,0.662,0.311,1.063c0,0.663-0.21,1.202-0.63,1.618c-0.42,0.414-0.979,0.622-1.675,0.622
				c-0.648,0-1.188-0.171-1.619-0.515c-0.509-0.405-0.763-0.961-0.763-1.667c0-0.389,0.096-0.746,0.29-1.071
				C12.387,66.129,12.692,65.878,13.108,65.702z M13.264,67.397c0,0.382,0.095,0.681,0.286,0.895
				c0.191,0.215,0.429,0.321,0.715,0.321c0.279,0,0.51-0.103,0.693-0.309c0.183-0.206,0.274-0.504,0.274-0.893
				c0-0.339-0.093-0.612-0.279-0.817c-0.186-0.207-0.422-0.31-0.708-0.31c-0.331,0-0.577,0.117-0.739,0.351
				C13.345,66.87,13.264,67.124,13.264,67.397z M13.389,64.317c0,0.274,0.075,0.489,0.227,0.643
				c0.151,0.154,0.353,0.231,0.604,0.231c0.255,0,0.458-0.077,0.611-0.233c0.153-0.155,0.229-0.371,0.229-0.646
				c0-0.258-0.076-0.465-0.227-0.621c-0.151-0.155-0.351-0.233-0.6-0.233c-0.258,0-0.463,0.079-0.616,0.235
				C13.465,63.851,13.389,64.058,13.389,64.317z"/>
			<path i:knockout="Off" d="M22.123,68.285v1.281H17.31c0.052-0.482,0.208-0.94,0.469-1.372c0.261-0.433,0.776-1.006,1.545-1.721
				c0.619-0.577,0.999-0.969,1.139-1.174c0.189-0.284,0.284-0.564,0.284-0.842c0-0.307-0.083-0.542-0.249-0.707
				c-0.166-0.164-0.395-0.247-0.687-0.247c-0.289,0-0.519,0.087-0.69,0.261s-0.27,0.461-0.296,0.864l-1.375-0.138
				c0.082-0.758,0.339-1.303,0.771-1.633s0.972-0.495,1.62-0.495c0.71,0,1.268,0.19,1.673,0.572s0.608,0.855,0.608,1.423
				c0,0.322-0.058,0.63-0.173,0.922s-0.299,0.598-0.55,0.917c-0.167,0.212-0.467,0.517-0.903,0.914s-0.712,0.662-0.828,0.792
				c-0.116,0.131-0.209,0.258-0.281,0.382H22.123z"/>
		</g>
	</g>
	<g id="レイヤー_1" i:layer="yes" i:dimmedPercent="100" i:rgbTrio="#4F008000FFFF">
		<path i:knockout="Off" fill="none" stroke="#000000" stroke-width="0.7" stroke-linecap="round" d="M2.948,34.9V22.56h11.34V34.9
			H2.948z"/>
		<g i:knockout="Off">
			<path i:knockout="Off" d="M9.311,30.84H8.607v-4.48c-0.169,0.162-0.392,0.323-0.666,0.484c-0.275,0.162-0.521,0.283-0.74,0.363
				v-0.68c0.393-0.185,0.737-0.409,1.031-0.672c0.294-0.263,0.502-0.518,0.625-0.766h0.453V30.84z"/>
		</g>
		<path i:knockout="Off" fill="none" stroke="#000000" stroke-width="0.7" stroke-linecap="round" d="M14.164,32.813H3.289"/>
		<path i:knockout="Off" fill="none" stroke="#000000" stroke-width="0.7" stroke-linecap="round" d="M14.261,34.9V22.56h11.34V34.9
			H14.261z"/>
		<g i:knockout="Off">
			<path i:knockout="Off" d="M21.662,30.168v0.672h-3.797c-0.005-0.169,0.022-0.332,0.083-0.488c0.097-0.258,0.252-0.511,0.467-0.76
				c0.214-0.249,0.521-0.536,0.92-0.864c0.62-0.516,1.04-0.923,1.261-1.221s0.332-0.58,0.332-0.849c0-0.278-0.1-0.513-0.299-0.704
				s-0.46-0.287-0.781-0.287c-0.339,0-0.61,0.104-0.814,0.311s-0.307,0.494-0.309,0.861l-0.719-0.094
				c0.049-0.539,0.235-0.95,0.558-1.232c0.323-0.282,0.756-0.424,1.3-0.424c0.549,0,0.983,0.152,1.303,0.457s0.48,0.683,0.48,1.133
				c0,0.229-0.047,0.455-0.14,0.676c-0.094,0.221-0.248,0.454-0.465,0.699c-0.216,0.245-0.576,0.581-1.081,1.009
				c-0.423,0.354-0.695,0.596-0.815,0.722c-0.12,0.127-0.219,0.254-0.297,0.382H21.662z"/>
		</g>
		<path i:knockout="Off" fill="none" stroke="#000000" stroke-width="0.7" stroke-linecap="round" d="M25.476,32.813H14.601"/>
		<path i:knockout="Off" fill="none" stroke="#000000" stroke-width="0.7" stroke-linecap="round" d="M25.573,34.9V22.56h11.34V34.9
			H25.573z"/>
		<g i:knockout="Off">
			<path i:knockout="Off" d="M29.295,29.34l0.719-0.094c0.08,0.394,0.215,0.676,0.405,0.85c0.19,0.173,0.425,0.26,0.707,0.26
				c0.333,0,0.611-0.114,0.835-0.345c0.223-0.229,0.335-0.514,0.335-0.853c0-0.323-0.104-0.591-0.313-0.8
				c-0.209-0.211-0.476-0.315-0.798-0.315c-0.132,0-0.296,0.026-0.492,0.078l0.078-0.625c0.046,0.005,0.083,0.008,0.112,0.008
				c0.294,0,0.56-0.077,0.795-0.232c0.235-0.155,0.354-0.394,0.354-0.717c0-0.255-0.086-0.467-0.259-0.635s-0.396-0.252-0.669-0.252
				c-0.271,0-0.497,0.086-0.677,0.258c-0.181,0.172-0.296,0.43-0.348,0.773l-0.719-0.125c0.086-0.471,0.28-0.836,0.584-1.096
				c0.304-0.259,0.682-0.389,1.134-0.389c0.312,0,0.599,0.067,0.861,0.2c0.262,0.134,0.463,0.315,0.602,0.546
				c0.139,0.231,0.208,0.476,0.208,0.735c0,0.246-0.066,0.47-0.199,0.672s-0.33,0.363-0.59,0.482
				c0.338,0.078,0.604,0.24,0.797,0.487c0.192,0.246,0.289,0.555,0.289,0.925c0,0.501-0.183,0.926-0.547,1.273
				c-0.365,0.349-0.826,0.522-1.383,0.522c-0.503,0-0.92-0.147-1.252-0.443S29.342,29.811,29.295,29.34z"/>
		</g>
		<path i:knockout="Off" fill="none" stroke="#000000" stroke-width="0.7" stroke-linecap="round" d="M36.789,32.813H25.914"/>
		<path i:knockout="Off" fill="none" stroke="#000000" stroke-width="0.7" stroke-linecap="round" d="M36.886,34.9V22.56h11.341
			V34.9H36.886z"/>
		<g i:knockout="Off">
			<path i:knockout="Off" d="M42.842,30.84v-1.375h-2.484v-0.641l2.625-3.719h0.563v3.719h0.781v0.641h-0.781v1.375H42.842z
				 M42.842,28.824v-2.566l-1.792,2.566H42.842z"/>
		</g>
		<path i:knockout="Off" fill="none" stroke="#000000" stroke-width="0.7" stroke-linecap="round" d="M48.102,32.813H37.226"/>
		<path i:knockout="Off" fill="none" stroke="#000000" stroke-width="0.7" stroke-linecap="round" d="M48.198,34.9V22.56h11.341
			V34.9H48.198z"/>
		<g i:knockout="Off">
			<path i:knockout="Off" d="M51.904,29.34l0.719-0.063c0.055,0.358,0.182,0.628,0.38,0.808c0.197,0.181,0.44,0.271,0.729,0.271
				c0.35,0,0.64-0.127,0.871-0.382c0.232-0.254,0.349-0.592,0.349-1.013c0-0.399-0.11-0.715-0.332-0.946
				c-0.222-0.23-0.519-0.347-0.891-0.347c-0.231,0-0.438,0.051-0.617,0.152s-0.321,0.233-0.426,0.395l-0.656-0.094l0.563-2.938
				h2.844v0.672H53.15l-0.313,1.549c0.344-0.241,0.704-0.361,1.082-0.361c0.5,0,0.922,0.173,1.266,0.519
				c0.344,0.347,0.516,0.791,0.516,1.335c0,0.518-0.151,0.966-0.453,1.343c-0.367,0.463-0.868,0.694-1.504,0.694
				c-0.521,0-0.946-0.146-1.275-0.437S51.951,29.82,51.904,29.34z"/>
		</g>
		<path i:knockout="Off" fill="none" stroke="#000000" stroke-width="0.7" stroke-linecap="round" d="M59.414,32.813H48.539"/>
		<path i:knockout="Off" fill="none" stroke="#000000" stroke-width="0.7" stroke-linecap="round" d="M59.511,34.9V22.56h11.341
			V34.9H59.511z"/>
		<g i:knockout="Off">
			<path i:knockout="Off" d="M66.889,26.512l-0.703,0.063c-0.063-0.277-0.152-0.479-0.268-0.604
				c-0.191-0.201-0.427-0.302-0.708-0.302c-0.226,0-0.426,0.063-0.602,0.187c-0.218,0.161-0.391,0.396-0.52,0.705
				c-0.128,0.309-0.195,0.75-0.2,1.323c0.17-0.258,0.378-0.449,0.623-0.574c0.246-0.125,0.503-0.188,0.772-0.188
				c0.471,0,0.871,0.173,1.202,0.518s0.496,0.791,0.496,1.338c0,0.359-0.078,0.693-0.233,1.002
				c-0.156,0.309-0.369,0.545-0.642,0.709c-0.271,0.164-0.58,0.246-0.925,0.246c-0.589,0-1.068-0.216-1.44-0.646
				c-0.371-0.432-0.557-1.141-0.557-2.13c0-1.106,0.206-1.91,0.617-2.413c0.358-0.437,0.843-0.656,1.45-0.656
				c0.453,0,0.825,0.126,1.115,0.378C66.657,25.72,66.831,26.067,66.889,26.512z M63.998,28.982c0,0.242,0.052,0.474,0.155,0.694
				s0.246,0.39,0.43,0.505c0.184,0.116,0.38,0.174,0.589,0.174c0.304,0,0.562-0.12,0.773-0.358c0.212-0.24,0.318-0.564,0.318-0.976
				c0-0.396-0.104-0.706-0.314-0.935c-0.209-0.227-0.478-0.341-0.805-0.341c-0.319,0-0.591,0.114-0.813,0.341
				C64.109,28.315,63.998,28.613,63.998,28.982z"/>
		</g>
		<path i:knockout="Off" fill="none" stroke="#000000" stroke-width="0.7" stroke-linecap="round" d="M70.727,32.813H59.852"/>
		<path i:knockout="Off" fill="none" stroke="#000000" stroke-width="0.7" stroke-linecap="round" d="M2.948,47.252v-12.34h11.34
			v12.34H2.948z"/>
		<g i:knockout="Off">
			<path i:knockout="Off" d="M6.701,38.209v-0.672h3.703v0.544c-0.365,0.388-0.728,0.904-1.086,1.548
				c-0.359,0.645-0.636,1.308-0.832,1.987c-0.141,0.48-0.231,1.006-0.27,1.577H7.498c0.008-0.451,0.096-0.996,0.265-1.636
				c0.169-0.639,0.411-1.255,0.727-1.848c0.315-0.594,0.651-1.094,1.008-1.501H6.701z"/>
		</g>
		<path i:knockout="Off" fill="none" stroke="#000000" stroke-width="0.7" stroke-linecap="round" d="M14.164,44.955H3.289"/>
		<path i:knockout="Off" fill="none" stroke="#000000" stroke-width="0.7" stroke-linecap="round" d="M14.261,47.252v-12.34h11.34
			v12.34H14.261z"/>
		<g i:knockout="Off">
			<path i:knockout="Off" d="M19.06,40.09c-0.292-0.106-0.507-0.259-0.648-0.457s-0.211-0.436-0.211-0.712
				c0-0.417,0.149-0.768,0.447-1.051c0.299-0.285,0.696-0.427,1.191-0.427c0.498,0,0.899,0.146,1.203,0.437
				c0.304,0.29,0.456,0.644,0.456,1.061c0,0.266-0.069,0.497-0.208,0.694c-0.139,0.196-0.349,0.349-0.631,0.455
				c0.35,0.114,0.617,0.299,0.799,0.554s0.274,0.559,0.274,0.912c0,0.489-0.173,0.899-0.519,1.232s-0.8,0.499-1.364,0.499
				s-1.019-0.167-1.364-0.501s-0.519-0.75-0.519-1.25c0-0.371,0.095-0.683,0.284-0.934S18.71,40.181,19.06,40.09z M18.686,41.541
				c0,0.2,0.046,0.394,0.139,0.58c0.092,0.187,0.233,0.331,0.423,0.435c0.189,0.102,0.393,0.153,0.608,0.153
				c0.341,0,0.619-0.107,0.834-0.323c0.216-0.215,0.324-0.489,0.324-0.821c0-0.337-0.111-0.616-0.333-0.837
				s-0.505-0.331-0.848-0.331c-0.335,0-0.61,0.109-0.825,0.327S18.686,41.214,18.686,41.541z M18.92,38.896
				c0,0.271,0.085,0.492,0.257,0.664c0.171,0.172,0.398,0.258,0.681,0.258c0.275,0,0.497-0.085,0.667-0.256s0.255-0.38,0.255-0.627
				c0-0.258-0.088-0.475-0.263-0.65s-0.397-0.264-0.667-0.264c-0.272,0-0.495,0.086-0.669,0.258S18.92,38.657,18.92,38.896z"/>
		</g>
		<path i:knockout="Off" fill="none" stroke="#000000" stroke-width="0.7" stroke-linecap="round" d="M25.476,44.955H14.601"/>
		<path i:knockout="Off" fill="none" stroke="#000000" stroke-width="0.7" stroke-linecap="round" d="M25.573,47.252v-12.34h11.34
			v12.34H25.573z"/>
		<g i:knockout="Off">
			<path i:knockout="Off" d="M29.373,41.865l0.672-0.063c0.057,0.317,0.167,0.548,0.328,0.691c0.161,0.144,0.368,0.215,0.621,0.215
				c0.216,0,0.407-0.049,0.572-0.147c0.165-0.099,0.299-0.23,0.4-0.395s0.188-0.387,0.258-0.667s0.105-0.565,0.105-0.857
				c0-0.031-0.001-0.078-0.004-0.141c-0.14,0.224-0.331,0.405-0.573,0.545s-0.505,0.209-0.787,0.209
				c-0.472,0-0.871-0.172-1.197-0.517c-0.326-0.344-0.489-0.797-0.489-1.36c0-0.581,0.171-1.05,0.514-1.403
				c0.342-0.355,0.771-0.532,1.287-0.532c0.372,0,0.713,0.101,1.021,0.301s0.543,0.485,0.703,0.856s0.24,0.908,0.24,1.61
				c0,0.731-0.08,1.313-0.239,1.747s-0.396,0.764-0.711,0.989c-0.315,0.227-0.684,0.34-1.107,0.34c-0.449,0-0.816-0.124-1.101-0.373
				S29.431,42.315,29.373,41.865z M32.264,39.34c0-0.404-0.106-0.726-0.319-0.962c-0.212-0.238-0.473-0.356-0.78-0.356
				c-0.318,0-0.592,0.128-0.822,0.384s-0.344,0.586-0.344,0.993c0,0.365,0.109,0.662,0.327,0.89c0.218,0.229,0.491,0.343,0.82,0.343
				c0.326,0,0.594-0.114,0.804-0.343C32.159,40.061,32.264,39.744,32.264,39.34z"/>
		</g>
		<path i:knockout="Off" fill="none" stroke="#000000" stroke-width="0.7" stroke-linecap="round" d="M36.789,44.955H25.914"/>
		<path i:knockout="Off" fill="none" stroke="#000000" stroke-width="0.7" stroke-linecap="round" d="M36.886,47.252v-12.34h11.341
			v12.34H36.886z"/>
		<g i:knockout="Off">
			<path i:knockout="Off" d="M41.023,43.193H40.32v-4.48c-0.169,0.161-0.392,0.323-0.666,0.484s-0.521,0.282-0.74,0.363v-0.68
				c0.394-0.185,0.737-0.409,1.031-0.672s0.503-0.519,0.625-0.766h0.453V43.193z"/>
			<path i:knockout="Off" d="M42.816,40.367c0-0.677,0.07-1.223,0.211-1.638c0.14-0.415,0.349-0.733,0.626-0.954
				c0.277-0.222,0.626-0.332,1.046-0.332c0.31,0,0.583,0.062,0.819,0.186s0.43,0.302,0.579,0.534
				c0.149,0.233,0.268,0.518,0.354,0.852c0.086,0.334,0.13,0.785,0.13,1.353c0,0.671-0.069,1.215-0.209,1.63
				c-0.139,0.415-0.347,0.734-0.624,0.956c-0.277,0.223-0.627,0.334-1.05,0.334c-0.557,0-0.994-0.195-1.312-0.585
				C43.007,42.22,42.816,41.442,42.816,40.367z M43.535,40.365c0,0.945,0.112,1.572,0.336,1.881s0.499,0.463,0.828,0.463
				c0.328,0,0.604-0.155,0.828-0.465s0.336-0.937,0.336-1.879s-0.111-1.569-0.334-1.879s-0.502-0.465-0.838-0.465
				c-0.329,0-0.592,0.137-0.791,0.41C43.657,38.78,43.535,39.425,43.535,40.365z"/>
		</g>
		<path i:knockout="Off" fill="none" stroke="#000000" stroke-width="0.7" stroke-linecap="round" d="M48.102,44.955H37.226"/>
		<path i:knockout="Off" fill="none" stroke="#000000" stroke-width="0.7" stroke-linecap="round" d="M48.198,47.252v-12.34h11.341
			v12.34H48.198z"/>
		<g i:knockout="Off">
			<path i:knockout="Off" d="M52.336,43.193h-0.703v-4.48c-0.169,0.161-0.392,0.323-0.666,0.484s-0.521,0.282-0.74,0.363v-0.68
				c0.394-0.185,0.737-0.409,1.031-0.672s0.503-0.519,0.625-0.766h0.453V43.193z"/>
			<path i:knockout="Off" d="M56.785,43.193h-0.703v-4.48c-0.169,0.161-0.392,0.323-0.666,0.484s-0.521,0.282-0.74,0.363v-0.68
				c0.394-0.185,0.737-0.409,1.031-0.672s0.503-0.519,0.625-0.766h0.453V43.193z"/>
		</g>
		<path i:knockout="Off" fill="none" stroke="#000000" stroke-width="0.7" stroke-linecap="round" d="M59.414,44.955H48.539"/>
		<path i:knockout="Off" fill="none" stroke="#000000" stroke-width="0.7" stroke-linecap="round" d="M59.511,47.252v-12.34h11.341
			v12.34H59.511z"/>
		<g i:knockout="Off">
			<path i:knockout="Off" d="M63.648,43.193h-0.703v-4.48c-0.169,0.161-0.392,0.323-0.666,0.484s-0.521,0.282-0.74,0.363v-0.68
				c0.394-0.185,0.737-0.409,1.031-0.672s0.503-0.519,0.625-0.766h0.453V43.193z"/>
			<path i:knockout="Off" d="M69.137,42.521v0.672H65.34c-0.005-0.169,0.022-0.332,0.083-0.488c0.097-0.258,0.252-0.511,0.467-0.76
				c0.214-0.249,0.521-0.536,0.92-0.864c0.62-0.516,1.04-0.923,1.262-1.221c0.221-0.298,0.331-0.58,0.331-0.849
				c0-0.278-0.1-0.513-0.3-0.704c-0.199-0.19-0.459-0.286-0.78-0.286c-0.339,0-0.61,0.104-0.813,0.312
				c-0.204,0.207-0.307,0.494-0.31,0.86L65.48,39.1c0.05-0.539,0.235-0.95,0.558-1.232s0.756-0.424,1.3-0.424
				c0.549,0,0.983,0.152,1.304,0.457c0.319,0.305,0.479,0.683,0.479,1.134c0,0.229-0.047,0.454-0.14,0.676
				c-0.094,0.221-0.248,0.454-0.465,0.699c-0.216,0.245-0.576,0.581-1.08,1.009c-0.424,0.354-0.695,0.596-0.815,0.722
				c-0.12,0.127-0.219,0.254-0.297,0.382H69.137z"/>
		</g>
		<path i:knockout="Off" fill="none" stroke="#000000" stroke-width="0.7" stroke-linecap="round" d="M70.727,44.955H59.852"/>
		<path i:knockout="Off" fill="none" stroke="#000000" stroke-width="1.2" stroke-linecap="round" d="M25.594,22.572v-5.359h22.743
			v5.359"/>
		<path i:knockout="Off" fill="none" stroke="#000000" stroke-width="1.2" stroke-linecap="round" d="M52.953,22.282v-4.757H55.5
			v4.757"/>
		<path i:knockout="Off" fill="none" stroke="#000000" stroke-width="1.2" stroke-linecap="round" d="M18.203,22.282v-4.757h2.546
			v4.757"/>
		<path i:knockout="Off" fill="none" stroke="#000000" stroke-width="1.2" stroke-linecap="round" d="M2.954,22.282v-2.788h2.25
			v2.788"/>
		<path i:knockout="Off" fill="none" stroke="#000000" stroke-width="1.2" stroke-linecap="round" d="M68.609,22.387v-2.893h2.25
			v2.893"/>
		<path i:knockout="Off" fill="none" stroke="#000000" stroke-width="1.2" stroke-linecap="round" d="M70.852,47.252V22.51H2.953
			v24.742H70.852z"/>
		<path i:knockout="Off" fill="none" stroke="#000000" stroke-width="0.7" stroke-linecap="round" d="M3.251,97.048v-12.34h11.34
			v12.34H3.251z"/>
		<g i:knockout="Off">
			<path i:knockout="Off" d="M10.628,88.661l-0.703,0.063c-0.063-0.277-0.152-0.479-0.268-0.604
				c-0.191-0.201-0.427-0.302-0.708-0.302c-0.226,0-0.426,0.063-0.602,0.188c-0.218,0.16-0.391,0.396-0.52,0.705
				c-0.128,0.309-0.195,0.75-0.2,1.322c0.17-0.258,0.378-0.449,0.623-0.574c0.246-0.125,0.503-0.188,0.773-0.188
				c0.47,0,0.871,0.173,1.202,0.518c0.331,0.346,0.496,0.791,0.496,1.338c0,0.359-0.078,0.693-0.233,1.002
				c-0.156,0.309-0.369,0.545-0.642,0.709c-0.271,0.164-0.58,0.246-0.925,0.246c-0.588,0-1.068-0.215-1.44-0.646
				c-0.371-0.43-0.557-1.14-0.557-2.129c0-1.105,0.206-1.91,0.617-2.412c0.359-0.438,0.843-0.656,1.451-0.656
				c0.453,0,0.825,0.126,1.114,0.378S10.57,88.217,10.628,88.661z M7.737,91.132c0,0.242,0.052,0.474,0.155,0.694
				c0.104,0.222,0.247,0.39,0.43,0.505c0.183,0.116,0.38,0.174,0.589,0.174c0.304,0,0.562-0.119,0.773-0.359
				c0.212-0.238,0.318-0.563,0.318-0.975c0-0.395-0.104-0.707-0.314-0.934c-0.209-0.229-0.478-0.342-0.805-0.342
				c-0.319,0-0.59,0.113-0.813,0.342C7.849,90.464,7.737,90.763,7.737,91.132z"/>
		</g>
		<path i:knockout="Off" fill="none" stroke="#000000" stroke-width="0.7" d="M71.114,95.452H3.591"/>
		<path i:knockout="Off" fill="none" stroke="#000000" stroke-width="0.7" stroke-linecap="round" d="M14.563,97.048v-12.34h11.34
			v12.34H14.563z"/>
		<g i:knockout="Off">
			<path i:knockout="Off" d="M18.269,91.489l0.719-0.063c0.055,0.358,0.182,0.627,0.379,0.808s0.441,0.271,0.729,0.271
				c0.349,0,0.639-0.127,0.871-0.382c0.232-0.254,0.348-0.592,0.348-1.013c0-0.399-0.111-0.715-0.332-0.946
				c-0.222-0.231-0.519-0.347-0.891-0.347c-0.232,0-0.438,0.051-0.617,0.152s-0.322,0.232-0.426,0.395l-0.656-0.094l0.563-2.938
				H21.8v0.672h-2.285l-0.313,1.549c0.344-0.24,0.704-0.361,1.082-0.361c0.5,0,0.922,0.173,1.266,0.52
				c0.344,0.346,0.516,0.791,0.516,1.334c0,0.518-0.151,0.965-0.453,1.343c-0.367,0.463-0.869,0.694-1.504,0.694
				c-0.521,0-0.946-0.146-1.275-0.437C18.503,92.355,18.315,91.97,18.269,91.489z"/>
		</g>
		<path i:knockout="Off" fill="none" stroke="#000000" stroke-width="0.7" stroke-linecap="round" d="M25.876,97.048v-12.34h11.34
			v12.34H25.876z"/>
		<g i:knockout="Off">
			<path i:knockout="Off" d="M31.831,92.989v-1.375h-2.484v-0.641l2.625-3.719h0.563v3.719h0.781v0.641h-0.781v1.375H31.831z
				 M31.831,90.974v-2.566l-1.792,2.566H31.831z"/>
		</g>
		<path i:knockout="Off" fill="none" stroke="#000000" stroke-width="0.7" stroke-linecap="round" d="M37.188,97.048v-12.34h11.34
			v12.34H37.188z"/>
		<g i:knockout="Off">
			<path i:knockout="Off" d="M40.909,91.489l0.719-0.094c0.08,0.393,0.215,0.676,0.404,0.85c0.19,0.173,0.426,0.26,0.707,0.26
				c0.333,0,0.611-0.115,0.835-0.344c0.224-0.23,0.335-0.515,0.335-0.854c0-0.323-0.104-0.59-0.313-0.801
				c-0.21-0.209-0.476-0.314-0.798-0.314c-0.132,0-0.296,0.026-0.492,0.078l0.078-0.625c0.046,0.006,0.083,0.008,0.111,0.008
				c0.295,0,0.56-0.077,0.795-0.232c0.235-0.154,0.354-0.394,0.354-0.717c0-0.256-0.086-0.467-0.26-0.635
				c-0.172-0.168-0.396-0.252-0.668-0.252c-0.271,0-0.497,0.086-0.678,0.258c-0.18,0.172-0.296,0.43-0.348,0.773l-0.719-0.125
				c0.086-0.471,0.28-0.836,0.584-1.096c0.305-0.259,0.683-0.389,1.135-0.389c0.312,0,0.599,0.066,0.861,0.2
				c0.262,0.134,0.463,0.315,0.602,0.546c0.14,0.23,0.209,0.476,0.209,0.735c0,0.246-0.066,0.47-0.199,0.673
				c-0.133,0.201-0.33,0.362-0.59,0.481c0.338,0.078,0.604,0.241,0.797,0.487c0.192,0.246,0.289,0.555,0.289,0.925
				c0,0.501-0.183,0.926-0.547,1.273c-0.365,0.349-0.826,0.522-1.383,0.522c-0.503,0-0.92-0.147-1.252-0.443
				S40.956,91.96,40.909,91.489z"/>
		</g>
		<path i:knockout="Off" fill="none" stroke="#000000" stroke-width="0.7" stroke-linecap="round" d="M48.501,97.048v-12.34h11.34
			v12.34H48.501z"/>
		<g i:knockout="Off">
			<path i:knockout="Off" d="M55.902,92.317v0.672h-3.797c-0.005-0.169,0.022-0.332,0.083-0.488c0.097-0.258,0.252-0.511,0.467-0.76
				c0.214-0.248,0.521-0.537,0.92-0.864c0.62-0.517,1.04-0.923,1.262-1.221c0.221-0.298,0.331-0.58,0.331-0.849
				c0-0.277-0.1-0.513-0.3-0.703c-0.199-0.191-0.459-0.287-0.78-0.287c-0.339,0-0.61,0.104-0.813,0.311
				c-0.204,0.208-0.307,0.494-0.31,0.861l-0.719-0.094c0.05-0.539,0.235-0.949,0.558-1.232c0.322-0.282,0.756-0.424,1.3-0.424
				c0.549,0,0.983,0.152,1.304,0.457c0.319,0.305,0.479,0.683,0.479,1.133c0,0.229-0.047,0.455-0.14,0.677
				c-0.094,0.222-0.248,0.454-0.465,0.699c-0.216,0.245-0.576,0.581-1.08,1.009c-0.424,0.355-0.695,0.596-0.815,0.723
				c-0.12,0.126-0.219,0.253-0.297,0.381H55.902z"/>
		</g>
		<path i:knockout="Off" fill="none" stroke="#000000" stroke-width="0.7" stroke-linecap="round" d="M59.813,97.048v-12.34h11.341
			v12.34H59.813z"/>
		<g i:knockout="Off">
			<path i:knockout="Off" d="M66.176,92.989h-0.703v-4.48c-0.169,0.162-0.392,0.323-0.666,0.484
				c-0.274,0.162-0.521,0.283-0.74,0.363v-0.68c0.394-0.185,0.737-0.408,1.031-0.672c0.294-0.263,0.503-0.518,0.625-0.766h0.453
				V92.989z"/>
		</g>
		<path i:knockout="Off" fill="none" stroke="#000000" stroke-width="0.7" stroke-linecap="round" d="M3.251,109.401V97.06h11.34
			v12.342H3.251z"/>
		<g i:knockout="Off">
			<path i:knockout="Off" d="M7.388,105.341H6.685v-4.48c-0.169,0.162-0.392,0.323-0.666,0.484c-0.275,0.162-0.521,0.283-0.74,0.363
				v-0.68c0.393-0.185,0.737-0.408,1.031-0.672c0.294-0.263,0.502-0.518,0.625-0.766h0.453V105.341z"/>
			<path i:knockout="Off" d="M12.876,104.669v0.672H9.079c-0.005-0.169,0.022-0.332,0.083-0.488c0.097-0.258,0.252-0.511,0.467-0.76
				c0.214-0.248,0.521-0.537,0.92-0.864c0.62-0.517,1.04-0.923,1.261-1.221s0.332-0.58,0.332-0.849c0-0.277-0.1-0.513-0.299-0.703
				c-0.2-0.191-0.46-0.287-0.781-0.287c-0.339,0-0.61,0.104-0.814,0.311c-0.204,0.208-0.307,0.494-0.309,0.861l-0.719-0.094
				c0.049-0.539,0.235-0.949,0.558-1.232c0.323-0.282,0.756-0.424,1.3-0.424c0.549,0,0.983,0.152,1.303,0.457s0.48,0.683,0.48,1.133
				c0,0.229-0.047,0.455-0.14,0.677c-0.094,0.222-0.248,0.454-0.465,0.699c-0.216,0.245-0.576,0.581-1.081,1.009
				c-0.423,0.355-0.695,0.596-0.815,0.723c-0.12,0.126-0.219,0.253-0.297,0.381H12.876z"/>
		</g>
		<path i:knockout="Off" fill="none" stroke="#000000" stroke-width="0.7" d="M71.114,107.542H3.591"/>
		<path i:knockout="Off" fill="none" stroke="#000000" stroke-width="0.7" stroke-linecap="round" d="M14.563,109.401V97.06h11.34
			v12.342H14.563z"/>
		<g i:knockout="Off">
			<path i:knockout="Off" d="M18.7,105.341h-0.703v-4.48c-0.169,0.162-0.392,0.323-0.666,0.484c-0.275,0.162-0.521,0.283-0.74,0.363
				v-0.68c0.393-0.185,0.737-0.408,1.031-0.672c0.294-0.263,0.502-0.518,0.625-0.766H18.7V105.341z"/>
			<path i:knockout="Off" d="M23.149,105.341h-0.703v-4.48c-0.169,0.162-0.392,0.323-0.666,0.484
				c-0.275,0.162-0.521,0.283-0.74,0.363v-0.68c0.393-0.185,0.737-0.408,1.031-0.672c0.294-0.263,0.502-0.518,0.625-0.766h0.453
				V105.341z"/>
		</g>
		<path i:knockout="Off" fill="none" stroke="#000000" stroke-width="0.7" stroke-linecap="round" d="M25.876,109.401V97.06h11.34
			v12.342H25.876z"/>
		<g i:knockout="Off">
			<path i:knockout="Off" d="M30.013,105.341H29.31v-4.48c-0.169,0.162-0.392,0.323-0.666,0.484
				c-0.275,0.162-0.521,0.283-0.74,0.363v-0.68c0.393-0.185,0.737-0.408,1.031-0.672c0.294-0.263,0.502-0.518,0.625-0.766h0.453
				V105.341z"/>
			<path i:knockout="Off" d="M31.806,102.515c0-0.677,0.07-1.223,0.211-1.638c0.14-0.415,0.349-0.733,0.626-0.954
				c0.277-0.222,0.626-0.332,1.046-0.332c0.31,0,0.583,0.063,0.819,0.186s0.429,0.302,0.579,0.535
				c0.149,0.232,0.268,0.516,0.354,0.851c0.086,0.335,0.13,0.785,0.13,1.353c0,0.672-0.069,1.215-0.209,1.63
				c-0.139,0.415-0.347,0.733-0.624,0.956c-0.277,0.223-0.627,0.334-1.05,0.334c-0.557,0-0.994-0.195-1.312-0.586
				C31.996,104.368,31.806,103.59,31.806,102.515z M32.524,102.513c0,0.945,0.112,1.572,0.336,1.881
				c0.224,0.309,0.5,0.463,0.828,0.463c0.328,0,0.604-0.154,0.828-0.465c0.224-0.31,0.336-0.936,0.336-1.879
				c0-0.942-0.111-1.568-0.334-1.879c-0.223-0.31-0.502-0.465-0.838-0.465c-0.329,0-0.592,0.137-0.791,0.41
				C32.646,100.929,32.524,101.573,32.524,102.513z"/>
		</g>
		<path i:knockout="Off" fill="none" stroke="#000000" stroke-width="0.7" stroke-linecap="round" d="M37.188,109.401V97.06h11.34
			v12.342H37.188z"/>
		<g i:knockout="Off">
			<path i:knockout="Off" d="M40.987,104.013l0.672-0.063c0.057,0.318,0.166,0.549,0.328,0.691c0.161,0.144,0.368,0.215,0.621,0.215
				c0.216,0,0.406-0.049,0.572-0.147c0.165-0.099,0.299-0.229,0.4-0.395s0.188-0.387,0.258-0.667
				c0.07-0.279,0.105-0.565,0.105-0.857c0-0.031-0.002-0.078-0.004-0.141c-0.141,0.225-0.331,0.406-0.573,0.545
				c-0.242,0.14-0.505,0.209-0.787,0.209c-0.472,0-0.87-0.172-1.197-0.516c-0.326-0.345-0.489-0.798-0.489-1.361
				c0-0.581,0.171-1.049,0.514-1.404c0.342-0.354,0.771-0.531,1.287-0.531c0.372,0,0.713,0.101,1.021,0.301s0.543,0.486,0.703,0.856
				c0.16,0.371,0.24,0.907,0.24,1.61c0,0.731-0.08,1.313-0.239,1.747s-0.396,0.763-0.711,0.989c-0.315,0.227-0.685,0.34-1.107,0.34
				c-0.449,0-0.816-0.124-1.101-0.373C41.216,104.813,41.045,104.464,40.987,104.013z M43.878,101.487
				c0-0.404-0.106-0.725-0.319-0.963c-0.212-0.236-0.473-0.355-0.78-0.355c-0.318,0-0.592,0.128-0.822,0.384
				c-0.229,0.255-0.344,0.587-0.344,0.993c0,0.365,0.109,0.662,0.326,0.891c0.219,0.228,0.492,0.342,0.82,0.342
				c0.326,0,0.594-0.114,0.805-0.342C43.772,102.208,43.878,101.892,43.878,101.487z"/>
		</g>
		<path i:knockout="Off" fill="none" stroke="#000000" stroke-width="0.7" stroke-linecap="round" d="M48.501,109.401V97.06h11.34
			v12.342H48.501z"/>
		<g i:knockout="Off">
			<path i:knockout="Off" d="M53.3,102.237c-0.291-0.106-0.507-0.259-0.647-0.457s-0.211-0.436-0.211-0.712
				c0-0.417,0.149-0.767,0.447-1.052c0.299-0.283,0.696-0.426,1.191-0.426c0.498,0,0.899,0.146,1.202,0.436
				c0.305,0.291,0.456,0.645,0.456,1.062c0,0.267-0.069,0.497-0.208,0.694c-0.139,0.196-0.35,0.349-0.631,0.455
				c0.35,0.114,0.616,0.299,0.799,0.554s0.274,0.559,0.274,0.912c0,0.489-0.173,0.899-0.519,1.232s-0.801,0.499-1.364,0.499
				s-1.019-0.167-1.364-0.501s-0.519-0.751-0.519-1.25c0-0.371,0.095-0.683,0.284-0.934S52.95,102.328,53.3,102.237z
				 M52.926,103.688c0,0.2,0.046,0.394,0.139,0.58c0.092,0.188,0.233,0.332,0.423,0.434c0.189,0.104,0.393,0.154,0.608,0.154
				c0.341,0,0.618-0.107,0.835-0.323c0.215-0.215,0.323-0.489,0.323-0.821c0-0.338-0.111-0.616-0.333-0.837
				c-0.223-0.221-0.506-0.331-0.849-0.331c-0.335,0-0.61,0.109-0.825,0.327C53.033,103.089,52.926,103.361,52.926,103.688z
				 M53.16,101.044c0,0.271,0.085,0.492,0.257,0.664c0.171,0.172,0.398,0.258,0.681,0.258c0.274,0,0.497-0.085,0.667-0.256
				c0.17-0.17,0.255-0.379,0.255-0.627c0-0.258-0.088-0.475-0.263-0.65s-0.397-0.264-0.667-0.264c-0.272,0-0.495,0.086-0.669,0.258
				S53.16,100.805,53.16,101.044z"/>
		</g>
		<path i:knockout="Off" fill="none" stroke="#000000" stroke-width="0.7" stroke-linecap="round" d="M59.813,109.401V97.06h11.341
			v12.342H59.813z"/>
		<g i:knockout="Off">
			<path i:knockout="Off" d="M63.566,100.356v-0.672h3.703v0.544c-0.365,0.388-0.728,0.904-1.086,1.548
				c-0.358,0.645-0.636,1.307-0.831,1.988c-0.142,0.479-0.231,1.005-0.271,1.576h-0.719c0.008-0.451,0.097-0.996,0.265-1.635
				c0.17-0.64,0.412-1.256,0.728-1.85c0.315-0.593,0.651-1.093,1.008-1.5H63.566z"/>
		</g>
		<path i:knockout="Off" fill="none" stroke="#000000" stroke-width="0.7" stroke-linecap="round" d="M71.153,109.401V84.657H3.255
			v24.744H71.153z"/>
		<path i:knockout="Off" fill="none" stroke="#000000" stroke-width="1.2" stroke-linecap="round" d="M73.351,111.472V83.066H1.271
			v28.405H73.351z"/>
		<path i:knockout="Off" fill="none" stroke="#000000" stroke-width="1.2" stroke-linecap="round" d="M25.896,83.066v-5.359h22.743
			v5.359"/>
		<path i:knockout="Off" fill="none" stroke="#000000" stroke-width="1.2" stroke-linecap="round" d="M53.255,82.776V78.02h2.547
			v4.757"/>
		<path i:knockout="Off" fill="none" stroke="#000000" stroke-width="1.2" stroke-linecap="round" d="M18.505,82.776V78.02h2.547
			v4.757"/>
		<path i:knockout="Off" fill="none" stroke="#000000" stroke-width="1.2" stroke-linecap="round" d="M3.255,82.776v-2.788h2.25
			v2.788"/>
		<path i:knockout="Off" fill="none" stroke="#000000" stroke-width="1.2" stroke-linecap="round" d="M68.911,82.881v-2.893h2.25
			v2.893"/>
	</g>
</svg>
