<?xml version="1.0" encoding="utf-8"?>
<!-- Generator: Adobe Illustrator 10.0, SVG Export Plug-In . SVG Version: 3.0.0 Build 77)  -->
<!DOCTYPE svg PUBLIC "-//W3C//DTD SVG 1.0//EN"    "http://www.w3.org/TR/2001/REC-SVG-20010904/DTD/svg10.dtd" [
	<!ENTITY ns_flows "http://ns.adobe.com/Flows/1.0/">
	<!ENTITY ns_extend "http://ns.adobe.com/Extensibility/1.0/">
	<!ENTITY ns_ai "http://ns.adobe.com/AdobeIllustrator/10.0/">
	<!ENTITY ns_graphs "http://ns.adobe.com/Graphs/1.0/">
	<!ENTITY ns_vars "http://ns.adobe.com/Variables/1.0/">
	<!ENTITY ns_imrep "http://ns.adobe.com/ImageReplacement/1.0/">
	<!ENTITY ns_sfw "http://ns.adobe.com/SaveForWeb/1.0/">
	<!ENTITY ns_custom "http://ns.adobe.com/GenericCustomNamespace/1.0/">
	<!ENTITY ns_adobe_xpath "http://ns.adobe.com/XPath/1.0/">
	<!ENTITY ns_svg "http://www.w3.org/2000/svg">
	<!ENTITY ns_xlink "http://www.w3.org/1999/xlink">
]>
<svg xmlns:x="&ns_extend;" xmlns:i="&ns_ai;" xmlns:graph="&ns_graphs;" i:viewOrigin="288.5933 468.2222" i:rulerOrigin="0 0" i:pageBounds="0 841.8896 595.2754 0" xmlns="&ns_svg;" xmlns:xlink="&ns_xlink;" xmlns:a="http://ns.adobe.com/AdobeSVGViewerExtensions/3.0/" width="28.337" height="19.018" viewBox="0 0 28.337 19.018" overflow="visible" enable-background="new 0 0 28.337 19.018" xml:space="preserve" id="svgObj" onload="parent.svgLoad('Top', document)">
	<metadata>
		<variableSets xmlns="&ns_vars;">
			<variableSet varSetName="binding1" locked="none">
				<variables></variables>
				<v:sampleDataSets xmlns="&ns_custom;" xmlns:v="&ns_vars;"></v:sampleDataSets>
			</variableSet>
		</variableSets>
		<sfw xmlns="&ns_sfw;">
			<slices></slices>
			<sliceSourceBounds y="426.027" x="262.5" width="80.37" height="63.362" bottomLeftOrigin="true"></sliceSourceBounds>
		</sfw>
	</metadata>
	<g id="レイヤー_1" i:layer="yes" i:dimmedPercent="100" i:rgbTrio="#4F008000FFFF">
		<g>
			<path i:knockout="Off" fill="none" stroke="#000000" stroke-width="1.1339" stroke-linecap="round" d="M8.422,18.45h11.337"/>
			<path i:knockout="Off" fill="none" stroke="#000000" stroke-width="1.1339" stroke-linecap="round" d="M8.422,3.463h11.337"/>
			<path i:knockout="Off" fill="none" stroke="#000000" stroke-width="1.1339" stroke-linecap="round" d="M8.262,0.567h11.66"/>
			<path i:knockout="Off" fill="none" stroke="#000000" stroke-width="1.1339" stroke-linecap="round" d="M19.921,0.567v2.896"/>
			<path i:knockout="Off" fill="none" stroke="#000000" stroke-width="1.1339" stroke-linecap="round" d="M8.262,0.567v2.896"/>
			<path i:knockout="Off" fill="none" stroke="#000000" stroke-width="0.7087" stroke-linecap="round" d="M25.429,10.514
				c0-3.092-2.505-5.599-5.597-5.599s-5.599,2.506-5.599,5.599c0,3.092,2.507,5.599,5.599,5.599S25.429,13.605,25.429,10.514
				 M14.092,10.514c0-3.092-2.508-5.599-5.599-5.599c-3.092,0-5.599,2.506-5.599,5.599c0,3.092,2.507,5.599,5.599,5.599
				C11.584,16.112,14.092,13.605,14.092,10.514"/>
			<path i:knockout="Off" fill="none" stroke="#000000" stroke-width="1.1339" stroke-linecap="round" d="M27.77,10.514
				c0-4.359-4.211-6.742-7.849-9.947"/>
			<path i:knockout="Off" fill="none" stroke="#000000" stroke-width="1.1339" stroke-linecap="round" d="M19.759,18.45
				c0.025,0.001,0.052,0.001,0.073,0.001c4.383,0,7.938-3.554,7.938-7.938"/>
			<path i:knockout="Off" fill="none" stroke="#000000" stroke-width="1.1339" stroke-linecap="round" d="M8.262,0.567
				c-4.322,3.873-7.705,5.594-7.706,9.947c0,4.384,3.554,7.938,7.938,7.938c0.024,0,0.05,0,0.071-0.001"/>
			<path i:knockout="Off" fill="none" stroke="#000000" stroke-width="0.7087" stroke-linecap="round" d="M4.495,14.429h7.997"/>
			<path i:knockout="Off" fill="none" stroke="#000000" stroke-width="0.7087" stroke-linecap="round" d="M15.868,14.429h7.996"/>
			<g i:knockout="Off">
				<path i:knockout="Off" d="M22.088,11.792v0.672h-3.797c-0.006-0.169,0.022-0.332,0.083-0.488
					c0.097-0.258,0.253-0.511,0.467-0.76c0.214-0.249,0.521-0.537,0.92-0.864c0.62-0.516,1.04-0.923,1.261-1.221
					c0.222-0.298,0.332-0.58,0.332-0.849c0-0.278-0.1-0.513-0.299-0.704c-0.2-0.191-0.461-0.287-0.781-0.287
					c-0.34,0-0.61,0.104-0.814,0.311c-0.203,0.208-0.307,0.494-0.309,0.861l-0.719-0.094c0.049-0.539,0.235-0.95,0.558-1.232
					c0.323-0.282,0.756-0.424,1.3-0.424c0.549,0,0.983,0.152,1.303,0.457c0.32,0.305,0.48,0.683,0.48,1.133
					c0,0.229-0.047,0.455-0.14,0.676c-0.094,0.221-0.248,0.454-0.465,0.699c-0.216,0.245-0.576,0.581-1.081,1.009
					c-0.423,0.355-0.694,0.596-0.814,0.722c-0.119,0.126-0.219,0.253-0.297,0.381H22.088z"/>
			</g>
			<g i:knockout="Off">
				<path i:knockout="Off" d="M8.815,12.644H8.112v-4.48C7.943,8.325,7.721,8.486,7.446,8.647S6.925,8.93,6.706,9.011v-0.68
					c0.393-0.185,0.737-0.409,1.031-0.672S8.24,7.141,8.362,6.894h0.453V12.644z"/>
			</g>
		</g>
	</g>
</svg>
