<?xml version="1.0" encoding="utf-8"?>
<!-- Generator: Adobe Illustrator 10.0, SVG Export Plug-In . SVG Version: 3.0.0 Build 77)  -->
<!DOCTYPE svg PUBLIC "-//W3C//DTD SVG 1.0//EN"    "http://www.w3.org/TR/2001/REC-SVG-20010904/DTD/svg10.dtd" [
	<!ENTITY ns_flows "http://ns.adobe.com/Flows/1.0/">
	<!ENTITY ns_extend "http://ns.adobe.com/Extensibility/1.0/">
	<!ENTITY ns_ai "http://ns.adobe.com/AdobeIllustrator/10.0/">
	<!ENTITY ns_graphs "http://ns.adobe.com/Graphs/1.0/">
	<!ENTITY ns_vars "http://ns.adobe.com/Variables/1.0/">
	<!ENTITY ns_imrep "http://ns.adobe.com/ImageReplacement/1.0/">
	<!ENTITY ns_sfw "http://ns.adobe.com/SaveForWeb/1.0/">
	<!ENTITY ns_custom "http://ns.adobe.com/GenericCustomNamespace/1.0/">
	<!ENTITY ns_adobe_xpath "http://ns.adobe.com/XPath/1.0/">
	<!ENTITY ns_svg "http://www.w3.org/2000/svg">
	<!ENTITY ns_xlink "http://www.w3.org/1999/xlink">
]>
<svg xmlns:x="&ns_extend;" xmlns:i="&ns_ai;" xmlns:graph="&ns_graphs;" i:viewOrigin="266.4126 468.9028" i:rulerOrigin="0 0" i:pageBounds="0 841.8896 595.2754 0" xmlns="&ns_svg;" xmlns:xlink="&ns_xlink;" xmlns:a="http://ns.adobe.com/AdobeSVGViewerExtensions/3.0/" width="73.201" height="24.218" viewBox="0 0 73.201 24.218" overflow="visible" enable-background="new 0 0 73.201 24.218" xml:space="preserve" id="svgObj" onload="parent.svgLoad('Top', document)">
	<metadata>
		<variableSets xmlns="&ns_vars;">
			<variableSet varSetName="binding1" locked="none">
				<variables></variables>
				<v:sampleDataSets xmlns="&ns_custom;" xmlns:v="&ns_vars;"></v:sampleDataSets>
			</variableSet>
		</variableSets>
		<sfw xmlns="&ns_sfw;">
			<slices></slices>
			<sliceSourceBounds y="426.027" x="262.5" width="80.37" height="63.362" bottomLeftOrigin="true"></sliceSourceBounds>
		</sfw>
	</metadata>
	<g id="レイヤー_1" i:layer="yes" i:dimmedPercent="100" i:rgbTrio="#4F008000FFFF">
		<path i:knockout="Off" fill="none" stroke="#000000" stroke-width="1.2" stroke-linecap="round" d="M11.32,11.371V0.6H0.6v10.771
			H11.32z"/>
		<g i:knockout="Off">
			<path i:knockout="Off" d="M6.665,7.735H5.962v-4.48C5.792,3.416,5.571,3.578,5.296,3.739C5.021,3.9,4.774,4.021,4.556,4.102
				v-0.68C4.949,3.238,5.292,3.014,5.587,2.75c0.294-0.263,0.502-0.518,0.625-0.766h0.453V7.735z"/>
		</g>
		<path i:knockout="Off" fill="none" stroke="#000000" stroke-width="1.2" stroke-linecap="round" d="M23.54,11.371V0.6H12.821
			v10.771H23.54z"/>
		<path i:knockout="Off" fill="none" stroke="#000000" stroke-width="1.2" stroke-linecap="round" d="M38.623,12.847v-2.692h-3.35
			v2.692"/>
		<g i:knockout="Off">
			<path i:knockout="Off" d="M20.125,7.063v0.672h-3.797c-0.005-0.169,0.022-0.332,0.083-0.488c0.097-0.258,0.252-0.511,0.467-0.76
				c0.214-0.249,0.521-0.537,0.92-0.864c0.62-0.516,1.04-0.923,1.261-1.221s0.332-0.58,0.332-0.849c0-0.278-0.1-0.513-0.299-0.704
				s-0.46-0.287-0.781-0.287c-0.339,0-0.61,0.104-0.814,0.311s-0.307,0.494-0.309,0.861l-0.719-0.094
				c0.049-0.539,0.235-0.95,0.558-1.232c0.323-0.282,0.756-0.424,1.3-0.424c0.549,0,0.983,0.152,1.303,0.457s0.48,0.683,0.48,1.133
				c0,0.229-0.047,0.455-0.14,0.676c-0.094,0.221-0.248,0.454-0.465,0.699c-0.216,0.245-0.576,0.581-1.081,1.009
				C18,6.314,17.729,6.555,17.609,6.682c-0.12,0.126-0.219,0.253-0.297,0.381H20.125z"/>
		</g>
		<path i:knockout="Off" fill="none" stroke="#000000" stroke-width="1.2" stroke-linecap="round" d="M60.36,11.371V0.6H49.642
			v10.771H60.36z"/>
		<g i:knockout="Off">
			<path i:knockout="Off" d="M53.266,6.235l0.719-0.094c0.08,0.393,0.215,0.676,0.405,0.85c0.189,0.173,0.425,0.26,0.706,0.26
				c0.333,0,0.611-0.115,0.835-0.344c0.223-0.229,0.335-0.514,0.335-0.853c0-0.323-0.104-0.59-0.313-0.8s-0.476-0.315-0.798-0.315
				c-0.132,0-0.296,0.026-0.492,0.078l0.077-0.625c0.047,0.005,0.084,0.008,0.112,0.008c0.294,0,0.56-0.077,0.795-0.232
				C55.882,4.012,56,3.773,56,3.45c0-0.255-0.087-0.467-0.259-0.635c-0.174-0.168-0.396-0.252-0.67-0.252
				c-0.271,0-0.496,0.086-0.676,0.258c-0.182,0.172-0.297,0.43-0.349,0.773l-0.719-0.125c0.086-0.471,0.28-0.836,0.585-1.096
				c0.304-0.259,0.682-0.389,1.134-0.389c0.312,0,0.599,0.067,0.861,0.2c0.263,0.134,0.463,0.315,0.603,0.546
				c0.139,0.231,0.208,0.476,0.208,0.735c0,0.246-0.066,0.47-0.199,0.672s-0.329,0.363-0.59,0.482
				c0.339,0.078,0.604,0.241,0.797,0.487c0.192,0.246,0.289,0.555,0.289,0.925c0,0.501-0.183,0.926-0.547,1.273
				c-0.364,0.349-0.825,0.522-1.383,0.522c-0.503,0-0.92-0.147-1.252-0.443S53.313,6.706,53.266,6.235z"/>
		</g>
		<path i:knockout="Off" fill="none" stroke="#000000" stroke-width="1.2" stroke-linecap="round" d="M72.582,11.371V0.6H61.863
			v10.771H72.582z"/>
		<g i:knockout="Off">
			<path i:knockout="Off" d="M67.771,7.735V6.36h-2.484V5.719L67.912,2h0.563v3.719h0.781V6.36h-0.781v1.375H67.771z M67.771,5.719
				V3.153l-1.793,2.566H67.771z"/>
		</g>
		<path i:knockout="Off" fill="none" stroke="#000000" stroke-width="1.2" stroke-linecap="round" d="M11.32,23.618V12.847H0.6
			v10.771H11.32z"/>
		<g i:knockout="Off">
			<path i:knockout="Off" d="M4.009,18.432l0.719-0.063c0.055,0.358,0.181,0.627,0.379,0.808c0.198,0.181,0.441,0.271,0.729,0.271
				c0.349,0,0.639-0.127,0.871-0.382c0.232-0.254,0.348-0.592,0.348-1.013c0-0.399-0.111-0.715-0.332-0.946
				c-0.221-0.231-0.518-0.347-0.891-0.347c-0.232,0-0.438,0.051-0.617,0.152s-0.322,0.233-0.426,0.395l-0.656-0.094l0.563-2.938
				H7.54v0.672H5.255l-0.313,1.549c0.344-0.241,0.705-0.361,1.082-0.361c0.5,0,0.922,0.173,1.266,0.519s0.516,0.791,0.516,1.334
				c0,0.518-0.151,0.965-0.453,1.343c-0.367,0.463-0.869,0.694-1.504,0.694c-0.521,0-0.946-0.146-1.275-0.437
				S4.056,18.913,4.009,18.432z"/>
		</g>
		<path i:knockout="Off" fill="none" stroke="#000000" stroke-width="1.2" stroke-linecap="round" d="M23.54,23.618V12.847H12.821
			v10.771H23.54z"/>
		<g i:knockout="Off">
			<path i:knockout="Off" d="M20.051,15.604l-0.703,0.063c-0.063-0.277-0.152-0.479-0.268-0.604
				c-0.191-0.201-0.427-0.302-0.708-0.302c-0.226,0-0.426,0.063-0.602,0.187c-0.218,0.161-0.391,0.396-0.52,0.705
				c-0.128,0.309-0.195,0.75-0.2,1.323c0.17-0.258,0.378-0.449,0.623-0.574c0.246-0.125,0.503-0.188,0.773-0.188
				c0.47,0,0.871,0.173,1.202,0.518c0.331,0.345,0.496,0.791,0.496,1.338c0,0.359-0.078,0.693-0.233,1.002
				c-0.156,0.309-0.369,0.545-0.642,0.709c-0.271,0.164-0.58,0.246-0.925,0.246c-0.588,0-1.068-0.215-1.44-0.646
				c-0.371-0.431-0.557-1.14-0.557-2.129c0-1.106,0.206-1.91,0.617-2.413c0.359-0.437,0.843-0.656,1.451-0.656
				c0.453,0,0.825,0.126,1.114,0.378S19.994,15.16,20.051,15.604z M17.161,18.075c0,0.242,0.052,0.474,0.155,0.694
				c0.104,0.221,0.247,0.39,0.43,0.505c0.183,0.116,0.38,0.174,0.589,0.174c0.304,0,0.562-0.12,0.773-0.359s0.318-0.564,0.318-0.975
				c0-0.395-0.104-0.707-0.314-0.934c-0.209-0.228-0.478-0.341-0.805-0.341c-0.319,0-0.59,0.114-0.813,0.341
				C17.272,17.407,17.161,17.706,17.161,18.075z"/>
		</g>
		<path i:knockout="Off" fill="none" stroke="#000000" stroke-width="1.2" stroke-linecap="round" d="M35.918,23.618V12.847h-10.72
			v10.771H35.918z"/>
		<g i:knockout="Off">
			<path i:knockout="Off" d="M28.755,14.948v-0.672h3.703v0.544c-0.365,0.388-0.728,0.904-1.086,1.548
				c-0.359,0.645-0.636,1.307-0.832,1.988c-0.141,0.48-0.231,1.005-0.27,1.577h-0.719c0.008-0.451,0.096-0.996,0.265-1.635
				s0.411-1.255,0.727-1.849c0.315-0.593,0.651-1.093,1.008-1.5H28.755z"/>
		</g>
		<path i:knockout="Off" fill="none" stroke="#000000" stroke-width="1.2" stroke-linecap="round" d="M48.139,23.618V12.847H37.421
			v10.771H48.139z"/>
		<path i:knockout="Off" fill="none" stroke="#000000" stroke-width="0.7" stroke-linecap="round" d="M72.601,21.335h-10.72"/>
		<g i:knockout="Off">
			<path i:knockout="Off" d="M42.074,16.829c-0.292-0.106-0.508-0.259-0.648-0.457s-0.211-0.436-0.211-0.712
				c0-0.417,0.149-0.767,0.447-1.051c0.299-0.284,0.695-0.426,1.191-0.426c0.498,0,0.898,0.146,1.203,0.436
				c0.303,0.291,0.455,0.644,0.455,1.061c0,0.266-0.069,0.497-0.208,0.694c-0.139,0.196-0.349,0.349-0.632,0.455
				c0.351,0.114,0.617,0.299,0.8,0.554s0.274,0.559,0.274,0.912c0,0.489-0.173,0.899-0.519,1.232s-0.8,0.499-1.364,0.499
				s-1.019-0.167-1.364-0.501s-0.519-0.75-0.519-1.25c0-0.371,0.095-0.683,0.284-0.934S41.723,16.919,42.074,16.829z M41.699,18.28
				c0,0.2,0.046,0.394,0.139,0.58c0.092,0.187,0.232,0.332,0.423,0.434c0.189,0.103,0.393,0.154,0.608,0.154
				c0.341,0,0.619-0.107,0.834-0.323c0.217-0.215,0.324-0.489,0.324-0.821c0-0.337-0.111-0.616-0.334-0.837
				c-0.222-0.221-0.504-0.331-0.848-0.331c-0.336,0-0.61,0.109-0.824,0.327C41.806,17.68,41.699,17.953,41.699,18.28z
				 M41.933,15.635c0,0.271,0.086,0.492,0.257,0.664s0.397,0.258,0.681,0.258c0.275,0,0.497-0.085,0.667-0.256
				c0.17-0.17,0.255-0.379,0.255-0.627c0-0.258-0.088-0.475-0.263-0.65s-0.397-0.264-0.667-0.264c-0.272,0-0.495,0.086-0.669,0.258
				S41.933,15.396,41.933,15.635z"/>
		</g>
		<path i:knockout="Off" fill="none" stroke="#000000" stroke-width="1.2" stroke-linecap="round" d="M60.36,23.618V12.847H49.642
			v10.771H60.36z"/>
		<g i:knockout="Off">
			<path i:knockout="Off" d="M53.673,18.604l0.672-0.063c0.057,0.318,0.166,0.548,0.328,0.691c0.161,0.144,0.368,0.215,0.621,0.215
				c0.216,0,0.406-0.049,0.572-0.147c0.165-0.099,0.299-0.23,0.4-0.395s0.188-0.387,0.258-0.667c0.07-0.28,0.105-0.565,0.105-0.857
				c0-0.031-0.002-0.078-0.004-0.141c-0.141,0.224-0.331,0.406-0.573,0.545c-0.242,0.14-0.505,0.209-0.787,0.209
				c-0.472,0-0.87-0.172-1.197-0.516c-0.326-0.344-0.489-0.797-0.489-1.361c0-0.581,0.171-1.049,0.514-1.404
				c0.342-0.354,0.771-0.532,1.287-0.532c0.372,0,0.713,0.101,1.021,0.301s0.543,0.486,0.703,0.856c0.16,0.371,0.24,0.908,0.24,1.61
				c0,0.731-0.08,1.313-0.239,1.747s-0.396,0.763-0.711,0.989c-0.315,0.227-0.685,0.34-1.107,0.34c-0.449,0-0.816-0.124-1.101-0.373
				C53.902,19.404,53.731,19.055,53.673,18.604z M56.564,16.079c0-0.404-0.106-0.725-0.319-0.962
				c-0.212-0.237-0.473-0.356-0.78-0.356c-0.318,0-0.592,0.128-0.822,0.384c-0.229,0.255-0.344,0.586-0.344,0.993
				c0,0.365,0.109,0.662,0.326,0.89c0.219,0.228,0.492,0.342,0.82,0.342c0.326,0,0.594-0.114,0.805-0.342
				C56.458,16.799,56.564,16.483,56.564,16.079z"/>
		</g>
		<path i:knockout="Off" fill="none" stroke="#000000" stroke-width="1.2" stroke-linecap="round" d="M72.601,23.618V12.847H61.88
			v10.771H72.601z"/>
		<g i:knockout="Off">
			<path i:knockout="Off" d="M65.583,19.932h-0.703v-4.48c-0.169,0.162-0.392,0.323-0.666,0.484
				c-0.274,0.162-0.521,0.283-0.74,0.363v-0.68c0.394-0.185,0.737-0.409,1.031-0.672c0.294-0.263,0.503-0.518,0.625-0.766h0.453
				V19.932z"/>
			<path i:knockout="Off" d="M67.375,17.106c0-0.677,0.07-1.223,0.211-1.638c0.14-0.415,0.349-0.733,0.626-0.954
				c0.277-0.222,0.626-0.332,1.046-0.332c0.31,0,0.583,0.062,0.819,0.186s0.43,0.302,0.579,0.535s0.268,0.517,0.354,0.851
				c0.086,0.334,0.13,0.785,0.13,1.353c0,0.671-0.069,1.215-0.209,1.63c-0.139,0.415-0.347,0.734-0.624,0.956
				c-0.277,0.223-0.627,0.334-1.05,0.334c-0.557,0-0.994-0.195-1.312-0.585C67.566,18.959,67.375,18.181,67.375,17.106z
				 M68.094,17.104c0,0.945,0.112,1.572,0.336,1.881s0.499,0.463,0.828,0.463c0.328,0,0.604-0.155,0.828-0.465
				c0.224-0.31,0.336-0.936,0.336-1.879c0-0.942-0.111-1.569-0.334-1.879c-0.223-0.31-0.502-0.465-0.838-0.465
				c-0.329,0-0.592,0.137-0.791,0.41C68.216,15.52,68.094,16.164,68.094,17.104z"/>
		</g>
		<path i:knockout="Off" fill="none" stroke="#000000" stroke-width="0.7" stroke-linecap="round" d="M72.582,9.088H61.863"/>
		<path i:knockout="Off" fill="none" stroke="#000000" stroke-width="0.7" stroke-linecap="round" d="M60.38,21.335h-10.72"/>
		<path i:knockout="Off" fill="none" stroke="#000000" stroke-width="0.7" stroke-linecap="round" d="M60.36,9.088H49.642"/>
		<path i:knockout="Off" fill="none" stroke="#000000" stroke-width="0.7" stroke-linecap="round" d="M48.16,21.335H37.44"/>
		<path i:knockout="Off" fill="none" stroke="#000000" stroke-width="0.7" stroke-linecap="round" d="M35.939,21.335H25.22"/>
		<path i:knockout="Off" fill="none" stroke="#000000" stroke-width="0.7" stroke-linecap="round" d="M23.579,21.335H12.86"/>
		<path i:knockout="Off" fill="none" stroke="#000000" stroke-width="0.7" stroke-linecap="round" d="M23.559,9.088H12.84"/>
		<path i:knockout="Off" fill="none" stroke="#000000" stroke-width="0.7" stroke-linecap="round" d="M11.358,21.335H0.639"/>
		<path i:knockout="Off" fill="none" stroke="#000000" stroke-width="0.7" stroke-linecap="round" d="M11.338,9.088H0.62"/>
	</g>
</svg>
