<?xml version="1.0" encoding="utf-8"?>
<!-- Generator: Adobe Illustrator 10.0, SVG Export Plug-In . SVG Version: 3.0.0 Build 77)  -->
<!DOCTYPE svg PUBLIC "-//W3C//DTD SVG 1.0//EN"    "http://www.w3.org/TR/2001/REC-SVG-20010904/DTD/svg10.dtd" [
	<!ENTITY ns_flows "http://ns.adobe.com/Flows/1.0/">
	<!ENTITY ns_extend "http://ns.adobe.com/Extensibility/1.0/">
	<!ENTITY ns_ai "http://ns.adobe.com/AdobeIllustrator/10.0/">
	<!ENTITY ns_graphs "http://ns.adobe.com/Graphs/1.0/">
	<!ENTITY ns_vars "http://ns.adobe.com/Variables/1.0/">
	<!ENTITY ns_imrep "http://ns.adobe.com/ImageReplacement/1.0/">
	<!ENTITY ns_sfw "http://ns.adobe.com/SaveForWeb/1.0/">
	<!ENTITY ns_custom "http://ns.adobe.com/GenericCustomNamespace/1.0/">
	<!ENTITY ns_adobe_xpath "http://ns.adobe.com/XPath/1.0/">
	<!ENTITY ns_svg "http://www.w3.org/2000/svg">
	<!ENTITY ns_xlink "http://www.w3.org/1999/xlink">
]>
<svg xmlns:x="&ns_extend;" xmlns:i="&ns_ai;" xmlns:graph="&ns_graphs;" i:viewOrigin="247.251 448.7036" i:rulerOrigin="8 47.1104" i:pageBounds="-8 888.8896 604 -47.1104" xmlns="&ns_svg;" xmlns:xlink="&ns_xlink;" xmlns:a="http://ns.adobe.com/AdobeSVGViewerExtensions/3.0/" width="105.506" height="57.572" viewBox="0 0 105.506 57.572" overflow="visible" enable-background="new 0 0 105.506 57.572" xml:space="preserve" id="svgObj" onload="parent.svgLoad('Top', document)">
	<metadata>
		<variableSets xmlns="&ns_vars;">
			<variableSet varSetName="binding1" locked="none">
				<variables></variables>
				<v:sampleDataSets xmlns="&ns_custom;" xmlns:v="&ns_vars;"></v:sampleDataSets>
			</variableSet>
		</variableSets>
		<sfw xmlns="&ns_sfw;">
			<slices></slices>
			<sliceSourceBounds y="388.708" x="247.251" width="105.506" height="63.363" bottomLeftOrigin="true"></sliceSourceBounds>
		</sfw>
	</metadata>
	<g id="レイヤー_1" i:layer="yes" i:dimmedPercent="100" i:rgbTrio="#4F008000FFFF">
		<g>
			<g>
				<path i:knockout="Off" fill="none" stroke="#000000" stroke-width="0.7" stroke-linecap="round" d="M41.317,41.932V29.591
					h11.344v12.341H41.317z"/>
				<g i:knockout="Off">
					<path i:knockout="Off" d="M45.455,37.873h-0.703v-4.48c-0.169,0.162-0.391,0.323-0.666,0.484
						c-0.275,0.162-0.521,0.283-0.74,0.363v-0.68c0.393-0.185,0.737-0.408,1.031-0.672c0.294-0.263,0.502-0.518,0.625-0.766h0.453
						V37.873z"/>
					<path i:knockout="Off" d="M49.904,37.873h-0.703v-4.48c-0.169,0.162-0.391,0.323-0.666,0.484
						c-0.275,0.162-0.521,0.283-0.74,0.363v-0.68c0.393-0.185,0.737-0.408,1.031-0.672c0.294-0.263,0.502-0.518,0.625-0.766h0.453
						V37.873z"/>
				</g>
				<path i:knockout="Off" fill="none" stroke="#000000" stroke-width="0.7" stroke-linecap="round" d="M52.536,39.634H41.658"/>
				<path i:knockout="Off" fill="none" stroke="#000000" stroke-width="0.7" stroke-linecap="round" d="M52.82,41.932V29.591h11.343
					v12.341H52.82z"/>
				<g i:knockout="Off">
					<path i:knockout="Off" d="M56.959,37.873h-0.703v-4.48c-0.169,0.162-0.392,0.323-0.666,0.484
						c-0.274,0.162-0.521,0.283-0.74,0.363v-0.68c0.394-0.185,0.737-0.408,1.031-0.672c0.294-0.263,0.503-0.518,0.625-0.766h0.453
						V37.873z"/>
					<path i:knockout="Off" d="M62.447,37.201v0.672H58.65c-0.005-0.169,0.022-0.332,0.083-0.488
						c0.097-0.258,0.252-0.511,0.467-0.76c0.214-0.248,0.521-0.537,0.92-0.864c0.62-0.517,1.04-0.923,1.262-1.221
						c0.221-0.298,0.331-0.58,0.331-0.849c0-0.277-0.1-0.513-0.3-0.703c-0.199-0.191-0.459-0.287-0.78-0.287
						c-0.339,0-0.61,0.104-0.813,0.311c-0.204,0.208-0.307,0.494-0.31,0.861l-0.719-0.094c0.05-0.539,0.235-0.949,0.558-1.232
						c0.322-0.282,0.756-0.424,1.3-0.424c0.549,0,0.983,0.152,1.304,0.457c0.319,0.305,0.479,0.683,0.479,1.133
						c0,0.229-0.047,0.455-0.14,0.677c-0.094,0.222-0.248,0.454-0.465,0.699c-0.216,0.245-0.576,0.581-1.08,1.009
						c-0.424,0.355-0.695,0.596-0.815,0.723c-0.12,0.126-0.219,0.253-0.297,0.381H62.447z"/>
				</g>
				<path i:knockout="Off" fill="none" stroke="#000000" stroke-width="0.7" stroke-linecap="round" d="M64.038,39.634H53.161"/>
				<path i:knockout="Off" fill="none" stroke="#000000" stroke-width="0.7" stroke-linecap="round" d="M41.317,54.432V42.091
					h11.344v12.341H41.317z"/>
				<g i:knockout="Off">
					<path i:knockout="Off" d="M45.455,50.373h-0.703v-4.48c-0.169,0.162-0.391,0.323-0.666,0.484
						c-0.275,0.162-0.521,0.283-0.74,0.363v-0.68c0.393-0.185,0.737-0.408,1.031-0.672c0.294-0.263,0.502-0.518,0.625-0.766h0.453
						V50.373z"/>
					<path i:knockout="Off" d="M47.263,48.873l0.719-0.094c0.08,0.393,0.215,0.676,0.405,0.85c0.189,0.173,0.425,0.26,0.707,0.26
						c0.333,0,0.611-0.115,0.834-0.344c0.223-0.23,0.335-0.515,0.335-0.854c0-0.323-0.105-0.59-0.314-0.801
						c-0.209-0.209-0.475-0.314-0.798-0.314c-0.132,0-0.295,0.026-0.492,0.078l0.078-0.625c0.046,0.006,0.083,0.008,0.112,0.008
						c0.294,0,0.559-0.077,0.795-0.232c0.236-0.154,0.354-0.394,0.354-0.717c0-0.256-0.086-0.467-0.259-0.635
						s-0.396-0.252-0.669-0.252c-0.271,0-0.496,0.086-0.677,0.258s-0.297,0.43-0.348,0.773l-0.719-0.125
						c0.085-0.471,0.281-0.836,0.584-1.096c0.304-0.259,0.682-0.389,1.134-0.389c0.312,0,0.599,0.066,0.861,0.2
						c0.263,0.134,0.463,0.315,0.603,0.546c0.139,0.23,0.208,0.476,0.208,0.735c0,0.246-0.066,0.47-0.199,0.673
						c-0.133,0.201-0.33,0.362-0.59,0.481c0.338,0.078,0.604,0.241,0.797,0.487s0.289,0.555,0.289,0.925
						c0,0.501-0.182,0.926-0.547,1.273c-0.365,0.349-0.826,0.522-1.383,0.522c-0.502,0-0.92-0.147-1.252-0.443
						S47.31,49.343,47.263,48.873z"/>
				</g>
				<path i:knockout="Off" fill="none" stroke="#000000" stroke-width="0.7" stroke-linecap="round" d="M52.536,52.134H41.658"/>
				<path i:knockout="Off" fill="none" stroke="#000000" stroke-width="0.7" stroke-linecap="round" d="M52.82,54.432V42.091h11.343
					v12.341H52.82z"/>
				<g i:knockout="Off">
					<path i:knockout="Off" d="M56.959,50.373h-0.703v-4.48c-0.169,0.162-0.392,0.323-0.666,0.484
						c-0.274,0.162-0.521,0.283-0.74,0.363v-0.68c0.394-0.185,0.737-0.408,1.031-0.672c0.294-0.263,0.503-0.518,0.625-0.766h0.453
						V50.373z"/>
					<path i:knockout="Off" d="M61.002,50.373v-1.375h-2.484v-0.641l2.625-3.719h0.563v3.719h0.781v0.641h-0.781v1.375H61.002z
						 M61.002,48.357v-2.566l-1.792,2.566H61.002z"/>
				</g>
				<path i:knockout="Off" fill="none" stroke="#000000" stroke-width="0.7" stroke-linecap="round" d="M64.038,52.134H53.161"/>
				<path i:knockout="Off" fill="none" stroke="#000000" stroke-width="0.7" stroke-linecap="round" d="M41.317,17.059V4.718h11.344
					v12.34H41.317z"/>
				<g i:knockout="Off">
					<path i:knockout="Off" d="M47.679,12.999h-0.703v-4.48c-0.169,0.162-0.391,0.323-0.666,0.484s-0.521,0.283-0.74,0.363v-0.68
						c0.393-0.185,0.737-0.409,1.031-0.672s0.502-0.518,0.625-0.766h0.453V12.999z"/>
				</g>
				<path i:knockout="Off" fill="none" stroke="#000000" stroke-width="0.7" stroke-linecap="round" d="M52.536,14.761H41.658"/>
				<path i:knockout="Off" fill="none" stroke="#000000" stroke-width="0.7" stroke-linecap="round" d="M52.82,17.059V4.718h11.343
					v12.34H52.82z"/>
				<g i:knockout="Off">
					<path i:knockout="Off" d="M60.223,12.327v0.672h-3.797c-0.005-0.169,0.022-0.332,0.083-0.488
						c0.097-0.258,0.252-0.511,0.467-0.76c0.214-0.249,0.521-0.537,0.92-0.864c0.62-0.516,1.04-0.923,1.262-1.221
						c0.221-0.297,0.331-0.581,0.331-0.848c0-0.278-0.1-0.513-0.3-0.704c-0.199-0.191-0.459-0.287-0.78-0.287
						c-0.339,0-0.61,0.104-0.813,0.311c-0.204,0.207-0.307,0.494-0.31,0.861l-0.719-0.094c0.05-0.539,0.235-0.95,0.558-1.232
						s0.756-0.424,1.3-0.424c0.549,0,0.983,0.153,1.304,0.458c0.319,0.305,0.479,0.682,0.479,1.133c0,0.229-0.047,0.455-0.14,0.676
						c-0.094,0.222-0.248,0.455-0.465,0.7c-0.216,0.245-0.576,0.581-1.08,1.009c-0.424,0.355-0.695,0.596-0.815,0.722
						s-0.219,0.254-0.297,0.381H60.223z"/>
				</g>
				<path i:knockout="Off" fill="none" stroke="#000000" stroke-width="0.7" stroke-linecap="round" d="M64.038,14.761H53.161"/>
				<path i:knockout="Off" fill="none" stroke="#000000" stroke-width="0.7" stroke-linecap="round" d="M41.317,29.559V17.218
					h11.344v12.341H41.317z"/>
				<g i:knockout="Off">
					<path i:knockout="Off" d="M45.039,23.999l0.719-0.094c0.08,0.393,0.215,0.676,0.405,0.849c0.189,0.174,0.425,0.26,0.707,0.26
						c0.333,0,0.611-0.115,0.834-0.344s0.335-0.514,0.335-0.854c0-0.323-0.105-0.59-0.314-0.8s-0.475-0.315-0.798-0.315
						c-0.132,0-0.295,0.026-0.492,0.078l0.078-0.625c0.046,0.005,0.083,0.008,0.112,0.008c0.294,0,0.559-0.078,0.795-0.232
						s0.354-0.394,0.354-0.716c0-0.256-0.086-0.468-0.259-0.636c-0.173-0.167-0.396-0.251-0.669-0.251
						c-0.271,0-0.496,0.086-0.677,0.258s-0.297,0.43-0.348,0.773l-0.719-0.125c0.085-0.471,0.281-0.836,0.584-1.096
						s0.682-0.389,1.134-0.389c0.312,0,0.599,0.067,0.861,0.2c0.263,0.133,0.463,0.316,0.603,0.546
						c0.139,0.23,0.208,0.476,0.208,0.734c0,0.246-0.066,0.471-0.199,0.673s-0.33,0.363-0.59,0.482
						c0.338,0.079,0.604,0.241,0.797,0.487c0.193,0.247,0.289,0.555,0.289,0.926c0,0.5-0.182,0.925-0.547,1.273
						c-0.365,0.348-0.826,0.522-1.383,0.522c-0.502,0-0.92-0.148-1.252-0.444S45.085,24.47,45.039,23.999z"/>
				</g>
				<path i:knockout="Off" fill="none" stroke="#000000" stroke-width="0.7" stroke-linecap="round" d="M52.536,27.261H41.658"/>
				<path i:knockout="Off" fill="none" stroke="#000000" stroke-width="0.7" stroke-linecap="round" d="M52.82,29.559V17.218h11.343
					v12.341H52.82z"/>
				<g i:knockout="Off">
					<path i:knockout="Off" d="M58.777,25.499v-1.375h-2.484v-0.641l2.625-3.719h0.563v3.719h0.781v0.641H59.48v1.375H58.777z
						 M58.777,23.483v-2.567l-1.792,2.567H58.777z"/>
				</g>
				<path i:knockout="Off" fill="none" stroke="#000000" stroke-width="0.7" stroke-linecap="round" d="M64.038,27.261H53.161"/>
				<path i:knockout="Off" fill="none" stroke="#000000" stroke-width="0.7" stroke-linecap="round" d="M64.097,56.916V42.108
					h13.607v14.808H64.097z"/>
				<g i:knockout="Off">
					<path i:knockout="Off" d="M69.354,51.044h-0.703v-4.48c-0.17,0.162-0.392,0.323-0.666,0.484
						c-0.275,0.162-0.521,0.283-0.74,0.363v-0.68c0.393-0.185,0.736-0.408,1.031-0.672c0.294-0.263,0.502-0.518,0.625-0.766h0.453
						V51.044z"/>
					<path i:knockout="Off" d="M72.241,47.941c-0.292-0.106-0.508-0.259-0.648-0.457s-0.211-0.436-0.211-0.712
						c0-0.417,0.149-0.767,0.447-1.052c0.299-0.283,0.695-0.426,1.191-0.426c0.498,0,0.898,0.146,1.203,0.436
						c0.303,0.291,0.455,0.645,0.455,1.062c0,0.267-0.069,0.497-0.208,0.694c-0.139,0.196-0.349,0.349-0.632,0.455
						c0.351,0.114,0.617,0.299,0.8,0.554s0.274,0.559,0.274,0.912c0,0.489-0.173,0.899-0.519,1.232s-0.8,0.499-1.364,0.499
						s-1.019-0.167-1.364-0.501s-0.519-0.751-0.519-1.25c0-0.371,0.095-0.683,0.284-0.934S71.891,48.032,72.241,47.941z
						 M71.866,49.392c0,0.2,0.046,0.394,0.139,0.58c0.092,0.188,0.232,0.332,0.423,0.434c0.189,0.104,0.393,0.154,0.608,0.154
						c0.341,0,0.619-0.107,0.834-0.323c0.217-0.215,0.324-0.489,0.324-0.821c0-0.338-0.111-0.616-0.334-0.837
						c-0.222-0.221-0.504-0.331-0.848-0.331c-0.336,0-0.61,0.109-0.824,0.327C71.974,48.792,71.866,49.065,71.866,49.392z
						 M72.101,46.748c0,0.271,0.086,0.492,0.257,0.664s0.397,0.258,0.681,0.258c0.275,0,0.497-0.085,0.667-0.256
						c0.17-0.17,0.255-0.379,0.255-0.627c0-0.258-0.088-0.475-0.263-0.65s-0.397-0.264-0.667-0.264
						c-0.272,0-0.495,0.086-0.669,0.258S72.101,46.508,72.101,46.748z"/>
				</g>
				<path i:knockout="Off" fill="none" stroke="#000000" stroke-width="0.7" stroke-linecap="round" d="M77.556,54.41H64.505"/>
				<path i:knockout="Off" fill="none" stroke="#000000" stroke-width="0.7" stroke-linecap="round" d="M64.097,42.029V27.22h13.607
					v14.809H64.097z"/>
				<path i:knockout="Off" fill="none" stroke="#000000" stroke-width="0.7" stroke-linecap="round" d="M77.704,56.916V42.108
					h13.607v14.808H77.704z"/>
				<path i:knockout="Off" fill="none" stroke="#000000" stroke-width="0.7" stroke-linecap="round" d="M77.704,42.029V27.22h13.607
					v14.809H77.704z"/>
				<path i:knockout="Off" fill="none" stroke="#000000" stroke-width="0.7" stroke-linecap="round" d="M91.312,56.916V42.108
					h13.607v14.808H91.312z"/>
				<path i:knockout="Off" fill="none" stroke="#000000" stroke-width="0.7" stroke-linecap="round" d="M91.312,42.029V27.22h13.607
					v14.809H91.312z"/>
				<g i:knockout="Off">
					<path i:knockout="Off" d="M70.017,33.054c-0.292-0.106-0.508-0.259-0.648-0.457s-0.211-0.436-0.211-0.712
						c0-0.417,0.149-0.767,0.447-1.052c0.299-0.283,0.695-0.426,1.191-0.426c0.498,0,0.898,0.146,1.203,0.436
						c0.303,0.291,0.455,0.645,0.455,1.062c0,0.267-0.069,0.497-0.208,0.694c-0.139,0.196-0.349,0.349-0.632,0.455
						c0.351,0.114,0.617,0.299,0.8,0.554s0.274,0.559,0.274,0.912c0,0.489-0.173,0.899-0.519,1.232s-0.8,0.499-1.364,0.499
						s-1.019-0.167-1.364-0.501S68.923,35,68.923,34.5c0-0.371,0.095-0.683,0.284-0.934S69.666,33.145,70.017,33.054z
						 M69.642,34.505c0,0.2,0.046,0.394,0.139,0.58c0.092,0.188,0.232,0.332,0.423,0.434c0.189,0.104,0.393,0.154,0.608,0.154
						c0.341,0,0.619-0.107,0.834-0.323c0.217-0.215,0.324-0.489,0.324-0.821c0-0.338-0.111-0.616-0.334-0.837
						c-0.222-0.221-0.504-0.331-0.848-0.331c-0.336,0-0.61,0.109-0.824,0.327C69.749,33.906,69.642,34.178,69.642,34.505z
						 M69.876,31.861c0,0.271,0.086,0.492,0.257,0.664s0.397,0.258,0.681,0.258c0.275,0,0.497-0.085,0.667-0.256
						c0.17-0.17,0.255-0.379,0.255-0.627c0-0.258-0.088-0.475-0.263-0.65s-0.397-0.264-0.667-0.264
						c-0.272,0-0.495,0.086-0.669,0.258S69.876,31.622,69.876,31.861z"/>
				</g>
				<g i:knockout="Off">
					<path i:knockout="Off" d="M97.406,50.373v0.672h-3.797c-0.005-0.169,0.022-0.332,0.083-0.488
						c0.097-0.258,0.252-0.511,0.467-0.76c0.214-0.248,0.521-0.537,0.92-0.864c0.62-0.517,1.04-0.923,1.262-1.221
						c0.221-0.298,0.331-0.58,0.331-0.849c0-0.277-0.1-0.513-0.3-0.703c-0.199-0.191-0.459-0.287-0.78-0.287
						c-0.339,0-0.61,0.104-0.813,0.311c-0.204,0.208-0.307,0.494-0.31,0.861l-0.719-0.094c0.05-0.539,0.235-0.949,0.558-1.232
						c0.322-0.282,0.756-0.424,1.3-0.424c0.549,0,0.983,0.152,1.304,0.457c0.319,0.305,0.479,0.683,0.479,1.133
						c0,0.229-0.047,0.455-0.14,0.677c-0.094,0.222-0.248,0.454-0.465,0.699c-0.216,0.245-0.576,0.581-1.08,1.009
						c-0.424,0.355-0.695,0.596-0.815,0.723c-0.12,0.126-0.219,0.253-0.297,0.381H97.406z"/>
					<path i:knockout="Off" d="M98.16,48.218c0-0.677,0.07-1.223,0.211-1.638c0.14-0.415,0.349-0.733,0.626-0.954
						c0.277-0.222,0.626-0.332,1.046-0.332c0.31,0,0.583,0.063,0.819,0.186s0.43,0.302,0.579,0.535
						c0.149,0.232,0.268,0.516,0.354,0.851c0.086,0.335,0.13,0.785,0.13,1.353c0,0.672-0.069,1.215-0.209,1.63
						c-0.139,0.415-0.347,0.733-0.624,0.956s-0.627,0.334-1.05,0.334c-0.557,0-0.994-0.195-1.312-0.586
						C98.351,50.072,98.16,49.293,98.16,48.218z M98.879,48.216c0,0.945,0.112,1.572,0.336,1.881s0.499,0.463,0.828,0.463
						c0.328,0,0.604-0.154,0.828-0.465c0.224-0.31,0.336-0.936,0.336-1.879c0-0.942-0.111-1.568-0.334-1.879
						c-0.223-0.31-0.502-0.465-0.838-0.465c-0.329,0-0.592,0.137-0.791,0.41C99.001,46.632,98.879,47.277,98.879,48.216z"/>
				</g>
				<g i:knockout="Off">
					<path i:knockout="Off" d="M96.367,36.158h-0.703v-4.48c-0.169,0.162-0.392,0.323-0.666,0.484
						c-0.274,0.162-0.521,0.283-0.74,0.363v-0.68c0.394-0.185,0.737-0.408,1.031-0.672c0.294-0.263,0.503-0.518,0.625-0.766h0.453
						V36.158z"/>
					<path i:knockout="Off" d="M98.16,33.332c0-0.677,0.07-1.223,0.211-1.638c0.14-0.415,0.349-0.733,0.626-0.954
						c0.277-0.222,0.626-0.332,1.046-0.332c0.31,0,0.583,0.063,0.819,0.186s0.43,0.302,0.579,0.535
						c0.149,0.232,0.268,0.516,0.354,0.851c0.086,0.335,0.13,0.785,0.13,1.353c0,0.672-0.069,1.215-0.209,1.63
						c-0.139,0.415-0.347,0.733-0.624,0.956s-0.627,0.334-1.05,0.334c-0.557,0-0.994-0.195-1.312-0.586
						C98.351,35.185,98.16,34.407,98.16,33.332z M98.879,33.33c0,0.945,0.112,1.572,0.336,1.881s0.499,0.463,0.828,0.463
						c0.328,0,0.604-0.154,0.828-0.465c0.224-0.31,0.336-0.936,0.336-1.879c0-0.942-0.111-1.568-0.334-1.879
						c-0.223-0.31-0.502-0.465-0.838-0.465c-0.329,0-0.592,0.137-0.791,0.41C99.001,31.746,98.879,32.39,98.879,33.33z"/>
				</g>
				<g i:knockout="Off">
					<path i:knockout="Off" d="M82.761,51.044h-0.703v-4.48c-0.17,0.162-0.392,0.323-0.666,0.484
						c-0.275,0.162-0.521,0.283-0.74,0.363v-0.68c0.393-0.185,0.736-0.408,1.031-0.672c0.294-0.263,0.502-0.518,0.625-0.766h0.453
						V51.044z"/>
					<path i:knockout="Off" d="M84.647,49.716l0.672-0.063c0.057,0.318,0.166,0.549,0.328,0.691
						c0.161,0.144,0.368,0.215,0.621,0.215c0.216,0,0.406-0.049,0.572-0.147c0.165-0.099,0.299-0.229,0.4-0.395
						s0.188-0.387,0.258-0.667c0.07-0.279,0.105-0.565,0.105-0.857c0-0.031-0.002-0.078-0.004-0.141
						c-0.141,0.225-0.331,0.406-0.573,0.545c-0.242,0.14-0.505,0.209-0.787,0.209c-0.472,0-0.87-0.172-1.197-0.516
						c-0.326-0.345-0.489-0.798-0.489-1.361c0-0.581,0.171-1.049,0.514-1.404c0.342-0.354,0.771-0.531,1.287-0.531
						c0.372,0,0.713,0.101,1.021,0.301s0.543,0.486,0.703,0.856c0.16,0.371,0.24,0.907,0.24,1.61c0,0.731-0.08,1.313-0.239,1.747
						s-0.396,0.763-0.711,0.989c-0.315,0.227-0.685,0.34-1.107,0.34c-0.449,0-0.816-0.124-1.101-0.373
						C84.876,50.517,84.705,50.167,84.647,49.716z M87.538,47.191c0-0.404-0.106-0.725-0.319-0.963
						c-0.212-0.236-0.473-0.355-0.78-0.355c-0.318,0-0.592,0.128-0.822,0.384c-0.229,0.255-0.344,0.587-0.344,0.993
						c0,0.365,0.109,0.662,0.326,0.891c0.219,0.228,0.492,0.342,0.82,0.342c0.326,0,0.594-0.114,0.805-0.342
						C87.433,47.912,87.538,47.595,87.538,47.191z"/>
				</g>
				<g i:knockout="Off">
					<path i:knockout="Off" d="M82.423,34.83l0.672-0.063c0.057,0.318,0.166,0.549,0.328,0.691c0.161,0.144,0.368,0.215,0.621,0.215
						c0.216,0,0.406-0.049,0.572-0.147c0.165-0.099,0.299-0.229,0.4-0.395s0.188-0.387,0.258-0.667
						c0.07-0.279,0.105-0.565,0.105-0.857c0-0.031-0.002-0.078-0.004-0.141c-0.141,0.225-0.331,0.406-0.573,0.545
						c-0.242,0.14-0.505,0.209-0.787,0.209c-0.472,0-0.87-0.172-1.197-0.516c-0.326-0.345-0.489-0.798-0.489-1.361
						c0-0.581,0.171-1.049,0.514-1.404c0.342-0.354,0.771-0.531,1.287-0.531c0.372,0,0.713,0.101,1.021,0.301
						s0.543,0.486,0.703,0.856c0.16,0.371,0.24,0.907,0.24,1.61c0,0.731-0.08,1.313-0.239,1.747s-0.396,0.763-0.711,0.989
						c-0.315,0.227-0.685,0.34-1.107,0.34c-0.449,0-0.816-0.124-1.101-0.373C82.651,35.63,82.48,35.281,82.423,34.83z
						 M85.313,32.304c0-0.404-0.106-0.725-0.319-0.963c-0.212-0.236-0.473-0.355-0.78-0.355c-0.318,0-0.592,0.128-0.822,0.384
						c-0.229,0.255-0.344,0.587-0.344,0.993c0,0.365,0.109,0.662,0.326,0.891c0.219,0.228,0.492,0.342,0.82,0.342
						c0.326,0,0.594-0.114,0.805-0.342C85.208,33.025,85.313,32.708,85.313,32.304z"/>
				</g>
				<path i:knockout="Off" fill="none" stroke="#000000" stroke-width="0.7" stroke-linecap="round" d="M77.556,39.523H64.505"/>
				<path i:knockout="Off" fill="none" stroke="#000000" stroke-width="0.7" stroke-linecap="round" d="M90.755,54.41H77.704"/>
				<path i:knockout="Off" fill="none" stroke="#000000" stroke-width="0.7" stroke-linecap="round" d="M90.755,39.523H77.704"/>
				<path i:knockout="Off" fill="none" stroke="#000000" stroke-width="0.7" stroke-linecap="round" d="M104.362,54.41H91.312"/>
				<path i:knockout="Off" fill="none" stroke="#000000" stroke-width="0.7" stroke-linecap="round" d="M104.362,39.523H91.312"/>
				<path i:knockout="Off" fill="none" stroke="#000000" stroke-width="0.7" stroke-linecap="round" d="M27.683,56.916V42.108
					h13.608v14.808H27.683z"/>
				<g i:knockout="Off">
					<path i:knockout="Off" d="M32.941,51.044h-0.703v-4.48c-0.169,0.162-0.391,0.323-0.666,0.484
						c-0.275,0.162-0.521,0.283-0.74,0.363v-0.68c0.393-0.185,0.737-0.408,1.031-0.672c0.294-0.263,0.502-0.518,0.625-0.766h0.453
						V51.044z"/>
					<path i:knockout="Off" d="M34.781,46.06v-0.672h3.703v0.544c-0.365,0.388-0.727,0.904-1.086,1.548
						c-0.359,0.645-0.636,1.307-0.832,1.988c-0.141,0.479-0.231,1.005-0.27,1.576h-0.719c0.008-0.451,0.096-0.996,0.265-1.635
						c0.169-0.64,0.411-1.256,0.727-1.85c0.316-0.593,0.652-1.093,1.008-1.5H34.781z"/>
				</g>
				<path i:knockout="Off" fill="none" stroke="#000000" stroke-width="0.7" stroke-linecap="round" d="M41.142,54.41h-13.05"/>
				<path i:knockout="Off" fill="none" stroke="#000000" stroke-width="0.7" stroke-linecap="round" d="M27.683,42.029V27.22h13.608
					v14.809H27.683z"/>
				<g i:knockout="Off">
					<path i:knockout="Off" d="M32.556,31.173v-0.672h3.703v0.544c-0.365,0.388-0.727,0.904-1.086,1.548
						c-0.359,0.645-0.636,1.307-0.832,1.988c-0.141,0.479-0.231,1.005-0.27,1.576h-0.719c0.008-0.451,0.096-0.996,0.265-1.635
						c0.169-0.64,0.411-1.256,0.727-1.85c0.316-0.593,0.652-1.093,1.008-1.5H32.556z"/>
				</g>
				<path i:knockout="Off" fill="none" stroke="#000000" stroke-width="0.7" stroke-linecap="round" d="M41.142,39.523h-13.05"/>
				<path i:knockout="Off" fill="none" stroke="#000000" stroke-width="0.7" stroke-linecap="round" d="M14.183,56.916V42.108
					h13.608v14.808H14.183z"/>
				<path i:knockout="Off" fill="none" stroke="#000000" stroke-width="0.7" stroke-linecap="round" d="M0.575,56.916V42.108h13.608
					v14.808H0.575z"/>
				<g i:knockout="Off">
					<path i:knockout="Off" d="M19.441,51.044h-0.703v-4.48c-0.169,0.162-0.391,0.323-0.666,0.484
						c-0.275,0.162-0.521,0.283-0.74,0.363v-0.68c0.393-0.185,0.737-0.408,1.031-0.672c0.294-0.263,0.502-0.518,0.625-0.766h0.453
						V51.044z"/>
					<path i:knockout="Off" d="M24.906,46.716l-0.703,0.063c-0.063-0.277-0.152-0.479-0.267-0.604
						c-0.191-0.201-0.428-0.302-0.708-0.302c-0.226,0-0.427,0.063-0.602,0.188c-0.218,0.16-0.391,0.396-0.519,0.705
						c-0.129,0.309-0.195,0.75-0.201,1.322c0.17-0.258,0.377-0.449,0.624-0.574c0.245-0.125,0.503-0.188,0.772-0.188
						c0.471,0,0.871,0.173,1.202,0.518C24.834,48.189,25,48.634,25,49.181c0,0.359-0.078,0.693-0.233,1.002s-0.37,0.545-0.641,0.709
						c-0.272,0.164-0.581,0.246-0.926,0.246c-0.588,0-1.068-0.215-1.439-0.646c-0.372-0.43-0.557-1.14-0.557-2.129
						c0-1.105,0.206-1.91,0.617-2.412c0.359-0.438,0.842-0.656,1.451-0.656c0.453,0,0.825,0.126,1.114,0.378
						S24.848,46.272,24.906,46.716z M22.015,49.187c0,0.242,0.051,0.474,0.155,0.694c0.104,0.222,0.247,0.39,0.43,0.505
						c0.183,0.116,0.379,0.174,0.589,0.174c0.303,0,0.561-0.119,0.773-0.359c0.212-0.238,0.318-0.563,0.318-0.975
						c0-0.395-0.105-0.707-0.314-0.934c-0.21-0.229-0.478-0.342-0.805-0.342c-0.319,0-0.59,0.113-0.813,0.342
						C22.126,48.519,22.015,48.818,22.015,49.187z"/>
				</g>
				<path i:knockout="Off" fill="none" stroke="#000000" stroke-width="0.7" stroke-linecap="round" d="M27.642,54.41h-13.05"/>
				<path i:knockout="Off" fill="none" stroke="#000000" stroke-width="0.7" stroke-linecap="round" d="M13.998,54.41H0.947"/>
				<path i:knockout="Off" fill="none" stroke="#000000" stroke-width="0.7" stroke-linecap="round" d="M14.183,42.029V27.22h13.608
					v14.809H14.183z"/>
				<path i:knockout="Off" fill="none" stroke="#000000" stroke-width="0.7" stroke-linecap="round" d="M0.575,42.029V27.22h13.608
					v14.809H0.575z"/>
				<g i:knockout="Off">
					<path i:knockout="Off" d="M22.681,31.83l-0.703,0.063c-0.063-0.277-0.152-0.479-0.267-0.604
						c-0.191-0.201-0.428-0.302-0.708-0.302c-0.226,0-0.427,0.063-0.602,0.188c-0.218,0.16-0.391,0.396-0.519,0.705
						c-0.129,0.309-0.195,0.75-0.201,1.322c0.17-0.258,0.377-0.449,0.624-0.574c0.245-0.125,0.503-0.188,0.772-0.188
						c0.471,0,0.871,0.173,1.202,0.518c0.331,0.346,0.496,0.791,0.496,1.338c0,0.359-0.078,0.693-0.233,1.002
						s-0.37,0.545-0.641,0.709c-0.272,0.164-0.581,0.246-0.926,0.246c-0.588,0-1.068-0.215-1.439-0.646
						c-0.372-0.43-0.557-1.14-0.557-2.129c0-1.105,0.206-1.91,0.617-2.412c0.359-0.438,0.842-0.656,1.451-0.656
						c0.453,0,0.825,0.126,1.114,0.378S22.624,31.385,22.681,31.83z M19.791,34.3c0,0.242,0.051,0.474,0.155,0.694
						c0.104,0.222,0.247,0.39,0.43,0.505c0.183,0.116,0.379,0.174,0.589,0.174c0.303,0,0.561-0.119,0.773-0.359
						c0.212-0.238,0.318-0.563,0.318-0.975c0-0.395-0.105-0.707-0.314-0.934c-0.21-0.229-0.478-0.342-0.805-0.342
						c-0.319,0-0.59,0.113-0.813,0.342C19.901,33.632,19.791,33.931,19.791,34.3z"/>
				</g>
				<g i:knockout="Off">
					<path i:knockout="Off" d="M5.631,51.044H4.928v-4.48c-0.169,0.162-0.392,0.323-0.666,0.484
						c-0.275,0.162-0.521,0.283-0.74,0.363v-0.68c0.393-0.185,0.737-0.408,1.031-0.672c0.294-0.263,0.502-0.518,0.625-0.766h0.453
						V51.044z"/>
					<path i:knockout="Off" d="M7.424,49.544l0.719-0.063c0.055,0.358,0.182,0.627,0.379,0.808s0.441,0.271,0.729,0.271
						c0.349,0,0.639-0.127,0.871-0.382c0.232-0.254,0.348-0.592,0.348-1.013c0-0.399-0.111-0.715-0.332-0.946
						c-0.222-0.231-0.519-0.347-0.891-0.347c-0.232,0-0.438,0.051-0.617,0.152s-0.322,0.232-0.426,0.395l-0.656-0.094l0.563-2.938
						h2.844v0.672H8.67l-0.313,1.549c0.344-0.24,0.704-0.361,1.082-0.361c0.5,0,0.922,0.173,1.266,0.52
						c0.344,0.346,0.516,0.791,0.516,1.334c0,0.518-0.151,0.965-0.453,1.343c-0.367,0.463-0.869,0.694-1.504,0.694
						c-0.521,0-0.946-0.146-1.275-0.437C7.659,50.411,7.471,50.025,7.424,49.544z"/>
				</g>
				<g i:knockout="Off">
					<path i:knockout="Off" d="M5.199,34.658l0.719-0.063c0.055,0.358,0.182,0.627,0.379,0.808s0.441,0.271,0.729,0.271
						c0.349,0,0.639-0.127,0.871-0.382c0.232-0.254,0.348-0.592,0.348-1.013c0-0.399-0.111-0.715-0.332-0.946
						c-0.222-0.231-0.519-0.347-0.891-0.347c-0.232,0-0.438,0.051-0.617,0.152s-0.322,0.232-0.426,0.395l-0.656-0.094l0.563-2.938
						H8.73v0.672H6.445l-0.313,1.549c0.344-0.24,0.704-0.361,1.082-0.361c0.5,0,0.922,0.173,1.266,0.52
						c0.344,0.346,0.516,0.791,0.516,1.334c0,0.518-0.151,0.965-0.453,1.343c-0.367,0.463-0.869,0.694-1.504,0.694
						c-0.521,0-0.946-0.146-1.275-0.437C5.434,35.524,5.246,35.138,5.199,34.658z"/>
				</g>
				<path i:knockout="Off" fill="none" stroke="#000000" stroke-width="0.7" stroke-linecap="round" d="M27.642,39.523h-13.05"/>
				<path i:knockout="Off" fill="none" stroke="#000000" stroke-width="0.7" stroke-linecap="round" d="M13.998,39.523H0.947"/>
				<g>
					<g>
						<g>
							<path i:knockout="Off" fill="none" stroke="#000000" stroke-width="1.2" stroke-linecap="round" d="M14.403,27.399v-3.977
								h3.255v3.977"/>
						</g>
					</g>
					<g>
						<g>
							<path i:knockout="Off" fill="none" stroke="#000000" stroke-width="1.2" stroke-linecap="round" d="M0.6,27.399v-6.812h3.255
								v6.812"/>
						</g>
					</g>
				</g>
				<g>
					<g>
						<g>
							<path i:knockout="Off" fill="none" stroke="#000000" stroke-width="1.2" stroke-linecap="round" d="M88.058,27.399v-3.977
								h3.254v3.977"/>
						</g>
					</g>
					<g>
						<g>
							<path i:knockout="Off" fill="none" stroke="#000000" stroke-width="1.2" stroke-linecap="round" d="M48.569,4.718V0.6h8.223
								v4.118"/>
						</g>
					</g>
					<g>
						<g>
							<path i:knockout="Off" fill="none" stroke="#000000" stroke-width="1.2" stroke-linecap="round" d="M101.651,27.399v-6.812
								h3.255v6.812"/>
						</g>
					</g>
				</g>
			</g>
			<g>
				<path i:knockout="Off" fill="none" stroke="#000000" stroke-width="1.2" stroke-linecap="round" d="M64.163,27.456V4.813H41.342
					v22.642H0.6v29.509h40.742v-2.5h22.821v2.508h40.743V27.456H64.163z"/>
			</g>
		</g>
	</g>
</svg>
