<?xml version="1.0" encoding="utf-8"?>
<!-- Generator: Adobe Illustrator 10.0, SVG Export Plug-In . SVG Version: 3.0.0 Build 77)  -->
<!DOCTYPE svg PUBLIC "-//W3C//DTD SVG 1.0//EN"    "http://www.w3.org/TR/2001/REC-SVG-20010904/DTD/svg10.dtd" [
	<!ENTITY ns_flows "http://ns.adobe.com/Flows/1.0/">
	<!ENTITY ns_extend "http://ns.adobe.com/Extensibility/1.0/">
	<!ENTITY ns_ai "http://ns.adobe.com/AdobeIllustrator/10.0/">
	<!ENTITY ns_graphs "http://ns.adobe.com/Graphs/1.0/">
	<!ENTITY ns_vars "http://ns.adobe.com/Variables/1.0/">
	<!ENTITY ns_imrep "http://ns.adobe.com/ImageReplacement/1.0/">
	<!ENTITY ns_sfw "http://ns.adobe.com/SaveForWeb/1.0/">
	<!ENTITY ns_custom "http://ns.adobe.com/GenericCustomNamespace/1.0/">
	<!ENTITY ns_adobe_xpath "http://ns.adobe.com/XPath/1.0/">
	<!ENTITY ns_svg "http://www.w3.org/2000/svg">
	<!ENTITY ns_xlink "http://www.w3.org/1999/xlink">
]>
<svg xmlns:x="&ns_extend;" xmlns:i="&ns_ai;" xmlns:graph="&ns_graphs;" i:viewOrigin="268.9082 435.6172" i:rulerOrigin="-1 0.1104" i:pageBounds="1 841.8896 596 -0.1104" xmlns="&ns_svg;" xmlns:xlink="&ns_xlink;" xmlns:a="http://ns.adobe.com/AdobeSVGViewerExtensions/3.0/" width="57.914" height="29.444" viewBox="0 0 57.914 29.444" overflow="visible" enable-background="new 0 0 57.914 29.444" xml:space="preserve" id="svgObj" onload="parent.svgLoad('Top', document)">
	<metadata>
		<variableSets xmlns="&ns_vars;">
			<variableSet varSetName="binding1" locked="none">
				<variables></variables>
				<v:sampleDataSets xmlns="&ns_custom;" xmlns:v="&ns_vars;"></v:sampleDataSets>
			</variableSet>
		</variableSets>
		<sfw xmlns="&ns_sfw;">
			<slices></slices>
			<sliceSourceBounds y="406.173" x="268.908" width="57.914" height="29.444" bottomLeftOrigin="true"></sliceSourceBounds>
		</sfw>
	</metadata>
	<g id="レイヤー_1" i:layer="yes" i:dimmedPercent="50" i:rgbTrio="#4F008000FFFF">
		<g>
			<path i:knockout="Off" fill="none" stroke="#000000" stroke-width="0.7" stroke-linecap="round" d="M45.939,16.505V4.167H11.938
				v12.338H45.939z"/>
			<path i:knockout="Off" fill="none" stroke="#000000" stroke-width="0.7" stroke-linecap="round" d="M45.953,4.167v12.338h11.34
				V4.167"/>
			<path i:knockout="Off" fill="none" stroke="#000000" stroke-width="0.7" stroke-linecap="round" d="M23.278,16.505V4.167H11.938
				v12.338H23.278z"/>
			<path i:knockout="Off" fill="none" stroke="#000000" stroke-width="0.7" stroke-linecap="round" d="M34.615,16.505V4.167H23.278
				v12.338H34.615z"/>
			<path i:knockout="Off" fill="none" stroke="#000000" stroke-width="0.7" stroke-linecap="round" d="M45.953,16.505V4.167H34.615
				v12.338H45.953z"/>
			<path i:knockout="Off" fill="none" stroke="#000000" stroke-width="1.2" stroke-linecap="round" d="M32.158,4.002V0.6h-5.669
				v3.402"/>
			<path i:knockout="Off" fill="none" stroke="#000000" stroke-width="1.2" stroke-linecap="round" d="M47.739,4.002V0.6h-3.67
				v3.402"/>
			<path i:knockout="Off" fill="none" stroke="#000000" stroke-width="1.2" stroke-linecap="round" d="M13.809,4.002V0.6h-3.67
				v3.402"/>
			<g i:knockout="Off">
				<path i:knockout="Off" d="M49.678,11.12l0.719-0.063c0.055,0.358,0.182,0.627,0.379,0.808c0.198,0.18,0.441,0.271,0.73,0.271
					c0.348,0,0.639-0.127,0.871-0.381c0.231-0.255,0.348-0.592,0.348-1.013c0-0.4-0.111-0.716-0.332-0.947
					c-0.222-0.231-0.519-0.347-0.891-0.347c-0.232,0-0.438,0.051-0.617,0.152c-0.18,0.102-0.322,0.233-0.426,0.395l-0.656-0.094
					l0.563-2.938h2.844v0.672h-2.285l-0.313,1.549c0.344-0.241,0.704-0.362,1.082-0.362c0.5,0,0.922,0.173,1.266,0.519
					c0.344,0.346,0.516,0.791,0.516,1.334c0,0.518-0.151,0.965-0.453,1.342c-0.367,0.463-0.869,0.695-1.504,0.695
					c-0.521,0-0.946-0.145-1.275-0.436C49.912,11.986,49.725,11.601,49.678,11.12z"/>
			</g>
			<g i:knockout="Off">
				<path i:knockout="Off" d="M40.594,12.62v-1.375h-2.484v-0.641l2.625-3.719h0.563v3.719h0.781v0.641h-0.781v1.375H40.594z
					 M40.594,10.604V8.037l-1.793,2.567H40.594z"/>
			</g>
			<g i:knockout="Off">
				<path i:knockout="Off" d="M27.026,11.12l0.719-0.094c0.08,0.393,0.215,0.676,0.405,0.849c0.189,0.174,0.425,0.26,0.707,0.26
					c0.333,0,0.611-0.115,0.834-0.344s0.335-0.514,0.335-0.854c0-0.323-0.105-0.59-0.314-0.8s-0.475-0.315-0.798-0.315
					c-0.132,0-0.295,0.026-0.492,0.078L28.5,9.276c0.046,0.005,0.083,0.008,0.112,0.008c0.294,0,0.559-0.078,0.795-0.232
					s0.354-0.394,0.354-0.716c0-0.256-0.086-0.468-0.259-0.636c-0.173-0.167-0.396-0.251-0.669-0.251
					c-0.271,0-0.496,0.086-0.677,0.258s-0.297,0.43-0.348,0.773l-0.719-0.125c0.085-0.471,0.281-0.836,0.584-1.096
					s0.682-0.389,1.134-0.389c0.312,0,0.599,0.067,0.861,0.2c0.263,0.133,0.463,0.316,0.603,0.546
					c0.139,0.23,0.208,0.476,0.208,0.734c0,0.246-0.066,0.471-0.199,0.673S29.95,9.386,29.69,9.505
					c0.338,0.079,0.604,0.241,0.796,0.487c0.193,0.247,0.289,0.555,0.289,0.926c0,0.5-0.182,0.925-0.547,1.273
					c-0.364,0.348-0.825,0.522-1.382,0.522c-0.502,0-0.92-0.148-1.252-0.444S27.073,11.591,27.026,11.12z"/>
			</g>
			<g i:knockout="Off">
				<path i:knockout="Off" d="M19.374,11.948v0.672h-3.797c-0.005-0.169,0.022-0.332,0.083-0.488
					c0.098-0.258,0.253-0.511,0.467-0.76s0.521-0.537,0.92-0.864c0.619-0.516,1.04-0.923,1.261-1.221
					c0.221-0.297,0.332-0.581,0.332-0.848c0-0.278-0.1-0.513-0.299-0.704c-0.2-0.191-0.46-0.287-0.781-0.287
					c-0.339,0-0.611,0.104-0.814,0.311c-0.204,0.207-0.307,0.494-0.309,0.861l-0.719-0.094c0.049-0.539,0.235-0.95,0.558-1.232
					c0.322-0.283,0.755-0.424,1.299-0.424c0.549,0,0.983,0.153,1.303,0.458c0.32,0.305,0.48,0.682,0.48,1.133
					c0,0.229-0.046,0.455-0.14,0.676c-0.093,0.222-0.248,0.455-0.464,0.7c-0.217,0.245-0.577,0.581-1.081,1.009
					c-0.423,0.355-0.695,0.596-0.814,0.722c-0.12,0.126-0.219,0.254-0.297,0.381H19.374z"/>
			</g>
			<path i:knockout="Off" fill="none" stroke="#000000" stroke-width="0.7" d="M6.042,4.167"/>
			<path i:knockout="Off" fill="none" stroke="#000000" stroke-width="0.7" stroke-linecap="round" d="M51.57,4.167"/>
			<path i:knockout="Off" fill="none" stroke="#000000" stroke-width="0.7" stroke-linecap="round" d="M0.6,4.167v12.338h11.338
				V4.167"/>
			<g i:knockout="Off">
				<path i:knockout="Off" d="M6.57,12.62H5.867v-4.48C5.698,8.301,5.476,8.462,5.201,8.624C4.926,8.785,4.68,8.906,4.461,8.987
					v-0.68c0.393-0.185,0.737-0.409,1.031-0.672C5.786,7.372,5.995,7.117,6.117,6.87H6.57V12.62z"/>
			</g>
			<path i:knockout="Off" fill="none" stroke="#000000" stroke-width="0.7" stroke-linecap="round" d="M57.293,28.845v-12.34H11.938
				v12.34H57.293z"/>
			<path i:knockout="Off" fill="none" stroke="#000000" stroke-width="0.7" stroke-linecap="round" d="M57.293,28.845v-12.34h-11.34
				v12.34H57.293z"/>
			<path i:knockout="Off" fill="none" stroke="#000000" stroke-width="0.7" stroke-linecap="round" d="M23.278,28.845v-12.34H11.938
				v12.34H23.278z"/>
			<path i:knockout="Off" fill="none" stroke="#000000" stroke-width="0.7" stroke-linecap="round" d="M34.615,28.845v-12.34H23.278
				v12.34H34.615z"/>
			<path i:knockout="Off" fill="none" stroke="#000000" stroke-width="0.7" stroke-linecap="round" d="M45.953,28.845v-12.34H34.615
				v12.34H45.953z"/>
			<g i:knockout="Off">
				<path i:knockout="Off" d="M49.684,24.341H48.98v-4.48c-0.17,0.162-0.392,0.323-0.666,0.484c-0.275,0.162-0.521,0.283-0.74,0.363
					v-0.68c0.393-0.185,0.736-0.408,1.031-0.672c0.294-0.263,0.502-0.518,0.625-0.766h0.453V24.341z"/>
				<path i:knockout="Off" d="M51.477,21.515c0-0.677,0.07-1.223,0.211-1.638s0.349-0.733,0.626-0.954
					c0.277-0.222,0.626-0.332,1.046-0.332c0.31,0,0.583,0.063,0.819,0.186s0.429,0.302,0.579,0.535
					c0.149,0.232,0.268,0.516,0.354,0.851s0.13,0.785,0.13,1.353c0,0.672-0.069,1.215-0.209,1.63
					c-0.139,0.415-0.348,0.733-0.624,0.956c-0.277,0.223-0.627,0.334-1.05,0.334c-0.557,0-0.994-0.195-1.312-0.586
					C51.667,23.368,51.477,22.59,51.477,21.515z M52.195,21.513c0,0.945,0.111,1.572,0.336,1.881c0.224,0.309,0.5,0.463,0.828,0.463
					s0.604-0.154,0.828-0.465c0.224-0.31,0.336-0.936,0.336-1.879c0-0.942-0.111-1.568-0.334-1.879
					c-0.223-0.31-0.502-0.465-0.838-0.465c-0.328,0-0.592,0.137-0.791,0.41C52.317,19.929,52.195,20.573,52.195,21.513z"/>
			</g>
			<g i:knockout="Off">
				<path i:knockout="Off" d="M38.012,23.013l0.672-0.063c0.057,0.318,0.166,0.549,0.328,0.691c0.161,0.144,0.368,0.215,0.621,0.215
					c0.216,0,0.406-0.049,0.572-0.147c0.165-0.099,0.299-0.229,0.4-0.395s0.188-0.387,0.258-0.667
					c0.07-0.279,0.105-0.565,0.105-0.857c0-0.031-0.002-0.078-0.004-0.141c-0.141,0.225-0.331,0.406-0.573,0.545
					c-0.242,0.14-0.505,0.209-0.787,0.209c-0.472,0-0.87-0.172-1.197-0.516c-0.326-0.345-0.489-0.798-0.489-1.361
					c0-0.581,0.171-1.049,0.514-1.404c0.342-0.354,0.771-0.531,1.287-0.531c0.372,0,0.713,0.101,1.021,0.301
					s0.543,0.486,0.703,0.856c0.16,0.371,0.24,0.907,0.24,1.61c0,0.731-0.08,1.313-0.239,1.747s-0.396,0.763-0.711,0.989
					c-0.315,0.227-0.685,0.34-1.107,0.34c-0.449,0-0.816-0.124-1.101-0.373C38.24,23.813,38.069,23.464,38.012,23.013z
					 M40.902,20.487c0-0.404-0.106-0.725-0.319-0.963c-0.212-0.236-0.473-0.355-0.78-0.355c-0.318,0-0.592,0.128-0.822,0.384
					c-0.229,0.255-0.344,0.587-0.344,0.993c0,0.365,0.109,0.662,0.326,0.891c0.219,0.228,0.492,0.342,0.82,0.342
					c0.326,0,0.594-0.114,0.805-0.342C40.797,21.208,40.902,20.892,40.902,20.487z"/>
			</g>
			<g i:knockout="Off">
				<path i:knockout="Off" d="M27.68,21.237c-0.292-0.106-0.508-0.259-0.648-0.457s-0.21-0.436-0.21-0.712
					c0-0.417,0.149-0.767,0.448-1.052c0.298-0.283,0.695-0.426,1.191-0.426c0.498,0,0.899,0.146,1.203,0.436
					c0.304,0.291,0.455,0.645,0.455,1.062c0,0.267-0.069,0.497-0.208,0.694c-0.139,0.196-0.349,0.349-0.631,0.455
					c0.35,0.114,0.616,0.299,0.799,0.554s0.274,0.559,0.274,0.912c0,0.489-0.172,0.899-0.518,1.232
					c-0.346,0.333-0.8,0.499-1.364,0.499s-1.019-0.167-1.365-0.501s-0.518-0.751-0.518-1.25c0-0.371,0.094-0.683,0.284-0.934
					S27.33,21.328,27.68,21.237z M27.305,22.688c0,0.2,0.046,0.394,0.138,0.58c0.093,0.188,0.233,0.332,0.423,0.434
					c0.19,0.104,0.393,0.154,0.608,0.154c0.34,0,0.619-0.107,0.834-0.323c0.216-0.215,0.324-0.489,0.324-0.821
					c0-0.338-0.111-0.616-0.333-0.837s-0.505-0.331-0.848-0.331c-0.335,0-0.61,0.109-0.825,0.327
					C27.412,22.089,27.305,22.361,27.305,22.688z M27.54,20.044c0,0.271,0.085,0.492,0.256,0.664
					c0.171,0.172,0.398,0.258,0.681,0.258c0.275,0,0.497-0.085,0.667-0.256c0.17-0.17,0.255-0.379,0.255-0.627
					c0-0.258-0.087-0.475-0.263-0.65s-0.397-0.264-0.667-0.264c-0.272,0-0.496,0.086-0.669,0.258S27.54,19.805,27.54,20.044z"/>
			</g>
			<g i:knockout="Off">
				<path i:knockout="Off" d="M15.299,19.356v-0.672h3.703v0.544c-0.365,0.388-0.727,0.904-1.086,1.548
					c-0.359,0.645-0.636,1.307-0.832,1.988c-0.141,0.479-0.231,1.005-0.27,1.576h-0.719c0.008-0.451,0.096-0.996,0.265-1.635
					c0.169-0.64,0.411-1.256,0.727-1.85c0.316-0.593,0.652-1.093,1.008-1.5H15.299z"/>
			</g>
			<path i:knockout="Off" fill="none" stroke="#000000" stroke-width="0.7" stroke-linecap="round" d="M11.938,28.845v-12.34H0.6
				v12.34H11.938z"/>
			<g i:knockout="Off">
				<path i:knockout="Off" d="M7.586,20.013l-0.703,0.063c-0.063-0.277-0.152-0.479-0.268-0.604
					c-0.191-0.201-0.427-0.302-0.708-0.302c-0.226,0-0.426,0.063-0.602,0.188c-0.218,0.16-0.391,0.396-0.52,0.705
					c-0.128,0.309-0.195,0.75-0.2,1.322c0.17-0.258,0.378-0.449,0.623-0.574c0.246-0.125,0.503-0.188,0.773-0.188
					c0.47,0,0.871,0.173,1.202,0.518c0.331,0.346,0.496,0.791,0.496,1.338c0,0.359-0.078,0.693-0.233,1.002
					c-0.156,0.309-0.369,0.545-0.642,0.709c-0.271,0.164-0.58,0.246-0.925,0.246c-0.588,0-1.068-0.215-1.44-0.646
					c-0.371-0.43-0.557-1.14-0.557-2.129c0-1.105,0.206-1.91,0.617-2.412c0.359-0.438,0.843-0.656,1.451-0.656
					c0.453,0,0.825,0.126,1.114,0.378S7.528,19.568,7.586,20.013z M4.695,22.483c0,0.242,0.052,0.474,0.155,0.694
					c0.104,0.222,0.247,0.39,0.43,0.505c0.183,0.116,0.38,0.174,0.589,0.174c0.304,0,0.562-0.119,0.773-0.359
					c0.212-0.238,0.318-0.563,0.318-0.975c0-0.395-0.104-0.707-0.314-0.934c-0.209-0.229-0.478-0.342-0.805-0.342
					c-0.319,0-0.59,0.113-0.813,0.342C4.807,21.815,4.695,22.114,4.695,22.483z"/>
			</g>
			<path i:knockout="Off" fill="none" stroke="#000000" stroke-width="1.2" stroke-linecap="round" d="M57.314,4.167v24.678H0.6
				V4.149L57.314,4.167z"/>
			<path i:knockout="Off" fill="none" stroke="#000000" stroke-width="0.7" stroke-linecap="round" d="M0.688,26.763h56.593"/>
			<path i:knockout="Off" fill="none" stroke="#000000" stroke-width="0.7" stroke-linecap="round" d="M0.688,14.78h56.593"/>
		</g>
	</g>
</svg>
