<?xml version="1.0" encoding="utf-8"?>
<!-- Generator: Adobe Illustrator 10.0, SVG Export Plug-In . SVG Version: 3.0.0 Build 77)  -->
<!DOCTYPE svg PUBLIC "-//W3C//DTD SVG 1.0//EN"    "http://www.w3.org/TR/2001/REC-SVG-20010904/DTD/svg10.dtd" [
	<!ENTITY ns_flows "http://ns.adobe.com/Flows/1.0/">
	<!ENTITY ns_extend "http://ns.adobe.com/Extensibility/1.0/">
	<!ENTITY ns_ai "http://ns.adobe.com/AdobeIllustrator/10.0/">
	<!ENTITY ns_graphs "http://ns.adobe.com/Graphs/1.0/">
	<!ENTITY ns_vars "http://ns.adobe.com/Variables/1.0/">
	<!ENTITY ns_imrep "http://ns.adobe.com/ImageReplacement/1.0/">
	<!ENTITY ns_sfw "http://ns.adobe.com/SaveForWeb/1.0/">
	<!ENTITY ns_custom "http://ns.adobe.com/GenericCustomNamespace/1.0/">
	<!ENTITY ns_adobe_xpath "http://ns.adobe.com/XPath/1.0/">
	<!ENTITY ns_svg "http://www.w3.org/2000/svg">
	<!ENTITY ns_xlink "http://www.w3.org/1999/xlink">
]>
<svg xmlns:x="&ns_extend;" xmlns:i="&ns_ai;" xmlns:graph="&ns_graphs;" i:viewOrigin="281.23 428.793" i:rulerOrigin="-1 0.1104" i:pageBounds="1 841.8896 596 -0.1104" xmlns="&ns_svg;" xmlns:xlink="&ns_xlink;" xmlns:a="http://ns.adobe.com/AdobeSVGViewerExtensions/3.0/" width="35.445" height="18.25" viewBox="0 0 35.445 18.25" overflow="visible" enable-background="new 0 0 35.445 18.25" xml:space="preserve" id="svgObj" onload="parent.svgLoad('Top', document)">
	<metadata>
		<variableSets xmlns="&ns_vars;">
			<variableSet varSetName="binding1" locked="none">
				<variables></variables>
				<v:sampleDataSets xmlns="&ns_custom;" xmlns:v="&ns_vars;"></v:sampleDataSets>
			</variableSet>
		</variableSets>
		<sfw xmlns="&ns_sfw;">
			<slices></slices>
			<sliceSourceBounds y="388.708" x="257.815" width="80.371" height="63.363" bottomLeftOrigin="true"></sliceSourceBounds>
		</sfw>
	</metadata>
	<g id="レイヤー_1" i:layer="yes" i:dimmedPercent="100" i:rgbTrio="#4F008000FFFF">
		<g>
			<path i:knockout="Off" fill="none" stroke="#000000" stroke-width="0.7" stroke-linecap="round" d="M0.628,15.38H34.88"/>
			<path i:knockout="Off" fill="none" stroke="#000000" stroke-width="1.2" stroke-linecap="round" d="M20.747,4.043V0.642h-5.669
				v3.401H20.747z"/>
			<path i:knockout="Off" fill="none" stroke="#000000" stroke-width="1.2" stroke-linecap="round" d="M3.867,4.041V0.6H0.6v14.792
				l1.918,2.259h30.48l1.847-2.259V4.041H3.867z"/>
			<g i:knockout="Off">
				<path i:knockout="Off" d="M7.146,12.968H6.443v-4.48C6.273,8.649,6.051,8.811,5.777,8.972c-0.275,0.162-0.521,0.283-0.74,0.363
					v-0.68C5.43,8.471,5.773,8.247,6.068,7.983C6.362,7.721,6.57,7.465,6.693,7.218h0.453V12.968z"/>
			</g>
			<g i:knockout="Off">
				<path i:knockout="Off" d="M19.712,12.296v0.672h-3.797c-0.005-0.169,0.022-0.332,0.083-0.488
					c0.097-0.258,0.252-0.511,0.467-0.76c0.214-0.248,0.521-0.537,0.92-0.864c0.62-0.517,1.04-0.923,1.262-1.221
					c0.221-0.298,0.331-0.58,0.331-0.849c0-0.278-0.1-0.513-0.3-0.704c-0.199-0.191-0.459-0.287-0.78-0.287
					c-0.339,0-0.61,0.104-0.814,0.311s-0.307,0.494-0.309,0.861l-0.719-0.094c0.049-0.539,0.235-0.95,0.558-1.232
					c0.323-0.282,0.756-0.424,1.3-0.424c0.549,0,0.983,0.152,1.304,0.457c0.319,0.305,0.479,0.683,0.479,1.133
					c0,0.229-0.047,0.455-0.14,0.676c-0.094,0.222-0.248,0.454-0.465,0.699c-0.216,0.245-0.576,0.581-1.08,1.009
					c-0.424,0.355-0.695,0.596-0.815,0.723c-0.12,0.126-0.219,0.253-0.297,0.381H19.712z"/>
			</g>
			<g i:knockout="Off">
				<path i:knockout="Off" d="M27.5,11.468l0.719-0.094c0.08,0.393,0.215,0.676,0.405,0.85c0.189,0.173,0.425,0.26,0.706,0.26
					c0.333,0,0.611-0.115,0.835-0.344c0.223-0.23,0.335-0.515,0.335-0.854c0-0.323-0.104-0.59-0.313-0.801
					c-0.209-0.209-0.476-0.314-0.798-0.314c-0.132,0-0.296,0.026-0.492,0.078l0.077-0.625c0.047,0.006,0.084,0.008,0.112,0.008
					c0.294,0,0.56-0.077,0.795-0.232c0.235-0.154,0.354-0.394,0.354-0.717c0-0.255-0.087-0.467-0.259-0.635
					c-0.174-0.168-0.396-0.252-0.67-0.252c-0.271,0-0.496,0.086-0.676,0.258c-0.182,0.172-0.297,0.43-0.349,0.773l-0.719-0.125
					c0.086-0.471,0.28-0.836,0.585-1.096c0.304-0.259,0.682-0.389,1.134-0.389c0.312,0,0.599,0.067,0.861,0.2
					c0.263,0.134,0.463,0.315,0.603,0.546c0.139,0.231,0.208,0.476,0.208,0.735c0,0.246-0.066,0.47-0.199,0.673
					c-0.133,0.201-0.329,0.362-0.59,0.481c0.339,0.078,0.604,0.241,0.797,0.487s0.289,0.555,0.289,0.925
					c0,0.501-0.183,0.926-0.547,1.273c-0.364,0.349-0.825,0.522-1.383,0.522c-0.503,0-0.92-0.147-1.252-0.443
					S27.546,11.938,27.5,11.468z"/>
			</g>
		</g>
		<path i:knockout="Off" fill="none" stroke="#000000" stroke-width="0.7" stroke-linecap="round" d="M12.076,15.268V4.054"/>
		<path i:knockout="Off" fill="none" stroke="#000000" stroke-width="0.7" stroke-linecap="round" d="M23.516,15.268V4.054"/>
	</g>
</svg>
