<?xml version="1.0" encoding="utf-8"?>
<!-- Generator: Adobe Illustrator 10.0, SVG Export Plug-In . SVG Version: 3.0.0 Build 77)  -->
<!DOCTYPE svg PUBLIC "-//W3C//DTD SVG 1.0//EN"    "http://www.w3.org/TR/2001/REC-SVG-20010904/DTD/svg10.dtd" [
	<!ENTITY ns_flows "http://ns.adobe.com/Flows/1.0/">
	<!ENTITY ns_extend "http://ns.adobe.com/Extensibility/1.0/">
	<!ENTITY ns_ai "http://ns.adobe.com/AdobeIllustrator/10.0/">
	<!ENTITY ns_graphs "http://ns.adobe.com/Graphs/1.0/">
	<!ENTITY ns_vars "http://ns.adobe.com/Variables/1.0/">
	<!ENTITY ns_imrep "http://ns.adobe.com/ImageReplacement/1.0/">
	<!ENTITY ns_sfw "http://ns.adobe.com/SaveForWeb/1.0/">
	<!ENTITY ns_custom "http://ns.adobe.com/GenericCustomNamespace/1.0/">
	<!ENTITY ns_adobe_xpath "http://ns.adobe.com/XPath/1.0/">
	<!ENTITY ns_svg "http://www.w3.org/2000/svg">
	<!ENTITY ns_xlink "http://www.w3.org/1999/xlink">
]>
<svg xmlns:x="&ns_extend;" xmlns:i="&ns_ai;" xmlns:graph="&ns_graphs;" i:viewOrigin="216.5913 438.1626" i:rulerOrigin="8 47.1104" i:pageBounds="-8 888.8896 604 -47.1104" xmlns="&ns_svg;" xmlns:xlink="&ns_xlink;" xmlns:a="http://ns.adobe.com/AdobeSVGViewerExtensions/3.0/" width="164.853" height="34.411" viewBox="0 0 164.853 34.411" overflow="visible" enable-background="new 0 0 164.853 34.411" xml:space="preserve" id="svgObj" onload="parent.svgLoad('Top', document)">
	<metadata>
		<variableSets xmlns="&ns_vars;">
			<variableSet varSetName="binding1" locked="none">
				<variables></variables>
				<v:sampleDataSets xmlns="&ns_custom;" xmlns:v="&ns_vars;"></v:sampleDataSets>
			</variableSet>
		</variableSets>
		<sfw xmlns="&ns_sfw;">
			<slices></slices>
			<sliceSourceBounds y="388.708" x="178.445" width="239.111" height="63.363" bottomLeftOrigin="true"></sliceSourceBounds>
		</sfw>
	</metadata>
	<g id="レイヤー_1" i:layer="yes" i:dimmedPercent="100" i:rgbTrio="#4F008000FFFF">
		<path i:knockout="Off" fill="none" stroke="#000000" stroke-width="0.7" d="M29.55,19.138V4.462H14.986v14.676H29.55z"/>
		<g i:knockout="Off">
			<path i:knockout="Off" d="M23.71,13.897v0.672h-3.797c-0.005-0.169,0.022-0.332,0.083-0.488c0.097-0.258,0.252-0.511,0.467-0.76
				c0.214-0.249,0.521-0.537,0.92-0.864c0.62-0.516,1.04-0.923,1.261-1.221s0.332-0.58,0.332-0.849c0-0.278-0.1-0.513-0.299-0.704
				s-0.46-0.287-0.781-0.287c-0.339,0-0.61,0.104-0.814,0.311s-0.307,0.494-0.309,0.861l-0.719-0.094
				c0.049-0.539,0.235-0.95,0.558-1.232c0.323-0.282,0.756-0.424,1.3-0.424c0.549,0,0.983,0.152,1.303,0.457s0.48,0.683,0.48,1.133
				c0,0.229-0.047,0.455-0.14,0.676c-0.094,0.221-0.248,0.454-0.465,0.699c-0.216,0.245-0.576,0.581-1.081,1.009
				c-0.423,0.355-0.695,0.596-0.815,0.722c-0.12,0.126-0.219,0.253-0.297,0.381H23.71z"/>
		</g>
		<path i:knockout="Off" fill="none" stroke="#000000" stroke-width="0.7" d="M41.283,19.138V7.297H29.553v11.841H41.283z"/>
		<g i:knockout="Off">
			<path i:knockout="Off" d="M33.165,13.919l0.719-0.063c0.055,0.358,0.182,0.627,0.379,0.808c0.198,0.181,0.441,0.271,0.729,0.271
				c0.349,0,0.639-0.127,0.871-0.382c0.232-0.254,0.348-0.592,0.348-1.013c0-0.399-0.111-0.715-0.332-0.946
				c-0.222-0.231-0.519-0.347-0.891-0.347c-0.232,0-0.438,0.051-0.617,0.152s-0.322,0.233-0.426,0.395l-0.656-0.094l0.563-2.938
				h2.844v0.672h-2.285l-0.313,1.549c0.344-0.241,0.704-0.361,1.082-0.361c0.5,0,0.922,0.173,1.266,0.519s0.516,0.791,0.516,1.334
				c0,0.518-0.151,0.965-0.453,1.343c-0.367,0.463-0.869,0.694-1.504,0.694c-0.521,0-0.946-0.146-1.275-0.437
				C33.399,14.786,33.211,14.4,33.165,13.919z"/>
		</g>
		<path i:knockout="Off" fill="none" stroke="#000000" stroke-width="0.7" d="M53.026,19.138V7.297H41.296v11.841H53.026z"/>
		<g i:knockout="Off">
			<path i:knockout="Off" d="M48.58,11.091l-0.703,0.063c-0.063-0.277-0.152-0.479-0.268-0.604
				c-0.191-0.201-0.427-0.302-0.708-0.302c-0.226,0-0.426,0.063-0.602,0.187c-0.218,0.161-0.391,0.396-0.52,0.705
				c-0.128,0.309-0.195,0.75-0.2,1.323c0.17-0.258,0.378-0.449,0.623-0.574c0.246-0.125,0.503-0.188,0.773-0.188
				c0.47,0,0.871,0.173,1.202,0.518c0.331,0.345,0.496,0.791,0.496,1.338c0,0.359-0.078,0.693-0.233,1.002
				c-0.156,0.309-0.369,0.545-0.642,0.709c-0.271,0.164-0.58,0.246-0.925,0.246c-0.588,0-1.068-0.215-1.44-0.646
				c-0.371-0.431-0.557-1.14-0.557-2.129c0-1.106,0.206-1.91,0.617-2.413c0.359-0.437,0.843-0.656,1.451-0.656
				c0.453,0,0.825,0.126,1.114,0.378S48.522,10.647,48.58,11.091z M45.689,13.562c0,0.242,0.052,0.474,0.155,0.694
				c0.104,0.221,0.247,0.39,0.43,0.505c0.183,0.116,0.38,0.174,0.589,0.174c0.304,0,0.562-0.12,0.773-0.359s0.318-0.564,0.318-0.975
				c0-0.395-0.104-0.707-0.314-0.934c-0.209-0.228-0.478-0.341-0.805-0.341c-0.319,0-0.59,0.114-0.813,0.341
				C45.8,12.895,45.689,13.193,45.689,13.562z"/>
		</g>
		<path i:knockout="Off" fill="none" stroke="#000000" stroke-width="0.7" d="M64.758,19.138V7.297H53.029v11.841H64.758z"/>
		<g i:knockout="Off">
			<path i:knockout="Off" d="M56.687,10.435V9.763h3.703v0.544c-0.365,0.388-0.728,0.904-1.086,1.548
				c-0.359,0.645-0.636,1.307-0.832,1.988c-0.141,0.48-0.231,1.005-0.27,1.577h-0.719c0.008-0.451,0.096-0.996,0.265-1.635
				s0.411-1.255,0.727-1.849c0.315-0.593,0.651-1.093,1.008-1.5H56.687z"/>
		</g>
		<path i:knockout="Off" fill="none" stroke="#000000" stroke-width="0.7" d="M76.488,19.138V7.297H64.759v11.841H76.488z"/>
		<g i:knockout="Off">
			<path i:knockout="Off" d="M69.463,12.316c-0.292-0.106-0.508-0.259-0.648-0.457s-0.21-0.436-0.21-0.712
				c0-0.417,0.149-0.767,0.448-1.051c0.298-0.284,0.695-0.426,1.191-0.426c0.498,0,0.899,0.146,1.203,0.436s0.456,0.644,0.456,1.061
				c0,0.266-0.069,0.497-0.208,0.694c-0.139,0.196-0.349,0.349-0.631,0.455c0.35,0.114,0.616,0.299,0.799,0.554
				s0.274,0.559,0.274,0.912c0,0.489-0.173,0.899-0.519,1.232s-0.8,0.499-1.364,0.499s-1.019-0.167-1.365-0.501
				s-0.518-0.75-0.518-1.25c0-0.371,0.094-0.683,0.284-0.934S69.113,12.407,69.463,12.316z M69.089,13.767
				c0,0.2,0.046,0.394,0.138,0.58c0.093,0.187,0.233,0.332,0.423,0.434s0.393,0.154,0.608,0.154c0.34,0,0.619-0.107,0.834-0.323
				c0.216-0.215,0.324-0.489,0.324-0.821c0-0.337-0.111-0.616-0.333-0.837s-0.505-0.331-0.848-0.331
				c-0.335,0-0.61,0.109-0.825,0.327C69.196,13.167,69.089,13.44,69.089,13.767z M69.323,11.123c0,0.271,0.085,0.492,0.256,0.664
				c0.171,0.172,0.398,0.258,0.681,0.258c0.275,0,0.497-0.085,0.667-0.256c0.17-0.17,0.255-0.379,0.255-0.627
				c0-0.258-0.087-0.475-0.263-0.65s-0.397-0.264-0.667-0.264c-0.272,0-0.496,0.086-0.669,0.258S69.323,10.883,69.323,11.123z"/>
		</g>
		<path i:knockout="Off" fill="none" stroke="#000000" stroke-width="0.7" d="M88.222,19.138V7.297H76.491v11.841H88.222z"/>
		<g i:knockout="Off">
			<path i:knockout="Off" d="M80.196,14.091l0.672-0.063c0.057,0.318,0.167,0.548,0.328,0.691c0.162,0.144,0.369,0.215,0.621,0.215
				c0.216,0,0.407-0.049,0.572-0.147s0.298-0.23,0.4-0.395s0.188-0.387,0.258-0.667c0.07-0.28,0.105-0.565,0.105-0.857
				c0-0.031-0.001-0.078-0.004-0.141c-0.14,0.224-0.33,0.406-0.572,0.545c-0.243,0.14-0.505,0.209-0.787,0.209
				c-0.472,0-0.871-0.172-1.197-0.516c-0.327-0.344-0.49-0.797-0.49-1.361c0-0.581,0.171-1.049,0.514-1.404s0.771-0.532,1.287-0.532
				c0.373,0,0.712,0.101,1.021,0.301s0.543,0.486,0.703,0.856c0.16,0.371,0.24,0.908,0.24,1.61c0,0.731-0.079,1.313-0.238,1.747
				c-0.16,0.434-0.396,0.763-0.712,0.989c-0.314,0.227-0.684,0.34-1.106,0.34c-0.45,0-0.817-0.124-1.102-0.373
				C80.425,14.892,80.253,14.542,80.196,14.091z M83.086,11.566c0-0.404-0.105-0.725-0.318-0.962s-0.473-0.356-0.781-0.356
				c-0.318,0-0.592,0.128-0.822,0.384c-0.229,0.255-0.344,0.586-0.344,0.993c0,0.365,0.109,0.662,0.327,0.89s0.491,0.342,0.82,0.342
				c0.326,0,0.594-0.114,0.804-0.342S83.086,11.97,83.086,11.566z"/>
		</g>
		<path i:knockout="Off" fill="none" stroke="#000000" stroke-width="0.7" d="M29.55,33.809V19.134H14.986v14.675H29.55z"/>
		<g i:knockout="Off">
			<path i:knockout="Off" d="M20.447,28.872h-0.703v-4.48c-0.169,0.161-0.392,0.323-0.666,0.484
				c-0.275,0.161-0.521,0.282-0.74,0.363v-0.68c0.393-0.185,0.737-0.409,1.031-0.672c0.294-0.263,0.502-0.519,0.625-0.766h0.453
				V28.872z"/>
			<path i:knockout="Off" d="M22.24,27.372l0.719-0.063c0.055,0.358,0.182,0.628,0.379,0.808c0.198,0.181,0.441,0.271,0.729,0.271
				c0.349,0,0.639-0.127,0.871-0.382c0.232-0.254,0.348-0.592,0.348-1.013c0-0.399-0.111-0.715-0.332-0.946
				c-0.222-0.23-0.519-0.347-0.891-0.347c-0.232,0-0.438,0.051-0.617,0.152s-0.322,0.233-0.426,0.395l-0.656-0.094l0.563-2.938
				h2.844v0.672h-2.285l-0.313,1.549c0.344-0.241,0.704-0.361,1.082-0.361c0.5,0,0.922,0.173,1.266,0.519
				c0.344,0.347,0.516,0.791,0.516,1.335c0,0.518-0.151,0.966-0.453,1.343c-0.367,0.463-0.869,0.694-1.504,0.694
				c-0.521,0-0.946-0.146-1.275-0.437C22.475,28.238,22.287,27.852,22.24,27.372z"/>
		</g>
		<path i:knockout="Off" fill="none" stroke="#000000" stroke-width="0.7" d="M14.986,19.138V4.462H0.422v14.676H14.986z"/>
		<g i:knockout="Off">
			<path i:knockout="Off" d="M8.107,14.569H7.404v-4.48c-0.169,0.162-0.392,0.323-0.666,0.484c-0.275,0.162-0.521,0.283-0.74,0.363
				v-0.68c0.393-0.185,0.737-0.409,1.031-0.672c0.294-0.263,0.502-0.518,0.625-0.766h0.453V14.569z"/>
		</g>
		<path i:knockout="Off" fill="none" stroke="#000000" stroke-width="0.7" d="M14.986,33.809V19.134H0.422v14.675H14.986z"/>
		<g i:knockout="Off">
			<path i:knockout="Off" d="M5.882,28.872H5.179v-4.48c-0.169,0.161-0.392,0.323-0.666,0.484c-0.275,0.161-0.521,0.282-0.74,0.363
				v-0.68c0.393-0.185,0.737-0.409,1.031-0.672c0.294-0.263,0.502-0.519,0.625-0.766h0.453V28.872z"/>
			<path i:knockout="Off" d="M9.925,28.872v-1.375H7.441v-0.641l2.625-3.719h0.563v3.719h0.781v0.641h-0.781v1.375H9.925z
				 M9.925,26.856V24.29l-1.792,2.566H9.925z"/>
		</g>
		<path i:knockout="Off" fill="none" stroke="#000000" stroke-width="0.7" d="M41.283,33.809V21.968H29.553v11.841H41.283z"/>
		<g i:knockout="Off">
			<path i:knockout="Off" d="M33.596,29.721h-0.703v-4.48c-0.169,0.161-0.392,0.323-0.666,0.484
				c-0.275,0.161-0.521,0.282-0.74,0.363v-0.68c0.393-0.185,0.737-0.409,1.031-0.672c0.294-0.263,0.502-0.519,0.625-0.766h0.453
				V29.721z"/>
			<path i:knockout="Off" d="M36.482,26.618c-0.292-0.106-0.507-0.259-0.648-0.457s-0.211-0.436-0.211-0.712
				c0-0.417,0.149-0.768,0.447-1.051c0.299-0.285,0.696-0.427,1.191-0.427c0.498,0,0.899,0.146,1.203,0.437
				c0.304,0.29,0.456,0.644,0.456,1.061c0,0.266-0.069,0.497-0.208,0.694c-0.139,0.196-0.349,0.349-0.631,0.455
				c0.35,0.114,0.617,0.299,0.799,0.554s0.274,0.559,0.274,0.912c0,0.489-0.173,0.899-0.519,1.232s-0.8,0.499-1.364,0.499
				s-1.019-0.167-1.364-0.501s-0.519-0.75-0.519-1.25c0-0.371,0.095-0.683,0.284-0.934S36.132,26.708,36.482,26.618z M36.108,28.069
				c0,0.2,0.046,0.394,0.139,0.58c0.092,0.187,0.233,0.331,0.423,0.435c0.189,0.102,0.393,0.153,0.608,0.153
				c0.341,0,0.619-0.107,0.834-0.323c0.216-0.215,0.324-0.489,0.324-0.821c0-0.337-0.111-0.616-0.333-0.837
				s-0.505-0.331-0.848-0.331c-0.335,0-0.61,0.109-0.825,0.327S36.108,27.742,36.108,28.069z M36.342,25.424
				c0,0.271,0.085,0.492,0.257,0.664c0.171,0.172,0.398,0.258,0.681,0.258c0.275,0,0.497-0.085,0.667-0.256s0.255-0.38,0.255-0.627
				c0-0.258-0.088-0.475-0.263-0.65s-0.397-0.264-0.667-0.264c-0.272,0-0.495,0.086-0.669,0.258S36.342,25.185,36.342,25.424z"/>
		</g>
		<path i:knockout="Off" fill="none" stroke="#000000" stroke-width="0.7" d="M53.026,33.809V21.968H41.296v11.841H53.026z"/>
		<g i:knockout="Off">
			<path i:knockout="Off" d="M45.339,29.721h-0.703v-4.48c-0.169,0.161-0.392,0.323-0.666,0.484
				c-0.275,0.161-0.521,0.282-0.74,0.363v-0.68c0.393-0.185,0.737-0.409,1.031-0.672c0.294-0.263,0.502-0.519,0.625-0.766h0.453
				V29.721z"/>
			<path i:knockout="Off" d="M47.226,28.393l0.672-0.063c0.057,0.317,0.167,0.548,0.328,0.691c0.161,0.144,0.368,0.215,0.621,0.215
				c0.216,0,0.407-0.049,0.572-0.147c0.165-0.099,0.299-0.23,0.4-0.395s0.188-0.387,0.258-0.667s0.105-0.565,0.105-0.857
				c0-0.031-0.001-0.078-0.004-0.141c-0.14,0.224-0.331,0.405-0.573,0.545s-0.505,0.209-0.787,0.209
				c-0.472,0-0.871-0.172-1.197-0.517c-0.326-0.344-0.489-0.797-0.489-1.36c0-0.581,0.171-1.05,0.514-1.403
				c0.342-0.355,0.771-0.532,1.287-0.532c0.372,0,0.713,0.101,1.021,0.301s0.543,0.485,0.703,0.856s0.24,0.908,0.24,1.61
				c0,0.731-0.08,1.313-0.239,1.747s-0.396,0.764-0.711,0.989c-0.315,0.227-0.684,0.34-1.107,0.34c-0.449,0-0.816-0.124-1.101-0.373
				S47.284,28.843,47.226,28.393z M50.117,25.868c0-0.404-0.106-0.726-0.319-0.962c-0.212-0.238-0.473-0.356-0.78-0.356
				c-0.318,0-0.592,0.128-0.822,0.384s-0.344,0.586-0.344,0.993c0,0.365,0.109,0.662,0.327,0.89c0.218,0.229,0.491,0.343,0.82,0.343
				c0.326,0,0.594-0.114,0.804-0.343C50.012,26.588,50.117,26.272,50.117,25.868z"/>
		</g>
		<path i:knockout="Off" fill="none" stroke="#000000" stroke-width="0.7" d="M64.758,33.809V21.968H53.029v11.841H64.758z"/>
		<g i:knockout="Off">
			<path i:knockout="Off" d="M58.111,29.049v0.672h-3.797c-0.005-0.169,0.022-0.332,0.083-0.488c0.097-0.258,0.252-0.511,0.467-0.76
				c0.214-0.249,0.521-0.536,0.92-0.864c0.62-0.516,1.04-0.923,1.261-1.221s0.332-0.58,0.332-0.849c0-0.278-0.1-0.513-0.299-0.704
				c-0.2-0.19-0.46-0.286-0.781-0.286c-0.339,0-0.61,0.104-0.814,0.312c-0.204,0.207-0.307,0.494-0.309,0.86l-0.719-0.094
				c0.049-0.539,0.235-0.95,0.558-1.232c0.323-0.282,0.756-0.424,1.3-0.424c0.549,0,0.983,0.152,1.303,0.457s0.48,0.683,0.48,1.134
				c0,0.229-0.047,0.454-0.14,0.676c-0.094,0.221-0.248,0.454-0.465,0.699c-0.216,0.245-0.576,0.581-1.081,1.009
				c-0.423,0.354-0.695,0.596-0.815,0.722c-0.12,0.127-0.219,0.254-0.297,0.382H58.111z"/>
			<path i:knockout="Off" d="M58.865,26.895c0-0.677,0.07-1.223,0.211-1.638c0.14-0.415,0.349-0.733,0.626-0.954
				c0.277-0.222,0.626-0.332,1.046-0.332c0.31,0,0.583,0.062,0.819,0.186s0.429,0.302,0.579,0.534
				c0.149,0.233,0.268,0.518,0.354,0.852c0.086,0.334,0.13,0.785,0.13,1.353c0,0.671-0.069,1.215-0.209,1.63
				c-0.139,0.415-0.347,0.734-0.624,0.956c-0.277,0.223-0.627,0.334-1.05,0.334c-0.557,0-0.994-0.195-1.312-0.585
				C59.055,28.748,58.865,27.97,58.865,26.895z M59.583,26.893c0,0.945,0.112,1.572,0.336,1.881c0.224,0.309,0.5,0.463,0.828,0.463
				c0.328,0,0.604-0.155,0.828-0.465s0.336-0.937,0.336-1.879s-0.111-1.569-0.334-1.879s-0.502-0.465-0.838-0.465
				c-0.329,0-0.592,0.137-0.791,0.41C59.706,25.308,59.583,25.953,59.583,26.893z"/>
		</g>
		<path i:knockout="Off" fill="none" stroke="#000000" stroke-width="0.7" d="M76.488,33.809V21.968H64.759v11.841H76.488z"/>
		<g i:knockout="Off">
			<path i:knockout="Off" d="M69.841,29.049v0.672h-3.797c-0.005-0.169,0.022-0.332,0.083-0.488c0.098-0.258,0.253-0.511,0.467-0.76
				s0.521-0.536,0.92-0.864c0.619-0.516,1.04-0.923,1.261-1.221c0.221-0.298,0.332-0.58,0.332-0.849c0-0.278-0.1-0.513-0.299-0.704
				c-0.2-0.19-0.46-0.286-0.781-0.286c-0.339,0-0.611,0.104-0.814,0.312c-0.204,0.207-0.307,0.494-0.309,0.86l-0.719-0.094
				c0.049-0.539,0.235-0.95,0.558-1.232c0.322-0.282,0.755-0.424,1.299-0.424c0.549,0,0.983,0.152,1.303,0.457
				c0.32,0.305,0.48,0.683,0.48,1.134c0,0.229-0.046,0.454-0.14,0.676c-0.093,0.221-0.248,0.454-0.464,0.699
				c-0.217,0.245-0.577,0.581-1.081,1.009c-0.423,0.354-0.695,0.596-0.814,0.722c-0.12,0.127-0.219,0.254-0.297,0.382H69.841z"/>
			<path i:knockout="Off" d="M73.251,29.721h-0.703v-4.48c-0.169,0.161-0.391,0.323-0.666,0.484s-0.521,0.282-0.74,0.363v-0.68
				c0.393-0.185,0.737-0.409,1.031-0.672s0.502-0.519,0.625-0.766h0.453V29.721z"/>
		</g>
		<path i:knockout="Off" fill="none" stroke="#000000" stroke-width="0.7" d="M88.222,33.809V21.968H76.491v11.841H88.222z"/>
		<g i:knockout="Off">
			<path i:knockout="Off" d="M81.573,29.049v0.672h-3.797c-0.005-0.169,0.022-0.332,0.083-0.488c0.098-0.258,0.253-0.511,0.467-0.76
				s0.521-0.536,0.92-0.864c0.619-0.516,1.04-0.923,1.261-1.221c0.221-0.298,0.332-0.58,0.332-0.849c0-0.278-0.1-0.513-0.299-0.704
				c-0.2-0.19-0.46-0.286-0.781-0.286c-0.339,0-0.611,0.104-0.814,0.312c-0.204,0.207-0.307,0.494-0.309,0.86l-0.719-0.094
				c0.049-0.539,0.235-0.95,0.558-1.232c0.322-0.282,0.755-0.424,1.299-0.424c0.549,0,0.983,0.152,1.303,0.457
				c0.32,0.305,0.48,0.683,0.48,1.134c0,0.229-0.046,0.454-0.14,0.676c-0.093,0.221-0.248,0.454-0.464,0.699
				c-0.217,0.245-0.577,0.581-1.081,1.009c-0.423,0.354-0.695,0.596-0.814,0.722c-0.12,0.127-0.219,0.254-0.297,0.382H81.573z"/>
			<path i:knockout="Off" d="M86.022,29.049v0.672h-3.796c-0.005-0.169,0.022-0.332,0.083-0.488c0.098-0.258,0.253-0.511,0.468-0.76
				c0.214-0.249,0.521-0.536,0.92-0.864c0.619-0.516,1.039-0.923,1.261-1.221c0.221-0.298,0.331-0.58,0.331-0.849
				c0-0.278-0.1-0.513-0.299-0.704c-0.199-0.19-0.46-0.286-0.781-0.286c-0.339,0-0.61,0.104-0.813,0.312
				c-0.204,0.207-0.307,0.494-0.31,0.86l-0.718-0.094c0.049-0.539,0.236-0.95,0.558-1.232s0.756-0.424,1.299-0.424
				c0.549,0,0.983,0.152,1.304,0.457c0.319,0.305,0.479,0.683,0.479,1.134c0,0.229-0.046,0.454-0.14,0.676
				c-0.093,0.221-0.248,0.454-0.464,0.699c-0.217,0.245-0.577,0.581-1.081,1.009c-0.423,0.354-0.694,0.596-0.814,0.722
				c-0.12,0.127-0.219,0.254-0.297,0.382H86.022z"/>
		</g>
		<path i:knockout="Off" fill="none" stroke="#000000" stroke-width="0.7" d="M123.39,19.138V7.297h-11.729v11.841H123.39z"/>
		<g i:knockout="Off">
			<path i:knockout="Off" d="M115.705,15.419h-0.703v-4.48c-0.169,0.162-0.392,0.323-0.666,0.484
				c-0.274,0.162-0.521,0.283-0.74,0.363v-0.68c0.394-0.185,0.737-0.409,1.031-0.672c0.294-0.263,0.503-0.518,0.625-0.766h0.453
				V15.419z"/>
			<path i:knockout="Off" d="M121.193,14.748v0.672h-3.797c-0.005-0.169,0.022-0.332,0.083-0.488
				c0.097-0.258,0.252-0.511,0.467-0.76c0.214-0.249,0.521-0.537,0.92-0.864c0.62-0.516,1.04-0.923,1.262-1.221
				c0.221-0.298,0.331-0.58,0.331-0.849c0-0.278-0.1-0.513-0.3-0.704c-0.199-0.191-0.459-0.287-0.78-0.287
				c-0.339,0-0.61,0.104-0.813,0.311c-0.204,0.208-0.307,0.494-0.31,0.861l-0.719-0.094c0.05-0.539,0.235-0.95,0.558-1.232
				c0.322-0.282,0.756-0.424,1.3-0.424c0.549,0,0.983,0.152,1.304,0.457c0.319,0.305,0.479,0.683,0.479,1.133
				c0,0.229-0.047,0.455-0.14,0.676c-0.094,0.221-0.248,0.454-0.465,0.699c-0.216,0.245-0.576,0.581-1.08,1.009
				c-0.424,0.355-0.695,0.596-0.815,0.722s-0.219,0.253-0.297,0.381H121.193z"/>
		</g>
		<path i:knockout="Off" fill="none" stroke="#000000" stroke-width="0.7" d="M135.123,19.138V7.297h-11.729v11.841H135.123z"/>
		<g i:knockout="Off">
			<path i:knockout="Off" d="M127.437,15.419h-0.703v-4.48c-0.169,0.162-0.392,0.323-0.666,0.484
				c-0.274,0.162-0.521,0.283-0.74,0.363v-0.68c0.394-0.185,0.737-0.409,1.031-0.672c0.294-0.263,0.503-0.518,0.625-0.766h0.453
				V15.419z"/>
			<path i:knockout="Off" d="M129.246,13.919l0.719-0.094c0.08,0.393,0.215,0.676,0.405,0.85c0.189,0.173,0.425,0.26,0.706,0.26
				c0.333,0,0.611-0.115,0.835-0.344c0.223-0.229,0.335-0.514,0.335-0.853c0-0.323-0.104-0.59-0.313-0.8s-0.476-0.315-0.798-0.315
				c-0.132,0-0.296,0.026-0.492,0.078l0.077-0.625c0.047,0.005,0.084,0.008,0.112,0.008c0.294,0,0.56-0.077,0.795-0.232
				c0.235-0.155,0.354-0.394,0.354-0.717c0-0.255-0.087-0.467-0.259-0.635c-0.174-0.168-0.396-0.252-0.67-0.252
				c-0.271,0-0.496,0.086-0.676,0.258c-0.182,0.172-0.297,0.43-0.349,0.773l-0.719-0.125c0.086-0.471,0.28-0.836,0.585-1.096
				c0.304-0.259,0.682-0.389,1.134-0.389c0.312,0,0.599,0.067,0.861,0.2c0.263,0.134,0.463,0.315,0.603,0.546
				c0.139,0.231,0.208,0.476,0.208,0.735c0,0.246-0.066,0.47-0.199,0.672s-0.329,0.363-0.59,0.482
				c0.339,0.078,0.604,0.241,0.797,0.487c0.192,0.246,0.289,0.555,0.289,0.925c0,0.501-0.183,0.926-0.547,1.273
				c-0.364,0.349-0.825,0.522-1.383,0.522c-0.503,0-0.92-0.147-1.252-0.443S129.292,14.39,129.246,13.919z"/>
		</g>
		<path i:knockout="Off" fill="none" stroke="#000000" stroke-width="0.7" d="M149.691,19.138V4.462h-14.564v14.676H149.691z"/>
		<g i:knockout="Off">
			<path i:knockout="Off" d="M140.171,13.069l0.719-0.094c0.08,0.393,0.215,0.676,0.405,0.85c0.189,0.173,0.425,0.26,0.706,0.26
				c0.333,0,0.611-0.115,0.835-0.344c0.223-0.229,0.335-0.514,0.335-0.853c0-0.323-0.104-0.59-0.313-0.8s-0.476-0.315-0.798-0.315
				c-0.132,0-0.296,0.026-0.492,0.078l0.077-0.625c0.047,0.005,0.084,0.008,0.112,0.008c0.294,0,0.56-0.077,0.795-0.232
				c0.235-0.155,0.354-0.394,0.354-0.717c0-0.255-0.087-0.467-0.259-0.635c-0.174-0.168-0.396-0.252-0.67-0.252
				c-0.271,0-0.496,0.086-0.676,0.258c-0.182,0.172-0.297,0.43-0.349,0.773l-0.719-0.125c0.086-0.471,0.28-0.836,0.585-1.096
				c0.304-0.259,0.682-0.389,1.134-0.389c0.312,0,0.599,0.067,0.861,0.2c0.263,0.134,0.463,0.315,0.603,0.546
				c0.139,0.231,0.208,0.476,0.208,0.735c0,0.246-0.066,0.47-0.199,0.672s-0.329,0.363-0.59,0.482
				c0.339,0.078,0.604,0.241,0.797,0.487c0.192,0.246,0.289,0.555,0.289,0.925c0,0.501-0.183,0.926-0.547,1.273
				c-0.364,0.349-0.825,0.522-1.383,0.522c-0.503,0-0.92-0.147-1.252-0.443S140.218,13.54,140.171,13.069z"/>
		</g>
		<path i:knockout="Off" fill="none" stroke="#000000" stroke-width="0.7" d="M123.39,33.809V21.968h-11.729v11.841H123.39z"/>
		<g i:knockout="Off">
			<path i:knockout="Off" d="M116.744,29.049v0.672h-3.797c-0.005-0.169,0.022-0.332,0.083-0.488
				c0.097-0.258,0.252-0.511,0.467-0.76c0.214-0.249,0.521-0.536,0.92-0.864c0.62-0.516,1.04-0.923,1.262-1.221
				c0.221-0.298,0.331-0.58,0.331-0.849c0-0.278-0.1-0.513-0.3-0.704c-0.199-0.19-0.459-0.286-0.78-0.286
				c-0.339,0-0.61,0.104-0.813,0.312c-0.204,0.207-0.307,0.494-0.31,0.86l-0.719-0.094c0.05-0.539,0.235-0.95,0.558-1.232
				s0.756-0.424,1.3-0.424c0.549,0,0.983,0.152,1.304,0.457c0.319,0.305,0.479,0.683,0.479,1.134c0,0.229-0.047,0.454-0.14,0.676
				c-0.094,0.221-0.248,0.454-0.465,0.699c-0.216,0.245-0.576,0.581-1.08,1.009c-0.424,0.354-0.695,0.596-0.815,0.722
				c-0.12,0.127-0.219,0.254-0.297,0.382H116.744z"/>
			<path i:knockout="Off" d="M117.498,28.221l0.719-0.063c0.055,0.358,0.182,0.628,0.38,0.808c0.197,0.181,0.44,0.271,0.729,0.271
				c0.35,0,0.64-0.127,0.871-0.382c0.232-0.254,0.349-0.592,0.349-1.013c0-0.399-0.11-0.715-0.332-0.946
				c-0.222-0.23-0.519-0.347-0.891-0.347c-0.231,0-0.438,0.051-0.617,0.152s-0.321,0.233-0.426,0.395l-0.656-0.094l0.563-2.938
				h2.844v0.672h-2.285l-0.313,1.549c0.344-0.241,0.704-0.361,1.082-0.361c0.5,0,0.922,0.173,1.266,0.519
				c0.344,0.347,0.516,0.791,0.516,1.335c0,0.518-0.151,0.966-0.453,1.343c-0.367,0.463-0.868,0.694-1.504,0.694
				c-0.521,0-0.946-0.146-1.275-0.437S117.544,28.702,117.498,28.221z"/>
		</g>
		<path i:knockout="Off" fill="none" stroke="#000000" stroke-width="0.7" d="M135.123,33.809V21.968h-11.729v11.841H135.123z"/>
		<g i:knockout="Off">
			<path i:knockout="Off" d="M128.476,29.049v0.672h-3.797c-0.005-0.169,0.022-0.332,0.083-0.488
				c0.097-0.258,0.252-0.511,0.467-0.76c0.214-0.249,0.521-0.536,0.92-0.864c0.62-0.516,1.04-0.923,1.262-1.221
				c0.221-0.298,0.331-0.58,0.331-0.849c0-0.278-0.1-0.513-0.3-0.704c-0.199-0.19-0.459-0.286-0.78-0.286
				c-0.339,0-0.61,0.104-0.813,0.312c-0.204,0.207-0.307,0.494-0.31,0.86l-0.719-0.094c0.05-0.539,0.235-0.95,0.558-1.232
				s0.756-0.424,1.3-0.424c0.549,0,0.983,0.152,1.304,0.457c0.319,0.305,0.479,0.683,0.479,1.134c0,0.229-0.047,0.454-0.14,0.676
				c-0.094,0.221-0.248,0.454-0.465,0.699c-0.216,0.245-0.576,0.581-1.08,1.009c-0.424,0.354-0.695,0.596-0.815,0.722
				c-0.12,0.127-0.219,0.254-0.297,0.382H128.476z"/>
			<path i:knockout="Off" d="M132.902,25.393l-0.703,0.063c-0.063-0.277-0.152-0.479-0.268-0.604
				c-0.191-0.201-0.427-0.302-0.708-0.302c-0.226,0-0.426,0.063-0.602,0.187c-0.218,0.162-0.391,0.396-0.52,0.705
				c-0.128,0.31-0.195,0.75-0.2,1.323c0.17-0.258,0.378-0.449,0.623-0.574c0.246-0.125,0.503-0.188,0.772-0.188
				c0.471,0,0.871,0.173,1.202,0.518s0.496,0.791,0.496,1.338c0,0.359-0.078,0.693-0.233,1.002
				c-0.156,0.309-0.369,0.545-0.642,0.709c-0.271,0.164-0.58,0.246-0.925,0.246c-0.589,0-1.068-0.216-1.44-0.646
				c-0.371-0.432-0.557-1.141-0.557-2.13c0-1.106,0.206-1.91,0.617-2.413c0.358-0.437,0.843-0.655,1.45-0.655
				c0.453,0,0.825,0.126,1.115,0.378C132.67,24.601,132.844,24.949,132.902,25.393z M130.011,27.864
				c0,0.242,0.052,0.474,0.155,0.694s0.246,0.39,0.43,0.505c0.184,0.116,0.38,0.174,0.589,0.174c0.304,0,0.562-0.12,0.773-0.358
				c0.212-0.24,0.318-0.564,0.318-0.976c0-0.396-0.104-0.706-0.314-0.935c-0.209-0.227-0.478-0.341-0.805-0.341
				c-0.319,0-0.591,0.114-0.813,0.341C130.123,27.197,130.011,27.495,130.011,27.864z"/>
		</g>
		<path i:knockout="Off" fill="none" stroke="#000000" stroke-width="0.7" d="M149.691,33.809V19.134h-14.564v14.675H149.691z"/>
		<g i:knockout="Off">
			<path i:knockout="Off" d="M140.587,28.872h-0.703v-4.48c-0.169,0.161-0.392,0.323-0.666,0.484s-0.521,0.282-0.74,0.363v-0.68
				c0.394-0.185,0.737-0.409,1.031-0.672s0.503-0.519,0.625-0.766h0.453V28.872z"/>
			<path i:knockout="Off" d="M146.052,24.543l-0.703,0.063c-0.063-0.277-0.152-0.479-0.268-0.604
				c-0.191-0.201-0.427-0.302-0.708-0.302c-0.226,0-0.426,0.063-0.602,0.187c-0.218,0.162-0.391,0.396-0.52,0.705
				c-0.128,0.31-0.195,0.75-0.2,1.323c0.17-0.258,0.378-0.449,0.623-0.574c0.246-0.125,0.503-0.188,0.772-0.188
				c0.471,0,0.871,0.173,1.202,0.518s0.496,0.791,0.496,1.338c0,0.359-0.078,0.693-0.233,1.002
				c-0.156,0.309-0.369,0.545-0.642,0.709c-0.271,0.164-0.58,0.246-0.925,0.246c-0.589,0-1.068-0.216-1.44-0.646
				c-0.371-0.432-0.557-1.141-0.557-2.13c0-1.106,0.206-1.91,0.617-2.413c0.358-0.437,0.843-0.655,1.45-0.655
				c0.453,0,0.825,0.126,1.115,0.378C145.821,23.751,145.995,24.099,146.052,24.543z M143.162,27.014
				c0,0.242,0.052,0.474,0.155,0.694s0.246,0.39,0.43,0.505c0.184,0.116,0.38,0.174,0.589,0.174c0.304,0,0.562-0.12,0.773-0.358
				c0.212-0.24,0.318-0.564,0.318-0.976c0-0.396-0.104-0.706-0.314-0.935c-0.209-0.227-0.478-0.341-0.805-0.341
				c-0.319,0-0.591,0.114-0.813,0.341C143.273,26.347,143.162,26.645,143.162,27.014z"/>
		</g>
		<path i:knockout="Off" fill="none" stroke="#000000" stroke-width="0.7" d="M164.255,19.138V4.462h-14.564v14.676H164.255z"/>
		<g i:knockout="Off">
			<path i:knockout="Off" d="M156.97,14.569v-1.375h-2.484v-0.641l2.625-3.719h0.563v3.719h0.781v0.641h-0.781v1.375H156.97z
				 M156.97,12.553V9.987l-1.792,2.566H156.97z"/>
		</g>
		<path i:knockout="Off" fill="none" stroke="#000000" stroke-width="0.7" d="M164.255,33.809V19.134h-14.564v14.675H164.255z"/>
		<g i:knockout="Off">
			<path i:knockout="Off" d="M155.152,28.872h-0.703v-4.48c-0.169,0.161-0.392,0.323-0.666,0.484s-0.521,0.282-0.74,0.363v-0.68
				c0.394-0.185,0.737-0.409,1.031-0.672s0.503-0.519,0.625-0.766h0.453V28.872z"/>
			<path i:knockout="Off" d="M156.992,23.887v-0.672h3.703v0.544c-0.365,0.388-0.728,0.904-1.086,1.548
				c-0.358,0.645-0.636,1.308-0.831,1.987c-0.142,0.48-0.231,1.006-0.271,1.577h-0.719c0.008-0.451,0.097-0.996,0.265-1.636
				c0.17-0.639,0.412-1.255,0.728-1.848c0.315-0.594,0.651-1.094,1.008-1.501H156.992z"/>
		</g>
		<path i:knockout="Off" fill="none" stroke="#000000" stroke-width="0.7" d="M164.255,19.138V4.462h-14.564v14.676H164.255z"/>
		<path i:knockout="Off" fill="none" stroke="#000000" stroke-width="0.7" d="M164.255,33.809V19.134h-14.564v14.675H164.255z"/>
		<path i:knockout="Off" fill="none" stroke="#000000" stroke-width="0.7" d="M99.939,19.138V7.297h-11.73v11.841H99.939z"/>
		<g i:knockout="Off">
			<path i:knockout="Off" d="M92.251,15.419h-0.703v-4.48c-0.169,0.162-0.392,0.323-0.666,0.484
				c-0.274,0.162-0.521,0.283-0.74,0.363v-0.68c0.394-0.185,0.737-0.409,1.031-0.672c0.294-0.263,0.503-0.518,0.625-0.766h0.453
				V15.419z"/>
			<path i:knockout="Off" d="M94.044,12.593c0-0.677,0.07-1.223,0.211-1.638c0.14-0.415,0.349-0.733,0.626-0.954
				c0.277-0.222,0.626-0.332,1.046-0.332c0.31,0,0.583,0.062,0.819,0.186s0.43,0.302,0.579,0.535s0.268,0.517,0.354,0.851
				c0.086,0.334,0.13,0.785,0.13,1.353c0,0.671-0.069,1.215-0.209,1.63c-0.139,0.415-0.347,0.734-0.624,0.956
				c-0.277,0.223-0.627,0.334-1.05,0.334c-0.557,0-0.994-0.195-1.312-0.585C94.235,14.446,94.044,13.668,94.044,12.593z
				 M94.763,12.591c0,0.945,0.112,1.572,0.336,1.881s0.499,0.463,0.828,0.463c0.328,0,0.604-0.155,0.828-0.465
				c0.224-0.31,0.336-0.936,0.336-1.879c0-0.942-0.111-1.569-0.334-1.879c-0.223-0.31-0.502-0.465-0.838-0.465
				c-0.329,0-0.592,0.137-0.791,0.41C94.885,11.007,94.763,11.651,94.763,12.591z"/>
		</g>
		<path i:knockout="Off" fill="none" stroke="#000000" stroke-width="0.7" d="M111.671,19.138V7.297h-11.73v11.841H111.671z"/>
		<g i:knockout="Off">
			<path i:knockout="Off" d="M103.984,15.419h-0.703v-4.48c-0.169,0.162-0.392,0.323-0.666,0.484
				c-0.274,0.162-0.521,0.283-0.74,0.363v-0.68c0.394-0.185,0.737-0.409,1.031-0.672c0.294-0.263,0.503-0.518,0.625-0.766h0.453
				V15.419z"/>
			<path i:knockout="Off" d="M108.433,15.419h-0.703v-4.48c-0.169,0.162-0.392,0.323-0.666,0.484
				c-0.274,0.162-0.521,0.283-0.74,0.363v-0.68c0.394-0.185,0.737-0.409,1.031-0.672c0.294-0.263,0.503-0.518,0.625-0.766h0.453
				V15.419z"/>
		</g>
		<path i:knockout="Off" fill="none" stroke="#000000" stroke-width="0.7" d="M99.939,33.809V21.968h-11.73v11.841H99.939z"/>
		<g i:knockout="Off">
			<path i:knockout="Off" d="M93.291,29.049v0.672h-3.797c-0.005-0.169,0.022-0.332,0.083-0.488c0.097-0.258,0.252-0.511,0.467-0.76
				c0.214-0.249,0.521-0.536,0.92-0.864c0.62-0.516,1.04-0.923,1.262-1.221c0.221-0.298,0.331-0.58,0.331-0.849
				c0-0.278-0.1-0.513-0.3-0.704c-0.199-0.19-0.459-0.286-0.78-0.286c-0.339,0-0.61,0.104-0.813,0.312
				c-0.204,0.207-0.307,0.494-0.31,0.86l-0.719-0.094c0.05-0.539,0.235-0.95,0.558-1.232s0.756-0.424,1.3-0.424
				c0.549,0,0.983,0.152,1.304,0.457c0.319,0.305,0.479,0.683,0.479,1.134c0,0.229-0.047,0.454-0.14,0.676
				c-0.094,0.221-0.248,0.454-0.465,0.699c-0.216,0.245-0.576,0.581-1.08,1.009c-0.424,0.354-0.695,0.596-0.815,0.722
				c-0.12,0.127-0.219,0.254-0.297,0.382H93.291z"/>
			<path i:knockout="Off" d="M94.06,28.221l0.719-0.094c0.08,0.394,0.215,0.676,0.405,0.85c0.189,0.173,0.425,0.26,0.706,0.26
				c0.333,0,0.611-0.114,0.835-0.345c0.223-0.229,0.335-0.514,0.335-0.853c0-0.323-0.104-0.591-0.313-0.8
				c-0.209-0.211-0.476-0.315-0.798-0.315c-0.132,0-0.296,0.026-0.492,0.078l0.077-0.625c0.047,0.005,0.084,0.008,0.112,0.008
				c0.294,0,0.56-0.077,0.795-0.232s0.354-0.394,0.354-0.717c0-0.255-0.087-0.467-0.259-0.635c-0.174-0.168-0.396-0.252-0.67-0.252
				c-0.271,0-0.496,0.086-0.676,0.258c-0.182,0.172-0.297,0.43-0.349,0.773l-0.719-0.125c0.086-0.472,0.28-0.837,0.585-1.096
				c0.304-0.259,0.682-0.389,1.134-0.389c0.312,0,0.599,0.067,0.861,0.2c0.263,0.134,0.463,0.315,0.603,0.546
				c0.139,0.231,0.208,0.476,0.208,0.735c0,0.246-0.066,0.471-0.199,0.672c-0.133,0.203-0.329,0.363-0.59,0.482
				c0.339,0.078,0.604,0.24,0.797,0.487c0.192,0.246,0.289,0.555,0.289,0.925c0,0.501-0.183,0.926-0.547,1.273
				c-0.364,0.349-0.825,0.522-1.383,0.522c-0.503,0-0.92-0.147-1.252-0.443S94.107,28.692,94.06,28.221z"/>
		</g>
		<path i:knockout="Off" fill="none" stroke="#000000" stroke-width="0.7" d="M111.671,33.809V21.968h-11.73v11.841H111.671z"/>
		<g i:knockout="Off">
			<path i:knockout="Off" d="M105.023,29.049v0.672h-3.797c-0.005-0.169,0.022-0.332,0.083-0.488
				c0.097-0.258,0.252-0.511,0.467-0.76c0.214-0.249,0.521-0.536,0.92-0.864c0.62-0.516,1.04-0.923,1.262-1.221
				c0.221-0.298,0.331-0.58,0.331-0.849c0-0.278-0.1-0.513-0.3-0.704c-0.199-0.19-0.459-0.286-0.78-0.286
				c-0.339,0-0.61,0.104-0.813,0.312c-0.204,0.207-0.307,0.494-0.31,0.86l-0.719-0.094c0.05-0.539,0.235-0.95,0.558-1.232
				s0.756-0.424,1.3-0.424c0.549,0,0.983,0.152,1.304,0.457c0.319,0.305,0.479,0.683,0.479,1.134c0,0.229-0.047,0.454-0.14,0.676
				c-0.094,0.221-0.248,0.454-0.465,0.699c-0.216,0.245-0.576,0.581-1.08,1.009c-0.424,0.354-0.695,0.596-0.815,0.722
				c-0.12,0.127-0.219,0.254-0.297,0.382H105.023z"/>
			<path i:knockout="Off" d="M108.027,29.721v-1.375h-2.484v-0.641l2.625-3.719h0.563v3.719h0.781v0.641h-0.781v1.375H108.027z
				 M108.027,27.706v-2.566l-1.792,2.566H108.027z"/>
		</g>
		<path i:knockout="Off" fill="none" stroke="#000000" stroke-width="0.7" d="M0.61,17.653h163.591"/>
		<path i:knockout="Off" fill="none" stroke="#000000" stroke-width="0.7" d="M0.61,31.967h163.623"/>
		<path i:knockout="Off" fill="none" stroke="#000000" stroke-width="1.2" d="M0.6,4.602V0.933h7.039v3.534"/>
		<path i:knockout="Off" fill="none" stroke="#000000" stroke-width="1.2" d="M22.699,4.602V0.933h7.039v3.534"/>
		<path i:knockout="Off" fill="none" stroke="#000000" stroke-width="1.2" d="M64.708,7.104V0.6h46.971v6.369"/>
		<path i:knockout="Off" fill="none" stroke="#000000" stroke-width="1.2" d="M157.205,4.604V0.934h7.038v3.534"/>
		<path i:knockout="Off" fill="none" stroke="#000000" stroke-width="1.2" d="M135.124,4.468V0.798h7.038v3.534"/>
		<path i:knockout="Off" fill="none" stroke="#000000" stroke-width="1.2" d="M164.253,33.811H0.61V4.468l29.128-0.005l0.003,2.835
			h105.38l0.003-2.83h29.13V33.811z"/>
	</g>
</svg>
