<?xml version="1.0" encoding="utf-8"?>
<!-- Generator: Adobe Illustrator 10.0, SVG Export Plug-In . SVG Version: 3.0.0 Build 77)  -->
<!DOCTYPE svg PUBLIC "-//W3C//DTD SVG 1.0//EN"    "http://www.w3.org/TR/2001/REC-SVG-20010904/DTD/svg10.dtd" [
	<!ENTITY ns_flows "http://ns.adobe.com/Flows/1.0/">
	<!ENTITY ns_extend "http://ns.adobe.com/Extensibility/1.0/">
	<!ENTITY ns_ai "http://ns.adobe.com/AdobeIllustrator/10.0/">
	<!ENTITY ns_graphs "http://ns.adobe.com/Graphs/1.0/">
	<!ENTITY ns_vars "http://ns.adobe.com/Variables/1.0/">
	<!ENTITY ns_imrep "http://ns.adobe.com/ImageReplacement/1.0/">
	<!ENTITY ns_sfw "http://ns.adobe.com/SaveForWeb/1.0/">
	<!ENTITY ns_custom "http://ns.adobe.com/GenericCustomNamespace/1.0/">
	<!ENTITY ns_adobe_xpath "http://ns.adobe.com/XPath/1.0/">
	<!ENTITY ns_svg "http://www.w3.org/2000/svg">
	<!ENTITY ns_xlink "http://www.w3.org/1999/xlink">
]>
<svg xmlns:x="&ns_extend;" xmlns:i="&ns_ai;" xmlns:graph="&ns_graphs;" i:viewOrigin="270.3896 438.7061" i:rulerOrigin="-1 0.1104" i:pageBounds="1 841.8896 596 -0.1104" xmlns="&ns_svg;" xmlns:xlink="&ns_xlink;" xmlns:a="http://ns.adobe.com/AdobeSVGViewerExtensions/3.0/" width="58.088" height="29.488" viewBox="0 0 58.088 29.488" overflow="visible" enable-background="new 0 0 58.088 29.488" xml:space="preserve" id="svgObj" onload="parent.svgLoad('Top', document)">
	<metadata>
		<variableSets xmlns="&ns_vars;">
			<variableSet varSetName="binding1" locked="none">
				<variables></variables>
				<v:sampleDataSets xmlns="&ns_custom;" xmlns:v="&ns_vars;"></v:sampleDataSets>
			</variableSet>
		</variableSets>
		<sfw xmlns="&ns_sfw;">
			<slices></slices>
			<sliceSourceBounds x="257.815" y="388.708" width="80.371" height="63.363" bottomLeftOrigin="true"></sliceSourceBounds>
		</sfw>
	</metadata>
	<g id="レイヤー_1" i:layer="yes" i:dimmedPercent="100" i:rgbTrio="#4F008000FFFF">
		<g>
			<g>
				<path i:knockout="Off" fill="none" stroke="#000000" stroke-width="1.2" d="M46.064,4.134h11.424v24.754H0.6V4.134H46.064z"/>
				<path i:knockout="Off" fill="none" stroke="#000000" stroke-width="0.7" d="M23.34,4.56v24.329"/>
				<path i:knockout="Off" fill="none" stroke="#000000" stroke-width="0.7" d="M57.488,16.559H0.6"/>
				<path i:knockout="Off" fill="none" stroke="#000000" stroke-width="0.7" d="M57.488,14.998H0.6"/>
				<path i:knockout="Off" fill="none" stroke="#000000" stroke-width="0.7" d="M57.488,27.145H0.6"/>
				<path i:knockout="Off" fill="none" stroke="#000000" stroke-width="0.7" d="M46.157,4.56v24.329"/>
			</g>
		</g>
		<g i:knockout="Off">
			<path i:knockout="Off" d="M27.178,11.206l0.719-0.094c0.08,0.393,0.215,0.676,0.405,0.849c0.19,0.174,0.425,0.26,0.707,0.26
				c0.333,0,0.611-0.115,0.835-0.344c0.223-0.229,0.335-0.514,0.335-0.854c0-0.323-0.104-0.59-0.313-0.8s-0.476-0.315-0.798-0.315
				c-0.132,0-0.296,0.026-0.492,0.078l0.077-0.625c0.047,0.005,0.084,0.008,0.112,0.008c0.294,0,0.56-0.078,0.795-0.232
				s0.354-0.394,0.354-0.716c0-0.256-0.087-0.468-0.259-0.636c-0.174-0.167-0.396-0.251-0.67-0.251
				c-0.271,0-0.496,0.086-0.676,0.258c-0.181,0.172-0.296,0.43-0.348,0.773L27.24,8.44c0.086-0.471,0.28-0.836,0.584-1.096
				s0.682-0.389,1.134-0.389c0.312,0,0.599,0.067,0.861,0.2s0.463,0.316,0.603,0.546c0.139,0.23,0.208,0.476,0.208,0.734
				c0,0.246-0.066,0.471-0.199,0.673s-0.329,0.363-0.59,0.482c0.339,0.079,0.604,0.241,0.797,0.487
				c0.192,0.247,0.289,0.555,0.289,0.926c0,0.5-0.183,0.925-0.547,1.273c-0.364,0.348-0.825,0.522-1.383,0.522
				c-0.503,0-0.92-0.148-1.252-0.444S27.225,11.677,27.178,11.206z"/>
		</g>
		<g i:knockout="Off">
			<path i:knockout="Off" d="M28.255,21.484c-0.292-0.106-0.507-0.259-0.648-0.457s-0.211-0.436-0.211-0.712
				c0-0.417,0.149-0.767,0.447-1.052c0.299-0.283,0.696-0.426,1.191-0.426c0.498,0,0.899,0.146,1.202,0.436
				c0.305,0.291,0.456,0.645,0.456,1.062c0,0.267-0.069,0.497-0.208,0.694c-0.139,0.196-0.35,0.349-0.631,0.455
				c0.35,0.114,0.616,0.299,0.799,0.554s0.274,0.559,0.274,0.912c0,0.489-0.173,0.899-0.519,1.232s-0.801,0.499-1.364,0.499
				c-0.564,0-1.019-0.167-1.364-0.501s-0.519-0.751-0.519-1.25c0-0.371,0.095-0.683,0.284-0.934S27.905,21.575,28.255,21.484z
				 M27.881,22.936c0,0.2,0.046,0.394,0.139,0.58c0.092,0.188,0.233,0.332,0.423,0.434c0.189,0.104,0.393,0.154,0.608,0.154
				c0.341,0,0.618-0.107,0.835-0.323c0.215-0.215,0.323-0.489,0.323-0.821c0-0.338-0.111-0.616-0.333-0.837
				c-0.223-0.221-0.506-0.331-0.849-0.331c-0.335,0-0.61,0.109-0.825,0.327S27.881,22.608,27.881,22.936z M28.115,20.291
				c0,0.271,0.085,0.492,0.257,0.664c0.171,0.172,0.398,0.258,0.681,0.258c0.274,0,0.497-0.085,0.667-0.256
				c0.17-0.17,0.255-0.379,0.255-0.627c0-0.258-0.088-0.475-0.263-0.65s-0.397-0.264-0.667-0.264c-0.272,0-0.495,0.086-0.669,0.258
				S28.115,20.052,28.115,20.291z"/>
		</g>
		<g i:knockout="Off">
			<path i:knockout="Off" d="M40.815,12.706v-1.375h-2.484V10.69l2.625-3.719h0.563v3.719H42.3v0.641h-0.781v1.375H40.815z
				 M40.815,10.69V8.123l-1.793,2.567H40.815z"/>
		</g>
		<g i:knockout="Off">
			<path i:knockout="Off" d="M38.659,23.26l0.672-0.063c0.057,0.318,0.166,0.549,0.328,0.691c0.161,0.144,0.368,0.215,0.621,0.215
				c0.216,0,0.406-0.049,0.572-0.147c0.165-0.099,0.299-0.229,0.4-0.395s0.188-0.387,0.258-0.667
				c0.07-0.279,0.105-0.565,0.105-0.857c0-0.031-0.002-0.078-0.004-0.141c-0.141,0.225-0.331,0.406-0.573,0.545
				c-0.242,0.14-0.505,0.209-0.787,0.209c-0.472,0-0.87-0.172-1.197-0.516c-0.326-0.345-0.489-0.798-0.489-1.361
				c0-0.581,0.171-1.049,0.514-1.404c0.342-0.354,0.771-0.531,1.287-0.531c0.372,0,0.713,0.101,1.021,0.301s0.543,0.486,0.703,0.856
				c0.16,0.371,0.24,0.907,0.24,1.61c0,0.731-0.08,1.313-0.239,1.747s-0.396,0.763-0.711,0.989c-0.315,0.227-0.685,0.34-1.107,0.34
				c-0.449,0-0.816-0.124-1.101-0.373C38.888,24.061,38.717,23.711,38.659,23.26z M41.55,20.734c0-0.404-0.106-0.725-0.319-0.963
				c-0.212-0.236-0.473-0.355-0.78-0.355c-0.318,0-0.592,0.128-0.822,0.384c-0.229,0.255-0.344,0.587-0.344,0.993
				c0,0.365,0.109,0.662,0.326,0.891c0.219,0.228,0.492,0.342,0.82,0.342c0.326,0,0.594-0.114,0.805-0.342
				C41.444,21.455,41.55,21.139,41.55,20.734z"/>
		</g>
		<g i:knockout="Off">
			<path i:knockout="Off" d="M49.969,11.206l0.719-0.063c0.055,0.358,0.182,0.627,0.38,0.808c0.197,0.18,0.44,0.271,0.729,0.271
				c0.35,0,0.64-0.127,0.871-0.381c0.232-0.255,0.349-0.592,0.349-1.013c0-0.4-0.11-0.716-0.332-0.947s-0.519-0.347-0.891-0.347
				c-0.231,0-0.438,0.051-0.617,0.152c-0.18,0.102-0.321,0.233-0.426,0.395l-0.656-0.094l0.563-2.938H53.5v0.672h-2.285
				l-0.313,1.549c0.344-0.241,0.704-0.362,1.082-0.362c0.5,0,0.922,0.173,1.266,0.519c0.344,0.346,0.516,0.791,0.516,1.334
				c0,0.518-0.151,0.965-0.453,1.342c-0.367,0.463-0.868,0.695-1.504,0.695c-0.521,0-0.946-0.145-1.275-0.436
				S50.016,11.687,49.969,11.206z"/>
		</g>
		<g i:knockout="Off">
			<path i:knockout="Off" d="M50.067,24.588h-0.703v-4.48c-0.17,0.162-0.392,0.323-0.666,0.484c-0.275,0.162-0.521,0.283-0.74,0.363
				v-0.68c0.393-0.185,0.736-0.408,1.031-0.672c0.294-0.263,0.502-0.518,0.625-0.766h0.453V24.588z"/>
			<path i:knockout="Off" d="M51.86,21.762c0-0.677,0.07-1.223,0.211-1.638s0.349-0.733,0.626-0.954
				c0.277-0.222,0.626-0.332,1.046-0.332c0.31,0,0.583,0.063,0.819,0.186s0.43,0.302,0.579,0.535
				c0.149,0.232,0.268,0.516,0.354,0.851s0.13,0.785,0.13,1.353c0,0.672-0.069,1.215-0.209,1.63
				c-0.139,0.415-0.347,0.733-0.624,0.956s-0.627,0.334-1.05,0.334c-0.557,0-0.994-0.195-1.312-0.586
				C52.051,23.615,51.86,22.837,51.86,21.762z M52.579,21.76c0,0.945,0.112,1.572,0.336,1.881s0.5,0.463,0.828,0.463
				s0.604-0.154,0.828-0.465c0.224-0.31,0.336-0.936,0.336-1.879c0-0.942-0.111-1.568-0.334-1.879
				c-0.223-0.31-0.502-0.465-0.838-0.465c-0.328,0-0.592,0.137-0.791,0.41C52.701,20.176,52.579,20.82,52.579,21.76z"/>
		</g>
		<g i:knockout="Off">
			<path i:knockout="Off" d="M7.332,12.706H6.628v-4.48C6.459,8.387,6.237,8.548,5.962,8.709s-0.521,0.283-0.74,0.363v-0.68
				c0.393-0.185,0.737-0.409,1.031-0.672s0.502-0.518,0.625-0.766h0.453V12.706z"/>
		</g>
		<g i:knockout="Off">
			<path i:knockout="Off" d="M8.347,20.26l-0.703,0.063c-0.063-0.277-0.152-0.479-0.267-0.604c-0.191-0.201-0.428-0.302-0.708-0.302
				c-0.226,0-0.427,0.063-0.602,0.188c-0.218,0.16-0.391,0.396-0.519,0.705c-0.129,0.309-0.195,0.75-0.201,1.322
				c0.17-0.258,0.377-0.449,0.624-0.574c0.245-0.125,0.503-0.188,0.772-0.188c0.471,0,0.871,0.173,1.202,0.518
				c0.331,0.346,0.496,0.791,0.496,1.338c0,0.359-0.078,0.693-0.233,1.002s-0.37,0.545-0.641,0.709
				c-0.272,0.164-0.581,0.246-0.926,0.246c-0.588,0-1.068-0.215-1.439-0.646c-0.372-0.43-0.557-1.14-0.557-2.129
				c0-1.105,0.206-1.91,0.617-2.412c0.359-0.438,0.842-0.656,1.451-0.656c0.453,0,0.825,0.126,1.114,0.378S8.29,19.815,8.347,20.26z
				 M5.457,22.73c0,0.242,0.051,0.474,0.155,0.694c0.104,0.222,0.247,0.39,0.43,0.505c0.183,0.116,0.379,0.174,0.589,0.174
				c0.303,0,0.561-0.119,0.773-0.359c0.212-0.238,0.318-0.563,0.318-0.975c0-0.395-0.105-0.707-0.314-0.934
				c-0.21-0.229-0.478-0.342-0.805-0.342c-0.319,0-0.59,0.113-0.813,0.342C5.567,22.063,5.457,22.361,5.457,22.73z"/>
		</g>
		<g i:knockout="Off">
			<path i:knockout="Off" d="M19.454,12.034v0.672h-3.797c-0.005-0.169,0.022-0.332,0.083-0.488c0.097-0.258,0.252-0.511,0.467-0.76
				c0.214-0.249,0.521-0.537,0.92-0.864c0.62-0.516,1.04-0.923,1.261-1.221c0.221-0.297,0.332-0.581,0.332-0.848
				c0-0.278-0.1-0.513-0.299-0.704c-0.2-0.191-0.46-0.287-0.781-0.287c-0.339,0-0.61,0.104-0.814,0.311s-0.307,0.494-0.309,0.861
				l-0.719-0.094c0.049-0.539,0.235-0.95,0.558-1.232c0.323-0.283,0.756-0.424,1.3-0.424c0.549,0,0.983,0.153,1.303,0.458
				s0.48,0.682,0.48,1.133c0,0.229-0.047,0.455-0.14,0.676c-0.094,0.222-0.248,0.455-0.465,0.7
				c-0.216,0.245-0.576,0.581-1.081,1.009c-0.423,0.355-0.695,0.596-0.815,0.722c-0.12,0.126-0.219,0.254-0.297,0.381H19.454z"/>
		</g>
		<g i:knockout="Off">
			<path i:knockout="Off" d="M15.806,19.604v-0.672h3.703v0.544c-0.365,0.388-0.728,0.904-1.086,1.548
				c-0.359,0.645-0.636,1.307-0.832,1.988c-0.141,0.479-0.231,1.005-0.27,1.576h-0.719c0.008-0.451,0.096-0.996,0.265-1.635
				c0.169-0.64,0.411-1.256,0.727-1.85c0.315-0.593,0.651-1.093,1.008-1.5H15.806z"/>
		</g>
		<g>
			<g>
				<path i:knockout="Off" fill="none" stroke="#000000" stroke-width="0.7" d="M34.795,28.982V4.42"/>
				<path i:knockout="Off" fill="none" stroke="#000000" stroke-width="0.7" d="M11.993,28.982V4.18"/>
				<path i:knockout="Off" fill="none" stroke="#000000" stroke-width="1.2" d="M32.631,3.759V0.6h-6.318v3.159"/>
				<path i:knockout="Off" fill="none" stroke="#000000" stroke-width="1.2" d="M57.488,4.134V0.975h-6.049v3.159"/>
				<path i:knockout="Off" fill="none" stroke="#000000" stroke-width="1.2" d="M6.648,4.134V0.975H0.6v3.159"/>
			</g>
		</g>
	</g>
</svg>
