<?xml version="1.0" encoding="utf-8"?>
<!-- Generator: Adobe Illustrator 10.0, SVG Export Plug-In . SVG Version: 3.0.0 Build 77)  -->
<!DOCTYPE svg PUBLIC "-//W3C//DTD SVG 1.0//EN"    "http://www.w3.org/TR/2001/REC-SVG-20010904/DTD/svg10.dtd" [
	<!ENTITY ns_flows "http://ns.adobe.com/Flows/1.0/">
	<!ENTITY ns_extend "http://ns.adobe.com/Extensibility/1.0/">
	<!ENTITY ns_ai "http://ns.adobe.com/AdobeIllustrator/10.0/">
	<!ENTITY ns_graphs "http://ns.adobe.com/Graphs/1.0/">
	<!ENTITY ns_vars "http://ns.adobe.com/Variables/1.0/">
	<!ENTITY ns_imrep "http://ns.adobe.com/ImageReplacement/1.0/">
	<!ENTITY ns_sfw "http://ns.adobe.com/SaveForWeb/1.0/">
	<!ENTITY ns_custom "http://ns.adobe.com/GenericCustomNamespace/1.0/">
	<!ENTITY ns_adobe_xpath "http://ns.adobe.com/XPath/1.0/">
	<!ENTITY ns_svg "http://www.w3.org/2000/svg">
	<!ENTITY ns_xlink "http://www.w3.org/1999/xlink">
]>
<svg xmlns:x="&ns_extend;" xmlns:i="&ns_ai;" xmlns:graph="&ns_graphs;" i:viewOrigin="288.0679 469.0796" i:rulerOrigin="0 0" i:pageBounds="0 841.8896 595.2754 0" xmlns="&ns_svg;" xmlns:xlink="&ns_xlink;" xmlns:a="http://ns.adobe.com/AdobeSVGViewerExtensions/3.0/" width="28.864" height="22.38" viewBox="0 0 28.864 22.38" overflow="visible" enable-background="new 0 0 28.864 22.38" xml:space="preserve" id="svgObj" onload="parent.svgLoad('Top', document)">
	<metadata>
		<variableSets xmlns="&ns_vars;">
			<variableSet varSetName="binding1" locked="none">
				<variables></variables>
				<v:sampleDataSets xmlns="&ns_custom;" xmlns:v="&ns_vars;"></v:sampleDataSets>
			</variableSet>
		</variableSets>
		<sfw xmlns="&ns_sfw;">
			<slices></slices>
			<sliceSourceBounds y="426.027" x="262.5" width="80.37" height="63.362" bottomLeftOrigin="true"></sliceSourceBounds>
		</sfw>
	</metadata>
	<g id="illust" i:layer="yes" i:dimmedPercent="3" i:rgbTrio="#4F008000FFFF">
		<path i:knockout="Off" fill="none" stroke="#000000" stroke-width="0.7" d="M14.388,3.813v12.873"/>
		<path i:knockout="Off" fill="none" stroke="#000000" stroke-width="1.2" d="M17.442,3.815V0.6H11.25v3.215"/>
		<path i:knockout="Off" fill="none" stroke="#000000" stroke-width="1.2" d="M28.264,16.678V3.814H0.6v12.864"/>
		<path i:knockout="Off" fill="none" stroke="#000000" stroke-width="1.2" d="M0.6,16.65v5.13h3.882v-1.893h19.844v1.893h3.938
			v-5.13"/>
		<path i:knockout="Off" d="M22.738,12.281v0.672H18.94c-0.005-0.169,0.022-0.332,0.083-0.488c0.098-0.258,0.253-0.511,0.468-0.76
			c0.214-0.249,0.521-0.537,0.92-0.864c0.619-0.516,1.04-0.923,1.261-1.221s0.331-0.58,0.331-0.849c0-0.278-0.1-0.513-0.299-0.704
			s-0.46-0.287-0.781-0.287c-0.339,0-0.61,0.104-0.813,0.311c-0.204,0.208-0.307,0.494-0.309,0.861l-0.72-0.094
			c0.05-0.539,0.236-0.95,0.559-1.232c0.322-0.282,0.756-0.424,1.299-0.424c0.55,0,0.983,0.152,1.304,0.457
			c0.319,0.305,0.48,0.683,0.48,1.133c0,0.229-0.047,0.455-0.141,0.676c-0.093,0.221-0.248,0.454-0.464,0.699
			c-0.217,0.245-0.577,0.581-1.081,1.009c-0.423,0.355-0.694,0.596-0.814,0.722s-0.219,0.253-0.297,0.381H22.738z"/>
		<path i:knockout="Off" d="M8.718,12.953H8.015v-4.48C7.846,8.634,7.624,8.795,7.349,8.957C7.074,9.118,6.828,9.239,6.609,9.32
			V8.64C7.002,8.456,7.346,8.231,7.64,7.968C7.934,7.706,8.143,7.45,8.265,7.203h0.453V12.953z"/>
		<path i:knockout="Off" fill="none" stroke="#000000" stroke-width="0.7" d="M0.704,16.681h27.399"/>
	</g>
</svg>
