<?xml version="1.0" encoding="utf-8"?>
<!-- Generator: Adobe Illustrator 10.0, SVG Export Plug-In . SVG Version: 3.0.0 Build 77)  -->
<!DOCTYPE svg PUBLIC "-//W3C//DTD SVG 1.0//EN"    "http://www.w3.org/TR/2001/REC-SVG-20010904/DTD/svg10.dtd" [
	<!ENTITY ns_flows "http://ns.adobe.com/Flows/1.0/">
	<!ENTITY ns_extend "http://ns.adobe.com/Extensibility/1.0/">
	<!ENTITY ns_ai "http://ns.adobe.com/AdobeIllustrator/10.0/">
	<!ENTITY ns_graphs "http://ns.adobe.com/Graphs/1.0/">
	<!ENTITY ns_vars "http://ns.adobe.com/Variables/1.0/">
	<!ENTITY ns_imrep "http://ns.adobe.com/ImageReplacement/1.0/">
	<!ENTITY ns_sfw "http://ns.adobe.com/SaveForWeb/1.0/">
	<!ENTITY ns_custom "http://ns.adobe.com/GenericCustomNamespace/1.0/">
	<!ENTITY ns_adobe_xpath "http://ns.adobe.com/XPath/1.0/">
	<!ENTITY ns_svg "http://www.w3.org/2000/svg">
	<!ENTITY ns_xlink "http://www.w3.org/1999/xlink">
]>
<svg xmlns:x="&ns_extend;" xmlns:i="&ns_ai;" xmlns:graph="&ns_graphs;" i:viewOrigin="245.3823 476.3076" i:rulerOrigin="0 0" i:pageBounds="0 841.8896 595.2754 0" xmlns="&ns_svg;" xmlns:xlink="&ns_xlink;" xmlns:a="http://ns.adobe.com/AdobeSVGViewerExtensions/3.0/" width="125.6" height="32.82" viewBox="0 0 125.6 32.82" overflow="visible" enable-background="new 0 0 125.6 32.82" xml:space="preserve" id="svgObj" onload="parent.svgLoad('Top', document)">
	<metadata>
		<variableSets xmlns="&ns_vars;">
			<variableSet varSetName="binding1" locked="none">
				<variables></variables>
				<v:sampleDataSets xmlns="&ns_custom;" xmlns:v="&ns_vars;"></v:sampleDataSets>
			</variableSet>
		</variableSets>
		<sfw xmlns="&ns_sfw;">
			<slices></slices>
			<sliceSourceBounds y="427.527" x="228" width="159.74" height="63.362" bottomLeftOrigin="true"></sliceSourceBounds>
		</sfw>
	</metadata>
	<g id="レイヤー_1" i:layer="yes" i:dimmedPercent="100" i:rgbTrio="#4F008000FFFF">
		<path i:knockout="Off" fill="none" stroke="#000000" stroke-width="1.2" d="M125,32.22H0.667V5.203H125V32.22z"/>
		<path i:knockout="Off" fill="none" stroke="#000000" stroke-width="0.5" d="M0.667,18.711H125"/>
		<path i:knockout="Off" fill="none" stroke="#000000" stroke-width="0.5" d="M13.853,32.22V5.203"/>
		<path i:knockout="Off" fill="none" stroke="#000000" stroke-width="0.5" d="M26.013,32.22V5.203"/>
		<path i:knockout="Off" fill="none" stroke="#000000" stroke-width="0.5" d="M38.17,32.22V5.203"/>
		<path i:knockout="Off" fill="none" stroke="#000000" stroke-width="0.5" d="M50.331,32.22V5.203"/>
		<path i:knockout="Off" fill="none" stroke="#000000" stroke-width="0.5" d="M62.488,32.22V5.203"/>
		<path i:knockout="Off" fill="none" stroke="#000000" stroke-width="0.5" d="M74.647,32.22V5.203"/>
		<path i:knockout="Off" fill="none" stroke="#000000" stroke-width="0.5" d="M86.806,32.22V5.203"/>
		<path i:knockout="Off" fill="none" stroke="#000000" stroke-width="0.5" d="M98.965,32.22V5.203"/>
		<path i:knockout="Off" fill="none" stroke="#000000" stroke-width="0.5" d="M111.123,32.22V5.203"/>
		<g i:knockout="Off">
			<path i:knockout="Off" d="M116.202,13.943h-0.703v-4.48c-0.17,0.162-0.392,0.323-0.666,0.484
				c-0.275,0.162-0.521,0.283-0.74,0.363v-0.68c0.393-0.185,0.736-0.409,1.031-0.672c0.294-0.263,0.502-0.518,0.625-0.766h0.453
				V13.943z"/>
			<path i:knockout="Off" d="M117.995,11.117c0-0.677,0.07-1.223,0.211-1.638s0.349-0.733,0.626-0.954
				c0.277-0.222,0.626-0.332,1.046-0.332c0.31,0,0.583,0.062,0.819,0.186s0.429,0.302,0.579,0.535
				c0.149,0.233,0.268,0.517,0.354,0.851s0.13,0.785,0.13,1.353c0,0.671-0.069,1.215-0.209,1.63
				c-0.139,0.415-0.348,0.734-0.624,0.956c-0.277,0.223-0.627,0.334-1.05,0.334c-0.557,0-0.994-0.195-1.312-0.585
				C118.185,12.97,117.995,12.192,117.995,11.117z M118.713,11.115c0,0.945,0.111,1.572,0.336,1.881
				c0.224,0.309,0.5,0.463,0.828,0.463s0.604-0.155,0.828-0.465c0.224-0.31,0.336-0.936,0.336-1.879
				c0-0.942-0.111-1.569-0.334-1.879c-0.223-0.31-0.502-0.465-0.838-0.465c-0.328,0-0.592,0.137-0.791,0.41
				C118.835,9.531,118.713,10.175,118.713,11.115z"/>
		</g>
		<g i:knockout="Off">
			<path i:knockout="Off" d="M5.81,27.328H5.107v-4.48c-0.169,0.162-0.392,0.323-0.666,0.484c-0.275,0.162-0.521,0.283-0.74,0.363
				v-0.68c0.393-0.185,0.737-0.409,1.031-0.672c0.294-0.263,0.502-0.518,0.625-0.766H5.81V27.328z"/>
			<path i:knockout="Off" d="M10.259,27.328H9.556v-4.48c-0.169,0.162-0.392,0.323-0.666,0.484c-0.275,0.162-0.521,0.283-0.74,0.363
				v-0.68c0.393-0.185,0.737-0.409,1.031-0.672c0.294-0.263,0.502-0.518,0.625-0.766h0.453V27.328z"/>
		</g>
		<g i:knockout="Off">
			<path i:knockout="Off" d="M18.011,27.328h-0.703v-4.48c-0.169,0.162-0.392,0.323-0.666,0.484
				c-0.275,0.162-0.521,0.283-0.74,0.363v-0.68c0.393-0.185,0.737-0.409,1.031-0.672c0.294-0.263,0.502-0.518,0.625-0.766h0.453
				V27.328z"/>
			<path i:knockout="Off" d="M23.5,26.656v0.672h-3.797c-0.005-0.169,0.022-0.332,0.083-0.488c0.097-0.258,0.252-0.511,0.467-0.76
				c0.214-0.249,0.521-0.537,0.92-0.864c0.62-0.516,1.04-0.923,1.261-1.221c0.221-0.297,0.332-0.581,0.332-0.848
				c0-0.278-0.1-0.513-0.299-0.704c-0.2-0.191-0.46-0.287-0.781-0.287c-0.339,0-0.61,0.104-0.814,0.311s-0.307,0.494-0.309,0.861
				l-0.719-0.094c0.049-0.539,0.235-0.95,0.558-1.232c0.323-0.283,0.756-0.424,1.3-0.424c0.549,0,0.983,0.153,1.303,0.458
				s0.48,0.682,0.48,1.133c0,0.229-0.047,0.455-0.14,0.676c-0.094,0.222-0.248,0.455-0.465,0.7
				c-0.216,0.245-0.576,0.581-1.081,1.009c-0.423,0.355-0.695,0.596-0.815,0.722c-0.12,0.126-0.219,0.254-0.297,0.381H23.5z"/>
		</g>
		<g i:knockout="Off">
			<path i:knockout="Off" d="M30.406,27.328h-0.703v-4.48c-0.169,0.162-0.391,0.323-0.666,0.484s-0.521,0.283-0.74,0.363v-0.68
				c0.393-0.185,0.737-0.409,1.031-0.672s0.502-0.518,0.625-0.766h0.453V27.328z"/>
			<path i:knockout="Off" d="M32.215,25.828l0.719-0.094c0.08,0.393,0.215,0.676,0.405,0.849c0.189,0.174,0.425,0.26,0.707,0.26
				c0.333,0,0.611-0.115,0.834-0.344s0.335-0.514,0.335-0.854c0-0.323-0.105-0.59-0.314-0.8s-0.475-0.315-0.798-0.315
				c-0.132,0-0.295,0.026-0.492,0.078l0.078-0.625c0.046,0.005,0.083,0.008,0.112,0.008c0.294,0,0.559-0.078,0.795-0.232
				s0.354-0.394,0.354-0.716c0-0.256-0.086-0.468-0.259-0.636c-0.173-0.167-0.396-0.251-0.669-0.251
				c-0.271,0-0.496,0.086-0.677,0.258s-0.297,0.43-0.348,0.773l-0.719-0.125c0.085-0.471,0.281-0.836,0.584-1.096
				s0.682-0.389,1.134-0.389c0.312,0,0.599,0.067,0.861,0.2c0.263,0.133,0.463,0.316,0.603,0.546
				c0.139,0.23,0.208,0.476,0.208,0.734c0,0.246-0.066,0.471-0.199,0.673s-0.33,0.363-0.59,0.482
				c0.338,0.079,0.604,0.241,0.797,0.487c0.193,0.247,0.289,0.555,0.289,0.926c0,0.5-0.182,0.925-0.547,1.273
				c-0.365,0.348-0.826,0.522-1.383,0.522c-0.502,0-0.92-0.148-1.252-0.444S32.262,26.299,32.215,25.828z"/>
		</g>
		<g i:knockout="Off">
			<path i:knockout="Off" d="M42.413,27.328h-0.703v-4.48c-0.169,0.162-0.392,0.323-0.666,0.484
				c-0.275,0.162-0.521,0.283-0.74,0.363v-0.68c0.393-0.185,0.737-0.409,1.031-0.672c0.294-0.263,0.502-0.518,0.625-0.766h0.453
				V27.328z"/>
			<path i:knockout="Off" d="M46.456,27.328v-1.375h-2.484v-0.641l2.625-3.719h0.563v3.719h0.781v0.641h-0.781v1.375H46.456z
				 M46.456,25.312v-2.567l-1.792,2.567H46.456z"/>
		</g>
		<g i:knockout="Off">
			<path i:knockout="Off" d="M54.42,27.328h-0.703v-4.48c-0.169,0.162-0.392,0.323-0.666,0.484c-0.275,0.162-0.521,0.283-0.74,0.363
				v-0.68c0.393-0.185,0.737-0.409,1.031-0.672c0.294-0.263,0.502-0.518,0.625-0.766h0.453V27.328z"/>
			<path i:knockout="Off" d="M56.213,25.828l0.719-0.063c0.055,0.358,0.182,0.627,0.379,0.808c0.198,0.18,0.441,0.271,0.73,0.271
				c0.348,0,0.639-0.127,0.871-0.381c0.231-0.255,0.348-0.592,0.348-1.013c0-0.4-0.111-0.716-0.332-0.947
				c-0.222-0.231-0.519-0.347-0.891-0.347c-0.232,0-0.438,0.051-0.617,0.152c-0.18,0.102-0.322,0.233-0.426,0.395l-0.656-0.094
				l0.563-2.938h2.844v0.672h-2.285l-0.313,1.549c0.344-0.241,0.704-0.362,1.082-0.362c0.5,0,0.922,0.173,1.266,0.519
				c0.344,0.346,0.516,0.791,0.516,1.334c0,0.518-0.151,0.965-0.453,1.342c-0.367,0.463-0.869,0.695-1.504,0.695
				c-0.521,0-0.946-0.145-1.275-0.436C56.448,26.694,56.26,26.309,56.213,25.828z"/>
		</g>
		<g i:knockout="Off">
			<path i:knockout="Off" d="M66.622,27.328h-0.703v-4.48c-0.17,0.162-0.392,0.323-0.666,0.484c-0.275,0.162-0.521,0.283-0.74,0.363
				v-0.68c0.393-0.185,0.736-0.409,1.031-0.672c0.294-0.263,0.502-0.518,0.625-0.766h0.453V27.328z"/>
			<path i:knockout="Off" d="M72.086,23l-0.703,0.063c-0.063-0.277-0.152-0.479-0.268-0.604c-0.191-0.201-0.428-0.302-0.708-0.302
				c-0.226,0-0.426,0.063-0.602,0.187c-0.218,0.161-0.391,0.396-0.52,0.705c-0.128,0.309-0.195,0.75-0.2,1.323
				c0.17-0.258,0.378-0.449,0.623-0.574c0.246-0.125,0.504-0.188,0.773-0.188c0.47,0,0.871,0.172,1.201,0.518
				s0.496,0.791,0.496,1.338c0,0.359-0.078,0.693-0.233,1.002s-0.369,0.545-0.642,0.709c-0.271,0.164-0.58,0.246-0.926,0.246
				c-0.588,0-1.068-0.215-1.439-0.646s-0.557-1.141-0.557-2.129c0-1.106,0.205-1.91,0.617-2.413
				c0.359-0.437,0.843-0.656,1.451-0.656c0.453,0,0.824,0.126,1.113,0.378C71.855,22.208,72.029,22.556,72.086,23z M69.196,25.47
				c0,0.242,0.052,0.473,0.155,0.694s0.247,0.389,0.43,0.505c0.183,0.115,0.38,0.173,0.589,0.173c0.304,0,0.562-0.12,0.773-0.359
				s0.318-0.564,0.318-0.975c0-0.395-0.104-0.707-0.314-0.934c-0.209-0.228-0.478-0.341-0.805-0.341
				c-0.319,0-0.59,0.114-0.813,0.341S69.196,25.101,69.196,25.47z"/>
		</g>
		<g i:knockout="Off">
			<path i:knockout="Off" d="M79.081,27.328h-0.703v-4.48c-0.17,0.162-0.392,0.323-0.666,0.484c-0.275,0.162-0.521,0.283-0.74,0.363
				v-0.68c0.393-0.185,0.736-0.409,1.031-0.672c0.294-0.263,0.502-0.518,0.625-0.766h0.453V27.328z"/>
			<path i:knockout="Off" d="M80.92,22.343v-0.672h3.703v0.543c-0.365,0.389-0.728,0.904-1.086,1.549
				c-0.359,0.644-0.636,1.307-0.832,1.987c-0.141,0.48-0.23,1.006-0.27,1.577h-0.719c0.008-0.451,0.096-0.996,0.266-1.635
				c0.168-0.639,0.41-1.255,0.727-1.849c0.315-0.593,0.651-1.094,1.008-1.5H80.92z"/>
		</g>
		<g i:knockout="Off">
			<path i:knockout="Off" d="M91.282,27.328h-0.703v-4.48c-0.17,0.162-0.392,0.323-0.666,0.484c-0.275,0.162-0.521,0.283-0.74,0.363
				v-0.68c0.393-0.185,0.736-0.409,1.031-0.672c0.294-0.263,0.502-0.518,0.625-0.766h0.453V27.328z"/>
			<path i:knockout="Off" d="M94.168,24.224c-0.292-0.107-0.508-0.259-0.648-0.458c-0.141-0.198-0.211-0.435-0.211-0.711
				c0-0.417,0.149-0.767,0.447-1.051c0.299-0.284,0.695-0.426,1.191-0.426c0.498,0,0.898,0.146,1.203,0.436
				c0.303,0.291,0.455,0.645,0.455,1.062c0,0.266-0.069,0.497-0.208,0.693c-0.139,0.197-0.349,0.349-0.632,0.456
				c0.351,0.115,0.617,0.299,0.8,0.554c0.183,0.255,0.274,0.559,0.274,0.913c0,0.488-0.173,0.899-0.519,1.232
				s-0.8,0.499-1.364,0.499s-1.019-0.167-1.364-0.501s-0.519-0.75-0.519-1.25c0-0.372,0.095-0.683,0.284-0.934
				C93.548,24.486,93.818,24.315,94.168,24.224z M93.793,25.675c0,0.2,0.046,0.393,0.139,0.58c0.092,0.187,0.232,0.332,0.423,0.434
				c0.189,0.103,0.393,0.154,0.608,0.154c0.341,0,0.619-0.108,0.834-0.323c0.217-0.216,0.324-0.489,0.324-0.822
				c0-0.337-0.111-0.616-0.334-0.837c-0.222-0.221-0.504-0.331-0.848-0.331c-0.336,0-0.61,0.109-0.824,0.327
				C93.901,25.076,93.793,25.349,93.793,25.675z M94.028,23.031c0,0.271,0.086,0.492,0.257,0.664s0.397,0.258,0.681,0.258
				c0.275,0,0.497-0.085,0.667-0.256s0.255-0.379,0.255-0.627c0-0.258-0.088-0.475-0.263-0.65s-0.397-0.264-0.667-0.264
				c-0.272,0-0.495,0.086-0.669,0.258S94.028,22.791,94.028,23.031z"/>
		</g>
		<g i:knockout="Off">
			<path i:knockout="Off" d="M103.354,27.328h-0.703v-4.48c-0.17,0.162-0.392,0.323-0.666,0.484
				c-0.275,0.162-0.521,0.283-0.74,0.363v-0.68c0.393-0.185,0.736-0.409,1.031-0.672c0.294-0.263,0.502-0.518,0.625-0.766h0.453
				V27.328z"/>
			<path i:knockout="Off" d="M105.241,26l0.672-0.063c0.057,0.318,0.166,0.548,0.328,0.691c0.161,0.143,0.368,0.215,0.621,0.215
				c0.216,0,0.406-0.049,0.572-0.147c0.165-0.098,0.299-0.23,0.4-0.395s0.188-0.387,0.258-0.667c0.07-0.28,0.105-0.566,0.105-0.858
				c0-0.031-0.002-0.078-0.004-0.141c-0.141,0.224-0.331,0.406-0.573,0.545s-0.505,0.209-0.787,0.209
				c-0.472,0-0.87-0.172-1.197-0.516c-0.326-0.344-0.489-0.798-0.489-1.361c0-0.582,0.171-1.049,0.514-1.404
				c0.342-0.354,0.771-0.532,1.287-0.532c0.372,0,0.713,0.1,1.021,0.3c0.309,0.201,0.543,0.486,0.703,0.857
				c0.16,0.371,0.24,0.907,0.24,1.61c0,0.731-0.08,1.314-0.239,1.747s-0.396,0.763-0.711,0.99c-0.315,0.227-0.685,0.339-1.107,0.339
				c-0.449,0-0.816-0.125-1.101-0.373C105.469,26.8,105.298,26.45,105.241,26z M108.131,23.474c0-0.404-0.106-0.725-0.319-0.962
				c-0.212-0.237-0.473-0.356-0.78-0.356c-0.318,0-0.592,0.128-0.822,0.383c-0.229,0.256-0.344,0.587-0.344,0.994
				c0,0.365,0.109,0.662,0.326,0.89c0.219,0.229,0.492,0.342,0.82,0.342c0.326,0,0.594-0.114,0.805-0.342
				C108.026,24.195,108.131,23.878,108.131,23.474z"/>
		</g>
		<g i:knockout="Off">
			<path i:knockout="Off" d="M8.391,13.943H7.688v-4.48C7.518,9.625,7.296,9.786,7.021,9.947c-0.275,0.162-0.521,0.283-0.74,0.363
				v-0.68c0.393-0.185,0.737-0.409,1.031-0.672c0.294-0.263,0.502-0.518,0.625-0.766h0.453V13.943z"/>
		</g>
		<g i:knockout="Off">
			<path i:knockout="Off" d="M21.631,13.271v0.672h-3.797c-0.005-0.169,0.022-0.332,0.083-0.488c0.098-0.258,0.253-0.511,0.467-0.76
				c0.214-0.249,0.521-0.537,0.92-0.864c0.619-0.516,1.04-0.923,1.261-1.221c0.221-0.298,0.332-0.58,0.332-0.849
				c0-0.278-0.1-0.513-0.299-0.704c-0.2-0.191-0.46-0.287-0.781-0.287c-0.339,0-0.611,0.104-0.814,0.311
				c-0.204,0.208-0.307,0.494-0.309,0.861L17.975,9.85c0.049-0.539,0.235-0.95,0.558-1.232c0.322-0.282,0.755-0.424,1.299-0.424
				c0.549,0,0.983,0.152,1.303,0.457c0.32,0.305,0.48,0.683,0.48,1.133c0,0.229-0.046,0.455-0.14,0.676
				c-0.093,0.221-0.248,0.454-0.464,0.699c-0.217,0.245-0.577,0.581-1.081,1.009c-0.423,0.355-0.695,0.596-0.814,0.722
				c-0.12,0.126-0.219,0.253-0.297,0.381H21.631z"/>
		</g>
		<g i:knockout="Off">
			<path i:knockout="Off" d="M30.153,12.443l0.719-0.094c0.08,0.393,0.215,0.676,0.405,0.85c0.19,0.173,0.425,0.26,0.707,0.26
				c0.333,0,0.611-0.115,0.835-0.344c0.223-0.229,0.335-0.514,0.335-0.853c0-0.323-0.104-0.59-0.313-0.8
				c-0.209-0.21-0.476-0.315-0.798-0.315c-0.132,0-0.296,0.026-0.492,0.078l0.078-0.625c0.046,0.005,0.083,0.008,0.112,0.008
				c0.294,0,0.56-0.077,0.795-0.232c0.235-0.155,0.354-0.394,0.354-0.717c0-0.255-0.086-0.467-0.259-0.635s-0.396-0.252-0.669-0.252
				c-0.271,0-0.497,0.086-0.677,0.258c-0.181,0.172-0.296,0.43-0.348,0.773l-0.719-0.125c0.086-0.471,0.28-0.836,0.584-1.096
				c0.304-0.259,0.682-0.389,1.134-0.389c0.312,0,0.599,0.067,0.861,0.2c0.262,0.134,0.463,0.315,0.602,0.546
				c0.139,0.231,0.208,0.476,0.208,0.735c0,0.246-0.066,0.47-0.199,0.672s-0.33,0.363-0.59,0.482
				c0.338,0.078,0.604,0.241,0.797,0.487c0.192,0.246,0.289,0.555,0.289,0.925c0,0.501-0.183,0.926-0.547,1.273
				c-0.365,0.349-0.826,0.522-1.383,0.522c-0.503,0-0.92-0.147-1.252-0.443S30.2,12.914,30.153,12.443z"/>
		</g>
		<g i:knockout="Off">
			<path i:knockout="Off" d="M44.588,13.943v-1.375h-2.484v-0.641l2.625-3.719h0.563v3.719h0.781v0.641h-0.781v1.375H44.588z
				 M44.588,11.928V9.361l-1.792,2.566H44.588z"/>
		</g>
		<g i:knockout="Off">
			<path i:knockout="Off" d="M54.54,12.443l0.719-0.063c0.055,0.358,0.182,0.627,0.379,0.808c0.198,0.181,0.441,0.271,0.73,0.271
				c0.348,0,0.639-0.127,0.871-0.382c0.231-0.254,0.348-0.592,0.348-1.013c0-0.399-0.111-0.715-0.332-0.946
				c-0.222-0.231-0.519-0.347-0.891-0.347c-0.232,0-0.438,0.051-0.617,0.152s-0.322,0.233-0.426,0.395l-0.656-0.094l0.563-2.938
				h2.844v0.672h-2.285l-0.313,1.549c0.344-0.241,0.704-0.361,1.082-0.361c0.5,0,0.922,0.173,1.266,0.519s0.516,0.791,0.516,1.334
				c0,0.518-0.151,0.965-0.453,1.343c-0.367,0.463-0.869,0.694-1.504,0.694c-0.521,0-0.946-0.146-1.275-0.437
				C54.774,13.31,54.586,12.924,54.54,12.443z"/>
		</g>
		<g i:knockout="Off">
			<path i:knockout="Off" d="M70.413,9.615l-0.703,0.063c-0.063-0.277-0.152-0.479-0.268-0.604
				c-0.191-0.201-0.428-0.302-0.708-0.302c-0.226,0-0.426,0.063-0.602,0.187c-0.218,0.161-0.391,0.396-0.52,0.705
				c-0.128,0.309-0.195,0.75-0.2,1.323c0.17-0.258,0.378-0.449,0.623-0.574c0.246-0.125,0.504-0.188,0.773-0.188
				c0.47,0,0.871,0.173,1.201,0.518c0.33,0.345,0.496,0.791,0.496,1.338c0,0.359-0.078,0.693-0.233,1.002s-0.369,0.545-0.642,0.709
				c-0.271,0.164-0.58,0.246-0.926,0.246c-0.588,0-1.068-0.215-1.439-0.646s-0.557-1.14-0.557-2.129c0-1.106,0.205-1.91,0.617-2.413
				c0.359-0.437,0.843-0.656,1.451-0.656c0.453,0,0.824,0.126,1.113,0.378C70.181,8.823,70.355,9.171,70.413,9.615z M67.522,12.086
				c0,0.242,0.052,0.474,0.155,0.694c0.104,0.221,0.247,0.39,0.43,0.505c0.183,0.116,0.38,0.174,0.589,0.174
				c0.304,0,0.562-0.12,0.773-0.359s0.318-0.564,0.318-0.975c0-0.395-0.104-0.707-0.314-0.934c-0.209-0.228-0.478-0.341-0.805-0.341
				c-0.319,0-0.59,0.114-0.813,0.341S67.522,11.717,67.522,12.086z"/>
		</g>
		<g i:knockout="Off">
			<path i:knockout="Off" d="M78.989,8.959V8.287h3.703v0.544c-0.365,0.388-0.728,0.904-1.086,1.548
				c-0.359,0.645-0.636,1.307-0.832,1.988c-0.141,0.48-0.23,1.005-0.27,1.577h-0.719c0.008-0.451,0.096-0.996,0.266-1.635
				c0.168-0.639,0.41-1.255,0.727-1.849c0.315-0.593,0.651-1.093,1.008-1.5H78.989z"/>
		</g>
		<g i:knockout="Off">
			<path i:knockout="Off" d="M92.237,10.84c-0.292-0.106-0.508-0.259-0.648-0.457s-0.211-0.436-0.211-0.712
				c0-0.417,0.149-0.767,0.447-1.051c0.299-0.284,0.695-0.426,1.191-0.426c0.498,0,0.898,0.146,1.203,0.436
				c0.303,0.291,0.455,0.644,0.455,1.061c0,0.266-0.069,0.497-0.208,0.694c-0.139,0.196-0.349,0.349-0.632,0.455
				c0.351,0.114,0.617,0.299,0.8,0.554s0.274,0.559,0.274,0.912c0,0.489-0.173,0.899-0.519,1.232s-0.8,0.499-1.364,0.499
				s-1.019-0.167-1.364-0.501s-0.519-0.75-0.519-1.25c0-0.371,0.095-0.683,0.284-0.934S91.886,10.931,92.237,10.84z M91.862,12.291
				c0,0.2,0.046,0.394,0.139,0.58c0.092,0.187,0.232,0.332,0.423,0.434c0.189,0.103,0.393,0.154,0.608,0.154
				c0.341,0,0.619-0.107,0.834-0.323c0.217-0.215,0.324-0.489,0.324-0.821c0-0.337-0.111-0.616-0.334-0.837
				c-0.222-0.221-0.504-0.331-0.848-0.331c-0.336,0-0.61,0.109-0.824,0.327C91.969,11.691,91.862,11.964,91.862,12.291z
				 M92.096,9.646c0,0.271,0.086,0.492,0.257,0.664s0.397,0.258,0.681,0.258c0.275,0,0.497-0.085,0.667-0.256
				c0.17-0.17,0.255-0.379,0.255-0.627c0-0.258-0.088-0.475-0.263-0.65s-0.397-0.264-0.667-0.264c-0.272,0-0.495,0.086-0.669,0.258
				S92.096,9.407,92.096,9.646z"/>
		</g>
		<g i:knockout="Off">
			<path i:knockout="Off" d="M103.438,12.615l0.672-0.063c0.057,0.318,0.166,0.548,0.328,0.691c0.161,0.144,0.368,0.215,0.621,0.215
				c0.216,0,0.406-0.049,0.572-0.147c0.165-0.099,0.299-0.23,0.4-0.395s0.188-0.387,0.258-0.667c0.07-0.28,0.105-0.565,0.105-0.857
				c0-0.031-0.002-0.078-0.004-0.141c-0.141,0.224-0.331,0.406-0.573,0.545c-0.242,0.14-0.505,0.209-0.787,0.209
				c-0.472,0-0.87-0.172-1.197-0.516c-0.326-0.344-0.489-0.797-0.489-1.361c0-0.581,0.171-1.049,0.514-1.404
				c0.342-0.354,0.771-0.532,1.287-0.532c0.372,0,0.713,0.101,1.021,0.301s0.543,0.486,0.703,0.856c0.16,0.371,0.24,0.908,0.24,1.61
				c0,0.731-0.08,1.313-0.239,1.747s-0.396,0.763-0.711,0.989c-0.315,0.227-0.685,0.34-1.107,0.34c-0.449,0-0.816-0.124-1.101-0.373
				C103.667,13.416,103.496,13.066,103.438,12.615z M106.329,10.09c0-0.404-0.106-0.725-0.319-0.962
				c-0.212-0.237-0.473-0.356-0.78-0.356c-0.318,0-0.592,0.128-0.822,0.384c-0.229,0.255-0.344,0.586-0.344,0.993
				c0,0.365,0.109,0.662,0.326,0.89c0.219,0.228,0.492,0.342,0.82,0.342c0.326,0,0.594-0.114,0.805-0.342
				C106.223,10.811,106.329,10.494,106.329,10.09z"/>
		</g>
		<g i:knockout="Off">
			<path i:knockout="Off" d="M117.823,26.656v0.672h-3.797c-0.006-0.169,0.022-0.332,0.083-0.488
				c0.097-0.258,0.253-0.511,0.467-0.76s0.521-0.537,0.92-0.864c0.62-0.516,1.04-0.923,1.261-1.221
				c0.222-0.297,0.332-0.581,0.332-0.848c0-0.278-0.1-0.513-0.299-0.704c-0.2-0.191-0.461-0.287-0.781-0.287
				c-0.34,0-0.61,0.104-0.814,0.311c-0.203,0.207-0.307,0.494-0.309,0.861l-0.719-0.094c0.049-0.539,0.235-0.95,0.558-1.232
				c0.323-0.283,0.756-0.424,1.3-0.424c0.549,0,0.983,0.153,1.303,0.458c0.32,0.305,0.48,0.682,0.48,1.133
				c0,0.229-0.047,0.455-0.14,0.676c-0.094,0.222-0.248,0.455-0.465,0.7c-0.216,0.245-0.576,0.581-1.081,1.009
				c-0.423,0.355-0.694,0.596-0.814,0.722c-0.119,0.126-0.219,0.254-0.297,0.381H117.823z"/>
			<path i:knockout="Off" d="M118.577,24.501c0-0.676,0.07-1.222,0.211-1.637s0.349-0.733,0.626-0.955
				c0.277-0.221,0.626-0.332,1.046-0.332c0.31,0,0.583,0.062,0.819,0.186s0.429,0.302,0.579,0.535
				c0.149,0.233,0.268,0.517,0.354,0.851s0.13,0.785,0.13,1.353c0,0.671-0.069,1.215-0.209,1.63
				c-0.139,0.415-0.348,0.734-0.624,0.957c-0.277,0.223-0.627,0.333-1.05,0.333c-0.557,0-0.994-0.195-1.312-0.585
				C118.767,26.354,118.577,25.576,118.577,24.501z M119.295,24.5c0,0.945,0.111,1.572,0.336,1.881
				c0.224,0.309,0.5,0.463,0.828,0.463s0.604-0.155,0.828-0.465s0.336-0.936,0.336-1.879s-0.111-1.569-0.334-1.879
				s-0.502-0.465-0.838-0.465c-0.328,0-0.592,0.137-0.791,0.41C119.417,22.915,119.295,23.56,119.295,24.5z"/>
		</g>
		<path i:knockout="Off" fill="none" stroke="#000000" stroke-width="0.5" d="M0.667,16.267H125"/>
		<path i:knockout="Off" fill="none" stroke="#000000" stroke-width="0.5" d="M0.667,29.6H125"/>
		<path i:knockout="Off" fill="none" stroke="#000000" stroke-width="1.2" d="M68.75,5.203H56.252V0.6H68.75V5.203z"/>
		<path i:knockout="Off" fill="none" stroke="#000000" stroke-width="1.2" d="M7.816,4.958H0.6V0.745h7.216V4.958z"/>
		<path i:knockout="Off" fill="none" stroke="#000000" stroke-width="1.2" d="M125,4.958h-2.833V0.745H125V4.958z"/>
	</g>
</svg>
