<?xml version="1.0" encoding="utf-8"?>
<!-- Generator: Adobe Illustrator 10.0, SVG Export Plug-In . SVG Version: 3.0.0 Build 77)  -->
<!DOCTYPE svg PUBLIC "-//W3C//DTD SVG 1.0//EN"    "http://www.w3.org/TR/2001/REC-SVG-20010904/DTD/svg10.dtd" [
	<!ENTITY ns_flows "http://ns.adobe.com/Flows/1.0/">
	<!ENTITY ns_extend "http://ns.adobe.com/Extensibility/1.0/">
	<!ENTITY ns_ai "http://ns.adobe.com/AdobeIllustrator/10.0/">
	<!ENTITY ns_graphs "http://ns.adobe.com/Graphs/1.0/">
	<!ENTITY ns_vars "http://ns.adobe.com/Variables/1.0/">
	<!ENTITY ns_imrep "http://ns.adobe.com/ImageReplacement/1.0/">
	<!ENTITY ns_sfw "http://ns.adobe.com/SaveForWeb/1.0/">
	<!ENTITY ns_custom "http://ns.adobe.com/GenericCustomNamespace/1.0/">
	<!ENTITY ns_adobe_xpath "http://ns.adobe.com/XPath/1.0/">
	<!ENTITY ns_svg "http://www.w3.org/2000/svg">
	<!ENTITY ns_xlink "http://www.w3.org/1999/xlink">
]>
<svg xmlns:x="&ns_extend;" xmlns:i="&ns_ai;" xmlns:graph="&ns_graphs;" i:viewOrigin="249.6333 435.2075" i:rulerOrigin="-1 0.1104" i:pageBounds="1 841.8896 596 -0.1104" xmlns="&ns_svg;" xmlns:xlink="&ns_xlink;" xmlns:a="http://ns.adobe.com/AdobeSVGViewerExtensions/3.0/" width="91.706" height="28.814" viewBox="0 0 91.706 28.814" overflow="visible" enable-background="new 0 0 91.706 28.814" xml:space="preserve" id="svgObj" onload="parent.svgLoad('Top', document)">
	<metadata>
		<variableSets xmlns="&ns_vars;">
			<variableSet varSetName="binding1" locked="none">
				<variables></variables>
				<v:sampleDataSets xmlns="&ns_custom;" xmlns:v="&ns_vars;"></v:sampleDataSets>
			</variableSet>
		</variableSets>
		<sfw xmlns="&ns_sfw;">
			<slices></slices>
			<sliceSourceBounds y="388.709" x="218.13" width="159.74" height="63.362" bottomLeftOrigin="true"></sliceSourceBounds>
		</sfw>
	</metadata>
	<g id="レイヤー_1" i:layer="yes" i:dimmedPercent="100" i:rgbTrio="#4F008000FFFF">
		<g>
			<path i:knockout="Off" fill="none" stroke="#000000" stroke-width="0.7" stroke-linecap="round" d="M0.558,15.863V3.523h11.34
				v12.34H0.558z"/>
			<g i:knockout="Off">
				<path i:knockout="Off" d="M6.92,11.803H6.217v-4.48C6.047,7.484,5.826,7.646,5.551,7.807C5.276,7.969,5.029,8.09,4.811,8.17
					v-0.68c0.393-0.185,0.737-0.409,1.031-0.672c0.294-0.263,0.502-0.518,0.625-0.766H6.92V11.803z"/>
			</g>
			<path i:knockout="Off" fill="none" d="M11.773,13.565H0.898"/>
			<path i:knockout="Off" fill="none" stroke="#000000" stroke-width="0.7" stroke-linecap="round" d="M11.87,15.863V3.523h11.34
				v12.34H11.87z"/>
			<g i:knockout="Off">
				<path i:knockout="Off" d="M19.271,11.131v0.672h-3.797c-0.005-0.169,0.022-0.332,0.083-0.488
					c0.098-0.258,0.253-0.511,0.467-0.76c0.214-0.249,0.521-0.537,0.92-0.864c0.619-0.516,1.04-0.923,1.261-1.221
					c0.221-0.298,0.332-0.58,0.332-0.849c0-0.278-0.1-0.513-0.299-0.704c-0.2-0.191-0.46-0.287-0.781-0.287
					c-0.339,0-0.611,0.104-0.814,0.311c-0.204,0.208-0.307,0.494-0.309,0.861l-0.719-0.094c0.049-0.539,0.235-0.95,0.558-1.232
					c0.322-0.282,0.755-0.424,1.299-0.424c0.549,0,0.983,0.152,1.303,0.457c0.32,0.305,0.48,0.683,0.48,1.133
					c0,0.229-0.046,0.455-0.14,0.676c-0.093,0.221-0.248,0.454-0.464,0.699c-0.217,0.245-0.577,0.581-1.081,1.009
					c-0.423,0.355-0.695,0.596-0.814,0.722c-0.12,0.126-0.219,0.253-0.297,0.381H19.271z"/>
			</g>
			<path i:knockout="Off" fill="none" d="M23.085,13.565H12.21"/>
			<path i:knockout="Off" fill="none" stroke="#000000" stroke-width="0.7" stroke-linecap="round" d="M23.183,15.863V3.523h11.34
				v12.34H23.183z"/>
			<g i:knockout="Off">
				<path i:knockout="Off" d="M26.904,10.303l0.719-0.094c0.08,0.393,0.215,0.676,0.405,0.85c0.189,0.173,0.425,0.26,0.707,0.26
					c0.333,0,0.611-0.115,0.834-0.344s0.335-0.514,0.335-0.853c0-0.323-0.105-0.59-0.314-0.8s-0.475-0.315-0.798-0.315
					c-0.132,0-0.295,0.026-0.492,0.078l0.078-0.625c0.046,0.005,0.083,0.008,0.112,0.008c0.294,0,0.559-0.077,0.795-0.232
					c0.236-0.155,0.354-0.394,0.354-0.717c0-0.255-0.086-0.467-0.259-0.635s-0.396-0.252-0.669-0.252
					c-0.271,0-0.496,0.086-0.677,0.258s-0.297,0.43-0.348,0.773l-0.719-0.125c0.085-0.471,0.281-0.836,0.584-1.096
					c0.304-0.259,0.682-0.389,1.134-0.389c0.312,0,0.599,0.067,0.861,0.2c0.263,0.134,0.463,0.315,0.603,0.546
					c0.139,0.231,0.208,0.476,0.208,0.735c0,0.246-0.066,0.47-0.199,0.672s-0.33,0.363-0.59,0.482
					c0.338,0.078,0.604,0.241,0.797,0.487c0.193,0.246,0.289,0.555,0.289,0.925c0,0.501-0.182,0.926-0.547,1.273
					c-0.365,0.349-0.826,0.522-1.383,0.522c-0.502,0-0.92-0.147-1.252-0.443S26.951,10.774,26.904,10.303z"/>
			</g>
			<path i:knockout="Off" fill="none" d="M34.398,13.565H23.523"/>
			<path i:knockout="Off" fill="none" stroke="#000000" stroke-width="0.7" stroke-linecap="round" d="M0.558,28.214v-12.34h11.34
				v12.34H0.558z"/>
			<g i:knockout="Off">
				<path i:knockout="Off" d="M7.936,19.827l-0.703,0.063c-0.063-0.277-0.152-0.479-0.267-0.604
					c-0.191-0.201-0.428-0.302-0.708-0.302c-0.226,0-0.427,0.063-0.602,0.187c-0.218,0.162-0.391,0.396-0.519,0.705
					c-0.129,0.31-0.195,0.75-0.201,1.323c0.17-0.258,0.377-0.449,0.624-0.574c0.245-0.125,0.503-0.188,0.772-0.188
					c0.471,0,0.871,0.173,1.202,0.518s0.496,0.791,0.496,1.338c0,0.359-0.078,0.693-0.233,1.002s-0.37,0.545-0.641,0.709
					c-0.272,0.164-0.581,0.246-0.926,0.246c-0.588,0-1.068-0.216-1.439-0.646c-0.372-0.432-0.557-1.141-0.557-2.13
					c0-1.106,0.206-1.91,0.617-2.413c0.359-0.437,0.842-0.655,1.451-0.655c0.453,0,0.825,0.126,1.114,0.378
					S7.878,19.382,7.936,19.827z M5.045,22.297c0,0.242,0.051,0.474,0.155,0.694s0.247,0.39,0.43,0.505
					c0.183,0.116,0.379,0.174,0.589,0.174c0.303,0,0.561-0.12,0.773-0.358c0.212-0.24,0.318-0.564,0.318-0.976
					c0-0.396-0.105-0.706-0.314-0.935c-0.21-0.227-0.478-0.341-0.805-0.341c-0.319,0-0.59,0.114-0.813,0.341
					C5.156,21.63,5.045,21.928,5.045,22.297z"/>
			</g>
			<path i:knockout="Off" fill="none" d="M11.773,25.917H0.898"/>
			<path i:knockout="Off" fill="none" stroke="#000000" stroke-width="0.7" stroke-linecap="round" d="M11.87,28.214v-12.34h11.34
				v12.34H11.87z"/>
			<g i:knockout="Off">
				<path i:knockout="Off" d="M15.623,19.17v-0.672h3.703v0.544c-0.365,0.388-0.727,0.904-1.086,1.548
					c-0.359,0.645-0.636,1.308-0.832,1.987c-0.141,0.48-0.231,1.006-0.27,1.577H16.42c0.008-0.451,0.096-0.996,0.265-1.636
					c0.169-0.639,0.411-1.255,0.727-1.848c0.316-0.594,0.652-1.094,1.008-1.501H15.623z"/>
			</g>
			<path i:knockout="Off" fill="none" d="M23.085,25.917H12.21"/>
			<path i:knockout="Off" fill="none" stroke="#000000" stroke-width="0.7" stroke-linecap="round" d="M23.183,28.214v-12.34h11.34
				v12.34H23.183z"/>
			<g i:knockout="Off">
				<path i:knockout="Off" d="M27.982,21.051c-0.292-0.106-0.508-0.259-0.648-0.457s-0.21-0.436-0.21-0.712
					c0-0.417,0.149-0.768,0.448-1.051c0.298-0.285,0.695-0.427,1.191-0.427c0.498,0,0.899,0.146,1.203,0.437
					c0.304,0.29,0.456,0.644,0.456,1.061c0,0.266-0.069,0.497-0.208,0.694c-0.139,0.196-0.349,0.349-0.631,0.455
					c0.35,0.114,0.616,0.299,0.799,0.554s0.274,0.559,0.274,0.912c0,0.489-0.173,0.899-0.519,1.232s-0.8,0.499-1.364,0.499
					s-1.019-0.167-1.365-0.501s-0.518-0.75-0.518-1.25c0-0.371,0.094-0.683,0.284-0.934S27.632,21.142,27.982,21.051z
					 M27.607,22.502c0,0.2,0.046,0.394,0.138,0.58c0.093,0.187,0.233,0.331,0.423,0.435c0.19,0.102,0.393,0.153,0.608,0.153
					c0.34,0,0.619-0.107,0.834-0.323c0.216-0.215,0.324-0.489,0.324-0.821c0-0.337-0.111-0.616-0.333-0.837
					s-0.505-0.331-0.848-0.331c-0.335,0-0.61,0.109-0.825,0.327C27.714,21.903,27.607,22.175,27.607,22.502z M27.842,19.858
					c0,0.271,0.085,0.492,0.256,0.664c0.171,0.172,0.398,0.258,0.681,0.258c0.275,0,0.497-0.085,0.667-0.256s0.255-0.38,0.255-0.627
					c0-0.258-0.087-0.475-0.263-0.65s-0.397-0.264-0.667-0.264c-0.272,0-0.496,0.086-0.669,0.258S27.842,19.619,27.842,19.858z"/>
			</g>
			<path i:knockout="Off" fill="none" d="M34.398,25.917H23.523"/>
			<path i:knockout="Off" fill="none" stroke="#000000" stroke-width="0.7" stroke-linecap="round" d="M34.495,28.214v-12.34h11.34
				v12.34H34.495z"/>
			<g i:knockout="Off">
				<path i:knockout="Off" d="M38.295,22.827l0.672-0.063c0.057,0.317,0.167,0.548,0.328,0.691s0.369,0.215,0.621,0.215
					c0.216,0,0.407-0.049,0.572-0.147s0.299-0.23,0.4-0.395s0.188-0.387,0.258-0.667s0.105-0.565,0.105-0.857
					c0-0.031-0.001-0.078-0.004-0.141c-0.14,0.224-0.331,0.405-0.573,0.545s-0.504,0.209-0.787,0.209
					c-0.472,0-0.871-0.172-1.197-0.517c-0.327-0.344-0.49-0.797-0.49-1.36c0-0.581,0.171-1.05,0.514-1.403
					c0.342-0.355,0.771-0.532,1.287-0.532c0.373,0,0.713,0.101,1.021,0.301s0.543,0.485,0.703,0.856s0.24,0.908,0.24,1.61
					c0,0.731-0.08,1.313-0.239,1.747c-0.16,0.434-0.396,0.764-0.712,0.989c-0.314,0.227-0.684,0.34-1.106,0.34
					c-0.45,0-0.817-0.124-1.102-0.373S38.352,23.277,38.295,22.827z M41.186,20.301c0-0.404-0.106-0.726-0.319-0.962
					c-0.213-0.238-0.473-0.356-0.781-0.356c-0.318,0-0.592,0.128-0.822,0.384s-0.344,0.586-0.344,0.993
					c0,0.365,0.109,0.662,0.327,0.89c0.218,0.229,0.491,0.343,0.82,0.343c0.326,0,0.594-0.114,0.804-0.343
					C41.081,21.022,41.186,20.706,41.186,20.301z"/>
			</g>
			<path i:knockout="Off" fill="none" d="M45.71,25.917H34.835"/>
			<path i:knockout="Off" fill="none" stroke="#000000" stroke-width="0.7" stroke-linecap="round" d="M45.808,28.214v-12.34h11.34
				v12.34H45.808z"/>
			<g i:knockout="Off">
				<path i:knockout="Off" d="M49.945,24.155h-0.703v-4.48c-0.169,0.161-0.392,0.323-0.666,0.484
					c-0.275,0.161-0.521,0.282-0.74,0.363v-0.68c0.393-0.185,0.737-0.409,1.031-0.672c0.294-0.263,0.502-0.519,0.625-0.766h0.453
					V24.155z"/>
				<path i:knockout="Off" d="M51.738,21.329c0-0.677,0.07-1.223,0.211-1.638s0.349-0.733,0.626-0.954
					c0.277-0.222,0.626-0.332,1.046-0.332c0.31,0,0.583,0.062,0.819,0.186s0.429,0.302,0.579,0.534
					c0.149,0.233,0.268,0.518,0.354,0.852s0.13,0.785,0.13,1.353c0,0.671-0.069,1.215-0.209,1.63
					c-0.139,0.415-0.348,0.734-0.624,0.956c-0.277,0.223-0.627,0.334-1.05,0.334c-0.557,0-0.994-0.195-1.312-0.585
					C51.928,23.181,51.738,22.404,51.738,21.329z M52.457,21.327c0,0.945,0.111,1.572,0.336,1.881
					c0.224,0.309,0.5,0.463,0.828,0.463s0.604-0.155,0.828-0.465s0.336-0.937,0.336-1.879s-0.111-1.569-0.334-1.879
					s-0.502-0.465-0.838-0.465c-0.328,0-0.592,0.137-0.791,0.41C52.579,19.742,52.457,20.386,52.457,21.327z"/>
			</g>
			<path i:knockout="Off" fill="none" d="M57.023,25.917H46.148"/>
			<path i:knockout="Off" fill="none" stroke="#000000" stroke-width="0.7" stroke-linecap="round" d="M57.12,28.214v-12.34H68.46
				v12.34H57.12z"/>
			<g i:knockout="Off">
				<path i:knockout="Off" d="M61.258,24.155h-0.703v-4.48c-0.169,0.161-0.392,0.323-0.666,0.484s-0.521,0.282-0.74,0.363v-0.68
					c0.394-0.185,0.737-0.409,1.031-0.672s0.503-0.519,0.625-0.766h0.453V24.155z"/>
				<path i:knockout="Off" d="M65.708,24.155h-0.703v-4.48c-0.169,0.161-0.392,0.323-0.666,0.484s-0.521,0.282-0.74,0.363v-0.68
					c0.394-0.185,0.737-0.409,1.031-0.672s0.503-0.519,0.625-0.766h0.453V24.155z"/>
			</g>
			<path i:knockout="Off" fill="none" d="M68.335,25.917H57.46"/>
			<path i:knockout="Off" fill="none" stroke="#000000" stroke-width="0.7" stroke-linecap="round" d="M68.432,15.863V3.523h11.341
				v12.34H68.432z"/>
			<g i:knockout="Off">
				<path i:knockout="Off" d="M74.389,11.803v-1.375h-2.484V9.788l2.625-3.719h0.563v3.719h0.781v0.641h-0.781v1.375H74.389z
					 M74.389,9.788V7.221l-1.792,2.566H74.389z"/>
			</g>
			<path i:knockout="Off" fill="none" d="M79.648,13.565H68.773"/>
			<path i:knockout="Off" fill="none" stroke="#000000" stroke-width="0.7" stroke-linecap="round" d="M79.745,15.863V3.523h11.341
				v12.34H79.745z"/>
			<g i:knockout="Off">
				<path i:knockout="Off" d="M83.452,10.303l0.719-0.063c0.055,0.358,0.182,0.627,0.38,0.808c0.197,0.181,0.44,0.271,0.729,0.271
					c0.35,0,0.64-0.127,0.871-0.382c0.232-0.254,0.349-0.592,0.349-1.013c0-0.399-0.11-0.715-0.332-0.946
					c-0.222-0.231-0.519-0.347-0.891-0.347c-0.231,0-0.438,0.051-0.617,0.152s-0.321,0.233-0.426,0.395l-0.656-0.094l0.563-2.938
					h2.844v0.672h-2.285l-0.313,1.549c0.344-0.241,0.704-0.361,1.082-0.361c0.5,0,0.922,0.173,1.266,0.519s0.516,0.791,0.516,1.334
					c0,0.518-0.151,0.965-0.453,1.343c-0.367,0.463-0.868,0.694-1.504,0.694c-0.521,0-0.946-0.146-1.275-0.437
					S83.499,10.784,83.452,10.303z"/>
			</g>
			<path i:knockout="Off" fill="none" d="M90.96,13.565H80.085"/>
			<path i:knockout="Off" fill="none" stroke="#000000" stroke-width="0.7" stroke-linecap="round" d="M68.432,28.214v-12.34h11.341
				v12.34H68.432z"/>
			<g i:knockout="Off">
				<path i:knockout="Off" d="M72.571,24.155h-0.703v-4.48c-0.169,0.161-0.392,0.323-0.666,0.484s-0.521,0.282-0.74,0.363v-0.68
					c0.394-0.185,0.737-0.409,1.031-0.672s0.503-0.519,0.625-0.766h0.453V24.155z"/>
				<path i:knockout="Off" d="M78.059,23.483v0.672h-3.797c-0.005-0.169,0.022-0.332,0.083-0.488
					c0.097-0.258,0.252-0.511,0.467-0.76c0.214-0.249,0.521-0.536,0.92-0.864c0.62-0.516,1.04-0.923,1.262-1.221
					c0.221-0.298,0.331-0.58,0.331-0.849c0-0.278-0.1-0.513-0.3-0.704c-0.199-0.19-0.459-0.286-0.78-0.286
					c-0.339,0-0.61,0.104-0.813,0.312c-0.204,0.207-0.307,0.494-0.31,0.86l-0.719-0.094c0.05-0.539,0.235-0.95,0.558-1.232
					s0.756-0.424,1.3-0.424c0.549,0,0.983,0.152,1.304,0.457c0.319,0.305,0.479,0.683,0.479,1.134c0,0.229-0.047,0.454-0.14,0.676
					c-0.094,0.221-0.248,0.454-0.465,0.699c-0.216,0.245-0.576,0.581-1.08,1.009c-0.424,0.354-0.695,0.596-0.815,0.722
					c-0.12,0.127-0.219,0.254-0.297,0.382H78.059z"/>
			</g>
			<path i:knockout="Off" fill="none" d="M79.648,25.917H68.773"/>
			<path i:knockout="Off" fill="none" stroke="#000000" stroke-width="0.7" stroke-linecap="round" d="M79.745,28.214v-12.34h11.341
				v12.34H79.745z"/>
			<g i:knockout="Off">
				<path i:knockout="Off" d="M83.883,24.155H83.18v-4.48c-0.169,0.161-0.392,0.323-0.666,0.484s-0.521,0.282-0.74,0.363v-0.68
					c0.394-0.185,0.737-0.409,1.031-0.672s0.503-0.519,0.625-0.766h0.453V24.155z"/>
				<path i:knockout="Off" d="M85.692,22.655l0.719-0.094c0.08,0.394,0.215,0.676,0.405,0.85c0.189,0.173,0.425,0.26,0.706,0.26
					c0.333,0,0.611-0.114,0.835-0.345c0.223-0.229,0.335-0.514,0.335-0.853c0-0.323-0.104-0.591-0.313-0.8
					c-0.209-0.211-0.476-0.315-0.798-0.315c-0.132,0-0.296,0.026-0.492,0.078l0.077-0.625c0.047,0.005,0.084,0.008,0.112,0.008
					c0.294,0,0.56-0.077,0.795-0.232s0.354-0.394,0.354-0.717c0-0.255-0.087-0.467-0.259-0.635c-0.174-0.168-0.396-0.252-0.67-0.252
					c-0.271,0-0.496,0.086-0.676,0.258c-0.182,0.172-0.297,0.43-0.349,0.773l-0.719-0.125c0.086-0.472,0.28-0.837,0.585-1.096
					c0.304-0.259,0.682-0.389,1.134-0.389c0.312,0,0.599,0.067,0.861,0.2c0.263,0.134,0.463,0.315,0.603,0.546
					c0.139,0.231,0.208,0.476,0.208,0.735c0,0.246-0.066,0.471-0.199,0.672c-0.133,0.203-0.329,0.363-0.59,0.482
					c0.339,0.078,0.604,0.24,0.797,0.487c0.192,0.246,0.289,0.555,0.289,0.925c0,0.501-0.183,0.926-0.547,1.273
					c-0.364,0.349-0.825,0.522-1.383,0.522c-0.503,0-0.92-0.147-1.252-0.443S85.739,23.125,85.692,22.655z"/>
			</g>
			<path i:knockout="Off" fill="none" d="M90.96,25.917H80.085"/>
			<g>
				<g>
					<g>
						<path i:knockout="Off" fill="none" stroke="#000000" stroke-width="1.2" stroke-linecap="round" d="M88.559,3.584V0.6h2.547
							v2.984"/>
					</g>
				</g>
			</g>
			<g>
				<g>
					<g>
						<path i:knockout="Off" fill="none" stroke="#000000" stroke-width="1.2" stroke-linecap="round" d="M0.6,3.584V0.6h2.547
							v2.984"/>
					</g>
				</g>
			</g>
			<g>
				<g>
					<path i:knockout="Off" fill="none" stroke="#000000" stroke-width="1.2" d="M49.02,15.859h4.562v-2.188H49.02V15.859z"/>
					<path i:knockout="Off" fill="none" stroke="#000000" stroke-width="1.2" d="M47.194,15.857h8.212v-3.938h-8.212V15.857z"/>
					<path i:knockout="Off" fill="none" stroke="#000000" stroke-width="1.2" d="M46.957,15.859"/>
				</g>
			</g>
			<path i:knockout="Off" fill="none" stroke="#000000" stroke-width="1.2" stroke-linecap="round" d="M68.432,3.523v12.352H34.495
				V3.584H0.6v24.63h33.895v-0.06h33.937v0.06h22.653V3.523H68.432z"/>
		</g>
	</g>
</svg>
