<?xml version="1.0" encoding="utf-8"?>
<!-- Generator: Adobe Illustrator 10.0, SVG Export Plug-In . SVG Version: 3.0.0 Build 77)  -->
<!DOCTYPE svg PUBLIC "-//W3C//DTD SVG 1.0//EN"    "http://www.w3.org/TR/2001/REC-SVG-20010904/DTD/svg10.dtd" [
	<!ENTITY ns_flows "http://ns.adobe.com/Flows/1.0/">
	<!ENTITY ns_extend "http://ns.adobe.com/Extensibility/1.0/">
	<!ENTITY ns_ai "http://ns.adobe.com/AdobeIllustrator/10.0/">
	<!ENTITY ns_graphs "http://ns.adobe.com/Graphs/1.0/">
	<!ENTITY ns_vars "http://ns.adobe.com/Variables/1.0/">
	<!ENTITY ns_imrep "http://ns.adobe.com/ImageReplacement/1.0/">
	<!ENTITY ns_sfw "http://ns.adobe.com/SaveForWeb/1.0/">
	<!ENTITY ns_custom "http://ns.adobe.com/GenericCustomNamespace/1.0/">
	<!ENTITY ns_adobe_xpath "http://ns.adobe.com/XPath/1.0/">
	<!ENTITY ns_svg "http://www.w3.org/2000/svg">
	<!ENTITY ns_xlink "http://www.w3.org/1999/xlink">
]>
<svg xmlns:x="&ns_extend;" xmlns:i="&ns_ai;" xmlns:graph="&ns_graphs;" i:viewOrigin="220.418 434.6758" i:rulerOrigin="-1 0.1104" i:pageBounds="1 841.8896 596 -0.1104" xmlns="&ns_svg;" xmlns:xlink="&ns_xlink;" xmlns:a="http://ns.adobe.com/AdobeSVGViewerExtensions/3.0/" width="156.588" height="33.699" viewBox="0 0 156.588 33.699" overflow="visible" enable-background="new 0 0 156.588 33.699" xml:space="preserve" id="svgObj" onload="parent.svgLoad('Top', document)">
	<metadata>
		<variableSets xmlns="&ns_vars;">
			<variableSet varSetName="binding1" locked="none">
				<variables></variables>
				<v:sampleDataSets xmlns="&ns_custom;" xmlns:v="&ns_vars;"></v:sampleDataSets>
			</variableSet>
		</variableSets>
		<sfw xmlns="&ns_sfw;">
			<slices></slices>
			<sliceSourceBounds y="388.709" x="218.13" width="159.74" height="63.362" bottomLeftOrigin="true"></sliceSourceBounds>
		</sfw>
	</metadata>
	<g id="レイヤー_1" i:layer="yes" i:dimmedPercent="100" i:rgbTrio="#4F008000FFFF">
		<g>
			<g>
				<path i:knockout="Off" fill="none" stroke="#000000" stroke-width="0.7" stroke-linecap="round" d="M27.515,18.116V5.776h11.34
					v12.34H27.515z"/>
				<g i:knockout="Off">
					<path i:knockout="Off" d="M31.236,12.557l0.719-0.094c0.08,0.393,0.215,0.676,0.405,0.85c0.189,0.173,0.425,0.26,0.707,0.26
						c0.333,0,0.611-0.115,0.834-0.344s0.335-0.514,0.335-0.853c0-0.323-0.105-0.59-0.314-0.8s-0.475-0.315-0.798-0.315
						c-0.132,0-0.295,0.026-0.492,0.078l0.078-0.625c0.046,0.005,0.083,0.008,0.112,0.008c0.294,0,0.559-0.077,0.795-0.232
						c0.236-0.155,0.354-0.394,0.354-0.717c0-0.255-0.086-0.467-0.259-0.635s-0.396-0.252-0.669-0.252
						c-0.271,0-0.496,0.086-0.677,0.258s-0.297,0.43-0.348,0.773l-0.719-0.125c0.085-0.471,0.281-0.836,0.584-1.096
						c0.304-0.259,0.682-0.389,1.134-0.389c0.312,0,0.599,0.067,0.861,0.2c0.263,0.134,0.463,0.315,0.603,0.546
						c0.139,0.231,0.208,0.476,0.208,0.735c0,0.246-0.066,0.47-0.199,0.672s-0.33,0.363-0.59,0.482
						c0.338,0.078,0.604,0.241,0.797,0.487c0.193,0.246,0.289,0.555,0.289,0.925c0,0.501-0.182,0.926-0.547,1.273
						c-0.365,0.349-0.826,0.522-1.383,0.522c-0.502,0-0.92-0.147-1.252-0.443S31.283,13.027,31.236,12.557z"/>
				</g>
				<path i:knockout="Off" fill="none" stroke="#000000" stroke-width="0.7" stroke-linecap="round" d="M38.73,15.818H27.855"/>
				<path i:knockout="Off" fill="none" stroke="#000000" stroke-width="0.7" stroke-linecap="round" d="M39.015,18.116V5.776h11.34
					v12.34H39.015z"/>
				<g i:knockout="Off">
					<path i:knockout="Off" d="M44.97,14.057v-1.375h-2.484v-0.641l2.625-3.719h0.563v3.719h0.781v0.641h-0.781v1.375H44.97z
						 M44.97,12.041V9.475l-1.792,2.566H44.97z"/>
				</g>
				<path i:knockout="Off" fill="none" stroke="#000000" stroke-width="0.7" stroke-linecap="round" d="M50.23,15.818H39.355"/>
				<path i:knockout="Off" fill="none" stroke="#000000" stroke-width="0.7" stroke-linecap="round" d="M50.515,18.116V5.776h11.34
					v12.34H50.515z"/>
				<g i:knockout="Off">
					<path i:knockout="Off" d="M54.22,12.557l0.719-0.063c0.055,0.358,0.181,0.627,0.379,0.808c0.198,0.181,0.441,0.271,0.729,0.271
						c0.349,0,0.639-0.127,0.871-0.382c0.232-0.254,0.348-0.592,0.348-1.013c0-0.399-0.111-0.715-0.332-0.946
						c-0.221-0.231-0.518-0.347-0.891-0.347c-0.232,0-0.438,0.051-0.617,0.152s-0.322,0.233-0.426,0.395l-0.656-0.094L54.908,8.4
						h2.844v0.672h-2.285l-0.313,1.549c0.344-0.241,0.705-0.361,1.082-0.361c0.5,0,0.922,0.173,1.266,0.519s0.516,0.791,0.516,1.334
						c0,0.518-0.151,0.965-0.453,1.343c-0.367,0.463-0.869,0.694-1.504,0.694c-0.521,0-0.946-0.146-1.275-0.437
						S54.267,13.037,54.22,12.557z"/>
				</g>
				<path i:knockout="Off" fill="none" stroke="#000000" stroke-width="0.7" stroke-linecap="round" d="M61.73,15.818H50.855"/>
				<path i:knockout="Off" fill="none" stroke="#000000" stroke-width="0.7" stroke-linecap="round" d="M62.015,18.116V5.776h11.341
					v12.34H62.015z"/>
				<g i:knockout="Off">
					<path i:knockout="Off" d="M69.393,9.729l-0.703,0.063c-0.063-0.277-0.152-0.479-0.268-0.604
						c-0.191-0.201-0.427-0.302-0.708-0.302c-0.226,0-0.426,0.063-0.602,0.187c-0.218,0.161-0.391,0.396-0.52,0.705
						c-0.128,0.309-0.195,0.75-0.2,1.323c0.17-0.258,0.378-0.449,0.623-0.574c0.246-0.125,0.503-0.188,0.773-0.188
						c0.47,0,0.871,0.173,1.202,0.518c0.331,0.345,0.496,0.791,0.496,1.338c0,0.359-0.078,0.693-0.233,1.002
						c-0.156,0.309-0.369,0.545-0.642,0.709c-0.271,0.164-0.58,0.246-0.925,0.246c-0.588,0-1.068-0.215-1.44-0.646
						c-0.371-0.431-0.557-1.14-0.557-2.129c0-1.106,0.206-1.91,0.617-2.413c0.359-0.437,0.843-0.656,1.451-0.656
						c0.453,0,0.825,0.126,1.114,0.378S69.335,9.284,69.393,9.729z M66.502,12.199c0,0.242,0.052,0.474,0.155,0.694
						c0.104,0.221,0.247,0.39,0.43,0.505c0.183,0.116,0.38,0.174,0.589,0.174c0.304,0,0.562-0.12,0.773-0.359
						s0.318-0.564,0.318-0.975c0-0.395-0.104-0.707-0.314-0.934c-0.209-0.228-0.478-0.341-0.805-0.341
						c-0.319,0-0.59,0.114-0.813,0.341C66.613,11.532,66.502,11.83,66.502,12.199z"/>
				</g>
				<path i:knockout="Off" fill="none" stroke="#000000" stroke-width="0.7" stroke-linecap="round" d="M73.23,15.818H62.355"/>
				<path i:knockout="Off" fill="none" stroke="#000000" stroke-width="0.7" stroke-linecap="round" d="M73.515,18.116V5.776h11.341
					v12.34H73.515z"/>
				<g i:knockout="Off">
					<path i:knockout="Off" d="M77.268,9.072V8.4h3.703v0.544c-0.365,0.388-0.728,0.904-1.086,1.548
						c-0.359,0.645-0.636,1.307-0.832,1.988c-0.141,0.48-0.23,1.005-0.27,1.577h-0.719c0.008-0.451,0.096-0.996,0.265-1.635
						s0.411-1.255,0.727-1.849c0.315-0.593,0.651-1.093,1.008-1.5H77.268z"/>
				</g>
				<path i:knockout="Off" fill="none" stroke="#000000" stroke-width="0.7" stroke-linecap="round" d="M84.73,15.818H73.855"/>
				<path i:knockout="Off" fill="none" stroke="#000000" stroke-width="0.7" stroke-linecap="round" d="M85.015,18.116V5.776h11.341
					v12.34H85.015z"/>
				<g i:knockout="Off">
					<path i:knockout="Off" d="M89.814,10.953c-0.292-0.106-0.508-0.259-0.648-0.457s-0.211-0.436-0.211-0.712
						c0-0.417,0.149-0.767,0.447-1.051c0.299-0.284,0.695-0.426,1.191-0.426c0.498,0,0.898,0.146,1.203,0.436
						c0.303,0.291,0.455,0.644,0.455,1.061c0,0.266-0.069,0.497-0.208,0.694c-0.139,0.196-0.349,0.349-0.632,0.455
						c0.351,0.114,0.617,0.299,0.8,0.554s0.274,0.559,0.274,0.912c0,0.489-0.173,0.899-0.519,1.232s-0.8,0.499-1.364,0.499
						s-1.019-0.167-1.364-0.501s-0.519-0.75-0.519-1.25c0-0.371,0.095-0.683,0.284-0.934S89.464,11.044,89.814,10.953z
						 M89.439,12.404c0,0.2,0.046,0.394,0.139,0.58c0.092,0.187,0.232,0.332,0.423,0.434c0.189,0.103,0.393,0.154,0.608,0.154
						c0.341,0,0.619-0.107,0.834-0.323c0.217-0.215,0.324-0.489,0.324-0.821c0-0.337-0.111-0.616-0.334-0.837
						c-0.222-0.221-0.504-0.331-0.848-0.331c-0.336,0-0.61,0.109-0.824,0.327C89.547,11.805,89.439,12.077,89.439,12.404z
						 M89.674,9.76c0,0.271,0.086,0.492,0.257,0.664s0.397,0.258,0.681,0.258c0.275,0,0.497-0.085,0.667-0.256
						c0.17-0.17,0.255-0.379,0.255-0.627c0-0.258-0.088-0.475-0.263-0.65s-0.397-0.264-0.667-0.264
						c-0.272,0-0.495,0.086-0.669,0.258S89.674,9.521,89.674,9.76z"/>
				</g>
				<path i:knockout="Off" fill="none" stroke="#000000" stroke-width="0.7" stroke-linecap="round" d="M96.23,15.818H85.355"/>
				<path i:knockout="Off" fill="none" stroke="#000000" stroke-width="0.7" stroke-linecap="round" d="M96.515,18.116V5.776h11.341
					v12.34H96.515z"/>
				<g i:knockout="Off">
					<path i:knockout="Off" d="M100.314,12.729l0.672-0.063c0.057,0.318,0.166,0.548,0.328,0.691
						c0.161,0.144,0.368,0.215,0.621,0.215c0.216,0,0.406-0.049,0.572-0.147c0.165-0.099,0.299-0.23,0.4-0.395
						s0.188-0.387,0.258-0.667c0.07-0.28,0.105-0.565,0.105-0.857c0-0.031-0.002-0.078-0.004-0.141
						c-0.141,0.224-0.331,0.406-0.573,0.545c-0.242,0.14-0.505,0.209-0.787,0.209c-0.472,0-0.87-0.172-1.197-0.516
						c-0.326-0.344-0.489-0.797-0.489-1.361c0-0.581,0.171-1.049,0.514-1.404c0.342-0.354,0.771-0.532,1.287-0.532
						c0.372,0,0.713,0.101,1.021,0.301s0.543,0.486,0.703,0.856c0.16,0.371,0.24,0.908,0.24,1.61c0,0.731-0.08,1.313-0.239,1.747
						s-0.396,0.763-0.711,0.989c-0.315,0.227-0.685,0.34-1.107,0.34c-0.449,0-0.816-0.124-1.101-0.373
						C100.543,13.529,100.372,13.179,100.314,12.729z M103.205,10.203c0-0.404-0.106-0.725-0.319-0.962
						c-0.212-0.237-0.473-0.356-0.78-0.356c-0.318,0-0.592,0.128-0.822,0.384c-0.229,0.255-0.344,0.586-0.344,0.993
						c0,0.365,0.109,0.662,0.326,0.89c0.219,0.228,0.492,0.342,0.82,0.342c0.326,0,0.594-0.114,0.805-0.342
						C103.1,10.924,103.205,10.607,103.205,10.203z"/>
				</g>
				<path i:knockout="Off" fill="none" stroke="#000000" stroke-width="0.7" stroke-linecap="round" d="M107.73,15.818H96.855"/>
				<path i:knockout="Off" fill="none" stroke="#000000" stroke-width="0.7" stroke-linecap="round" d="M108.015,18.116V5.776
					h11.341v12.34H108.015z"/>
				<g i:knockout="Off">
					<path i:knockout="Off" d="M112.152,14.057h-0.703v-4.48c-0.17,0.162-0.392,0.323-0.666,0.484
						c-0.275,0.162-0.521,0.283-0.74,0.363v-0.68c0.393-0.185,0.736-0.409,1.031-0.672c0.294-0.263,0.502-0.518,0.625-0.766h0.453
						V14.057z"/>
					<path i:knockout="Off" d="M113.945,11.23c0-0.677,0.07-1.223,0.211-1.638s0.349-0.733,0.626-0.954
						c0.277-0.222,0.626-0.332,1.046-0.332c0.31,0,0.583,0.062,0.819,0.186s0.429,0.302,0.579,0.535
						c0.149,0.233,0.268,0.517,0.354,0.851s0.13,0.785,0.13,1.353c0,0.671-0.069,1.215-0.209,1.63
						c-0.139,0.415-0.348,0.734-0.624,0.956c-0.277,0.223-0.627,0.334-1.05,0.334c-0.557,0-0.994-0.195-1.312-0.585
						C114.136,13.083,113.945,12.306,113.945,11.23z M114.664,11.229c0,0.945,0.111,1.572,0.336,1.881
						c0.224,0.309,0.5,0.463,0.828,0.463s0.604-0.155,0.828-0.465c0.224-0.31,0.336-0.936,0.336-1.879
						c0-0.942-0.111-1.569-0.334-1.879c-0.223-0.31-0.502-0.465-0.838-0.465c-0.328,0-0.592,0.137-0.791,0.41
						C114.786,9.644,114.664,10.289,114.664,11.229z"/>
				</g>
				<path i:knockout="Off" fill="none" stroke="#000000" stroke-width="0.7" stroke-linecap="round" d="M119.23,15.818h-10.875"/>
				<path i:knockout="Off" fill="none" stroke="#000000" stroke-width="0.7" stroke-linecap="round" d="M119.515,18.116V5.776
					h11.341v12.34H119.515z"/>
				<g i:knockout="Off">
					<path i:knockout="Off" d="M123.652,14.057h-0.703v-4.48c-0.17,0.162-0.392,0.323-0.666,0.484
						c-0.275,0.162-0.521,0.283-0.74,0.363v-0.68c0.393-0.185,0.736-0.409,1.031-0.672c0.294-0.263,0.502-0.518,0.625-0.766h0.453
						V14.057z"/>
					<path i:knockout="Off" d="M128.102,14.057h-0.703v-4.48c-0.17,0.162-0.392,0.323-0.666,0.484
						c-0.275,0.162-0.521,0.283-0.74,0.363v-0.68c0.393-0.185,0.736-0.409,1.031-0.672c0.294-0.263,0.502-0.518,0.625-0.766h0.453
						V14.057z"/>
				</g>
				<path i:knockout="Off" fill="none" stroke="#000000" stroke-width="0.7" stroke-linecap="round" d="M130.73,15.818h-10.875"/>
				<path i:knockout="Off" fill="none" stroke="#000000" stroke-width="0.7" stroke-linecap="round" d="M131.015,18.116V5.776
					h11.341v12.34H131.015z"/>
				<g i:knockout="Off">
					<path i:knockout="Off" d="M135.152,14.057h-0.703v-4.48c-0.17,0.162-0.392,0.323-0.666,0.484
						c-0.275,0.162-0.521,0.283-0.74,0.363v-0.68c0.393-0.185,0.736-0.409,1.031-0.672c0.294-0.263,0.502-0.518,0.625-0.766h0.453
						V14.057z"/>
					<path i:knockout="Off" d="M140.641,13.385v0.672h-3.797c-0.006-0.169,0.022-0.332,0.083-0.488
						c0.097-0.258,0.253-0.511,0.467-0.76c0.214-0.249,0.521-0.537,0.92-0.864c0.62-0.516,1.04-0.923,1.261-1.221
						c0.222-0.298,0.332-0.58,0.332-0.849c0-0.278-0.1-0.513-0.299-0.704c-0.2-0.191-0.461-0.287-0.781-0.287
						c-0.34,0-0.61,0.104-0.814,0.311c-0.203,0.208-0.307,0.494-0.309,0.861l-0.719-0.094c0.049-0.539,0.235-0.95,0.558-1.232
						c0.323-0.282,0.756-0.424,1.3-0.424c0.549,0,0.983,0.152,1.303,0.457c0.32,0.305,0.48,0.683,0.48,1.133
						c0,0.229-0.047,0.455-0.14,0.676c-0.094,0.221-0.248,0.454-0.465,0.699c-0.216,0.245-0.576,0.581-1.081,1.009
						c-0.423,0.355-0.694,0.596-0.814,0.722c-0.119,0.126-0.219,0.253-0.297,0.381H140.641z"/>
				</g>
				<path i:knockout="Off" fill="none" stroke="#000000" stroke-width="0.7" stroke-linecap="round" d="M142.23,15.818h-10.875"/>
				<path i:knockout="Off" fill="none" stroke="#000000" stroke-width="0.7" stroke-linecap="round" d="M27.515,30.616V18.275h11.34
					v12.341H27.515z"/>
				<g i:knockout="Off">
					<path i:knockout="Off" d="M31.652,26.557h-0.703v-4.48c-0.169,0.161-0.391,0.323-0.666,0.484s-0.521,0.282-0.74,0.363v-0.68
						c0.393-0.185,0.737-0.409,1.031-0.672s0.502-0.519,0.625-0.766h0.453V26.557z"/>
					<path i:knockout="Off" d="M35.695,26.557v-1.375H33.21v-0.641l2.625-3.719h0.563v3.719h0.781v0.641h-0.781v1.375H35.695z
						 M35.695,24.541v-2.566l-1.792,2.566H35.695z"/>
				</g>
				<path i:knockout="Off" fill="none" stroke="#000000" stroke-width="0.7" stroke-linecap="round" d="M38.73,28.318H27.855"/>
				<path i:knockout="Off" fill="none" stroke="#000000" stroke-width="0.7" stroke-linecap="round" d="M39.015,30.616V18.275h11.34
					v12.341H39.015z"/>
				<g i:knockout="Off">
					<path i:knockout="Off" d="M43.152,26.557h-0.703v-4.48c-0.169,0.161-0.391,0.323-0.666,0.484s-0.521,0.282-0.74,0.363v-0.68
						c0.393-0.185,0.737-0.409,1.031-0.672s0.502-0.519,0.625-0.766h0.453V26.557z"/>
					<path i:knockout="Off" d="M44.945,25.057l0.719-0.063c0.055,0.358,0.181,0.628,0.379,0.808
						c0.198,0.181,0.441,0.271,0.729,0.271c0.349,0,0.639-0.127,0.871-0.382c0.232-0.254,0.348-0.592,0.348-1.013
						c0-0.399-0.111-0.715-0.332-0.946c-0.221-0.23-0.518-0.347-0.891-0.347c-0.232,0-0.438,0.051-0.617,0.152
						s-0.322,0.233-0.426,0.395l-0.656-0.094l0.563-2.938h2.844v0.672h-2.285l-0.313,1.549c0.344-0.241,0.705-0.361,1.082-0.361
						c0.5,0,0.922,0.173,1.266,0.519c0.344,0.347,0.516,0.791,0.516,1.335c0,0.518-0.151,0.966-0.453,1.343
						c-0.367,0.463-0.869,0.694-1.504,0.694c-0.521,0-0.946-0.146-1.275-0.437S44.992,25.537,44.945,25.057z"/>
				</g>
				<path i:knockout="Off" fill="none" stroke="#000000" stroke-width="0.7" stroke-linecap="round" d="M50.23,28.318H39.355"/>
				<path i:knockout="Off" fill="none" stroke="#000000" stroke-width="0.7" stroke-linecap="round" d="M50.515,30.616V18.275h11.34
					v12.341H50.515z"/>
				<g i:knockout="Off">
					<path i:knockout="Off" d="M54.652,26.557h-0.703v-4.48c-0.169,0.161-0.391,0.323-0.666,0.484s-0.521,0.282-0.74,0.363v-0.68
						c0.393-0.185,0.737-0.409,1.031-0.672s0.502-0.519,0.625-0.766h0.453V26.557z"/>
					<path i:knockout="Off" d="M60.117,22.229l-0.703,0.063c-0.063-0.277-0.152-0.479-0.267-0.604
						c-0.191-0.201-0.428-0.302-0.708-0.302c-0.226,0-0.427,0.063-0.602,0.187c-0.218,0.162-0.391,0.396-0.519,0.705
						c-0.129,0.31-0.195,0.75-0.201,1.323c0.17-0.258,0.377-0.449,0.624-0.574c0.245-0.125,0.503-0.188,0.772-0.188
						c0.471,0,0.871,0.173,1.202,0.518s0.496,0.791,0.496,1.338c0,0.359-0.078,0.693-0.233,1.002s-0.37,0.545-0.641,0.709
						c-0.272,0.164-0.581,0.246-0.926,0.246c-0.588,0-1.068-0.216-1.439-0.646c-0.372-0.432-0.557-1.141-0.557-2.13
						c0-1.106,0.206-1.91,0.617-2.413c0.359-0.437,0.842-0.655,1.451-0.655c0.453,0,0.825,0.126,1.114,0.378
						S60.059,21.784,60.117,22.229z M57.226,24.699c0,0.242,0.051,0.474,0.155,0.694s0.247,0.39,0.43,0.505
						c0.183,0.116,0.379,0.174,0.589,0.174c0.303,0,0.561-0.12,0.773-0.358c0.212-0.24,0.318-0.564,0.318-0.976
						c0-0.396-0.105-0.706-0.314-0.935c-0.21-0.227-0.478-0.341-0.805-0.341c-0.319,0-0.59,0.114-0.813,0.341
						C57.337,24.032,57.226,24.33,57.226,24.699z"/>
				</g>
				<path i:knockout="Off" fill="none" stroke="#000000" stroke-width="0.7" stroke-linecap="round" d="M61.73,28.318H50.855"/>
				<path i:knockout="Off" fill="none" stroke="#000000" stroke-width="0.7" stroke-linecap="round" d="M62.015,30.616V18.275
					h11.341v12.341H62.015z"/>
				<g i:knockout="Off">
					<path i:knockout="Off" d="M66.152,26.557h-0.703v-4.48c-0.169,0.161-0.392,0.323-0.666,0.484
						c-0.275,0.161-0.521,0.282-0.74,0.363v-0.68c0.393-0.185,0.737-0.409,1.031-0.672c0.294-0.263,0.502-0.519,0.625-0.766h0.453
						V26.557z"/>
					<path i:knockout="Off" d="M67.992,21.572V20.9h3.703v0.544c-0.365,0.388-0.728,0.904-1.086,1.548
						c-0.359,0.645-0.636,1.308-0.832,1.987c-0.141,0.48-0.231,1.006-0.27,1.577h-0.719c0.008-0.451,0.096-0.996,0.265-1.636
						c0.169-0.639,0.411-1.255,0.727-1.848c0.315-0.594,0.651-1.094,1.008-1.501H67.992z"/>
				</g>
				<path i:knockout="Off" fill="none" stroke="#000000" stroke-width="0.7" stroke-linecap="round" d="M73.23,28.318H62.355"/>
				<path i:knockout="Off" fill="none" d="M73.515,30.616V18.275h11.341v12.341H73.515z"/>
				<g i:knockout="Off">
					<path i:knockout="Off" fill="none" d="M78.691,25.885v0.672h-3.797c-0.005-0.169,0.022-0.332,0.083-0.488
						c0.097-0.258,0.252-0.511,0.467-0.76c0.214-0.249,0.521-0.536,0.92-0.864c0.62-0.516,1.04-0.923,1.261-1.221
						s0.332-0.58,0.332-0.849c0-0.278-0.1-0.513-0.299-0.704c-0.2-0.19-0.46-0.286-0.781-0.286c-0.339,0-0.61,0.104-0.814,0.312
						c-0.204,0.207-0.307,0.494-0.309,0.86l-0.719-0.094c0.049-0.539,0.235-0.95,0.558-1.232c0.323-0.282,0.756-0.424,1.3-0.424
						c0.549,0,0.983,0.152,1.303,0.457s0.48,0.683,0.48,1.134c0,0.229-0.047,0.454-0.14,0.676c-0.094,0.221-0.248,0.454-0.465,0.699
						c-0.216,0.245-0.576,0.581-1.081,1.009c-0.423,0.354-0.695,0.596-0.815,0.722c-0.12,0.127-0.219,0.254-0.297,0.382H78.691z"/>
					<path i:knockout="Off" fill="none" d="M79.445,23.73c0-0.677,0.07-1.223,0.211-1.638s0.349-0.733,0.626-0.954
						c0.277-0.222,0.626-0.332,1.046-0.332c0.31,0,0.583,0.062,0.819,0.186s0.429,0.302,0.579,0.534
						c0.149,0.233,0.268,0.518,0.354,0.852s0.13,0.785,0.13,1.353c0,0.671-0.069,1.215-0.209,1.63
						c-0.139,0.415-0.348,0.734-0.624,0.956c-0.277,0.223-0.627,0.334-1.05,0.334c-0.557,0-0.994-0.195-1.312-0.585
						C79.636,25.583,79.445,24.806,79.445,23.73z M80.164,23.729c0,0.945,0.111,1.572,0.336,1.881
						c0.224,0.309,0.5,0.463,0.828,0.463s0.604-0.155,0.828-0.465s0.336-0.937,0.336-1.879s-0.111-1.569-0.334-1.879
						s-0.502-0.465-0.838-0.465c-0.328,0-0.592,0.137-0.791,0.41C80.286,22.144,80.164,22.788,80.164,23.729z"/>
				</g>
				<path i:knockout="Off" fill="none" d="M84.73,28.318H73.855"/>
				<path i:knockout="Off" fill="none" stroke="#000000" stroke-width="0.7" stroke-linecap="round" d="M85.015,30.616V18.275
					h11.341v12.341H85.015z"/>
				<g i:knockout="Off">
					<path i:knockout="Off" d="M89.152,26.557h-0.703v-4.48c-0.17,0.161-0.392,0.323-0.666,0.484
						c-0.275,0.161-0.521,0.282-0.74,0.363v-0.68c0.393-0.185,0.736-0.409,1.031-0.672c0.294-0.263,0.502-0.519,0.625-0.766h0.453
						V26.557z"/>
					<path i:knockout="Off" d="M92.039,23.453c-0.292-0.106-0.508-0.259-0.648-0.457s-0.211-0.436-0.211-0.712
						c0-0.417,0.149-0.768,0.447-1.051c0.299-0.285,0.695-0.427,1.191-0.427c0.498,0,0.898,0.146,1.203,0.437
						c0.303,0.29,0.455,0.644,0.455,1.061c0,0.266-0.069,0.497-0.208,0.694c-0.139,0.196-0.349,0.349-0.632,0.455
						c0.351,0.114,0.617,0.299,0.8,0.554s0.274,0.559,0.274,0.912c0,0.489-0.173,0.899-0.519,1.232s-0.8,0.499-1.364,0.499
						s-1.019-0.167-1.364-0.501s-0.519-0.75-0.519-1.25c0-0.371,0.095-0.683,0.284-0.934S91.688,23.544,92.039,23.453z
						 M91.664,24.904c0,0.2,0.046,0.394,0.139,0.58c0.092,0.187,0.232,0.331,0.423,0.435c0.189,0.102,0.393,0.153,0.608,0.153
						c0.341,0,0.619-0.107,0.834-0.323c0.217-0.215,0.324-0.489,0.324-0.821c0-0.337-0.111-0.616-0.334-0.837
						c-0.222-0.221-0.504-0.331-0.848-0.331c-0.336,0-0.61,0.109-0.824,0.327C91.771,24.305,91.664,24.577,91.664,24.904z
						 M91.898,22.26c0,0.271,0.086,0.492,0.257,0.664s0.397,0.258,0.681,0.258c0.275,0,0.497-0.085,0.667-0.256
						s0.255-0.38,0.255-0.627c0-0.258-0.088-0.475-0.263-0.65s-0.397-0.264-0.667-0.264c-0.272,0-0.495,0.086-0.669,0.258
						S91.898,22.021,91.898,22.26z"/>
				</g>
				<path i:knockout="Off" fill="none" stroke="#000000" stroke-width="0.7" stroke-linecap="round" d="M96.23,28.318H85.355"/>
				<path i:knockout="Off" fill="none" stroke="#000000" stroke-width="0.7" stroke-linecap="round" d="M96.515,30.616V18.275
					h11.341v12.341H96.515z"/>
				<g i:knockout="Off">
					<path i:knockout="Off" d="M100.652,26.557h-0.703v-4.48c-0.17,0.161-0.392,0.323-0.666,0.484
						c-0.275,0.161-0.521,0.282-0.74,0.363v-0.68c0.393-0.185,0.736-0.409,1.031-0.672c0.294-0.263,0.502-0.519,0.625-0.766h0.453
						V26.557z"/>
					<path i:knockout="Off" d="M102.539,25.229l0.672-0.063c0.057,0.317,0.166,0.548,0.328,0.691
						c0.161,0.144,0.368,0.215,0.621,0.215c0.216,0,0.406-0.049,0.572-0.147c0.165-0.099,0.299-0.23,0.4-0.395
						s0.188-0.387,0.258-0.667s0.105-0.565,0.105-0.857c0-0.031-0.002-0.078-0.004-0.141c-0.141,0.224-0.331,0.405-0.573,0.545
						s-0.505,0.209-0.787,0.209c-0.472,0-0.87-0.172-1.197-0.517c-0.326-0.344-0.489-0.797-0.489-1.36
						c0-0.581,0.171-1.05,0.514-1.403c0.342-0.355,0.771-0.532,1.287-0.532c0.372,0,0.713,0.101,1.021,0.301
						s0.543,0.485,0.703,0.856s0.24,0.908,0.24,1.61c0,0.731-0.08,1.313-0.239,1.747s-0.396,0.764-0.711,0.989
						c-0.315,0.227-0.685,0.34-1.107,0.34c-0.449,0-0.816-0.124-1.101-0.373C102.768,26.028,102.597,25.679,102.539,25.229z
						 M105.43,22.703c0-0.404-0.106-0.726-0.319-0.962c-0.212-0.238-0.473-0.356-0.78-0.356c-0.318,0-0.592,0.128-0.822,0.384
						c-0.229,0.256-0.344,0.586-0.344,0.993c0,0.365,0.109,0.662,0.326,0.89c0.219,0.229,0.492,0.343,0.82,0.343
						c0.326,0,0.594-0.114,0.805-0.343C105.324,23.424,105.43,23.107,105.43,22.703z"/>
				</g>
				<path i:knockout="Off" fill="none" stroke="#000000" stroke-width="0.7" stroke-linecap="round" d="M107.73,28.318H96.855"/>
				<path i:knockout="Off" fill="none" stroke="#000000" stroke-width="0.7" stroke-linecap="round" d="M108.015,30.616V18.275
					h11.341v12.341H108.015z"/>
				<g i:knockout="Off">
					<path i:knockout="Off" d="M113.191,25.885v0.672h-3.797c-0.006-0.169,0.022-0.332,0.083-0.488
						c0.097-0.258,0.253-0.511,0.467-0.76s0.521-0.536,0.92-0.864c0.62-0.516,1.04-0.923,1.261-1.221
						c0.222-0.298,0.332-0.58,0.332-0.849c0-0.278-0.1-0.513-0.299-0.704c-0.2-0.19-0.461-0.286-0.781-0.286
						c-0.34,0-0.61,0.104-0.814,0.312c-0.203,0.207-0.307,0.494-0.309,0.86l-0.719-0.094c0.049-0.539,0.235-0.95,0.558-1.232
						c0.323-0.282,0.756-0.424,1.3-0.424c0.549,0,0.983,0.152,1.303,0.457c0.32,0.305,0.48,0.683,0.48,1.134
						c0,0.229-0.047,0.454-0.14,0.676c-0.094,0.221-0.248,0.454-0.465,0.699c-0.216,0.245-0.576,0.581-1.081,1.009
						c-0.423,0.354-0.694,0.596-0.814,0.722c-0.119,0.127-0.219,0.254-0.297,0.382H113.191z"/>
					<path i:knockout="Off" d="M113.945,23.73c0-0.677,0.07-1.223,0.211-1.638s0.349-0.733,0.626-0.954
						c0.277-0.222,0.626-0.332,1.046-0.332c0.31,0,0.583,0.062,0.819,0.186s0.429,0.302,0.579,0.534
						c0.149,0.233,0.268,0.518,0.354,0.852s0.13,0.785,0.13,1.353c0,0.671-0.069,1.215-0.209,1.63
						c-0.139,0.415-0.348,0.734-0.624,0.956c-0.277,0.223-0.627,0.334-1.05,0.334c-0.557,0-0.994-0.195-1.312-0.585
						C114.136,25.583,113.945,24.806,113.945,23.73z M114.664,23.729c0,0.945,0.111,1.572,0.336,1.881
						c0.224,0.309,0.5,0.463,0.828,0.463s0.604-0.155,0.828-0.465s0.336-0.937,0.336-1.879s-0.111-1.569-0.334-1.879
						s-0.502-0.465-0.838-0.465c-0.328,0-0.592,0.137-0.791,0.41C114.786,22.144,114.664,22.788,114.664,23.729z"/>
				</g>
				<path i:knockout="Off" fill="none" stroke="#000000" stroke-width="0.7" stroke-linecap="round" d="M119.23,28.318h-10.875"/>
				<path i:knockout="Off" fill="none" stroke="#000000" stroke-width="0.7" stroke-linecap="round" d="M119.515,30.616V18.275
					h11.341v12.341H119.515z"/>
				<g i:knockout="Off">
					<path i:knockout="Off" d="M124.691,25.885v0.672h-3.797c-0.006-0.169,0.022-0.332,0.083-0.488
						c0.097-0.258,0.253-0.511,0.467-0.76s0.521-0.536,0.92-0.864c0.62-0.516,1.04-0.923,1.261-1.221
						c0.222-0.298,0.332-0.58,0.332-0.849c0-0.278-0.1-0.513-0.299-0.704c-0.2-0.19-0.461-0.286-0.781-0.286
						c-0.34,0-0.61,0.104-0.814,0.312c-0.203,0.207-0.307,0.494-0.309,0.86l-0.719-0.094c0.049-0.539,0.235-0.95,0.558-1.232
						c0.323-0.282,0.756-0.424,1.3-0.424c0.549,0,0.983,0.152,1.303,0.457c0.32,0.305,0.48,0.683,0.48,1.134
						c0,0.229-0.047,0.454-0.14,0.676c-0.094,0.221-0.248,0.454-0.465,0.699c-0.216,0.245-0.576,0.581-1.081,1.009
						c-0.423,0.354-0.694,0.596-0.814,0.722c-0.119,0.127-0.219,0.254-0.297,0.382H124.691z"/>
					<path i:knockout="Off" d="M128.102,26.557h-0.703v-4.48c-0.17,0.161-0.392,0.323-0.666,0.484
						c-0.275,0.161-0.521,0.282-0.74,0.363v-0.68c0.393-0.185,0.736-0.409,1.031-0.672c0.294-0.263,0.502-0.519,0.625-0.766h0.453
						V26.557z"/>
				</g>
				<path i:knockout="Off" fill="none" stroke="#000000" stroke-width="0.7" stroke-linecap="round" d="M130.73,28.318h-10.875"/>
				<path i:knockout="Off" fill="none" stroke="#000000" stroke-width="0.7" stroke-linecap="round" d="M131.015,30.616V18.275
					h11.341v12.341H131.015z"/>
				<g i:knockout="Off">
					<path i:knockout="Off" d="M136.191,25.885v0.672h-3.797c-0.006-0.169,0.022-0.332,0.083-0.488
						c0.097-0.258,0.253-0.511,0.467-0.76s0.521-0.536,0.92-0.864c0.62-0.516,1.04-0.923,1.261-1.221
						c0.222-0.298,0.332-0.58,0.332-0.849c0-0.278-0.1-0.513-0.299-0.704c-0.2-0.19-0.461-0.286-0.781-0.286
						c-0.34,0-0.61,0.104-0.814,0.312c-0.203,0.207-0.307,0.494-0.309,0.86l-0.719-0.094c0.049-0.539,0.235-0.95,0.558-1.232
						c0.323-0.282,0.756-0.424,1.3-0.424c0.549,0,0.983,0.152,1.303,0.457c0.32,0.305,0.48,0.683,0.48,1.134
						c0,0.229-0.047,0.454-0.14,0.676c-0.094,0.221-0.248,0.454-0.465,0.699c-0.216,0.245-0.576,0.581-1.081,1.009
						c-0.423,0.354-0.694,0.596-0.814,0.722c-0.119,0.127-0.219,0.254-0.297,0.382H136.191z"/>
					<path i:knockout="Off" d="M140.641,25.885v0.672h-3.797c-0.006-0.169,0.022-0.332,0.083-0.488
						c0.097-0.258,0.253-0.511,0.467-0.76s0.521-0.536,0.92-0.864c0.62-0.516,1.04-0.923,1.261-1.221
						c0.222-0.298,0.332-0.58,0.332-0.849c0-0.278-0.1-0.513-0.299-0.704c-0.2-0.19-0.461-0.286-0.781-0.286
						c-0.34,0-0.61,0.104-0.814,0.312c-0.203,0.207-0.307,0.494-0.309,0.86l-0.719-0.094c0.049-0.539,0.235-0.95,0.558-1.232
						c0.323-0.282,0.756-0.424,1.3-0.424c0.549,0,0.983,0.152,1.303,0.457c0.32,0.305,0.48,0.683,0.48,1.134
						c0,0.229-0.047,0.454-0.14,0.676c-0.094,0.221-0.248,0.454-0.465,0.699c-0.216,0.245-0.576,0.581-1.081,1.009
						c-0.423,0.354-0.694,0.596-0.814,0.722c-0.119,0.127-0.219,0.254-0.297,0.382H140.641z"/>
				</g>
				<path i:knockout="Off" fill="none" stroke="#000000" stroke-width="0.7" stroke-linecap="round" d="M142.23,28.318h-10.875"/>
				<path i:knockout="Off" fill="none" stroke="#000000" stroke-width="0.7" stroke-linecap="round" d="M142.381,33.1V18.292h13.607
					V33.1H142.381z"/>
				<g i:knockout="Off">
					<path i:knockout="Off" d="M148.678,26.557v0.672h-3.797c-0.006-0.169,0.022-0.332,0.083-0.488
						c0.097-0.258,0.253-0.511,0.467-0.76s0.521-0.536,0.92-0.864c0.62-0.516,1.04-0.923,1.261-1.221
						c0.222-0.298,0.332-0.58,0.332-0.849c0-0.278-0.1-0.513-0.299-0.704c-0.2-0.19-0.461-0.286-0.781-0.286
						c-0.34,0-0.61,0.104-0.814,0.312c-0.203,0.207-0.307,0.494-0.309,0.86l-0.719-0.094c0.049-0.539,0.235-0.95,0.558-1.232
						c0.323-0.282,0.756-0.424,1.3-0.424c0.549,0,0.983,0.152,1.303,0.457c0.32,0.305,0.48,0.683,0.48,1.134
						c0,0.229-0.047,0.454-0.14,0.676c-0.094,0.221-0.248,0.454-0.465,0.699c-0.216,0.245-0.576,0.581-1.081,1.009
						c-0.423,0.354-0.694,0.596-0.814,0.722c-0.119,0.127-0.219,0.254-0.297,0.382H148.678z"/>
					<path i:knockout="Off" d="M149.432,25.729l0.719-0.063c0.055,0.358,0.182,0.628,0.379,0.808
						c0.198,0.181,0.441,0.271,0.73,0.271c0.348,0,0.639-0.127,0.871-0.382c0.231-0.254,0.348-0.592,0.348-1.013
						c0-0.399-0.111-0.715-0.332-0.946c-0.222-0.23-0.519-0.347-0.891-0.347c-0.232,0-0.438,0.051-0.617,0.152
						s-0.322,0.233-0.426,0.395l-0.656-0.094l0.563-2.938h2.844v0.672h-2.285l-0.313,1.549c0.344-0.241,0.704-0.361,1.082-0.361
						c0.5,0,0.922,0.173,1.266,0.519c0.344,0.347,0.516,0.791,0.516,1.335c0,0.518-0.151,0.966-0.453,1.343
						c-0.367,0.463-0.869,0.694-1.504,0.694c-0.521,0-0.946-0.146-1.275-0.437C149.666,26.595,149.479,26.209,149.432,25.729z"/>
				</g>
				<path i:knockout="Off" fill="none" stroke="#000000" stroke-width="0.7" stroke-linecap="round" d="M155.839,30.594h-13.05"/>
				<path i:knockout="Off" fill="none" stroke="#000000" stroke-width="0.7" stroke-linecap="round" d="M142.381,18.213V3.405
					h13.607v14.808H142.381z"/>
				<g i:knockout="Off">
					<path i:knockout="Off" d="M147.639,12.342h-0.703v-4.48c-0.17,0.162-0.392,0.323-0.666,0.484
						c-0.275,0.162-0.521,0.283-0.74,0.363v-0.68c0.393-0.185,0.736-0.409,1.031-0.672c0.294-0.263,0.502-0.518,0.625-0.766h0.453
						V12.342z"/>
					<path i:knockout="Off" d="M149.447,10.842l0.719-0.094c0.08,0.393,0.215,0.676,0.404,0.85c0.19,0.173,0.426,0.26,0.707,0.26
						c0.333,0,0.611-0.115,0.835-0.344s0.335-0.514,0.335-0.853c0-0.323-0.104-0.59-0.313-0.8c-0.21-0.21-0.476-0.315-0.798-0.315
						c-0.132,0-0.296,0.026-0.492,0.078l0.078-0.625c0.046,0.005,0.083,0.008,0.111,0.008c0.295,0,0.56-0.077,0.795-0.232
						c0.235-0.155,0.354-0.394,0.354-0.717c0-0.255-0.086-0.467-0.26-0.635c-0.172-0.168-0.396-0.252-0.668-0.252
						c-0.271,0-0.497,0.086-0.678,0.258c-0.18,0.172-0.296,0.43-0.348,0.773l-0.719-0.125c0.086-0.471,0.28-0.836,0.584-1.096
						c0.305-0.259,0.683-0.389,1.135-0.389c0.312,0,0.599,0.067,0.861,0.2c0.262,0.134,0.463,0.315,0.602,0.546
						c0.14,0.231,0.209,0.476,0.209,0.735c0,0.246-0.066,0.47-0.199,0.672s-0.33,0.363-0.59,0.482
						c0.338,0.078,0.604,0.241,0.797,0.487c0.192,0.246,0.289,0.555,0.289,0.925c0,0.501-0.183,0.926-0.547,1.273
						c-0.365,0.349-0.826,0.522-1.383,0.522c-0.503,0-0.92-0.147-1.252-0.443S149.494,11.313,149.447,10.842z"/>
				</g>
				<path i:knockout="Off" fill="none" stroke="#000000" stroke-width="0.7" stroke-linecap="round" d="M155.839,15.707h-13.05"/>
				<path i:knockout="Off" fill="none" stroke="#000000" stroke-width="0.7" stroke-linecap="round" d="M13.88,33.1V18.292h13.608
					V33.1H13.88z"/>
				<g i:knockout="Off">
					<path i:knockout="Off" d="M20.177,26.557v0.672H16.38c-0.005-0.169,0.022-0.332,0.083-0.488
						c0.098-0.258,0.253-0.511,0.467-0.76s0.521-0.536,0.92-0.864c0.619-0.516,1.04-0.923,1.261-1.221
						c0.221-0.298,0.332-0.58,0.332-0.849c0-0.278-0.1-0.513-0.299-0.704c-0.2-0.19-0.46-0.286-0.781-0.286
						c-0.339,0-0.611,0.104-0.814,0.312c-0.204,0.207-0.307,0.494-0.309,0.86l-0.719-0.094c0.049-0.539,0.235-0.95,0.558-1.232
						c0.322-0.282,0.755-0.424,1.299-0.424c0.549,0,0.983,0.152,1.303,0.457c0.32,0.305,0.48,0.683,0.48,1.134
						c0,0.229-0.046,0.454-0.14,0.676c-0.093,0.221-0.248,0.454-0.464,0.699c-0.217,0.245-0.577,0.581-1.081,1.009
						c-0.423,0.354-0.695,0.596-0.814,0.722c-0.12,0.127-0.219,0.254-0.297,0.382H20.177z"/>
					<path i:knockout="Off" d="M23.181,27.229v-1.375h-2.484v-0.641l2.625-3.719h0.563v3.719h0.781v0.641h-0.781v1.375H23.181z
						 M23.181,25.213v-2.566l-1.792,2.566H23.181z"/>
				</g>
				<path i:knockout="Off" fill="none" stroke="#000000" stroke-width="0.7" stroke-linecap="round" d="M27.339,30.594h-13.05"/>
				<path i:knockout="Off" fill="none" stroke="#000000" stroke-width="0.7" stroke-linecap="round" d="M13.88,18.213V3.405h13.608
					v14.808H13.88z"/>
				<g i:knockout="Off">
					<path i:knockout="Off" d="M22.402,11.67v0.672h-3.797c-0.005-0.169,0.022-0.332,0.083-0.488
						c0.098-0.258,0.253-0.511,0.467-0.76c0.214-0.249,0.521-0.537,0.92-0.864c0.619-0.516,1.04-0.923,1.261-1.221
						c0.221-0.298,0.332-0.58,0.332-0.849c0-0.278-0.1-0.513-0.299-0.704c-0.2-0.191-0.46-0.287-0.781-0.287
						c-0.339,0-0.611,0.104-0.814,0.311c-0.204,0.208-0.307,0.494-0.309,0.861l-0.719-0.094c0.049-0.539,0.235-0.95,0.558-1.232
						c0.322-0.282,0.755-0.424,1.299-0.424c0.549,0,0.983,0.152,1.303,0.457c0.32,0.305,0.48,0.683,0.48,1.133
						c0,0.229-0.046,0.455-0.14,0.676c-0.093,0.221-0.248,0.454-0.464,0.699c-0.217,0.245-0.577,0.581-1.081,1.009
						c-0.423,0.355-0.695,0.596-0.814,0.722c-0.12,0.126-0.219,0.253-0.297,0.381H22.402z"/>
				</g>
				<path i:knockout="Off" fill="none" stroke="#000000" stroke-width="0.7" stroke-linecap="round" d="M27.339,15.707h-13.05"/>
				<path i:knockout="Off" fill="none" stroke="#000000" stroke-width="0.7" stroke-linecap="round" d="M0.38,33.1V18.292h13.608
					V33.1H0.38z"/>
				<g i:knockout="Off">
					<path i:knockout="Off" d="M6.677,26.557v0.672H2.88c-0.005-0.169,0.022-0.332,0.083-0.488c0.098-0.258,0.253-0.511,0.467-0.76
						s0.521-0.536,0.92-0.864c0.619-0.516,1.04-0.923,1.261-1.221c0.221-0.298,0.332-0.58,0.332-0.849
						c0-0.278-0.1-0.513-0.299-0.704c-0.2-0.19-0.46-0.286-0.781-0.286c-0.339,0-0.611,0.104-0.814,0.312
						c-0.204,0.207-0.307,0.494-0.309,0.86l-0.719-0.094c0.049-0.539,0.235-0.95,0.558-1.232c0.322-0.282,0.755-0.424,1.299-0.424
						c0.549,0,0.983,0.152,1.303,0.457c0.32,0.305,0.48,0.683,0.48,1.134c0,0.229-0.046,0.454-0.14,0.676
						c-0.093,0.221-0.248,0.454-0.464,0.699c-0.217,0.245-0.577,0.581-1.081,1.009c-0.423,0.354-0.695,0.596-0.814,0.722
						c-0.12,0.127-0.219,0.254-0.297,0.382H6.677z"/>
					<path i:knockout="Off" d="M7.447,25.729l0.719-0.094c0.08,0.394,0.215,0.676,0.405,0.85c0.189,0.173,0.425,0.26,0.707,0.26
						c0.333,0,0.611-0.114,0.834-0.345c0.223-0.229,0.335-0.514,0.335-0.853c0-0.323-0.105-0.591-0.314-0.8
						c-0.209-0.211-0.475-0.315-0.798-0.315c-0.132,0-0.295,0.026-0.492,0.078l0.078-0.625c0.046,0.005,0.083,0.008,0.112,0.008
						c0.294,0,0.559-0.077,0.795-0.232s0.354-0.394,0.354-0.717c0-0.255-0.086-0.467-0.259-0.635s-0.396-0.252-0.669-0.252
						c-0.271,0-0.496,0.086-0.677,0.258s-0.297,0.43-0.348,0.773l-0.719-0.125c0.085-0.472,0.281-0.837,0.584-1.096
						s0.682-0.389,1.134-0.389c0.312,0,0.599,0.067,0.861,0.2c0.263,0.134,0.463,0.315,0.603,0.546
						C10.83,22.456,10.9,22.7,10.9,22.96c0,0.246-0.066,0.471-0.199,0.672c-0.133,0.203-0.33,0.363-0.59,0.482
						c0.338,0.078,0.604,0.24,0.797,0.487c0.193,0.246,0.289,0.555,0.289,0.925c0,0.501-0.182,0.926-0.547,1.273
						c-0.365,0.349-0.826,0.522-1.383,0.522c-0.502,0-0.92-0.147-1.252-0.443S7.494,26.199,7.447,25.729z"/>
				</g>
				<path i:knockout="Off" fill="none" stroke="#000000" stroke-width="0.7" stroke-linecap="round" d="M13.839,30.594H0.789"/>
				<path i:knockout="Off" fill="none" stroke="#000000" stroke-width="0.7" stroke-linecap="round" d="M0.38,18.213V3.405h13.608
					v14.808H0.38z"/>
				<g i:knockout="Off">
					<path i:knockout="Off" d="M7.863,12.342H7.16v-4.48C6.99,8.023,6.769,8.185,6.494,8.346c-0.275,0.162-0.521,0.283-0.74,0.363
						v-0.68C6.146,7.845,6.49,7.621,6.785,7.357C7.079,7.095,7.287,6.839,7.41,6.592h0.453V12.342z"/>
				</g>
				<path i:knockout="Off" fill="none" stroke="#000000" stroke-width="0.7" stroke-linecap="round" d="M13.839,15.707H0.789"/>
				<g>
					<g>
						<g>
							<path i:knockout="Off" fill="none" stroke="#000000" stroke-width="1.2" d="M67.629,5.834V0.85h22.977v4.984"/>
						</g>
					</g>
					<g>
						<g>
							<path i:knockout="Off" fill="none" stroke="#000000" stroke-width="1.2" stroke-linecap="round" d="M0.6,3.584V0.6h2.547
								v2.984"/>
						</g>
					</g>
					<g>
						<g>
							<path i:knockout="Off" fill="none" stroke="#000000" stroke-width="1.2" stroke-linecap="round" d="M13.85,3.584V0.6h2.547
								v2.984"/>
						</g>
					</g>
					<g>
						<g>
							<path i:knockout="Off" fill="none" stroke="#000000" stroke-width="1.2" stroke-linecap="round" d="M139.85,5.592V0.6h2.547
								v2.984"/>
						</g>
					</g>
					<g>
						<g>
							<path i:knockout="Off" fill="none" stroke="#000000" stroke-width="1.2" stroke-linecap="round" d="M100.537,5.592V0.6h2.547
								v4.938"/>
						</g>
					</g>
					<g>
						<g>
							<path i:knockout="Off" fill="none" stroke="#000000" stroke-width="1.2" stroke-linecap="round" d="M54.622,5.592V0.6h2.546
								v4.938"/>
						</g>
					</g>
					<g>
						<g>
							<path i:knockout="Off" fill="none" stroke="#000000" stroke-width="1.2" stroke-linecap="round" d="M153.038,3.584V0.6h2.546
								v2.984"/>
						</g>
					</g>
				</g>
			</g>
			<g>
				<path i:knockout="Off" fill="none" stroke="#000000" stroke-width="1.2" stroke-linecap="round" d="M142.396,3.584v2.192H27.489
					V3.584H0.6v29.508h26.889v-2.5h46.026V18.275h11.403v12.316h57.479V33.1h13.592V3.584H142.396z"/>
			</g>
		</g>
	</g>
</svg>
