<?xml version="1.0" encoding="utf-8"?>
<!-- Generator: Adobe Illustrator 10.0, SVG Export Plug-In . SVG Version: 3.0.0 Build 77)  -->
<!DOCTYPE svg PUBLIC "-//W3C//DTD SVG 1.0//EN"    "http://www.w3.org/TR/2001/REC-SVG-20010904/DTD/svg10.dtd" [
	<!ENTITY ns_flows "http://ns.adobe.com/Flows/1.0/">
	<!ENTITY ns_extend "http://ns.adobe.com/Extensibility/1.0/">
	<!ENTITY ns_ai "http://ns.adobe.com/AdobeIllustrator/10.0/">
	<!ENTITY ns_graphs "http://ns.adobe.com/Graphs/1.0/">
	<!ENTITY ns_vars "http://ns.adobe.com/Variables/1.0/">
	<!ENTITY ns_imrep "http://ns.adobe.com/ImageReplacement/1.0/">
	<!ENTITY ns_sfw "http://ns.adobe.com/SaveForWeb/1.0/">
	<!ENTITY ns_custom "http://ns.adobe.com/GenericCustomNamespace/1.0/">
	<!ENTITY ns_adobe_xpath "http://ns.adobe.com/XPath/1.0/">
	<!ENTITY ns_svg "http://www.w3.org/2000/svg">
	<!ENTITY ns_xlink "http://www.w3.org/1999/xlink">
]>
<svg xmlns:x="&ns_extend;" xmlns:i="&ns_ai;" xmlns:graph="&ns_graphs;" i:viewOrigin="266.272 484.7544" i:rulerOrigin="0 0" i:pageBounds="0 841.8896 595.2754 0" xmlns="&ns_svg;" xmlns:xlink="&ns_xlink;" xmlns:a="http://ns.adobe.com/AdobeSVGViewerExtensions/3.0/" width="52.246" height="99.894" viewBox="0 0 52.246 99.894" overflow="visible" enable-background="new 0 0 52.246 99.894" xml:space="preserve" id="svgObj" onload="parent.svgLoad('Top', document)">
	<metadata>
		<variableSets xmlns="&ns_vars;">
			<variableSet varSetName="binding1" locked="none">
				<variables></variables>
				<v:sampleDataSets xmlns="&ns_custom;" xmlns:v="&ns_vars;"></v:sampleDataSets>
			</variableSet>
		</variableSets>
		<sfw xmlns="&ns_sfw;">
			<slices></slices>
			<sliceSourceBounds y="363.665" x="262.5" width="80.371" height="125.725" bottomLeftOrigin="true"></sliceSourceBounds>
		</sfw>
	</metadata>
	<g id="connector" i:layer="yes" i:dimmedPercent="50" i:rgbTrio="#FFFF4F00FFFF">
		<g i:knockout="Off">
			<path i:knockout="Off" d="M0.328,7.203V0.109h1.453v5.875h3.594v1.219H0.328z"/>
			<path i:knockout="Off" d="M6.046,5.318l1.328-0.162C7.417,5.496,7.53,5.755,7.715,5.934C7.9,6.114,8.124,6.203,8.387,6.203
				c0.282,0,0.52-0.109,0.713-0.326s0.29-0.511,0.29-0.88c0-0.35-0.093-0.626-0.277-0.831S8.704,3.859,8.438,3.859
				c-0.175,0-0.384,0.034-0.626,0.103l0.151-1.103c0.372,0.01,0.656-0.071,0.852-0.243c0.196-0.171,0.294-0.398,0.294-0.683
				c0-0.242-0.072-0.435-0.215-0.578s-0.333-0.215-0.57-0.215c-0.234,0-0.435,0.081-0.601,0.243
				c-0.166,0.162-0.267,0.399-0.302,0.71L6.156,1.88c0.088-0.435,0.22-0.783,0.397-1.043s0.424-0.464,0.742-0.614
				C7.612,0.075,7.967,0,8.361,0c0.674,0,1.213,0.215,1.62,0.646c0.335,0.353,0.503,0.751,0.503,1.195
				c0,0.63-0.343,1.133-1.029,1.509c0.407,0.088,0.732,0.286,0.976,0.594c0.244,0.308,0.366,0.679,0.366,1.115
				c0,0.633-0.229,1.171-0.688,1.617S9.08,7.344,8.397,7.344c-0.647,0-1.184-0.187-1.609-0.56C6.361,6.41,6.114,5.921,6.046,5.318z"/>
			<path i:knockout="Off" d="M12.842,3.338c-0.355-0.15-0.613-0.356-0.774-0.62c-0.161-0.263-0.242-0.551-0.242-0.865
				c0-0.536,0.185-0.979,0.555-1.328S13.277,0,13.959,0c0.675,0,1.2,0.175,1.573,0.525s0.56,0.792,0.56,1.328
				c0,0.334-0.086,0.63-0.258,0.89c-0.172,0.26-0.414,0.458-0.726,0.595c0.398,0.16,0.7,0.395,0.907,0.701
				c0.207,0.308,0.311,0.662,0.311,1.064c0,0.664-0.21,1.203-0.63,1.618s-0.979,0.623-1.675,0.623c-0.648,0-1.188-0.171-1.619-0.515
				c-0.509-0.405-0.763-0.96-0.763-1.667c0-0.389,0.096-0.746,0.29-1.071C12.122,3.766,12.426,3.515,12.842,3.338z M12.999,5.034
				c0,0.383,0.095,0.681,0.286,0.895S13.714,6.25,14,6.25c0.279,0,0.51-0.103,0.693-0.309c0.183-0.206,0.274-0.503,0.274-0.892
				c0-0.339-0.093-0.612-0.279-0.818s-0.422-0.309-0.708-0.309c-0.331,0-0.577,0.117-0.739,0.351S12.999,4.76,12.999,5.034z
				 M13.124,1.954c0,0.275,0.075,0.49,0.227,0.644c0.151,0.154,0.353,0.231,0.604,0.231c0.255,0,0.458-0.078,0.611-0.233
				s0.229-0.371,0.229-0.646c0-0.259-0.076-0.466-0.227-0.622s-0.351-0.233-0.6-0.233c-0.258,0-0.463,0.079-0.616,0.236
				S13.124,1.695,13.124,1.954z"/>
			<path i:knockout="Off" d="M19.904,7.203V5.766h-2.922V4.567l3.098-4.552h1.152v4.547h0.891v1.203h-0.891v1.438H19.904z
				 M19.904,4.563V2.129l-1.637,2.433H19.904z"/>
		</g>
		<g i:knockout="Off">
			<path i:knockout="Off" d="M6.048,68.646c0.354,0.255,0.739,0.457,1.155,0.606l-0.531,1.031c-0.218-0.063-0.431-0.15-0.639-0.261
				c-0.045-0.021-0.365-0.23-0.96-0.625c-0.468,0.205-0.987,0.308-1.556,0.308c-1.099,0-1.96-0.325-2.583-0.977
				C0.311,68.079,0,67.165,0,65.987c0-1.174,0.312-2.087,0.937-2.74c0.625-0.652,1.473-0.979,2.544-0.979
				c1.061,0,1.902,0.325,2.524,0.975s0.933,1.56,0.933,2.73c0,0.619-0.087,1.163-0.26,1.632C6.546,67.964,6.336,68.311,6.048,68.646
				z M4.889,67.859c0.188-0.22,0.329-0.485,0.423-0.797c0.094-0.313,0.141-0.67,0.141-1.074c0-0.833-0.183-1.456-0.548-1.867
				c-0.365-0.412-0.843-0.618-1.434-0.618c-0.591,0-1.069,0.207-1.437,0.62s-0.55,1.034-0.55,1.864c0,0.842,0.183,1.472,0.55,1.89
				s0.831,0.627,1.391,0.627c0.208,0,0.405-0.034,0.591-0.103c-0.292-0.189-0.589-0.338-0.892-0.444l0.404-0.828
				C4.003,67.291,4.457,67.534,4.889,67.859z"/>
			<path i:knockout="Off" d="M11.279,69.565H9.904V64.38c-0.5,0.471-1.088,0.818-1.766,1.044v-1.25
				c0.357-0.117,0.746-0.339,1.166-0.667c0.419-0.327,0.707-0.709,0.863-1.146h1.112V69.565z"/>
			<path i:knockout="Off" d="M13.278,67.679l1.328-0.161c0.042,0.339,0.156,0.599,0.341,0.778c0.185,0.179,0.409,0.269,0.672,0.269
				c0.282,0,0.52-0.108,0.713-0.326c0.193-0.218,0.29-0.511,0.29-0.88c0-0.35-0.092-0.627-0.277-0.831s-0.409-0.307-0.675-0.307
				c-0.175,0-0.384,0.034-0.626,0.103l0.152-1.103c0.372,0.01,0.656-0.071,0.852-0.242c0.196-0.172,0.293-0.399,0.293-0.684
				c0-0.241-0.071-0.434-0.214-0.577s-0.333-0.216-0.571-0.216c-0.234,0-0.434,0.081-0.6,0.243c-0.166,0.162-0.267,0.399-0.302,0.71
				l-1.266-0.214c0.088-0.435,0.221-0.783,0.398-1.043c0.177-0.26,0.424-0.465,0.742-0.613c0.317-0.149,0.672-0.224,1.066-0.224
				c0.673,0,1.213,0.216,1.62,0.646c0.335,0.353,0.502,0.751,0.502,1.195c0,0.63-0.343,1.133-1.029,1.508
				c0.407,0.089,0.732,0.287,0.976,0.595s0.366,0.68,0.366,1.115c0,0.632-0.229,1.171-0.688,1.616s-1.029,0.668-1.712,0.668
				c-0.647,0-1.184-0.187-1.609-0.561C13.593,68.772,13.346,68.283,13.278,67.679z"/>
			<path i:knockout="Off" d="M18.84,67.679l1.328-0.161c0.042,0.339,0.156,0.599,0.341,0.778c0.185,0.179,0.409,0.269,0.672,0.269
				c0.282,0,0.52-0.108,0.713-0.326c0.193-0.218,0.29-0.511,0.29-0.88c0-0.35-0.092-0.627-0.277-0.831s-0.41-0.307-0.675-0.307
				c-0.175,0-0.384,0.034-0.626,0.103l0.151-1.103c0.372,0.01,0.656-0.071,0.852-0.242c0.196-0.172,0.294-0.399,0.294-0.684
				c0-0.241-0.072-0.434-0.215-0.577s-0.333-0.216-0.57-0.216c-0.234,0-0.435,0.081-0.6,0.243c-0.166,0.162-0.267,0.399-0.302,0.71
				l-1.266-0.214c0.088-0.435,0.22-0.783,0.397-1.043c0.177-0.26,0.424-0.465,0.742-0.613c0.317-0.149,0.673-0.224,1.066-0.224
				c0.673,0,1.213,0.216,1.62,0.646c0.335,0.353,0.503,0.751,0.503,1.195c0,0.63-0.343,1.133-1.029,1.508
				c0.407,0.089,0.732,0.287,0.976,0.595s0.366,0.68,0.366,1.115c0,0.632-0.229,1.171-0.688,1.616s-1.029,0.668-1.711,0.668
				c-0.647,0-1.184-0.187-1.609-0.561C19.155,68.772,18.908,68.283,18.84,67.679z"/>
		</g>
	</g>
	<g id="レイヤー_1" i:layer="yes" i:dimmedPercent="100" i:rgbTrio="#4F008000FFFF">
		<path i:knockout="Off" fill="none" stroke="#000000" stroke-width="1.2" stroke-linecap="round" d="M37.917,21.203V18.38h-5.671
			v2.823"/>
		<g i:knockout="Off">
			<path i:knockout="Off" d="M28.693,30.109H27.99v-4.48c-0.169,0.162-0.391,0.323-0.666,0.484s-0.521,0.283-0.74,0.363v-0.68
				c0.393-0.185,0.737-0.409,1.031-0.672s0.502-0.518,0.625-0.766h0.453V30.109z"/>
		</g>
		<path i:knockout="Off" fill="none" stroke="#000000" stroke-width="1.2" stroke-linecap="round" d="M33.933,33.699V21.328H22.371
			v12.371H33.933z"/>
		<path i:knockout="Off" fill="none" stroke="#000000" stroke-width="0.7" stroke-linecap="square" d="M22.536,32.053h11.022"/>
		<g i:knockout="Off">
			<path i:knockout="Off" d="M43.774,29.396v0.672h-3.797C39.972,29.899,40,29.736,40.06,29.58c0.097-0.258,0.252-0.511,0.467-0.76
				c0.214-0.249,0.521-0.537,0.92-0.864c0.62-0.516,1.04-0.923,1.262-1.221c0.221-0.297,0.331-0.581,0.331-0.848
				c0-0.278-0.1-0.513-0.3-0.704c-0.199-0.191-0.459-0.287-0.78-0.287c-0.339,0-0.61,0.104-0.813,0.311
				c-0.204,0.207-0.307,0.494-0.31,0.861l-0.719-0.094c0.05-0.539,0.235-0.95,0.558-1.232s0.756-0.424,1.3-0.424
				c0.549,0,0.983,0.153,1.304,0.458c0.319,0.305,0.479,0.682,0.479,1.133c0,0.229-0.047,0.455-0.14,0.676
				c-0.094,0.222-0.248,0.455-0.465,0.7c-0.216,0.245-0.576,0.581-1.08,1.009c-0.424,0.355-0.695,0.596-0.815,0.722
				s-0.219,0.254-0.297,0.381H43.774z"/>
		</g>
		<path i:knockout="Off" fill="none" stroke="#000000" stroke-width="1.2" stroke-linecap="round" d="M47.976,33.658V21.287H36.414
			v12.371H47.976z"/>
		<path i:knockout="Off" fill="none" stroke="#000000" stroke-width="0.7" stroke-linecap="square" d="M36.709,32.012h11.021"/>
		<g>
			<g>
				<path i:knockout="Off" fill="none" stroke="#000000" stroke-width="1.2" d="M39.855,80.943v-3.414h-6.828v3.414"/>
				<path i:knockout="Off" fill="none" stroke="#000000" stroke-width="0.7" d="M23.294,96.624V83.443h12.364v13.181H23.294z"/>
				<path i:knockout="Off" fill="none" stroke="#000000" stroke-width="1.2" d="M51.646,99.294V80.943H21.087v18.352H51.646z"/>
				<g i:knockout="Off">
					<path i:knockout="Off" d="M31.619,91.494v0.672h-3.797c-0.005-0.169,0.022-0.332,0.083-0.488
						c0.097-0.258,0.252-0.511,0.467-0.76c0.214-0.248,0.521-0.537,0.92-0.864c0.62-0.517,1.04-0.923,1.261-1.221
						s0.332-0.58,0.332-0.849c0-0.277-0.1-0.513-0.299-0.703c-0.2-0.191-0.46-0.287-0.781-0.287c-0.339,0-0.61,0.104-0.814,0.311
						c-0.204,0.208-0.307,0.494-0.309,0.861l-0.719-0.094c0.049-0.539,0.235-0.949,0.558-1.232c0.323-0.282,0.756-0.424,1.3-0.424
						c0.549,0,0.983,0.152,1.303,0.457s0.48,0.683,0.48,1.133c0,0.229-0.047,0.455-0.14,0.677c-0.094,0.222-0.248,0.454-0.465,0.699
						c-0.216,0.245-0.576,0.581-1.081,1.009c-0.423,0.355-0.695,0.596-0.815,0.723c-0.12,0.126-0.219,0.253-0.297,0.381H31.619z"/>
				</g>
				<path i:knockout="Off" fill="none" stroke="#000000" stroke-width="0.7" d="M23.225,95.021h12.378"/>
				<path i:knockout="Off" fill="none" stroke="#000000" stroke-width="0.7" d="M37.213,96.624V83.443h12.363v13.181H37.213z"/>
				<g i:knockout="Off">
					<path i:knockout="Off" d="M44.499,92.166h-0.703v-4.48c-0.169,0.162-0.392,0.323-0.666,0.484
						c-0.274,0.162-0.521,0.283-0.74,0.363v-0.68c0.394-0.185,0.737-0.408,1.031-0.672c0.294-0.263,0.503-0.518,0.625-0.766h0.453
						V92.166z"/>
				</g>
				<path i:knockout="Off" fill="none" stroke="#000000" stroke-width="0.7" d="M37.144,95.021h12.379"/>
			</g>
		</g>
	</g>
</svg>
