<?xml version="1.0" encoding="utf-8"?>
<!-- Generator: Adobe Illustrator 10.0, SVG Export Plug-In . SVG Version: 3.0.0 Build 77)  -->
<!DOCTYPE svg PUBLIC "-//W3C//DTD SVG 1.0//EN"    "http://www.w3.org/TR/2001/REC-SVG-20010904/DTD/svg10.dtd" [
	<!ENTITY ns_flows "http://ns.adobe.com/Flows/1.0/">
	<!ENTITY ns_extend "http://ns.adobe.com/Extensibility/1.0/">
	<!ENTITY ns_ai "http://ns.adobe.com/AdobeIllustrator/10.0/">
	<!ENTITY ns_graphs "http://ns.adobe.com/Graphs/1.0/">
	<!ENTITY ns_vars "http://ns.adobe.com/Variables/1.0/">
	<!ENTITY ns_imrep "http://ns.adobe.com/ImageReplacement/1.0/">
	<!ENTITY ns_sfw "http://ns.adobe.com/SaveForWeb/1.0/">
	<!ENTITY ns_custom "http://ns.adobe.com/GenericCustomNamespace/1.0/">
	<!ENTITY ns_adobe_xpath "http://ns.adobe.com/XPath/1.0/">
	<!ENTITY ns_svg "http://www.w3.org/2000/svg">
	<!ENTITY ns_xlink "http://www.w3.org/1999/xlink">
]>
<svg xmlns:x="&ns_extend;" xmlns:i="&ns_ai;" xmlns:graph="&ns_graphs;" i:viewOrigin="261.8843 447.4355" i:rulerOrigin="-1 0.1104" i:pageBounds="1 841.8896 596 -0.1104" xmlns="&ns_svg;" xmlns:xlink="&ns_xlink;" xmlns:a="http://ns.adobe.com/AdobeSVGViewerExtensions/3.0/" width="53.52" height="109.434" viewBox="0 0 53.52 109.434" overflow="visible" enable-background="new 0 0 53.52 109.434" xml:space="preserve" id="svgObj" onload="parent.svgLoad('Top', document)">
	<metadata>
		<variableSets xmlns="&ns_vars;">
			<variableSet varSetName="binding1" locked="none">
				<variables></variables>
				<v:sampleDataSets xmlns="&ns_custom;" xmlns:v="&ns_vars;"></v:sampleDataSets>
			</variableSet>
		</variableSets>
		<sfw xmlns="&ns_sfw;">
			<slices></slices>
			<sliceSourceBounds y="326.345" x="257.815" width="80.371" height="125.726" bottomLeftOrigin="true"></sliceSourceBounds>
		</sfw>
	</metadata>
	<g id="connector" i:layer="yes" i:dimmedPercent="50" i:rgbTrio="#FFFF4F00FFFF">
		<g i:knockout="Off">
			<path i:knockout="Off" d="M0.031,7.203V0.109h1.453v5.875h3.594v1.219H0.031z"/>
			<path i:knockout="Off" d="M5.749,5.317l1.328-0.161c0.042,0.339,0.156,0.599,0.341,0.778c0.186,0.179,0.409,0.269,0.672,0.269
				c0.282,0,0.521-0.108,0.713-0.326s0.29-0.511,0.29-0.88C9.092,4.647,9,4.37,8.816,4.166s-0.41-0.307-0.675-0.307
				c-0.175,0-0.384,0.034-0.627,0.103l0.152-1.103c0.372,0.01,0.656-0.071,0.852-0.242c0.196-0.172,0.293-0.399,0.293-0.684
				c0-0.241-0.071-0.434-0.214-0.577S8.263,1.141,8.026,1.141c-0.234,0-0.434,0.081-0.6,0.243C7.26,1.546,7.16,1.783,7.124,2.094
				L5.858,1.88c0.088-0.435,0.221-0.783,0.398-1.043c0.177-0.26,0.424-0.465,0.742-0.613C7.315,0.074,7.67,0,8.064,0
				c0.673,0,1.213,0.216,1.62,0.646c0.335,0.353,0.502,0.751,0.502,1.195c0,0.63-0.343,1.133-1.028,1.508
				c0.406,0.089,0.731,0.287,0.976,0.595c0.243,0.308,0.365,0.68,0.365,1.115c0,0.632-0.229,1.171-0.688,1.616
				S8.782,7.344,8.099,7.344c-0.646,0-1.184-0.187-1.609-0.561C6.064,6.41,5.817,5.921,5.749,5.317z"/>
			<path i:knockout="Off" d="M12.545,3.339c-0.355-0.15-0.613-0.357-0.774-0.62c-0.161-0.264-0.242-0.552-0.242-0.865
				c0-0.536,0.185-0.979,0.555-1.329S12.98,0,13.662,0c0.675,0,1.2,0.175,1.573,0.524s0.56,0.793,0.56,1.329
				c0,0.333-0.086,0.63-0.258,0.89c-0.172,0.26-0.414,0.458-0.726,0.596c0.398,0.16,0.7,0.394,0.907,0.701
				c0.207,0.307,0.311,0.662,0.311,1.063c0,0.664-0.21,1.203-0.63,1.618s-0.979,0.623-1.675,0.623c-0.648,0-1.188-0.171-1.619-0.515
				c-0.509-0.405-0.763-0.961-0.763-1.667c0-0.389,0.096-0.746,0.29-1.071C11.824,3.766,12.129,3.515,12.545,3.339z M12.701,5.034
				c0,0.382,0.095,0.681,0.286,0.895c0.191,0.214,0.429,0.321,0.715,0.321c0.279,0,0.51-0.103,0.693-0.309
				c0.183-0.206,0.274-0.504,0.274-0.893c0-0.339-0.093-0.612-0.279-0.818s-0.422-0.309-0.708-0.309
				c-0.331,0-0.577,0.117-0.739,0.351S12.701,4.761,12.701,5.034z M12.826,1.954c0,0.275,0.075,0.49,0.227,0.644
				s0.353,0.231,0.604,0.231c0.255,0,0.458-0.078,0.611-0.233c0.153-0.155,0.229-0.371,0.229-0.646c0-0.259-0.076-0.466-0.227-0.622
				c-0.151-0.155-0.351-0.233-0.6-0.233c-0.258,0-0.463,0.079-0.616,0.236S12.826,1.695,12.826,1.954z"/>
			<path i:knockout="Off" d="M16.95,5.553l1.328-0.146c0.033,0.271,0.117,0.471,0.254,0.602c0.137,0.13,0.318,0.195,0.543,0.195
				c0.284,0,0.525-0.131,0.724-0.394c0.199-0.262,0.326-0.805,0.381-1.629c-0.346,0.4-0.778,0.601-1.297,0.601
				c-0.564,0-1.051-0.218-1.46-0.653c-0.41-0.436-0.614-1.002-0.614-1.701c0-0.728,0.216-1.314,0.647-1.759
				C17.888,0.223,18.438,0,19.105,0c0.726,0,1.322,0.282,1.788,0.846c0.465,0.564,0.698,1.491,0.698,2.782
				c0,1.313-0.242,2.262-0.727,2.843s-1.116,0.873-1.893,0.873c-0.56,0-1.012-0.149-1.357-0.449
				C17.269,6.596,17.048,6.148,16.95,5.553z M20.06,2.544c0-0.445-0.103-0.79-0.307-1.036c-0.205-0.245-0.441-0.368-0.71-0.368
				c-0.255,0-0.467,0.101-0.636,0.302c-0.168,0.201-0.253,0.531-0.253,0.989c0,0.465,0.092,0.806,0.275,1.023
				c0.183,0.218,0.413,0.326,0.688,0.326c0.265,0,0.489-0.104,0.671-0.314C19.969,3.258,20.06,2.95,20.06,2.544z"/>
		</g>
		<g i:knockout="Off">
			<path i:knockout="Off" d="M0,69.566V62.41h3.028c0.761,0,1.315,0.064,1.66,0.193c0.346,0.128,0.622,0.357,0.829,0.687
				c0.207,0.328,0.311,0.705,0.311,1.128c0,0.538-0.156,0.981-0.466,1.331C5.051,66.1,4.586,66.32,3.967,66.411
				c0.308,0.183,0.562,0.383,0.762,0.6c0.2,0.219,0.47,0.605,0.81,1.161l0.868,1.395H4.699l-1.029-1.567
				c-0.371-0.552-0.625-0.898-0.762-1.042s-0.281-0.242-0.435-0.295c-0.152-0.054-0.395-0.08-0.727-0.08H1.453v2.984H0z
				 M1.453,65.441h1.059c0.686,0,1.115-0.029,1.286-0.088c0.171-0.058,0.305-0.159,0.401-0.302s0.145-0.322,0.145-0.536
				c0-0.24-0.064-0.435-0.191-0.582c-0.127-0.147-0.307-0.241-0.539-0.28c-0.116-0.016-0.464-0.024-1.044-0.024H1.453V65.441z"/>
			<path i:knockout="Off" d="M10.425,69.566H9.05v-5.185c-0.5,0.471-1.088,0.818-1.766,1.044v-1.25
				c0.357-0.117,0.746-0.339,1.166-0.667c0.419-0.327,0.707-0.709,0.863-1.146h1.112V69.566z"/>
			<path i:knockout="Off" d="M12.487,67.754l1.375-0.141c0.039,0.308,0.155,0.551,0.349,0.73c0.193,0.18,0.416,0.27,0.667,0.27
				c0.288,0,0.532-0.118,0.731-0.353c0.2-0.236,0.299-0.59,0.299-1.064c0-0.444-0.101-0.777-0.303-1
				c-0.202-0.222-0.464-0.333-0.788-0.333c-0.404,0-0.766,0.172-1.086,0.516l-1.104-0.159l0.703-3.716h3.672v1.281h-2.631
				l-0.228,1.206c0.311-0.148,0.629-0.222,0.953-0.222c0.619,0,1.143,0.223,1.573,0.667c0.43,0.445,0.645,1.023,0.645,1.733
				c0,0.592-0.171,1.12-0.514,1.585c-0.467,0.635-1.115,0.952-1.944,0.952c-0.663,0-1.203-0.177-1.621-0.529
				C12.818,68.824,12.568,68.351,12.487,67.754z"/>
			<path i:knockout="Off" d="M21.548,69.566h-1.375v-5.185c-0.499,0.471-1.088,0.818-1.766,1.044v-1.25
				c0.357-0.117,0.746-0.339,1.166-0.667c0.419-0.327,0.707-0.709,0.863-1.146h1.111V69.566z"/>
		</g>
	</g>
	<g id="レイヤー_1" i:layer="yes" i:dimmedPercent="100" i:rgbTrio="#4F008000FFFF">
		<g i:knockout="Off">
			<path i:knockout="Off" d="M31.824,23.5L31.121,23.5l-0.007-4.48c-0.169,0.162-0.391,0.324-0.665,0.485
				c-0.275,0.162-0.521,0.284-0.74,0.364l-0.001-0.68c0.393-0.185,0.736-0.41,1.03-0.673c0.293-0.263,0.501-0.519,0.624-0.767
				l0.453,0L31.824,23.5z"/>
		</g>
		<g i:knockout="Off">
			<path i:knockout="Off" d="M29.132,33.352l0.719-0.094c0.08,0.394,0.215,0.676,0.405,0.85c0.19,0.173,0.425,0.26,0.707,0.26
				c0.333,0,0.611-0.114,0.835-0.345c0.223-0.229,0.335-0.514,0.335-0.853c0-0.323-0.104-0.591-0.313-0.8
				c-0.209-0.211-0.476-0.315-0.798-0.315c-0.132,0-0.296,0.026-0.492,0.078l0.078-0.625c0.046,0.005,0.083,0.008,0.112,0.008
				c0.294,0,0.56-0.077,0.795-0.232s0.354-0.394,0.354-0.717c0-0.255-0.086-0.467-0.259-0.635s-0.396-0.252-0.669-0.252
				c-0.271,0-0.497,0.086-0.677,0.258c-0.181,0.172-0.296,0.43-0.348,0.773l-0.719-0.125c0.086-0.472,0.28-0.837,0.584-1.096
				s0.682-0.389,1.134-0.389c0.312,0,0.599,0.067,0.861,0.2c0.262,0.134,0.463,0.315,0.602,0.546
				c0.139,0.231,0.208,0.476,0.208,0.735c0,0.246-0.066,0.471-0.199,0.672c-0.133,0.203-0.33,0.363-0.59,0.482
				c0.338,0.078,0.604,0.24,0.797,0.487c0.192,0.246,0.289,0.555,0.289,0.925c0,0.501-0.183,0.926-0.547,1.273
				c-0.365,0.349-0.826,0.522-1.383,0.522c-0.503,0-0.92-0.147-1.252-0.443S29.179,33.822,29.132,33.352z"/>
		</g>
		<g i:knockout="Off">
			<path i:knockout="Off" d="M44.191,22.829v0.672h-3.797c-0.005-0.169,0.022-0.332,0.083-0.488c0.097-0.258,0.252-0.511,0.467-0.76
				c0.214-0.249,0.521-0.537,0.92-0.864c0.62-0.516,1.04-0.923,1.262-1.221c0.221-0.298,0.331-0.58,0.331-0.849
				c0-0.278-0.1-0.513-0.3-0.704c-0.199-0.191-0.459-0.287-0.78-0.287c-0.339,0-0.61,0.104-0.813,0.311
				c-0.204,0.208-0.307,0.494-0.31,0.861l-0.719-0.094c0.05-0.539,0.235-0.95,0.558-1.232c0.322-0.282,0.756-0.424,1.3-0.424
				c0.549,0,0.983,0.152,1.304,0.457c0.319,0.305,0.479,0.683,0.479,1.133c0,0.229-0.047,0.455-0.14,0.676
				c-0.094,0.221-0.248,0.454-0.465,0.699c-0.216,0.245-0.576,0.581-1.08,1.009c-0.424,0.355-0.695,0.596-0.815,0.722
				s-0.219,0.253-0.297,0.381H44.191z"/>
		</g>
		<g i:knockout="Off">
			<path i:knockout="Off" d="M42.701,34.936v-1.375h-2.484V32.92l2.625-3.719h0.563v3.719h0.781v0.641h-0.781v1.375H42.701z
				 M42.701,32.92v-2.566l-1.792,2.566H42.701z"/>
		</g>
		<path i:knockout="Off" fill="none" stroke="#000000" stroke-width="1.2" stroke-linecap="round" d="M26.9,13.45h18.203"/>
		<path i:knockout="Off" fill="none" stroke="#000000" stroke-width="1.2" stroke-linecap="round" d="M49.96,36.174V18.017"/>
		<path i:knockout="Off" fill="none" stroke="#000000" stroke-width="1.2" stroke-linecap="round" d="M45.103,40.717l4.857-4.543"/>
		<path i:knockout="Off" fill="none" stroke="#000000" stroke-width="1.2" stroke-linecap="round" d="M49.96,17.992l-4.857-4.542"/>
		<path i:knockout="Off" fill="none" stroke="#000000" stroke-width="1.2" stroke-linecap="round" d="M26.275,40.717h18.828"/>
		<g>
			<path i:knockout="Off" fill="none" stroke="#000000" stroke-width="1.2" stroke-linecap="round" d="M31.636,10.809h8.721"/>
			<path i:knockout="Off" fill="none" stroke="#000000" stroke-width="1.2" stroke-linecap="round" d="M40.357,10.809v2.568"/>
			<path i:knockout="Off" fill="none" stroke="#000000" stroke-width="1.2" stroke-linecap="round" d="M31.636,10.809v2.568"/>
		</g>
		<path i:knockout="Off" fill="none" stroke="#000000" stroke-width="1.2" stroke-linecap="round" d="M40.341,43.445h-8.721"/>
		<path i:knockout="Off" fill="none" stroke="#000000" stroke-width="0.7" stroke-linecap="round" d="M48.083,21.424
			c0-3.132-2.539-5.67-5.67-5.67s-5.67,2.538-5.67,5.67c0,3.131,2.539,5.67,5.67,5.67S48.083,24.555,48.083,21.424"/>
		<path i:knockout="Off" fill="none" stroke="#000000" stroke-width="0.7" stroke-linecap="round" d="M36.744,21.424
			c-0.006-3.132-2.549-5.667-5.68-5.661c-3.131,0.004-5.664,2.547-5.66,5.678c0.006,3.132,2.547,5.667,5.678,5.661
			C34.212,27.098,36.748,24.555,36.744,21.424"/>
		<path i:knockout="Off" fill="none" stroke="#000000" stroke-width="0.7" stroke-linecap="round" d="M36.744,32.764
			c0-3.132-2.539-5.67-5.67-5.67s-5.67,2.538-5.67,5.67c0,3.131,2.539,5.669,5.67,5.669S36.744,35.895,36.744,32.764"/>
		<path i:knockout="Off" fill="none" stroke="#000000" stroke-width="0.7" stroke-linecap="round" d="M48.083,32.764
			c0-3.132-2.539-5.67-5.67-5.67s-5.67,2.538-5.67,5.67c0,3.131,2.539,5.669,5.67,5.669S48.083,35.895,48.083,32.764"/>
		<path i:knockout="Off" fill="none" stroke="#000000" stroke-width="1.2" stroke-linecap="round" d="M26.275,40.551
			c-2.389-3.787-3.769-8.272-3.769-13.081c0-5.217,1.626-10.055,4.399-14.033"/>
		<path i:knockout="Off" fill="none" stroke="#000000" stroke-width="1.2" stroke-linecap="round" d="M31.621,43.445l-0.876-2.713"/>
		<path i:knockout="Off" fill="none" stroke="#000000" stroke-width="1.2" stroke-linecap="round" d="M40.341,43.445l0.875-2.713"/>
		<path i:knockout="Off" fill="none" stroke="#000000" stroke-width="0.7" stroke-linecap="round" d="M27.339,25.689h7.332"/>
		<path i:knockout="Off" fill="none" stroke="#000000" stroke-width="0.7" stroke-linecap="round" d="M27.339,37.02h7.332"/>
		<path i:knockout="Off" fill="none" stroke="#000000" stroke-width="0.7" stroke-linecap="round" d="M38.676,37.02h7.332"/>
		<path i:knockout="Off" fill="none" stroke="#000000" stroke-width="0.7" stroke-linecap="round" d="M38.684,25.689h7.332"/>
		<g i:knockout="Off">
			<path i:knockout="Off" d="M32.695,85.678l0.001,0.672l-3.797,0.006c-0.006-0.17,0.021-0.332,0.082-0.488
				c0.097-0.259,0.252-0.512,0.466-0.761s0.52-0.537,0.919-0.866c0.619-0.517,1.039-0.924,1.259-1.223
				c0.22-0.298,0.331-0.58,0.33-0.849c0-0.278-0.101-0.513-0.3-0.703c-0.2-0.19-0.46-0.286-0.781-0.285
				c-0.339,0-0.61,0.104-0.813,0.312c-0.203,0.208-0.306,0.495-0.308,0.861l-0.719-0.093c0.049-0.539,0.234-0.949,0.556-1.232
				c0.322-0.283,0.755-0.426,1.299-0.426c0.549-0.001,0.983,0.15,1.304,0.455c0.32,0.304,0.481,0.682,0.481,1.132
				c0,0.229-0.046,0.455-0.139,0.677c-0.093,0.222-0.248,0.455-0.463,0.7s-0.576,0.582-1.079,1.01
				c-0.423,0.356-0.694,0.597-0.814,0.724s-0.218,0.254-0.296,0.382L32.695,85.678z"/>
		</g>
		<g i:knockout="Off">
			<path i:knockout="Off" d="M31.302,97.703v-1.375h-2.484v-0.641l2.625-3.719h0.563v3.719h0.781v0.641h-0.781v1.375H31.302z
				 M31.302,95.688v-2.566l-1.792,2.566H31.302z"/>
		</g>
		<g i:knockout="Off">
			<path i:knockout="Off" d="M42.872,86.353h-0.703v-4.48c-0.17,0.162-0.392,0.323-0.666,0.484c-0.275,0.162-0.521,0.283-0.74,0.363
				v-0.68c0.393-0.185,0.736-0.408,1.031-0.672c0.294-0.263,0.502-0.518,0.625-0.766h0.453V86.353z"/>
		</g>
		<g i:knockout="Off">
			<path i:knockout="Off" d="M40.276,96.287l0.719-0.094c0.08,0.394,0.215,0.676,0.404,0.85c0.19,0.173,0.426,0.26,0.707,0.26
				c0.333,0,0.611-0.114,0.835-0.345c0.224-0.229,0.335-0.514,0.335-0.853c0-0.323-0.104-0.591-0.313-0.8
				c-0.21-0.211-0.476-0.315-0.798-0.315c-0.132,0-0.296,0.026-0.492,0.078l0.078-0.625c0.046,0.005,0.083,0.008,0.111,0.008
				c0.295,0,0.56-0.077,0.795-0.232s0.354-0.394,0.354-0.717c0-0.255-0.086-0.467-0.26-0.635c-0.172-0.168-0.396-0.252-0.668-0.252
				c-0.271,0-0.497,0.086-0.678,0.258c-0.18,0.172-0.296,0.43-0.348,0.773l-0.719-0.125c0.086-0.472,0.28-0.837,0.584-1.096
				c0.305-0.259,0.683-0.389,1.135-0.389c0.312,0,0.599,0.067,0.861,0.2c0.262,0.134,0.463,0.315,0.602,0.546
				c0.14,0.231,0.209,0.476,0.209,0.735c0,0.246-0.066,0.471-0.199,0.672c-0.133,0.203-0.33,0.363-0.59,0.482
				c0.338,0.078,0.604,0.24,0.797,0.487c0.192,0.246,0.289,0.555,0.289,0.925c0,0.501-0.183,0.926-0.547,1.273
				c-0.365,0.349-0.826,0.522-1.383,0.522c-0.503,0-0.92-0.147-1.252-0.443S40.323,96.758,40.276,96.287z"/>
		</g>
		<path i:knockout="Off" fill="none" stroke="#000000" stroke-width="0.7" stroke-linecap="round" d="M46.368,76.301H28.165"/>
		<path i:knockout="Off" fill="none" stroke="#000000" stroke-width="0.7" stroke-linecap="round" d="M23.308,99.024V80.867"/>
		<path i:knockout="Off" fill="none" stroke="#000000" stroke-width="0.7" stroke-linecap="round" d="M28.165,103.567l-4.857-4.543"/>
		<path i:knockout="Off" fill="none" stroke="#000000" stroke-width="0.7" stroke-linecap="round" d="M23.308,80.843l4.857-4.542"/>
		<path i:knockout="Off" fill="none" stroke="#000000" stroke-width="0.7" stroke-linecap="round" d="M46.993,103.567H28.165"/>
		<g>
			<path i:knockout="Off" fill="none" stroke="#000000" stroke-width="1.2" stroke-linecap="round" d="M41.631,71.396h-8.72"/>
			<path i:knockout="Off" fill="none" stroke="#000000" stroke-width="1.2" stroke-linecap="round" d="M32.911,71.396v2.568"/>
			<path i:knockout="Off" fill="none" stroke="#000000" stroke-width="1.2" stroke-linecap="round" d="M41.631,71.396v2.568"/>
		</g>
		<path i:knockout="Off" fill="none" stroke="#000000" stroke-width="1.2" stroke-linecap="round" d="M32.927,108.834h8.72"/>
		<path i:knockout="Off" fill="none" stroke="#000000" stroke-width="0.7" stroke-linecap="round" d="M25.185,84.275
			c0-3.132,2.539-5.67,5.67-5.67s5.67,2.538,5.67,5.67c0,3.131-2.539,5.67-5.67,5.67S25.185,87.406,25.185,84.275"/>
		<path i:knockout="Off" fill="none" stroke="#000000" stroke-width="0.7" stroke-linecap="round" d="M36.524,84.275
			c0.006-3.132,2.548-5.667,5.679-5.661c3.131,0.004,5.664,2.547,5.66,5.678c-0.006,3.132-2.547,5.667-5.678,5.661
			C39.055,89.949,36.521,87.406,36.524,84.275"/>
		<path i:knockout="Off" fill="none" stroke="#000000" stroke-width="0.7" stroke-linecap="round" d="M36.524,95.615
			c0-3.132,2.539-5.67,5.669-5.67s5.67,2.538,5.67,5.67c0,3.131-2.539,5.669-5.67,5.669S36.524,98.746,36.524,95.615"/>
		<path i:knockout="Off" fill="none" stroke="#000000" stroke-width="0.7" stroke-linecap="round" d="M25.185,95.615
			c0-3.132,2.539-5.67,5.67-5.67s5.67,2.538,5.67,5.67c0,3.131-2.539,5.669-5.67,5.669S25.185,98.746,25.185,95.615"/>
		<path i:knockout="Off" fill="none" stroke="#000000" stroke-width="0.7" stroke-linecap="round" d="M46.993,103.401
			c2.389-3.787,3.77-8.272,3.77-13.081c0-5.217-1.627-10.055-4.4-14.033"/>
		<path i:knockout="Off" fill="none" stroke="#000000" stroke-width="1.2" stroke-linecap="round" d="M41.647,108.834l0.877-2.713"/>
		<path i:knockout="Off" fill="none" stroke="#000000" stroke-width="1.2" stroke-linecap="round" d="M32.927,108.834l-0.875-2.713"/>
		<path i:knockout="Off" fill="none" stroke="#000000" stroke-width="0.7" stroke-linecap="round" d="M45.928,88.541h-7.332"/>
		<path i:knockout="Off" fill="none" stroke="#000000" stroke-width="0.7" stroke-linecap="round" d="M45.928,99.871h-7.332"/>
		<path i:knockout="Off" fill="none" stroke="#000000" stroke-width="0.7" stroke-linecap="round" d="M34.592,99.871H27.26"/>
		<path i:knockout="Off" fill="none" stroke="#000000" stroke-width="0.7" stroke-linecap="round" d="M34.584,88.541h-7.332"/>
		<path i:knockout="Off" fill="none" stroke="#000000" stroke-width="1.2" stroke-linecap="round" d="M47.84,74.152H26.767"/>
		<path i:knockout="Off" fill="none" stroke="#000000" stroke-width="1.2" stroke-linecap="round" d="M21.144,100.459v-21.02"/>
		<path i:knockout="Off" fill="none" stroke="#000000" stroke-width="1.2" stroke-linecap="round" d="M26.767,105.718l-5.623-5.259"/>
		<path i:knockout="Off" fill="none" stroke="#000000" stroke-width="1.2" stroke-linecap="round" d="M21.144,79.411l5.623-5.259"/>
		<path i:knockout="Off" fill="none" stroke="#000000" stroke-width="1.2" stroke-linecap="round" d="M48.563,105.718H26.767"/>
		<path i:knockout="Off" fill="none" stroke="#000000" stroke-width="1.2" stroke-linecap="round" d="M48.563,105.525
			c2.766-4.385,4.363-9.576,4.363-15.144c0-6.038-1.883-11.639-5.094-16.244"/>
	</g>
</svg>
