<?xml version="1.0" encoding="utf-8"?>
<!-- Generator: Adobe Illustrator 10.0, SVG Export Plug-In . SVG Version: 3.0.0 Build 77)  -->
<!DOCTYPE svg PUBLIC "-//W3C//DTD SVG 1.0//EN"    "http://www.w3.org/TR/2001/REC-SVG-20010904/DTD/svg10.dtd" [
	<!ENTITY ns_flows "http://ns.adobe.com/Flows/1.0/">
	<!ENTITY ns_extend "http://ns.adobe.com/Extensibility/1.0/">
	<!ENTITY ns_ai "http://ns.adobe.com/AdobeIllustrator/10.0/">
	<!ENTITY ns_graphs "http://ns.adobe.com/Graphs/1.0/">
	<!ENTITY ns_vars "http://ns.adobe.com/Variables/1.0/">
	<!ENTITY ns_imrep "http://ns.adobe.com/ImageReplacement/1.0/">
	<!ENTITY ns_sfw "http://ns.adobe.com/SaveForWeb/1.0/">
	<!ENTITY ns_custom "http://ns.adobe.com/GenericCustomNamespace/1.0/">
	<!ENTITY ns_adobe_xpath "http://ns.adobe.com/XPath/1.0/">
	<!ENTITY ns_svg "http://www.w3.org/2000/svg">
	<!ENTITY ns_xlink "http://www.w3.org/1999/xlink">
]>
<svg xmlns:x="&ns_extend;" xmlns:i="&ns_ai;" xmlns:graph="&ns_graphs;" i:viewOrigin="261.5869 515.561" i:rulerOrigin="-1 0.1104" i:pageBounds="1 841.8896 596 -0.1104" xmlns="&ns_svg;" xmlns:xlink="&ns_xlink;" xmlns:a="http://ns.adobe.com/AdobeSVGViewerExtensions/3.0/" width="70.759" height="117.516" viewBox="0 0 70.759 117.516" overflow="visible" enable-background="new 0 0 70.759 117.516" xml:space="preserve" id="svgObj" onload="parent.svgLoad('Top', document)">
	<metadata>
		<variableSets xmlns="&ns_vars;">
			<variableSet varSetName="binding1" locked="none">
				<variables></variables>
				<v:sampleDataSets xmlns="&ns_custom;" xmlns:v="&ns_vars;"></v:sampleDataSets>
			</variableSet>
		</variableSets>
		<sfw xmlns="&ns_sfw;">
			<slices></slices>
			<sliceSourceBounds y="388.708" x="257.815" width="80.371" height="126.853" bottomLeftOrigin="true"></sliceSourceBounds>
		</sfw>
	</metadata>
	<g id="connector" i:layer="yes" i:dimmedPercent="50" i:rgbTrio="#FFFF4F00FFFF">
		<g i:knockout="Off">
			<path i:knockout="Off" d="M0.328,69.66v-7.094h1.453v5.875h3.594v1.219H0.328z"/>
			<path i:knockout="Off" d="M6.046,67.774l1.328-0.161c0.042,0.339,0.156,0.599,0.341,0.778C7.9,68.57,8.124,68.66,8.387,68.66
				c0.282,0,0.521-0.108,0.713-0.326s0.29-0.511,0.29-0.88c0-0.349-0.092-0.626-0.276-0.831s-0.41-0.307-0.675-0.307
				c-0.175,0-0.384,0.034-0.627,0.103l0.152-1.103c0.372,0.01,0.656-0.071,0.852-0.242c0.196-0.172,0.293-0.399,0.293-0.684
				c0-0.241-0.071-0.434-0.214-0.577s-0.333-0.216-0.571-0.216c-0.234,0-0.434,0.081-0.6,0.243c-0.166,0.162-0.267,0.399-0.303,0.71
				l-1.266-0.214c0.088-0.435,0.221-0.783,0.398-1.043c0.177-0.26,0.424-0.465,0.742-0.613c0.317-0.149,0.673-0.224,1.066-0.224
				c0.673,0,1.213,0.216,1.62,0.646c0.335,0.353,0.502,0.751,0.502,1.195c0,0.63-0.343,1.133-1.028,1.508
				c0.406,0.089,0.731,0.287,0.976,0.595c0.243,0.308,0.365,0.68,0.365,1.115c0,0.632-0.229,1.171-0.688,1.616
				S9.079,69.8,8.396,69.8c-0.646,0-1.184-0.187-1.609-0.561C6.361,68.867,6.114,68.377,6.046,67.774z"/>
			<path i:knockout="Off" d="M11.686,68.009l1.328-0.146c0.032,0.271,0.117,0.471,0.254,0.602c0.137,0.13,0.318,0.195,0.543,0.195
				c0.284,0,0.525-0.131,0.724-0.394c0.199-0.262,0.326-0.805,0.382-1.629c-0.346,0.4-0.778,0.601-1.297,0.601
				c-0.564,0-1.051-0.218-1.461-0.653c-0.409-0.436-0.614-1.002-0.614-1.701c0-0.728,0.215-1.314,0.647-1.759
				c0.431-0.445,0.981-0.668,1.648-0.668c0.726,0,1.322,0.282,1.787,0.846c0.466,0.564,0.699,1.491,0.699,2.782
				c0,1.313-0.243,2.262-0.727,2.843c-0.485,0.582-1.116,0.873-1.894,0.873c-0.56,0-1.012-0.149-1.356-0.449
				C12.005,69.052,11.784,68.605,11.686,68.009z M14.795,65.001c0-0.445-0.103-0.79-0.307-1.036
				c-0.205-0.245-0.441-0.368-0.71-0.368c-0.255,0-0.468,0.101-0.636,0.302c-0.169,0.201-0.253,0.531-0.253,0.989
				c0,0.465,0.091,0.806,0.275,1.023s0.413,0.326,0.688,0.326c0.265,0,0.489-0.104,0.67-0.314S14.795,65.407,14.795,65.001z"/>
			<path i:knockout="Off" d="M19.529,62.457c0.694,0,1.237,0.249,1.629,0.746c0.466,0.589,0.699,1.565,0.699,2.929
				c0,1.361-0.235,2.338-0.704,2.934c-0.388,0.491-0.93,0.736-1.624,0.736c-0.698,0-1.26-0.269-1.688-0.807
				s-0.641-1.497-0.641-2.877c0-1.354,0.235-2.329,0.705-2.924C18.293,62.702,18.834,62.457,19.529,62.457z M19.529,63.597
				c-0.164,0-0.309,0.053-0.438,0.16s-0.228,0.297-0.298,0.572c-0.093,0.357-0.14,0.958-0.14,1.802c0,0.845,0.042,1.425,0.125,1.741
				s0.188,0.526,0.315,0.631c0.126,0.105,0.271,0.157,0.435,0.157s0.309-0.053,0.438-0.159s0.228-0.297,0.298-0.572
				c0.093-0.354,0.139-0.953,0.139-1.797c0-0.844-0.042-1.425-0.125-1.741s-0.188-0.527-0.315-0.633S19.692,63.597,19.529,63.597z"/>
		</g>
		<g i:knockout="Off">
			<path i:knockout="Off" d="M0,3.763c0-0.732,0.109-1.348,0.327-1.845c0.162-0.366,0.384-0.695,0.666-0.986
				s0.589-0.507,0.924-0.647C2.363,0.095,2.877,0,3.459,0c1.054,0,1.897,0.329,2.529,0.986c0.633,0.658,0.949,1.572,0.949,2.743
				c0,1.161-0.314,2.07-0.941,2.725C5.368,7.11,4.529,7.438,3.479,7.438c-1.063,0-1.909-0.326-2.537-0.979
				C0.313,5.806,0,4.908,0,3.763z M1.484,3.714c0,0.817,0.188,1.436,0.563,1.857c0.375,0.422,0.852,0.632,1.429,0.632
				s1.051-0.209,1.421-0.627c0.37-0.418,0.556-1.045,0.556-1.882c0-0.826-0.181-1.442-0.541-1.85c-0.36-0.406-0.839-0.61-1.436-0.61
				S2.397,1.44,2.032,1.852C1.667,2.263,1.484,2.884,1.484,3.714z"/>
			<path i:knockout="Off" d="M12.404,6.016v1.281H7.591C7.643,6.814,7.8,6.357,8.061,5.924c0.261-0.432,0.776-1.005,1.545-1.72
				c0.619-0.577,0.999-0.969,1.139-1.175c0.189-0.283,0.284-0.564,0.284-0.841c0-0.307-0.083-0.542-0.249-0.707
				s-0.395-0.247-0.688-0.247c-0.289,0-0.519,0.087-0.69,0.26c-0.171,0.174-0.27,0.462-0.295,0.865L7.732,2.222
				C7.813,1.463,8.07,0.919,8.502,0.589c0.432-0.33,0.971-0.496,1.619-0.496c0.71,0,1.268,0.191,1.673,0.572
				s0.609,0.856,0.609,1.423c0,0.323-0.058,0.63-0.174,0.922s-0.299,0.597-0.55,0.917c-0.166,0.212-0.467,0.517-0.903,0.915
				c-0.436,0.397-0.712,0.662-0.828,0.792S9.74,5.892,9.668,6.016H12.404z"/>
			<path i:knockout="Off" d="M13.278,5.412l1.328-0.162c0.042,0.339,0.156,0.599,0.341,0.778c0.185,0.18,0.409,0.269,0.672,0.269
				c0.282,0,0.52-0.109,0.713-0.326c0.193-0.217,0.29-0.511,0.29-0.88c0-0.35-0.092-0.626-0.277-0.831s-0.409-0.307-0.675-0.307
				c-0.175,0-0.384,0.034-0.626,0.103l0.152-1.103c0.372,0.01,0.656-0.071,0.852-0.243c0.196-0.171,0.293-0.398,0.293-0.683
				c0-0.242-0.071-0.435-0.214-0.578s-0.333-0.215-0.571-0.215c-0.234,0-0.434,0.081-0.6,0.243c-0.166,0.162-0.267,0.399-0.302,0.71
				l-1.266-0.214c0.088-0.435,0.221-0.783,0.398-1.043s0.424-0.464,0.742-0.614c0.317-0.148,0.672-0.223,1.066-0.223
				c0.673,0,1.213,0.215,1.62,0.646c0.335,0.353,0.502,0.751,0.502,1.195c0,0.63-0.343,1.133-1.029,1.509
				c0.407,0.088,0.732,0.286,0.976,0.594s0.366,0.679,0.366,1.115c0,0.633-0.229,1.171-0.688,1.617s-1.029,0.668-1.712,0.668
				c-0.647,0-1.184-0.187-1.609-0.56C13.593,6.503,13.346,6.015,13.278,5.412z"/>
			<path i:knockout="Off" d="M22.402,7.297h-1.375V2.112c-0.5,0.471-1.088,0.819-1.766,1.044v-1.25
				c0.357-0.117,0.746-0.339,1.166-0.667c0.419-0.328,0.707-0.709,0.863-1.146h1.112V7.297z"/>
		</g>
	</g>
	<g id="レイヤー_1" i:layer="yes" i:dimmedPercent="100" i:rgbTrio="#4F008000FFFF">
		<g>
			<g i:knockout="Off">
				<path i:knockout="Off" d="M17.82,110.233h-0.703v-4.48c-0.169,0.161-0.391,0.323-0.666,0.484s-0.521,0.282-0.74,0.363v-0.68
					c0.393-0.185,0.737-0.409,1.031-0.672s0.502-0.519,0.625-0.766h0.453V110.233z"/>
				<path i:knockout="Off" d="M22.269,110.233h-0.703v-4.48c-0.169,0.161-0.391,0.323-0.666,0.484s-0.521,0.282-0.74,0.363v-0.68
					c0.393-0.185,0.737-0.409,1.031-0.672s0.502-0.519,0.625-0.766h0.453V110.233z"/>
			</g>
			<g i:knockout="Off">
				<path i:knockout="Off" d="M8.952,93.045v-0.672h3.703v0.544c-0.365,0.388-0.727,0.904-1.086,1.548
					c-0.359,0.645-0.636,1.308-0.832,1.987c-0.141,0.48-0.231,1.006-0.27,1.577H9.749c0.008-0.451,0.096-0.996,0.265-1.636
					c0.169-0.639,0.411-1.255,0.727-1.848s0.652-1.093,1.008-1.5H8.952z"/>
			</g>
			<g i:knockout="Off">
				<path i:knockout="Off" d="M60.241,96.53l0.719-0.094c0.08,0.394,0.215,0.676,0.404,0.85c0.19,0.173,0.426,0.26,0.707,0.26
					c0.333,0,0.611-0.114,0.835-0.345c0.224-0.229,0.335-0.514,0.335-0.853c0-0.323-0.104-0.591-0.313-0.8
					c-0.21-0.21-0.476-0.315-0.798-0.315c-0.132,0-0.296,0.026-0.492,0.078l0.078-0.625c0.046,0.005,0.083,0.008,0.111,0.008
					c0.295,0,0.56-0.077,0.795-0.232c0.235-0.155,0.354-0.394,0.354-0.717c0-0.255-0.086-0.467-0.26-0.635
					c-0.172-0.168-0.396-0.252-0.668-0.252c-0.271,0-0.497,0.086-0.678,0.258c-0.18,0.172-0.296,0.43-0.348,0.773l-0.719-0.125
					c0.086-0.471,0.28-0.836,0.584-1.096c0.305-0.259,0.683-0.389,1.135-0.389c0.312,0,0.599,0.067,0.861,0.2
					c0.262,0.134,0.463,0.315,0.602,0.546c0.14,0.231,0.209,0.476,0.209,0.735c0,0.246-0.066,0.47-0.199,0.672
					s-0.33,0.363-0.59,0.482c0.338,0.078,0.604,0.241,0.797,0.487c0.192,0.246,0.289,0.555,0.289,0.925
					c0,0.501-0.183,0.926-0.547,1.273c-0.365,0.349-0.826,0.522-1.383,0.522c-0.503,0-0.92-0.147-1.252-0.443
					S60.288,97,60.241,96.53z"/>
			</g>
			<g i:knockout="Off">
				<path i:knockout="Off" d="M28.918,110.233h-0.703v-4.48c-0.169,0.161-0.392,0.323-0.666,0.484
					c-0.275,0.161-0.521,0.282-0.74,0.363v-0.68c0.393-0.185,0.737-0.409,1.031-0.672c0.294-0.263,0.502-0.519,0.625-0.766h0.453
					V110.233z"/>
				<path i:knockout="Off" d="M30.711,107.407c0-0.677,0.07-1.223,0.211-1.638c0.14-0.415,0.349-0.733,0.626-0.954
					c0.277-0.222,0.626-0.332,1.046-0.332c0.31,0,0.583,0.062,0.819,0.186s0.429,0.302,0.579,0.534
					c0.149,0.233,0.268,0.518,0.354,0.852c0.086,0.334,0.13,0.785,0.13,1.353c0,0.671-0.069,1.215-0.209,1.63
					c-0.139,0.415-0.347,0.734-0.624,0.956c-0.277,0.223-0.627,0.334-1.05,0.334c-0.557,0-0.994-0.195-1.312-0.585
					C30.901,109.259,30.711,108.482,30.711,107.407z M31.43,107.405c0,0.945,0.112,1.572,0.336,1.881
					c0.224,0.309,0.5,0.463,0.828,0.463c0.328,0,0.604-0.155,0.828-0.465s0.336-0.937,0.336-1.879s-0.111-1.569-0.334-1.879
					s-0.502-0.465-0.838-0.465c-0.329,0-0.592,0.137-0.791,0.41C31.552,105.82,31.43,106.464,31.43,107.405z"/>
			</g>
			<g i:knockout="Off">
				<path i:knockout="Off" d="M40.148,108.905l0.672-0.063c0.058,0.317,0.167,0.548,0.328,0.691s0.368,0.215,0.621,0.215
					c0.216,0,0.407-0.049,0.572-0.147s0.299-0.23,0.4-0.395S42.93,108.82,43,108.54s0.105-0.565,0.105-0.857
					c0-0.031-0.001-0.078-0.004-0.141c-0.14,0.224-0.331,0.405-0.573,0.545s-0.505,0.209-0.787,0.209
					c-0.472,0-0.871-0.172-1.197-0.517c-0.326-0.344-0.489-0.797-0.489-1.36c0-0.581,0.171-1.05,0.514-1.403
					c0.343-0.355,0.771-0.532,1.287-0.532c0.372,0,0.713,0.101,1.021,0.301s0.543,0.485,0.703,0.856s0.24,0.908,0.24,1.61
					c0,0.731-0.08,1.313-0.239,1.747s-0.396,0.764-0.711,0.989c-0.315,0.227-0.684,0.34-1.107,0.34
					c-0.449,0-0.816-0.124-1.102-0.373C40.377,109.705,40.206,109.355,40.148,108.905z M43.039,106.379
					c0-0.404-0.106-0.726-0.319-0.962c-0.213-0.238-0.473-0.356-0.78-0.356c-0.318,0-0.593,0.128-0.821,0.384
					c-0.23,0.256-0.345,0.586-0.345,0.993c0,0.365,0.108,0.662,0.327,0.89c0.217,0.229,0.49,0.343,0.819,0.343
					c0.326,0,0.595-0.114,0.804-0.343C42.935,107.1,43.039,106.784,43.039,106.379z"/>
			</g>
			<g i:knockout="Off">
				<path i:knockout="Off" d="M52.464,107.129c-0.291-0.106-0.507-0.259-0.647-0.457s-0.211-0.436-0.211-0.712
					c0-0.417,0.149-0.768,0.447-1.051c0.299-0.285,0.696-0.427,1.191-0.427c0.498,0,0.899,0.146,1.202,0.437
					c0.305,0.29,0.456,0.644,0.456,1.061c0,0.266-0.069,0.497-0.208,0.694c-0.139,0.196-0.35,0.349-0.631,0.455
					c0.35,0.114,0.616,0.299,0.799,0.554s0.274,0.559,0.274,0.912c0,0.489-0.173,0.899-0.519,1.232s-0.801,0.499-1.364,0.499
					s-1.019-0.167-1.364-0.501s-0.519-0.75-0.519-1.25c0-0.371,0.095-0.683,0.284-0.934S52.114,107.22,52.464,107.129z
					 M52.09,108.581c0,0.2,0.046,0.394,0.139,0.58c0.092,0.187,0.233,0.331,0.423,0.435c0.189,0.102,0.393,0.153,0.608,0.153
					c0.341,0,0.618-0.107,0.835-0.323c0.215-0.215,0.323-0.489,0.323-0.821c0-0.337-0.111-0.616-0.333-0.837
					c-0.223-0.221-0.506-0.331-0.849-0.331c-0.335,0-0.61,0.109-0.825,0.327C52.197,107.981,52.09,108.253,52.09,108.581z
					 M52.324,105.936c0,0.271,0.085,0.492,0.257,0.664c0.171,0.172,0.398,0.258,0.681,0.258c0.274,0,0.497-0.085,0.667-0.256
					s0.255-0.38,0.255-0.627c0-0.258-0.088-0.475-0.263-0.65s-0.397-0.264-0.667-0.264c-0.272,0-0.495,0.086-0.669,0.258
					S52.324,105.697,52.324,105.936z"/>
			</g>
			<g i:knockout="Off">
				<path i:knockout="Off" d="M24.871,93.657l-0.703,0.063c-0.063-0.277-0.152-0.479-0.267-0.604
					c-0.191-0.201-0.428-0.302-0.708-0.302c-0.226,0-0.427,0.063-0.602,0.187c-0.218,0.161-0.391,0.396-0.519,0.705
					c-0.129,0.309-0.195,0.75-0.201,1.323c0.17-0.258,0.377-0.449,0.624-0.574c0.245-0.125,0.503-0.188,0.772-0.188
					c0.471,0,0.871,0.173,1.202,0.518c0.331,0.345,0.496,0.791,0.496,1.338c0,0.359-0.078,0.693-0.233,1.002
					s-0.37,0.545-0.641,0.709c-0.272,0.164-0.581,0.246-0.926,0.246c-0.588,0-1.068-0.216-1.439-0.646
					c-0.372-0.432-0.557-1.141-0.557-2.13c0-1.106,0.206-1.91,0.617-2.413c0.359-0.437,0.842-0.656,1.451-0.656
					c0.453,0,0.825,0.126,1.114,0.378S24.813,93.212,24.871,93.657z M21.98,96.127c0,0.242,0.051,0.474,0.155,0.694
					s0.247,0.39,0.43,0.505c0.183,0.116,0.379,0.174,0.589,0.174c0.303,0,0.561-0.12,0.773-0.358
					c0.212-0.24,0.318-0.564,0.318-0.976c0-0.396-0.105-0.707-0.314-0.934c-0.21-0.228-0.478-0.341-0.805-0.341
					c-0.319,0-0.59,0.114-0.813,0.341S21.98,95.758,21.98,96.127z"/>
			</g>
			<g i:knockout="Off">
				<path i:knockout="Off" d="M34.542,96.485l0.719-0.063c0.055,0.358,0.182,0.628,0.379,0.808c0.198,0.181,0.441,0.271,0.729,0.271
					c0.349,0,0.639-0.127,0.871-0.382c0.232-0.254,0.348-0.592,0.348-1.013c0-0.399-0.111-0.715-0.332-0.946
					c-0.222-0.231-0.519-0.347-0.891-0.347c-0.232,0-0.438,0.051-0.617,0.152s-0.322,0.233-0.426,0.395l-0.656-0.094l0.563-2.938
					h2.844V93h-2.285l-0.313,1.549c0.344-0.241,0.704-0.361,1.082-0.361c0.5,0,0.922,0.173,1.266,0.519s0.516,0.791,0.516,1.334
					c0,0.518-0.151,0.966-0.453,1.343c-0.367,0.463-0.869,0.694-1.504,0.694c-0.521,0-0.946-0.146-1.275-0.437
					C34.777,97.351,34.589,96.965,34.542,96.485z"/>
			</g>
			<g i:knockout="Off">
				<path i:knockout="Off" d="M50.159,97.985V96.61h-2.484v-0.641L50.3,92.25h0.563v3.719h0.781v0.641h-0.781v1.375H50.159z
					 M50.159,95.969v-2.566l-1.793,2.566H50.159z"/>
			</g>
			<path i:knockout="Off" fill="none" stroke="#000000" stroke-width="0.7" stroke-linecap="round" d="M54.485,89.848v-12.34h13.34
				v12.34"/>
			<g i:knockout="Off">
				<path i:knockout="Off" d="M61.894,85.476H61.19v-4.48c-0.17,0.162-0.392,0.323-0.666,0.484c-0.275,0.162-0.521,0.283-0.74,0.363
					v-0.68c0.393-0.185,0.736-0.409,1.031-0.672c0.294-0.263,0.502-0.518,0.625-0.766h0.453V85.476z"/>
			</g>
			<path i:knockout="Off" fill="none" stroke="#000000" stroke-width="0.7" stroke-linecap="round" d="M13.654,114.583v-12.367
				H5.272V77.508h13.34V89.91h35.822V77.542h13.395v24.69h-8.876v12.351H13.654z"/>
			<g i:knockout="Off">
				<path i:knockout="Off" d="M13.719,84.804v0.672H9.922c-0.005-0.169,0.022-0.332,0.083-0.488c0.098-0.258,0.253-0.511,0.467-0.76
					c0.214-0.249,0.521-0.537,0.92-0.864c0.619-0.516,1.04-0.923,1.261-1.221c0.221-0.298,0.332-0.58,0.332-0.849
					c0-0.278-0.1-0.513-0.299-0.704c-0.2-0.191-0.46-0.287-0.781-0.287c-0.339,0-0.611,0.104-0.814,0.311
					c-0.204,0.208-0.307,0.494-0.309,0.861l-0.719-0.094c0.049-0.539,0.235-0.95,0.558-1.232c0.322-0.282,0.755-0.424,1.299-0.424
					c0.549,0,0.983,0.152,1.303,0.457c0.32,0.305,0.48,0.683,0.48,1.133c0,0.229-0.046,0.455-0.14,0.676
					c-0.093,0.221-0.248,0.454-0.464,0.699c-0.217,0.245-0.577,0.581-1.081,1.009c-0.423,0.355-0.695,0.596-0.814,0.722
					c-0.12,0.126-0.219,0.253-0.297,0.381H13.719z"/>
			</g>
		</g>
		<path i:knockout="Off" fill="none" stroke="#000000" stroke-width="0.7" stroke-linecap="round" d="M18.612,89.927H5.348"/>
		<path i:knockout="Off" fill="none" stroke="#000000" stroke-width="0.7" stroke-linecap="round" d="M18.612,88.219H5.348"/>
		<path i:knockout="Off" fill="none" stroke="#000000" stroke-width="0.7" stroke-linecap="round" d="M67.811,100.517H5.462"/>
		<path i:knockout="Off" fill="none" stroke="#000000" stroke-width="0.7" stroke-linecap="round" d="M58.925,102.22H13.628"/>
		<path i:knockout="Off" fill="none" stroke="#000000" stroke-width="0.7" stroke-linecap="round" d="M58.853,112.853H13.836"/>
		<path i:knockout="Off" fill="none" stroke="#000000" stroke-width="0.7" stroke-linecap="round" d="M67.729,88.219H54.464"/>
		<path i:knockout="Off" fill="none" stroke="#000000" stroke-width="0.7" stroke-linecap="round" d="M67.831,89.927H54.566"/>
		<path i:knockout="Off" fill="none" stroke="#000000" stroke-width="0.7" stroke-linecap="round" d="M16.53,89.946v12.137"/>
		<path i:knockout="Off" fill="none" stroke="#000000" stroke-width="0.7" stroke-linecap="round" d="M24.994,102.25v12.137"/>
		<path i:knockout="Off" fill="none" stroke="#000000" stroke-width="0.7" stroke-linecap="round" d="M36.307,102.25v12.137"/>
		<path i:knockout="Off" fill="none" stroke="#000000" stroke-width="0.7" stroke-linecap="round" d="M47.713,102.25v12.137"/>
		<path i:knockout="Off" fill="none" stroke="#000000" stroke-width="0.7" stroke-linecap="round" d="M29.788,89.946v12.137"/>
		<path i:knockout="Off" fill="none" stroke="#000000" stroke-width="0.7" stroke-linecap="round" d="M43.142,89.946v12.137"/>
		<path i:knockout="Off" fill="none" stroke="#000000" stroke-width="0.7" stroke-linecap="round" d="M56.518,89.946v12.137"/>
		<path i:knockout="Off" fill="none" stroke="#000000" stroke-width="0.7" stroke-linecap="round" d="M34.209,89.806v-1.894h4.167
			v1.894"/>
		<path i:knockout="Off" fill="none" stroke="#000000" stroke-width="1.2" stroke-linecap="round" d="M70.159,116.917H3.088V75.228
			h67.071V116.917z"/>
		<g>
			<g i:knockout="Off">
				<path i:knockout="Off" d="M18.343,44.11c-0.292-0.107-0.508-0.259-0.648-0.458c-0.141-0.198-0.21-0.435-0.21-0.711
					c0-0.417,0.149-0.767,0.448-1.051c0.298-0.284,0.695-0.426,1.191-0.426c0.498,0,0.899,0.146,1.203,0.436
					s0.456,0.645,0.456,1.062c0,0.266-0.069,0.497-0.208,0.693c-0.139,0.197-0.349,0.349-0.631,0.456
					c0.35,0.115,0.616,0.299,0.799,0.554c0.183,0.255,0.274,0.559,0.274,0.913c0,0.488-0.173,0.899-0.519,1.232
					s-0.8,0.499-1.364,0.499s-1.019-0.167-1.365-0.501s-0.518-0.75-0.518-1.25c0-0.372,0.094-0.683,0.284-0.934
					C17.723,44.373,17.993,44.202,18.343,44.11z M17.968,45.562c0,0.2,0.046,0.393,0.138,0.58c0.093,0.187,0.233,0.332,0.423,0.434
					s0.393,0.154,0.608,0.154c0.34,0,0.619-0.108,0.834-0.323c0.216-0.216,0.324-0.489,0.324-0.822c0-0.337-0.111-0.616-0.333-0.837
					s-0.505-0.331-0.848-0.331c-0.335,0-0.61,0.109-0.825,0.327C18.075,44.962,17.968,45.235,17.968,45.562z M18.203,42.917
					c0,0.271,0.085,0.492,0.256,0.664c0.171,0.172,0.398,0.258,0.681,0.258c0.275,0,0.497-0.085,0.667-0.256
					s0.255-0.379,0.255-0.627c0-0.258-0.087-0.475-0.263-0.65s-0.397-0.264-0.667-0.264c-0.272,0-0.496,0.086-0.669,0.258
					S18.203,42.677,18.203,42.917z"/>
			</g>
			<g i:knockout="Off">
				<path i:knockout="Off" d="M8.782,33.511L9.5,33.417c0.08,0.393,0.215,0.676,0.405,0.849c0.189,0.174,0.425,0.26,0.707,0.26
					c0.333,0,0.611-0.115,0.834-0.344s0.335-0.514,0.335-0.854c0-0.323-0.105-0.59-0.314-0.8s-0.475-0.315-0.798-0.315
					c-0.132,0-0.295,0.026-0.492,0.078l0.078-0.625c0.046,0.005,0.083,0.008,0.112,0.008c0.294,0,0.559-0.078,0.795-0.232
					s0.354-0.394,0.354-0.716c0-0.256-0.086-0.468-0.259-0.636c-0.173-0.167-0.396-0.251-0.669-0.251
					c-0.271,0-0.496,0.086-0.677,0.258s-0.297,0.43-0.348,0.773l-0.719-0.125c0.085-0.471,0.281-0.836,0.584-1.096
					s0.682-0.389,1.134-0.389c0.312,0,0.599,0.067,0.861,0.2c0.263,0.133,0.463,0.316,0.603,0.546
					c0.139,0.23,0.208,0.476,0.208,0.734c0,0.246-0.066,0.471-0.199,0.673s-0.33,0.363-0.59,0.482
					c0.338,0.079,0.604,0.241,0.797,0.487c0.193,0.247,0.289,0.555,0.289,0.926c0,0.5-0.182,0.925-0.547,1.273
					c-0.365,0.348-0.826,0.522-1.383,0.522c-0.502,0-0.92-0.148-1.252-0.444S8.829,33.982,8.782,33.511z"/>
			</g>
			<g i:knockout="Off">
				<path i:knockout="Off" d="M60.134,30.026v-0.672h3.703v0.543c-0.365,0.389-0.728,0.904-1.086,1.549
					c-0.359,0.644-0.636,1.307-0.832,1.987c-0.141,0.48-0.23,1.006-0.27,1.577h-0.719c0.008-0.451,0.096-0.996,0.266-1.635
					c0.168-0.639,0.41-1.255,0.727-1.849c0.315-0.593,0.651-1.094,1.008-1.5H60.134z"/>
			</g>
			<g i:knockout="Off">
				<path i:knockout="Off" d="M28.441,45.886l0.672-0.063c0.057,0.318,0.167,0.548,0.328,0.691c0.161,0.143,0.368,0.215,0.621,0.215
					c0.216,0,0.407-0.049,0.572-0.147c0.165-0.098,0.299-0.23,0.4-0.395s0.188-0.387,0.258-0.667c0.07-0.28,0.105-0.566,0.105-0.858
					c0-0.031-0.001-0.078-0.004-0.141c-0.14,0.224-0.331,0.406-0.573,0.545s-0.505,0.209-0.787,0.209
					c-0.472,0-0.871-0.172-1.197-0.516c-0.326-0.344-0.489-0.798-0.489-1.361c0-0.582,0.171-1.049,0.514-1.404
					c0.342-0.354,0.771-0.532,1.287-0.532c0.372,0,0.713,0.1,1.021,0.3c0.309,0.201,0.543,0.486,0.703,0.857
					c0.16,0.371,0.24,0.907,0.24,1.61c0,0.731-0.08,1.314-0.239,1.747s-0.396,0.763-0.711,0.99
					c-0.315,0.227-0.684,0.339-1.107,0.339c-0.449,0-0.816-0.125-1.101-0.373S28.499,46.336,28.441,45.886z M31.332,43.36
					c0-0.404-0.106-0.725-0.319-0.962c-0.212-0.237-0.473-0.356-0.78-0.356c-0.318,0-0.592,0.128-0.822,0.383
					c-0.229,0.256-0.344,0.587-0.344,0.994c0,0.365,0.109,0.662,0.327,0.89c0.218,0.229,0.491,0.342,0.82,0.342
					c0.326,0,0.594-0.114,0.804-0.342C31.227,44.081,31.332,43.765,31.332,43.36z"/>
			</g>
			<g i:knockout="Off">
				<path i:knockout="Off" d="M40.348,47.214h-0.703v-4.48c-0.169,0.162-0.392,0.323-0.666,0.484s-0.521,0.283-0.74,0.363v-0.68
					c0.394-0.185,0.737-0.409,1.031-0.672s0.503-0.518,0.625-0.766h0.453V47.214z"/>
				<path i:knockout="Off" d="M42.141,44.388c0-0.676,0.07-1.222,0.211-1.637c0.14-0.415,0.349-0.733,0.626-0.955
					c0.277-0.221,0.626-0.332,1.046-0.332c0.31,0,0.583,0.062,0.819,0.186s0.43,0.302,0.579,0.535s0.268,0.517,0.354,0.851
					c0.086,0.334,0.13,0.785,0.13,1.353c0,0.671-0.069,1.215-0.209,1.63c-0.139,0.415-0.347,0.734-0.624,0.957
					s-0.627,0.333-1.05,0.333c-0.557,0-0.994-0.195-1.312-0.585C42.331,46.241,42.141,45.462,42.141,44.388z M42.859,44.386
					c0,0.945,0.112,1.572,0.336,1.881s0.499,0.463,0.828,0.463c0.328,0,0.604-0.155,0.828-0.465s0.336-0.936,0.336-1.879
					s-0.111-1.569-0.334-1.879s-0.502-0.465-0.838-0.465c-0.329,0-0.592,0.137-0.791,0.41
					C42.981,42.801,42.859,43.446,42.859,44.386z"/>
			</g>
			<g i:knockout="Off">
				<path i:knockout="Off" d="M51.664,47.214h-0.703v-4.48c-0.169,0.162-0.392,0.323-0.666,0.484s-0.521,0.283-0.74,0.363v-0.68
					c0.394-0.185,0.737-0.409,1.031-0.672s0.503-0.518,0.625-0.766h0.453V47.214z"/>
				<path i:knockout="Off" d="M56.113,47.214H55.41v-4.48c-0.169,0.162-0.392,0.323-0.666,0.484s-0.521,0.283-0.74,0.363v-0.68
					c0.394-0.185,0.737-0.409,1.031-0.672s0.503-0.518,0.625-0.766h0.453V47.214z"/>
			</g>
			<g i:knockout="Off">
				<path i:knockout="Off" d="M23.31,34.966v-1.375h-2.484V32.95l2.625-3.719h0.563v3.719h0.781v0.641h-0.781v1.375H23.31z
					 M23.31,32.95v-2.567l-1.792,2.567H23.31z"/>
			</g>
			<g i:knockout="Off">
				<path i:knockout="Off" d="M34.403,33.466l0.719-0.063c0.055,0.358,0.182,0.627,0.379,0.808s0.441,0.271,0.729,0.271
					c0.349,0,0.639-0.127,0.871-0.381c0.232-0.255,0.348-0.592,0.348-1.013c0-0.4-0.111-0.716-0.332-0.947
					c-0.222-0.231-0.519-0.347-0.891-0.347c-0.232,0-0.438,0.051-0.617,0.152c-0.18,0.102-0.322,0.233-0.426,0.395l-0.656-0.094
					l0.563-2.938h2.844v0.672h-2.285l-0.313,1.549c0.344-0.241,0.704-0.362,1.082-0.362c0.5,0,0.922,0.173,1.266,0.519
					c0.344,0.346,0.516,0.791,0.516,1.334c0,0.518-0.151,0.965-0.453,1.342c-0.367,0.463-0.869,0.695-1.504,0.695
					c-0.521,0-0.946-0.145-1.275-0.436C34.638,34.333,34.45,33.947,34.403,33.466z"/>
			</g>
			<g i:knockout="Off">
				<path i:knockout="Off" d="M51.442,30.638L50.739,30.7c-0.063-0.277-0.152-0.479-0.268-0.604
					c-0.191-0.201-0.428-0.302-0.708-0.302c-0.226,0-0.426,0.063-0.602,0.187c-0.218,0.161-0.391,0.396-0.52,0.705
					c-0.128,0.309-0.195,0.75-0.2,1.323c0.17-0.258,0.378-0.449,0.623-0.574c0.246-0.125,0.504-0.188,0.773-0.188
					c0.47,0,0.871,0.172,1.201,0.518s0.496,0.791,0.496,1.338c0,0.359-0.078,0.693-0.233,1.002s-0.369,0.545-0.642,0.709
					c-0.271,0.164-0.58,0.246-0.926,0.246c-0.588,0-1.068-0.215-1.439-0.646s-0.557-1.141-0.557-2.129
					c0-1.106,0.205-1.91,0.617-2.413c0.359-0.437,0.843-0.656,1.451-0.656c0.453,0,0.824,0.126,1.113,0.378
					C51.211,29.846,51.385,30.194,51.442,30.638z M48.552,33.108c0,0.242,0.052,0.473,0.155,0.694s0.247,0.389,0.43,0.505
					c0.183,0.115,0.38,0.173,0.589,0.173c0.304,0,0.562-0.12,0.773-0.359s0.318-0.564,0.318-0.975c0-0.395-0.104-0.707-0.314-0.934
					c-0.209-0.228-0.478-0.341-0.805-0.341c-0.319,0-0.59,0.114-0.813,0.341S48.552,32.739,48.552,33.108z"/>
			</g>
			<path i:knockout="Off" fill="none" stroke="#000000" stroke-width="0.7" stroke-linecap="round" d="M54.347,26.829v-12.34h13.34
				v12.34"/>
			<g i:knockout="Off">
				<path i:knockout="Off" d="M62.794,21.785v0.672h-3.797c-0.006-0.169,0.022-0.332,0.083-0.488
					c0.097-0.258,0.253-0.511,0.467-0.76s0.521-0.537,0.92-0.864c0.62-0.516,1.04-0.923,1.261-1.221
					c0.222-0.297,0.332-0.581,0.332-0.848c0-0.278-0.1-0.513-0.299-0.704c-0.2-0.191-0.461-0.287-0.781-0.287
					c-0.34,0-0.61,0.104-0.814,0.311c-0.203,0.207-0.307,0.494-0.309,0.861l-0.719-0.094c0.049-0.539,0.235-0.95,0.558-1.232
					c0.323-0.283,0.756-0.424,1.3-0.424c0.549,0,0.983,0.153,1.303,0.458c0.32,0.305,0.48,0.682,0.48,1.133
					c0,0.229-0.047,0.455-0.14,0.676c-0.094,0.222-0.248,0.455-0.465,0.7c-0.216,0.245-0.576,0.581-1.081,1.009
					c-0.423,0.355-0.694,0.596-0.814,0.722c-0.119,0.126-0.219,0.254-0.297,0.381H62.794z"/>
			</g>
			<path i:knockout="Off" fill="none" stroke="#000000" stroke-width="1.2" stroke-linecap="round" d="M13.515,51.564V39.197H5.133
				V14.489h13.34v12.402h35.822V14.523h13.395v24.69h-8.876v12.351H13.515z"/>
			<g i:knockout="Off">
				<path i:knockout="Off" d="M12.542,22.457h-0.703v-4.48c-0.169,0.162-0.391,0.323-0.666,0.484s-0.521,0.283-0.74,0.363v-0.68
					c0.393-0.185,0.737-0.409,1.031-0.672s0.502-0.518,0.625-0.766h0.453V22.457z"/>
			</g>
		</g>
		<path i:knockout="Off" fill="none" stroke="#000000" stroke-width="0.7" stroke-linecap="round" d="M18.474,26.908H5.209"/>
		<path i:knockout="Off" fill="none" stroke="#000000" stroke-width="0.7" stroke-linecap="round" d="M18.474,25.2H5.209"/>
		<path i:knockout="Off" fill="none" stroke="#000000" stroke-width="0.7" stroke-linecap="round" d="M67.672,37.498H5.324"/>
		<path i:knockout="Off" fill="none" stroke="#000000" stroke-width="0.7" stroke-linecap="round" d="M58.786,39.201H13.489"/>
		<path i:knockout="Off" fill="none" stroke="#000000" stroke-width="0.7" stroke-linecap="round" d="M58.714,49.584H13.697"/>
		<path i:knockout="Off" fill="none" stroke="#000000" stroke-width="0.7" stroke-linecap="round" d="M67.59,25.2H54.325"/>
		<path i:knockout="Off" fill="none" stroke="#000000" stroke-width="0.7" stroke-linecap="round" d="M67.692,26.908H54.428"/>
		<path i:knockout="Off" fill="none" stroke="#000000" stroke-width="0.7" stroke-linecap="round" d="M16.391,26.927v12.137"/>
		<path i:knockout="Off" fill="none" stroke="#000000" stroke-width="0.7" stroke-linecap="round" d="M24.855,39.231v12.137"/>
		<path i:knockout="Off" fill="none" stroke="#000000" stroke-width="0.7" stroke-linecap="round" d="M36.168,39.231v12.137"/>
		<path i:knockout="Off" fill="none" stroke="#000000" stroke-width="0.7" stroke-linecap="round" d="M47.574,39.231v12.137"/>
		<path i:knockout="Off" fill="none" stroke="#000000" stroke-width="0.7" stroke-linecap="round" d="M29.649,26.927v12.137"/>
		<path i:knockout="Off" fill="none" stroke="#000000" stroke-width="0.7" stroke-linecap="round" d="M43.003,26.927v12.137"/>
		<path i:knockout="Off" fill="none" stroke="#000000" stroke-width="0.7" stroke-linecap="round" d="M56.379,26.927v12.137"/>
		<path i:knockout="Off" fill="none" stroke="#000000" stroke-width="1.2" stroke-linecap="round" d="M34.286,26.573v-2.59h4.166
			v2.59"/>
	</g>
</svg>
