<?xml version="1.0" encoding="utf-8"?>
<!-- Generator: Adobe Illustrator 10.0, SVG Export Plug-In . SVG Version: 3.0.0 Build 77)  -->
<!DOCTYPE svg PUBLIC "-//W3C//DTD SVG 1.0//EN" "http://www.w3.org/TR/2001/REC-SVG-20010904/DTD/svg10.dtd"[
	<!ENTITY ns_flows "http://ns.adobe.com/Flows/1.0/">
	<!ENTITY ns_extend "http://ns.adobe.com/Extensibility/1.0/">
	<!ENTITY ns_ai "http://ns.adobe.com/AdobeIllustrator/10.0/">
	<!ENTITY ns_graphs "http://ns.adobe.com/Graphs/1.0/">
	<!ENTITY ns_vars "http://ns.adobe.com/Variables/1.0/">
	<!ENTITY ns_imrep "http://ns.adobe.com/ImageReplacement/1.0/">
	<!ENTITY ns_sfw "http://ns.adobe.com/SaveForWeb/1.0/">
	<!ENTITY ns_custom "http://ns.adobe.com/GenericCustomNamespace/1.0/">
	<!ENTITY ns_adobe_xpath "http://ns.adobe.com/XPath/1.0/">
	<!ENTITY ns_svg "http://www.w3.org/2000/svg">
	<!ENTITY ns_xlink "http://www.w3.org/1999/xlink">
]>
<svg xmlns:x="&ns_extend;" xmlns:i="&ns_ai;" xmlns:graph="&ns_graphs;" d1p1:viewOrigin="263.3203 510.9072" d1p1:rulerOrigin="-1 0.1104" d1p1:pageBounds="1 841.8896 596 -0.1104" xmlns="&ns_svg;" xmlns:xlink="&ns_xlink;" xmlns:a="http://ns.adobe.com/AdobeSVGViewerExtensions/3.0/" width="70.941" height="103.921" viewBox="0 0 70.941 103.921" overflow="visible" enable-background="new 0 0 70.941 103.921" xml:space="preserve" id="svgObj" onload="parent.svgLoad('Top', document)" xmlns:d1p1="http://ns.adobe.com/AdobeIllustrator/10.0/">
	<metadata>
		<variableSets xmlns="&ns_vars;">
			<variableSet varSetName="binding1" locked="none">
				<variables></variables>
				<v:sampleDataSets xmlns="&ns_custom;" xmlns:v="&ns_vars;"></v:sampleDataSets>
			</variableSet>
		</variableSets>
		<sfw xmlns="&ns_sfw;">
			<slices></slices>
			<sliceSourceBounds y="388.027" x="259.5" width="80.371" height="125.725" bottomLeftOrigin="true"></sliceSourceBounds>
		</sfw>
	</metadata>
	<g id="illust" i:layer="yes" i:dimmedPercent="3" i:rgbTrio="#FFFF4F00FFFF" xmlns:i="http://ns.adobe.com/AdobeIllustrator/10.0/">
		<path i:knockout="Off" fill="none" stroke="#000000" stroke-width="1.2" d="M47.906,85.832v-2.938H25.158v2.938" />
		<g>
			<g>
				<path i:knockout="Off" fill="none" stroke="#000000" stroke-width="0.7" d="M13.893,86.405v14.25" />
				<path i:knockout="Off" fill="none" stroke="#000000" stroke-width="0.7" d="M25.224,86.405v14.25" />
				<path i:knockout="Off" fill="none" stroke="#000000" stroke-width="0.7" d="M36.556,86.405v14.25" />
				<path i:knockout="Off" fill="none" stroke="#000000" stroke-width="0.7" d="M47.887,86.405v14.25" />
				<path i:knockout="Off" fill="none" stroke="#000000" stroke-width="0.7" d="M59.219,86.405v14.25" />
			</g>
			<g i:knockout="Off">
				<path i:knockout="Off" d="M9.17,95.824H8.467v-4.48c-0.169,0.162-0.391,0.323-0.666,0.484c-0.275,0.162-0.521,0.283-0.74,0.363&#xD;&#xA;					v-0.68c0.393-0.185,0.737-0.408,1.031-0.672c0.294-0.263,0.502-0.518,0.625-0.766H9.17V95.824z" />
			</g>
			<g i:knockout="Off">
				<path i:knockout="Off" d="M21.39,95.152v0.672h-3.797c-0.005-0.169,0.022-0.332,0.083-0.488c0.097-0.258,0.252-0.511,0.467-0.76&#xD;&#xA;					c0.214-0.248,0.521-0.537,0.92-0.864c0.62-0.517,1.04-0.923,1.261-1.221s0.332-0.58,0.332-0.849c0-0.277-0.1-0.513-0.299-0.703&#xD;&#xA;					c-0.2-0.191-0.46-0.287-0.781-0.287c-0.339,0-0.61,0.104-0.814,0.311c-0.204,0.208-0.307,0.494-0.309,0.861l-0.719-0.094&#xD;&#xA;					c0.049-0.539,0.235-0.949,0.558-1.232c0.323-0.282,0.756-0.424,1.3-0.424c0.549,0,0.983,0.152,1.303,0.457&#xD;&#xA;					s0.48,0.683,0.48,1.133c0,0.229-0.047,0.455-0.14,0.677c-0.094,0.222-0.248,0.454-0.465,0.699&#xD;&#xA;					c-0.216,0.245-0.576,0.581-1.081,1.009c-0.423,0.355-0.695,0.596-0.815,0.723c-0.12,0.126-0.219,0.253-0.297,0.381H21.39z" />
			</g>
			<g i:knockout="Off">
				<path i:knockout="Off" d="M29.315,94.324l0.719-0.094c0.08,0.393,0.215,0.676,0.405,0.85c0.189,0.173,0.425,0.26,0.707,0.26&#xD;&#xA;					c0.333,0,0.611-0.115,0.834-0.344c0.223-0.23,0.335-0.515,0.335-0.854c0-0.323-0.105-0.59-0.314-0.801&#xD;&#xA;					c-0.209-0.209-0.475-0.314-0.798-0.314c-0.132,0-0.295,0.026-0.492,0.078l0.078-0.625c0.046,0.006,0.083,0.008,0.112,0.008&#xD;&#xA;					c0.294,0,0.559-0.077,0.795-0.232c0.236-0.154,0.354-0.394,0.354-0.717c0-0.256-0.086-0.467-0.259-0.635&#xD;&#xA;					s-0.396-0.252-0.669-0.252c-0.271,0-0.496,0.086-0.677,0.258s-0.297,0.43-0.348,0.773l-0.719-0.125&#xD;&#xA;					c0.085-0.471,0.281-0.836,0.584-1.096c0.304-0.259,0.682-0.389,1.134-0.389c0.312,0,0.599,0.066,0.861,0.2&#xD;&#xA;					c0.263,0.134,0.463,0.315,0.603,0.546c0.139,0.23,0.208,0.476,0.208,0.735c0,0.246-0.066,0.47-0.199,0.673&#xD;&#xA;					c-0.133,0.201-0.33,0.362-0.59,0.481c0.338,0.078,0.604,0.241,0.797,0.487s0.289,0.555,0.289,0.925&#xD;&#xA;					c0,0.501-0.182,0.926-0.547,1.273c-0.365,0.349-0.826,0.522-1.383,0.522c-0.502,0-0.92-0.147-1.252-0.443&#xD;&#xA;					S29.362,94.795,29.315,94.324z" />
			</g>
			<g i:knockout="Off">
				<path i:knockout="Off" d="M42.305,95.824v-1.375H39.82v-0.641l2.625-3.719h0.563v3.719h0.781v0.641h-0.781v1.375H42.305z&#xD;&#xA;					 M42.305,93.809v-2.566l-1.793,2.566H42.305z" />
			</g>
			<g i:knockout="Off">
				<path i:knockout="Off" d="M51.754,94.324l0.719-0.063c0.055,0.358,0.182,0.627,0.379,0.808c0.198,0.181,0.441,0.271,0.73,0.271&#xD;&#xA;					c0.348,0,0.639-0.127,0.871-0.382c0.231-0.254,0.348-0.592,0.348-1.013c0-0.399-0.111-0.715-0.332-0.946&#xD;&#xA;					c-0.222-0.231-0.519-0.347-0.891-0.347c-0.232,0-0.438,0.051-0.617,0.152s-0.322,0.232-0.426,0.395l-0.656-0.094l0.563-2.938&#xD;&#xA;					h2.844v0.672H53l-0.313,1.549c0.344-0.24,0.704-0.361,1.082-0.361c0.5,0,0.922,0.173,1.266,0.52&#xD;&#xA;					c0.344,0.346,0.516,0.791,0.516,1.334c0,0.518-0.151,0.965-0.453,1.343c-0.367,0.463-0.869,0.694-1.504,0.694&#xD;&#xA;					c-0.521,0-0.946-0.146-1.275-0.437C51.988,95.19,51.801,94.805,51.754,94.324z" />
			</g>
			<g i:knockout="Off">
				<path i:knockout="Off" d="M66.346,91.496l-0.703,0.063c-0.063-0.277-0.152-0.479-0.268-0.604&#xD;&#xA;					c-0.191-0.201-0.428-0.302-0.708-0.302c-0.226,0-0.426,0.063-0.602,0.188c-0.218,0.16-0.391,0.396-0.52,0.705&#xD;&#xA;					c-0.128,0.309-0.195,0.75-0.2,1.322c0.17-0.258,0.378-0.449,0.623-0.574c0.246-0.125,0.504-0.188,0.773-0.188&#xD;&#xA;					c0.47,0,0.871,0.173,1.201,0.518c0.33,0.346,0.496,0.791,0.496,1.338c0,0.359-0.078,0.693-0.233,1.002s-0.369,0.545-0.642,0.709&#xD;&#xA;					c-0.271,0.164-0.58,0.246-0.926,0.246c-0.588,0-1.068-0.215-1.439-0.646c-0.371-0.43-0.557-1.14-0.557-2.129&#xD;&#xA;					c0-1.105,0.205-1.91,0.617-2.412c0.359-0.438,0.843-0.656,1.451-0.656c0.453,0,0.824,0.126,1.113,0.378&#xD;&#xA;					C66.114,90.704,66.288,91.052,66.346,91.496z M63.455,93.967c0,0.242,0.052,0.474,0.155,0.694&#xD;&#xA;					c0.104,0.222,0.247,0.39,0.43,0.505c0.183,0.116,0.38,0.174,0.589,0.174c0.304,0,0.562-0.119,0.773-0.359&#xD;&#xA;					c0.212-0.238,0.318-0.563,0.318-0.975c0-0.395-0.104-0.707-0.314-0.934c-0.209-0.229-0.478-0.342-0.805-0.342&#xD;&#xA;					c-0.319,0-0.59,0.113-0.813,0.342C63.566,93.299,63.455,93.598,63.455,93.967z" />
			</g>
		</g>
		<path i:knockout="Off" fill="none" stroke="#000000" d="M62.889,100.543c4.092,0,7.563-2.836,7.563-7.013&#xD;&#xA;			c0-4.177-3.305-7.288-7.563-7.288H10.087c-4.175,0-7.563,3.111-7.563,7.288c0,4.177,3.221,7.013,7.563,7.013H62.889z" />
		<path i:knockout="Off" fill="none" stroke="#000000" stroke-width="1.2" d="M16.619,100.655v2.666h-2.727v-2.666" />
		<path i:knockout="Off" fill="none" stroke="#000000" stroke-width="1.2" d="M59.219,100.655v2.666h-2.727v-2.666" />
		<path i:knockout="Off" fill="none" stroke="#000000" stroke-width="0.7" d="M4.456,98.483h63.927" />
		<g>
			<g>
				<path i:knockout="Off" fill="none" stroke="#000000" stroke-width="1.2" stroke-linecap="round" d="M52.383,45.91h3.401v-3.402&#xD;&#xA;					h-3.401" />
				<path i:knockout="Off" fill="none" stroke="#000000" stroke-width="1.2" stroke-linecap="round" d="M21.235,42.508h-3.401v3.402&#xD;&#xA;					h3.401" />
			</g>
			<path i:knockout="Off" fill="none" stroke="#000000" stroke-width="1.2" stroke-linecap="round" d="M41.285,19.593V16.38h-8.504&#xD;&#xA;				v3.213H41.285z" />
			<g>
				<g i:knockout="Off">
					<path i:knockout="Off" d="M45.813,28.74v0.672h-3.797c-0.005-0.169,0.022-0.332,0.083-0.488&#xD;&#xA;						c0.097-0.258,0.252-0.511,0.467-0.76c0.214-0.249,0.521-0.537,0.92-0.864c0.62-0.516,1.04-0.923,1.262-1.221&#xD;&#xA;						c0.221-0.298,0.331-0.58,0.331-0.849c0-0.278-0.1-0.513-0.3-0.704c-0.199-0.191-0.459-0.287-0.78-0.287&#xD;&#xA;						c-0.339,0-0.61,0.104-0.813,0.311c-0.204,0.208-0.307,0.494-0.31,0.861l-0.719-0.094c0.05-0.539,0.235-0.95,0.558-1.232&#xD;&#xA;						c0.322-0.282,0.756-0.424,1.3-0.424c0.549,0,0.983,0.152,1.304,0.457c0.319,0.305,0.479,0.683,0.479,1.133&#xD;&#xA;						c0,0.229-0.047,0.455-0.14,0.676c-0.094,0.221-0.248,0.454-0.465,0.699c-0.216,0.245-0.576,0.581-1.08,1.009&#xD;&#xA;						c-0.424,0.355-0.695,0.596-0.815,0.722s-0.219,0.253-0.297,0.381H45.813z" />
				</g>
				<g i:knockout="Off">
					<path i:knockout="Off" d="M30.032,29.412h-0.703v-4.48c-0.169,0.162-0.392,0.323-0.666,0.484&#xD;&#xA;						c-0.275,0.162-0.521,0.283-0.74,0.363V25.1c0.393-0.185,0.737-0.409,1.031-0.672c0.294-0.263,0.502-0.518,0.625-0.766h0.453&#xD;&#xA;						V29.412z" />
				</g>
			</g>
			<g>
				<g i:knockout="Off">
					<path i:knockout="Off" d="M27.392,43.424l0.719-0.094c0.08,0.393,0.215,0.676,0.405,0.85c0.19,0.173,0.425,0.26,0.707,0.26&#xD;&#xA;						c0.333,0,0.611-0.115,0.835-0.344c0.223-0.229,0.335-0.514,0.335-0.853c0-0.323-0.104-0.59-0.313-0.8&#xD;&#xA;						c-0.209-0.21-0.476-0.315-0.798-0.315c-0.132,0-0.296,0.026-0.492,0.078l0.078-0.625c0.046,0.005,0.083,0.008,0.112,0.008&#xD;&#xA;						c0.294,0,0.56-0.077,0.795-0.232c0.235-0.155,0.354-0.394,0.354-0.717c0-0.255-0.086-0.467-0.259-0.635&#xD;&#xA;						s-0.396-0.252-0.669-0.252c-0.271,0-0.497,0.086-0.677,0.258c-0.181,0.172-0.296,0.43-0.348,0.773l-0.719-0.125&#xD;&#xA;						c0.086-0.471,0.28-0.836,0.584-1.096c0.304-0.259,0.682-0.389,1.134-0.389c0.312,0,0.599,0.067,0.861,0.2&#xD;&#xA;						c0.262,0.134,0.463,0.315,0.602,0.546c0.139,0.231,0.208,0.476,0.208,0.735c0,0.246-0.066,0.47-0.199,0.672&#xD;&#xA;						s-0.33,0.363-0.59,0.482c0.338,0.078,0.604,0.241,0.797,0.487c0.192,0.246,0.289,0.555,0.289,0.925&#xD;&#xA;						c0,0.501-0.183,0.926-0.547,1.273c-0.365,0.349-0.826,0.522-1.383,0.522c-0.503,0-0.92-0.147-1.252-0.443&#xD;&#xA;						S27.438,43.895,27.392,43.424z" />
				</g>
				<g i:knockout="Off">
					<path i:knockout="Off" d="M44.368,44.924v-1.375h-2.484v-0.641l2.625-3.719h0.563v3.719h0.781v0.641h-0.781v1.375H44.368z&#xD;&#xA;						 M44.368,42.908v-2.566l-1.792,2.566H44.368z" />
				</g>
			</g>
			<path i:knockout="Off" fill="none" stroke="#000000" stroke-width="1.2" stroke-linecap="round" d="M46.661,51.354&#xD;&#xA;				c3.119,0,5.67-2.607,5.67-5.793V25.38c0-3.188-2.551-5.795-5.67-5.795H26.917c-3.119,0-5.67,2.607-5.67,5.795v20.181&#xD;&#xA;				c0,3.186,2.551,5.793,5.67,5.793H46.661z" />
			<path i:knockout="Off" fill="none" stroke="#000000" stroke-width="0.7" d="M21.331,35.511h30.713" />
			<path i:knockout="Off" fill="none" stroke="#000000" stroke-width="0.7" d="M21.331,33.376h30.713" />
			<path i:knockout="Off" fill="none" stroke="#000000" stroke-width="0.7" d="M22.456,48.847h28.463" />
			<path i:knockout="Off" fill="none" stroke="#000000" stroke-width="0.7" d="M21.331,35.511h30.713" />
			<path i:knockout="Off" stroke="#000000" stroke-width="0.7" d="M36.878,20.269v30.664" />
		</g>
	</g>
	<g id="translation" i:layer="yes" i:dimmedPercent="3" i:rgbTrio="#4F00FFFF4F00" xmlns:i="http://ns.adobe.com/AdobeIllustrator/10.0/">
		<switch i:knockout="Off" i:objectNS="&ns_flows;" i:objectType="pointText">
			<foreignObject requiredExtensions="&ns_flows;" x="0" y="0" width="1" height="1" overflow="visible">
				<flowDef xmlns="&ns_flows;">
					<region>
						<path d="M0,8" />
					</region>
					<flow xmlns="&ns_flows;" font-family="Arial" font-size="8" a:adobe-baseline-direction="vertical-rotated">
						<p><span>Petrol model</span></p>
					</flow>
				</flowDef>
				<x:targetRef xlink:href="#XMLID_1_" xmlns:xlink="http://www.w3.org/1999/xlink" xmlns:x="http://ns.adobe.com/Extensibility/1.0/" />
			</foreignObject>
			<text id="XMLID_1_" transform="matrix(1 0 0 1 0 8)"><tspan x="0" y="0" font-family="Arial" font-size="8">Petrol model</tspan></text>
		</switch>
		<switch i:knockout="Off" i:objectNS="&ns_flows;" i:objectType="pointText">
			<foreignObject requiredExtensions="&ns_flows;" x="0" y="0" width="1" height="1" overflow="visible">
				<flowDef xmlns="&ns_flows;">
					<region>
						<path d="M0.248,68.356" />
					</region>
					<flow xmlns="&ns_flows;" font-family="Arial" font-size="8" a:adobe-baseline-direction="vertical-rotated">
						<p><span>Diesel model</span></p>
					</flow>
				</flowDef>
				<x:targetRef xlink:href="#XMLID_2_" xmlns:xlink="http://www.w3.org/1999/xlink" xmlns:x="http://ns.adobe.com/Extensibility/1.0/" />
			</foreignObject>
			<text id="XMLID_2_" transform="matrix(1 0 0 1 0.248 68.356)"><tspan x="0" y="0" font-family="Arial" font-size="8">Diesel model</tspan></text>
		</switch>
	</g>
<a id="P0509" onmouseover="parent.svgMouseOverName('Top','P0509',evt)" onmouseout="parent.svgMouseOutName('Top','P0509')" fill="#00FFFF" opacity="0"><rect x="0" y="-0.5" height="10" width="54" /></a><a id="P0200" onmouseover="parent.svgMouseOverName('Top','P0200',evt)" onmouseout="parent.svgMouseOutName('Top','P0200')" fill="#00FFFF" opacity="0"><rect x="0.248" y="59.856" height="10" width="54" /></a></svg>