<?xml version="1.0" encoding="utf-8"?>
<!-- Generator: Adobe Illustrator 10.0, SVG Export Plug-In . SVG Version: 3.0.0 Build 77)  -->
<!DOCTYPE svg PUBLIC "-//W3C//DTD SVG 1.0//EN" "http://www.w3.org/TR/2001/REC-SVG-20010904/DTD/svg10.dtd"[
	<!ENTITY ns_flows "http://ns.adobe.com/Flows/1.0/">
	<!ENTITY ns_extend "http://ns.adobe.com/Extensibility/1.0/">
	<!ENTITY ns_ai "http://ns.adobe.com/AdobeIllustrator/10.0/">
	<!ENTITY ns_graphs "http://ns.adobe.com/Graphs/1.0/">
	<!ENTITY ns_vars "http://ns.adobe.com/Variables/1.0/">
	<!ENTITY ns_imrep "http://ns.adobe.com/ImageReplacement/1.0/">
	<!ENTITY ns_sfw "http://ns.adobe.com/SaveForWeb/1.0/">
	<!ENTITY ns_custom "http://ns.adobe.com/GenericCustomNamespace/1.0/">
	<!ENTITY ns_adobe_xpath "http://ns.adobe.com/XPath/1.0/">
	<!ENTITY ns_svg "http://www.w3.org/2000/svg">
	<!ENTITY ns_xlink "http://www.w3.org/1999/xlink">
]>
<svg xmlns:x="&ns_extend;" xmlns:i="&ns_ai;" xmlns:graph="&ns_graphs;" d1p1:viewOrigin="39.5469 740.3306" d1p1:rulerOrigin="-1 0.1104" d1p1:pageBounds="1 841.8896 596 -0.1104" xmlns="&ns_svg;" xmlns:xlink="&ns_xlink;" xmlns:a="http://ns.adobe.com/AdobeSVGViewerExtensions/3.0/" width="224.54" height="645.753" viewBox="0 0 224.54 645.753" overflow="visible" enable-background="new 0 0 224.54 645.753" xml:space="preserve" id="svgObj" onload="parent.svgLoad('Top', document)" xmlns:d1p1="http://ns.adobe.com/AdobeIllustrator/10.0/">
	<metadata>
		<variableSets xmlns="&ns_vars;">
			<variableSet varSetName="binding1" locked="none">
				<variables></variables>
				<v:sampleDataSets xmlns="&ns_custom;" xmlns:v="&ns_vars;"></v:sampleDataSets>
			</variableSet>
		</variableSets>
		<sfw xmlns="&ns_sfw;">
			<slices></slices>
			<sliceSourceBounds y="39.262" x="39.547" width="517.155" height="701.069" bottomLeftOrigin="true"></sliceSourceBounds>
		</sfw>
	</metadata>
	<g id="Frame" i:layer="yes" i:visible="no" i:editable="no" i:dimmedPercent="3" i:rgbTrio="#4F004F00FFFF" display="none" xmlns:i="http://ns.adobe.com/AdobeIllustrator/10.0/">
		<switch i:knockout="Off" i:objectNS="&ns_flows;" i:objectType="pointText" display="inline">
			<foreignObject requiredExtensions="&ns_flows;" x="0" y="0" width="1" height="1" overflow="visible">
				<flowDef xmlns="&ns_flows;">
					<region>
						<path d="M0,12" />
					</region>
					<flow xmlns="&ns_flows;" font-family="Arial" font-size="12" a:adobe-baseline-direction="vertical-rotated">
						<p><span>B-7 Horn Circuit Diagram</span></p>
					</flow>
				</flowDef>
				<x:targetRef xlink:href="#XMLID_1_" xmlns:xlink="http://www.w3.org/1999/xlink" xmlns:x="http://ns.adobe.com/Extensibility/1.0/" />
			</foreignObject>
			<text id="XMLID_1_" transform="matrix(1 0 0 1 0 12)"><tspan x="0" y="0" font-family="Arial" font-size="12">B-7 Horn Circuit Diagram</tspan></text>
		</switch>
		<path i:knockout="Off" fill="none" stroke="#179233" stroke-width="0.5" d="M1,20.503v680.315h515.905V20.503H1z" />
	</g>
	<g id="illust" i:layer="yes" i:dimmedPercent="3" i:rgbTrio="#4F008000FFFF" xmlns:i="http://ns.adobe.com/AdobeIllustrator/10.0/">
		<g id="LINE" i:layer="yes" i:dimmedPercent="3" i:rgbTrio="#4F00FFFF4F00">
			<path i:knockout="Off" fill="none" stroke="#000000" stroke-width="4.5" d="M182.438,594.125V130.237" />
			<path i:knockout="Off" fill="none" stroke="#0A50A1" stroke-width="4.5" d="M69.052,545.244V130.237" />
		</g>
		<g id="oSPLICE2" i:layer="yes" i:dimmedPercent="3" i:rgbTrio="#FFFF4F00FFFF">
		</g>
		<g id="oSPLICE1" i:layer="yes" i:dimmedPercent="3" i:rgbTrio="#FFFFFFFF4F00">
		</g>
		<g id="oWtoW" i:layer="yes" i:dimmedPercent="3" i:rgbTrio="#FFFF4F004F00">
		</g>
		<g id="oRB" i:layer="yes" i:dimmedPercent="3" i:rgbTrio="#4F004F00FFFF">
			<path i:knockout="Off" fill="none" stroke="#000000" d="M114.407,101.221H57.714V72.875h56.693V101.221z" />
		</g>
		<g id="oEARTH" i:layer="yes" i:dimmedPercent="3" i:rgbTrio="#4F00FFFF4F00">
		</g>
		<g id="h" i:layer="yes" i:dimmedPercent="3" i:rgbTrio="#4F004F00FFFF">
			<path i:knockout="Off" fill="none" stroke="#000000" stroke-width="0.5" d="M69.052,31.852V21.635" />
			<path i:knockout="Off" fill="none" stroke="#000000" stroke-width="0.5" d="M69.052,130.237V107.56" />
			<path i:knockout="Off" fill="none" stroke="#000000" stroke-width="0.5" d="M191.892,594.125v14.824" />
			<path i:knockout="Off" fill="none" stroke="#000000" stroke-width="0.5" d="M191.892,631.581v6.549" />
			<path i:knockout="Off" fill="#FFFFFF" d="M191.892,608.95c-3.846,0-7.238,1.924-9.283,4.855l-6.051-4.209v22.336l6.27-4.918&#xD;&#xA;				c2.063,2.768,5.35,4.566,9.064,4.566c6.25,0,11.316-5.068,11.316-11.316S198.142,608.95,191.892,608.95" />
			<path i:knockout="Off" fill="none" stroke="#000000" d="M191.892,608.95c-3.846,0-7.238,1.924-9.283,4.855l-6.051-4.209v22.336&#xD;&#xA;				l6.27-4.918c2.063,2.768,5.35,4.566,9.064,4.566c6.25,0,11.316-5.068,11.316-11.316S198.142,608.95,191.892,608.95z" />
			<switch i:knockout="Off" i:objectNS="&ns_flows;" i:objectType="pointText">
				<foreignObject requiredExtensions="&ns_flows;" x="0" y="0" width="1" height="1" overflow="visible">
					<flowDef xmlns="&ns_flows;">
						<region>
							<path d="M187.56,624.805" />
						</region>
						<flow xmlns="&ns_flows;" font-family="Arial" font-size="12.001" a:adobe-justification-word-spacing-max="1" a:adobe-justification-letter-spacing-max="1" kerning="0em" a:adobe-baseline-direction="vertical-rotated">
							<p><span>H</span></p>
						</flow>
					</flowDef>
					<x:targetRef xlink:href="#XMLID_2_" xmlns:xlink="http://www.w3.org/1999/xlink" xmlns:x="http://ns.adobe.com/Extensibility/1.0/" />
				</foreignObject>
				<text id="XMLID_2_" transform="matrix(1 0 0 1 187.5596 624.8052)"><tspan x="0" y="0" font-family="Arial" font-size="12.001">H</tspan></text>
			</switch>
			<path i:knockout="Off" fill="none" stroke="#000000" stroke-linecap="round" stroke-linejoin="round" d="M182.103,603.432&#xD;&#xA;				c3.59,0,4.938,1.498,4.938,1.498v-5.238c-1.197,1.346-2.992,1.496-2.992,1.496s-12.57,0-15.713,0&#xD;&#xA;				c-3.145,0-6.137-3.891-6.137-3.891v11.072c0,0,2.246-3.291,5.986-4.787c-1.047,1.197-0.449,3.891,2.695,3.891&#xD;&#xA;				c3.143,0,7.631,0,9.576,0S184.196,604.78,182.103,603.432z" />
			<path i:knockout="Off" fill="none" stroke="#000000" stroke-linecap="round" stroke-linejoin="round" d="M180.308,604.479&#xD;&#xA;				c0,0.58-0.471,1.049-1.049,1.049h-7.781c-0.578,0-1.049-0.469-1.049-1.049c0-0.578,0.471-1.047,1.049-1.047h7.781&#xD;&#xA;				C179.837,603.432,180.308,603.901,180.308,604.479z" />
			<path i:knockout="Off" fill="none" stroke="#000000" stroke-width="2" d="M201.981,642.42l9.016-9.016" />
			<path i:knockout="Off" fill="none" stroke="#000000" d="M204.987,639.768l0.266,4.861" />
			<path i:knockout="Off" fill="none" stroke="#000000" d="M207.55,637.293l0.266,4.861" />
			<path i:knockout="Off" fill="none" stroke="#000000" d="M210.202,634.997l0.266,4.861" />
			<path i:knockout="Off" d="M191.894,639.881c-0.969,0-1.754-0.785-1.754-1.752s0.785-1.754,1.754-1.754s1.752,0.787,1.752,1.754&#xD;&#xA;				S192.862,639.881,191.894,639.881" />
			<path i:knockout="Off" d="M71.887,66.536c0-1.566-1.27-2.834-2.836-2.834c-1.564,0-2.834,1.268-2.834,2.834&#xD;&#xA;				s1.27,2.834,2.834,2.834C70.618,69.37,71.887,68.103,71.887,66.536z" />
			<path i:knockout="Off" d="M71.887,118.898c0-1.566-1.27-2.834-2.836-2.834c-1.564,0-2.834,1.268-2.834,2.834&#xD;&#xA;				s1.27,2.834,2.834,2.834C70.618,121.732,71.887,120.465,71.887,118.898z" />
			<path i:knockout="Off" fill="none" stroke="#000000" stroke-width="0.5" d="M69.052,66.536h34.017v6.338" />
			<path i:knockout="Off" fill="none" stroke="#000000" stroke-width="0.5" d="M103.069,101.221l-0.009,17.677h79.375l0.006,11.338" />
			<g>
				<path i:knockout="Off" fill="none" stroke="#000000" stroke-width="0.5" d="M69.052,39.192c1.252,0,2.27-1.014,2.27-2.266&#xD;&#xA;					s-1.018-2.27-2.27-2.27c-1.254,0-2.27,1.018-2.27,2.27S67.798,39.192,69.052,39.192z" />
				<path i:knockout="Off" fill="none" stroke="#000000" stroke-width="0.5" d="M69.052,57.395c1.252,0,2.27-1.016,2.27-2.268&#xD;&#xA;					s-1.018-2.268-2.27-2.268c-1.254,0-2.27,1.016-2.27,2.268S67.798,57.395,69.052,57.395z" />
				<path i:knockout="Off" fill="none" stroke="#000000" d="M69.24,39.182c5.727,6.811-6.391,6.771-0.883,13.783" />
				<path i:knockout="Off" fill="none" stroke="#000000" stroke-width="0.5" d="M69.052,34.657v-2.805" />
				<path i:knockout="Off" fill="none" stroke="#000000" stroke-width="0.5" d="M69.052,60.198v-2.803" />
			</g>
			<g>
				<path i:knockout="Off" fill="none" stroke="#000000" stroke-width="0.5" stroke-dasharray="4.0002,2.0001" d="M71.138,87.048&#xD;&#xA;					h34.99" />
				<g>
					<path i:knockout="Off" fill="none" stroke="#000000" stroke-width="0.5" d="M103.069,93.581c-0.73,0-1.324,0.594-1.324,1.326&#xD;&#xA;						s0.594,1.326,1.324,1.326c0.732,0,1.328-0.594,1.328-1.326S103.802,93.581,103.069,93.581z" />
					<path i:knockout="Off" fill="none" stroke="#000000" stroke-width="0.5" d="M103.069,77.862v-4.988" />
					<path i:knockout="Off" fill="none" stroke="#000000" stroke-width="2" d="M109.249,95.073l-5.699-14.652" />
					<path i:knockout="Off" fill="none" stroke="#000000" stroke-width="0.5" d="M103.069,80.515c0.73,0,1.326-0.594,1.326-1.326&#xD;&#xA;						s-0.596-1.326-1.326-1.326c-0.732,0-1.326,0.594-1.326,1.326S102.337,80.515,103.069,80.515z" />
					<path i:knockout="Off" fill="none" stroke="#000000" stroke-width="0.5" d="M103.069,101.221v-4.988" />
				</g>
				<path i:knockout="Off" fill="none" stroke="#000000" stroke-width="0.5" d="M69.052,72.875v5.648&#xD;&#xA;					c1.648,0,2.984,1.215,2.984,2.713c0,1.496-1.336,2.711-2.984,2.711c-0.813,0-1.549-0.295-2.086-0.773&#xD;&#xA;					c0.539-0.49,1.262-0.775,2.086-0.775c1.648,0,2.984,1.215,2.984,2.713s-1.336,2.713-2.984,2.713&#xD;&#xA;					c-0.813,0-1.549-0.297-2.086-0.775c0.539-0.49,1.262-0.775,2.086-0.775c1.648,0,2.984,1.215,2.984,2.713&#xD;&#xA;					s-1.336,2.713-2.984,2.713c-0.813,0-1.549-0.297-2.086-0.773c0.539-0.492,1.262-0.777,2.086-0.777&#xD;&#xA;					c1.648,0,2.984,1.215,2.984,2.713s-1.336,2.713-2.984,2.713v5.648" />
			</g>
			<path i:knockout="Off" fill="none" stroke="#000000" stroke-width="0.5" d="M69.052,545.244v8.115c0,2.492,2.221,4.51,4.961,4.51&#xD;&#xA;				c1.35,0,2.574-0.49,3.469-1.285c-0.896-0.816-2.1-1.291-3.469-1.291c-2.74,0-4.961,2.02-4.961,4.51v8.117" />
			<path i:knockout="Off" fill="none" stroke="#000000" stroke-width="0.5" d="M69.052,567.919v24.996" />
			<path i:knockout="Off" fill="none" stroke="#000000" stroke-width="0.5" d="M69.052,72.875v-6.338v-6.338" />
			<path i:knockout="Off" fill="none" stroke="#000000" stroke-width="0.5" d="M69.052,101.221v6.339" />
			<path i:knockout="Off" fill="none" stroke="#000000" stroke-width="0.5" d="M69.052,602.484v-9.568" />
			<path i:knockout="Off" fill="none" stroke="#000000" stroke-width="0.5" d="M69.052,638.148v-5.157" />
			<path i:knockout="Off" fill="none" stroke="#000000" stroke-width="0.5" d="M71.771,630.436c0,1.412-1.145,2.555-2.557,2.555&#xD;&#xA;				s-2.555-1.143-2.555-2.555s1.143-2.557,2.555-2.557S71.771,629.024,71.771,630.436z M71.771,605.041&#xD;&#xA;				c0,1.41-1.145,2.558-2.557,2.558s-2.555-1.147-2.555-2.558c0-1.412,1.143-2.557,2.555-2.557S71.771,603.628,71.771,605.041z&#xD;&#xA;				 M83.611,608.654c0,1.415-1.145,2.558-2.557,2.558s-2.555-1.143-2.555-2.558c0-1.41,1.143-2.555,2.555-2.555&#xD;&#xA;				S83.611,607.244,83.611,608.654z" />
			<path i:knockout="Off" fill="none" stroke="#000000" d="M70.662,628.448l9.037-17.533" />
			<path i:knockout="Off" d="M69.052,640.705c-1.412,0-2.555-1.143-2.555-2.555s1.143-2.557,2.555-2.557s2.557,1.145,2.557,2.557&#xD;&#xA;				S70.464,640.705,69.052,640.705" />
			<path i:knockout="Off" fill="none" stroke="#000000" stroke-width="2" d="M80.675,643.515l9.016-9.016" />
			<path i:knockout="Off" fill="none" stroke="#000000" d="M83.681,640.863l0.266,4.863 M86.244,638.388l0.266,4.861&#xD;&#xA;				 M88.896,636.089l0.266,4.861" />
			<path i:knockout="Off" fill="none" stroke="#000000" stroke-width="0.5" d="M78.796,607.48l-2.471-0.857" />
			<path i:knockout="Off" fill="none" stroke="#000000" stroke-width="0.5" d="M74.087,605.845l-2.316-0.805" />
		</g>
		<g id="g" i:layer="yes" i:dimmedPercent="3" i:rgbTrio="#000000000000">
			<path i:knockout="Off" fill="none" stroke="#000000" stroke-width="0.5" d="M187.396,134.509l-4.959,2.814l-4.961-2.834" />
			<path i:knockout="Off" fill="none" stroke="#000000" stroke-width="0.5" d="M177.477,589.893l4.961-2.836l4.959,2.816" />
			<path i:knockout="Off" fill="none" stroke="#000000" stroke-width="0.5" d="M74.011,134.509l-4.959,2.814l-4.961-2.834" />
			<path i:knockout="Off" fill="none" stroke="#000000" stroke-width="0.5" d="M64.091,588.681l4.961-2.836l4.959,2.816" />
			<path i:knockout="Off" fill="none" stroke="#000000" stroke-width="0.5" d="M64.092,532.927l4.961-2.814l4.96,2.834" />
			<path i:knockout="Off" fill="none" stroke="#000000" stroke-width="0.5" d="M64.092,530.093l4.961-2.814l4.96,2.834" />
		</g>
		<g id="oJB" i:layer="yes" i:dimmedPercent="3" i:rgbTrio="#FFFF4F00FFFF">
			<g i:knockout="Off">
				<path i:knockout="Off" fill="none" stroke="#000000" stroke-width="4" d="M205.113,130.237H23.677V20.503h181.436V130.237z" />
				<path i:knockout="Off" fill="none" stroke="#FFFFFF" stroke-width="2.5" d="M205.113,130.237H23.677V20.503h181.436V130.237z" />
			</g>
		</g>
		<g id="oPART" i:layer="yes" i:dimmedPercent="3" i:rgbTrio="#4F00FFFFFFFF">
			<path i:knockout="Off" fill="none" stroke="#000000" d="M91.728,567.919H46.375v-22.676h45.354V567.919z" />
			<path i:knockout="Off" fill="none" stroke="#000000" d="M158.601,638.129h47.672v-44.004h-47.672V638.129z" />
			<path i:knockout="Off" fill="none" stroke="#000000" d="M51.314,638.129h35.002v-45.214H51.314V638.129z" />
		</g>
		<g id="illust2" i:layer="yes" i:dimmedPercent="3" i:rgbTrio="#4F008000FFFF">
			<path i:knockout="Off" d="M83.955,170.346l-7.718-12.012h15.441L83.955,170.346" />
		</g>
		<path i:knockout="Off" fill="none" stroke="#000000" stroke-width="0.5" d="M56.846,124.719c0,0,2.018,0,0-5.82&#xD;&#xA;			c-2.02-5.818,0-5.818,0-5.818" />
		<path i:knockout="Off" fill="none" stroke="#000000" stroke-width="0.5" d="M69.052,118.898H56.846" />
	</g>
	<g id="text" i:layer="yes" i:dimmedPercent="3" i:rgbTrio="#4F00FFFFFFFF" xmlns:i="http://ns.adobe.com/AdobeIllustrator/10.0/">
		<g id="text2" i:layer="yes" i:dimmedPercent="3" i:rgbTrio="#4F00FFFFFFFF">
			<switch i:knockout="Off" i:objectNS="&ns_flows;" i:objectType="pointText">
				<foreignObject requiredExtensions="&ns_flows;" x="0" y="0" width="1" height="1" overflow="visible">
					<flowDef xmlns="&ns_flows;">
						<region>
							<path d="M83.955,164.022" />
						</region>
						<flow xmlns="&ns_flows;" fill="#FFFFFF" font-family="Arial" font-size="7.0003" a:adobe-justification-word-spacing-max="1" a:adobe-justification-letter-spacing-max="1" text-align="center" text-align-last="center" a:adobe-horizontal-scale="0.8" kerning="0em" a:adobe-baseline-direction="vertical-rotated" font-weight="Bold">
							<p><span>B</span></p>
						</flow>
					</flowDef>
					<x:targetRef xlink:href="#XMLID_3_" xmlns:xlink="http://www.w3.org/1999/xlink" xmlns:x="http://ns.adobe.com/Extensibility/1.0/" />
				</foreignObject>
				<text id="XMLID_3_" transform="matrix(0.8 0 0 1 81.9331 164.022)"><tspan x="0" y="0" fill="#FFFFFF" font-family="Arial" font-size="7.0003" font-weight="Bold">B</tspan></text>
			</switch>
		</g>
		<g id="f" i:layer="yes" i:dimmedPercent="3" i:rgbTrio="#FFFF4F00FFFF">
		</g>
		<g id="e" i:layer="yes" i:dimmedPercent="3" i:rgbTrio="#FFFF4F004F00">
			<switch i:knockout="Off" i:objectNS="&ns_flows;" i:objectType="pointText">
				<foreignObject requiredExtensions="&ns_flows;" x="0" y="0" width="1" height="1" overflow="visible">
					<flowDef xmlns="&ns_flows;">
						<region>
							<path d="M61.964,54.319" />
						</region>
						<flow xmlns="&ns_flows;" font-family="Arial" font-size="8.0003" a:adobe-justification-word-spacing-max="1" a:adobe-justification-letter-spacing-max="1" text-align="right" text-align-last="right" kerning="0em" a:adobe-baseline-direction="vertical-rotated">
							<p><span>15A</span></p>
						</flow>
					</flowDef>
					<x:targetRef xlink:href="#XMLID_4_" xmlns:xlink="http://www.w3.org/1999/xlink" xmlns:x="http://ns.adobe.com/Extensibility/1.0/" />
				</foreignObject>
				<text id="XMLID_4_" transform="matrix(1 0 0 1 47.7295 54.3188)"><tspan x="0" y="0" font-family="Arial" font-size="8.0003">15A</tspan></text>
			</switch>
			<switch i:knockout="Off" i:objectNS="&ns_flows;" i:objectType="pointText">
				<foreignObject requiredExtensions="&ns_flows;" x="0" y="0" width="1" height="1" overflow="visible">
					<flowDef xmlns="&ns_flows;">
						<region>
							<path d="M76.138,48.727" />
						</region>
						<flow xmlns="&ns_flows;" font-family="Arial" font-size="8.0003" a:adobe-justification-word-spacing-max="1" a:adobe-justification-letter-spacing-max="1" line-height="8.5" kerning="0em" a:adobe-baseline-direction="vertical-rotated">
							<p><span>HORN</span></p>
						</flow>
					</flowDef>
					<x:targetRef xlink:href="#XMLID_5_" xmlns:xlink="http://www.w3.org/1999/xlink" xmlns:x="http://ns.adobe.com/Extensibility/1.0/" />
				</foreignObject>
				<text id="XMLID_5_" transform="matrix(1 0 0 1 76.1382 48.7271)"><tspan x="0" y="0" font-family="Arial" font-size="8.0003">HORN</tspan></text>
			</switch>
			<switch i:knockout="Off" i:objectNS="&ns_flows;" i:objectType="pointText">
				<foreignObject requiredExtensions="&ns_flows;" x="0" y="0" width="1" height="1" overflow="visible">
					<flowDef xmlns="&ns_flows;">
						<region>
							<path d="M118.702,89.038" />
						</region>
						<flow xmlns="&ns_flows;" font-family="Arial" font-size="7.0003" a:adobe-justification-word-spacing-max="1" a:adobe-justification-letter-spacing-max="1" kerning="0em" a:adobe-baseline-direction="vertical-rotated">
							<p><span>HORN </span></p>
							<p><span>RELAY</span></p>
						</flow>
					</flowDef>
					<x:targetRef xlink:href="#XMLID_6_" xmlns:xlink="http://www.w3.org/1999/xlink" xmlns:x="http://ns.adobe.com/Extensibility/1.0/" />
				</foreignObject>
				<text id="XMLID_6_" transform="matrix(1 0 0 1 118.7021 89.0381)"><tspan x="0" y="0" font-family="Arial" font-size="7.0003">HORN </tspan><tspan x="0" y="8.5" font-family="Arial" font-size="7.0003">RELAY</tspan></text>
			</switch>
		</g>
		<g id="d" i:layer="yes" i:dimmedPercent="3" i:rgbTrio="#800080008000">
			<switch i:knockout="Off" i:objectNS="&ns_flows;" i:objectType="pointText">
				<foreignObject requiredExtensions="&ns_flows;" x="0" y="0" width="1" height="1" overflow="visible">
					<flowDef xmlns="&ns_flows;">
						<region>
							<path d="M176.768,143.058" />
						</region>
						<flow xmlns="&ns_flows;" font-family="Arial" font-size="8.0003" a:adobe-justification-word-spacing-max="1" a:adobe-justification-letter-spacing-max="1" line-height="8.5" text-align="right" text-align-last="right" kerning="0em" a:adobe-baseline-direction="vertical-rotated">
							<p><span>6</span></p>
						</flow>
					</flowDef>
					<x:targetRef xlink:href="#XMLID_7_" xmlns:xlink="http://www.w3.org/1999/xlink" xmlns:x="http://ns.adobe.com/Extensibility/1.0/" />
				</foreignObject>
				<text id="XMLID_7_" transform="matrix(1 0 0 1 172.3184 143.0581)"><tspan x="0" y="0" font-family="Arial" font-size="8.0003">6</tspan></text>
			</switch>
			<switch i:knockout="Off" i:objectNS="&ns_flows;" i:objectType="pointText">
				<foreignObject requiredExtensions="&ns_flows;" x="0" y="0" width="1" height="1" overflow="visible">
					<flowDef xmlns="&ns_flows;">
						<region>
							<path d="M176.76,587.059" />
						</region>
						<flow xmlns="&ns_flows;" font-family="Arial" font-size="8.0003" a:adobe-justification-word-spacing-max="1" a:adobe-justification-letter-spacing-max="1" line-height="8.5" text-align="right" text-align-last="right" kerning="0em" a:adobe-baseline-direction="vertical-rotated">
							<p><span>1</span></p>
						</flow>
					</flowDef>
					<x:targetRef xlink:href="#XMLID_8_" xmlns:xlink="http://www.w3.org/1999/xlink" xmlns:x="http://ns.adobe.com/Extensibility/1.0/" />
				</foreignObject>
				<text id="XMLID_8_" transform="matrix(1 0 0 1 172.3105 587.0591)"><tspan x="0" y="0" font-family="Arial" font-size="8.0003">1</tspan></text>
			</switch>
			<switch i:knockout="Off" i:objectNS="&ns_flows;" i:objectType="pointText">
				<foreignObject requiredExtensions="&ns_flows;" x="0" y="0" width="1" height="1" overflow="visible">
					<flowDef xmlns="&ns_flows;">
						<region>
							<path d="M63.382,143.058" />
						</region>
						<flow xmlns="&ns_flows;" font-family="Arial" font-size="8.0003" a:adobe-justification-word-spacing-max="1" a:adobe-justification-letter-spacing-max="1" line-height="8.5" text-align="right" text-align-last="right" kerning="0em" a:adobe-baseline-direction="vertical-rotated">
							<p><span>4</span></p>
						</flow>
					</flowDef>
					<x:targetRef xlink:href="#XMLID_9_" xmlns:xlink="http://www.w3.org/1999/xlink" xmlns:x="http://ns.adobe.com/Extensibility/1.0/" />
				</foreignObject>
				<text id="XMLID_9_" transform="matrix(1 0 0 1 58.9331 143.0581)"><tspan x="0" y="0" font-family="Arial" font-size="8.0003">4</tspan></text>
			</switch>
			<switch i:knockout="Off" i:objectNS="&ns_flows;" i:objectType="pointText">
				<foreignObject requiredExtensions="&ns_flows;" x="0" y="0" width="1" height="1" overflow="visible">
					<flowDef xmlns="&ns_flows;">
						<region>
							<path d="M63.375,585.847" />
						</region>
						<flow xmlns="&ns_flows;" font-family="Arial" font-size="8.0003" a:adobe-justification-word-spacing-max="1" a:adobe-justification-letter-spacing-max="1" line-height="8.5" text-align="right" text-align-last="right" kerning="0em" a:adobe-baseline-direction="vertical-rotated">
							<p><span>1</span></p>
						</flow>
					</flowDef>
					<x:targetRef xlink:href="#XMLID_10_" xmlns:xlink="http://www.w3.org/1999/xlink" xmlns:x="http://ns.adobe.com/Extensibility/1.0/" />
				</foreignObject>
				<text id="XMLID_10_" transform="matrix(1 0 0 1 58.9253 585.8472)"><tspan x="0" y="0" font-family="Arial" font-size="8.0003">1</tspan></text>
			</switch>
			<switch i:knockout="Off" i:objectNS="&ns_flows;" i:objectType="pointText">
				<foreignObject requiredExtensions="&ns_flows;" x="0" y="0" width="1" height="1" overflow="visible">
					<flowDef xmlns="&ns_flows;">
						<region>
							<path d="M63.375,530.113" />
						</region>
						<flow xmlns="&ns_flows;" font-family="Arial" font-size="8.0003" a:adobe-justification-word-spacing-max="1" a:adobe-justification-letter-spacing-max="1" line-height="8.5" text-align="right" text-align-last="right" kerning="0em" a:adobe-baseline-direction="vertical-rotated">
							<p><span>1</span></p>
						</flow>
					</flowDef>
					<x:targetRef xlink:href="#XMLID_11_" xmlns:xlink="http://www.w3.org/1999/xlink" xmlns:x="http://ns.adobe.com/Extensibility/1.0/" />
				</foreignObject>
				<text id="XMLID_11_" transform="matrix(1 0 0 1 58.9263 530.1128)"><tspan x="0" y="0" font-family="Arial" font-size="8.0003">1</tspan></text>
			</switch>
		</g>
		<g id="c" i:layer="yes" i:dimmedPercent="3" i:rgbTrio="#000000000000">
		</g>
		<g id="b" i:layer="yes" i:dimmedPercent="3" i:rgbTrio="#4F008000FFFF">
		</g>
		<g id="a" i:layer="yes" i:dimmedPercent="3" i:rgbTrio="#4F00FFFF4F00">
			<switch i:knockout="Off" i:objectNS="&ns_flows;" i:objectType="pointText">
				<foreignObject requiredExtensions="&ns_flows;" x="0" y="0" width="1" height="1" overflow="visible">
					<flowDef xmlns="&ns_flows;">
						<region textMatrix="0 -1 1 0 0 0">
							<path d="M178.184,159.306" />
						</region>
						<flow xmlns="&ns_flows;" font-family="Arial" font-size="7.0003" text-align="center" text-align-last="center" a:adobe-horizontal-scale="0.8" kerning="0em" a:adobe-baseline-direction="vertical-rotated">
							<p><span>BLK</span></p>
						</flow>
					</flowDef>
					<x:targetRef xlink:href="#XMLID_12_" xmlns:xlink="http://www.w3.org/1999/xlink" xmlns:x="http://ns.adobe.com/Extensibility/1.0/" />
				</foreignObject>
				<text id="XMLID_12_" transform="matrix(0 -0.8 1 0 178.1836 164.5986)"><tspan x="0" y="0" font-family="Arial" font-size="7.0003">BLK</tspan></text>
			</switch>
			<switch i:knockout="Off" i:objectNS="&ns_flows;" i:objectType="pointText">
				<foreignObject requiredExtensions="&ns_flows;" x="0" y="0" width="1" height="1" overflow="visible">
					<flowDef xmlns="&ns_flows;">
						<region textMatrix="0 -1 1 0 0 0">
							<path d="M178.184,571.433" />
						</region>
						<flow xmlns="&ns_flows;" font-family="Arial" font-size="7.0003" text-align="center" text-align-last="center" a:adobe-horizontal-scale="0.8" kerning="0em" a:adobe-baseline-direction="vertical-rotated">
							<p><span>BLK</span></p>
						</flow>
					</flowDef>
					<x:targetRef xlink:href="#XMLID_13_" xmlns:xlink="http://www.w3.org/1999/xlink" xmlns:x="http://ns.adobe.com/Extensibility/1.0/" />
				</foreignObject>
				<text id="XMLID_13_" transform="matrix(0 -0.8 1 0 178.1836 576.7261)"><tspan x="0" y="0" font-family="Arial" font-size="7.0003">BLK</tspan></text>
			</switch>
			<switch i:knockout="Off" i:objectNS="&ns_flows;" i:objectType="pointText">
				<foreignObject requiredExtensions="&ns_flows;" x="0" y="0" width="1" height="1" overflow="visible">
					<flowDef xmlns="&ns_flows;">
						<region textMatrix="0 -1 1 0 0 0">
							<path d="M64.798,159.306" />
						</region>
						<flow xmlns="&ns_flows;" font-family="Arial" font-size="7.0003" text-align="center" text-align-last="center" a:adobe-horizontal-scale="0.8" kerning="0em" a:adobe-baseline-direction="vertical-rotated">
							<p><span>BLU</span></p>
						</flow>
					</flowDef>
					<x:targetRef xlink:href="#XMLID_14_" xmlns:xlink="http://www.w3.org/1999/xlink" xmlns:x="http://ns.adobe.com/Extensibility/1.0/" />
				</foreignObject>
				<text id="XMLID_14_" transform="matrix(0 -0.8 1 0 64.7983 164.7534)"><tspan x="0" y="0" font-family="Arial" font-size="7.0003">BLU</tspan></text>
			</switch>
			<switch i:knockout="Off" i:objectNS="&ns_flows;" i:objectType="pointText">
				<foreignObject requiredExtensions="&ns_flows;" x="0" y="0" width="1" height="1" overflow="visible">
					<flowDef xmlns="&ns_flows;">
						<region textMatrix="0 -1 1 0 0 0">
							<path d="M64.798,478.441" />
						</region>
						<flow xmlns="&ns_flows;" font-family="Arial" font-size="7.0003" text-align="center" text-align-last="center" a:adobe-horizontal-scale="0.8" kerning="0em" a:adobe-baseline-direction="vertical-rotated">
							<p><span>BLU</span></p>
						</flow>
					</flowDef>
					<x:targetRef xlink:href="#XMLID_15_" xmlns:xlink="http://www.w3.org/1999/xlink" xmlns:x="http://ns.adobe.com/Extensibility/1.0/" />
				</foreignObject>
				<text id="XMLID_15_" transform="matrix(0 -0.8 1 0 64.7983 483.8882)"><tspan x="0" y="0" font-family="Arial" font-size="7.0003">BLU</tspan></text>
			</switch>
		</g>
	</g>
	<g id="translation" i:layer="yes" i:dimmedPercent="3" i:rgbTrio="#4F00FFFFFFFF" xmlns:i="http://ns.adobe.com/AdobeIllustrator/10.0/">
		<switch i:knockout="Off" i:objectNS="&ns_flows;" i:objectType="pointText">
			<foreignObject requiredExtensions="&ns_flows;" x="0" y="0" width="1" height="1" overflow="visible">
				<flowDef xmlns="&ns_flows;">
					<region>
						<path d="M209.367,616.803" />
					</region>
					<flow xmlns="&ns_flows;" font-family="Arial" font-size="7.0003" a:adobe-justification-word-spacing-max="1" a:adobe-justification-letter-spacing-max="1" kerning="0em" a:adobe-baseline-direction="vertical-rotated">
						<p><span>Horn</span></p>
					</flow>
				</flowDef>
				<x:targetRef xlink:href="#XMLID_16_" xmlns:xlink="http://www.w3.org/1999/xlink" xmlns:x="http://ns.adobe.com/Extensibility/1.0/" />
			</foreignObject>
			<text id="XMLID_16_" transform="matrix(1 0 0 1 209.3672 616.8032)"><tspan x="0" y="0" font-family="Arial" font-size="7.0003">Horn</tspan></text>
		</switch>
		<switch i:knockout="Off" i:objectNS="&ns_flows;" i:objectType="pointText">
			<foreignObject requiredExtensions="&ns_flows;" x="0" y="0" width="1" height="1" overflow="visible">
				<flowDef xmlns="&ns_flows;">
					<region>
						<path d="M95.982,558.945" />
					</region>
					<flow xmlns="&ns_flows;" font-family="Arial" font-size="7.0003" a:adobe-justification-word-spacing-max="1" a:adobe-justification-letter-spacing-max="1" kerning="0em" a:adobe-baseline-direction="vertical-rotated">
						<p><span>Contact coil </span></p>
					</flow>
				</flowDef>
				<x:targetRef xlink:href="#XMLID_17_" xmlns:xlink="http://www.w3.org/1999/xlink" xmlns:x="http://ns.adobe.com/Extensibility/1.0/" />
			</foreignObject>
			<text id="XMLID_17_" transform="matrix(1 0 0 1 95.9819 558.9448)"><tspan x="0" y="0" font-family="Arial" font-size="7.0003">Contact coil </tspan></text>
		</switch>
		<switch i:knockout="Off" i:objectNS="&ns_flows;" i:objectType="pointText">
			<foreignObject requiredExtensions="&ns_flows;" x="0" y="0" width="1" height="1" overflow="visible">
				<flowDef xmlns="&ns_flows;">
					<region>
						<path d="M94.825,615.592" />
					</region>
					<flow xmlns="&ns_flows;" font-family="Arial" font-size="7.0003" a:adobe-justification-word-spacing-max="1" a:adobe-justification-letter-spacing-max="1" kerning="0em" a:adobe-baseline-direction="vertical-rotated">
						<p><span>Steering switch</span></p>
					</flow>
				</flowDef>
				<x:targetRef xlink:href="#XMLID_18_" xmlns:xlink="http://www.w3.org/1999/xlink" xmlns:x="http://ns.adobe.com/Extensibility/1.0/" />
			</foreignObject>
			<text id="XMLID_18_" transform="matrix(1 0 0 1 94.8247 615.5923)"><tspan x="0" y="0" font-family="Arial" font-size="7.0003">Steering switch</tspan></text>
		</switch>
		<switch i:knockout="Off" i:objectNS="&ns_flows;" i:objectType="pointText">
			<foreignObject requiredExtensions="&ns_flows;" x="0" y="0" width="1" height="1" overflow="visible">
				<flowDef xmlns="&ns_flows;">
					<region>
						<path d="M209.365,43.181" />
					</region>
					<flow xmlns="&ns_flows;" font-family="Arial" font-size="7.0003" a:adobe-justification-word-spacing-max="1" a:adobe-justification-letter-spacing-max="1" kerning="0em" a:adobe-baseline-direction="vertical-rotated">
						<p><span>J/B</span></p>
					</flow>
				</flowDef>
				<x:targetRef xlink:href="#XMLID_19_" xmlns:xlink="http://www.w3.org/1999/xlink" xmlns:x="http://ns.adobe.com/Extensibility/1.0/" />
			</foreignObject>
			<text id="XMLID_19_" transform="matrix(1 0 0 1 209.3652 43.1807)"><tspan x="0" y="0" font-family="Arial" font-size="7.0003">J/B</tspan></text>
		</switch>
	</g>
	<g id="fuse" i:layer="yes" i:dimmedPercent="50" i:rgbTrio="#4F004F00FFFF" xmlns:i="http://ns.adobe.com/AdobeIllustrator/10.0/">
		<g>
			<switch i:knockout="Off" i:objectNS="&ns_flows;" i:objectType="pointText">
				<foreignObject requiredExtensions="&ns_flows;" x="0" y="0" width="1" height="1" overflow="visible">
					<flowDef xmlns="&ns_flows;">
						<region>
							<path d="M55.585,42.815" />
						</region>
						<flow xmlns="&ns_flows;" font-family="Arial" font-size="10.0004" a:adobe-justification-word-spacing-max="1" a:adobe-justification-letter-spacing-max="1" text-align="center" text-align-last="center" kerning="0em" a:adobe-baseline-direction="vertical-rotated">
							<p><span>17</span></p>
						</flow>
					</flowDef>
					<x:targetRef xlink:href="#XMLID_20_" xmlns:xlink="http://www.w3.org/1999/xlink" xmlns:x="http://ns.adobe.com/Extensibility/1.0/" />
				</foreignObject>
				<text id="XMLID_20_" transform="matrix(1 0 0 1 50.0239 42.8149)"><tspan x="0" y="0" font-family="Arial" font-size="10.0004">17</tspan></text>
			</switch>
			<path i:knockout="Off" fill="none" stroke="#000000" stroke-width="0.418" d="M55.589,45.817c3.521,0,6.375-2.855,6.375-6.377&#xD;&#xA;				s-2.854-6.379-6.375-6.379c-3.523,0-6.381,2.857-6.381,6.379S52.066,45.817,55.589,45.817z" />
		</g>
	</g>
	<g id="earth" i:layer="yes" i:dimmedPercent="50" i:rgbTrio="#FFFFFFFF4F00" xmlns:i="http://ns.adobe.com/AdobeIllustrator/10.0/">
	</g>
	<g id="connector" i:layer="yes" i:dimmedPercent="50" i:rgbTrio="#FFFF4F00FFFF" xmlns:i="http://ns.adobe.com/AdobeIllustrator/10.0/">
		<switch i:knockout="Off" i:objectNS="&ns_flows;" i:objectType="pointText">
			<foreignObject requiredExtensions="&ns_flows;" x="0" y="0" width="1" height="1" overflow="visible">
				<flowDef xmlns="&ns_flows;">
					<region>
						<path d="M188.1,144.761" />
					</region>
					<flow xmlns="&ns_flows;" font-family="Arial" font-size="10.0004" a:adobe-justification-word-spacing-max="1" a:adobe-justification-letter-spacing-max="1" kerning="0em" a:adobe-baseline-direction="vertical-rotated" font-weight="Bold">
						<p><span>E325</span></p>
					</flow>
				</flowDef>
				<x:targetRef xlink:href="#XMLID_21_" xmlns:xlink="http://www.w3.org/1999/xlink" xmlns:x="http://ns.adobe.com/Extensibility/1.0/" />
			</foreignObject>
			<text id="XMLID_21_" transform="matrix(1 0 0 1 188.0996 144.7612)"><tspan x="0" y="0" font-family="Arial" font-size="10.0004" font-weight="Bold">E325</tspan></text>
		</switch>
		<switch i:knockout="Off" i:objectNS="&ns_flows;" i:objectType="pointText">
			<foreignObject requiredExtensions="&ns_flows;" x="0" y="0" width="1" height="1" overflow="visible">
				<flowDef xmlns="&ns_flows;">
					<region>
						<path d="M188.1,587.059" />
					</region>
					<flow xmlns="&ns_flows;" font-family="Arial" font-size="10.0004" a:adobe-justification-word-spacing-max="1" a:adobe-justification-letter-spacing-max="1" kerning="0em" a:adobe-baseline-direction="vertical-rotated" font-weight="Bold">
						<p><span>E281</span></p>
					</flow>
				</flowDef>
				<x:targetRef xlink:href="#XMLID_22_" xmlns:xlink="http://www.w3.org/1999/xlink" xmlns:x="http://ns.adobe.com/Extensibility/1.0/" />
			</foreignObject>
			<text id="XMLID_22_" transform="matrix(1 0 0 1 188.0996 587.0591)"><tspan x="0" y="0" font-family="Arial" font-size="10.0004" font-weight="Bold">E281</tspan></text>
		</switch>
		<g>
			<switch i:knockout="Off" i:objectNS="&ns_flows;" i:objectType="pointText">
				<foreignObject requiredExtensions="&ns_flows;" x="0" y="0" width="1" height="1" overflow="visible">
					<flowDef xmlns="&ns_flows;">
						<region>
							<path d="M74.714,144.761" />
						</region>
						<flow xmlns="&ns_flows;" font-family="Arial" font-size="10.0004" a:adobe-justification-word-spacing-max="1" a:adobe-justification-letter-spacing-max="1" kerning="0em" a:adobe-baseline-direction="vertical-rotated" font-weight="Bold">
							<p><span>G273</span></p>
						</flow>
					</flowDef>
					<x:targetRef xlink:href="#XMLID_23_" xmlns:xlink="http://www.w3.org/1999/xlink" xmlns:x="http://ns.adobe.com/Extensibility/1.0/" />
				</foreignObject>
				<text id="XMLID_23_" transform="matrix(1 0 0 1 74.7144 144.7612)"><tspan x="0" y="0" font-family="Arial" font-size="10.0004" font-weight="Bold">G273</tspan></text>
			</switch>
		</g>
		<switch i:knockout="Off" i:objectNS="&ns_flows;" i:objectType="pointText">
			<foreignObject requiredExtensions="&ns_flows;" x="0" y="0" width="1" height="1" overflow="visible">
				<flowDef xmlns="&ns_flows;">
					<region>
						<path d="M74.714,585.847" />
					</region>
					<flow xmlns="&ns_flows;" font-family="Arial" font-size="10.0004" a:adobe-justification-word-spacing-max="1" a:adobe-justification-letter-spacing-max="1" kerning="0em" a:adobe-baseline-direction="vertical-rotated" font-weight="Bold">
						<p><span>S61</span></p>
					</flow>
				</flowDef>
				<x:targetRef xlink:href="#XMLID_24_" xmlns:xlink="http://www.w3.org/1999/xlink" xmlns:x="http://ns.adobe.com/Extensibility/1.0/" />
			</foreignObject>
			<text id="XMLID_24_" transform="matrix(1 0 0 1 74.7144 585.8472)"><tspan x="0" y="0" font-family="Arial" font-size="10.0004" font-weight="Bold">S61</tspan></text>
		</switch>
	</g>
	<g id="WtoW" i:layer="yes" i:dimmedPercent="3" i:rgbTrio="#FFFF4F004F00" xmlns:i="http://ns.adobe.com/AdobeIllustrator/10.0/">
		<switch i:knockout="Off" i:objectNS="&ns_flows;" i:objectType="pointText">
			<foreignObject requiredExtensions="&ns_flows;" x="0" y="0" width="1" height="1" overflow="visible">
				<flowDef xmlns="&ns_flows;">
					<region>
						<path d="M74.716,530.113" />
					</region>
					<flow xmlns="&ns_flows;" font-family="Arial" font-size="10.0004" a:adobe-justification-word-spacing-max="1" a:adobe-justification-letter-spacing-max="1" kerning="0em" a:adobe-baseline-direction="vertical-rotated" font-weight="Bold">
						<p><span>G346</span></p>
						<p><span>S171</span></p>
					</flow>
				</flowDef>
				<x:targetRef xlink:href="#XMLID_25_" xmlns:xlink="http://www.w3.org/1999/xlink" xmlns:x="http://ns.adobe.com/Extensibility/1.0/" />
			</foreignObject>
			<text id="XMLID_25_" transform="matrix(1 0 0 1 74.7163 530.1128)"><tspan x="0" y="0" font-family="Arial" font-size="10.0004" font-weight="Bold">G346</tspan><tspan x="0" y="12" font-family="Arial" font-size="10.0004" font-weight="Bold">S171</tspan></text>
		</switch>
	</g>
	<g id="jump" i:layer="yes" i:dimmedPercent="50" i:rgbTrio="#4F00FFFF4F00" xmlns:i="http://ns.adobe.com/AdobeIllustrator/10.0/">
		<switch i:knockout="Off" i:objectNS="&ns_flows;" i:objectType="pointText">
			<foreignObject requiredExtensions="&ns_flows;" x="0" y="0" width="1" height="1" overflow="visible">
				<flowDef xmlns="&ns_flows;">
					<region>
						<path d="M83.955,163.259" />
					</region>
					<flow xmlns="&ns_flows;" fill="none" font-family="Arial" font-size="5" text-align="center" text-align-last="center" a:adobe-baseline-direction="vertical-rotated">
						<p><span>B_06</span></p>
					</flow>
				</flowDef>
				<x:targetRef xlink:href="#XMLID_26_" xmlns:xlink="http://www.w3.org/1999/xlink" xmlns:x="http://ns.adobe.com/Extensibility/1.0/" />
			</foreignObject>
			<text id="XMLID_26_" transform="matrix(1 0 0 1 78.1162 163.2593)"><tspan x="0" y="0" fill="none" font-family="Arial" font-size="5">B_06</tspan></text>
		</switch>
	</g>
<a id="fuse17" onclick="parent.svgClick('Top','fuse17')" onmouseover="parent.svgMouseOver('Top','fuse17',evt)" onmouseout="parent.svgMouseOut('Top','fuse17')" opacity="0"><rect fill="#FF0000" x="48.5239" y="32.3149" height="14" width="14" /></a><a id="E325" onclick="parent.svgClick('Top','E325')" onmouseover="parent.svgMouseOver('Top','E325',evt)" onmouseout="parent.svgMouseOut('Top','E325')" fill="#FF0000" opacity="0"><rect x="188.0996" y="136.2612" height="10" width="24" /></a><a id="E281" onclick="parent.svgClick('Top','E281')" onmouseover="parent.svgMouseOver('Top','E281',evt)" onmouseout="parent.svgMouseOut('Top','E281')" fill="#FF0000" opacity="0"><rect x="188.0996" y="578.5591" height="10" width="24" /></a><a id="G273" onclick="parent.svgClick('Top','G273')" onmouseover="parent.svgMouseOver('Top','G273',evt)" onmouseout="parent.svgMouseOut('Top','G273')" opacity="0"><rect fill="#FF0000" x="74.7144" y="136.2612" height="10" width="24" /></a><a id="S61" onclick="parent.svgClick('Top','S61')" onmouseover="parent.svgMouseOver('Top','S61',evt)" onmouseout="parent.svgMouseOut('Top','S61')" fill="#FF0000" opacity="0"><rect x="74.7144" y="577.3472" height="10" width="18" /></a><a id="G346S171" onclick="parent.svgClick('Top','G346S171')" onmouseover="parent.svgMouseOver('Top','G346S171',evt)" onmouseout="parent.svgMouseOut('Top','G346S171')" fill="#FF0000" opacity="0"><rect x="74.7163" y="521.6128" height="20" width="24" /></a><a id="B_06" onclick="parent.svgClick('Top','B_06')" onmouseover="parent.svgMouseOver('Top','B_06',evt)" onmouseout="parent.svgMouseOut('Top','B_06')" fill="#FF0000" opacity="0"><rect x="75.1162" y="158.2593" height="12" width="18" /></a><a id="P0356" onmouseover="parent.svgMouseOverName('Top','P0356',evt)" onmouseout="parent.svgMouseOutName('Top','P0356')" fill="#00FFFF" opacity="0"><rect x="209.3672" y="608.3032" height="10" width="22" /></a><a id="P0167" onmouseover="parent.svgMouseOverName('Top','P0167',evt)" onmouseout="parent.svgMouseOutName('Top','P0167')" fill="#00FFFF" opacity="0"><rect x="95.9819" y="550.4448" height="10" width="58" /></a><a id="P0639" onmouseover="parent.svgMouseOverName('Top','P0639',evt)" onmouseout="parent.svgMouseOutName('Top','P0639')" fill="#00FFFF" opacity="0"><rect x="94.8247" y="607.0923" height="10" width="66" /></a><a id="P0402" onmouseover="parent.svgMouseOverName('Top','P0402',evt)" onmouseout="parent.svgMouseOutName('Top','P0402')" fill="#00FFFF" opacity="0"><rect x="209.3652" y="34.6807" height="10" width="18" /></a></svg>