<?xml version="1.0" encoding="utf-8"?>
<!-- Generator: Adobe Illustrator 10.0, SVG Export Plug-In . SVG Version: 3.0.0 Build 77)  -->
<!DOCTYPE svg PUBLIC "-//W3C//DTD SVG 1.0//EN" "http://www.w3.org/TR/2001/REC-SVG-20010904/DTD/svg10.dtd"[
	<!ENTITY ns_flows "http://ns.adobe.com/Flows/1.0/">
	<!ENTITY ns_extend "http://ns.adobe.com/Extensibility/1.0/">
	<!ENTITY ns_ai "http://ns.adobe.com/AdobeIllustrator/10.0/">
	<!ENTITY ns_graphs "http://ns.adobe.com/Graphs/1.0/">
	<!ENTITY ns_vars "http://ns.adobe.com/Variables/1.0/">
	<!ENTITY ns_imrep "http://ns.adobe.com/ImageReplacement/1.0/">
	<!ENTITY ns_sfw "http://ns.adobe.com/SaveForWeb/1.0/">
	<!ENTITY ns_custom "http://ns.adobe.com/GenericCustomNamespace/1.0/">
	<!ENTITY ns_adobe_xpath "http://ns.adobe.com/XPath/1.0/">
	<!ENTITY ns_svg "http://www.w3.org/2000/svg">
	<!ENTITY ns_xlink "http://www.w3.org/1999/xlink">
]>
<svg xmlns:x="&ns_extend;" xmlns:i="&ns_ai;" xmlns:graph="&ns_graphs;" d1p1:viewOrigin="279.4775 494.0815" d1p1:rulerOrigin="0 9.765625e-004" d1p1:pageBounds="0 841.8887 595.2754 -9.765625e-004" xmlns="&ns_svg;" xmlns:xlink="&ns_xlink;" xmlns:a="http://ns.adobe.com/AdobeSVGViewerExtensions/3.0/" width="46.242" height="100.701" viewBox="0 0 46.242 100.701" overflow="visible" enable-background="new 0 0 46.242 100.701" xml:space="preserve" id="svgObj" onload="parent.svgLoad('Top', document)" xmlns:d1p1="http://ns.adobe.com/AdobeIllustrator/10.0/">
	<metadata>
		<variableSets xmlns="&ns_vars;">
			<variableSet varSetName="binding1" locked="none">
				<variables></variables>
				<v:sampleDataSets xmlns="&ns_custom;" xmlns:v="&ns_vars;"></v:sampleDataSets>
			</variableSet>
		</variableSets>
		<sfw xmlns="&ns_sfw;">
			<slices></slices>
			<sliceSourceBounds y="-7771.111" x="275.409" width="80.371" height="16383" bottomLeftOrigin="true"></sliceSourceBounds>
		</sfw>
	</metadata>
	<g id="illust" i:layer="yes" i:dimmedPercent="3" i:rgbTrio="#FFFF4F00FFFF" xmlns:i="http://ns.adobe.com/AdobeIllustrator/10.0/">
		<g>
			<path i:knockout="Off" fill="none" stroke="#000000" stroke-width="1.2" stroke-linecap="round" d="M36.139,100.113&#xD;&#xA;				c4.696,0,8.504-3.809,8.504-8.504c0-4.697-3.808-8.504-8.504-8.504s-8.504,3.807-8.504,8.504&#xD;&#xA;				C27.635,96.304,31.442,100.113,36.139,100.113z" />
			<g i:knockout="Off">
				<path i:knockout="Off" d="M36.898,94.193h-0.703v-4.48c-0.169,0.162-0.392,0.323-0.666,0.484&#xD;&#xA;					c-0.274,0.162-0.521,0.283-0.74,0.363v-0.68c0.394-0.185,0.737-0.408,1.031-0.672c0.294-0.263,0.503-0.518,0.625-0.766h0.453&#xD;&#xA;					V94.193z" />
			</g>
			<path i:knockout="Off" fill="none" stroke="#000000" stroke-width="1.2" stroke-linecap="round" d="M38.014,82.988v-3.625h-4.25&#xD;&#xA;				v3.625" />
		</g>
		<g>
			<path i:knockout="Off" fill="none" stroke="#000000" stroke-width="0.7" d="M43.28,32.807c0-3.916-3.172-7.089-7.086-7.089&#xD;&#xA;				s-7.086,3.174-7.086,7.089c0,3.912,3.172,7.086,7.086,7.086S43.28,36.719,43.28,32.807z" />
			<path i:knockout="Off" fill="none" stroke="#000000" stroke-width="1.2" d="M44.132,25.181H28.257v21.615h15.875V25.181z" />
			<path i:knockout="Off" fill="none" stroke="#000000" stroke-width="0.7" d="M28.194,40.432h15.875" />
			<g i:knockout="Off">
				<path i:knockout="Off" d="M36.954,35.989h-0.703v-4.48c-0.17,0.162-0.392,0.323-0.666,0.484&#xD;&#xA;					c-0.275,0.162-0.521,0.283-0.74,0.363v-0.68c0.393-0.185,0.736-0.409,1.031-0.672c0.294-0.263,0.502-0.518,0.625-0.766h0.453&#xD;&#xA;					V35.989z" />
			</g>
			<path i:knockout="Off" fill="none" stroke="#000000" stroke-width="0.7" d="M30.444,40.432v-3.125" />
			<path i:knockout="Off" fill="none" stroke="#000000" stroke-width="0.7" d="M30.444,28.681v-3.125" />
			<path i:knockout="Off" fill="none" stroke="#000000" stroke-width="0.7" d="M41.819,40.432v-3.125" />
			<path i:knockout="Off" fill="none" stroke="#000000" stroke-width="0.7" d="M41.819,28.306v-3.125" />
		</g>
	</g>
	<g id="translation" i:layer="yes" i:dimmedPercent="3" i:rgbTrio="#4F00FFFF4F00" xmlns:i="http://ns.adobe.com/AdobeIllustrator/10.0/">
		<switch i:knockout="Off" i:objectNS="&ns_flows;" i:objectType="pointText">
			<foreignObject requiredExtensions="&ns_flows;" x="0" y="0" width="1" height="1" overflow="visible">
				<flowDef xmlns="&ns_flows;">
					<region>
						<path d="M0,8" />
					</region>
					<flow xmlns="&ns_flows;" font-family="Arial" font-size="8" a:adobe-baseline-direction="vertical-rotated">
						<p><span>Petrol model</span></p>
					</flow>
				</flowDef>
				<x:targetRef xlink:href="#XMLID_1_" xmlns:xlink="http://www.w3.org/1999/xlink" xmlns:x="http://ns.adobe.com/Extensibility/1.0/" />
			</foreignObject>
			<text id="XMLID_1_" transform="matrix(1 0 0 1 0 8)"><tspan x="0" y="0" font-family="Arial" font-size="8">Petrol model</tspan></text>
		</switch>
		<switch i:knockout="Off" i:objectNS="&ns_flows;" i:objectType="pointText">
			<foreignObject requiredExtensions="&ns_flows;" x="0" y="0" width="1" height="1" overflow="visible">
				<flowDef xmlns="&ns_flows;">
					<region>
						<path d="M0,65.363" />
					</region>
					<flow xmlns="&ns_flows;" font-family="Arial" font-size="8" a:adobe-baseline-direction="vertical-rotated">
						<p><span>Diesel model</span></p>
					</flow>
				</flowDef>
				<x:targetRef xlink:href="#XMLID_2_" xmlns:xlink="http://www.w3.org/1999/xlink" xmlns:x="http://ns.adobe.com/Extensibility/1.0/" />
			</foreignObject>
			<text id="XMLID_2_" transform="matrix(1 0 0 1 0 65.3628)"><tspan x="0" y="0" font-family="Arial" font-size="8">Diesel model</tspan></text>
		</switch>
	</g>
<a id="P0477" onmouseover="parent.svgMouseOverName('Top','P0477',evt)" onmouseout="parent.svgMouseOutName('Top','P0477')" fill="#00FFFF" opacity="0"><rect x="0" y="-0.5" height="10" width="54" /></a><a id="P0167" onmouseover="parent.svgMouseOverName('Top','P0167',evt)" onmouseout="parent.svgMouseOutName('Top','P0167')" fill="#00FFFF" opacity="0"><rect x="0" y="56.8628" height="10" width="54" /></a></svg>