<?xml version="1.0" encoding="utf-8"?>
<!-- Generator: Adobe Illustrator 10.0, SVG Export Plug-In . SVG Version: 3.0.0 Build 77)  -->
<!DOCTYPE svg PUBLIC "-//W3C//DTD SVG 1.0//EN"    "http://www.w3.org/TR/2001/REC-SVG-20010904/DTD/svg10.dtd" [
	<!ENTITY ns_flows "http://ns.adobe.com/Flows/1.0/">
	<!ENTITY ns_extend "http://ns.adobe.com/Extensibility/1.0/">
	<!ENTITY ns_ai "http://ns.adobe.com/AdobeIllustrator/10.0/">
	<!ENTITY ns_graphs "http://ns.adobe.com/Graphs/1.0/">
	<!ENTITY ns_vars "http://ns.adobe.com/Variables/1.0/">
	<!ENTITY ns_imrep "http://ns.adobe.com/ImageReplacement/1.0/">
	<!ENTITY ns_sfw "http://ns.adobe.com/SaveForWeb/1.0/">
	<!ENTITY ns_custom "http://ns.adobe.com/GenericCustomNamespace/1.0/">
	<!ENTITY ns_adobe_xpath "http://ns.adobe.com/XPath/1.0/">
	<!ENTITY ns_svg "http://www.w3.org/2000/svg">
	<!ENTITY ns_xlink "http://www.w3.org/1999/xlink">
]>
<svg xmlns:x="&ns_extend;" xmlns:i="&ns_ai;" xmlns:graph="&ns_graphs;" i:viewOrigin="279.0708 439.1616" i:rulerOrigin="-1 0.1104" i:pageBounds="1 841.8896 596 -0.1104" xmlns="&ns_svg;" xmlns:xlink="&ns_xlink;" xmlns:a="http://ns.adobe.com/AdobeSVGViewerExtensions/3.0/" width="37.258" height="34.902" viewBox="0 0 37.258 34.902" overflow="visible" enable-background="new 0 0 37.258 34.902" xml:space="preserve" id="svgObj" onload="parent.svgLoad('Top', document)">
	<metadata>
		<variableSets xmlns="&ns_vars;">
			<variableSet varSetName="binding1" locked="none">
				<variables></variables>
				<v:sampleDataSets xmlns="&ns_custom;" xmlns:v="&ns_vars;"></v:sampleDataSets>
			</variableSet>
		</variableSets>
		<sfw xmlns="&ns_sfw;">
			<slices></slices>
			<sliceSourceBounds y="388.708" x="257.815" width="80.371" height="63.363" bottomLeftOrigin="true"></sliceSourceBounds>
		</sfw>
	</metadata>
	<g id="レイヤー_1" i:layer="yes" i:dimmedPercent="100" i:rgbTrio="#4F008000FFFF">
		<g>
			<path i:knockout="Off" fill="none" stroke="#000000" stroke-width="0.7" d="M25.413,18.805c3.758,0,6.805-3.045,6.805-6.802
				c0-3.758-3.047-6.804-6.805-6.804c-3.756,0-6.803,3.046-6.803,6.804C18.609,15.76,21.657,18.805,25.413,18.805z"/>
			<g i:knockout="Off">
				<path i:knockout="Off" d="M27.211,14.123v0.672h-3.797c-0.005-0.169,0.022-0.332,0.083-0.488
					c0.097-0.258,0.252-0.511,0.467-0.76c0.214-0.249,0.521-0.537,0.92-0.864c0.62-0.516,1.04-0.923,1.262-1.221
					c0.221-0.297,0.331-0.581,0.331-0.848c0-0.278-0.1-0.513-0.3-0.704c-0.199-0.191-0.459-0.287-0.78-0.287
					c-0.339,0-0.61,0.104-0.813,0.311c-0.204,0.207-0.307,0.494-0.31,0.861l-0.719-0.094c0.05-0.539,0.235-0.95,0.558-1.232
					s0.756-0.424,1.3-0.424c0.549,0,0.983,0.153,1.304,0.458c0.319,0.305,0.479,0.682,0.479,1.133c0,0.229-0.047,0.455-0.14,0.676
					c-0.094,0.222-0.248,0.455-0.465,0.7c-0.216,0.245-0.576,0.581-1.08,1.009c-0.424,0.355-0.695,0.596-0.815,0.722
					s-0.219,0.254-0.297,0.381H27.211z"/>
			</g>
			<path i:knockout="Off" fill="none" stroke="#000000" stroke-width="0.7" d="M21.151,16.971h9.18"/>
			<path i:knockout="Off" fill="none" stroke="#000000" stroke-width="0.7" d="M11.787,18.805c3.758,0,6.805-3.045,6.805-6.802
				c0-3.758-3.047-6.804-6.805-6.804c-3.755,0-6.802,3.046-6.802,6.804C4.985,15.76,8.032,18.805,11.787,18.805z"/>
			<g i:knockout="Off">
				<path i:knockout="Off" d="M12.548,14.795h-0.703v-4.48c-0.169,0.162-0.391,0.323-0.666,0.484s-0.521,0.283-0.74,0.363v-0.68
					c0.393-0.185,0.737-0.409,1.031-0.672s0.502-0.518,0.625-0.766h0.453V14.795z"/>
			</g>
			<path i:knockout="Off" fill="none" stroke="#000000" stroke-width="0.7" d="M7.527,16.971h9.179"/>
			<path i:knockout="Off" fill="none" stroke="#000000" stroke-width="0.7" d="M25.413,32.43c3.758,0,6.805-3.045,6.805-6.803
				s-3.047-6.803-6.805-6.803c-3.756,0-6.803,3.045-6.803,6.803S21.657,32.43,25.413,32.43z"/>
			<g i:knockout="Off">
				<path i:knockout="Off" d="M25.766,28.42v-1.375h-2.484v-0.641l2.625-3.719h0.563v3.719h0.781v0.641h-0.781v1.375H25.766z
					 M25.766,26.405v-2.566l-1.792,2.566H25.766z"/>
			</g>
			<path i:knockout="Off" fill="none" stroke="#000000" stroke-width="0.7" d="M21.151,30.596h9.18"/>
			<path i:knockout="Off" fill="none" stroke="#000000" stroke-width="0.7" d="M11.787,32.43c3.758,0,6.805-3.045,6.805-6.803
				s-3.047-6.803-6.805-6.803c-3.755,0-6.802,3.045-6.802,6.803S8.032,32.43,11.787,32.43z"/>
			<g i:knockout="Off">
				<path i:knockout="Off" d="M9.907,26.92l0.719-0.094c0.08,0.393,0.215,0.676,0.405,0.85c0.189,0.173,0.425,0.26,0.707,0.26
					c0.333,0,0.611-0.115,0.834-0.344c0.223-0.23,0.335-0.515,0.335-0.854c0-0.323-0.105-0.59-0.314-0.801
					c-0.209-0.209-0.475-0.314-0.798-0.314c-0.132,0-0.295,0.026-0.492,0.078l0.078-0.625c0.046,0.006,0.083,0.008,0.112,0.008
					c0.294,0,0.559-0.077,0.795-0.232c0.236-0.154,0.354-0.394,0.354-0.717c0-0.256-0.086-0.467-0.259-0.635
					s-0.396-0.252-0.669-0.252c-0.271,0-0.496,0.086-0.677,0.258s-0.297,0.43-0.348,0.773L9.97,24.155
					c0.085-0.471,0.281-0.836,0.584-1.096c0.304-0.259,0.682-0.389,1.134-0.389c0.312,0,0.599,0.066,0.861,0.2
					c0.263,0.134,0.463,0.315,0.603,0.546c0.139,0.23,0.208,0.476,0.208,0.735c0,0.246-0.066,0.47-0.199,0.673
					c-0.133,0.201-0.33,0.362-0.59,0.481c0.338,0.078,0.604,0.241,0.797,0.487s0.289,0.555,0.289,0.925
					c0,0.501-0.182,0.926-0.547,1.273c-0.365,0.349-0.826,0.522-1.383,0.522c-0.502,0-0.92-0.147-1.252-0.443
					S9.954,27.391,9.907,26.92z"/>
			</g>
			<path i:knockout="Off" fill="none" stroke="#000000" stroke-width="0.7" d="M7.527,30.596h9.179"/>
			<path i:knockout="Off" fill="none" stroke="#000000" stroke-width="1.2" d="M33.864,34.302H3.335V3.398h30.528V34.302z"/>
			<path i:knockout="Off" fill="none" stroke="#000000" stroke-width="1.2" d="M25.446,3.35H11.662V0.6h13.784V3.35z"/>
			<path i:knockout="Off" fill="none" stroke="#000000" stroke-width="1.2" d="M36.659,11.896v13.784h-2.75V11.896H36.659z"/>
			<path i:knockout="Off" fill="none" stroke="#000000" stroke-width="1.2" d="M3.35,11.896v13.784H0.6V11.896H3.35z"/>
		</g>
	</g>
</svg>
