<?xml version="1.0" encoding="utf-8"?>
<!-- Generator: Adobe Illustrator 10.0, SVG Export Plug-In . SVG Version: 3.0.0 Build 77)  -->
<!DOCTYPE svg PUBLIC "-//W3C//DTD SVG 1.0//EN"    "http://www.w3.org/TR/2001/REC-SVG-20010904/DTD/svg10.dtd" [
	<!ENTITY ns_flows "http://ns.adobe.com/Flows/1.0/">
	<!ENTITY ns_extend "http://ns.adobe.com/Extensibility/1.0/">
	<!ENTITY ns_ai "http://ns.adobe.com/AdobeIllustrator/10.0/">
	<!ENTITY ns_graphs "http://ns.adobe.com/Graphs/1.0/">
	<!ENTITY ns_vars "http://ns.adobe.com/Variables/1.0/">
	<!ENTITY ns_imrep "http://ns.adobe.com/ImageReplacement/1.0/">
	<!ENTITY ns_sfw "http://ns.adobe.com/SaveForWeb/1.0/">
	<!ENTITY ns_custom "http://ns.adobe.com/GenericCustomNamespace/1.0/">
	<!ENTITY ns_adobe_xpath "http://ns.adobe.com/XPath/1.0/">
	<!ENTITY ns_svg "http://www.w3.org/2000/svg">
	<!ENTITY ns_xlink "http://www.w3.org/1999/xlink">
]>
<svg xmlns:x="&ns_extend;" xmlns:i="&ns_ai;" xmlns:graph="&ns_graphs;" i:viewOrigin="288.5151 465.9448" i:rulerOrigin="0 0" i:pageBounds="0 841.8896 595.2754 0" xmlns="&ns_svg;" xmlns:xlink="&ns_xlink;" xmlns:a="http://ns.adobe.com/AdobeSVGViewerExtensions/3.0/" width="23.515" height="16.752" viewBox="0 0 23.515 16.752" overflow="visible" enable-background="new 0 0 23.515 16.752" xml:space="preserve" id="svgObj" onload="parent.svgLoad('Top', document)">
	<metadata>
		<variableSets xmlns="&ns_vars;">
			<variableSet varSetName="binding1" locked="none">
				<variables></variables>
				<v:sampleDataSets xmlns="&ns_custom;" xmlns:v="&ns_vars;"></v:sampleDataSets>
			</variableSet>
		</variableSets>
		<sfw xmlns="&ns_sfw;">
			<slices></slices>
			<sliceSourceBounds y="426.027" x="262.5" width="80.37" height="63.362" bottomLeftOrigin="true"></sliceSourceBounds>
		</sfw>
	</metadata>
	<g id="レイヤー_1" i:layer="yes" i:dimmedPercent="100" i:rgbTrio="#4F008000FFFF">
		<path i:knockout="Off" fill="none" stroke="#000000" stroke-width="0.7087" stroke-linecap="round" d="M14.17,8.236
			c0-3.092-2.508-5.599-5.6-5.599S2.972,5.144,2.972,8.236s2.507,5.599,5.599,5.599S14.17,11.329,14.17,8.236"/>
		<g i:knockout="Off">
			<path i:knockout="Off" d="M9.247,11.056H8.544v-4.48C8.375,6.737,8.153,6.899,7.878,7.06c-0.275,0.162-0.521,0.283-0.74,0.363
				v-0.68c0.393-0.185,0.737-0.409,1.031-0.672c0.294-0.263,0.502-0.518,0.625-0.766h0.453V11.056z"/>
		</g>
		<path i:knockout="Off" fill="none" stroke="#000000" stroke-width="1.1339" stroke-linecap="round" d="M0.567,16.186h15.197"/>
		<path i:knockout="Off" fill="none" stroke="#000000" stroke-width="1.1339" stroke-linecap="round" d="M0.832,0.567h15.275"/>
		<path i:knockout="Off" fill="none" stroke="#000000" stroke-width="1.1339" stroke-linecap="round" d="M22.948,8.39
			c0-4.306-3.18-7.784-7.12-7.823"/>
		<path i:knockout="Off" fill="none" stroke="#000000" stroke-width="1.1339" stroke-linecap="round" d="M15.7,16.186
			c0.023,0,0.046,0,0.064,0c3.968,0,7.184-3.464,7.184-7.795"/>
		<path i:knockout="Off" fill="none" stroke="#000000" stroke-width="1.1339" stroke-linecap="round" d="M0.567,0.567v15.619"/>
	</g>
</svg>
