<?xml version="1.0" encoding="utf-8"?>
<!-- Generator: Adobe Illustrator 10.0, SVG Export Plug-In . SVG Version: 3.0.0 Build 77)  -->
<!DOCTYPE svg PUBLIC "-//W3C//DTD SVG 1.0//EN"    "http://www.w3.org/TR/2001/REC-SVG-20010904/DTD/svg10.dtd" [
	<!ENTITY ns_flows "http://ns.adobe.com/Flows/1.0/">
	<!ENTITY ns_extend "http://ns.adobe.com/Extensibility/1.0/">
	<!ENTITY ns_ai "http://ns.adobe.com/AdobeIllustrator/10.0/">
	<!ENTITY ns_graphs "http://ns.adobe.com/Graphs/1.0/">
	<!ENTITY ns_vars "http://ns.adobe.com/Variables/1.0/">
	<!ENTITY ns_imrep "http://ns.adobe.com/ImageReplacement/1.0/">
	<!ENTITY ns_sfw "http://ns.adobe.com/SaveForWeb/1.0/">
	<!ENTITY ns_custom "http://ns.adobe.com/GenericCustomNamespace/1.0/">
	<!ENTITY ns_adobe_xpath "http://ns.adobe.com/XPath/1.0/">
	<!ENTITY ns_svg "http://www.w3.org/2000/svg">
	<!ENTITY ns_xlink "http://www.w3.org/1999/xlink">
]>
<svg xmlns:x="&ns_extend;" xmlns:i="&ns_ai;" xmlns:graph="&ns_graphs;" i:viewOrigin="277.8315 431.5557" i:rulerOrigin="-1 0.1104" i:pageBounds="1 841.8896 596 -0.1104" xmlns="&ns_svg;" xmlns:xlink="&ns_xlink;" xmlns:a="http://ns.adobe.com/AdobeSVGViewerExtensions/3.0/" width="43.524" height="23.723" viewBox="0 0 43.524 23.723" overflow="visible" enable-background="new 0 0 43.524 23.723" xml:space="preserve" id="svgObj" onload="parent.svgLoad('Top', document)">
	<metadata>
		<variableSets xmlns="&ns_vars;">
			<variableSet varSetName="binding1" locked="none">
				<variables></variables>
				<v:sampleDataSets xmlns="&ns_custom;" xmlns:v="&ns_vars;"></v:sampleDataSets>
			</variableSet>
		</variableSets>
		<sfw xmlns="&ns_sfw;">
			<slices></slices>
			<sliceSourceBounds y="407.833" x="277.832" width="43.524" height="23.723" bottomLeftOrigin="true"></sliceSourceBounds>
		</sfw>
	</metadata>
	<g id="レイヤー_1" i:layer="yes" i:dimmedPercent="50" i:rgbTrio="#4F008000FFFF">
		<g>
			<path i:knockout="Off" fill="none" stroke="#000000" stroke-width="1.2" d="M26.103,4.852V0.6h-8.504v4.252"/>
			<path i:knockout="Off" fill="none" stroke="#000000" stroke-width="1.2" d="M30.799,23.123c5.01,0,9.071-4.063,9.071-9.072
				c0-5.008-4.062-9.071-9.071-9.071H12.818c-5.01,0-9.07,4.063-9.07,9.071c0,5.01,4.061,9.072,9.07,9.072H30.799z"/>
			<path i:knockout="Off" fill="none" stroke="#000000" stroke-width="0.7" d="M21.851,8.009v12.125"/>
			<g i:knockout="Off">
				<path i:knockout="Off" d="M15.559,17.236h-0.703v-4.48c-0.169,0.162-0.392,0.323-0.666,0.484
					c-0.275,0.162-0.521,0.283-0.74,0.363v-0.68c0.393-0.185,0.737-0.408,1.031-0.672c0.294-0.263,0.502-0.518,0.625-0.766h0.453
					V17.236z"/>
			</g>
			<g i:knockout="Off">
				<path i:knockout="Off" d="M30.598,16.564v0.672h-3.797c-0.006-0.169,0.022-0.332,0.083-0.488
					c0.097-0.258,0.253-0.511,0.467-0.76c0.214-0.248,0.521-0.537,0.92-0.864c0.62-0.517,1.04-0.923,1.261-1.221
					c0.222-0.298,0.332-0.58,0.332-0.849c0-0.277-0.1-0.513-0.299-0.703c-0.2-0.191-0.461-0.287-0.781-0.287
					c-0.34,0-0.61,0.104-0.814,0.311c-0.203,0.208-0.307,0.494-0.309,0.861l-0.719-0.094c0.049-0.539,0.235-0.949,0.558-1.232
					c0.323-0.282,0.756-0.424,1.3-0.424c0.549,0,0.983,0.152,1.303,0.457c0.32,0.305,0.48,0.683,0.48,1.133
					c0,0.229-0.047,0.455-0.14,0.677c-0.094,0.222-0.248,0.454-0.465,0.699c-0.216,0.245-0.576,0.581-1.081,1.009
					c-0.423,0.355-0.694,0.596-0.814,0.723c-0.119,0.126-0.219,0.253-0.297,0.381H30.598z"/>
			</g>
			<path i:knockout="Off" fill="none" stroke="#000000" stroke-width="1.2" d="M3.707,17.184v-3.18H0.6v3.18H3.707z"/>
			<path i:knockout="Off" fill="none" stroke="#000000" stroke-width="0.7" d="M15.929,22.637v-2.225h-2.174v2.225H15.929z"/>
			<path i:knockout="Off" fill="none" stroke="#000000" stroke-width="0.7" d="M15.929,7.636V5.412h-2.174v2.225H15.929z"/>
			<path i:knockout="Off" fill="none" stroke="#000000" stroke-width="0.7" d="M29.679,22.637v-2.225h-2.174v2.225H29.679z"/>
			<path i:knockout="Off" fill="none" stroke="#000000" stroke-width="0.7" d="M29.679,7.761V5.537h-2.174v2.225H29.679z"/>
			<path i:knockout="Off" fill="none" stroke="#000000" stroke-width="1.2" d="M42.924,17.184v-3.18h-3.106v3.18H42.924z"/>
			<path i:knockout="Off" fill="none" stroke="#000000" stroke-width="0.7" d="M36.174,20.197V7.822H6.924v12.375H36.174z"/>
		</g>
	</g>
</svg>
