<?xml version="1.0" encoding="utf-8"?>
<!-- Generator: Adobe Illustrator 10.0, SVG Export Plug-In . SVG Version: 3.0.0 Build 77)  -->
<!DOCTYPE svg PUBLIC "-//W3C//DTD SVG 1.0//EN"    "http://www.w3.org/TR/2001/REC-SVG-20010904/DTD/svg10.dtd" [
	<!ENTITY ns_flows "http://ns.adobe.com/Flows/1.0/">
	<!ENTITY ns_extend "http://ns.adobe.com/Extensibility/1.0/">
	<!ENTITY ns_ai "http://ns.adobe.com/AdobeIllustrator/10.0/">
	<!ENTITY ns_graphs "http://ns.adobe.com/Graphs/1.0/">
	<!ENTITY ns_vars "http://ns.adobe.com/Variables/1.0/">
	<!ENTITY ns_imrep "http://ns.adobe.com/ImageReplacement/1.0/">
	<!ENTITY ns_sfw "http://ns.adobe.com/SaveForWeb/1.0/">
	<!ENTITY ns_custom "http://ns.adobe.com/GenericCustomNamespace/1.0/">
	<!ENTITY ns_adobe_xpath "http://ns.adobe.com/XPath/1.0/">
	<!ENTITY ns_svg "http://www.w3.org/2000/svg">
	<!ENTITY ns_xlink "http://www.w3.org/1999/xlink">
]>
<svg xmlns:x="&ns_extend;" xmlns:i="&ns_ai;" xmlns:graph="&ns_graphs;" i:viewOrigin="277.5645 438.9258" i:rulerOrigin="-1 0.1104" i:pageBounds="1 841.8896 596 -0.1104" xmlns="&ns_svg;" xmlns:xlink="&ns_xlink;" xmlns:a="http://ns.adobe.com/AdobeSVGViewerExtensions/3.0/" width="46.726" height="32.951" viewBox="0 0 46.726 32.951" overflow="visible" enable-background="new 0 0 46.726 32.951" xml:space="preserve" id="svgObj" onload="parent.svgLoad('Top', document)">
	<metadata>
		<variableSets xmlns="&ns_vars;">
			<variableSet varSetName="binding1" locked="none">
				<variables></variables>
				<v:sampleDataSets xmlns="&ns_custom;" xmlns:v="&ns_vars;"></v:sampleDataSets>
			</variableSet>
		</variableSets>
		<sfw xmlns="&ns_sfw;">
			<slices></slices>
			<sliceSourceBounds y="388.708" x="257.815" width="80.371" height="63.363" bottomLeftOrigin="true"></sliceSourceBounds>
		</sfw>
	</metadata>
	<g id="レイヤー_1" i:layer="yes" i:dimmedPercent="100" i:rgbTrio="#4F008000FFFF">
		<g>
			<path i:knockout="Off" fill="none" stroke="#000000" stroke-width="1.2" d="M8.768,4.441V0.6H31.84v3.841"/>
			<g i:knockout="Off">
				<path i:knockout="Off" d="M30.086,13.792l0.719-0.094c0.08,0.393,0.215,0.676,0.404,0.85c0.19,0.173,0.426,0.26,0.707,0.26
					c0.333,0,0.611-0.115,0.835-0.344s0.335-0.514,0.335-0.853c0-0.323-0.104-0.59-0.313-0.8c-0.21-0.21-0.476-0.315-0.798-0.315
					c-0.132,0-0.296,0.026-0.492,0.078l0.078-0.625c0.046,0.005,0.083,0.008,0.111,0.008c0.295,0,0.56-0.077,0.795-0.232
					c0.235-0.155,0.354-0.394,0.354-0.717c0-0.255-0.086-0.467-0.26-0.635c-0.172-0.168-0.396-0.252-0.668-0.252
					c-0.271,0-0.497,0.086-0.678,0.258c-0.18,0.172-0.296,0.43-0.348,0.773l-0.719-0.125c0.086-0.471,0.28-0.836,0.584-1.096
					c0.305-0.259,0.683-0.389,1.135-0.389c0.312,0,0.599,0.067,0.861,0.2c0.262,0.134,0.463,0.315,0.602,0.546
					c0.14,0.231,0.209,0.476,0.209,0.735c0,0.246-0.066,0.47-0.199,0.672s-0.33,0.363-0.59,0.482
					c0.338,0.078,0.604,0.241,0.797,0.487c0.192,0.246,0.289,0.555,0.289,0.925c0,0.501-0.183,0.926-0.547,1.273
					c-0.365,0.349-0.826,0.522-1.383,0.522c-0.503,0-0.92-0.147-1.252-0.443S30.133,14.263,30.086,13.792z"/>
			</g>
			<g i:knockout="Off">
				<path i:knockout="Off" d="M22.338,14.62v0.672h-3.796c-0.005-0.169,0.022-0.332,0.083-0.488c0.098-0.258,0.253-0.511,0.467-0.76
					c0.214-0.249,0.521-0.537,0.92-0.864c0.619-0.516,1.04-0.923,1.261-1.221c0.221-0.298,0.331-0.58,0.331-0.849
					c0-0.278-0.1-0.513-0.299-0.704c-0.2-0.191-0.46-0.287-0.781-0.287c-0.339,0-0.611,0.104-0.814,0.311
					c-0.204,0.208-0.307,0.494-0.309,0.861l-0.719-0.094c0.049-0.539,0.235-0.95,0.558-1.232c0.322-0.282,0.755-0.424,1.299-0.424
					c0.549,0,0.983,0.152,1.303,0.457c0.319,0.305,0.479,0.683,0.479,1.133c0,0.229-0.046,0.455-0.14,0.676
					c-0.093,0.221-0.248,0.454-0.464,0.699c-0.217,0.245-0.577,0.581-1.081,1.009c-0.423,0.355-0.695,0.596-0.814,0.722
					c-0.12,0.126-0.219,0.253-0.297,0.381H22.338z"/>
			</g>
			<g i:knockout="Off">
				<path i:knockout="Off" d="M9.77,15.292H9.067v-4.48c-0.169,0.162-0.391,0.323-0.666,0.484c-0.275,0.162-0.521,0.283-0.74,0.363
					v-0.68c0.393-0.185,0.737-0.409,1.031-0.672c0.294-0.263,0.502-0.518,0.625-0.766H9.77V15.292z"/>
			</g>
			<g i:knockout="Off">
				<path i:knockout="Off" d="M33.742,22.535l-0.703,0.063c-0.063-0.277-0.152-0.479-0.268-0.604
					c-0.191-0.201-0.428-0.302-0.708-0.302c-0.226,0-0.426,0.063-0.602,0.187c-0.218,0.162-0.391,0.396-0.52,0.705
					c-0.128,0.31-0.195,0.75-0.2,1.323c0.17-0.258,0.378-0.449,0.623-0.574c0.246-0.125,0.504-0.188,0.773-0.188
					c0.47,0,0.871,0.173,1.201,0.518s0.496,0.791,0.496,1.338c0,0.359-0.078,0.693-0.233,1.002s-0.369,0.545-0.642,0.709
					c-0.271,0.164-0.58,0.246-0.926,0.246c-0.588,0-1.068-0.216-1.439-0.646c-0.371-0.432-0.557-1.141-0.557-2.13
					c0-1.106,0.205-1.91,0.617-2.413c0.359-0.437,0.843-0.655,1.451-0.655c0.453,0,0.824,0.126,1.113,0.378
					C33.511,21.743,33.685,22.091,33.742,22.535z M30.852,25.006c0,0.242,0.052,0.474,0.155,0.694s0.247,0.39,0.43,0.505
					c0.183,0.116,0.38,0.174,0.589,0.174c0.304,0,0.562-0.12,0.773-0.358c0.212-0.24,0.318-0.564,0.318-0.976
					c0-0.396-0.104-0.706-0.314-0.935c-0.209-0.227-0.478-0.341-0.805-0.341c-0.319,0-0.59,0.114-0.813,0.341
					C30.963,24.339,30.852,24.637,30.852,25.006z"/>
			</g>
			<g i:knockout="Off">
				<path i:knockout="Off" d="M18.643,25.363l0.719-0.063c0.055,0.358,0.181,0.628,0.379,0.808c0.198,0.181,0.441,0.271,0.729,0.271
					c0.349,0,0.639-0.127,0.871-0.382c0.232-0.254,0.348-0.592,0.348-1.013c0-0.399-0.11-0.715-0.332-0.946
					c-0.221-0.23-0.518-0.347-0.891-0.347c-0.232,0-0.438,0.051-0.617,0.152s-0.322,0.233-0.426,0.395l-0.656-0.094l0.563-2.938
					h2.843v0.672H19.89l-0.313,1.549c0.344-0.241,0.705-0.361,1.082-0.361c0.5,0,0.921,0.173,1.265,0.519
					c0.344,0.347,0.516,0.791,0.516,1.335c0,0.518-0.15,0.966-0.453,1.343c-0.367,0.463-0.868,0.694-1.503,0.694
					c-0.521,0-0.946-0.146-1.275-0.437S18.69,25.844,18.643,25.363z"/>
			</g>
			<g i:knockout="Off">
				<path i:knockout="Off" d="M9.364,26.863v-1.375H6.879v-0.641l2.625-3.719h0.563v3.719h0.781v0.641h-0.781v1.375H9.364z
					 M9.364,24.848v-2.566l-1.792,2.566H9.364z"/>
			</g>
			<path i:knockout="Off" fill="none" stroke="#000000" stroke-width="0.7" d="M9.027,18.461c-3.131,0-5.669-2.538-5.669-5.669
				c0-3.131,2.538-5.669,5.669-5.669c3.131,0,5.669,2.539,5.669,5.669C14.697,15.923,12.158,18.461,9.027,18.461z"/>
			<path i:knockout="Off" fill="none" stroke="#000000" stroke-width="1.2" d="M32.17,32.352c2.111,0,13.959,1.087,13.959-13.78
				c0-14.096-11.848-13.915-13.959-13.915H8.527c-2.111,0-4.1,0.826-5.601,2.327c-1.5,1.5-2.327,3.489-2.327,5.6v11.841
				c0,4.371,3.556,7.928,7.927,7.928H32.17z"/>
		</g>
		<path i:knockout="Off" fill="none" stroke="#000000" stroke-width="0.7" d="M5.403,17.133h7.281"/>
		<path i:knockout="Off" fill="none" stroke="#000000" stroke-width="0.7" d="M20.392,18.461c-3.131,0-5.669-2.538-5.669-5.669
			c0-3.131,2.538-5.669,5.669-5.669s5.67,2.539,5.67,5.669C26.063,15.923,23.523,18.461,20.392,18.461z"/>
		<path i:knockout="Off" fill="none" stroke="#000000" stroke-width="0.7" d="M16.768,17.133h7.281"/>
		<path i:knockout="Off" fill="none" stroke="#000000" stroke-width="0.7" d="M31.756,18.461c-3.131,0-5.668-2.538-5.668-5.669
			c0-3.131,2.537-5.669,5.668-5.669s5.67,2.539,5.67,5.669C37.426,15.923,34.887,18.461,31.756,18.461z"/>
		<path i:knockout="Off" fill="none" stroke="#000000" stroke-width="0.7" d="M28.131,17.133h7.281"/>
		<path i:knockout="Off" fill="none" stroke="#000000" stroke-width="0.7" d="M9.027,29.826c-3.131,0-5.669-2.539-5.669-5.67
			s2.538-5.67,5.669-5.67c3.131,0,5.669,2.539,5.669,5.67S12.158,29.826,9.027,29.826z"/>
		<path i:knockout="Off" fill="none" stroke="#000000" stroke-width="0.7" d="M5.403,28.497h7.281"/>
		<path i:knockout="Off" fill="none" stroke="#000000" stroke-width="0.7" d="M20.392,29.826c-3.131,0-5.669-2.539-5.669-5.67
			s2.538-5.67,5.669-5.67s5.67,2.539,5.67,5.67S23.523,29.826,20.392,29.826z"/>
		<path i:knockout="Off" fill="none" stroke="#000000" stroke-width="0.7" d="M16.768,28.497h7.281"/>
		<path i:knockout="Off" fill="none" stroke="#000000" stroke-width="0.7" d="M31.756,29.826c-3.131,0-5.668-2.539-5.668-5.67
			s2.537-5.67,5.668-5.67s5.67,2.539,5.67,5.67S34.887,29.826,31.756,29.826z"/>
		<path i:knockout="Off" fill="none" stroke="#000000" stroke-width="0.7" d="M28.131,28.497h7.281"/>
	</g>
</svg>
