<?xml version="1.0" encoding="utf-8"?>
<!-- Generator: Adobe Illustrator 10.0, SVG Export Plug-In . SVG Version: 3.0.0 Build 77)  -->
<!DOCTYPE svg PUBLIC "-//W3C//DTD SVG 1.0//EN"    "http://www.w3.org/TR/2001/REC-SVG-20010904/DTD/svg10.dtd" [
	<!ENTITY ns_flows "http://ns.adobe.com/Flows/1.0/">
	<!ENTITY ns_extend "http://ns.adobe.com/Extensibility/1.0/">
	<!ENTITY ns_ai "http://ns.adobe.com/AdobeIllustrator/10.0/">
	<!ENTITY ns_graphs "http://ns.adobe.com/Graphs/1.0/">
	<!ENTITY ns_vars "http://ns.adobe.com/Variables/1.0/">
	<!ENTITY ns_imrep "http://ns.adobe.com/ImageReplacement/1.0/">
	<!ENTITY ns_sfw "http://ns.adobe.com/SaveForWeb/1.0/">
	<!ENTITY ns_custom "http://ns.adobe.com/GenericCustomNamespace/1.0/">
	<!ENTITY ns_adobe_xpath "http://ns.adobe.com/XPath/1.0/">
	<!ENTITY ns_svg "http://www.w3.org/2000/svg">
	<!ENTITY ns_xlink "http://www.w3.org/1999/xlink">
]>
<svg xmlns:x="&ns_extend;" xmlns:i="&ns_ai;" xmlns:graph="&ns_graphs;" i:viewOrigin="259.4321 429.5186" i:rulerOrigin="-1 0.1104" i:pageBounds="1 841.8896 596 -0.1104" xmlns="&ns_svg;" xmlns:xlink="&ns_xlink;" xmlns:a="http://ns.adobe.com/AdobeSVGViewerExtensions/3.0/" width="80.951" height="20.096" viewBox="0 0 80.951 20.096" overflow="visible" enable-background="new 0 0 80.951 20.096" xml:space="preserve" id="svgObj" onload="parent.svgLoad('Top', document)">
	<metadata>
		<variableSets xmlns="&ns_vars;">
			<variableSet varSetName="binding1" locked="none">
				<variables></variables>
				<v:sampleDataSets xmlns="&ns_custom;" xmlns:v="&ns_vars;"></v:sampleDataSets>
			</variableSet>
		</variableSets>
		<sfw xmlns="&ns_sfw;">
			<slices></slices>
			<sliceSourceBounds y="409.423" x="259.432" width="80.951" height="20.096" bottomLeftOrigin="true"></sliceSourceBounds>
		</sfw>
	</metadata>
	<g id="レイヤー_1" i:layer="yes" i:dimmedPercent="50" i:rgbTrio="#4F008000FFFF">
		<g>
			<path i:knockout="Off" fill="none" stroke="#000000" d="M47.499,3.335V0.5H32.599v2.835"/>
			<path i:knockout="Off" fill="none" stroke="#000000" d="M3.335,9.102H0.5v4.509h3.385"/>
			<path i:knockout="Off" fill="none" stroke="#000000" d="M77.617,9.102h2.834v4.509h-3.385"/>
			<g i:knockout="Off">
				<path i:knockout="Off" d="M12.255,13.525h-0.703v-4.48c-0.169,0.162-0.391,0.323-0.666,0.484
					c-0.275,0.162-0.521,0.283-0.74,0.363v-0.68c0.393-0.185,0.737-0.409,1.031-0.672c0.294-0.263,0.502-0.518,0.625-0.766h0.453
					V13.525z"/>
			</g>
			<path i:knockout="Off" fill="none" stroke="#000000" stroke-width="0.5" d="M7.809,15.246h7.625"/>
			<g i:knockout="Off">
				<path i:knockout="Off" d="M24.552,12.854v0.672h-3.797c-0.005-0.169,0.022-0.332,0.083-0.488
					c0.098-0.258,0.253-0.511,0.467-0.76c0.214-0.248,0.521-0.537,0.92-0.864c0.619-0.517,1.04-0.923,1.261-1.221
					c0.221-0.298,0.332-0.58,0.332-0.849c0-0.278-0.1-0.513-0.299-0.704c-0.2-0.191-0.46-0.287-0.781-0.287
					c-0.339,0-0.611,0.104-0.814,0.311c-0.204,0.208-0.307,0.494-0.309,0.861l-0.719-0.094c0.049-0.539,0.235-0.95,0.558-1.232
					c0.322-0.282,0.755-0.424,1.299-0.424c0.549,0,0.983,0.152,1.303,0.457c0.32,0.305,0.48,0.683,0.48,1.133
					c0,0.229-0.046,0.455-0.14,0.676c-0.093,0.222-0.248,0.454-0.464,0.699c-0.217,0.245-0.577,0.581-1.081,1.009
					c-0.423,0.355-0.695,0.596-0.814,0.723c-0.12,0.126-0.219,0.253-0.297,0.381H24.552z"/>
			</g>
			<g i:knockout="Off">
				<path i:knockout="Off" d="M32.13,12.025l0.719-0.094c0.08,0.393,0.215,0.676,0.405,0.85c0.189,0.173,0.425,0.26,0.707,0.26
					c0.333,0,0.611-0.115,0.834-0.344c0.223-0.23,0.335-0.515,0.335-0.854c0-0.323-0.105-0.59-0.314-0.801
					c-0.209-0.209-0.475-0.314-0.798-0.314c-0.132,0-0.295,0.026-0.492,0.078l0.078-0.625c0.046,0.006,0.083,0.008,0.112,0.008
					c0.294,0,0.559-0.077,0.795-0.232c0.236-0.154,0.354-0.394,0.354-0.717c0-0.255-0.086-0.467-0.259-0.635
					s-0.396-0.252-0.669-0.252c-0.271,0-0.496,0.086-0.677,0.258s-0.297,0.43-0.348,0.773L32.192,9.26
					c0.085-0.471,0.281-0.836,0.584-1.096c0.304-0.259,0.682-0.389,1.134-0.389c0.312,0,0.599,0.067,0.861,0.2
					c0.263,0.134,0.463,0.315,0.603,0.546c0.139,0.231,0.208,0.476,0.208,0.735c0,0.246-0.066,0.47-0.199,0.673
					c-0.133,0.201-0.33,0.362-0.59,0.481c0.338,0.078,0.604,0.241,0.797,0.487s0.289,0.555,0.289,0.925
					c0,0.501-0.182,0.926-0.547,1.273c-0.365,0.349-0.826,0.522-1.383,0.522c-0.502,0-0.92-0.147-1.252-0.443
					S32.177,12.496,32.13,12.025z"/>
			</g>
			<g i:knockout="Off">
				<path i:knockout="Off" d="M45.463,13.525V12.15h-2.484V11.51l2.625-3.719h0.563v3.719h0.781v0.641h-0.781v1.375H45.463z
					 M45.463,11.51V8.943l-1.792,2.566H45.463z"/>
			</g>
			<g i:knockout="Off">
				<path i:knockout="Off" d="M55.339,12.025l0.719-0.063c0.055,0.358,0.182,0.627,0.379,0.808c0.198,0.181,0.441,0.271,0.73,0.271
					c0.348,0,0.639-0.127,0.871-0.382c0.231-0.254,0.348-0.592,0.348-1.013c0-0.399-0.111-0.715-0.332-0.946
					c-0.222-0.231-0.519-0.347-0.891-0.347c-0.232,0-0.438,0.051-0.617,0.152s-0.322,0.232-0.426,0.395l-0.656-0.094l0.563-2.938
					h2.844v0.672h-2.285l-0.313,1.549c0.344-0.24,0.704-0.361,1.082-0.361c0.5,0,0.922,0.173,1.266,0.52
					c0.344,0.346,0.516,0.791,0.516,1.334c0,0.518-0.151,0.965-0.453,1.343c-0.367,0.463-0.869,0.694-1.504,0.694
					c-0.521,0-0.946-0.146-1.275-0.437C55.574,12.892,55.386,12.506,55.339,12.025z"/>
			</g>
			<g i:knockout="Off">
				<path i:knockout="Off" d="M70.511,9.197L69.808,9.26c-0.063-0.277-0.152-0.479-0.268-0.604
					c-0.191-0.201-0.428-0.302-0.708-0.302c-0.226,0-0.426,0.063-0.602,0.187c-0.218,0.161-0.391,0.396-0.52,0.705
					c-0.128,0.309-0.195,0.75-0.2,1.323c0.17-0.258,0.378-0.449,0.623-0.574c0.246-0.125,0.504-0.188,0.773-0.188
					c0.47,0,0.871,0.173,1.201,0.518c0.33,0.346,0.496,0.791,0.496,1.338c0,0.359-0.078,0.693-0.233,1.002s-0.369,0.545-0.642,0.709
					c-0.271,0.164-0.58,0.246-0.926,0.246c-0.588,0-1.068-0.215-1.439-0.646c-0.371-0.43-0.557-1.14-0.557-2.129
					c0-1.105,0.205-1.91,0.617-2.413c0.359-0.437,0.843-0.656,1.451-0.656c0.453,0,0.824,0.126,1.113,0.378
					C70.28,8.405,70.454,8.753,70.511,9.197z M67.621,11.668c0,0.242,0.052,0.474,0.155,0.694c0.104,0.222,0.247,0.39,0.43,0.505
					c0.183,0.116,0.38,0.174,0.589,0.174c0.304,0,0.562-0.119,0.773-0.359c0.212-0.238,0.318-0.563,0.318-0.975
					c0-0.395-0.104-0.707-0.314-0.934c-0.209-0.229-0.478-0.342-0.805-0.342c-0.319,0-0.59,0.113-0.813,0.342
					C67.732,11,67.621,11.299,67.621,11.668z"/>
			</g>
			<path i:knockout="Off" fill="none" stroke="#000000" stroke-width="1.2" d="M77.125,16.662c0,1.565-1.27,2.834-2.834,2.834H6.421
				c-1.565,0-2.834-1.269-2.834-2.834V6.158c0-1.565,1.269-2.834,2.834-2.834h67.87c1.564,0,2.834,1.269,2.834,2.834V16.662z"/>
			<path i:knockout="Off" fill="none" stroke="#000000" stroke-width="0.7" d="M17.309,11.281c0,3.106-2.519,5.625-5.625,5.625
				s-5.625-2.519-5.625-5.625s2.519-5.625,5.625-5.625S17.309,8.175,17.309,11.281z"/>
			<path i:knockout="Off" fill="none" stroke="#000000" stroke-width="0.5" d="M19.059,15.246h7.625"/>
			<path i:knockout="Off" fill="none" stroke="#000000" stroke-width="0.7" d="M28.559,11.281c0,3.106-2.519,5.625-5.625,5.625
				s-5.625-2.519-5.625-5.625s2.519-5.625,5.625-5.625S28.559,8.175,28.559,11.281z"/>
			<path i:knockout="Off" fill="none" stroke="#000000" stroke-width="0.5" d="M30.434,15.246h7.625"/>
			<path i:knockout="Off" fill="none" stroke="#000000" stroke-width="0.7" d="M39.933,11.281c0,3.106-2.518,5.625-5.625,5.625
				s-5.625-2.519-5.625-5.625s2.519-5.625,5.625-5.625S39.933,8.175,39.933,11.281z"/>
			<path i:knockout="Off" fill="none" stroke="#000000" stroke-width="0.5" d="M41.933,15.246h7.625"/>
			<path i:knockout="Off" fill="none" stroke="#000000" stroke-width="0.7" d="M51.433,11.281c0,3.106-2.518,5.625-5.625,5.625
				c-3.105,0-5.625-2.519-5.625-5.625s2.52-5.625,5.625-5.625C48.916,5.656,51.433,8.175,51.433,11.281z"/>
			<path i:knockout="Off" fill="none" stroke="#000000" stroke-width="0.5" d="M53.433,15.246h7.625"/>
			<path i:knockout="Off" fill="none" stroke="#000000" stroke-width="0.7" d="M62.933,11.281c0,3.106-2.518,5.625-5.625,5.625
				c-3.105,0-5.625-2.519-5.625-5.625s2.52-5.625,5.625-5.625C60.416,5.656,62.933,8.175,62.933,11.281z"/>
			<path i:knockout="Off" fill="none" stroke="#000000" stroke-width="0.5" d="M64.933,15.246h7.625"/>
			<path i:knockout="Off" fill="none" stroke="#000000" stroke-width="0.7" d="M74.433,11.281c0,3.106-2.518,5.625-5.625,5.625
				c-3.105,0-5.625-2.519-5.625-5.625s2.52-5.625,5.625-5.625C71.916,5.656,74.433,8.175,74.433,11.281z"/>
		</g>
	</g>
</svg>
