<?xml version="1.0" encoding="utf-8"?>
<!-- Generator: Adobe Illustrator 10.0, SVG Export Plug-In . SVG Version: 3.0.0 Build 77)  -->
<!DOCTYPE svg PUBLIC "-//W3C//DTD SVG 1.0//EN"    "http://www.w3.org/TR/2001/REC-SVG-20010904/DTD/svg10.dtd" [
	<!ENTITY ns_flows "http://ns.adobe.com/Flows/1.0/">
	<!ENTITY ns_extend "http://ns.adobe.com/Extensibility/1.0/">
	<!ENTITY ns_ai "http://ns.adobe.com/AdobeIllustrator/10.0/">
	<!ENTITY ns_graphs "http://ns.adobe.com/Graphs/1.0/">
	<!ENTITY ns_vars "http://ns.adobe.com/Variables/1.0/">
	<!ENTITY ns_imrep "http://ns.adobe.com/ImageReplacement/1.0/">
	<!ENTITY ns_sfw "http://ns.adobe.com/SaveForWeb/1.0/">
	<!ENTITY ns_custom "http://ns.adobe.com/GenericCustomNamespace/1.0/">
	<!ENTITY ns_adobe_xpath "http://ns.adobe.com/XPath/1.0/">
	<!ENTITY ns_svg "http://www.w3.org/2000/svg">
	<!ENTITY ns_xlink "http://www.w3.org/1999/xlink">
]>
<svg xmlns:x="&ns_extend;" xmlns:i="&ns_ai;" xmlns:graph="&ns_graphs;" i:viewOrigin="254.73 439.4399" i:rulerOrigin="8 47.1104" i:pageBounds="-8 888.8896 604 -47.1104" xmlns="&ns_svg;" xmlns:xlink="&ns_xlink;" xmlns:a="http://ns.adobe.com/AdobeSVGViewerExtensions/3.0/" width="85.779" height="35.968" viewBox="0 0 85.779 35.968" overflow="visible" enable-background="new 0 0 85.779 35.968" xml:space="preserve" id="svgObj" onload="parent.svgLoad('Top', document)">
	<metadata>
		<variableSets xmlns="&ns_vars;">
			<variableSet varSetName="binding1" locked="none">
				<variables></variables>
				<v:sampleDataSets xmlns="&ns_custom;" xmlns:v="&ns_vars;"></v:sampleDataSets>
			</variableSet>
		</variableSets>
		<sfw xmlns="&ns_sfw;">
			<slices></slices>
			<sliceSourceBounds y="388.709" x="218.13" width="159.74" height="63.362" bottomLeftOrigin="true"></sliceSourceBounds>
		</sfw>
	</metadata>
	<g id="レイヤー_1" i:layer="yes" i:dimmedPercent="100" i:rgbTrio="#4F008000FFFF">
		<g>
			<g>
				<path i:knockout="Off" fill="none" stroke="#000000" stroke-width="0.7" stroke-linecap="round" d="M14.209,20.384V8.043h11.342
					v12.341H14.209z"/>
				<g i:knockout="Off">
					<path i:knockout="Off" d="M17.931,14.824l0.719-0.094c0.08,0.393,0.215,0.676,0.405,0.849c0.19,0.174,0.425,0.26,0.707,0.26
						c0.333,0,0.611-0.115,0.835-0.344c0.223-0.229,0.335-0.514,0.335-0.854c0-0.323-0.104-0.59-0.313-0.8
						c-0.209-0.21-0.476-0.315-0.798-0.315c-0.132,0-0.296,0.026-0.492,0.078l0.078-0.625c0.046,0.005,0.083,0.008,0.112,0.008
						c0.294,0,0.56-0.078,0.795-0.232s0.354-0.394,0.354-0.716c0-0.256-0.086-0.468-0.259-0.636
						c-0.173-0.167-0.396-0.251-0.669-0.251c-0.271,0-0.497,0.086-0.677,0.258c-0.181,0.172-0.296,0.43-0.348,0.773l-0.719-0.125
						c0.086-0.471,0.28-0.836,0.584-1.096s0.682-0.389,1.134-0.389c0.312,0,0.599,0.067,0.861,0.2
						c0.262,0.133,0.463,0.316,0.602,0.546s0.208,0.476,0.208,0.734c0,0.246-0.066,0.471-0.199,0.673s-0.33,0.363-0.59,0.482
						c0.338,0.079,0.604,0.241,0.797,0.487c0.192,0.247,0.289,0.555,0.289,0.926c0,0.5-0.183,0.925-0.547,1.273
						c-0.365,0.348-0.826,0.522-1.383,0.522c-0.503,0-0.92-0.148-1.252-0.444S17.978,15.295,17.931,14.824z"/>
				</g>
				<path i:knockout="Off" fill="none" stroke="#000000" stroke-width="0.7" stroke-linecap="round" d="M25.426,18.086H14.55"/>
				<path i:knockout="Off" fill="none" stroke="#000000" stroke-width="0.7" stroke-linecap="round" d="M25.71,20.384V8.043h11.342
					v12.341H25.71z"/>
				<g i:knockout="Off">
					<path i:knockout="Off" d="M31.667,16.324v-1.375h-2.484v-0.641l2.625-3.719h0.563v3.719h0.781v0.641H32.37v1.375H31.667z
						 M31.667,14.309v-2.567l-1.792,2.567H31.667z"/>
				</g>
				<path i:knockout="Off" fill="none" stroke="#000000" stroke-width="0.7" stroke-linecap="round" d="M36.927,18.086H26.051"/>
				<path i:knockout="Off" fill="none" stroke="#000000" stroke-width="0.7" stroke-linecap="round" d="M37.211,20.384V8.043h11.335
					v12.341H37.211z"/>
				<g i:knockout="Off">
					<path i:knockout="Off" d="M40.917,14.824l0.719-0.063c0.055,0.358,0.182,0.627,0.379,0.808s0.441,0.271,0.729,0.271
						c0.349,0,0.639-0.127,0.871-0.381c0.232-0.255,0.348-0.592,0.348-1.013c0-0.4-0.111-0.716-0.332-0.947
						c-0.222-0.231-0.519-0.347-0.891-0.347c-0.232,0-0.438,0.051-0.617,0.152c-0.18,0.102-0.322,0.233-0.426,0.395l-0.656-0.094
						l0.563-2.938h2.844v0.672h-2.285l-0.313,1.549c0.344-0.241,0.704-0.362,1.082-0.362c0.5,0,0.922,0.173,1.266,0.519
						c0.344,0.346,0.516,0.791,0.516,1.334c0,0.518-0.151,0.965-0.453,1.342c-0.367,0.463-0.869,0.695-1.504,0.695
						c-0.521,0-0.946-0.145-1.275-0.436C41.152,15.691,40.964,15.305,40.917,14.824z"/>
				</g>
				<path i:knockout="Off" fill="none" stroke="#000000" stroke-width="0.7" stroke-linecap="round" d="M48.421,18.086h-10.87"/>
				<path i:knockout="Off" fill="none" stroke="#000000" stroke-width="0.7" stroke-linecap="round" d="M48.706,20.384V8.043h11.341
					v12.341H48.706z"/>
				<g i:knockout="Off">
					<path i:knockout="Off" d="M56.083,11.996l-0.703,0.063c-0.063-0.277-0.152-0.479-0.268-0.604
						c-0.191-0.201-0.427-0.302-0.708-0.302c-0.226,0-0.426,0.063-0.602,0.187c-0.218,0.161-0.391,0.396-0.52,0.705
						c-0.128,0.309-0.195,0.75-0.2,1.323c0.17-0.258,0.378-0.449,0.623-0.574c0.246-0.125,0.503-0.188,0.772-0.188
						c0.471,0,0.871,0.172,1.202,0.518s0.496,0.791,0.496,1.338c0,0.359-0.078,0.693-0.233,1.002
						c-0.156,0.309-0.369,0.545-0.642,0.709c-0.271,0.164-0.58,0.246-0.925,0.246c-0.589,0-1.068-0.215-1.44-0.646
						c-0.371-0.431-0.557-1.141-0.557-2.129c0-1.106,0.206-1.91,0.617-2.413c0.358-0.437,0.843-0.656,1.45-0.656
						c0.453,0,0.825,0.126,1.115,0.378C55.852,11.204,56.026,11.552,56.083,11.996z M53.193,14.467c0,0.242,0.052,0.473,0.155,0.694
						s0.246,0.389,0.43,0.505c0.184,0.115,0.38,0.173,0.589,0.173c0.304,0,0.562-0.12,0.773-0.359s0.318-0.564,0.318-0.975
						c0-0.395-0.104-0.707-0.314-0.934c-0.209-0.228-0.478-0.341-0.805-0.341c-0.319,0-0.591,0.114-0.813,0.341
						C53.304,13.799,53.193,14.098,53.193,14.467z"/>
				</g>
				<path i:knockout="Off" fill="none" stroke="#000000" stroke-width="0.7" stroke-linecap="round" d="M59.921,18.086H49.046"/>
				<path i:knockout="Off" fill="none" stroke="#000000" stroke-width="0.7" stroke-linecap="round" d="M60.206,20.384V8.043h11.341
					v12.341H60.206z"/>
				<g i:knockout="Off">
					<path i:knockout="Off" d="M63.958,11.34v-0.672h3.703v0.543c-0.365,0.389-0.728,0.904-1.086,1.549
						c-0.358,0.644-0.636,1.307-0.831,1.987c-0.142,0.48-0.231,1.006-0.271,1.577h-0.719c0.008-0.451,0.097-0.996,0.265-1.635
						c0.17-0.639,0.412-1.255,0.728-1.849s0.651-1.094,1.008-1.5H63.958z"/>
				</g>
				<path i:knockout="Off" fill="none" stroke="#000000" stroke-width="0.7" stroke-linecap="round" d="M71.421,18.086H60.546"/>
				<path i:knockout="Off" fill="none" stroke="#000000" stroke-width="0.7" stroke-linecap="round" d="M14.209,35.312V22.971
					h11.342v12.341H14.209z"/>
				<g i:knockout="Off">
					<path i:knockout="Off" d="M18.347,31.252h-0.703v-4.48c-0.169,0.161-0.392,0.323-0.666,0.484
						c-0.275,0.161-0.521,0.282-0.74,0.363v-0.68c0.393-0.185,0.737-0.409,1.031-0.672c0.294-0.263,0.502-0.519,0.625-0.766h0.453
						V31.252z"/>
					<path i:knockout="Off" d="M20.14,28.426c0-0.677,0.07-1.223,0.211-1.638c0.14-0.415,0.349-0.733,0.626-0.954
						c0.277-0.222,0.626-0.332,1.046-0.332c0.31,0,0.583,0.062,0.819,0.186s0.429,0.302,0.579,0.534
						c0.149,0.233,0.268,0.518,0.354,0.852c0.086,0.334,0.13,0.785,0.13,1.353c0,0.671-0.069,1.215-0.209,1.63
						c-0.139,0.415-0.347,0.734-0.624,0.956c-0.277,0.223-0.627,0.334-1.05,0.334c-0.557,0-0.994-0.195-1.312-0.585
						C20.331,30.279,20.14,29.501,20.14,28.426z M20.859,28.424c0,0.945,0.112,1.572,0.336,1.881c0.224,0.309,0.5,0.463,0.828,0.463
						c0.328,0,0.604-0.155,0.828-0.465s0.336-0.937,0.336-1.879s-0.111-1.569-0.334-1.879s-0.502-0.465-0.838-0.465
						c-0.329,0-0.592,0.137-0.791,0.41C20.981,26.839,20.859,27.484,20.859,28.424z"/>
				</g>
				<path i:knockout="Off" fill="none" stroke="#000000" stroke-width="0.7" stroke-linecap="round" d="M25.426,33.014H14.55"/>
				<path i:knockout="Off" fill="none" stroke="#000000" stroke-width="0.7" stroke-linecap="round" d="M25.71,35.312V22.971h11.342
					v12.341H25.71z"/>
				<g i:knockout="Off">
					<path i:knockout="Off" d="M29.848,31.252h-0.703v-4.48c-0.169,0.161-0.392,0.323-0.666,0.484
						c-0.275,0.161-0.521,0.282-0.74,0.363v-0.68c0.393-0.185,0.737-0.409,1.031-0.672c0.294-0.263,0.502-0.519,0.625-0.766h0.453
						V31.252z"/>
					<path i:knockout="Off" d="M34.297,31.252h-0.703v-4.48c-0.169,0.161-0.392,0.323-0.666,0.484
						c-0.275,0.161-0.521,0.282-0.74,0.363v-0.68c0.393-0.185,0.737-0.409,1.031-0.672c0.294-0.263,0.502-0.519,0.625-0.766h0.453
						V31.252z"/>
				</g>
				<path i:knockout="Off" fill="none" stroke="#000000" stroke-width="0.7" stroke-linecap="round" d="M36.927,33.014H26.051"/>
				<path i:knockout="Off" fill="none" stroke="#000000" stroke-width="0.7" stroke-linecap="round" d="M37.211,35.312V22.971
					h11.335v12.341H37.211z"/>
				<g i:knockout="Off">
					<path i:knockout="Off" d="M41.349,31.252h-0.703v-4.48c-0.169,0.161-0.392,0.323-0.666,0.484
						c-0.275,0.161-0.521,0.282-0.74,0.363v-0.68c0.393-0.185,0.737-0.409,1.031-0.672c0.294-0.263,0.502-0.519,0.625-0.766h0.453
						V31.252z"/>
					<path i:knockout="Off" d="M46.837,30.581v0.672h-3.797c-0.005-0.169,0.022-0.332,0.083-0.488
						c0.097-0.258,0.252-0.511,0.467-0.76c0.214-0.249,0.521-0.536,0.92-0.864c0.62-0.516,1.04-0.923,1.262-1.221
						c0.221-0.298,0.331-0.58,0.331-0.849c0-0.278-0.1-0.513-0.3-0.704c-0.199-0.19-0.459-0.286-0.78-0.286
						c-0.339,0-0.61,0.104-0.814,0.312c-0.204,0.207-0.307,0.494-0.309,0.86l-0.719-0.094c0.049-0.539,0.235-0.95,0.558-1.232
						c0.323-0.282,0.756-0.424,1.3-0.424c0.549,0,0.983,0.152,1.304,0.457c0.319,0.305,0.479,0.683,0.479,1.134
						c0,0.229-0.047,0.454-0.14,0.676c-0.094,0.221-0.248,0.454-0.465,0.699c-0.216,0.245-0.576,0.581-1.08,1.009
						c-0.424,0.354-0.695,0.596-0.815,0.722c-0.12,0.127-0.219,0.254-0.297,0.382H46.837z"/>
				</g>
				<path i:knockout="Off" fill="none" stroke="#000000" stroke-width="0.7" stroke-linecap="round" d="M48.421,33.014h-10.87"/>
				<path i:knockout="Off" fill="none" stroke="#000000" stroke-width="0.7" stroke-linecap="round" d="M48.706,35.312V22.971
					h11.341v12.341H48.706z"/>
				<g i:knockout="Off">
					<path i:knockout="Off" d="M52.843,31.252H52.14v-4.48c-0.169,0.161-0.392,0.323-0.666,0.484s-0.521,0.282-0.74,0.363v-0.68
						c0.394-0.185,0.737-0.409,1.031-0.672s0.503-0.519,0.625-0.766h0.453V31.252z"/>
					<path i:knockout="Off" d="M54.652,29.752l0.719-0.094c0.08,0.394,0.215,0.676,0.405,0.85c0.189,0.173,0.425,0.26,0.706,0.26
						c0.333,0,0.611-0.114,0.835-0.345c0.223-0.229,0.335-0.514,0.335-0.853c0-0.323-0.104-0.591-0.313-0.8
						c-0.209-0.211-0.476-0.315-0.798-0.315c-0.132,0-0.296,0.026-0.492,0.078l0.077-0.625c0.047,0.005,0.084,0.008,0.112,0.008
						c0.294,0,0.56-0.077,0.795-0.232s0.354-0.394,0.354-0.717c0-0.255-0.087-0.467-0.259-0.635
						c-0.174-0.168-0.396-0.252-0.67-0.252c-0.271,0-0.496,0.086-0.676,0.258c-0.182,0.172-0.297,0.43-0.349,0.773l-0.719-0.125
						c0.086-0.472,0.28-0.837,0.585-1.096c0.304-0.259,0.682-0.389,1.134-0.389c0.312,0,0.599,0.067,0.861,0.2
						c0.263,0.134,0.463,0.315,0.603,0.546c0.139,0.231,0.208,0.476,0.208,0.735c0,0.246-0.066,0.471-0.199,0.672
						c-0.133,0.203-0.329,0.363-0.59,0.482c0.339,0.078,0.604,0.24,0.797,0.487c0.192,0.246,0.289,0.555,0.289,0.925
						c0,0.501-0.183,0.926-0.547,1.273c-0.364,0.349-0.825,0.522-1.383,0.522c-0.503,0-0.92-0.147-1.252-0.443
						S54.699,30.223,54.652,29.752z"/>
				</g>
				<path i:knockout="Off" fill="none" stroke="#000000" stroke-width="0.7" stroke-linecap="round" d="M59.921,33.014H49.046"/>
				<path i:knockout="Off" fill="none" stroke="#000000" stroke-width="0.7" stroke-linecap="round" d="M60.206,35.312V22.971
					h11.341v12.341H60.206z"/>
				<g i:knockout="Off">
					<path i:knockout="Off" d="M64.343,31.252H63.64v-4.48c-0.169,0.161-0.392,0.323-0.666,0.484s-0.521,0.282-0.74,0.363v-0.68
						c0.394-0.185,0.737-0.409,1.031-0.672s0.503-0.519,0.625-0.766h0.453V31.252z"/>
					<path i:knockout="Off" d="M68.386,31.252v-1.375h-2.484v-0.641l2.625-3.719h0.563v3.719h0.781v0.641h-0.781v1.375H68.386z
						 M68.386,29.237V26.67l-1.792,2.566H68.386z"/>
				</g>
				<path i:knockout="Off" fill="none" stroke="#000000" stroke-width="0.7" stroke-linecap="round" d="M71.421,33.014H60.546"/>
				<path i:knockout="Off" fill="none" stroke="#000000" stroke-width="0.7" stroke-linecap="round" d="M71.572,35.369V20.56h13.607
					v14.809H71.572z"/>
				<g i:knockout="Off">
					<path i:knockout="Off" d="M76.492,28.169l0.672-0.063c0.058,0.318,0.167,0.549,0.328,0.691
						c0.161,0.144,0.368,0.215,0.621,0.215c0.216,0,0.407-0.049,0.572-0.147s0.299-0.229,0.4-0.395s0.188-0.387,0.258-0.667
						c0.07-0.279,0.105-0.565,0.105-0.857c0-0.031-0.001-0.078-0.004-0.141c-0.14,0.225-0.331,0.406-0.573,0.545
						c-0.242,0.14-0.505,0.209-0.787,0.209c-0.472,0-0.871-0.172-1.197-0.516c-0.326-0.345-0.489-0.798-0.489-1.361
						c0-0.581,0.171-1.049,0.514-1.404c0.343-0.354,0.771-0.531,1.287-0.531c0.372,0,0.713,0.101,1.021,0.301
						s0.543,0.486,0.703,0.856c0.16,0.371,0.24,0.907,0.24,1.61c0,0.731-0.08,1.313-0.239,1.747s-0.396,0.763-0.711,0.989
						c-0.315,0.227-0.684,0.34-1.107,0.34c-0.449,0-0.816-0.124-1.102-0.373C76.72,28.97,76.549,28.621,76.492,28.169z
						 M79.382,25.644c0-0.404-0.106-0.725-0.319-0.963c-0.213-0.236-0.473-0.355-0.78-0.355c-0.318,0-0.593,0.128-0.821,0.384
						c-0.23,0.255-0.345,0.587-0.345,0.993c0,0.365,0.108,0.662,0.327,0.891c0.217,0.228,0.49,0.342,0.819,0.342
						c0.326,0,0.595-0.114,0.804-0.342C79.278,26.365,79.382,26.048,79.382,25.644z"/>
				</g>
				<path i:knockout="Off" fill="none" stroke="#000000" stroke-width="0.7" stroke-linecap="round" d="M85.03,32.863H71.98"/>
				<path i:knockout="Off" fill="none" stroke="#000000" stroke-width="0.7" stroke-linecap="round" d="M71.572,20.481V5.673h13.607
					v14.808H71.572z"/>
				<g i:knockout="Off">
					<path i:knockout="Off" d="M80.093,13.938v0.672h-3.797c-0.005-0.169,0.022-0.332,0.083-0.488
						c0.097-0.258,0.252-0.511,0.467-0.76c0.214-0.249,0.521-0.537,0.92-0.864c0.62-0.516,1.04-0.923,1.262-1.221
						c0.221-0.297,0.331-0.581,0.331-0.848c0-0.278-0.1-0.513-0.3-0.704c-0.199-0.191-0.459-0.287-0.78-0.287
						c-0.339,0-0.61,0.104-0.813,0.311c-0.204,0.207-0.307,0.494-0.31,0.861l-0.719-0.094c0.05-0.539,0.235-0.95,0.558-1.232
						s0.756-0.424,1.3-0.424c0.549,0,0.983,0.153,1.304,0.458c0.319,0.305,0.479,0.682,0.479,1.133c0,0.229-0.047,0.455-0.14,0.676
						c-0.094,0.222-0.248,0.455-0.465,0.7c-0.216,0.245-0.576,0.581-1.08,1.009c-0.424,0.355-0.695,0.596-0.815,0.722
						s-0.219,0.254-0.297,0.381H80.093z"/>
				</g>
				<path i:knockout="Off" fill="none" stroke="#000000" stroke-width="0.7" stroke-linecap="round" d="M85.03,17.975H71.98"/>
				<path i:knockout="Off" fill="none" stroke="#000000" stroke-width="0.7" stroke-linecap="round" d="M0.6,35.369V20.56h13.609
					v14.809H0.6z"/>
				<g i:knockout="Off">
					<path i:knockout="Off" d="M6.52,26.394c-0.292-0.106-0.507-0.259-0.648-0.457s-0.211-0.436-0.211-0.712
						c0-0.417,0.149-0.767,0.447-1.052c0.299-0.283,0.696-0.426,1.191-0.426c0.498,0,0.899,0.146,1.203,0.436
						c0.304,0.291,0.456,0.645,0.456,1.062c0,0.267-0.069,0.497-0.208,0.694c-0.139,0.196-0.349,0.349-0.631,0.455
						c0.35,0.114,0.617,0.299,0.799,0.554s0.274,0.559,0.274,0.912c0,0.489-0.173,0.899-0.519,1.232s-0.8,0.499-1.364,0.499
						s-1.019-0.167-1.364-0.501s-0.519-0.751-0.519-1.25c0-0.371,0.095-0.683,0.284-0.934S6.169,26.485,6.52,26.394z M6.145,27.845
						c0,0.2,0.046,0.394,0.139,0.58c0.092,0.188,0.233,0.332,0.423,0.434c0.189,0.104,0.393,0.154,0.608,0.154
						c0.341,0,0.619-0.107,0.834-0.323c0.216-0.215,0.324-0.489,0.324-0.821c0-0.338-0.111-0.616-0.333-0.837
						s-0.505-0.331-0.848-0.331c-0.335,0-0.61,0.109-0.825,0.327S6.145,27.518,6.145,27.845z M6.379,25.201
						c0,0.271,0.085,0.492,0.257,0.664c0.171,0.172,0.398,0.258,0.681,0.258c0.275,0,0.497-0.085,0.667-0.256
						c0.17-0.17,0.255-0.379,0.255-0.627c0-0.258-0.088-0.475-0.263-0.65s-0.397-0.264-0.667-0.264
						c-0.272,0-0.495,0.086-0.669,0.258S6.379,24.961,6.379,25.201z"/>
				</g>
				<path i:knockout="Off" fill="none" stroke="#000000" stroke-width="0.7" stroke-linecap="round" d="M14.06,32.863H1.008"/>
				<path i:knockout="Off" fill="none" stroke="#000000" stroke-width="0.7" stroke-linecap="round" d="M0.6,20.481V5.673h13.609
					v14.808H0.6z"/>
				<g i:knockout="Off">
					<path i:knockout="Off" d="M8.083,14.609H7.379v-4.48c-0.169,0.162-0.392,0.323-0.666,0.484
						c-0.275,0.162-0.521,0.283-0.74,0.363v-0.68c0.393-0.185,0.737-0.409,1.031-0.672c0.294-0.263,0.502-0.518,0.625-0.766h0.453
						V14.609z"/>
				</g>
				<path i:knockout="Off" fill="none" stroke="#000000" stroke-width="0.7" stroke-linecap="round" d="M14.06,17.975H1.008"/>
				<g>
					<g>
						<g>
							<path i:knockout="Off" fill="none" stroke="#000000" stroke-width="1.2" stroke-linecap="round" d="M0.6,5.852V0.6h5.948
								v5.251"/>
						</g>
					</g>
					<g>
						<g>
							<path i:knockout="Off" fill="none" stroke="#000000" stroke-width="1.2" stroke-linecap="round" d="M25.751,7.859V0.6h34.378
								v7.205"/>
						</g>
					</g>
					<g>
						<g>
							<path i:knockout="Off" fill="none" stroke="#000000" stroke-width="1.2" stroke-linecap="round" d="M79.229,5.852V0.6h5.95
								v5.251"/>
						</g>
					</g>
				</g>
			</g>
			<g>
				<path i:knockout="Off" fill="none" stroke="#000000" stroke-width="1.2" stroke-linecap="round" d="M71.587,5.852v2.192H14.209
					V5.852H0.6v29.509l84.579,0.008V5.852H71.587z"/>
			</g>
		</g>
	</g>
</svg>
