<?xml version="1.0" encoding="utf-8"?>
<!-- Generator: Adobe Illustrator 10.0, SVG Export Plug-In . SVG Version: 3.0.0 Build 77)  -->
<!DOCTYPE svg PUBLIC "-//W3C//DTD SVG 1.0//EN"    "http://www.w3.org/TR/2001/REC-SVG-20010904/DTD/svg10.dtd" [
	<!ENTITY ns_flows "http://ns.adobe.com/Flows/1.0/">
	<!ENTITY ns_extend "http://ns.adobe.com/Extensibility/1.0/">
	<!ENTITY ns_ai "http://ns.adobe.com/AdobeIllustrator/10.0/">
	<!ENTITY ns_graphs "http://ns.adobe.com/Graphs/1.0/">
	<!ENTITY ns_vars "http://ns.adobe.com/Variables/1.0/">
	<!ENTITY ns_imrep "http://ns.adobe.com/ImageReplacement/1.0/">
	<!ENTITY ns_sfw "http://ns.adobe.com/SaveForWeb/1.0/">
	<!ENTITY ns_custom "http://ns.adobe.com/GenericCustomNamespace/1.0/">
	<!ENTITY ns_adobe_xpath "http://ns.adobe.com/XPath/1.0/">
	<!ENTITY ns_svg "http://www.w3.org/2000/svg">
	<!ENTITY ns_xlink "http://www.w3.org/1999/xlink">
]>
<svg xmlns:x="&ns_extend;" xmlns:i="&ns_ai;" xmlns:graph="&ns_graphs;" i:viewOrigin="287.1851 473.2085" i:rulerOrigin="0 0" i:pageBounds="0 841.8896 595.2754 0" xmlns="&ns_svg;" xmlns:xlink="&ns_xlink;" xmlns:a="http://ns.adobe.com/AdobeSVGViewerExtensions/3.0/" width="31" height="26.583" viewBox="0 0 31 26.583" overflow="visible" enable-background="new 0 0 31 26.583" xml:space="preserve" id="svgObj" onload="parent.svgLoad('Top', document)">
	<metadata>
		<variableSets xmlns="&ns_vars;">
			<variableSet varSetName="binding1" locked="none">
				<variables></variables>
				<v:sampleDataSets xmlns="&ns_custom;" xmlns:v="&ns_vars;"></v:sampleDataSets>
			</variableSet>
		</variableSets>
		<sfw xmlns="&ns_sfw;">
			<slices></slices>
			<sliceSourceBounds y="426.027" x="262.5" width="80.37" height="63.362" bottomLeftOrigin="true"></sliceSourceBounds>
		</sfw>
	</metadata>
	<g id="レイヤー_1" i:layer="yes" i:dimmedPercent="100" i:rgbTrio="#4F008000FFFF">
		<g i:knockout="Off">
			<path i:knockout="Off" d="M16.198,8.295h-0.703v-4.48c-0.17,0.162-0.392,0.323-0.666,0.484c-0.275,0.162-0.521,0.283-0.74,0.363
				v-0.68c0.393-0.185,0.736-0.409,1.031-0.672c0.294-0.263,0.502-0.518,0.625-0.766h0.453V8.295z"/>
		</g>
		<path i:knockout="Off" fill="none" stroke="#000000" d="M20.5,10.5h-10v-10h10V10.5z"/>
		<path i:knockout="Off" fill="none" stroke="#000000" d="M10.5,20.5h-10v-10h10V20.5z"/>
		<path i:knockout="Off" fill="none" stroke="#000000" d="M30.5,20.5h-10v-10h10V20.5z"/>
		<path i:knockout="Off" fill="none" stroke="#000000" d="M20.5,10.5h-10v-10h10V10.5z"/>
		<path i:knockout="Off" fill="none" stroke="#000000" d="M20.5,20.5h-10v-10h10V20.5z"/>
		<path i:knockout="Off" fill="none" stroke="#000000" d="M10.5,20.167v5.917h2.167V20.5"/>
		<path i:knockout="Off" fill="none" stroke="#000000" d="M18.333,20.167v5.917H20.5V20.5"/>
		<path i:knockout="Off" fill="none" stroke="#000000" d="M7.833,23.583H3.167V20.5h4.667V23.583z"/>
		<g i:knockout="Off">
			<path i:knockout="Off" d="M7.049,17.485v0.672H3.252c-0.005-0.169,0.022-0.332,0.083-0.488c0.097-0.258,0.252-0.511,0.467-0.76
				c0.214-0.249,0.521-0.537,0.92-0.864c0.62-0.516,1.04-0.923,1.261-1.221c0.221-0.297,0.332-0.581,0.332-0.848
				c0-0.278-0.1-0.513-0.299-0.704c-0.2-0.191-0.46-0.287-0.781-0.287c-0.339,0-0.61,0.104-0.814,0.311s-0.307,0.494-0.309,0.861
				l-0.719-0.094c0.049-0.539,0.235-0.95,0.558-1.232c0.323-0.283,0.756-0.424,1.3-0.424c0.549,0,0.983,0.153,1.303,0.458
				s0.48,0.682,0.48,1.133c0,0.229-0.047,0.455-0.14,0.676c-0.094,0.222-0.248,0.455-0.465,0.7
				c-0.216,0.245-0.576,0.581-1.081,1.009c-0.423,0.355-0.695,0.596-0.815,0.722c-0.12,0.126-0.219,0.254-0.297,0.381H7.049z"/>
		</g>
		<g i:knockout="Off">
			<path i:knockout="Off" d="M23.87,16.907l0.719-0.094c0.08,0.393,0.215,0.676,0.404,0.849c0.19,0.174,0.426,0.26,0.707,0.26
				c0.333,0,0.611-0.115,0.835-0.344s0.335-0.514,0.335-0.854c0-0.323-0.104-0.59-0.313-0.8c-0.21-0.21-0.476-0.315-0.798-0.315
				c-0.132,0-0.296,0.026-0.492,0.078l0.078-0.625c0.046,0.005,0.083,0.008,0.111,0.008c0.295,0,0.56-0.078,0.795-0.232
				s0.354-0.394,0.354-0.716c0-0.256-0.086-0.468-0.26-0.636c-0.172-0.167-0.396-0.251-0.668-0.251
				c-0.271,0-0.497,0.086-0.678,0.258c-0.18,0.172-0.296,0.43-0.348,0.773l-0.719-0.125c0.086-0.471,0.28-0.836,0.584-1.096
				c0.305-0.259,0.683-0.389,1.135-0.389c0.312,0,0.599,0.067,0.861,0.2c0.262,0.133,0.463,0.316,0.602,0.546
				c0.14,0.23,0.209,0.476,0.209,0.734c0,0.246-0.066,0.471-0.199,0.673s-0.33,0.363-0.59,0.482
				c0.338,0.079,0.604,0.241,0.797,0.487c0.192,0.247,0.289,0.555,0.289,0.926c0,0.5-0.183,0.925-0.547,1.273
				c-0.365,0.348-0.826,0.522-1.383,0.522c-0.503,0-0.92-0.148-1.252-0.444S23.917,17.378,23.87,16.907z"/>
		</g>
	</g>
</svg>
