<?xml version="1.0" encoding="utf-8"?>
<!-- Generator: Adobe Illustrator 10.0, SVG Export Plug-In . SVG Version: 3.0.0 Build 77)  -->
<!DOCTYPE svg PUBLIC "-//W3C//DTD SVG 1.0//EN"    "http://www.w3.org/TR/2001/REC-SVG-20010904/DTD/svg10.dtd" [
	<!ENTITY ns_flows "http://ns.adobe.com/Flows/1.0/">
	<!ENTITY ns_extend "http://ns.adobe.com/Extensibility/1.0/">
	<!ENTITY ns_ai "http://ns.adobe.com/AdobeIllustrator/10.0/">
	<!ENTITY ns_graphs "http://ns.adobe.com/Graphs/1.0/">
	<!ENTITY ns_vars "http://ns.adobe.com/Variables/1.0/">
	<!ENTITY ns_imrep "http://ns.adobe.com/ImageReplacement/1.0/">
	<!ENTITY ns_sfw "http://ns.adobe.com/SaveForWeb/1.0/">
	<!ENTITY ns_custom "http://ns.adobe.com/GenericCustomNamespace/1.0/">
	<!ENTITY ns_adobe_xpath "http://ns.adobe.com/XPath/1.0/">
	<!ENTITY ns_svg "http://www.w3.org/2000/svg">
	<!ENTITY ns_xlink "http://www.w3.org/1999/xlink">
]>
<svg xmlns:x="&ns_extend;" xmlns:i="&ns_ai;" xmlns:graph="&ns_graphs;" i:viewOrigin="276.3979 431.1265" i:rulerOrigin="0 9.765625e-004" i:pageBounds="0 841.8887 595.2754 -9.765625e-004" xmlns="&ns_svg;" xmlns:xlink="&ns_xlink;" xmlns:a="http://ns.adobe.com/AdobeSVGViewerExtensions/3.0/" width="46.45" height="28.639" viewBox="0 0 46.45 28.639" overflow="visible" enable-background="new 0 0 46.45 28.639" xml:space="preserve" id="svgObj" onload="parent.svgLoad('Top', document)">
	<metadata>
		<variableSets xmlns="&ns_vars;">
			<variableSet varSetName="binding1" locked="none">
				<variables></variables>
				<v:sampleDataSets xmlns="&ns_custom;" xmlns:v="&ns_vars;"></v:sampleDataSets>
			</variableSet>
		</variableSets>
		<sfw xmlns="&ns_sfw;">
			<slices></slices>
			<sliceSourceBounds y="402.487" x="276.398" width="46.45" height="28.639" bottomLeftOrigin="true"></sliceSourceBounds>
		</sfw>
	</metadata>
	<g id="illust" i:layer="yes" i:dimmedPercent="3" i:rgbTrio="#4F008000FFFF">
		<g>
			<path i:knockout="Off" fill="none" stroke="#000000" stroke-width="1.2" d="M19.089,23.788v4.252h8.503v-4.252"/>
			<path i:knockout="Off" fill="none" stroke="#000000" stroke-width="1.2" d="M27.643,4.852V0.6H19.14v4.252"/>
			<path i:knockout="Off" fill="none" stroke="#000000" stroke-width="1.2" d="M32.34,23.122c5.01,0,9.071-4.062,9.071-9.07
				c0-5.01-4.062-9.072-9.071-9.072H14.359c-5.01,0-9.071,4.063-9.071,9.072c0,5.009,4.061,9.07,9.071,9.07H32.34z"/>
			<path i:knockout="Off" fill="none" stroke="#000000" stroke-width="0.7" d="M13.835,20.854c3.757,0,6.803-3.047,6.803-6.803
				c0-3.758-3.046-6.805-6.803-6.805s-6.803,3.047-6.803,6.805C7.032,17.807,10.078,20.854,13.835,20.854z"/>
			<path i:knockout="Off" fill="none" stroke="#000000" stroke-width="0.7" d="M33.002,20.854c3.757,0,6.803-3.047,6.803-6.803
				c0-3.758-3.046-6.805-6.803-6.805c-3.758,0-6.804,3.047-6.804,6.805C26.199,17.807,29.245,20.854,33.002,20.854z"/>
			<path i:knockout="Off" d="M14.595,17.235h-0.703v-4.48c-0.169,0.161-0.392,0.323-0.666,0.484
				c-0.275,0.161-0.521,0.282-0.74,0.363v-0.68c0.393-0.185,0.737-0.409,1.031-0.672c0.294-0.263,0.502-0.519,0.625-0.766h0.453
				V17.235z"/>
			<path i:knockout="Off" d="M34.801,16.563v0.672h-3.797c-0.006-0.169,0.022-0.332,0.083-0.488c0.097-0.258,0.253-0.511,0.467-0.76
				s0.521-0.536,0.92-0.864c0.62-0.516,1.04-0.923,1.261-1.221c0.222-0.298,0.332-0.58,0.332-0.849c0-0.278-0.1-0.513-0.299-0.704
				c-0.2-0.19-0.461-0.286-0.781-0.286c-0.34,0-0.61,0.104-0.814,0.312c-0.203,0.207-0.307,0.494-0.309,0.86l-0.719-0.094
				c0.049-0.539,0.235-0.95,0.558-1.232c0.323-0.282,0.756-0.424,1.3-0.424c0.549,0,0.983,0.152,1.303,0.457
				c0.32,0.305,0.48,0.683,0.48,1.134c0,0.229-0.047,0.454-0.14,0.676c-0.094,0.221-0.248,0.454-0.465,0.699
				c-0.216,0.245-0.576,0.581-1.081,1.009c-0.423,0.354-0.694,0.596-0.814,0.722c-0.119,0.127-0.219,0.254-0.297,0.382H34.801z"/>
			<path i:knockout="Off" fill="none" stroke="#000000" stroke-width="0.665" d="M23.398,21.729c0.612,0,1.108-0.496,1.108-1.107
				V7.479c0-0.611-0.496-1.107-1.108-1.107c-0.612,0-1.108,0.496-1.108,1.107v13.143C22.29,21.233,22.786,21.729,23.398,21.729z"/>
			<path i:knockout="Off" fill="none" stroke="#000000" stroke-width="1.2" d="M5.1,11.075H0.6v5.75h4.5"/>
			<path i:knockout="Off" fill="none" stroke="#000000" stroke-width="1.2" d="M41.35,16.825h4.5v-5.75h-4.5"/>
		</g>
	</g>
</svg>
