<?xml version="1.0" encoding="utf-8"?>
<!-- Generator: Adobe Illustrator 10.0, SVG Export Plug-In . SVG Version: 3.0.0 Build 77)  -->
<!DOCTYPE svg PUBLIC "-//W3C//DTD SVG 1.0//EN"    "http://www.w3.org/TR/2001/REC-SVG-20010904/DTD/svg10.dtd" [
	<!ENTITY ns_flows "http://ns.adobe.com/Flows/1.0/">
	<!ENTITY ns_extend "http://ns.adobe.com/Extensibility/1.0/">
	<!ENTITY ns_ai "http://ns.adobe.com/AdobeIllustrator/10.0/">
	<!ENTITY ns_graphs "http://ns.adobe.com/Graphs/1.0/">
	<!ENTITY ns_vars "http://ns.adobe.com/Variables/1.0/">
	<!ENTITY ns_imrep "http://ns.adobe.com/ImageReplacement/1.0/">
	<!ENTITY ns_sfw "http://ns.adobe.com/SaveForWeb/1.0/">
	<!ENTITY ns_custom "http://ns.adobe.com/GenericCustomNamespace/1.0/">
	<!ENTITY ns_adobe_xpath "http://ns.adobe.com/XPath/1.0/">
	<!ENTITY ns_svg "http://www.w3.org/2000/svg">
	<!ENTITY ns_xlink "http://www.w3.org/1999/xlink">
]>
<svg xmlns:x="&ns_extend;" xmlns:i="&ns_ai;" xmlns:graph="&ns_graphs;" i:viewOrigin="279.9204 468.4858" i:rulerOrigin="0 0" i:pageBounds="0 841.8896 595.2754 0" xmlns="&ns_svg;" xmlns:xlink="&ns_xlink;" xmlns:a="http://ns.adobe.com/AdobeSVGViewerExtensions/3.0/" width="45.825" height="24.526" viewBox="0 0 45.825 24.526" overflow="visible" enable-background="new 0 0 45.825 24.526" xml:space="preserve" id="svgObj" onload="parent.svgLoad('Top', document)">
	<metadata>
		<variableSets xmlns="&ns_vars;">
			<variableSet varSetName="binding1" locked="none">
				<variables></variables>
				<v:sampleDataSets xmlns="&ns_custom;" xmlns:v="&ns_vars;"></v:sampleDataSets>
			</variableSet>
		</variableSets>
		<sfw xmlns="&ns_sfw;">
			<slices></slices>
			<sliceSourceBounds y="426.027" x="262.5" width="80.37" height="63.362" bottomLeftOrigin="true"></sliceSourceBounds>
		</sfw>
	</metadata>
	<g id="レイヤー_1" i:layer="yes" i:dimmedPercent="100" i:rgbTrio="#4F008000FFFF">
		<g>
			<g>
				<path i:knockout="Off" fill="none" stroke="#000000" stroke-width="1.2" d="M25.465,5.656V3.404h-4.504v2.252"/>
				<path i:knockout="Off" fill="none" stroke="#000000" stroke-width="1.2" d="M32.163,23.926c5.01,0,9.071-4.062,9.071-9.071
					c0-5.01-4.062-9.071-9.071-9.071H14.181c-5.01,0-9.071,4.061-9.071,9.071c0,5.009,4.061,9.071,9.071,9.071H32.163z"/>
				<g i:knockout="Off">
					<path i:knockout="Off" d="M30.836,17.369v0.672H27.04c-0.005-0.169,0.022-0.332,0.083-0.488
						c0.097-0.258,0.252-0.511,0.467-0.76c0.214-0.249,0.521-0.537,0.92-0.864c0.62-0.516,1.04-0.923,1.262-1.221
						c0.221-0.298,0.331-0.58,0.331-0.849c0-0.278-0.1-0.513-0.3-0.704c-0.199-0.191-0.459-0.287-0.78-0.287
						c-0.339,0-0.61,0.104-0.813,0.311c-0.204,0.208-0.307,0.494-0.31,0.861l-0.719-0.094c0.05-0.539,0.235-0.95,0.558-1.232
						c0.322-0.282,0.756-0.424,1.3-0.424c0.549,0,0.983,0.152,1.304,0.457c0.319,0.305,0.479,0.683,0.479,1.133
						c0,0.229-0.047,0.455-0.14,0.676c-0.094,0.221-0.248,0.454-0.465,0.699c-0.216,0.245-0.576,0.581-1.08,1.009
						c-0.424,0.355-0.695,0.596-0.815,0.722s-0.219,0.253-0.297,0.381H30.836z"/>
				</g>
				<g i:knockout="Off">
					<path i:knockout="Off" d="M18.348,18.041h-0.703v-4.48c-0.169,0.162-0.392,0.323-0.666,0.484
						c-0.275,0.162-0.521,0.283-0.74,0.363v-0.68c0.393-0.185,0.737-0.409,1.031-0.672c0.294-0.263,0.502-0.518,0.625-0.766h0.453
						V18.041z"/>
				</g>
				<path i:knockout="Off" fill="none" stroke="#000000" stroke-width="0.7" d="M23.213,21.001V8.626h-11.75v12.375H23.213z"/>
				<path i:knockout="Off" fill="none" stroke="#000000" stroke-width="0.7" d="M35.038,21.001V8.626h-11.75v12.375H35.038z"/>
				<path i:knockout="Off" fill="none" stroke="#000000" stroke-width="1.2" d="M29.465,5.852l-2-5.252h-8.504l-2,5.252"/>
			</g>
			<path i:knockout="Off" fill="none" stroke="#000000" stroke-width="1.2" d="M40.6,16.676h4.625v-4.125H40.6"/>
			<path i:knockout="Off" fill="none" stroke="#000000" stroke-width="1.2" d="M5.225,12.551H0.6v4.125h4.625"/>
		</g>
	</g>
</svg>
