<?xml version="1.0" encoding="utf-8"?>
<!-- Generator: Adobe Illustrator 10.0, SVG Export Plug-In . SVG Version: 3.0.0 Build 77)  -->
<!DOCTYPE svg PUBLIC "-//W3C//DTD SVG 1.0//EN"    "http://www.w3.org/TR/2001/REC-SVG-20010904/DTD/svg10.dtd" [
	<!ENTITY ns_flows "http://ns.adobe.com/Flows/1.0/">
	<!ENTITY ns_extend "http://ns.adobe.com/Extensibility/1.0/">
	<!ENTITY ns_ai "http://ns.adobe.com/AdobeIllustrator/10.0/">
	<!ENTITY ns_graphs "http://ns.adobe.com/Graphs/1.0/">
	<!ENTITY ns_vars "http://ns.adobe.com/Variables/1.0/">
	<!ENTITY ns_imrep "http://ns.adobe.com/ImageReplacement/1.0/">
	<!ENTITY ns_sfw "http://ns.adobe.com/SaveForWeb/1.0/">
	<!ENTITY ns_custom "http://ns.adobe.com/GenericCustomNamespace/1.0/">
	<!ENTITY ns_adobe_xpath "http://ns.adobe.com/XPath/1.0/">
	<!ENTITY ns_svg "http://www.w3.org/2000/svg">
	<!ENTITY ns_xlink "http://www.w3.org/1999/xlink">
]>
<svg xmlns:x="&ns_extend;" xmlns:i="&ns_ai;" xmlns:graph="&ns_graphs;" i:viewOrigin="278.2368 439.0273" i:rulerOrigin="-1 0.1104" i:pageBounds="1 841.8896 596 -0.1104" xmlns="&ns_svg;" xmlns:xlink="&ns_xlink;" xmlns:a="http://ns.adobe.com/AdobeSVGViewerExtensions/3.0/" width="46.525" height="35.938" viewBox="0 0 46.525 35.938" overflow="visible" enable-background="new 0 0 46.525 35.938" xml:space="preserve" id="svgObj" onload="parent.svgLoad('Top', document)">
	<metadata>
		<variableSets xmlns="&ns_vars;">
			<variableSet varSetName="binding1" locked="none">
				<variables></variables>
				<v:sampleDataSets xmlns="&ns_custom;" xmlns:v="&ns_vars;"></v:sampleDataSets>
			</variableSet>
		</variableSets>
		<sfw xmlns="&ns_sfw;">
			<slices></slices>
			<sliceSourceBounds y="388.027" x="259.5" width="80.37" height="63.362" bottomLeftOrigin="true"></sliceSourceBounds>
		</sfw>
	</metadata>
	<g id="レイヤー_1" i:layer="yes" i:dimmedPercent="50" i:rgbTrio="#4F008000FFFF">
		<path i:knockout="Off" fill="none" stroke="#000000" stroke-width="1.2" d="M0.6,35.339V10.738h45.325v24.601H0.6z"/>
		<path i:knockout="Off" fill="none" stroke="#000000" stroke-width="0.7" d="M0.6,23.085h45.311"/>
		<path i:knockout="Off" fill="none" stroke="#000000" stroke-width="0.7" d="M0.6,21.362h45.311"/>
		<path i:knockout="Off" fill="none" stroke="#000000" stroke-width="0.7" d="M0.6,33.265h45.311"/>
		<g i:knockout="Off">
			<path i:knockout="Off" d="M6.911,18.943H6.208v-4.48c-0.169,0.162-0.392,0.323-0.666,0.484c-0.275,0.162-0.521,0.283-0.74,0.363
				v-0.68c0.393-0.185,0.737-0.409,1.031-0.672c0.294-0.263,0.502-0.518,0.625-0.766h0.453V18.943z"/>
		</g>
		<g i:knockout="Off">
			<path i:knockout="Off" d="M19.327,18.271v0.672H15.53c-0.005-0.169,0.022-0.332,0.083-0.488c0.097-0.258,0.252-0.511,0.467-0.76
				c0.214-0.249,0.521-0.537,0.92-0.864c0.62-0.516,1.04-0.923,1.261-1.221c0.221-0.297,0.332-0.581,0.332-0.848
				c0-0.278-0.1-0.513-0.299-0.704c-0.2-0.191-0.46-0.287-0.781-0.287c-0.339,0-0.61,0.104-0.814,0.311s-0.307,0.494-0.309,0.861
				l-0.719-0.094c0.049-0.539,0.235-0.95,0.558-1.232c0.323-0.283,0.756-0.424,1.3-0.424c0.549,0,0.983,0.153,1.303,0.458
				s0.48,0.682,0.48,1.133c0,0.229-0.047,0.455-0.14,0.676c-0.094,0.222-0.248,0.455-0.465,0.7
				c-0.216,0.245-0.576,0.581-1.081,1.009c-0.423,0.355-0.695,0.596-0.815,0.722c-0.12,0.126-0.219,0.254-0.297,0.381H19.327z"/>
		</g>
		<g i:knockout="Off">
			<path i:knockout="Off" d="M27.195,17.49l0.719-0.094c0.08,0.393,0.215,0.676,0.404,0.849c0.19,0.174,0.426,0.26,0.707,0.26
				c0.333,0,0.611-0.115,0.835-0.344s0.335-0.514,0.335-0.854c0-0.323-0.104-0.59-0.313-0.8c-0.21-0.21-0.476-0.315-0.798-0.315
				c-0.132,0-0.296,0.026-0.492,0.078l0.078-0.625c0.046,0.005,0.083,0.008,0.111,0.008c0.295,0,0.56-0.078,0.795-0.232
				s0.354-0.394,0.354-0.716c0-0.256-0.086-0.468-0.26-0.636c-0.172-0.167-0.396-0.251-0.668-0.251
				c-0.271,0-0.497,0.086-0.678,0.258c-0.18,0.172-0.296,0.43-0.348,0.773l-0.719-0.125c0.086-0.471,0.28-0.836,0.584-1.096
				c0.305-0.259,0.683-0.389,1.135-0.389c0.312,0,0.599,0.067,0.861,0.2c0.262,0.133,0.463,0.316,0.602,0.546
				c0.14,0.23,0.209,0.476,0.209,0.734c0,0.246-0.066,0.471-0.199,0.673s-0.33,0.363-0.59,0.482
				c0.338,0.079,0.604,0.241,0.797,0.487c0.192,0.247,0.289,0.555,0.289,0.926c0,0.5-0.183,0.925-0.547,1.273
				c-0.365,0.348-0.826,0.522-1.383,0.522c-0.503,0-0.92-0.148-1.252-0.444S27.242,17.961,27.195,17.49z"/>
		</g>
		<g i:knockout="Off">
			<path i:knockout="Off" d="M39.572,27.726c-0.291-0.106-0.507-0.259-0.647-0.457s-0.211-0.436-0.211-0.712
				c0-0.417,0.149-0.767,0.447-1.052c0.299-0.283,0.696-0.426,1.191-0.426c0.498,0,0.899,0.146,1.202,0.436
				c0.305,0.291,0.456,0.645,0.456,1.062c0,0.267-0.069,0.497-0.208,0.694c-0.139,0.196-0.35,0.349-0.631,0.455
				c0.35,0.114,0.616,0.299,0.799,0.554s0.274,0.559,0.274,0.912c0,0.489-0.173,0.899-0.519,1.232s-0.801,0.499-1.364,0.499
				s-1.019-0.167-1.364-0.501s-0.519-0.751-0.519-1.25c0-0.371,0.095-0.683,0.284-0.934S39.222,27.816,39.572,27.726z
				 M39.198,29.177c0,0.2,0.046,0.394,0.139,0.58c0.092,0.188,0.233,0.332,0.423,0.434c0.189,0.104,0.393,0.154,0.608,0.154
				c0.341,0,0.618-0.107,0.835-0.323c0.215-0.215,0.323-0.489,0.323-0.821c0-0.338-0.111-0.616-0.333-0.837
				c-0.223-0.221-0.506-0.331-0.849-0.331c-0.335,0-0.61,0.109-0.825,0.327C39.305,28.577,39.198,28.85,39.198,29.177z
				 M39.432,26.532c0,0.271,0.085,0.492,0.257,0.664c0.171,0.172,0.398,0.258,0.681,0.258c0.274,0,0.497-0.085,0.667-0.256
				c0.17-0.17,0.255-0.379,0.255-0.627c0-0.258-0.088-0.475-0.263-0.65s-0.397-0.264-0.667-0.264c-0.272,0-0.495,0.086-0.669,0.258
				S39.432,26.293,39.432,26.532z"/>
		</g>
		<g i:knockout="Off">
			<path i:knockout="Off" d="M40.714,18.851v-1.375H38.23v-0.641l2.625-3.719h0.563v3.719h0.781v0.641h-0.781v1.375H40.714z
				 M40.714,16.835v-2.567l-1.793,2.567H40.714z"/>
		</g>
		<g i:knockout="Off">
			<path i:knockout="Off" d="M19.766,26.501l-0.703,0.063c-0.063-0.277-0.152-0.479-0.268-0.604
				c-0.191-0.201-0.427-0.302-0.708-0.302c-0.226,0-0.426,0.063-0.602,0.188c-0.218,0.16-0.391,0.396-0.52,0.705
				c-0.128,0.309-0.195,0.75-0.2,1.322c0.17-0.258,0.378-0.449,0.623-0.574c0.246-0.125,0.503-0.188,0.773-0.188
				c0.47,0,0.871,0.173,1.202,0.518c0.331,0.346,0.496,0.791,0.496,1.338c0,0.359-0.078,0.693-0.233,1.002
				c-0.156,0.309-0.369,0.545-0.642,0.709c-0.271,0.164-0.58,0.246-0.925,0.246c-0.588,0-1.068-0.215-1.44-0.646
				c-0.371-0.43-0.557-1.14-0.557-2.129c0-1.105,0.206-1.91,0.617-2.412c0.359-0.438,0.843-0.656,1.451-0.656
				c0.453,0,0.825,0.126,1.114,0.378S19.708,26.057,19.766,26.501z M16.875,28.972c0,0.242,0.052,0.474,0.155,0.694
				c0.104,0.222,0.247,0.39,0.43,0.505c0.183,0.116,0.38,0.174,0.589,0.174c0.304,0,0.562-0.119,0.773-0.359
				c0.212-0.238,0.318-0.563,0.318-0.975c0-0.395-0.104-0.707-0.314-0.934c-0.209-0.229-0.478-0.342-0.805-0.342
				c-0.319,0-0.59,0.113-0.813,0.342C16.987,28.304,16.875,28.603,16.875,28.972z"/>
		</g>
		<g i:knockout="Off">
			<path i:knockout="Off" d="M27.472,25.845v-0.672h3.703v0.544c-0.365,0.388-0.728,0.904-1.086,1.548
				c-0.359,0.645-0.636,1.307-0.832,1.988c-0.141,0.479-0.23,1.005-0.27,1.576h-0.719c0.008-0.451,0.096-0.996,0.266-1.635
				c0.168-0.64,0.41-1.256,0.727-1.85c0.315-0.593,0.651-1.093,1.008-1.5H27.472z"/>
		</g>
		<g i:knockout="Off">
			<path i:knockout="Off" d="M4.886,29.329l0.719-0.063c0.055,0.358,0.182,0.627,0.379,0.808s0.441,0.271,0.729,0.271
				c0.349,0,0.639-0.127,0.871-0.382c0.232-0.254,0.348-0.592,0.348-1.013c0-0.399-0.111-0.715-0.332-0.946
				c-0.222-0.231-0.519-0.347-0.891-0.347c-0.232,0-0.438,0.051-0.617,0.152s-0.322,0.232-0.426,0.395L5.011,28.11l0.563-2.938
				h2.844v0.672H6.132L5.82,27.394c0.344-0.24,0.704-0.361,1.082-0.361c0.5,0,0.922,0.173,1.266,0.52
				c0.344,0.346,0.516,0.791,0.516,1.334c0,0.518-0.151,0.965-0.453,1.343c-0.367,0.463-0.869,0.694-1.504,0.694
				c-0.521,0-0.946-0.146-1.275-0.437C5.121,30.195,4.933,29.81,4.886,29.329z"/>
		</g>
		<path i:knockout="Off" fill="none" stroke="#000000" stroke-width="0.7" d="M34.656,35.433V10.738"/>
		<path i:knockout="Off" fill="none" stroke="#000000" stroke-width="0.7" d="M11.947,35.433V10.785"/>
		<path i:knockout="Off" fill="none" stroke="#000000" stroke-width="1.2" d="M4.406,10.738V0.6H0.611v10.138"/>
		<path i:knockout="Off" fill="none" stroke="#000000" stroke-width="1.2" d="M4.406,10.738V0.6H0.611v10.138"/>
		<path i:knockout="Off" fill="none" stroke="#000000" stroke-width="1.2" d="M45.925,10.738V0.6H42.13v10.138"/>
		<path i:knockout="Off" fill="none" stroke="#000000" stroke-width="1.2" d="M34.671,10.738V3.6H11.857v7.138"/>
		<path i:knockout="Off" fill="none" stroke="#000000" stroke-width="0.7" d="M23.279,35.433V10.738"/>
	</g>
</svg>
