<?xml version="1.0" encoding="utf-8"?>
<!-- Generator: Adobe Illustrator 10.0, SVG Export Plug-In . SVG Version: 3.0.0 Build 77)  -->
<!DOCTYPE svg PUBLIC "-//W3C//DTD SVG 1.0//EN"    "http://www.w3.org/TR/2001/REC-SVG-20010904/DTD/svg10.dtd" [
	<!ENTITY ns_flows "http://ns.adobe.com/Flows/1.0/">
	<!ENTITY ns_extend "http://ns.adobe.com/Extensibility/1.0/">
	<!ENTITY ns_ai "http://ns.adobe.com/AdobeIllustrator/10.0/">
	<!ENTITY ns_graphs "http://ns.adobe.com/Graphs/1.0/">
	<!ENTITY ns_vars "http://ns.adobe.com/Variables/1.0/">
	<!ENTITY ns_imrep "http://ns.adobe.com/ImageReplacement/1.0/">
	<!ENTITY ns_sfw "http://ns.adobe.com/SaveForWeb/1.0/">
	<!ENTITY ns_custom "http://ns.adobe.com/GenericCustomNamespace/1.0/">
	<!ENTITY ns_adobe_xpath "http://ns.adobe.com/XPath/1.0/">
	<!ENTITY ns_svg "http://www.w3.org/2000/svg">
	<!ENTITY ns_xlink "http://www.w3.org/1999/xlink">
]>
<svg xmlns:x="&ns_extend;" xmlns:i="&ns_ai;" xmlns:graph="&ns_graphs;" i:viewOrigin="245.2295 462.0547" i:rulerOrigin="-1 0.1104" i:pageBounds="1 841.8896 596 -0.1104" xmlns="&ns_svg;" xmlns:xlink="&ns_xlink;" xmlns:a="http://ns.adobe.com/AdobeSVGViewerExtensions/3.0/" width="105.778" height="77.173" viewBox="0 0 105.778 77.173" overflow="visible" enable-background="new 0 0 105.778 77.173" xml:space="preserve" id="svgObj" onload="parent.svgLoad('Top', document)">
	<metadata>
		<variableSets xmlns="&ns_vars;">
			<variableSet varSetName="binding1" locked="none">
				<variables></variables>
				<v:sampleDataSets xmlns="&ns_custom;" xmlns:v="&ns_vars;"></v:sampleDataSets>
			</variableSet>
		</variableSets>
		<sfw xmlns="&ns_sfw;">
			<slices></slices>
			<sliceSourceBounds y="384.882" x="245.229" width="105.778" height="77.173" bottomLeftOrigin="true"></sliceSourceBounds>
		</sfw>
	</metadata>
	<g id="レイヤー_1" i:layer="yes" i:dimmedPercent="100" i:rgbTrio="#4F008000FFFF">
		<path i:knockout="Off" fill="none" stroke="#000000" stroke-width="0.5669" d="M30.311,5.927v23.306 M41.651,5.927v23.306
			 M52.991,5.927v23.306"/>
		<path i:knockout="Off" fill="none" stroke="#000000" stroke-width="0.5669" d="M64.297,5.927v23.306"/>
		<g i:knockout="Off">
			<path i:knockout="Off" d="M71.987,11.712l0.766,0.191c-0.159,0.624-0.445,1.099-0.857,1.427
				c-0.413,0.327-0.918,0.491-1.514,0.491c-0.617,0-1.119-0.125-1.506-0.377s-0.682-0.615-0.883-1.092
				c-0.202-0.477-0.303-0.988-0.303-1.535c0-0.596,0.114-1.117,0.342-1.561c0.229-0.444,0.553-0.781,0.974-1.012
				s0.884-0.346,1.39-0.346c0.573,0,1.056,0.146,1.446,0.439c0.392,0.292,0.663,0.703,0.817,1.233l-0.75,0.175
				c-0.133-0.415-0.326-0.717-0.578-0.907c-0.253-0.189-0.57-0.284-0.953-0.284c-0.44,0-0.809,0.105-1.104,0.315
				c-0.296,0.21-0.504,0.493-0.623,0.847c-0.12,0.354-0.18,0.719-0.18,1.096c0,0.485,0.07,0.909,0.213,1.271
				c0.141,0.362,0.361,0.633,0.66,0.812s0.622,0.269,0.971,0.269c0.423,0,0.781-0.122,1.075-0.366S71.884,12.192,71.987,11.712z"/>
		</g>
		<path i:knockout="Off" fill="none" stroke="#000000" stroke-width="0.5669" d="M75.604,5.927v23.306"/>
		<g i:knockout="Off">
			<path i:knockout="Off" d="M83.12,11.712l0.766,0.191c-0.159,0.624-0.445,1.099-0.857,1.427c-0.413,0.327-0.918,0.491-1.514,0.491
				c-0.617,0-1.119-0.125-1.506-0.377s-0.682-0.615-0.883-1.092c-0.202-0.477-0.303-0.988-0.303-1.535
				c0-0.596,0.114-1.117,0.342-1.561c0.229-0.444,0.553-0.781,0.974-1.012s0.884-0.346,1.39-0.346c0.573,0,1.056,0.146,1.446,0.439
				c0.392,0.292,0.663,0.703,0.817,1.233l-0.75,0.175c-0.133-0.415-0.326-0.717-0.578-0.907c-0.253-0.189-0.57-0.284-0.953-0.284
				c-0.44,0-0.809,0.105-1.104,0.315c-0.296,0.21-0.504,0.493-0.623,0.847c-0.12,0.354-0.18,0.719-0.18,1.096
				c0,0.485,0.07,0.909,0.213,1.271c0.141,0.362,0.361,0.633,0.66,0.812s0.622,0.269,0.971,0.269c0.423,0,0.781-0.122,1.075-0.366
				S83.017,12.192,83.12,11.712z"/>
		</g>
		<g i:knockout="Off">
			<path i:knockout="Off" d="M22.288,13.727l2.2-5.734h0.837l2.307,5.734H26.77l-0.654-1.734H23.72l-0.622,1.734H22.288z
				 M23.938,11.368h1.948l-0.597-1.58c-0.178-0.483-0.312-0.879-0.402-1.186c-0.073,0.369-0.179,0.734-0.315,1.094L23.938,11.368z"/>
		</g>
		<g i:knockout="Off">
			<path i:knockout="Off" d="M33.595,13.727l2.2-5.734h0.837l2.307,5.734h-0.862l-0.654-1.734h-2.396l-0.622,1.734H33.595z
				 M35.245,11.368h1.948l-0.597-1.58c-0.178-0.483-0.312-0.879-0.402-1.186c-0.073,0.369-0.179,0.734-0.315,1.094L35.245,11.368z"/>
		</g>
		<g i:knockout="Off">
			<path i:knockout="Off" d="M45.24,13.727V7.993h2.148c0.438,0,0.789,0.058,1.053,0.174s0.471,0.295,0.621,0.537
				c0.15,0.241,0.225,0.494,0.225,0.758c0,0.245-0.067,0.477-0.2,0.693s-0.334,0.392-0.604,0.525
				c0.349,0.102,0.617,0.275,0.804,0.52s0.281,0.534,0.281,0.867c0,0.268-0.057,0.518-0.17,0.748s-0.253,0.408-0.42,0.533
				s-0.376,0.219-0.628,0.283c-0.251,0.064-0.56,0.096-0.924,0.096H45.24z M46.005,10.415h1.233c0.334,0,0.574-0.022,0.719-0.067
				c0.192-0.058,0.337-0.154,0.434-0.289c0.098-0.134,0.146-0.303,0.146-0.505c0-0.192-0.045-0.362-0.136-0.508
				c-0.091-0.146-0.22-0.246-0.389-0.3s-0.458-0.081-0.867-0.081h-1.139V10.415z M46.005,13.055h1.426
				c0.245,0,0.417-0.009,0.516-0.027c0.174-0.031,0.32-0.083,0.438-0.156s0.213-0.179,0.289-0.318s0.113-0.3,0.113-0.482
				c0-0.213-0.057-0.399-0.169-0.557c-0.113-0.158-0.267-0.268-0.46-0.332c-0.193-0.064-0.471-0.096-0.834-0.096h-1.318V13.055z"/>
		</g>
		<g i:knockout="Off">
			<path i:knockout="Off" d="M56.685,13.727V7.993h2.148c0.438,0,0.788,0.058,1.053,0.174c0.264,0.116,0.471,0.295,0.621,0.537
				c0.149,0.241,0.225,0.494,0.225,0.758c0,0.245-0.066,0.477-0.2,0.693s-0.335,0.392-0.604,0.525
				c0.349,0.102,0.617,0.275,0.805,0.52s0.281,0.534,0.281,0.867c0,0.268-0.057,0.518-0.17,0.748s-0.254,0.408-0.42,0.533
				c-0.168,0.125-0.377,0.219-0.628,0.283c-0.252,0.064-0.56,0.096-0.925,0.096H56.685z M57.45,10.415h1.232
				c0.334,0,0.574-0.022,0.72-0.067c0.191-0.058,0.336-0.154,0.434-0.289c0.097-0.134,0.146-0.303,0.146-0.505
				c0-0.192-0.045-0.362-0.137-0.508c-0.09-0.146-0.22-0.246-0.389-0.3c-0.168-0.054-0.457-0.081-0.867-0.081H57.45V10.415z
				 M57.45,13.055h1.426c0.244,0,0.416-0.009,0.516-0.027c0.174-0.031,0.32-0.083,0.438-0.156s0.213-0.179,0.289-0.318
				c0.075-0.139,0.113-0.3,0.113-0.482c0-0.213-0.057-0.399-0.17-0.557s-0.266-0.268-0.459-0.332s-0.472-0.096-0.834-0.096H57.45
				V13.055z"/>
		</g>
		<g i:knockout="Off">
			<path i:knockout="Off" d="M45.172,24.814V19.08h1.973c0.445,0,0.785,0.027,1.02,0.082c0.328,0.076,0.608,0.212,0.84,0.411
				c0.302,0.256,0.528,0.583,0.678,0.98c0.149,0.397,0.225,0.852,0.225,1.363c0,0.436-0.051,0.821-0.152,1.158
				s-0.232,0.615-0.391,0.835c-0.159,0.221-0.333,0.394-0.521,0.521c-0.189,0.126-0.417,0.223-0.684,0.288
				c-0.267,0.065-0.574,0.098-0.92,0.098H45.172z M45.938,24.142h1.22c0.376,0,0.672-0.035,0.887-0.106
				c0.214-0.07,0.385-0.17,0.512-0.298c0.179-0.18,0.319-0.423,0.418-0.727c0.101-0.304,0.15-0.673,0.15-1.108
				c0-0.601-0.098-1.063-0.294-1.386c-0.196-0.322-0.435-0.539-0.715-0.648c-0.203-0.078-0.529-0.118-0.978-0.118h-1.2V24.142z"/>
		</g>
		<g i:knockout="Off">
			<path i:knockout="Off" d="M56.731,24.814V19.08h4.125v0.672h-3.359v1.766h3.141v0.672h-3.141v1.953h3.5v0.672H56.731z"/>
		</g>
		<g i:knockout="Off">
			<path i:knockout="Off" d="M22.762,24.814V19.08h1.973c0.445,0,0.785,0.027,1.02,0.082c0.328,0.076,0.608,0.212,0.84,0.411
				c0.302,0.256,0.528,0.583,0.678,0.98c0.15,0.397,0.225,0.852,0.225,1.363c0,0.436-0.051,0.821-0.152,1.158
				s-0.232,0.615-0.391,0.835c-0.159,0.221-0.333,0.394-0.521,0.521s-0.417,0.223-0.684,0.288s-0.574,0.098-0.92,0.098H22.762z
				 M23.528,24.142h1.22c0.376,0,0.672-0.035,0.886-0.106c0.215-0.07,0.385-0.17,0.513-0.298c0.179-0.18,0.318-0.423,0.419-0.727
				c0.1-0.304,0.15-0.673,0.15-1.108c0-0.601-0.098-1.063-0.294-1.386c-0.196-0.322-0.435-0.539-0.715-0.648
				c-0.203-0.078-0.529-0.118-0.978-0.118h-1.2V24.142z"/>
		</g>
		<g i:knockout="Off">
			<path i:knockout="Off" d="M34.069,24.814V19.08h1.973c0.445,0,0.785,0.027,1.02,0.082c0.328,0.076,0.608,0.212,0.84,0.411
				c0.302,0.256,0.528,0.583,0.678,0.98c0.15,0.397,0.225,0.852,0.225,1.363c0,0.436-0.051,0.821-0.152,1.158
				s-0.232,0.615-0.391,0.835c-0.159,0.221-0.333,0.394-0.521,0.521s-0.417,0.223-0.684,0.288s-0.574,0.098-0.92,0.098H34.069z
				 M34.834,24.142h1.22c0.376,0,0.672-0.035,0.886-0.106c0.215-0.07,0.385-0.17,0.513-0.298c0.179-0.18,0.318-0.423,0.419-0.727
				c0.1-0.304,0.15-0.673,0.15-1.108c0-0.601-0.098-1.063-0.294-1.386c-0.196-0.322-0.435-0.539-0.715-0.648
				c-0.203-0.078-0.529-0.118-0.978-0.118h-1.2V24.142z"/>
		</g>
		<path i:knockout="Off" fill="none" stroke="#000000" stroke-width="0.5669" d="M86.842,5.927v9.343"/>
		<path i:knockout="Off" fill="none" stroke="#000000" stroke-width="1.1339" d="M86.842,15.186V5.927H19.004v9.259"/>
		<g i:knockout="Off">
			<path i:knockout="Off" d="M79.277,24.814V19.08h4.125v0.672h-3.359v1.766h3.141v0.672h-3.141v1.953h3.5v0.672H79.277z"/>
		</g>
		<g i:knockout="Off">
			<path i:knockout="Off" d="M68.146,24.814V19.08h4.125v0.672h-3.359v1.766h3.141v0.672h-3.141v1.953h3.5v0.672H68.146z"/>
		</g>
		<path i:knockout="Off" fill="none" stroke="#000000" stroke-width="1.1339" d="M19.004,15.186v14.047h67.837V15.186"/>
		<path i:knockout="Off" fill="none" stroke="#000000" stroke-width="0.5669" d="M19.004,15.186h67.837 M19.004,17.186h67.837"/>
		<path i:knockout="Off" fill="none" stroke="#000000" stroke-width="1.1339" d="M59.054,5.622V0.567H46.797v5.055"/>
		<path i:knockout="Off" fill="none" stroke="#000000" stroke-width="1.1339" d="M86.842,5.927V1.768h-2.494v4.159"/>
		<path i:knockout="Off" fill="none" stroke="#000000" stroke-width="1.1339" d="M21.5,5.927V1.768h-2.495v4.159"/>
		<path i:knockout="Off" fill="none" stroke="#000000" stroke-width="0.5669" d="M86.842,26.446H19.004"/>
		<path i:knockout="Off" fill="none" stroke="#000000" stroke-width="0.5669" d="M86.842,15.186 M19.004,15.186"/>
		<g>
			<path i:knockout="Off" fill="none" stroke="#000000" d="M30.311,29.233l1.626,2.816h21.014"/>
			<path i:knockout="Off" fill="none" stroke="#000000" d="M75.453,29.214l-1.627,2.816H52.813"/>
		</g>
		<path i:knockout="Off" fill="none" stroke="#000000" stroke-width="2" stroke-linecap="round" stroke-linejoin="round" d="
			M3.617,40.239c0,0-6.202,16.28,0,35.143"/>
		<path i:knockout="Off" fill="none" stroke="#000000" stroke-width="2" stroke-linecap="round" stroke-linejoin="round" d="
			M102.162,40.239c0,0,6.202,16.28,0,35.143"/>
		<g>
			<path i:knockout="Off" fill="none" stroke="#000000" stroke-width="0.5" d="M30.211,47.728v23.305 M41.551,47.728v23.305
				 M52.89,47.728v23.305"/>
			<path i:knockout="Off" fill="none" stroke="#000000" stroke-width="0.5" d="M64.197,47.728v23.305"/>
			<path i:knockout="Off" fill="none" stroke="#000000" stroke-width="0.5" d="M75.504,47.728v23.305"/>
			<path i:knockout="Off" fill="none" stroke="#000000" stroke-width="0.5" d="M86.742,47.728v9.342"/>
			<path i:knockout="Off" fill="none" stroke="#000000" stroke-width="0.5" d="M86.742,56.985v-9.258H18.904v9.258"/>
			<path i:knockout="Off" fill="none" stroke="#000000" stroke-width="0.5" d="M18.904,56.985v14.047h67.838V56.985"/>
			<path i:knockout="Off" fill="none" stroke="#000000" stroke-width="0.5" d="M18.904,56.985h67.838 M18.904,58.985h67.838"/>
			<path i:knockout="Off" fill="none" stroke="#000000" stroke-width="0.5" d="M58.954,47.423v-5.057H46.697v5.057"/>
			<path i:knockout="Off" fill="none" stroke="#000000" stroke-width="0.5" d="M86.742,47.728v-4.16h-2.494v4.16"/>
			<path i:knockout="Off" fill="none" stroke="#000000" stroke-width="0.5" d="M21.399,47.728v-4.16h-2.495v4.16"/>
			<path i:knockout="Off" fill="none" stroke="#000000" stroke-width="0.5" d="M86.742,68.245H18.904"/>
			<path i:knockout="Off" fill="none" stroke="#000000" stroke-width="0.5" d="M86.742,56.985 M18.904,56.985"/>
			<g>
				<path i:knockout="Off" fill="none" stroke="#000000" stroke-width="0.5" d="M30.211,71.032l1.626,2.816h21.014"/>
				<path i:knockout="Off" fill="none" stroke="#000000" stroke-width="0.5" d="M75.354,71.015l-1.627,2.816H52.712"/>
			</g>
		</g>
		<path i:knockout="Off" fill="none" stroke="#000000" d="M89.713,76.673H16.068V40.51h73.645V76.673z"/>
		<path i:knockout="Off" fill="none" stroke="#000000" stroke-width="0.5" d="M24.833,52.702h11.566"/>
		<path i:knockout="Off" fill="none" stroke="#000000" stroke-width="0.5" d="M46.772,52.702h12.193"/>
		<path i:knockout="Off" fill="none" stroke="#000000" stroke-width="0.5" d="M70.127,52.702h10.834"/>
		<path i:knockout="Off" fill="none" stroke="#000000" stroke-width="0.5" d="M58.934,63.831h22.607"/>
		<path i:knockout="Off" fill="none" stroke="#000000" stroke-width="0.5" d="M24.75,63.831h22.525"/>
		<path i:knockout="Off" d="M23.321,63.765c0,0.783,0.635,1.418,1.418,1.418c0.781,0,1.416-0.635,1.416-1.418
			s-0.635-1.418-1.416-1.418C23.956,62.347,23.321,62.981,23.321,63.765z"/>
		<path i:knockout="Off" d="M34.807,63.765c0,0.783,0.635,1.418,1.418,1.418c0.781,0,1.416-0.635,1.416-1.418
			s-0.635-1.418-1.416-1.418C35.442,62.347,34.807,62.981,34.807,63.765z"/>
		<path i:knockout="Off" d="M45.723,63.765c0,0.783,0.635,1.418,1.418,1.418c0.781,0,1.416-0.635,1.416-1.418
			s-0.635-1.418-1.416-1.418C46.358,62.347,45.723,62.981,45.723,63.765z"/>
		<path i:knockout="Off" d="M57.536,63.765c0,0.783,0.635,1.418,1.418,1.418c0.781,0,1.416-0.635,1.416-1.418
			s-0.635-1.418-1.416-1.418C58.171,62.347,57.536,62.981,57.536,63.765z"/>
		<path i:knockout="Off" d="M68.696,63.765c0,0.783,0.635,1.418,1.418,1.418c0.781,0,1.416-0.635,1.416-1.418
			s-0.635-1.418-1.416-1.418C69.331,62.347,68.696,62.981,68.696,63.765z"/>
		<path i:knockout="Off" d="M79.693,63.765c0,0.783,0.635,1.418,1.418,1.418c0.781,0,1.416-0.635,1.416-1.418
			s-0.635-1.418-1.416-1.418C80.328,62.347,79.693,62.981,79.693,63.765z"/>
		<path i:knockout="Off" d="M23.321,52.685c0,0.783,0.635,1.418,1.418,1.418c0.781,0,1.416-0.635,1.416-1.418
			c0-0.781-0.635-1.416-1.416-1.416C23.956,51.269,23.321,51.903,23.321,52.685z"/>
		<path i:knockout="Off" d="M34.807,52.685c0,0.783,0.635,1.418,1.418,1.418c0.781,0,1.416-0.635,1.416-1.418
			c0-0.781-0.635-1.416-1.416-1.416C35.442,51.269,34.807,51.903,34.807,52.685z"/>
		<path i:knockout="Off" d="M45.723,52.685c0,0.783,0.635,1.418,1.418,1.418c0.781,0,1.416-0.635,1.416-1.418
			c0-0.781-0.635-1.416-1.416-1.416C46.358,51.269,45.723,51.903,45.723,52.685z"/>
		<path i:knockout="Off" d="M57.536,52.685c0,0.783,0.635,1.418,1.418,1.418c0.781,0,1.416-0.635,1.416-1.418
			c0-0.781-0.635-1.416-1.416-1.416C58.171,51.269,57.536,51.903,57.536,52.685z"/>
		<path i:knockout="Off" d="M68.696,52.685c0,0.783,0.635,1.418,1.418,1.418c0.781,0,1.416-0.635,1.416-1.418
			c0-0.781-0.635-1.416-1.416-1.416C69.331,51.269,68.696,51.903,68.696,52.685z"/>
		<path i:knockout="Off" d="M79.693,52.685c0,0.783,0.635,1.418,1.418,1.418c0.781,0,1.416-0.635,1.416-1.418
			c0-0.781-0.635-1.416-1.416-1.416C80.328,51.269,79.693,51.903,79.693,52.685z"/>
	</g>
</svg>
