<?xml version="1.0" encoding="utf-8"?>
<!-- Generator: Adobe Illustrator 10.0, SVG Export Plug-In . SVG Version: 3.0.0 Build 77)  -->
<!DOCTYPE svg PUBLIC "-//W3C//DTD SVG 1.0//EN"    "http://www.w3.org/TR/2001/REC-SVG-20010904/DTD/svg10.dtd" [
	<!ENTITY ns_flows "http://ns.adobe.com/Flows/1.0/">
	<!ENTITY ns_extend "http://ns.adobe.com/Extensibility/1.0/">
	<!ENTITY ns_ai "http://ns.adobe.com/AdobeIllustrator/10.0/">
	<!ENTITY ns_graphs "http://ns.adobe.com/Graphs/1.0/">
	<!ENTITY ns_vars "http://ns.adobe.com/Variables/1.0/">
	<!ENTITY ns_imrep "http://ns.adobe.com/ImageReplacement/1.0/">
	<!ENTITY ns_sfw "http://ns.adobe.com/SaveForWeb/1.0/">
	<!ENTITY ns_custom "http://ns.adobe.com/GenericCustomNamespace/1.0/">
	<!ENTITY ns_adobe_xpath "http://ns.adobe.com/XPath/1.0/">
	<!ENTITY ns_svg "http://www.w3.org/2000/svg">
	<!ENTITY ns_xlink "http://www.w3.org/1999/xlink">
]>
<svg xmlns:x="&ns_extend;" xmlns:i="&ns_ai;" xmlns:graph="&ns_graphs;" i:viewOrigin="261.6338 509.8921" i:rulerOrigin="-1 0.1104" i:pageBounds="1 841.8896 596 -0.1104" xmlns="&ns_svg;" xmlns:xlink="&ns_xlink;" xmlns:a="http://ns.adobe.com/AdobeSVGViewerExtensions/3.0/" width="73.638" height="108.852" viewBox="0 0 73.638 108.852" overflow="visible" enable-background="new 0 0 73.638 108.852" xml:space="preserve" id="svgObj" onload="parent.svgLoad('Top', document)">
	<metadata>
		<variableSets xmlns="&ns_vars;">
			<variableSet varSetName="binding1" locked="none">
				<variables></variables>
				<v:sampleDataSets xmlns="&ns_custom;" xmlns:v="&ns_vars;"></v:sampleDataSets>
			</variableSet>
		</variableSets>
		<sfw xmlns="&ns_sfw;">
			<slices></slices>
			<sliceSourceBounds y="388.708" x="257.815" width="80.371" height="125.726" bottomLeftOrigin="true"></sliceSourceBounds>
		</sfw>
	</metadata>
	<g id="connector" i:layer="yes" i:dimmedPercent="50" i:rgbTrio="#FFFF4F00FFFF">
		<g i:knockout="Off">
			<path i:knockout="Off" d="M0.25,69.66v-7.156h5.297v1.219H1.703V65.3h3.578v1.219H1.703v1.922h3.984v1.219H0.25z"/>
			<path i:knockout="Off" d="M6.561,67.774l1.328-0.161c0.042,0.339,0.156,0.599,0.341,0.778s0.409,0.269,0.672,0.269
				c0.282,0,0.52-0.108,0.713-0.326c0.193-0.218,0.29-0.511,0.29-0.88c0-0.349-0.092-0.626-0.277-0.831s-0.41-0.307-0.675-0.307
				c-0.175,0-0.384,0.034-0.626,0.103l0.151-1.103c0.372,0.01,0.656-0.071,0.852-0.242c0.196-0.172,0.294-0.399,0.294-0.684
				c0-0.241-0.072-0.434-0.215-0.577s-0.333-0.216-0.57-0.216c-0.234,0-0.435,0.081-0.6,0.243c-0.166,0.162-0.267,0.399-0.302,0.71
				L6.67,64.336c0.088-0.435,0.22-0.783,0.397-1.043c0.177-0.26,0.424-0.465,0.742-0.613c0.317-0.149,0.673-0.224,1.066-0.224
				c0.673,0,1.213,0.216,1.62,0.646c0.335,0.353,0.503,0.751,0.503,1.195c0,0.63-0.343,1.133-1.029,1.508
				c0.407,0.089,0.732,0.287,0.976,0.595s0.366,0.68,0.366,1.115c0,0.632-0.229,1.171-0.688,1.616S9.594,69.8,8.912,69.8
				c-0.647,0-1.184-0.187-1.609-0.561C6.876,68.867,6.629,68.377,6.561,67.774z"/>
			<path i:knockout="Off" d="M13.357,65.795c-0.355-0.15-0.613-0.357-0.774-0.62c-0.161-0.264-0.242-0.552-0.242-0.865
				c0-0.536,0.185-0.979,0.555-1.329s0.896-0.524,1.578-0.524c0.675,0,1.2,0.175,1.573,0.524s0.56,0.793,0.56,1.329
				c0,0.333-0.086,0.63-0.258,0.89s-0.414,0.458-0.726,0.596c0.398,0.16,0.7,0.394,0.907,0.701c0.207,0.307,0.311,0.662,0.311,1.063
				c0,0.664-0.21,1.203-0.63,1.618S15.233,69.8,14.536,69.8c-0.648,0-1.188-0.171-1.619-0.515c-0.509-0.405-0.763-0.961-0.763-1.667
				c0-0.389,0.096-0.746,0.29-1.071S12.941,65.972,13.357,65.795z M13.513,67.491c0,0.382,0.095,0.681,0.287,0.895
				c0.19,0.214,0.429,0.321,0.715,0.321c0.279,0,0.51-0.103,0.693-0.309s0.274-0.504,0.274-0.893c0-0.339-0.093-0.612-0.279-0.818
				s-0.422-0.309-0.708-0.309c-0.331,0-0.577,0.117-0.739,0.351S13.513,67.217,13.513,67.491z M13.638,64.41
				c0,0.275,0.076,0.49,0.227,0.644s0.353,0.231,0.604,0.231c0.255,0,0.458-0.078,0.612-0.233c0.152-0.155,0.229-0.371,0.229-0.646
				c0-0.259-0.076-0.466-0.227-0.622c-0.151-0.155-0.351-0.233-0.6-0.233c-0.258,0-0.463,0.079-0.616,0.236
				C13.715,63.943,13.638,64.151,13.638,64.41z"/>
			<path i:knockout="Off" d="M21.247,69.66h-1.375v-5.185c-0.5,0.471-1.088,0.818-1.766,1.044v-1.25
				c0.357-0.117,0.746-0.339,1.166-0.667c0.419-0.327,0.707-0.709,0.863-1.146h1.112V69.66z"/>
		</g>
		<g i:knockout="Off">
			<path i:knockout="Off" d="M3.578,4.672V3.453h3.109V6.33C6.385,6.623,5.947,6.88,5.373,7.103
				C4.799,7.326,4.218,7.438,3.629,7.438c-0.748,0-1.399-0.158-1.956-0.473C1.117,6.649,0.699,6.197,0.419,5.61
				C0.14,5.023,0,4.384,0,3.694C0,2.945,0.156,2.28,0.468,1.698c0.313-0.582,0.77-1.029,1.371-1.34C2.297,0.12,2.868,0,3.551,0
				c0.887,0,1.581,0.187,2.08,0.561s0.82,0.89,0.963,1.549L5.156,2.375c-0.101-0.353-0.29-0.63-0.568-0.834
				C4.31,1.336,3.963,1.234,3.547,1.234c-0.631,0-1.132,0.202-1.504,0.605C1.67,2.243,1.484,2.841,1.484,3.635
				c0,0.856,0.189,1.498,0.567,1.926C2.43,5.989,2.925,6.203,3.538,6.203c0.303,0,0.606-0.06,0.911-0.18s0.566-0.265,0.785-0.436
				V4.672H3.578z"/>
			<path i:knockout="Off" d="M7.669,5.412L8.998,5.25C9.04,5.589,9.153,5.849,9.338,6.028c0.185,0.18,0.409,0.269,0.672,0.269
				c0.282,0,0.52-0.109,0.713-0.326c0.193-0.217,0.29-0.511,0.29-0.88c0-0.35-0.092-0.626-0.277-0.831s-0.41-0.307-0.675-0.307
				c-0.175,0-0.384,0.034-0.626,0.103l0.151-1.103c0.372,0.01,0.656-0.071,0.852-0.243c0.196-0.171,0.294-0.398,0.294-0.683
				c0-0.242-0.072-0.435-0.215-0.578s-0.333-0.215-0.57-0.215c-0.234,0-0.435,0.081-0.6,0.243C9.181,1.64,9.08,1.876,9.044,2.188
				L7.779,1.974c0.088-0.435,0.22-0.783,0.397-1.043s0.424-0.464,0.742-0.614c0.317-0.148,0.673-0.223,1.066-0.223
				c0.673,0,1.213,0.215,1.62,0.646c0.335,0.353,0.503,0.751,0.503,1.195c0,0.63-0.343,1.133-1.029,1.509
				c0.407,0.088,0.732,0.286,0.976,0.594s0.366,0.679,0.366,1.115c0,0.633-0.229,1.171-0.688,1.617s-1.029,0.668-1.711,0.668
				c-0.647,0-1.184-0.187-1.609-0.56C7.984,6.503,7.737,6.015,7.669,5.412z"/>
			<path i:knockout="Off" d="M13.231,5.412l1.328-0.162c0.042,0.339,0.156,0.599,0.341,0.778c0.185,0.18,0.409,0.269,0.672,0.269
				c0.282,0,0.52-0.109,0.713-0.326c0.193-0.217,0.29-0.511,0.29-0.88c0-0.35-0.092-0.626-0.277-0.831s-0.409-0.307-0.675-0.307
				c-0.175,0-0.384,0.034-0.626,0.103l0.152-1.103C15.52,2.963,15.804,2.882,16,2.71c0.196-0.171,0.293-0.398,0.293-0.683
				c0-0.242-0.071-0.435-0.214-0.578s-0.333-0.215-0.571-0.215c-0.234,0-0.434,0.081-0.6,0.243c-0.166,0.162-0.267,0.399-0.302,0.71
				L13.34,1.974c0.088-0.435,0.221-0.783,0.398-1.043s0.424-0.464,0.742-0.614c0.317-0.148,0.672-0.223,1.066-0.223
				c0.673,0,1.213,0.215,1.62,0.646c0.335,0.353,0.502,0.751,0.502,1.195c0,0.63-0.343,1.133-1.029,1.509
				c0.407,0.088,0.732,0.286,0.976,0.594s0.366,0.679,0.366,1.115c0,0.633-0.229,1.171-0.688,1.617s-1.029,0.668-1.712,0.668
				c-0.647,0-1.184-0.187-1.609-0.56C13.546,6.503,13.299,6.015,13.231,5.412z"/>
			<path i:knockout="Off" d="M18.793,5.412l1.328-0.162c0.042,0.339,0.156,0.599,0.341,0.778c0.185,0.18,0.409,0.269,0.672,0.269
				c0.282,0,0.52-0.109,0.713-0.326c0.193-0.217,0.29-0.511,0.29-0.88c0-0.35-0.092-0.626-0.277-0.831s-0.41-0.307-0.675-0.307
				c-0.175,0-0.384,0.034-0.626,0.103l0.151-1.103c0.372,0.01,0.656-0.071,0.852-0.243c0.196-0.171,0.294-0.398,0.294-0.683
				c0-0.242-0.072-0.435-0.215-0.578s-0.333-0.215-0.57-0.215c-0.234,0-0.435,0.081-0.6,0.243c-0.166,0.162-0.267,0.399-0.302,0.71
				l-1.266-0.214c0.088-0.435,0.22-0.783,0.397-1.043s0.424-0.464,0.742-0.614c0.317-0.148,0.673-0.223,1.066-0.223
				c0.673,0,1.213,0.215,1.62,0.646c0.335,0.353,0.503,0.751,0.503,1.195c0,0.63-0.343,1.133-1.029,1.509
				c0.407,0.088,0.732,0.286,0.976,0.594s0.366,0.679,0.366,1.115c0,0.633-0.229,1.171-0.688,1.617s-1.029,0.668-1.711,0.668
				c-0.647,0-1.184-0.187-1.609-0.56C19.108,6.503,18.861,6.015,18.793,5.412z"/>
		</g>
	</g>
	<g id="レイヤー_1" i:layer="yes" i:dimmedPercent="100" i:rgbTrio="#4F008000FFFF">
		<path i:knockout="Off" fill="none" stroke="#000000" stroke-width="0.7" stroke-linecap="round" d="M2.938,93.829v-12.34h11.34
			v12.34H2.938z"/>
		<g i:knockout="Off">
			<path i:knockout="Off" d="M10.316,85.442l-0.703,0.063C9.55,85.227,9.461,85.026,9.346,84.9
				c-0.191-0.201-0.428-0.302-0.708-0.302c-0.226,0-0.427,0.063-0.602,0.187c-0.218,0.161-0.391,0.396-0.519,0.705
				c-0.129,0.309-0.195,0.75-0.201,1.323c0.17-0.258,0.377-0.449,0.624-0.574c0.245-0.125,0.503-0.188,0.772-0.188
				c0.471,0,0.871,0.173,1.202,0.518c0.331,0.345,0.496,0.791,0.496,1.338c0,0.359-0.078,0.693-0.233,1.002s-0.37,0.545-0.641,0.709
				c-0.272,0.164-0.581,0.246-0.926,0.246c-0.588,0-1.068-0.215-1.439-0.646c-0.372-0.431-0.557-1.14-0.557-2.129
				c0-1.106,0.206-1.91,0.617-2.413c0.359-0.437,0.842-0.656,1.451-0.656c0.453,0,0.825,0.126,1.114,0.378
				S10.258,84.998,10.316,85.442z M7.425,87.913c0,0.242,0.051,0.474,0.155,0.694c0.104,0.221,0.247,0.39,0.43,0.505
				c0.183,0.116,0.379,0.174,0.589,0.174c0.303,0,0.561-0.12,0.773-0.359c0.212-0.239,0.318-0.564,0.318-0.975
				c0-0.395-0.105-0.707-0.314-0.934c-0.21-0.228-0.478-0.341-0.805-0.341c-0.319,0-0.59,0.114-0.813,0.341
				S7.425,87.543,7.425,87.913z"/>
		</g>
		<path i:knockout="Off" fill="none" stroke="#000000" stroke-width="0.7" d="M70.802,92.233H3.278"/>
		<path i:knockout="Off" fill="none" stroke="#000000" stroke-width="0.7" stroke-linecap="round" d="M14.25,93.829v-12.34h11.34
			v12.34H14.25z"/>
		<g i:knockout="Off">
			<path i:knockout="Off" d="M17.957,88.27l0.719-0.063c0.055,0.358,0.181,0.627,0.379,0.808c0.198,0.181,0.441,0.271,0.729,0.271
				c0.349,0,0.639-0.127,0.871-0.382c0.232-0.254,0.348-0.592,0.348-1.013c0-0.399-0.111-0.715-0.332-0.946
				c-0.221-0.231-0.518-0.347-0.891-0.347c-0.232,0-0.438,0.051-0.617,0.152s-0.322,0.233-0.426,0.395l-0.656-0.094l0.563-2.938
				h2.844v0.672h-2.285l-0.313,1.549c0.344-0.241,0.705-0.361,1.082-0.361c0.5,0,0.922,0.173,1.266,0.519s0.516,0.791,0.516,1.334
				c0,0.518-0.151,0.965-0.453,1.343c-0.367,0.463-0.869,0.694-1.504,0.694c-0.521,0-0.946-0.146-1.275-0.437
				S18.003,88.75,17.957,88.27z"/>
		</g>
		<path i:knockout="Off" fill="none" stroke="#000000" stroke-width="0.7" stroke-linecap="round" d="M25.563,93.829v-12.34h11.34
			v12.34H25.563z"/>
		<g i:knockout="Off">
			<path i:knockout="Off" d="M31.519,89.77v-1.375h-2.484v-0.641l2.625-3.719h0.563v3.719h0.781v0.641h-0.781v1.375H31.519z
				 M31.519,87.754v-2.566l-1.792,2.566H31.519z"/>
		</g>
		<path i:knockout="Off" fill="none" stroke="#000000" stroke-width="0.7" stroke-linecap="round" d="M36.875,93.829v-12.34h11.34
			v12.34H36.875z"/>
		<g i:knockout="Off">
			<path i:knockout="Off" d="M40.597,88.27l0.719-0.094c0.08,0.393,0.215,0.676,0.404,0.85c0.19,0.173,0.426,0.26,0.707,0.26
				c0.333,0,0.611-0.115,0.835-0.344s0.335-0.514,0.335-0.853c0-0.323-0.104-0.59-0.313-0.8c-0.21-0.21-0.476-0.315-0.798-0.315
				c-0.132,0-0.296,0.026-0.492,0.078l0.078-0.625c0.046,0.005,0.083,0.008,0.111,0.008c0.295,0,0.56-0.077,0.795-0.232
				c0.235-0.155,0.354-0.394,0.354-0.717c0-0.255-0.086-0.467-0.26-0.635c-0.172-0.168-0.396-0.252-0.668-0.252
				c-0.271,0-0.497,0.086-0.678,0.258c-0.18,0.172-0.296,0.43-0.348,0.773l-0.719-0.125c0.086-0.471,0.28-0.836,0.584-1.096
				c0.305-0.259,0.683-0.389,1.135-0.389c0.312,0,0.599,0.067,0.861,0.2c0.262,0.134,0.463,0.315,0.602,0.546
				c0.14,0.231,0.209,0.476,0.209,0.735c0,0.246-0.066,0.47-0.199,0.672s-0.33,0.363-0.59,0.482
				c0.338,0.078,0.604,0.241,0.797,0.487c0.192,0.246,0.289,0.555,0.289,0.925c0,0.501-0.183,0.926-0.547,1.273
				c-0.365,0.349-0.826,0.522-1.383,0.522c-0.503,0-0.92-0.147-1.252-0.443S40.644,88.741,40.597,88.27z"/>
		</g>
		<path i:knockout="Off" fill="none" stroke="#000000" stroke-width="0.7" stroke-linecap="round" d="M48.188,93.829v-12.34h11.34
			v12.34H48.188z"/>
		<g i:knockout="Off">
			<path i:knockout="Off" d="M55.59,89.098v0.672h-3.797c-0.005-0.169,0.022-0.332,0.083-0.488c0.097-0.258,0.252-0.511,0.467-0.76
				c0.214-0.249,0.521-0.537,0.92-0.864c0.62-0.516,1.04-0.923,1.262-1.221c0.221-0.298,0.331-0.58,0.331-0.849
				c0-0.278-0.1-0.513-0.3-0.704c-0.199-0.191-0.459-0.287-0.78-0.287c-0.339,0-0.61,0.104-0.813,0.311
				c-0.204,0.208-0.307,0.494-0.31,0.861l-0.719-0.094c0.05-0.539,0.235-0.95,0.558-1.232c0.322-0.282,0.756-0.424,1.3-0.424
				c0.549,0,0.983,0.152,1.304,0.457c0.319,0.305,0.479,0.683,0.479,1.133c0,0.229-0.047,0.455-0.14,0.676
				c-0.094,0.221-0.248,0.454-0.465,0.699c-0.216,0.245-0.576,0.581-1.08,1.009c-0.424,0.355-0.695,0.596-0.815,0.722
				s-0.219,0.253-0.297,0.381H55.59z"/>
		</g>
		<path i:knockout="Off" fill="none" stroke="#000000" stroke-width="0.7" stroke-linecap="round" d="M59.5,93.829v-12.34h11.341
			v12.34H59.5z"/>
		<g i:knockout="Off">
			<path i:knockout="Off" d="M65.863,89.77H65.16v-4.48c-0.169,0.162-0.392,0.323-0.666,0.484c-0.274,0.162-0.521,0.283-0.74,0.363
				v-0.68c0.394-0.185,0.737-0.409,1.031-0.672c0.294-0.263,0.503-0.518,0.625-0.766h0.453V89.77z"/>
		</g>
		<path i:knockout="Off" fill="none" stroke="#000000" stroke-width="0.7" stroke-linecap="round" d="M2.938,106.182V93.84h11.34
			v12.342H2.938z"/>
		<g i:knockout="Off">
			<path i:knockout="Off" d="M7.076,102.122H6.373v-4.48c-0.169,0.162-0.391,0.323-0.666,0.484c-0.275,0.162-0.521,0.283-0.74,0.363
				v-0.68c0.393-0.185,0.737-0.408,1.031-0.672c0.294-0.263,0.502-0.518,0.625-0.766h0.453V102.122z"/>
			<path i:knockout="Off" d="M12.564,101.45v0.672H8.767c-0.005-0.169,0.022-0.332,0.083-0.488c0.098-0.258,0.253-0.511,0.467-0.76
				c0.214-0.248,0.521-0.537,0.92-0.864c0.619-0.517,1.04-0.923,1.261-1.221c0.221-0.298,0.332-0.58,0.332-0.849
				c0-0.277-0.1-0.513-0.299-0.703c-0.2-0.191-0.46-0.287-0.781-0.287c-0.339,0-0.611,0.104-0.814,0.311
				c-0.204,0.208-0.307,0.494-0.309,0.861l-0.719-0.094c0.049-0.539,0.235-0.949,0.558-1.232c0.322-0.282,0.755-0.424,1.299-0.424
				c0.549,0,0.983,0.152,1.303,0.457c0.32,0.305,0.48,0.683,0.48,1.133c0,0.229-0.046,0.455-0.14,0.677
				c-0.093,0.222-0.248,0.454-0.464,0.699c-0.217,0.245-0.577,0.581-1.081,1.009c-0.423,0.355-0.695,0.596-0.814,0.723
				c-0.12,0.126-0.219,0.253-0.297,0.381H12.564z"/>
		</g>
		<path i:knockout="Off" fill="none" stroke="#000000" stroke-width="0.7" d="M70.802,104.323H3.278"/>
		<path i:knockout="Off" fill="none" stroke="#000000" stroke-width="0.7" stroke-linecap="round" d="M14.25,106.182V93.84h11.34
			v12.342H14.25z"/>
		<g i:knockout="Off">
			<path i:knockout="Off" d="M18.388,102.122h-0.703v-4.48c-0.169,0.162-0.391,0.323-0.666,0.484
				c-0.275,0.162-0.521,0.283-0.74,0.363v-0.68c0.393-0.185,0.737-0.408,1.031-0.672c0.294-0.263,0.502-0.518,0.625-0.766h0.453
				V102.122z"/>
			<path i:knockout="Off" d="M22.837,102.122h-0.703v-4.48c-0.169,0.162-0.391,0.323-0.666,0.484
				c-0.275,0.162-0.521,0.283-0.74,0.363v-0.68c0.393-0.185,0.737-0.408,1.031-0.672c0.294-0.263,0.502-0.518,0.625-0.766h0.453
				V102.122z"/>
		</g>
		<path i:knockout="Off" fill="none" stroke="#000000" stroke-width="0.7" stroke-linecap="round" d="M25.563,106.182V93.84h11.34
			v12.342H25.563z"/>
		<g i:knockout="Off">
			<path i:knockout="Off" d="M29.701,102.122h-0.703v-4.48c-0.169,0.162-0.391,0.323-0.666,0.484
				c-0.275,0.162-0.521,0.283-0.74,0.363v-0.68c0.393-0.185,0.737-0.408,1.031-0.672c0.294-0.263,0.502-0.518,0.625-0.766h0.453
				V102.122z"/>
			<path i:knockout="Off" d="M31.494,99.295c0-0.677,0.07-1.223,0.21-1.638s0.35-0.733,0.626-0.954
				c0.277-0.222,0.625-0.332,1.046-0.332c0.31,0,0.583,0.063,0.819,0.186s0.429,0.302,0.579,0.535
				c0.15,0.232,0.268,0.516,0.354,0.851c0.087,0.335,0.13,0.785,0.13,1.353c0,0.672-0.07,1.215-0.208,1.63
				c-0.14,0.415-0.348,0.733-0.625,0.956s-0.627,0.334-1.05,0.334c-0.557,0-0.994-0.195-1.312-0.586
				C31.684,101.149,31.494,100.371,31.494,99.295z M32.212,99.293c0,0.945,0.112,1.572,0.335,1.881s0.5,0.463,0.829,0.463
				s0.604-0.154,0.829-0.465c0.224-0.31,0.335-0.936,0.335-1.879c0-0.942-0.111-1.568-0.333-1.879
				c-0.223-0.31-0.502-0.465-0.839-0.465c-0.328,0-0.592,0.137-0.79,0.41C32.334,97.709,32.212,98.354,32.212,99.293z"/>
		</g>
		<path i:knockout="Off" fill="none" stroke="#000000" stroke-width="0.7" stroke-linecap="round" d="M36.875,106.182V93.84h11.34
			v12.342H36.875z"/>
		<g i:knockout="Off">
			<path i:knockout="Off" d="M40.675,100.793l0.672-0.063c0.057,0.318,0.166,0.549,0.328,0.691c0.161,0.144,0.368,0.215,0.621,0.215
				c0.216,0,0.406-0.049,0.572-0.147c0.165-0.099,0.299-0.229,0.4-0.395s0.188-0.387,0.258-0.667
				c0.07-0.279,0.105-0.565,0.105-0.857c0-0.031-0.002-0.078-0.004-0.141c-0.141,0.225-0.331,0.406-0.573,0.545
				c-0.242,0.14-0.505,0.209-0.787,0.209c-0.472,0-0.87-0.172-1.197-0.516c-0.326-0.345-0.489-0.798-0.489-1.361
				c0-0.581,0.171-1.049,0.514-1.404c0.342-0.354,0.771-0.531,1.287-0.531c0.372,0,0.713,0.101,1.021,0.301s0.543,0.486,0.703,0.856
				c0.16,0.371,0.24,0.907,0.24,1.61c0,0.731-0.08,1.313-0.239,1.747s-0.396,0.763-0.711,0.989c-0.315,0.227-0.685,0.34-1.107,0.34
				c-0.449,0-0.816-0.124-1.101-0.373C40.903,101.594,40.732,101.245,40.675,100.793z M43.565,98.268
				c0-0.404-0.106-0.725-0.319-0.963c-0.212-0.236-0.473-0.355-0.78-0.355c-0.318,0-0.592,0.128-0.822,0.384
				c-0.229,0.255-0.344,0.587-0.344,0.993c0,0.365,0.109,0.662,0.326,0.891c0.219,0.228,0.492,0.342,0.82,0.342
				c0.326,0,0.594-0.114,0.805-0.342C43.46,98.989,43.565,98.672,43.565,98.268z"/>
		</g>
		<path i:knockout="Off" fill="none" stroke="#000000" stroke-width="0.7" stroke-linecap="round" d="M48.188,106.182V93.84h11.34
			v12.342H48.188z"/>
		<g i:knockout="Off">
			<path i:knockout="Off" d="M52.987,99.018c-0.291-0.106-0.507-0.259-0.647-0.457s-0.211-0.436-0.211-0.712
				c0-0.417,0.149-0.767,0.447-1.052c0.299-0.283,0.696-0.426,1.191-0.426c0.498,0,0.899,0.146,1.202,0.436
				c0.305,0.291,0.456,0.645,0.456,1.062c0,0.267-0.069,0.497-0.208,0.694c-0.139,0.196-0.35,0.349-0.631,0.455
				c0.35,0.114,0.616,0.299,0.799,0.554s0.274,0.559,0.274,0.912c0,0.489-0.173,0.899-0.519,1.232s-0.801,0.499-1.364,0.499
				s-1.019-0.167-1.364-0.501s-0.519-0.751-0.519-1.25c0-0.371,0.095-0.683,0.284-0.934S52.638,99.109,52.987,99.018z
				 M52.613,100.469c0,0.2,0.046,0.394,0.139,0.58c0.092,0.188,0.233,0.332,0.423,0.434c0.189,0.104,0.393,0.154,0.608,0.154
				c0.341,0,0.618-0.107,0.835-0.323c0.215-0.215,0.323-0.489,0.323-0.821c0-0.338-0.111-0.616-0.333-0.837
				c-0.223-0.221-0.506-0.331-0.849-0.331c-0.335,0-0.61,0.109-0.825,0.327C52.721,99.87,52.613,100.142,52.613,100.469z
				 M52.848,97.825c0,0.271,0.085,0.492,0.257,0.664c0.171,0.172,0.398,0.258,0.681,0.258c0.274,0,0.497-0.085,0.667-0.256
				c0.17-0.17,0.255-0.379,0.255-0.627c0-0.258-0.088-0.475-0.263-0.65s-0.397-0.264-0.667-0.264c-0.272,0-0.495,0.086-0.669,0.258
				S52.848,97.585,52.848,97.825z"/>
		</g>
		<path i:knockout="Off" fill="none" stroke="#000000" stroke-width="0.7" stroke-linecap="round" d="M59.5,106.182V93.84h11.341
			v12.342H59.5z"/>
		<g i:knockout="Off">
			<path i:knockout="Off" d="M63.254,97.137v-0.672h3.703v0.544c-0.365,0.388-0.728,0.904-1.086,1.548
				c-0.358,0.645-0.636,1.307-0.831,1.988c-0.142,0.479-0.231,1.005-0.271,1.576h-0.719c0.008-0.451,0.097-0.996,0.265-1.635
				c0.17-0.64,0.412-1.256,0.728-1.85c0.315-0.593,0.651-1.093,1.008-1.5H63.254z"/>
		</g>
		<path i:knockout="Off" fill="none" stroke="#000000" stroke-width="0.7" stroke-linecap="round" d="M70.841,106.182V81.438H2.942
			v24.744H70.841z"/>
		<path i:knockout="Off" fill="none" stroke="#000000" stroke-width="1.2" stroke-linecap="round" d="M73.038,108.252V79.847H0.958
			v28.405H73.038z"/>
		<path i:knockout="Off" fill="none" stroke="#000000" stroke-width="1.2" stroke-linecap="round" d="M25.583,79.847v-5.359h22.743
			v5.359"/>
		<path i:knockout="Off" fill="none" stroke="#000000" stroke-width="1.2" stroke-linecap="round" d="M52.942,79.557V74.8h2.547
			v4.757"/>
		<path i:knockout="Off" fill="none" stroke="#000000" stroke-width="1.2" stroke-linecap="round" d="M18.192,79.557V74.8h2.546
			v4.757"/>
		<path i:knockout="Off" fill="none" stroke="#000000" stroke-width="1.2" stroke-linecap="round" d="M2.943,79.557v-2.788h2.25
			v2.788"/>
		<path i:knockout="Off" fill="none" stroke="#000000" stroke-width="1.2" stroke-linecap="round" d="M68.599,79.662v-2.893h2.25
			v2.893"/>
		<path i:knockout="Off" fill="none" stroke="#000000" stroke-width="0.7" stroke-linecap="round" d="M2.636,33.318V20.977h11.34
			v12.341H2.636z"/>
		<g i:knockout="Off">
			<path i:knockout="Off" d="M8.998,29.257H8.295v-4.48c-0.169,0.162-0.392,0.323-0.666,0.484c-0.275,0.162-0.521,0.283-0.74,0.363
				v-0.68c0.393-0.185,0.737-0.409,1.031-0.672c0.294-0.263,0.502-0.518,0.625-0.766h0.453V29.257z"/>
		</g>
		<path i:knockout="Off" fill="none" stroke="#000000" stroke-width="0.7" stroke-linecap="round" d="M13.851,31.231H2.976"/>
		<path i:knockout="Off" fill="none" stroke="#000000" stroke-width="0.7" stroke-linecap="round" d="M13.948,33.318V20.977h11.34
			v12.341H13.948z"/>
		<g i:knockout="Off">
			<path i:knockout="Off" d="M21.35,28.585v0.672h-3.797c-0.005-0.169,0.022-0.332,0.083-0.488c0.097-0.258,0.252-0.511,0.467-0.76
				c0.214-0.249,0.521-0.537,0.92-0.864c0.62-0.516,1.04-0.923,1.261-1.221s0.332-0.58,0.332-0.849c0-0.278-0.1-0.513-0.299-0.704
				s-0.46-0.287-0.781-0.287c-0.339,0-0.61,0.104-0.814,0.311s-0.307,0.494-0.309,0.861l-0.719-0.094
				c0.049-0.539,0.235-0.95,0.558-1.232c0.323-0.282,0.756-0.424,1.3-0.424c0.549,0,0.983,0.152,1.303,0.457s0.48,0.683,0.48,1.133
				c0,0.229-0.047,0.455-0.14,0.676c-0.094,0.221-0.248,0.454-0.465,0.699c-0.216,0.245-0.576,0.581-1.081,1.009
				c-0.423,0.355-0.695,0.596-0.815,0.722c-0.12,0.126-0.219,0.253-0.297,0.381H21.35z"/>
		</g>
		<path i:knockout="Off" fill="none" stroke="#000000" stroke-width="0.7" stroke-linecap="round" d="M25.163,31.231H14.288"/>
		<path i:knockout="Off" fill="none" stroke="#000000" stroke-width="0.7" stroke-linecap="round" d="M25.261,33.318V20.977h11.34
			v12.341H25.261z"/>
		<g i:knockout="Off">
			<path i:knockout="Off" d="M28.982,27.757l0.719-0.094c0.08,0.393,0.215,0.676,0.405,0.85c0.19,0.173,0.425,0.26,0.707,0.26
				c0.333,0,0.611-0.115,0.835-0.344c0.223-0.229,0.335-0.514,0.335-0.853c0-0.323-0.104-0.59-0.313-0.8
				c-0.209-0.21-0.476-0.315-0.798-0.315c-0.132,0-0.296,0.026-0.492,0.078l0.078-0.625c0.046,0.005,0.083,0.008,0.112,0.008
				c0.294,0,0.56-0.077,0.795-0.232c0.235-0.155,0.354-0.394,0.354-0.717c0-0.255-0.086-0.467-0.259-0.635s-0.396-0.252-0.669-0.252
				c-0.271,0-0.497,0.086-0.677,0.258c-0.181,0.172-0.296,0.43-0.348,0.773l-0.719-0.125c0.086-0.471,0.28-0.836,0.584-1.096
				c0.304-0.259,0.682-0.389,1.134-0.389c0.312,0,0.599,0.067,0.861,0.2c0.262,0.134,0.463,0.315,0.602,0.546
				c0.139,0.231,0.208,0.476,0.208,0.735c0,0.246-0.066,0.47-0.199,0.672s-0.33,0.363-0.59,0.482
				c0.338,0.078,0.604,0.241,0.797,0.487c0.192,0.246,0.289,0.555,0.289,0.925c0,0.501-0.183,0.926-0.547,1.273
				c-0.365,0.349-0.826,0.522-1.383,0.522c-0.503,0-0.92-0.147-1.252-0.443S29.029,28.228,28.982,27.757z"/>
		</g>
		<path i:knockout="Off" fill="none" stroke="#000000" stroke-width="0.7" stroke-linecap="round" d="M36.476,31.231H25.601"/>
		<path i:knockout="Off" fill="none" stroke="#000000" stroke-width="0.7" stroke-linecap="round" d="M36.573,33.318V20.977h11.341
			v12.341H36.573z"/>
		<g i:knockout="Off">
			<path i:knockout="Off" d="M42.529,29.257v-1.375h-2.484v-0.641l2.625-3.719h0.563v3.719h0.781v0.641h-0.781v1.375H42.529z
				 M42.529,27.242v-2.566l-1.792,2.566H42.529z"/>
		</g>
		<path i:knockout="Off" fill="none" stroke="#000000" stroke-width="0.7" stroke-linecap="round" d="M47.789,31.231H36.913"/>
		<path i:knockout="Off" fill="none" stroke="#000000" stroke-width="0.7" stroke-linecap="round" d="M47.886,33.318V20.977h11.341
			v12.341H47.886z"/>
		<g i:knockout="Off">
			<path i:knockout="Off" d="M51.592,27.757l0.719-0.063c0.055,0.358,0.182,0.627,0.38,0.808c0.197,0.181,0.44,0.271,0.729,0.271
				c0.35,0,0.64-0.127,0.871-0.382c0.232-0.254,0.349-0.592,0.349-1.013c0-0.399-0.11-0.715-0.332-0.946
				c-0.222-0.231-0.519-0.347-0.891-0.347c-0.231,0-0.438,0.051-0.617,0.152s-0.321,0.233-0.426,0.395l-0.656-0.094l0.563-2.938
				h2.844v0.672h-2.285l-0.313,1.549c0.344-0.241,0.704-0.361,1.082-0.361c0.5,0,0.922,0.173,1.266,0.519s0.516,0.791,0.516,1.334
				c0,0.518-0.151,0.965-0.453,1.343c-0.367,0.463-0.868,0.694-1.504,0.694c-0.521,0-0.946-0.146-1.275-0.437
				S51.639,28.238,51.592,27.757z"/>
		</g>
		<path i:knockout="Off" fill="none" stroke="#000000" stroke-width="0.7" stroke-linecap="round" d="M59.102,31.231H48.227"/>
		<path i:knockout="Off" fill="none" stroke="#000000" stroke-width="0.7" stroke-linecap="round" d="M59.198,33.318V20.977h11.341
			v12.341H59.198z"/>
		<g i:knockout="Off">
			<path i:knockout="Off" d="M66.576,24.929l-0.703,0.063c-0.063-0.277-0.152-0.479-0.268-0.604
				c-0.191-0.201-0.427-0.302-0.708-0.302c-0.226,0-0.426,0.063-0.602,0.187c-0.218,0.161-0.391,0.396-0.52,0.705
				c-0.128,0.309-0.195,0.75-0.2,1.323c0.17-0.258,0.378-0.449,0.623-0.574c0.246-0.125,0.503-0.188,0.772-0.188
				c0.471,0,0.871,0.173,1.202,0.518c0.331,0.345,0.496,0.791,0.496,1.338c0,0.359-0.078,0.693-0.233,1.002
				c-0.156,0.309-0.369,0.545-0.642,0.709c-0.271,0.164-0.58,0.246-0.925,0.246c-0.589,0-1.068-0.215-1.44-0.646
				c-0.371-0.431-0.557-1.14-0.557-2.129c0-1.106,0.206-1.91,0.617-2.413c0.358-0.437,0.843-0.656,1.45-0.656
				c0.453,0,0.825,0.126,1.115,0.378C66.345,24.137,66.519,24.485,66.576,24.929z M63.686,27.4c0,0.242,0.052,0.474,0.155,0.694
				c0.104,0.221,0.246,0.39,0.43,0.505c0.184,0.116,0.38,0.174,0.589,0.174c0.304,0,0.562-0.12,0.773-0.359s0.318-0.564,0.318-0.975
				c0-0.395-0.104-0.707-0.314-0.934c-0.209-0.228-0.478-0.341-0.805-0.341c-0.319,0-0.591,0.114-0.813,0.341
				C63.797,26.732,63.686,27.031,63.686,27.4z"/>
		</g>
		<path i:knockout="Off" fill="none" stroke="#000000" stroke-width="0.7" stroke-linecap="round" d="M70.414,31.231H59.539"/>
		<path i:knockout="Off" fill="none" stroke="#000000" stroke-width="0.7" stroke-linecap="round" d="M2.636,45.669V33.33h11.34
			v12.34H2.636z"/>
		<g i:knockout="Off">
			<path i:knockout="Off" d="M6.389,36.626v-0.672h3.703v0.544c-0.365,0.388-0.728,0.904-1.086,1.548
				c-0.359,0.645-0.636,1.307-0.832,1.988c-0.141,0.48-0.231,1.005-0.27,1.577H7.186c0.008-0.451,0.096-0.996,0.265-1.635
				s0.411-1.255,0.727-1.849c0.315-0.593,0.651-1.093,1.008-1.5H6.389z"/>
		</g>
		<path i:knockout="Off" fill="none" stroke="#000000" stroke-width="0.7" stroke-linecap="round" d="M13.851,43.373H2.976"/>
		<path i:knockout="Off" fill="none" stroke="#000000" stroke-width="0.7" stroke-linecap="round" d="M13.948,45.669V33.33h11.34
			v12.34H13.948z"/>
		<g i:knockout="Off">
			<path i:knockout="Off" d="M18.748,38.507c-0.292-0.106-0.507-0.259-0.648-0.457s-0.211-0.436-0.211-0.712
				c0-0.417,0.149-0.767,0.447-1.051c0.299-0.284,0.696-0.426,1.191-0.426c0.498,0,0.899,0.146,1.203,0.436s0.456,0.644,0.456,1.061
				c0,0.266-0.069,0.497-0.208,0.694c-0.139,0.196-0.349,0.349-0.631,0.455c0.35,0.114,0.617,0.299,0.799,0.554
				s0.274,0.559,0.274,0.912c0,0.489-0.173,0.899-0.519,1.232s-0.8,0.499-1.364,0.499s-1.019-0.167-1.364-0.501
				s-0.519-0.75-0.519-1.25c0-0.371,0.095-0.683,0.284-0.934S18.397,38.598,18.748,38.507z M18.373,39.958
				c0,0.2,0.046,0.394,0.139,0.58c0.092,0.187,0.233,0.332,0.423,0.434c0.189,0.103,0.393,0.154,0.608,0.154
				c0.341,0,0.619-0.107,0.834-0.323c0.216-0.215,0.324-0.489,0.324-0.821c0-0.337-0.111-0.616-0.333-0.837
				s-0.505-0.331-0.848-0.331c-0.335,0-0.61,0.109-0.825,0.327S18.373,39.631,18.373,39.958z M18.607,37.314
				c0,0.271,0.085,0.492,0.257,0.664c0.171,0.172,0.398,0.258,0.681,0.258c0.275,0,0.497-0.085,0.667-0.256
				c0.17-0.17,0.255-0.379,0.255-0.627c0-0.258-0.088-0.475-0.263-0.65s-0.397-0.264-0.667-0.264c-0.272,0-0.495,0.086-0.669,0.258
				S18.607,37.075,18.607,37.314z"/>
		</g>
		<path i:knockout="Off" fill="none" stroke="#000000" stroke-width="0.7" stroke-linecap="round" d="M25.163,43.373H14.288"/>
		<path i:knockout="Off" fill="none" stroke="#000000" stroke-width="0.7" stroke-linecap="round" d="M25.261,45.669V33.33h11.34
			v12.34H25.261z"/>
		<g i:knockout="Off">
			<path i:knockout="Off" d="M29.061,40.283l0.672-0.063c0.057,0.318,0.167,0.548,0.328,0.691c0.161,0.144,0.368,0.215,0.621,0.215
				c0.216,0,0.407-0.049,0.572-0.147c0.165-0.099,0.299-0.23,0.4-0.395s0.188-0.387,0.258-0.667c0.07-0.28,0.105-0.565,0.105-0.857
				c0-0.031-0.001-0.078-0.004-0.141c-0.14,0.224-0.331,0.406-0.573,0.545c-0.242,0.14-0.505,0.209-0.787,0.209
				c-0.472,0-0.871-0.172-1.197-0.516c-0.326-0.344-0.489-0.797-0.489-1.361c0-0.581,0.171-1.049,0.514-1.404
				c0.342-0.354,0.771-0.532,1.287-0.532c0.372,0,0.713,0.101,1.021,0.301s0.543,0.486,0.703,0.856c0.16,0.371,0.24,0.908,0.24,1.61
				c0,0.731-0.08,1.313-0.239,1.747s-0.396,0.763-0.711,0.989c-0.315,0.227-0.684,0.34-1.107,0.34c-0.449,0-0.816-0.124-1.101-0.373
				C29.289,41.083,29.118,40.733,29.061,40.283z M31.951,37.757c0-0.404-0.106-0.725-0.319-0.962
				c-0.212-0.237-0.473-0.356-0.78-0.356c-0.318,0-0.592,0.128-0.822,0.384c-0.229,0.255-0.344,0.586-0.344,0.993
				c0,0.365,0.109,0.662,0.327,0.89s0.491,0.342,0.82,0.342c0.326,0,0.594-0.114,0.804-0.342S31.951,38.162,31.951,37.757z"/>
		</g>
		<path i:knockout="Off" fill="none" stroke="#000000" stroke-width="0.7" stroke-linecap="round" d="M36.476,43.373H25.601"/>
		<path i:knockout="Off" fill="none" stroke="#000000" stroke-width="0.7" stroke-linecap="round" d="M36.573,45.669V33.33h11.341
			v12.34H36.573z"/>
		<g i:knockout="Off">
			<path i:knockout="Off" d="M40.711,41.611h-0.703v-4.48c-0.169,0.162-0.392,0.323-0.666,0.484
				c-0.274,0.162-0.521,0.283-0.74,0.363v-0.68c0.394-0.185,0.737-0.409,1.031-0.672c0.294-0.263,0.503-0.518,0.625-0.766h0.453
				V41.611z"/>
			<path i:knockout="Off" d="M42.504,38.785c0-0.677,0.07-1.223,0.211-1.638c0.14-0.415,0.349-0.733,0.626-0.954
				c0.277-0.222,0.626-0.332,1.046-0.332c0.31,0,0.583,0.062,0.819,0.186s0.43,0.302,0.579,0.535s0.268,0.517,0.354,0.851
				c0.086,0.334,0.13,0.785,0.13,1.353c0,0.671-0.069,1.215-0.209,1.63c-0.139,0.415-0.347,0.734-0.624,0.956
				c-0.277,0.223-0.627,0.334-1.05,0.334c-0.557,0-0.994-0.195-1.312-0.585C42.694,40.638,42.504,39.86,42.504,38.785z
				 M43.223,38.783c0,0.945,0.112,1.572,0.336,1.881s0.499,0.463,0.828,0.463c0.328,0,0.604-0.155,0.828-0.465
				c0.224-0.31,0.336-0.936,0.336-1.879c0-0.942-0.111-1.569-0.334-1.879c-0.223-0.31-0.502-0.465-0.838-0.465
				c-0.329,0-0.592,0.137-0.791,0.41C43.345,37.198,43.223,37.843,43.223,38.783z"/>
		</g>
		<path i:knockout="Off" fill="none" stroke="#000000" stroke-width="0.7" stroke-linecap="round" d="M47.789,43.373H36.913"/>
		<path i:knockout="Off" fill="none" stroke="#000000" stroke-width="0.7" stroke-linecap="round" d="M47.886,45.669V33.33h11.341
			v12.34H47.886z"/>
		<g i:knockout="Off">
			<path i:knockout="Off" d="M52.023,41.611H51.32v-4.48c-0.169,0.162-0.392,0.323-0.666,0.484c-0.274,0.162-0.521,0.283-0.74,0.363
				v-0.68c0.394-0.185,0.737-0.409,1.031-0.672c0.294-0.263,0.503-0.518,0.625-0.766h0.453V41.611z"/>
			<path i:knockout="Off" d="M56.473,41.611H55.77v-4.48c-0.169,0.162-0.392,0.323-0.666,0.484c-0.274,0.162-0.521,0.283-0.74,0.363
				v-0.68c0.394-0.185,0.737-0.409,1.031-0.672c0.294-0.263,0.503-0.518,0.625-0.766h0.453V41.611z"/>
		</g>
		<path i:knockout="Off" fill="none" stroke="#000000" stroke-width="0.7" stroke-linecap="round" d="M59.102,43.373H48.227"/>
		<path i:knockout="Off" fill="none" stroke="#000000" stroke-width="0.7" stroke-linecap="round" d="M59.198,45.669V33.33h11.341
			v12.34H59.198z"/>
		<g i:knockout="Off">
			<path i:knockout="Off" d="M63.336,41.611h-0.703v-4.48c-0.169,0.162-0.392,0.323-0.666,0.484
				c-0.274,0.162-0.521,0.283-0.74,0.363v-0.68c0.394-0.185,0.737-0.409,1.031-0.672c0.294-0.263,0.503-0.518,0.625-0.766h0.453
				V41.611z"/>
			<path i:knockout="Off" d="M68.824,40.939v0.672h-3.797c-0.005-0.169,0.022-0.332,0.083-0.488c0.097-0.258,0.252-0.511,0.467-0.76
				c0.214-0.249,0.521-0.537,0.92-0.864c0.62-0.516,1.04-0.923,1.262-1.221c0.221-0.298,0.331-0.58,0.331-0.849
				c0-0.278-0.1-0.513-0.3-0.704c-0.199-0.191-0.459-0.287-0.78-0.287c-0.339,0-0.61,0.104-0.813,0.311
				c-0.204,0.208-0.307,0.494-0.31,0.861l-0.719-0.094c0.05-0.539,0.235-0.95,0.558-1.232c0.322-0.282,0.756-0.424,1.3-0.424
				c0.549,0,0.983,0.152,1.304,0.457c0.319,0.305,0.479,0.683,0.479,1.133c0,0.229-0.047,0.455-0.14,0.676
				c-0.094,0.221-0.248,0.454-0.465,0.699c-0.216,0.245-0.576,0.581-1.08,1.009c-0.424,0.355-0.695,0.596-0.815,0.722
				s-0.219,0.253-0.297,0.381H68.824z"/>
		</g>
		<path i:knockout="Off" fill="none" stroke="#000000" stroke-width="0.7" stroke-linecap="round" d="M70.414,43.373H59.539"/>
		<path i:knockout="Off" fill="none" stroke="#000000" stroke-width="1.2" stroke-linecap="round" d="M25.281,20.99V15.63h22.743
			v5.359"/>
		<path i:knockout="Off" fill="none" stroke="#000000" stroke-width="1.2" stroke-linecap="round" d="M52.641,20.7v-4.757h2.547
			V20.7"/>
		<path i:knockout="Off" fill="none" stroke="#000000" stroke-width="1.2" stroke-linecap="round" d="M17.891,20.7v-4.757h2.546
			V20.7"/>
		<path i:knockout="Off" fill="none" stroke="#000000" stroke-width="1.2" stroke-linecap="round" d="M2.641,20.7v-2.788h2.25V20.7"/>
		<path i:knockout="Off" fill="none" stroke="#000000" stroke-width="1.2" stroke-linecap="round" d="M68.297,20.804v-2.893h2.25
			v2.893"/>
		<path i:knockout="Off" fill="none" stroke="#000000" stroke-width="1.2" stroke-linecap="round" d="M70.539,45.669V20.927H2.641
			v24.742H70.539z"/>
	</g>
</svg>
