<?xml version="1.0" encoding="utf-8"?>
<!-- Generator: Adobe Illustrator 10.0, SVG Export Plug-In . SVG Version: 3.0.0 Build 77)  -->
<!DOCTYPE svg PUBLIC "-//W3C//DTD SVG 1.0//EN"    "http://www.w3.org/TR/2001/REC-SVG-20010904/DTD/svg10.dtd" [
	<!ENTITY ns_flows "http://ns.adobe.com/Flows/1.0/">
	<!ENTITY ns_extend "http://ns.adobe.com/Extensibility/1.0/">
	<!ENTITY ns_ai "http://ns.adobe.com/AdobeIllustrator/10.0/">
	<!ENTITY ns_graphs "http://ns.adobe.com/Graphs/1.0/">
	<!ENTITY ns_vars "http://ns.adobe.com/Variables/1.0/">
	<!ENTITY ns_imrep "http://ns.adobe.com/ImageReplacement/1.0/">
	<!ENTITY ns_sfw "http://ns.adobe.com/SaveForWeb/1.0/">
	<!ENTITY ns_custom "http://ns.adobe.com/GenericCustomNamespace/1.0/">
	<!ENTITY ns_adobe_xpath "http://ns.adobe.com/XPath/1.0/">
	<!ENTITY ns_svg "http://www.w3.org/2000/svg">
	<!ENTITY ns_xlink "http://www.w3.org/1999/xlink">
]>
<svg xmlns:x="&ns_extend;" xmlns:i="&ns_ai;" xmlns:graph="&ns_graphs;" i:viewOrigin="261.6343 509.8916" i:rulerOrigin="-1 0.1104" i:pageBounds="1 841.8896 596 -0.1104" xmlns="&ns_svg;" xmlns:xlink="&ns_xlink;" xmlns:a="http://ns.adobe.com/AdobeSVGViewerExtensions/3.0/" width="62.84" height="103.162" viewBox="0 0 62.84 103.162" overflow="visible" enable-background="new 0 0 62.84 103.162" xml:space="preserve" id="svgObj" onload="parent.svgLoad('Top', document)">
	<metadata>
		<variableSets xmlns="&ns_vars;">
			<variableSet varSetName="binding1" locked="none">
				<variables></variables>
				<v:sampleDataSets xmlns="&ns_custom;" xmlns:v="&ns_vars;"></v:sampleDataSets>
			</variableSet>
		</variableSets>
		<sfw xmlns="&ns_sfw;">
			<slices></slices>
			<sliceSourceBounds y="388.708" x="257.815" width="80.371" height="125.725" bottomLeftOrigin="true"></sliceSourceBounds>
		</sfw>
	</metadata>
	<g id="connector" i:layer="yes" i:dimmedPercent="50" i:rgbTrio="#FFFF4F00FFFF">
		<g i:knockout="Off">
			<path i:knockout="Off" d="M0.25,69.659v-7.156h5.297v1.219H1.703V65.3h3.578v1.219H1.703v1.922h3.984v1.219H0.25z"/>
			<path i:knockout="Off" d="M6.561,67.773l1.328-0.161c0.042,0.339,0.156,0.599,0.341,0.778s0.409,0.269,0.672,0.269
				c0.282,0,0.52-0.108,0.713-0.326c0.193-0.218,0.29-0.511,0.29-0.88c0-0.349-0.092-0.626-0.277-0.831s-0.41-0.307-0.675-0.307
				c-0.175,0-0.384,0.034-0.626,0.103l0.151-1.103c0.372,0.01,0.656-0.071,0.852-0.242c0.196-0.172,0.294-0.399,0.294-0.684
				c0-0.241-0.072-0.434-0.215-0.577s-0.333-0.216-0.57-0.216c-0.234,0-0.435,0.081-0.6,0.243c-0.166,0.162-0.267,0.399-0.302,0.71
				L6.67,64.336c0.088-0.435,0.22-0.783,0.397-1.043c0.177-0.26,0.424-0.465,0.742-0.613c0.317-0.149,0.673-0.224,1.066-0.224
				c0.673,0,1.213,0.216,1.62,0.646c0.335,0.353,0.503,0.751,0.503,1.195c0,0.63-0.343,1.133-1.029,1.508
				c0.407,0.089,0.732,0.287,0.976,0.595s0.366,0.68,0.366,1.115c0,0.632-0.229,1.171-0.688,1.616S9.594,69.8,8.911,69.8
				c-0.647,0-1.184-0.187-1.609-0.561C6.875,68.866,6.628,68.377,6.561,67.773z"/>
			<path i:knockout="Off" d="M13.356,65.795c-0.355-0.15-0.613-0.357-0.774-0.62c-0.161-0.264-0.242-0.552-0.242-0.865
				c0-0.536,0.185-0.979,0.555-1.329s0.896-0.524,1.578-0.524c0.675,0,1.2,0.175,1.573,0.524s0.56,0.793,0.56,1.329
				c0,0.333-0.086,0.63-0.258,0.89s-0.414,0.458-0.726,0.596c0.398,0.16,0.7,0.394,0.907,0.701c0.207,0.307,0.311,0.662,0.311,1.063
				c0,0.664-0.21,1.203-0.63,1.618S15.233,69.8,14.536,69.8c-0.648,0-1.188-0.171-1.619-0.515c-0.509-0.405-0.763-0.961-0.763-1.667
				c0-0.389,0.096-0.746,0.29-1.071S12.94,65.971,13.356,65.795z M13.513,67.49c0,0.382,0.095,0.681,0.287,0.895
				c0.19,0.214,0.429,0.321,0.715,0.321c0.279,0,0.51-0.103,0.693-0.309s0.274-0.504,0.274-0.893c0-0.339-0.093-0.612-0.279-0.818
				s-0.422-0.309-0.708-0.309c-0.331,0-0.577,0.117-0.739,0.351S13.513,67.217,13.513,67.49z M13.638,64.41
				c0,0.275,0.076,0.49,0.227,0.644s0.353,0.231,0.604,0.231c0.255,0,0.458-0.078,0.612-0.233c0.152-0.155,0.229-0.371,0.229-0.646
				c0-0.259-0.076-0.466-0.227-0.622c-0.151-0.155-0.351-0.233-0.6-0.233c-0.258,0-0.463,0.079-0.616,0.236
				C13.714,63.943,13.638,64.151,13.638,64.41z"/>
			<path i:knockout="Off" d="M22.371,68.378v1.281h-4.813c0.052-0.482,0.208-0.94,0.469-1.372c0.261-0.433,0.776-1.006,1.545-1.721
				c0.619-0.577,0.999-0.969,1.139-1.174c0.189-0.284,0.284-0.564,0.284-0.842c0-0.307-0.083-0.542-0.249-0.707
				c-0.166-0.165-0.395-0.247-0.687-0.247c-0.289,0-0.519,0.087-0.69,0.261c-0.171,0.173-0.27,0.461-0.296,0.864l-1.375-0.138
				c0.082-0.758,0.339-1.303,0.771-1.633s0.972-0.495,1.62-0.495c0.71,0,1.268,0.191,1.673,0.572s0.608,0.855,0.608,1.423
				c0,0.323-0.058,0.63-0.173,0.922s-0.299,0.598-0.55,0.917c-0.167,0.212-0.467,0.517-0.903,0.914
				c-0.436,0.398-0.712,0.662-0.828,0.792s-0.209,0.257-0.281,0.381H22.371z"/>
		</g>
		<g i:knockout="Off">
			<path i:knockout="Off" d="M3.578,4.672V3.453h3.109V6.33C6.385,6.623,5.947,6.881,5.373,7.104
				C4.799,7.326,4.217,7.438,3.629,7.438c-0.748,0-1.4-0.158-1.956-0.474C1.117,6.648,0.699,6.197,0.419,5.61
				C0.14,5.023,0,4.385,0,3.694C0,2.945,0.156,2.28,0.468,1.697c0.312-0.582,0.769-1.028,1.37-1.339C2.297,0.119,2.868,0,3.55,0
				c0.888,0,1.581,0.187,2.08,0.561s0.82,0.89,0.963,1.549L5.156,2.375C5.055,2.022,4.866,1.744,4.588,1.54
				C4.31,1.336,3.963,1.234,3.547,1.234c-0.631,0-1.133,0.202-1.505,0.605S1.484,2.842,1.484,3.635c0,0.856,0.189,1.499,0.567,1.927
				c0.378,0.428,0.874,0.642,1.486,0.642c0.303,0,0.607-0.06,0.912-0.18c0.305-0.12,0.566-0.265,0.785-0.436V4.672H3.578z"/>
			<path i:knockout="Off" d="M7.669,5.411L8.998,5.25C9.04,5.589,9.153,5.849,9.338,6.028s0.409,0.269,0.672,0.269
				c0.282,0,0.52-0.108,0.713-0.326c0.193-0.218,0.29-0.511,0.29-0.88c0-0.349-0.092-0.626-0.277-0.831s-0.41-0.307-0.675-0.307
				c-0.175,0-0.384,0.034-0.626,0.103l0.151-1.103c0.372,0.01,0.656-0.071,0.852-0.242c0.196-0.172,0.294-0.399,0.294-0.684
				c0-0.241-0.072-0.434-0.215-0.577s-0.333-0.216-0.57-0.216c-0.234,0-0.435,0.081-0.6,0.243C9.181,1.64,9.08,1.876,9.044,2.188
				L7.779,1.974c0.088-0.435,0.22-0.783,0.397-1.043c0.177-0.26,0.424-0.465,0.742-0.613c0.317-0.149,0.673-0.224,1.066-0.224
				c0.673,0,1.213,0.216,1.62,0.646c0.335,0.353,0.503,0.751,0.503,1.195c0,0.63-0.343,1.133-1.029,1.508
				c0.407,0.089,0.732,0.287,0.976,0.595s0.366,0.68,0.366,1.115c0,0.632-0.229,1.171-0.688,1.616s-1.029,0.668-1.711,0.668
				c-0.647,0-1.184-0.187-1.609-0.561C7.984,6.504,7.737,6.015,7.669,5.411z"/>
			<path i:knockout="Off" d="M13.231,5.411l1.328-0.161c0.042,0.339,0.156,0.599,0.341,0.778s0.409,0.269,0.672,0.269
				c0.282,0,0.52-0.108,0.713-0.326c0.193-0.218,0.29-0.511,0.29-0.88c0-0.349-0.092-0.626-0.277-0.831s-0.409-0.307-0.675-0.307
				c-0.175,0-0.384,0.034-0.626,0.103l0.152-1.103C15.52,2.963,15.804,2.882,16,2.711c0.196-0.172,0.293-0.399,0.293-0.684
				c0-0.241-0.071-0.434-0.214-0.577s-0.333-0.216-0.571-0.216c-0.234,0-0.434,0.081-0.6,0.243c-0.166,0.162-0.267,0.399-0.302,0.71
				L13.34,1.974c0.088-0.435,0.221-0.783,0.398-1.043c0.177-0.26,0.424-0.465,0.742-0.613c0.317-0.149,0.672-0.224,1.066-0.224
				c0.673,0,1.213,0.216,1.62,0.646c0.335,0.353,0.502,0.751,0.502,1.195c0,0.63-0.343,1.133-1.029,1.508
				c0.407,0.089,0.732,0.287,0.976,0.595s0.366,0.68,0.366,1.115c0,0.632-0.229,1.171-0.688,1.616s-1.029,0.668-1.712,0.668
				c-0.647,0-1.184-0.187-1.609-0.561C13.546,6.504,13.299,6.015,13.231,5.411z"/>
			<path i:knockout="Off" d="M21.527,7.297V5.859h-2.922V4.661l3.098-4.552h1.152v4.547h0.891v1.203h-0.891v1.438H21.527z
				 M21.527,4.656V2.224L19.89,4.656H21.527z"/>
		</g>
	</g>
	<g id="レイヤー_1" i:layer="yes" i:dimmedPercent="100" i:rgbTrio="#4F008000FFFF">
		<path i:knockout="Off" fill="none" stroke="#000000" stroke-width="1.2" d="M14.887,84.36v-3.5h-2.625v3.5"/>
		<path i:knockout="Off" fill="none" stroke="#000000" stroke-width="1.2" d="M62.241,84.36v-3.5h-2.625v3.5"/>
		<path i:knockout="Off" fill="none" stroke="#000000" stroke-width="0.7" d="M14.496,97.949h45.472V86.604H14.496V97.949z"/>
		<path i:knockout="Off" fill="none" stroke="#000000" stroke-width="1.2" d="M12.222,99.871h50.019V84.643H12.222V99.871z"/>
		<path i:knockout="Off" fill="none" stroke="#000000" stroke-width="0.7" d="M25.902,86.604v11.346 M37.277,86.604v11.346
			 M48.622,86.604v11.346"/>
		<g i:knockout="Off">
			<path i:knockout="Off" d="M55.084,94.268h-0.703v-4.48c-0.17,0.162-0.392,0.323-0.666,0.484c-0.275,0.162-0.521,0.283-0.74,0.363
				v-0.68c0.393-0.185,0.736-0.409,1.031-0.672c0.294-0.263,0.502-0.518,0.625-0.766h0.453V94.268z"/>
		</g>
		<g i:knockout="Off">
			<path i:knockout="Off" d="M44.718,93.596v0.672h-3.797c-0.005-0.169,0.022-0.332,0.083-0.488c0.097-0.258,0.252-0.511,0.467-0.76
				c0.214-0.248,0.521-0.537,0.92-0.864c0.62-0.517,1.04-0.923,1.262-1.221c0.221-0.298,0.331-0.58,0.331-0.849
				c0-0.278-0.1-0.513-0.3-0.704c-0.199-0.191-0.459-0.287-0.78-0.287c-0.339,0-0.61,0.104-0.813,0.311
				c-0.204,0.208-0.307,0.494-0.31,0.861l-0.719-0.094c0.05-0.539,0.235-0.95,0.558-1.232c0.322-0.282,0.756-0.424,1.3-0.424
				c0.549,0,0.983,0.152,1.304,0.457c0.319,0.305,0.479,0.683,0.479,1.133c0,0.229-0.047,0.455-0.14,0.677
				c-0.094,0.222-0.248,0.454-0.465,0.699c-0.216,0.245-0.576,0.581-1.08,1.009c-0.424,0.355-0.695,0.596-0.815,0.723
				c-0.12,0.126-0.219,0.253-0.297,0.381H44.718z"/>
		</g>
		<g i:knockout="Off">
			<path i:knockout="Off" d="M20.43,94.268v-1.375h-2.484v-0.641l2.625-3.719h0.563v3.719h0.781v0.641h-0.781v1.375H20.43z
				 M20.43,92.252v-2.566l-1.792,2.566H20.43z"/>
			<path i:knockout="Off" d="M29.573,92.768l0.719-0.094c0.08,0.393,0.215,0.676,0.405,0.85c0.19,0.173,0.425,0.26,0.707,0.26
				c0.333,0,0.611-0.115,0.834-0.344c0.223-0.23,0.335-0.515,0.335-0.854c0-0.323-0.104-0.59-0.313-0.801
				c-0.209-0.209-0.475-0.314-0.798-0.314c-0.132,0-0.296,0.026-0.492,0.078l0.078-0.625c0.046,0.006,0.083,0.008,0.112,0.008
				c0.294,0,0.56-0.077,0.795-0.232c0.236-0.154,0.354-0.394,0.354-0.717c0-0.255-0.086-0.467-0.259-0.635s-0.396-0.252-0.669-0.252
				c-0.271,0-0.496,0.086-0.677,0.258s-0.296,0.43-0.348,0.773l-0.719-0.125c0.086-0.471,0.281-0.836,0.584-1.096
				c0.304-0.259,0.682-0.389,1.134-0.389c0.312,0,0.599,0.067,0.861,0.2c0.262,0.134,0.463,0.315,0.602,0.546
				c0.139,0.231,0.208,0.476,0.208,0.735c0,0.246-0.066,0.47-0.199,0.673c-0.133,0.201-0.33,0.362-0.59,0.481
				c0.338,0.078,0.604,0.241,0.797,0.487s0.289,0.555,0.289,0.925c0,0.501-0.182,0.926-0.547,1.273
				c-0.365,0.349-0.826,0.522-1.383,0.522c-0.502,0-0.92-0.147-1.252-0.443S29.62,93.238,29.573,92.768z"/>
		</g>
		<g>
			<path i:knockout="Off" fill="none" stroke="#000000" stroke-width="1.2" d="M44.002,84.61v-4.691H29.667v4.691"/>
		</g>
		<g>
			<path i:knockout="Off" fill="none" stroke="#000000" stroke-width="1.2" d="M25.667,99.871v2.691h23.336v-2.691"/>
		</g>
		<path i:knockout="Off" fill="none" stroke="#000000" stroke-width="0.7" d="M14.569,96.102h44.966"/>
		<path i:knockout="Off" fill="none" stroke="#000000" stroke-width="1.2" d="M12.222,84.643h-3.5v2.625h3.5"/>
		<path i:knockout="Off" fill="none" stroke="#000000" stroke-width="1.2" stroke-linecap="round" d="M58.942,34.396V20.623H13.588
			v13.773H58.942z"/>
		<path i:knockout="Off" fill="none" stroke="#000000" stroke-width="1.2" stroke-linecap="round" d="M58.942,20.624V17.79h-2.143
			v2.834H58.942z"/>
		<path i:knockout="Off" fill="none" stroke="#000000" stroke-width="0.7" stroke-linecap="round" d="M24.927,31.962V20.623H13.588
			v11.339H24.927z"/>
		<path i:knockout="Off" fill="none" stroke="#000000" stroke-width="0.7" stroke-linecap="round" d="M36.266,31.962V20.623H24.927
			v11.339H36.266z"/>
		<g i:knockout="Off">
			<path i:knockout="Off" d="M20.104,28.792H19.4v-4.48c-0.169,0.162-0.391,0.323-0.666,0.484c-0.275,0.162-0.521,0.283-0.74,0.363
				v-0.68c0.393-0.185,0.737-0.409,1.031-0.672c0.294-0.263,0.502-0.518,0.625-0.766h0.453V28.792z"/>
		</g>
		<g i:knockout="Off">
			<path i:knockout="Off" d="M32.308,28.12v0.672h-3.797c-0.005-0.169,0.022-0.332,0.083-0.488c0.097-0.258,0.252-0.511,0.467-0.76
				c0.214-0.249,0.521-0.537,0.92-0.864c0.62-0.516,1.04-0.923,1.261-1.221s0.332-0.58,0.332-0.849c0-0.278-0.1-0.513-0.299-0.704
				s-0.46-0.287-0.781-0.287c-0.339,0-0.61,0.104-0.814,0.311s-0.307,0.494-0.309,0.861l-0.719-0.094
				c0.049-0.539,0.235-0.95,0.558-1.232c0.323-0.282,0.756-0.424,1.3-0.424c0.549,0,0.983,0.152,1.303,0.457s0.48,0.683,0.48,1.133
				c0,0.229-0.047,0.455-0.14,0.676c-0.094,0.221-0.248,0.454-0.465,0.699c-0.216,0.245-0.576,0.581-1.081,1.009
				c-0.423,0.355-0.695,0.596-0.815,0.722c-0.12,0.126-0.219,0.253-0.297,0.381H32.308z"/>
		</g>
		<path i:knockout="Off" fill="none" stroke="#000000" stroke-width="0.7" stroke-linecap="round" d="M24.927,31.962v2.435"/>
		<path i:knockout="Off" fill="none" stroke="#000000" stroke-width="0.7" stroke-linecap="round" d="M47.604,31.962V20.624H36.266
			v11.338H47.604z"/>
		<g i:knockout="Off">
			<path i:knockout="Off" d="M39.966,27.292l0.719-0.094c0.08,0.393,0.215,0.676,0.405,0.85c0.189,0.173,0.425,0.26,0.706,0.26
				c0.333,0,0.611-0.115,0.835-0.344c0.223-0.229,0.335-0.514,0.335-0.853c0-0.323-0.104-0.59-0.313-0.8s-0.476-0.315-0.798-0.315
				c-0.132,0-0.296,0.026-0.492,0.078l0.077-0.625c0.047,0.005,0.084,0.008,0.112,0.008c0.294,0,0.56-0.077,0.795-0.232
				c0.235-0.155,0.354-0.394,0.354-0.717c0-0.255-0.087-0.467-0.259-0.635c-0.174-0.168-0.396-0.252-0.67-0.252
				c-0.271,0-0.496,0.086-0.676,0.258c-0.182,0.172-0.297,0.43-0.349,0.773l-0.719-0.125c0.086-0.471,0.28-0.836,0.585-1.096
				c0.304-0.259,0.682-0.389,1.134-0.389c0.312,0,0.599,0.067,0.861,0.2c0.263,0.134,0.463,0.315,0.603,0.546
				c0.139,0.231,0.208,0.476,0.208,0.735c0,0.246-0.066,0.47-0.199,0.672s-0.329,0.363-0.59,0.482
				c0.339,0.078,0.604,0.241,0.797,0.487c0.192,0.246,0.289,0.555,0.289,0.925c0,0.501-0.183,0.926-0.547,1.273
				c-0.364,0.349-0.825,0.522-1.383,0.522c-0.503,0-0.92-0.147-1.252-0.443S40.013,27.763,39.966,27.292z"/>
		</g>
		<path i:knockout="Off" fill="none" stroke="#000000" stroke-width="0.7" stroke-linecap="round" d="M58.942,31.962V20.624H47.604
			v11.338H58.942z"/>
		<g i:knockout="Off">
			<path i:knockout="Off" d="M53.539,28.792v-1.375h-2.484v-0.641l2.625-3.719h0.563v3.719h0.781v0.641h-0.781v1.375H53.539z
				 M53.539,26.776V24.21l-1.792,2.566H53.539z"/>
		</g>
		<path i:knockout="Off" fill="none" stroke="#000000" stroke-width="0.7" stroke-linecap="round" d="M13.588,31.962v2.435"/>
		<path i:knockout="Off" fill="none" stroke="#000000" stroke-width="0.7" stroke-linecap="round" d="M36.266,31.962v2.435"/>
		<path i:knockout="Off" fill="none" stroke="#000000" stroke-width="0.7" stroke-linecap="round" d="M47.604,31.962v2.435"/>
		<path i:knockout="Off" fill="none" stroke="#000000" stroke-width="1.2" stroke-linecap="round" d="M15.73,20.623v-2.834h-2.143
			v2.834H15.73z"/>
		<path i:knockout="Off" fill="none" stroke="#000000" stroke-width="1.2" stroke-linecap="round" d="M61.777,20.624h-2.835v2.143
			h2.835V20.624z"/>
		<path i:knockout="Off" fill="none" stroke="#000000" stroke-width="1.2" stroke-linecap="round" d="M44.619,20.623v-4.834H27.927
			v4.834H44.619z"/>
	</g>
</svg>
