<?xml version="1.0" encoding="utf-8"?>
<!-- Generator: Adobe Illustrator 10.0, SVG Export Plug-In . SVG Version: 3.0.0 Build 77)  -->
<!DOCTYPE svg PUBLIC "-//W3C//DTD SVG 1.0//EN"    "http://www.w3.org/TR/2001/REC-SVG-20010904/DTD/svg10.dtd" [
	<!ENTITY ns_flows "http://ns.adobe.com/Flows/1.0/">
	<!ENTITY ns_extend "http://ns.adobe.com/Extensibility/1.0/">
	<!ENTITY ns_ai "http://ns.adobe.com/AdobeIllustrator/10.0/">
	<!ENTITY ns_graphs "http://ns.adobe.com/Graphs/1.0/">
	<!ENTITY ns_vars "http://ns.adobe.com/Variables/1.0/">
	<!ENTITY ns_imrep "http://ns.adobe.com/ImageReplacement/1.0/">
	<!ENTITY ns_sfw "http://ns.adobe.com/SaveForWeb/1.0/">
	<!ENTITY ns_custom "http://ns.adobe.com/GenericCustomNamespace/1.0/">
	<!ENTITY ns_adobe_xpath "http://ns.adobe.com/XPath/1.0/">
	<!ENTITY ns_svg "http://www.w3.org/2000/svg">
	<!ENTITY ns_xlink "http://www.w3.org/1999/xlink">
]>
<svg xmlns:x="&ns_extend;" xmlns:i="&ns_ai;" xmlns:graph="&ns_graphs;" i:viewOrigin="221.9487 447.5293" i:rulerOrigin="-1 0.1104" i:pageBounds="1 841.8896 596 -0.1104" xmlns="&ns_svg;" xmlns:xlink="&ns_xlink;" xmlns:a="http://ns.adobe.com/AdobeSVGViewerExtensions/3.0/" width="141.655" height="115.736" viewBox="0 0 141.655 115.736" overflow="visible" enable-background="new 0 0 141.655 115.736" xml:space="preserve" id="svgObj" onload="parent.svgLoad('Top', document)">
	<metadata>
		<variableSets xmlns="&ns_vars;">
			<variableSet varSetName="binding1" locked="none">
				<variables></variables>
				<v:sampleDataSets xmlns="&ns_custom;" xmlns:v="&ns_vars;"></v:sampleDataSets>
			</variableSet>
		</variableSets>
		<sfw xmlns="&ns_sfw;">
			<slices></slices>
			<sliceSourceBounds y="326.348" x="218.13" width="159.74" height="125.723" bottomLeftOrigin="true"></sliceSourceBounds>
		</sfw>
	</metadata>
	<g id="connector" i:layer="yes" i:dimmedPercent="50" i:rgbTrio="#FFFF4F00FFFF">
		<g i:knockout="Off">
			<path i:knockout="Off" d="M3.578,4.672V3.453h3.109V6.33C6.385,6.623,5.947,6.881,5.373,7.104
				C4.799,7.326,4.217,7.438,3.629,7.438c-0.748,0-1.4-0.158-1.956-0.474C1.117,6.648,0.699,6.197,0.419,5.61
				C0.14,5.023,0,4.385,0,3.694C0,2.945,0.156,2.28,0.468,1.697c0.312-0.582,0.769-1.028,1.37-1.339C2.297,0.119,2.868,0,3.55,0
				c0.888,0,1.581,0.187,2.08,0.561s0.82,0.89,0.963,1.549L5.156,2.375C5.055,2.022,4.866,1.744,4.588,1.54
				C4.31,1.336,3.963,1.234,3.547,1.234c-0.631,0-1.133,0.202-1.505,0.605S1.484,2.842,1.484,3.635c0,0.856,0.189,1.499,0.567,1.927
				c0.378,0.428,0.874,0.642,1.486,0.642c0.303,0,0.607-0.06,0.912-0.18c0.305-0.12,0.566-0.265,0.785-0.436V4.672H3.578z"/>
			<path i:knockout="Off" d="M7.669,5.411L8.998,5.25C9.04,5.589,9.153,5.849,9.338,6.028s0.409,0.269,0.672,0.269
				c0.282,0,0.52-0.108,0.713-0.326c0.193-0.218,0.29-0.511,0.29-0.88c0-0.349-0.092-0.626-0.277-0.831s-0.41-0.307-0.675-0.307
				c-0.175,0-0.384,0.034-0.626,0.103l0.151-1.103c0.372,0.01,0.656-0.071,0.852-0.242c0.196-0.172,0.294-0.399,0.294-0.684
				c0-0.241-0.072-0.434-0.215-0.577s-0.333-0.216-0.57-0.216c-0.234,0-0.435,0.081-0.6,0.243C9.181,1.64,9.08,1.876,9.044,2.188
				L7.779,1.974c0.088-0.435,0.22-0.783,0.397-1.043c0.177-0.26,0.424-0.465,0.742-0.613c0.317-0.149,0.673-0.224,1.066-0.224
				c0.673,0,1.213,0.216,1.62,0.646c0.335,0.353,0.503,0.751,0.503,1.195c0,0.63-0.343,1.133-1.029,1.508
				c0.407,0.089,0.732,0.287,0.976,0.595s0.366,0.68,0.366,1.115c0,0.632-0.229,1.171-0.688,1.616s-1.029,0.668-1.711,0.668
				c-0.647,0-1.184-0.187-1.609-0.561C7.984,6.504,7.737,6.015,7.669,5.411z"/>
			<path i:knockout="Off" d="M13.231,5.411l1.328-0.161c0.042,0.339,0.156,0.599,0.341,0.778s0.409,0.269,0.672,0.269
				c0.282,0,0.52-0.108,0.713-0.326c0.193-0.218,0.29-0.511,0.29-0.88c0-0.349-0.092-0.626-0.277-0.831s-0.409-0.307-0.675-0.307
				c-0.175,0-0.384,0.034-0.626,0.103l0.152-1.103C15.52,2.963,15.804,2.882,16,2.711c0.196-0.172,0.293-0.399,0.293-0.684
				c0-0.241-0.071-0.434-0.214-0.577s-0.333-0.216-0.571-0.216c-0.234,0-0.434,0.081-0.6,0.243c-0.166,0.162-0.267,0.399-0.302,0.71
				L13.34,1.974c0.088-0.435,0.221-0.783,0.398-1.043c0.177-0.26,0.424-0.465,0.742-0.613c0.317-0.149,0.672-0.224,1.066-0.224
				c0.673,0,1.213,0.216,1.62,0.646c0.335,0.353,0.502,0.751,0.502,1.195c0,0.63-0.343,1.133-1.029,1.508
				c0.407,0.089,0.732,0.287,0.976,0.595s0.366,0.68,0.366,1.115c0,0.632-0.229,1.171-0.688,1.616s-1.029,0.668-1.712,0.668
				c-0.647,0-1.184-0.187-1.609-0.561C13.546,6.504,13.299,6.015,13.231,5.411z"/>
			<path i:knockout="Off" d="M18.855,5.484l1.375-0.141c0.039,0.308,0.155,0.551,0.348,0.73c0.193,0.18,0.416,0.27,0.668,0.27
				c0.288,0,0.531-0.118,0.731-0.353s0.3-0.59,0.3-1.064c0-0.444-0.101-0.777-0.303-1c-0.202-0.222-0.465-0.333-0.788-0.333
				c-0.404,0-0.766,0.172-1.086,0.516L18.996,3.95l0.703-3.716h3.672v1.281H20.74l-0.228,1.206C20.823,2.574,21.141,2.5,21.465,2.5
				c0.619,0,1.143,0.223,1.573,0.667S23.684,4.19,23.684,4.9c0,0.592-0.171,1.12-0.514,1.585c-0.467,0.635-1.115,0.952-1.944,0.952
				c-0.663,0-1.203-0.177-1.621-0.529C19.187,6.555,18.937,6.081,18.855,5.484z"/>
		</g>
		<g i:knockout="Off">
			<path i:knockout="Off" d="M0.25,69.659v-7.156h5.297v1.219H1.703V65.3h3.578v1.219H1.703v1.922h3.984v1.219H0.25z"/>
			<path i:knockout="Off" d="M6.561,67.773l1.328-0.161c0.042,0.34,0.156,0.599,0.341,0.777c0.185,0.18,0.409,0.27,0.672,0.27
				c0.282,0,0.52-0.108,0.713-0.326c0.193-0.218,0.29-0.511,0.29-0.881c0-0.349-0.092-0.626-0.277-0.83s-0.41-0.307-0.675-0.307
				c-0.175,0-0.384,0.034-0.626,0.103l0.151-1.103c0.372,0.01,0.656-0.071,0.852-0.242c0.196-0.172,0.294-0.399,0.294-0.684
				c0-0.241-0.072-0.434-0.215-0.577s-0.333-0.216-0.57-0.216c-0.234,0-0.435,0.081-0.6,0.243c-0.166,0.162-0.267,0.399-0.302,0.71
				L6.67,64.336c0.088-0.435,0.22-0.782,0.397-1.043c0.177-0.26,0.424-0.465,0.742-0.613c0.317-0.149,0.673-0.224,1.066-0.224
				c0.673,0,1.213,0.216,1.62,0.646c0.335,0.353,0.503,0.751,0.503,1.195c0,0.63-0.343,1.133-1.029,1.508
				c0.407,0.089,0.732,0.287,0.976,0.595s0.366,0.68,0.366,1.115c0,0.632-0.229,1.171-0.688,1.616S9.594,69.8,8.912,69.8
				c-0.647,0-1.184-0.187-1.609-0.561C6.876,68.866,6.629,68.377,6.561,67.773z"/>
			<path i:knockout="Off" d="M13.357,65.795c-0.355-0.15-0.613-0.357-0.774-0.62c-0.161-0.264-0.242-0.552-0.242-0.865
				c0-0.536,0.185-0.979,0.555-1.329s0.896-0.524,1.578-0.524c0.675,0,1.2,0.175,1.573,0.524c0.373,0.35,0.56,0.793,0.56,1.329
				c0,0.333-0.086,0.63-0.258,0.89s-0.414,0.458-0.726,0.596c0.398,0.16,0.701,0.394,0.908,0.701
				c0.207,0.307,0.311,0.661,0.311,1.063c0,0.664-0.21,1.203-0.63,1.617c-0.42,0.416-0.979,0.623-1.675,0.623
				c-0.648,0-1.188-0.172-1.619-0.515c-0.509-0.405-0.764-0.961-0.764-1.667c0-0.389,0.097-0.746,0.29-1.071
				S12.941,65.972,13.357,65.795z M13.513,67.49c0,0.382,0.096,0.681,0.286,0.895c0.191,0.214,0.43,0.321,0.715,0.321
				c0.279,0,0.51-0.103,0.693-0.309c0.183-0.206,0.274-0.504,0.274-0.893c0-0.34-0.093-0.611-0.279-0.818
				c-0.186-0.205-0.422-0.309-0.708-0.309c-0.331,0-0.577,0.117-0.739,0.352C13.594,66.963,13.513,67.217,13.513,67.49z
				 M13.638,64.409c0,0.275,0.075,0.49,0.227,0.645c0.151,0.153,0.353,0.23,0.604,0.23c0.255,0,0.459-0.078,0.611-0.233
				c0.153-0.155,0.229-0.371,0.229-0.646c0-0.26-0.076-0.467-0.227-0.622s-0.351-0.233-0.599-0.233
				c-0.258,0-0.464,0.078-0.616,0.236C13.714,63.942,13.638,64.151,13.638,64.409z"/>
			<path i:knockout="Off" d="M17.684,67.773l1.328-0.161c0.042,0.34,0.156,0.599,0.341,0.777c0.185,0.18,0.409,0.27,0.672,0.27
				c0.282,0,0.52-0.108,0.713-0.326c0.193-0.218,0.29-0.511,0.29-0.881c0-0.349-0.092-0.626-0.277-0.83s-0.409-0.307-0.675-0.307
				c-0.175,0-0.384,0.034-0.626,0.103l0.152-1.103c0.372,0.01,0.656-0.071,0.852-0.242c0.196-0.172,0.293-0.399,0.293-0.684
				c0-0.241-0.071-0.434-0.214-0.577s-0.333-0.216-0.571-0.216c-0.234,0-0.434,0.081-0.6,0.243c-0.166,0.162-0.267,0.399-0.302,0.71
				l-1.266-0.214c0.088-0.435,0.221-0.782,0.398-1.043c0.177-0.26,0.424-0.465,0.742-0.613c0.317-0.149,0.672-0.224,1.066-0.224
				c0.673,0,1.213,0.216,1.62,0.646c0.335,0.353,0.502,0.751,0.502,1.195c0,0.63-0.343,1.133-1.029,1.508
				c0.407,0.089,0.732,0.287,0.976,0.595s0.366,0.68,0.366,1.115c0,0.632-0.229,1.171-0.688,1.616S20.717,69.8,20.035,69.8
				c-0.647,0-1.184-0.187-1.609-0.561C18,68.866,17.752,68.377,17.684,67.773z"/>
		</g>
	</g>
	<g id="レイヤー_1" i:layer="yes" i:dimmedPercent="100" i:rgbTrio="#4F008000FFFF">
		<g>
			<path i:knockout="Off" fill="none" stroke="#000000" stroke-width="0.5" d="M14.309,34.631h124.333"/>
			<path i:knockout="Off" fill="none" stroke="#000000" stroke-width="0.5" d="M27.494,48.14V21.123"/>
			<path i:knockout="Off" fill="none" stroke="#000000" stroke-width="0.5" d="M39.654,48.14V21.123"/>
			<path i:knockout="Off" fill="none" stroke="#000000" stroke-width="0.5" d="M51.812,48.14V21.123"/>
			<path i:knockout="Off" fill="none" stroke="#000000" stroke-width="0.5" d="M63.972,48.14V21.123"/>
			<path i:knockout="Off" fill="none" stroke="#000000" stroke-width="0.5" d="M76.129,48.14V21.123"/>
			<path i:knockout="Off" fill="none" stroke="#000000" stroke-width="0.5" d="M88.288,48.14V21.123"/>
			<path i:knockout="Off" fill="none" stroke="#000000" stroke-width="0.5" d="M100.448,48.14V21.123"/>
			<path i:knockout="Off" fill="none" stroke="#000000" stroke-width="0.5" d="M112.606,48.14V21.123"/>
			<path i:knockout="Off" fill="none" stroke="#000000" stroke-width="0.5" d="M124.764,48.14V21.123"/>
			<g i:knockout="Off">
				<path i:knockout="Off" d="M129.866,29.863h-0.617v-3.927c-0.147,0.142-0.342,0.283-0.581,0.425s-0.455,0.248-0.646,0.318v-0.596
					c0.344-0.162,0.644-0.358,0.9-0.589s0.438-0.454,0.546-0.671h0.397V29.863z"/>
				<path i:knockout="Off" d="M131.446,27.389c0-0.594,0.062-1.072,0.184-1.435c0.121-0.363,0.303-0.642,0.543-0.837
					s0.542-0.292,0.906-0.292c0.27,0,0.506,0.054,0.709,0.163c0.204,0.108,0.372,0.265,0.503,0.469
					c0.131,0.204,0.233,0.453,0.309,0.746c0.075,0.293,0.112,0.688,0.112,1.187c0,0.589-0.06,1.064-0.181,1.428
					c-0.12,0.363-0.301,0.643-0.541,0.839s-0.544,0.294-0.911,0.294c-0.482,0-0.861-0.172-1.137-0.517
					C131.612,29.013,131.446,28.331,131.446,27.389z M132.079,27.387c0,0.827,0.097,1.376,0.289,1.647s0.43,0.407,0.711,0.407
					c0.282,0,0.52-0.136,0.712-0.409c0.192-0.272,0.288-0.821,0.288-1.646c0-0.826-0.096-1.375-0.287-1.647
					c-0.191-0.272-0.432-0.408-0.719-0.408c-0.283,0-0.509,0.12-0.678,0.359C132.184,25.998,132.079,26.563,132.079,27.387z"/>
			</g>
			<g i:knockout="Off">
				<path i:knockout="Off" d="M20.068,43.247h-0.617V39.32c-0.148,0.142-0.341,0.283-0.581,0.425s-0.455,0.248-0.646,0.318v-0.596
					c0.343-0.162,0.644-0.358,0.9-0.589s0.439-0.454,0.545-0.671h0.398V43.247z"/>
				<path i:knockout="Off" d="M23.961,43.247h-0.617V39.32c-0.147,0.142-0.341,0.283-0.581,0.425
					c-0.239,0.142-0.455,0.248-0.646,0.318v-0.596c0.343-0.162,0.644-0.358,0.9-0.589s0.438-0.454,0.546-0.671h0.397V43.247z"/>
			</g>
			<g i:knockout="Off">
				<path i:knockout="Off" d="M32.27,43.247h-0.617V39.32c-0.148,0.142-0.341,0.283-0.581,0.425s-0.455,0.248-0.646,0.318v-0.596
					c0.343-0.162,0.644-0.358,0.9-0.589s0.439-0.454,0.545-0.671h0.398V43.247z"/>
				<path i:knockout="Off" d="M37.083,42.653v0.594h-3.32c-0.005-0.148,0.02-0.291,0.072-0.429c0.085-0.227,0.221-0.449,0.407-0.668
					c0.187-0.219,0.456-0.471,0.808-0.757c0.545-0.448,0.913-0.803,1.105-1.064s0.288-0.51,0.288-0.743
					c0-0.244-0.087-0.45-0.262-0.618s-0.403-0.252-0.684-0.252c-0.297,0-0.534,0.089-0.713,0.268
					c-0.178,0.178-0.269,0.425-0.271,0.74l-0.633-0.063c0.043-0.473,0.207-0.833,0.49-1.081s0.663-0.372,1.141-0.372
					c0.481,0,0.863,0.134,1.144,0.4s0.421,0.598,0.421,0.992c0,0.2-0.041,0.397-0.123,0.592c-0.083,0.193-0.219,0.398-0.409,0.612
					s-0.507,0.509-0.949,0.883c-0.37,0.311-0.607,0.521-0.713,0.632c-0.105,0.111-0.192,0.223-0.26,0.334H37.083z"/>
			</g>
			<g i:knockout="Off">
				<path i:knockout="Off" d="M44.665,43.247h-0.617V39.32c-0.147,0.142-0.341,0.283-0.581,0.425
					c-0.239,0.142-0.455,0.248-0.646,0.318v-0.596c0.343-0.162,0.644-0.358,0.9-0.589s0.438-0.454,0.546-0.671h0.397V43.247z"/>
				<path i:knockout="Off" d="M46.253,41.919l0.617-0.086c0.07,0.352,0.189,0.604,0.356,0.76c0.167,0.155,0.374,0.232,0.619,0.232
					c0.29,0,0.534-0.101,0.73-0.301c0.197-0.201,0.295-0.449,0.295-0.746c0-0.282-0.092-0.516-0.275-0.699
					c-0.184-0.184-0.417-0.275-0.7-0.275c-0.115,0-0.259,0.022-0.431,0.068l0.068-0.539c0.041,0.005,0.074,0.007,0.098,0.007
					c0.26,0,0.494-0.068,0.702-0.206c0.208-0.137,0.312-0.348,0.312-0.633c0-0.227-0.076-0.414-0.227-0.563
					s-0.347-0.223-0.586-0.223c-0.237,0-0.435,0.075-0.593,0.225c-0.158,0.149-0.26,0.374-0.305,0.674l-0.617-0.109
					c0.075-0.412,0.245-0.73,0.51-0.957c0.266-0.227,0.596-0.34,0.991-0.34c0.272,0,0.523,0.059,0.752,0.177
					c0.229,0.117,0.405,0.278,0.526,0.481s0.182,0.419,0.182,0.647c0,0.217-0.058,0.414-0.174,0.593
					c-0.116,0.178-0.288,0.319-0.516,0.425c0.296,0.068,0.527,0.21,0.692,0.425c0.166,0.216,0.248,0.485,0.248,0.809
					c0,0.438-0.159,0.809-0.478,1.112c-0.318,0.304-0.72,0.456-1.207,0.456c-0.438,0-0.803-0.131-1.093-0.394
					S46.294,42.337,46.253,41.919z"/>
			</g>
			<g i:knockout="Off">
				<path i:knockout="Off" d="M68.679,43.247h-0.617V39.32c-0.148,0.142-0.341,0.283-0.581,0.425s-0.455,0.248-0.646,0.318v-0.596
					c0.343-0.162,0.644-0.358,0.9-0.589s0.439-0.454,0.545-0.671h0.398V43.247z"/>
				<path i:knockout="Off" d="M72.228,43.247v-1.203h-2.172v-0.563l2.289-3.242h0.5v3.242h0.68v0.563h-0.68v1.203H72.228z
					 M72.228,41.481v-2.245l-1.566,2.245H72.228z"/>
			</g>
			<g i:knockout="Off">
				<path i:knockout="Off" d="M80.879,43.247h-0.617V39.32c-0.147,0.142-0.342,0.283-0.581,0.425s-0.455,0.248-0.646,0.318v-0.596
					c0.344-0.162,0.644-0.358,0.9-0.589s0.438-0.454,0.546-0.671h0.397V43.247z"/>
				<path i:knockout="Off" d="M82.459,41.935l0.648-0.047c0.048,0.312,0.158,0.546,0.33,0.702c0.173,0.157,0.383,0.235,0.631,0.235
					c0.299,0,0.549-0.111,0.752-0.334c0.202-0.223,0.303-0.518,0.303-0.886c0-0.351-0.097-0.626-0.291-0.828
					c-0.195-0.202-0.453-0.304-0.775-0.304c-0.2,0-0.379,0.046-0.537,0.137c-0.157,0.092-0.281,0.21-0.373,0.355l-0.578-0.086
					l0.484-2.578h2.492v0.586h-1.999l-0.27,1.355c0.3-0.211,0.615-0.316,0.946-0.316c0.437,0,0.806,0.151,1.106,0.454
					c0.3,0.304,0.45,0.692,0.45,1.169c0,0.453-0.132,0.845-0.396,1.175c-0.321,0.405-0.76,0.608-1.315,0.608
					c-0.455,0-0.827-0.128-1.115-0.383C82.666,42.694,82.5,42.356,82.459,41.935z"/>
			</g>
			<g i:knockout="Off">
				<path i:knockout="Off" d="M105.145,43.247h-0.617V39.32c-0.147,0.142-0.342,0.283-0.581,0.425s-0.455,0.248-0.646,0.318v-0.596
					c0.344-0.162,0.644-0.358,0.9-0.589s0.438-0.454,0.546-0.671h0.397V43.247z"/>
				<path i:knockout="Off" d="M109.92,39.458l-0.609,0.047c-0.055-0.241-0.132-0.417-0.232-0.526
					c-0.167-0.175-0.372-0.263-0.616-0.263c-0.196,0-0.37,0.055-0.521,0.164c-0.191,0.141-0.343,0.347-0.455,0.618
					c-0.111,0.271-0.17,0.656-0.175,1.157c0.148-0.225,0.329-0.393,0.544-0.502c0.214-0.109,0.438-0.164,0.673-0.164
					c0.41,0,0.759,0.151,1.047,0.454s0.432,0.693,0.432,1.173c0,0.315-0.067,0.608-0.203,0.879
					c-0.135,0.271-0.321,0.479-0.558,0.622c-0.237,0.144-0.505,0.216-0.806,0.216c-0.512,0-0.93-0.188-1.253-0.566
					s-0.485-1-0.485-1.867c0-0.971,0.18-1.676,0.537-2.116c0.312-0.384,0.732-0.575,1.261-0.575c0.394,0,0.717,0.111,0.969,0.332
					C109.72,38.762,109.871,39.067,109.92,39.458z M107.413,41.621c0,0.212,0.045,0.415,0.135,0.608
					c0.09,0.194,0.214,0.342,0.373,0.443c0.16,0.102,0.329,0.152,0.509,0.152c0.261,0,0.483-0.104,0.668-0.314
					s0.276-0.495,0.276-0.855c0-0.347-0.091-0.62-0.272-0.819c-0.183-0.2-0.414-0.3-0.695-0.3c-0.276,0-0.511,0.1-0.704,0.3
					C107.509,41.035,107.413,41.297,107.413,41.621z"/>
			</g>
			<g i:knockout="Off">
				<path i:knockout="Off" d="M117.415,43.247h-0.617V39.32c-0.147,0.142-0.342,0.283-0.581,0.425s-0.455,0.248-0.646,0.318v-0.596
					c0.344-0.162,0.644-0.358,0.9-0.589s0.438-0.454,0.546-0.671h0.397V43.247z"/>
				<path i:knockout="Off" d="M119.034,38.888v-0.594h3.242v0.48c-0.318,0.34-0.633,0.792-0.945,1.355
					c-0.313,0.563-0.555,1.143-0.725,1.738c-0.123,0.42-0.202,0.879-0.236,1.379h-0.633c0.008-0.395,0.085-0.871,0.232-1.431
					c0.147-0.559,0.359-1.098,0.637-1.616c0.275-0.52,0.569-0.957,0.881-1.313H119.034z"/>
			</g>
			<g i:knockout="Off">
				<path i:knockout="Off" d="M21.649,29.863h-0.617v-3.927c-0.147,0.142-0.341,0.283-0.581,0.425
					c-0.239,0.142-0.455,0.248-0.646,0.318v-0.596c0.343-0.162,0.644-0.358,0.9-0.589s0.438-0.454,0.546-0.671h0.397V29.863z"/>
			</g>
			<g i:knockout="Off">
				<path i:knockout="Off" d="M34.771,29.27v0.594h-3.32c-0.005-0.148,0.02-0.292,0.072-0.429c0.085-0.227,0.221-0.449,0.407-0.668
					c0.187-0.219,0.456-0.471,0.808-0.757c0.545-0.448,0.913-0.803,1.105-1.064s0.288-0.509,0.288-0.743
					c0-0.245-0.087-0.451-0.262-0.618c-0.175-0.168-0.403-0.252-0.684-0.252c-0.297,0-0.534,0.089-0.713,0.268
					c-0.178,0.178-0.269,0.425-0.271,0.74l-0.633-0.063c0.043-0.473,0.207-0.833,0.49-1.081c0.283-0.248,0.663-0.372,1.141-0.372
					c0.481,0,0.863,0.133,1.144,0.4c0.281,0.267,0.421,0.598,0.421,0.992c0,0.201-0.041,0.398-0.123,0.592
					c-0.083,0.194-0.219,0.398-0.409,0.612s-0.507,0.509-0.949,0.883c-0.37,0.311-0.607,0.521-0.713,0.632
					c-0.105,0.111-0.192,0.222-0.26,0.334H34.771z"/>
			</g>
			<g i:knockout="Off">
				<path i:knockout="Off" d="M43.747,28.535l0.617-0.086c0.07,0.352,0.189,0.604,0.356,0.76c0.167,0.155,0.374,0.232,0.619,0.232
					c0.29,0,0.534-0.101,0.73-0.301c0.197-0.201,0.295-0.449,0.295-0.746c0-0.282-0.092-0.516-0.275-0.699
					c-0.184-0.184-0.417-0.275-0.7-0.275c-0.115,0-0.259,0.023-0.431,0.068l0.068-0.539c0.041,0.005,0.074,0.007,0.098,0.007
					c0.26,0,0.494-0.068,0.702-0.206c0.208-0.137,0.312-0.348,0.312-0.634c0-0.226-0.076-0.414-0.227-0.562
					s-0.347-0.223-0.586-0.223c-0.237,0-0.435,0.075-0.593,0.225c-0.158,0.15-0.26,0.375-0.305,0.674l-0.617-0.109
					c0.075-0.412,0.245-0.731,0.51-0.957c0.266-0.227,0.596-0.34,0.991-0.34c0.272,0,0.523,0.059,0.752,0.177
					c0.229,0.117,0.405,0.278,0.526,0.481c0.121,0.204,0.182,0.419,0.182,0.647c0,0.217-0.058,0.415-0.174,0.593
					s-0.288,0.32-0.516,0.425c0.296,0.068,0.527,0.21,0.692,0.426s0.248,0.485,0.248,0.808c0,0.438-0.159,0.808-0.478,1.112
					c-0.318,0.304-0.72,0.456-1.207,0.456c-0.438,0-0.803-0.131-1.093-0.394S43.788,28.953,43.747,28.535z"/>
			</g>
			<g i:knockout="Off">
				<path i:knockout="Off" d="M57.909,29.863V28.66h-2.172v-0.563l2.289-3.242h0.5v3.242h0.68v0.563h-0.68v1.203H57.909z
					 M57.909,28.098v-2.246l-1.566,2.246H57.909z"/>
			</g>
			<g i:knockout="Off">
				<path i:knockout="Off" d="M68.142,28.551l0.648-0.047c0.047,0.312,0.158,0.546,0.33,0.702c0.172,0.157,0.382,0.235,0.63,0.235
					c0.299,0,0.549-0.111,0.751-0.334c0.203-0.223,0.304-0.518,0.304-0.886c0-0.351-0.097-0.626-0.292-0.829
					c-0.194-0.202-0.453-0.303-0.775-0.303c-0.2,0-0.379,0.046-0.537,0.137c-0.158,0.092-0.282,0.21-0.373,0.355l-0.578-0.086
					l0.484-2.578h2.492v0.586h-2l-0.27,1.355c0.301-0.211,0.616-0.316,0.946-0.316c0.437,0,0.806,0.151,1.107,0.455
					c0.3,0.303,0.451,0.692,0.451,1.168c0,0.453-0.132,0.845-0.396,1.175c-0.321,0.406-0.76,0.608-1.315,0.608
					c-0.456,0-0.827-0.128-1.115-0.383S68.183,28.973,68.142,28.551z"/>
			</g>
			<g i:knockout="Off">
				<path i:knockout="Off" d="M83.538,26.074l-0.609,0.047c-0.055-0.241-0.133-0.417-0.232-0.526
					c-0.167-0.175-0.373-0.263-0.617-0.263c-0.196,0-0.37,0.055-0.521,0.164c-0.191,0.141-0.344,0.347-0.455,0.618
					c-0.112,0.271-0.17,0.657-0.175,1.158c0.148-0.226,0.329-0.393,0.543-0.502s0.438-0.164,0.673-0.164
					c0.41,0,0.759,0.151,1.048,0.454c0.287,0.303,0.432,0.693,0.432,1.173c0,0.315-0.067,0.608-0.203,0.879
					s-0.321,0.479-0.559,0.622c-0.236,0.144-0.505,0.216-0.806,0.216c-0.512,0-0.93-0.188-1.253-0.566s-0.484-1-0.484-1.868
					c0-0.97,0.179-1.675,0.536-2.116c0.313-0.383,0.732-0.575,1.261-0.575c0.395,0,0.718,0.111,0.969,0.332
					C83.336,25.378,83.488,25.684,83.538,26.074z M81.03,28.237c0,0.212,0.045,0.415,0.134,0.608
					c0.09,0.194,0.214,0.342,0.374,0.443c0.159,0.102,0.329,0.152,0.508,0.152c0.262,0,0.484-0.104,0.669-0.314
					s0.276-0.495,0.276-0.855c0-0.347-0.091-0.62-0.273-0.82c-0.182-0.2-0.414-0.299-0.695-0.299c-0.276,0-0.511,0.1-0.703,0.299
					C81.125,27.651,81.03,27.913,81.03,28.237z"/>
			</g>
			<g i:knockout="Off">
				<path i:knockout="Off" d="M92.583,25.504V24.91h3.242v0.48c-0.318,0.34-0.634,0.792-0.946,1.355s-0.554,1.143-0.725,1.738
					c-0.123,0.42-0.201,0.88-0.235,1.379h-0.633c0.007-0.395,0.084-0.871,0.232-1.431c0.147-0.559,0.359-1.098,0.636-1.616
					c0.276-0.519,0.57-0.957,0.882-1.313H92.583z"/>
			</g>
			<g i:knockout="Off">
				<path i:knockout="Off" d="M105.696,27.145c-0.257-0.094-0.447-0.228-0.57-0.401c-0.124-0.174-0.186-0.382-0.186-0.624
					c0-0.366,0.131-0.673,0.394-0.922c0.263-0.249,0.611-0.374,1.047-0.374c0.438,0,0.791,0.127,1.058,0.382s0.4,0.565,0.4,0.931
					c0,0.233-0.061,0.436-0.183,0.608s-0.308,0.306-0.556,0.399c0.307,0.1,0.54,0.262,0.701,0.486c0.16,0.224,0.24,0.49,0.24,0.8
					c0,0.429-0.151,0.789-0.455,1.081s-0.702,0.438-1.197,0.438s-0.895-0.146-1.197-0.439c-0.304-0.293-0.455-0.658-0.455-1.096
					c0-0.326,0.083-0.6,0.249-0.819S105.388,27.225,105.696,27.145z M105.37,28.415c0,0.176,0.041,0.346,0.123,0.51
					c0.081,0.164,0.205,0.291,0.37,0.382c0.165,0.09,0.343,0.135,0.531,0.135c0.297,0,0.54-0.095,0.729-0.284
					c0.19-0.188,0.285-0.43,0.285-0.721c0-0.297-0.098-0.542-0.294-0.735c-0.195-0.194-0.442-0.291-0.741-0.291
					c-0.291,0-0.532,0.096-0.721,0.287S105.37,28.128,105.37,28.415z M105.573,26.101c0,0.238,0.075,0.432,0.227,0.583
					c0.151,0.151,0.351,0.227,0.597,0.227c0.239,0,0.435-0.075,0.584-0.225c0.15-0.15,0.226-0.333,0.226-0.551
					c0-0.227-0.077-0.417-0.232-0.571c-0.154-0.154-0.35-0.231-0.584-0.231c-0.237,0-0.433,0.076-0.586,0.227
					S105.573,25.89,105.573,26.101z"/>
			</g>
			<g i:knockout="Off">
				<path i:knockout="Off" d="M117.032,28.707l0.594-0.047c0.05,0.274,0.145,0.473,0.285,0.596c0.141,0.124,0.32,0.186,0.541,0.186
					c0.188,0,0.353-0.043,0.496-0.13c0.143-0.087,0.259-0.203,0.348-0.348c0.09-0.146,0.165-0.341,0.227-0.588
					c0.061-0.246,0.092-0.497,0.092-0.752c0-0.027-0.002-0.068-0.004-0.123c-0.122,0.196-0.289,0.355-0.501,0.477
					s-0.441,0.183-0.688,0.183c-0.412,0-0.761-0.15-1.047-0.452c-0.285-0.301-0.428-0.697-0.428-1.19
					c0-0.508,0.149-0.918,0.447-1.228c0.299-0.31,0.673-0.465,1.122-0.465c0.324,0,0.621,0.088,0.89,0.264
					c0.27,0.176,0.474,0.426,0.613,0.751c0.139,0.325,0.209,0.796,0.209,1.412c0,0.641-0.069,1.152-0.208,1.532
					s-0.345,0.67-0.619,0.868c-0.273,0.198-0.595,0.298-0.963,0.298c-0.392,0-0.711-0.108-0.958-0.326
					C117.231,29.406,117.082,29.101,117.032,28.707z M119.54,26.484c0-0.353-0.093-0.634-0.277-0.841
					c-0.186-0.208-0.41-0.312-0.674-0.312c-0.274,0-0.511,0.112-0.71,0.335c-0.2,0.224-0.3,0.513-0.3,0.869
					c0,0.319,0.095,0.579,0.284,0.778c0.189,0.2,0.426,0.299,0.708,0.299s0.515-0.1,0.696-0.299
					C119.449,27.115,119.54,26.838,119.54,26.484z"/>
			</g>
			<g i:knockout="Off">
				<path i:knockout="Off" d="M129.854,43.247h-0.617V39.32c-0.147,0.142-0.342,0.283-0.581,0.425s-0.455,0.248-0.646,0.318v-0.596
					c0.344-0.162,0.644-0.358,0.9-0.589s0.438-0.454,0.546-0.671h0.397V43.247z"/>
				<path i:knockout="Off" d="M132.385,40.528c-0.256-0.094-0.446-0.227-0.57-0.4c-0.123-0.174-0.186-0.382-0.186-0.624
					c0-0.366,0.132-0.673,0.395-0.922c0.262-0.249,0.611-0.374,1.047-0.374c0.438,0,0.79,0.127,1.057,0.382
					c0.268,0.255,0.4,0.565,0.4,0.931c0,0.233-0.061,0.437-0.183,0.609c-0.122,0.172-0.307,0.305-0.556,0.398
					c0.308,0.101,0.541,0.263,0.701,0.486c0.16,0.223,0.24,0.49,0.24,0.8c0,0.429-0.151,0.789-0.455,1.081
					c-0.303,0.292-0.702,0.438-1.197,0.438c-0.494,0-0.894-0.146-1.197-0.439c-0.303-0.293-0.455-0.658-0.455-1.096
					c0-0.326,0.084-0.6,0.25-0.819S132.079,40.608,132.385,40.528z M132.059,41.8c0,0.175,0.041,0.345,0.123,0.509
					s0.205,0.292,0.371,0.382c0.165,0.09,0.342,0.135,0.531,0.135c0.296,0,0.539-0.095,0.729-0.284
					c0.189-0.188,0.284-0.43,0.284-0.722c0-0.296-0.098-0.541-0.293-0.734c-0.195-0.194-0.443-0.291-0.741-0.291
					c-0.292,0-0.532,0.096-0.722,0.287C132.154,41.272,132.059,41.512,132.059,41.8z M132.262,39.484
					c0,0.237,0.076,0.433,0.228,0.583c0.151,0.151,0.35,0.227,0.597,0.227c0.239,0,0.434-0.075,0.584-0.225
					c0.15-0.15,0.225-0.334,0.225-0.551c0-0.227-0.077-0.417-0.231-0.571c-0.155-0.154-0.35-0.231-0.585-0.231
					c-0.236,0-0.432,0.075-0.586,0.227C132.339,39.093,132.262,39.274,132.262,39.484z"/>
			</g>
			<path i:knockout="Off" fill="none" stroke="#000000" stroke-width="0.5" d="M14.309,32.743h124.333"/>
			<path i:knockout="Off" fill="none" stroke="#000000" stroke-width="0.5" d="M14.309,46.076h37.489"/>
			<path i:knockout="Off" fill="none" stroke="#000000" stroke-width="0.5" d="M100.733,46.076h37.49"/>
			<path i:knockout="Off" fill="none" stroke="#000000" stroke-width="0.5" d="M64.146,46.076h24.239"/>
			<path i:knockout="Off" fill="none" stroke="#000000" stroke-width="1.2" d="M138.641,48.14h-38.195l0.002-13.525H88.286
				l0.002,13.525H63.972l-0.02-13.525H51.806l0.006,13.525H14.309V21.123h124.333V48.14z"/>
		</g>
		<path i:knockout="Off" fill="none" stroke="#000000" stroke-width="1.2" d="M51.792,21.086v-4.603h48.634v4.603"/>
		<path i:knockout="Off" fill="none" stroke="#000000" stroke-width="1.2" d="M134.844,21.086v-4.603h3.779v4.603"/>
		<path i:knockout="Off" fill="none" stroke="#000000" stroke-width="1.2" d="M110.709,21.086v-4.603h3.779v4.603"/>
		<path i:knockout="Off" fill="none" stroke="#000000" stroke-width="1.2" d="M37.742,21.086v-4.603h3.778v4.603"/>
		<path i:knockout="Off" fill="none" stroke="#000000" stroke-width="1.2" d="M14.282,21.086v-4.603h3.778v4.603"/>
		<g>
			<g>
				<path i:knockout="Off" fill="none" stroke="#000000" stroke-width="0.7" d="M14.211,99h124.333"/>
				<path i:knockout="Off" fill="none" stroke="#000000" stroke-width="0.7" d="M27.396,112.51V85.492"/>
				<path i:knockout="Off" fill="none" stroke="#000000" stroke-width="0.7" d="M39.556,112.51V85.492"/>
				<path i:knockout="Off" fill="none" stroke="#000000" stroke-width="0.7" d="M51.714,112.51V85.492"/>
				<path i:knockout="Off" fill="none" stroke="#000000" stroke-width="0.7" d="M63.875,112.51V85.492"/>
				<path i:knockout="Off" fill="none" stroke="#000000" stroke-width="0.7" d="M76.032,112.51V85.492"/>
				<path i:knockout="Off" fill="none" stroke="#000000" stroke-width="0.7" d="M88.19,112.51V85.492"/>
				<path i:knockout="Off" fill="none" stroke="#000000" stroke-width="0.7" d="M100.35,112.51V85.492"/>
				<path i:knockout="Off" fill="none" stroke="#000000" stroke-width="0.7" d="M112.508,112.51V85.492"/>
				<path i:knockout="Off" fill="none" stroke="#000000" stroke-width="0.7" d="M124.667,112.51V85.492"/>
				<g i:knockout="Off">
					<path i:knockout="Off" d="M132.325,94.232h-0.617v-3.927c-0.147,0.142-0.342,0.283-0.581,0.425s-0.455,0.248-0.646,0.318
						v-0.596c0.344-0.162,0.644-0.358,0.9-0.589s0.438-0.454,0.546-0.671h0.397V94.232z"/>
				</g>
				<g i:knockout="Off">
					<path i:knockout="Off" d="M19.415,107.617h-0.617v-3.927c-0.148,0.142-0.341,0.283-0.581,0.425s-0.455,0.248-0.646,0.318
						v-0.596c0.343-0.162,0.644-0.358,0.9-0.589s0.439-0.454,0.545-0.671h0.398V107.617z"/>
					<path i:knockout="Off" d="M21.947,104.898c-0.257-0.093-0.447-0.227-0.57-0.4c-0.124-0.174-0.186-0.382-0.186-0.624
						c0-0.365,0.131-0.673,0.394-0.922c0.262-0.249,0.611-0.374,1.047-0.374c0.438,0,0.791,0.128,1.058,0.382
						c0.267,0.255,0.4,0.565,0.4,0.931c0,0.233-0.061,0.437-0.183,0.608c-0.122,0.173-0.307,0.307-0.556,0.399
						c0.307,0.101,0.541,0.263,0.701,0.486c0.161,0.224,0.241,0.49,0.241,0.8c0,0.429-0.152,0.789-0.455,1.081
						s-0.702,0.438-1.197,0.438s-0.894-0.146-1.197-0.439c-0.304-0.293-0.455-0.658-0.455-1.096c0-0.326,0.083-0.6,0.249-0.819
						S21.64,104.979,21.947,104.898z M21.621,106.169c0,0.176,0.041,0.346,0.123,0.51c0.082,0.164,0.206,0.291,0.371,0.382
						c0.166,0.09,0.343,0.135,0.531,0.135c0.296,0,0.54-0.095,0.729-0.284c0.19-0.188,0.285-0.43,0.285-0.721
						c0-0.297-0.098-0.542-0.293-0.735c-0.196-0.194-0.443-0.291-0.742-0.291c-0.292,0-0.532,0.096-0.721,0.287
						S21.621,105.882,21.621,106.169z M21.824,103.854c0,0.238,0.076,0.433,0.227,0.583c0.151,0.151,0.35,0.227,0.596,0.227
						c0.239,0,0.434-0.075,0.584-0.225c0.15-0.149,0.225-0.333,0.225-0.551c0-0.227-0.077-0.417-0.232-0.571
						s-0.35-0.231-0.584-0.231c-0.237,0-0.433,0.075-0.586,0.227C21.9,103.464,21.824,103.644,21.824,103.854z"/>
				</g>
				<g i:knockout="Off">
					<path i:knockout="Off" d="M32.172,107.617h-0.617v-3.927c-0.148,0.142-0.341,0.283-0.581,0.425s-0.455,0.248-0.646,0.318
						v-0.596c0.343-0.162,0.644-0.358,0.9-0.589s0.439-0.454,0.545-0.671h0.398V107.617z"/>
					<path i:knockout="Off" d="M33.792,103.258v-0.594h3.242v0.48c-0.318,0.34-0.634,0.792-0.946,1.355s-0.554,1.143-0.725,1.738
						c-0.123,0.42-0.201,0.88-0.235,1.379h-0.633c0.007-0.395,0.084-0.871,0.232-1.431c0.148-0.559,0.36-1.098,0.636-1.616
						c0.276-0.52,0.57-0.956,0.882-1.313H33.792z"/>
				</g>
				<g i:knockout="Off">
					<path i:knockout="Off" d="M44.567,107.617H43.95v-3.927c-0.147,0.142-0.341,0.283-0.581,0.425
						c-0.239,0.142-0.455,0.248-0.646,0.318v-0.596c0.343-0.162,0.644-0.358,0.9-0.589s0.438-0.454,0.546-0.671h0.397V107.617z"/>
					<path i:knockout="Off" d="M49.343,103.828l-0.609,0.047c-0.055-0.241-0.132-0.417-0.233-0.526
						c-0.167-0.175-0.372-0.263-0.616-0.263c-0.196,0-0.37,0.055-0.521,0.164c-0.191,0.141-0.343,0.347-0.455,0.618
						c-0.111,0.271-0.17,0.656-0.174,1.158c0.148-0.227,0.329-0.394,0.543-0.503c0.214-0.109,0.438-0.164,0.673-0.164
						c0.41,0,0.759,0.151,1.047,0.454s0.432,0.693,0.432,1.173c0,0.315-0.068,0.608-0.203,0.879s-0.322,0.479-0.558,0.622
						c-0.237,0.144-0.505,0.216-0.806,0.216c-0.512,0-0.93-0.188-1.253-0.566s-0.485-1-0.485-1.868c0-0.97,0.179-1.675,0.537-2.115
						c0.312-0.384,0.732-0.575,1.261-0.575c0.394,0,0.717,0.11,0.969,0.332C49.142,103.132,49.292,103.438,49.343,103.828z
						 M46.835,105.991c0,0.212,0.044,0.415,0.134,0.608c0.089,0.194,0.214,0.342,0.374,0.443s0.329,0.152,0.508,0.152
						c0.261,0,0.483-0.104,0.668-0.314s0.277-0.495,0.277-0.855c0-0.347-0.091-0.62-0.273-0.819c-0.182-0.2-0.414-0.3-0.695-0.3
						c-0.276,0-0.511,0.1-0.704,0.3C46.931,105.405,46.835,105.667,46.835,105.991z"/>
				</g>
				<g i:knockout="Off">
					<path i:knockout="Off" d="M68.582,107.617h-0.617v-3.927c-0.147,0.142-0.341,0.283-0.581,0.425
						c-0.239,0.142-0.455,0.248-0.646,0.318v-0.596c0.343-0.162,0.644-0.358,0.9-0.589s0.438-0.454,0.546-0.671h0.397V107.617z"/>
					<path i:knockout="Off" d="M70.162,106.305l0.648-0.047c0.047,0.312,0.158,0.546,0.33,0.702c0.172,0.157,0.382,0.235,0.63,0.235
						c0.299,0,0.549-0.111,0.751-0.334c0.203-0.223,0.304-0.518,0.304-0.886c0-0.351-0.097-0.626-0.292-0.828
						c-0.194-0.202-0.453-0.304-0.775-0.304c-0.2,0-0.379,0.046-0.537,0.137c-0.158,0.092-0.282,0.21-0.373,0.355l-0.578-0.086
						l0.484-2.578h2.492v0.586h-2l-0.27,1.355c0.301-0.211,0.616-0.316,0.946-0.316c0.437,0,0.806,0.151,1.107,0.454
						c0.3,0.304,0.451,0.692,0.451,1.169c0,0.453-0.132,0.845-0.396,1.175c-0.321,0.406-0.76,0.608-1.315,0.608
						c-0.456,0-0.827-0.128-1.115-0.383S70.203,106.727,70.162,106.305z"/>
				</g>
				<g i:knockout="Off">
					<path i:knockout="Off" d="M80.782,107.617h-0.617v-3.927c-0.147,0.142-0.342,0.283-0.581,0.425s-0.455,0.248-0.646,0.318
						v-0.596c0.344-0.162,0.644-0.358,0.9-0.589s0.438-0.454,0.546-0.671h0.397V107.617z"/>
					<path i:knockout="Off" d="M84.331,107.617v-1.203h-2.172v-0.563l2.289-3.242h0.5v3.242h0.68v0.563h-0.68v1.203H84.331z
						 M84.331,105.852v-2.245l-1.565,2.245H84.331z"/>
				</g>
				<g i:knockout="Off">
					<path i:knockout="Off" d="M105.047,107.617h-0.617v-3.927c-0.147,0.142-0.342,0.283-0.581,0.425s-0.455,0.248-0.646,0.318
						v-0.596c0.344-0.162,0.644-0.358,0.9-0.589s0.438-0.454,0.546-0.671h0.397V107.617z"/>
					<path i:knockout="Off" d="M106.635,106.289l0.617-0.086c0.07,0.352,0.189,0.604,0.356,0.76
						c0.168,0.155,0.374,0.232,0.618,0.232c0.29,0,0.534-0.101,0.73-0.301c0.197-0.201,0.295-0.449,0.295-0.746
						c0-0.282-0.091-0.516-0.274-0.699s-0.417-0.275-0.699-0.275c-0.116,0-0.26,0.022-0.432,0.068l0.067-0.539
						c0.041,0.005,0.074,0.007,0.099,0.007c0.26,0,0.494-0.068,0.701-0.205c0.208-0.138,0.312-0.349,0.312-0.635
						c0-0.226-0.075-0.413-0.227-0.562s-0.347-0.223-0.586-0.223c-0.237,0-0.435,0.075-0.593,0.225s-0.26,0.374-0.306,0.674
						l-0.617-0.109c0.075-0.412,0.245-0.73,0.511-0.957s0.596-0.34,0.99-0.34c0.272,0,0.523,0.059,0.753,0.177
						c0.229,0.117,0.404,0.277,0.525,0.481c0.121,0.203,0.182,0.419,0.182,0.647c0,0.217-0.058,0.414-0.174,0.593
						c-0.116,0.178-0.288,0.319-0.516,0.425c0.296,0.068,0.526,0.21,0.691,0.425c0.166,0.216,0.248,0.485,0.248,0.809
						c0,0.438-0.158,0.808-0.477,1.112c-0.318,0.304-0.721,0.456-1.207,0.456c-0.439,0-0.804-0.131-1.094-0.394
						C106.842,107.047,106.676,106.707,106.635,106.289z"/>
				</g>
				<g i:knockout="Off">
					<path i:knockout="Off" d="M117.317,107.617H116.7v-3.927c-0.147,0.142-0.342,0.283-0.581,0.425s-0.455,0.248-0.646,0.318
						v-0.596c0.344-0.162,0.644-0.358,0.9-0.589s0.438-0.454,0.546-0.671h0.397V107.617z"/>
					<path i:knockout="Off" d="M122.131,107.023v0.594h-3.32c-0.005-0.148,0.02-0.292,0.072-0.429
						c0.084-0.227,0.22-0.449,0.407-0.668c0.187-0.219,0.456-0.471,0.807-0.757c0.545-0.448,0.913-0.803,1.105-1.064
						c0.191-0.262,0.288-0.509,0.288-0.743c0-0.244-0.088-0.45-0.263-0.618s-0.403-0.252-0.684-0.252
						c-0.298,0-0.535,0.089-0.713,0.268c-0.179,0.178-0.269,0.425-0.271,0.74l-0.633-0.063c0.043-0.473,0.206-0.833,0.489-1.081
						s0.663-0.372,1.141-0.372c0.481,0,0.862,0.134,1.144,0.4s0.422,0.598,0.422,0.992c0,0.2-0.042,0.397-0.124,0.592
						c-0.082,0.193-0.218,0.397-0.409,0.612c-0.19,0.215-0.506,0.509-0.948,0.883c-0.37,0.311-0.607,0.521-0.713,0.632
						c-0.105,0.111-0.192,0.222-0.261,0.334H122.131z"/>
				</g>
				<g i:knockout="Off">
					<path i:knockout="Off" d="M18.996,94.232h-0.617v-3.927c-0.147,0.142-0.341,0.283-0.581,0.425
						c-0.239,0.142-0.455,0.248-0.646,0.318v-0.596c0.343-0.162,0.644-0.358,0.9-0.589s0.438-0.454,0.546-0.671h0.397V94.232z"/>
					<path i:knockout="Off" d="M20.576,91.758c0-0.594,0.061-1.072,0.183-1.435c0.122-0.363,0.303-0.643,0.543-0.838
						c0.24-0.194,0.542-0.292,0.907-0.292c0.269,0,0.505,0.054,0.709,0.163c0.204,0.107,0.372,0.265,0.502,0.469
						c0.13,0.204,0.233,0.453,0.309,0.746s0.113,0.688,0.113,1.187c0,0.589-0.061,1.064-0.181,1.428s-0.301,0.643-0.542,0.839
						s-0.543,0.294-0.91,0.294c-0.483,0-0.862-0.172-1.137-0.517C20.741,93.382,20.576,92.7,20.576,91.758z M21.209,91.756
						c0,0.827,0.096,1.376,0.289,1.647c0.192,0.271,0.429,0.407,0.711,0.407s0.519-0.136,0.711-0.409
						c0.192-0.272,0.289-0.821,0.289-1.646c0-0.826-0.096-1.375-0.288-1.647c-0.191-0.271-0.431-0.407-0.719-0.407
						c-0.282,0-0.508,0.12-0.678,0.359C21.314,90.366,21.209,90.932,21.209,91.756z"/>
				</g>
				<g i:knockout="Off">
					<path i:knockout="Off" d="M31.526,93.076l0.594-0.047c0.05,0.274,0.145,0.473,0.285,0.596c0.141,0.124,0.321,0.186,0.541,0.186
						c0.188,0,0.354-0.043,0.497-0.13c0.143-0.087,0.259-0.203,0.348-0.348c0.089-0.146,0.165-0.341,0.226-0.588
						c0.061-0.246,0.092-0.497,0.092-0.752c0-0.027-0.001-0.068-0.003-0.123c-0.122,0.195-0.29,0.354-0.501,0.477
						c-0.212,0.122-0.441,0.183-0.688,0.183c-0.412,0-0.761-0.15-1.046-0.452c-0.286-0.301-0.428-0.697-0.428-1.19
						c0-0.509,0.149-0.918,0.447-1.228c0.299-0.311,0.672-0.466,1.122-0.466c0.324,0,0.621,0.088,0.89,0.264
						c0.269,0.176,0.473,0.427,0.613,0.751c0.14,0.326,0.209,0.797,0.209,1.412c0,0.642-0.069,1.152-0.208,1.532
						s-0.345,0.67-0.619,0.868s-0.595,0.298-0.963,0.298c-0.392,0-0.711-0.108-0.958-0.326
						C31.725,93.775,31.576,93.47,31.526,93.076z M34.034,90.854c0-0.354-0.093-0.634-0.277-0.841
						c-0.185-0.208-0.41-0.312-0.674-0.312c-0.273,0-0.51,0.112-0.71,0.335c-0.2,0.224-0.299,0.514-0.299,0.869
						c0,0.319,0.095,0.578,0.284,0.778c0.189,0.199,0.426,0.299,0.708,0.299s0.514-0.1,0.696-0.299
						C33.943,91.483,34.034,91.207,34.034,90.854z"/>
				</g>
				<g i:knockout="Off">
					<path i:knockout="Off" d="M44.593,91.514c-0.257-0.093-0.447-0.227-0.57-0.4s-0.186-0.382-0.186-0.624
						c0-0.365,0.131-0.673,0.394-0.922s0.611-0.374,1.047-0.374c0.438,0,0.79,0.128,1.057,0.382c0.267,0.255,0.4,0.565,0.4,0.931
						c0,0.233-0.061,0.437-0.183,0.608c-0.122,0.173-0.307,0.307-0.556,0.399c0.307,0.101,0.541,0.263,0.701,0.486
						c0.161,0.224,0.241,0.49,0.241,0.8c0,0.429-0.152,0.789-0.455,1.081s-0.703,0.438-1.197,0.438s-0.894-0.146-1.197-0.439
						s-0.455-0.658-0.455-1.096c0-0.326,0.083-0.6,0.249-0.819S44.286,91.594,44.593,91.514z M44.267,92.784
						c0,0.176,0.041,0.346,0.123,0.51c0.082,0.164,0.206,0.291,0.371,0.382c0.166,0.09,0.342,0.135,0.532,0.135
						c0.296,0,0.539-0.095,0.729-0.284c0.19-0.188,0.285-0.43,0.285-0.721c0-0.297-0.098-0.542-0.293-0.735
						c-0.196-0.194-0.443-0.291-0.741-0.291c-0.292,0-0.532,0.096-0.721,0.287S44.267,92.497,44.267,92.784z M44.47,90.47
						c0,0.238,0.076,0.433,0.227,0.583c0.151,0.151,0.35,0.227,0.596,0.227c0.239,0,0.434-0.075,0.584-0.225
						c0.15-0.149,0.225-0.333,0.225-0.551c0-0.227-0.078-0.417-0.232-0.571c-0.155-0.154-0.35-0.231-0.584-0.231
						c-0.237,0-0.433,0.075-0.586,0.227C44.546,90.079,44.47,90.259,44.47,90.47z"/>
				</g>
				<g i:knockout="Off">
					<path i:knockout="Off" d="M55.881,89.873v-0.594h3.242v0.48c-0.318,0.34-0.634,0.792-0.946,1.355s-0.554,1.143-0.725,1.738
						c-0.123,0.42-0.201,0.88-0.235,1.379h-0.633c0.007-0.395,0.084-0.871,0.232-1.431c0.148-0.559,0.36-1.098,0.636-1.616
						c0.276-0.52,0.57-0.956,0.882-1.313H55.881z"/>
				</g>
				<g i:knockout="Off">
					<path i:knockout="Off" d="M71.24,90.443L70.63,90.49c-0.055-0.241-0.132-0.417-0.233-0.526
						c-0.167-0.175-0.372-0.263-0.617-0.263c-0.196,0-0.37,0.055-0.521,0.164c-0.192,0.141-0.344,0.347-0.455,0.618
						c-0.112,0.271-0.17,0.656-0.175,1.158c0.148-0.227,0.329-0.394,0.543-0.503c0.214-0.109,0.438-0.164,0.673-0.164
						c0.41,0,0.759,0.151,1.047,0.454s0.432,0.693,0.432,1.173c0,0.315-0.068,0.608-0.203,0.879
						c-0.136,0.271-0.321,0.479-0.558,0.622s-0.505,0.216-0.806,0.216c-0.512,0-0.93-0.188-1.253-0.566s-0.485-1-0.485-1.868
						c0-0.97,0.179-1.675,0.537-2.115c0.312-0.384,0.732-0.575,1.261-0.575c0.394,0,0.717,0.11,0.969,0.332
						C71.039,89.747,71.189,90.053,71.24,90.443z M68.732,92.606c0,0.212,0.045,0.415,0.134,0.608
						c0.089,0.194,0.214,0.342,0.374,0.443s0.329,0.152,0.508,0.152c0.261,0,0.483-0.104,0.668-0.314s0.277-0.495,0.277-0.855
						c0-0.347-0.091-0.62-0.273-0.819c-0.182-0.2-0.414-0.3-0.695-0.3c-0.276,0-0.511,0.1-0.703,0.3
						C68.828,92.021,68.732,92.282,68.732,92.606z"/>
				</g>
				<g i:knockout="Off">
					<path i:knockout="Off" d="M80.245,92.92l0.648-0.047c0.048,0.312,0.157,0.546,0.33,0.702c0.172,0.157,0.383,0.235,0.63,0.235
						c0.299,0,0.55-0.111,0.752-0.334s0.304-0.518,0.304-0.886c0-0.351-0.098-0.626-0.292-0.828s-0.453-0.304-0.774-0.304
						c-0.2,0-0.38,0.046-0.537,0.137c-0.158,0.092-0.282,0.21-0.373,0.355l-0.578-0.086l0.484-2.578h2.492v0.586h-1.999
						l-0.271,1.355c0.301-0.211,0.616-0.316,0.946-0.316c0.438,0,0.806,0.151,1.106,0.454c0.301,0.304,0.451,0.692,0.451,1.169
						c0,0.453-0.132,0.845-0.396,1.175c-0.321,0.406-0.76,0.608-1.314,0.608c-0.456,0-0.828-0.128-1.115-0.383
						C80.45,93.681,80.286,93.342,80.245,92.92z"/>
				</g>
				<g i:knockout="Off">
					<path i:knockout="Off" d="M94.415,94.232v-1.203h-2.172v-0.563l2.289-3.242h0.5v3.242h0.68v0.563h-0.68v1.203H94.415z
						 M94.415,92.467v-2.245l-1.566,2.245H94.415z"/>
				</g>
				<g i:knockout="Off">
					<path i:knockout="Off" d="M104.655,92.904l0.617-0.086c0.07,0.352,0.188,0.604,0.356,0.76c0.167,0.155,0.373,0.232,0.618,0.232
						c0.29,0,0.533-0.101,0.73-0.301c0.196-0.201,0.295-0.449,0.295-0.746c0-0.282-0.092-0.516-0.275-0.699
						c-0.183-0.184-0.416-0.275-0.699-0.275c-0.115,0-0.259,0.022-0.432,0.068l0.068-0.539c0.041,0.005,0.073,0.007,0.099,0.007
						c0.26,0,0.493-0.068,0.701-0.205c0.208-0.138,0.312-0.349,0.312-0.635c0-0.226-0.076-0.413-0.227-0.562
						c-0.152-0.148-0.348-0.223-0.587-0.223c-0.237,0-0.435,0.075-0.593,0.225s-0.26,0.374-0.305,0.674l-0.617-0.109
						c0.075-0.412,0.245-0.73,0.511-0.957c0.265-0.227,0.596-0.34,0.99-0.34c0.272,0,0.522,0.059,0.752,0.177
						c0.229,0.117,0.404,0.277,0.526,0.481c0.121,0.203,0.182,0.419,0.182,0.647c0,0.217-0.059,0.414-0.174,0.593
						c-0.117,0.178-0.289,0.319-0.517,0.425c0.296,0.068,0.527,0.21,0.692,0.425c0.165,0.216,0.248,0.485,0.248,0.809
						c0,0.438-0.159,0.808-0.478,1.112c-0.318,0.304-0.721,0.456-1.207,0.456c-0.438,0-0.803-0.131-1.093-0.394
						S104.696,93.322,104.655,92.904z"/>
				</g>
				<g i:knockout="Off">
					<path i:knockout="Off" d="M120.082,93.639v0.594h-3.32c-0.005-0.148,0.02-0.292,0.072-0.429
						c0.085-0.227,0.221-0.449,0.407-0.668c0.188-0.219,0.456-0.471,0.808-0.757c0.545-0.448,0.913-0.803,1.104-1.064
						c0.192-0.262,0.288-0.509,0.288-0.743c0-0.244-0.087-0.45-0.263-0.618c-0.174-0.168-0.402-0.252-0.684-0.252
						c-0.297,0-0.534,0.089-0.713,0.268c-0.178,0.178-0.269,0.425-0.271,0.74l-0.633-0.063c0.043-0.473,0.206-0.833,0.489-1.081
						s0.664-0.372,1.141-0.372c0.482,0,0.863,0.134,1.145,0.4c0.28,0.267,0.421,0.598,0.421,0.992c0,0.2-0.041,0.397-0.123,0.592
						c-0.082,0.193-0.219,0.397-0.409,0.612s-0.507,0.509-0.948,0.883c-0.37,0.311-0.608,0.521-0.713,0.632
						c-0.105,0.111-0.192,0.222-0.261,0.334H120.082z"/>
				</g>
				<g i:knockout="Off">
					<path i:knockout="Off" d="M130.313,107.617h-0.617v-3.927c-0.147,0.142-0.342,0.283-0.581,0.425s-0.455,0.248-0.646,0.318
						v-0.596c0.344-0.162,0.644-0.358,0.9-0.589s0.438-0.454,0.546-0.671h0.397V107.617z"/>
					<path i:knockout="Off" d="M134.206,107.617h-0.617v-3.927c-0.147,0.142-0.341,0.283-0.58,0.425
						c-0.24,0.142-0.455,0.248-0.646,0.318v-0.596c0.344-0.162,0.644-0.358,0.9-0.589c0.258-0.23,0.439-0.454,0.546-0.671h0.397
						V107.617z"/>
				</g>
				<path i:knockout="Off" fill="none" stroke="#000000" stroke-width="0.7" d="M14.211,97.113h124.333"/>
				<path i:knockout="Off" fill="none" stroke="#000000" stroke-width="0.7" d="M14.211,110.445H51.7"/>
				<path i:knockout="Off" fill="none" stroke="#000000" stroke-width="0.7" d="M100.635,110.445h37.49"/>
				<path i:knockout="Off" fill="none" stroke="#000000" stroke-width="0.7" d="M64.048,110.445h24.239"/>
				<path i:knockout="Off" fill="none" stroke="#000000" stroke-width="0.7" d="M138.543,112.51h-38.195l0.002-13.525H88.188
					l0.002,13.525H63.875l-0.02-13.525H51.708l0.006,13.525H14.211V85.492h124.333V112.51z"/>
				<path i:knockout="Off" fill="none" stroke="#000000" stroke-width="0.7" d="M51.716,85.492v-4.602h48.635v4.602"/>
				<path i:knockout="Off" fill="none" stroke="#000000" stroke-width="0.7" d="M134.769,85.492v-4.602h3.778v4.602"/>
				<path i:knockout="Off" fill="none" stroke="#000000" stroke-width="0.7" d="M110.634,85.492v-4.602h3.778v4.602"/>
				<path i:knockout="Off" fill="none" stroke="#000000" stroke-width="0.7" d="M37.667,85.492v-4.602h3.778v4.602"/>
				<path i:knockout="Off" fill="none" stroke="#000000" stroke-width="0.7" d="M14.206,85.492v-4.602h3.778v4.602"/>
			</g>
			<path i:knockout="Off" fill="none" stroke="#000000" stroke-width="1.2" d="M141.055,115.137H11.296V78.248h129.759V115.137z"/>
		</g>
	</g>
</svg>
