<?xml version="1.0" encoding="utf-8"?>
<!-- Generator: Adobe Illustrator 10.0, SVG Export Plug-In . SVG Version: 3.0.0 Build 77)  -->
<!DOCTYPE svg PUBLIC "-//W3C//DTD SVG 1.0//EN"    "http://www.w3.org/TR/2001/REC-SVG-20010904/DTD/svg10.dtd" [
	<!ENTITY ns_flows "http://ns.adobe.com/Flows/1.0/">
	<!ENTITY ns_extend "http://ns.adobe.com/Extensibility/1.0/">
	<!ENTITY ns_ai "http://ns.adobe.com/AdobeIllustrator/10.0/">
	<!ENTITY ns_graphs "http://ns.adobe.com/Graphs/1.0/">
	<!ENTITY ns_vars "http://ns.adobe.com/Variables/1.0/">
	<!ENTITY ns_imrep "http://ns.adobe.com/ImageReplacement/1.0/">
	<!ENTITY ns_sfw "http://ns.adobe.com/SaveForWeb/1.0/">
	<!ENTITY ns_custom "http://ns.adobe.com/GenericCustomNamespace/1.0/">
	<!ENTITY ns_adobe_xpath "http://ns.adobe.com/XPath/1.0/">
	<!ENTITY ns_svg "http://www.w3.org/2000/svg">
	<!ENTITY ns_xlink "http://www.w3.org/1999/xlink">
]>
<svg xmlns:x="&ns_extend;" xmlns:i="&ns_ai;" xmlns:graph="&ns_graphs;" i:viewOrigin="278.6318 441.4565" i:rulerOrigin="-1 0.1104" i:pageBounds="1 841.8896 596 -0.1104" xmlns="&ns_svg;" xmlns:xlink="&ns_xlink;" xmlns:a="http://ns.adobe.com/AdobeSVGViewerExtensions/3.0/" width="35.257" height="46.687" viewBox="0 0 35.257 46.687" overflow="visible" enable-background="new 0 0 35.257 46.687" xml:space="preserve" id="svgObj" onload="parent.svgLoad('Top', document)">
	<metadata>
		<variableSets xmlns="&ns_vars;">
			<variableSet varSetName="binding1" locked="none">
				<variables></variables>
				<v:sampleDataSets xmlns="&ns_custom;" xmlns:v="&ns_vars;"></v:sampleDataSets>
			</variableSet>
		</variableSets>
		<sfw xmlns="&ns_sfw;">
			<slices></slices>
			<sliceSourceBounds y="388.708" x="257.815" width="80.371" height="63.363" bottomLeftOrigin="true"></sliceSourceBounds>
		</sfw>
	</metadata>
	<g id="レイヤー_1" i:layer="yes" i:dimmedPercent="100" i:rgbTrio="#4F008000FFFF">
		<g>
			<g>
				<g>
					<g>
						<g>
							<g>
								<g>
									<g>
										<g>
											<g>
												<g>
													<g>
														<g>
															<g>
																<g i:knockout="Off">
																	<path i:knockout="Off" d="M12.762,20.117h-0.703v-4.48c-0.169,0.162-0.391,0.323-0.666,0.484
																		c-0.275,0.162-0.521,0.283-0.74,0.363v-0.68c0.393-0.185,0.737-0.409,1.031-0.672
																		c0.294-0.263,0.502-0.518,0.625-0.766h0.453V20.117z"/>
																</g>
																<g i:knockout="Off">
																	<path i:knockout="Off" d="M25.187,19.445v0.672H21.39c-0.006-0.169,0.022-0.332,0.083-0.488
																		c0.097-0.258,0.253-0.511,0.467-0.76c0.214-0.249,0.521-0.537,0.92-0.864c0.62-0.516,1.04-0.923,1.261-1.221
																		c0.222-0.298,0.332-0.58,0.332-0.849c0-0.278-0.1-0.513-0.299-0.704c-0.2-0.191-0.461-0.287-0.781-0.287
																		c-0.34,0-0.61,0.104-0.814,0.311c-0.203,0.208-0.307,0.494-0.309,0.861l-0.719-0.094
																		c0.049-0.539,0.235-0.95,0.558-1.232c0.323-0.282,0.756-0.424,1.3-0.424c0.549,0,0.983,0.152,1.303,0.457
																		c0.32,0.305,0.48,0.683,0.48,1.133c0,0.229-0.047,0.455-0.14,0.676c-0.094,0.221-0.248,0.454-0.465,0.699
																		c-0.216,0.245-0.576,0.581-1.081,1.009c-0.423,0.355-0.694,0.596-0.814,0.722
																		c-0.119,0.126-0.219,0.253-0.297,0.381H25.187z"/>
																</g>
																<g i:knockout="Off">
																	<path i:knockout="Off" d="M10.122,29.668l0.719-0.094c0.08,0.393,0.215,0.676,0.405,0.85
																		c0.189,0.173,0.425,0.26,0.707,0.26c0.333,0,0.611-0.115,0.834-0.344c0.223-0.23,0.335-0.515,0.335-0.854
																		c0-0.323-0.105-0.59-0.314-0.801c-0.209-0.209-0.475-0.314-0.798-0.314c-0.132,0-0.295,0.026-0.492,0.078
																		l0.078-0.625c0.046,0.006,0.083,0.008,0.112,0.008c0.294,0,0.559-0.077,0.795-0.232
																		c0.236-0.154,0.354-0.394,0.354-0.717c0-0.256-0.086-0.467-0.259-0.635s-0.396-0.252-0.669-0.252
																		c-0.271,0-0.496,0.086-0.677,0.258s-0.297,0.43-0.348,0.773l-0.719-0.125c0.085-0.471,0.281-0.836,0.584-1.096
																		c0.304-0.259,0.682-0.389,1.134-0.389c0.312,0,0.599,0.066,0.861,0.2c0.263,0.134,0.463,0.315,0.603,0.546
																		c0.139,0.23,0.208,0.476,0.208,0.735c0,0.246-0.066,0.47-0.199,0.673c-0.133,0.201-0.33,0.362-0.59,0.481
																		c0.338,0.078,0.604,0.241,0.797,0.487s0.289,0.555,0.289,0.925c0,0.501-0.182,0.926-0.547,1.273
																		c-0.365,0.349-0.826,0.522-1.383,0.522c-0.502,0-0.92-0.147-1.252-0.443S10.168,30.139,10.122,29.668z"/>
																</g>
																<g i:knockout="Off">
																	<path i:knockout="Off" d="M23.741,31.168v-1.375h-2.484v-0.641l2.625-3.719h0.563v3.719h0.781v0.641h-0.781v1.375
																		H23.741z M23.741,29.153v-2.566l-1.793,2.566H23.741z"/>
																</g>
															</g>
														</g>
													</g>
												</g>
											</g>
										</g>
									</g>
								</g>
							</g>
						</g>
					</g>
				</g>
			</g>
		</g>
		<path i:knockout="Off" fill="none" stroke="#000000" stroke-width="0.7" stroke-linecap="round" d="M17.835,17.521
			c0-3.131-2.539-5.67-5.67-5.67c-3.131,0-5.669,2.539-5.669,5.67s2.539,5.67,5.669,5.67C15.296,23.192,17.835,20.653,17.835,17.521
			"/>
		<path i:knockout="Off" fill="none" stroke="#000000" stroke-width="0.7" stroke-linecap="round" d="M8.714,21.999h6.927"/>
		<path i:knockout="Off" fill="none" stroke="#000000" stroke-width="0.7" stroke-linecap="round" d="M29.159,17.521
			c0-3.131-2.539-5.67-5.67-5.67s-5.669,2.539-5.669,5.67s2.539,5.67,5.669,5.67S29.159,20.653,29.159,17.521"/>
		<path i:knockout="Off" fill="none" stroke="#000000" stroke-width="0.7" stroke-linecap="round" d="M20.039,21.999h6.927"/>
		<path i:knockout="Off" fill="none" stroke="#000000" stroke-width="0.7" stroke-linecap="round" d="M17.835,28.885
			c0-3.132-2.539-5.67-5.67-5.67c-3.131,0-5.669,2.538-5.669,5.67c0,3.131,2.539,5.67,5.669,5.67
			C15.296,34.555,17.835,32.016,17.835,28.885"/>
		<path i:knockout="Off" fill="none" stroke="#000000" stroke-width="0.7" stroke-linecap="round" d="M8.714,33.362h6.927"/>
		<path i:knockout="Off" fill="none" stroke="#000000" stroke-width="0.7" stroke-linecap="round" d="M29.159,28.885
			c0-3.132-2.539-5.67-5.67-5.67s-5.669,2.538-5.669,5.67c0,3.131,2.539,5.67,5.669,5.67S29.159,32.016,29.159,28.885"/>
		<path i:knockout="Off" fill="none" stroke="#000000" stroke-width="0.7" stroke-linecap="round" d="M20.039,33.362h6.927"/>
		<g i:knockout="Off">
			<path i:knockout="Off" fill="none" stroke="#000000" stroke-width="1.2" stroke-linecap="round" d="M31.806,40.434
				c0,1.56-1.275,2.835-2.835,2.835H6.342c-1.559,0-2.834-1.275-2.834-2.835V6.217c0-1.559,1.275-2.834,2.834-2.834h22.629
				c1.56,0,2.835,1.275,2.835,2.834V40.434z"/>
		</g>
		<path i:knockout="Off" fill="none" stroke="#000000" stroke-width="1.2" stroke-linecap="round" d="M14.208,3.077V0.6h7.017v2.477
			"/>
		<path i:knockout="Off" fill="none" stroke="#000000" stroke-width="1.2" stroke-linecap="round" d="M31.851,20.957h2.807v5.017
			h-2.807"/>
		<path i:knockout="Off" fill="none" stroke="#000000" stroke-width="1.2" stroke-linecap="round" d="M20.225,43.281v2.807h-5.016
			v-2.807"/>
		<path i:knockout="Off" fill="none" stroke="#000000" stroke-width="1.2" stroke-linecap="round" d="M3.407,25.973H0.6v-5.017
			h2.807"/>
	</g>
</svg>
