<?xml version="1.0" encoding="utf-8"?>
<!-- Generator: Adobe Illustrator 10.0, SVG Export Plug-In . SVG Version: 3.0.0 Build 77)  -->
<!DOCTYPE svg PUBLIC "-//W3C//DTD SVG 1.0//EN"    "http://www.w3.org/TR/2001/REC-SVG-20010904/DTD/svg10.dtd" [
	<!ENTITY ns_flows "http://ns.adobe.com/Flows/1.0/">
	<!ENTITY ns_extend "http://ns.adobe.com/Extensibility/1.0/">
	<!ENTITY ns_ai "http://ns.adobe.com/AdobeIllustrator/10.0/">
	<!ENTITY ns_graphs "http://ns.adobe.com/Graphs/1.0/">
	<!ENTITY ns_vars "http://ns.adobe.com/Variables/1.0/">
	<!ENTITY ns_imrep "http://ns.adobe.com/ImageReplacement/1.0/">
	<!ENTITY ns_sfw "http://ns.adobe.com/SaveForWeb/1.0/">
	<!ENTITY ns_custom "http://ns.adobe.com/GenericCustomNamespace/1.0/">
	<!ENTITY ns_adobe_xpath "http://ns.adobe.com/XPath/1.0/">
	<!ENTITY ns_svg "http://www.w3.org/2000/svg">
	<!ENTITY ns_xlink "http://www.w3.org/1999/xlink">
]>
<svg xmlns:x="&ns_extend;" xmlns:i="&ns_ai;" xmlns:graph="&ns_graphs;" i:viewOrigin="206.4336 435.0513" i:rulerOrigin="-1 0.1104" i:pageBounds="1 841.8896 596 -0.1104" xmlns="&ns_svg;" xmlns:xlink="&ns_xlink;" xmlns:a="http://ns.adobe.com/AdobeSVGViewerExtensions/3.0/" width="183.184" height="29.246" viewBox="0 0 183.184 29.246" overflow="visible" enable-background="new 0 0 183.184 29.246" xml:space="preserve" id="svgObj" onload="parent.svgLoad('Top', document)">
	<metadata>
		<variableSets xmlns="&ns_vars;">
			<variableSet varSetName="binding1" locked="none">
				<variables></variables>
				<v:sampleDataSets xmlns="&ns_custom;" xmlns:v="&ns_vars;"></v:sampleDataSets>
			</variableSet>
		</variableSets>
		<sfw xmlns="&ns_sfw;">
			<slices></slices>
			<sliceSourceBounds y="388.708" x="138.76" width="318.48" height="63.363" bottomLeftOrigin="true"></sliceSourceBounds>
		</sfw>
	</metadata>
	<g id="レイヤー_1" i:layer="yes" i:dimmedPercent="100" i:rgbTrio="#4F008000FFFF">
		<g>
		</g>
		<g>
			<path i:knockout="Off" fill="none" stroke="#000000" stroke-width="0.7" stroke-linecap="round" d="M0.596,16.294V3.954h11.341
				v12.341H0.596z"/>
			<g i:knockout="Off">
				<path i:knockout="Off" d="M6.958,11.788H6.255v-4.48C6.086,7.469,5.864,7.63,5.589,7.792c-0.275,0.162-0.521,0.283-0.74,0.363
					v-0.68C5.242,7.291,5.586,7.066,5.88,6.803c0.294-0.263,0.502-0.518,0.625-0.766h0.453V11.788z"/>
			</g>
			<path i:knockout="Off" fill="none" stroke="#000000" stroke-width="0.7" stroke-linecap="round" d="M11.812,13.997H0.937"/>
			<path i:knockout="Off" fill="none" stroke="#000000" stroke-width="0.7" stroke-linecap="round" d="M11.971,16.294V3.954h11.341
				v12.341H11.971z"/>
			<g i:knockout="Off">
				<path i:knockout="Off" d="M19.373,11.116v0.672h-3.797c-0.005-0.169,0.022-0.332,0.083-0.488
					c0.098-0.258,0.253-0.511,0.467-0.76c0.214-0.249,0.521-0.537,0.92-0.864c0.619-0.516,1.04-0.923,1.261-1.221
					c0.221-0.298,0.332-0.58,0.332-0.849c0-0.278-0.1-0.513-0.299-0.704c-0.2-0.191-0.46-0.287-0.781-0.287
					c-0.339,0-0.611,0.104-0.814,0.311c-0.204,0.208-0.307,0.494-0.309,0.861l-0.719-0.094c0.049-0.539,0.235-0.95,0.558-1.232
					c0.322-0.282,0.755-0.424,1.299-0.424c0.549,0,0.983,0.152,1.303,0.457c0.32,0.305,0.48,0.683,0.48,1.133
					c0,0.229-0.046,0.455-0.14,0.676c-0.093,0.221-0.248,0.454-0.464,0.699c-0.217,0.245-0.577,0.581-1.081,1.009
					c-0.423,0.355-0.695,0.596-0.814,0.722c-0.12,0.126-0.219,0.253-0.297,0.381H19.373z"/>
			</g>
			<path i:knockout="Off" fill="none" stroke="#000000" stroke-width="0.7" stroke-linecap="round" d="M23.187,13.997H12.312"/>
			<path i:knockout="Off" fill="none" stroke="#000000" stroke-width="0.7" stroke-linecap="round" d="M23.346,16.294V3.954h11.341
				v12.341H23.346z"/>
			<g i:knockout="Off">
				<path i:knockout="Off" d="M27.068,10.288l0.719-0.094c0.08,0.393,0.215,0.676,0.405,0.85c0.189,0.173,0.425,0.26,0.707,0.26
					c0.333,0,0.611-0.115,0.834-0.344s0.335-0.514,0.335-0.853c0-0.323-0.105-0.59-0.314-0.8s-0.475-0.315-0.798-0.315
					c-0.132,0-0.295,0.026-0.492,0.078l0.078-0.625c0.046,0.005,0.083,0.008,0.112,0.008c0.294,0,0.559-0.077,0.795-0.232
					c0.236-0.155,0.354-0.394,0.354-0.717c0-0.255-0.086-0.467-0.259-0.635s-0.396-0.252-0.669-0.252
					c-0.271,0-0.496,0.086-0.677,0.258s-0.297,0.43-0.348,0.773L27.13,7.522c0.085-0.471,0.281-0.836,0.584-1.096
					c0.304-0.259,0.682-0.389,1.134-0.389c0.312,0,0.599,0.067,0.861,0.2c0.263,0.134,0.463,0.315,0.603,0.546
					c0.139,0.231,0.208,0.476,0.208,0.735c0,0.246-0.066,0.47-0.199,0.672s-0.33,0.363-0.59,0.482
					c0.338,0.078,0.604,0.241,0.797,0.487c0.193,0.246,0.289,0.555,0.289,0.925c0,0.501-0.182,0.926-0.547,1.273
					c-0.365,0.349-0.826,0.522-1.383,0.522c-0.502,0-0.92-0.147-1.252-0.443S27.115,10.758,27.068,10.288z"/>
			</g>
			<path i:knockout="Off" fill="none" stroke="#000000" stroke-width="0.7" stroke-linecap="round" d="M34.562,13.997H23.687"/>
			<path i:knockout="Off" fill="none" stroke="#000000" stroke-width="0.7" stroke-linecap="round" d="M34.721,16.294V3.954h11.341
				v12.341H34.721z"/>
			<g i:knockout="Off">
				<path i:knockout="Off" d="M40.677,11.788v-1.375h-2.484V9.772l2.625-3.719h0.563v3.719h0.781v0.641H41.38v1.375H40.677z
					 M40.677,9.772V7.206l-1.792,2.566H40.677z"/>
			</g>
			<path i:knockout="Off" fill="none" stroke="#000000" stroke-width="0.7" stroke-linecap="round" d="M45.937,13.997H35.062"/>
			<path i:knockout="Off" fill="none" stroke="#000000" stroke-width="0.7" stroke-linecap="round" d="M46.096,16.294V3.954h11.341
				v12.341H46.096z"/>
			<g i:knockout="Off">
				<path i:knockout="Off" d="M49.802,10.288l0.719-0.063c0.055,0.358,0.181,0.627,0.379,0.808c0.198,0.181,0.441,0.271,0.729,0.271
					c0.349,0,0.639-0.127,0.871-0.382c0.232-0.254,0.348-0.592,0.348-1.013c0-0.399-0.111-0.715-0.332-0.946
					c-0.221-0.231-0.518-0.347-0.891-0.347c-0.232,0-0.438,0.051-0.617,0.152s-0.322,0.233-0.426,0.395l-0.656-0.094l0.563-2.938
					h2.844v0.672h-2.285l-0.313,1.549c0.344-0.241,0.705-0.361,1.082-0.361c0.5,0,0.922,0.173,1.266,0.519s0.516,0.791,0.516,1.334
					c0,0.518-0.151,0.965-0.453,1.343c-0.367,0.463-0.869,0.694-1.504,0.694c-0.521,0-0.946-0.146-1.275-0.437
					S49.849,10.768,49.802,10.288z"/>
			</g>
			<path i:knockout="Off" fill="none" stroke="#000000" stroke-width="0.7" stroke-linecap="round" d="M57.312,13.997H46.437"/>
			<path i:knockout="Off" fill="none" stroke="#000000" stroke-width="0.7" stroke-linecap="round" d="M57.471,16.294V3.954h11.34
				v12.341H57.471z"/>
			<g i:knockout="Off">
				<path i:knockout="Off" d="M64.849,7.459l-0.703,0.063c-0.063-0.277-0.152-0.479-0.267-0.604
					c-0.191-0.201-0.428-0.302-0.708-0.302c-0.226,0-0.427,0.063-0.602,0.187c-0.218,0.161-0.391,0.396-0.519,0.705
					c-0.129,0.309-0.195,0.75-0.201,1.323c0.17-0.258,0.377-0.449,0.624-0.574c0.245-0.125,0.503-0.188,0.772-0.188
					c0.471,0,0.871,0.173,1.202,0.518c0.331,0.345,0.496,0.791,0.496,1.338c0,0.359-0.078,0.693-0.233,1.002
					s-0.37,0.545-0.641,0.709c-0.272,0.164-0.581,0.246-0.926,0.246c-0.588,0-1.068-0.215-1.439-0.646
					c-0.372-0.431-0.557-1.14-0.557-2.129c0-1.106,0.206-1.91,0.617-2.413c0.359-0.437,0.842-0.656,1.451-0.656
					c0.453,0,0.825,0.126,1.114,0.378S64.792,7.015,64.849,7.459z M61.958,9.93c0,0.242,0.051,0.474,0.155,0.694
					c0.104,0.221,0.247,0.39,0.43,0.505c0.183,0.116,0.379,0.174,0.589,0.174c0.303,0,0.561-0.12,0.773-0.359
					c0.212-0.239,0.318-0.564,0.318-0.975c0-0.395-0.105-0.707-0.314-0.934c-0.21-0.228-0.478-0.341-0.805-0.341
					c-0.319,0-0.59,0.114-0.813,0.341S61.958,9.561,61.958,9.93z"/>
			</g>
			<path i:knockout="Off" fill="none" stroke="#000000" stroke-width="0.7" stroke-linecap="round" d="M68.687,13.997H57.812"/>
			<path i:knockout="Off" fill="none" stroke="#000000" stroke-width="0.7" stroke-linecap="round" d="M0.596,28.646v-12.34h11.341
				v12.34H0.596z"/>
			<g i:knockout="Off">
				<path i:knockout="Off" d="M4.734,24.14H4.031v-4.48c-0.169,0.162-0.391,0.323-0.666,0.484c-0.275,0.162-0.521,0.283-0.74,0.363
					v-0.68c0.393-0.185,0.737-0.408,1.031-0.672c0.294-0.263,0.502-0.518,0.625-0.766h0.453V24.14z"/>
				<path i:knockout="Off" d="M6.574,19.156v-0.672h3.703v0.544c-0.365,0.388-0.727,0.904-1.086,1.548
					c-0.359,0.645-0.636,1.307-0.832,1.988c-0.141,0.479-0.231,1.005-0.27,1.576H7.371c0.008-0.451,0.096-0.996,0.265-1.635
					c0.169-0.64,0.411-1.256,0.727-1.85c0.316-0.593,0.652-1.093,1.008-1.5H6.574z"/>
			</g>
			<path i:knockout="Off" fill="none" stroke="#000000" stroke-width="0.7" stroke-linecap="round" d="M11.812,26.349H0.937"/>
			<path i:knockout="Off" fill="none" stroke="#000000" stroke-width="0.7" stroke-linecap="round" d="M11.971,28.646v-12.34h11.341
				v12.34H11.971z"/>
			<g i:knockout="Off">
				<path i:knockout="Off" d="M16.109,24.14h-0.703v-4.48c-0.169,0.162-0.391,0.323-0.666,0.484
					c-0.275,0.162-0.521,0.283-0.74,0.363v-0.68c0.393-0.185,0.737-0.408,1.031-0.672c0.294-0.263,0.502-0.518,0.625-0.766h0.453
					V24.14z"/>
				<path i:knockout="Off" d="M18.995,21.037c-0.292-0.106-0.508-0.259-0.648-0.457s-0.21-0.436-0.21-0.712
					c0-0.417,0.149-0.767,0.448-1.052c0.298-0.283,0.695-0.426,1.191-0.426c0.498,0,0.899,0.146,1.203,0.436
					c0.304,0.291,0.456,0.645,0.456,1.062c0,0.267-0.069,0.497-0.208,0.694c-0.139,0.196-0.349,0.349-0.631,0.455
					c0.35,0.114,0.616,0.299,0.799,0.554s0.274,0.559,0.274,0.912c0,0.489-0.173,0.899-0.519,1.232s-0.8,0.499-1.364,0.499
					s-1.019-0.167-1.365-0.501s-0.518-0.751-0.518-1.25c0-0.371,0.094-0.683,0.284-0.934S18.645,21.127,18.995,21.037z
					 M18.621,22.488c0,0.2,0.046,0.394,0.138,0.58c0.093,0.188,0.233,0.332,0.423,0.434c0.19,0.104,0.393,0.154,0.608,0.154
					c0.34,0,0.619-0.107,0.834-0.323c0.216-0.215,0.324-0.489,0.324-0.821c0-0.338-0.111-0.616-0.333-0.837
					s-0.505-0.331-0.848-0.331c-0.335,0-0.61,0.109-0.825,0.327C18.728,21.888,18.621,22.161,18.621,22.488z M18.855,19.843
					c0,0.271,0.085,0.492,0.256,0.664c0.171,0.172,0.398,0.258,0.681,0.258c0.275,0,0.497-0.085,0.667-0.256
					c0.17-0.17,0.255-0.379,0.255-0.627c0-0.258-0.087-0.475-0.263-0.65s-0.397-0.264-0.667-0.264c-0.272,0-0.496,0.086-0.669,0.258
					S18.855,19.604,18.855,19.843z"/>
			</g>
			<path i:knockout="Off" fill="none" stroke="#000000" stroke-width="0.7" stroke-linecap="round" d="M23.187,26.349H12.312"/>
			<path i:knockout="Off" fill="none" stroke="#000000" stroke-width="0.7" stroke-linecap="round" d="M23.346,28.646v-12.34h11.341
				v12.34H23.346z"/>
			<g i:knockout="Off">
				<path i:knockout="Off" d="M27.484,24.14h-0.703v-4.48c-0.169,0.162-0.391,0.323-0.666,0.484
					c-0.275,0.162-0.521,0.283-0.74,0.363v-0.68c0.393-0.185,0.737-0.408,1.031-0.672c0.294-0.263,0.502-0.518,0.625-0.766h0.453
					V24.14z"/>
				<path i:knockout="Off" d="M29.371,22.812l0.672-0.063c0.057,0.318,0.167,0.549,0.328,0.691c0.162,0.144,0.369,0.215,0.621,0.215
					c0.216,0,0.407-0.049,0.572-0.147s0.299-0.229,0.4-0.395s0.188-0.387,0.258-0.667c0.07-0.279,0.105-0.565,0.105-0.857
					c0-0.031-0.001-0.078-0.004-0.141c-0.14,0.225-0.331,0.406-0.573,0.545c-0.242,0.14-0.504,0.209-0.787,0.209
					c-0.472,0-0.871-0.172-1.197-0.516c-0.327-0.345-0.49-0.798-0.49-1.361c0-0.581,0.171-1.049,0.514-1.404
					c0.342-0.354,0.771-0.531,1.287-0.531c0.373,0,0.713,0.101,1.021,0.301s0.543,0.486,0.703,0.856
					c0.16,0.371,0.24,0.907,0.24,1.61c0,0.731-0.08,1.313-0.239,1.747c-0.16,0.434-0.396,0.763-0.712,0.989
					c-0.314,0.227-0.684,0.34-1.106,0.34c-0.45,0-0.817-0.124-1.102-0.373C29.599,23.613,29.428,23.263,29.371,22.812z
					 M32.261,20.287c0-0.404-0.106-0.725-0.319-0.963c-0.213-0.236-0.473-0.355-0.781-0.355c-0.318,0-0.592,0.128-0.822,0.384
					c-0.229,0.255-0.344,0.587-0.344,0.993c0,0.365,0.109,0.662,0.327,0.891c0.218,0.228,0.491,0.342,0.82,0.342
					c0.326,0,0.594-0.114,0.804-0.342C32.156,21.007,32.261,20.691,32.261,20.287z"/>
			</g>
			<path i:knockout="Off" fill="none" stroke="#000000" stroke-width="0.7" stroke-linecap="round" d="M34.562,26.349H23.687"/>
			<path i:knockout="Off" fill="none" stroke="#000000" stroke-width="0.7" stroke-linecap="round" d="M34.721,28.646v-12.34h11.341
				v12.34H34.721z"/>
			<g i:knockout="Off">
				<path i:knockout="Off" d="M39.898,23.468v0.672h-3.797c-0.005-0.169,0.022-0.332,0.083-0.488
					c0.098-0.258,0.253-0.511,0.467-0.76c0.214-0.248,0.521-0.537,0.92-0.864c0.619-0.517,1.04-0.923,1.261-1.221
					c0.221-0.298,0.332-0.58,0.332-0.849c0-0.277-0.1-0.513-0.299-0.703c-0.2-0.191-0.46-0.287-0.781-0.287
					c-0.339,0-0.611,0.104-0.814,0.311c-0.204,0.208-0.307,0.494-0.309,0.861l-0.719-0.094c0.049-0.539,0.235-0.949,0.558-1.232
					c0.322-0.282,0.755-0.424,1.299-0.424c0.549,0,0.983,0.152,1.303,0.457c0.32,0.305,0.48,0.683,0.48,1.133
					c0,0.229-0.046,0.455-0.14,0.677c-0.093,0.222-0.248,0.454-0.464,0.699c-0.217,0.245-0.577,0.581-1.081,1.009
					c-0.423,0.355-0.695,0.596-0.814,0.723c-0.12,0.126-0.219,0.253-0.297,0.381H39.898z"/>
				<path i:knockout="Off" d="M40.652,21.314c0-0.677,0.07-1.223,0.21-1.638s0.35-0.733,0.626-0.954
					c0.277-0.222,0.625-0.332,1.046-0.332c0.31,0,0.583,0.063,0.819,0.186s0.429,0.302,0.579,0.535
					c0.15,0.232,0.268,0.516,0.354,0.851c0.087,0.335,0.13,0.785,0.13,1.353c0,0.672-0.07,1.215-0.208,1.63
					c-0.14,0.415-0.348,0.733-0.625,0.956s-0.627,0.334-1.05,0.334c-0.557,0-0.994-0.195-1.312-0.586
					C40.842,23.167,40.652,22.389,40.652,21.314z M41.371,21.312c0,0.945,0.112,1.572,0.335,1.881s0.5,0.463,0.829,0.463
					s0.604-0.154,0.829-0.465c0.224-0.31,0.335-0.936,0.335-1.879c0-0.942-0.111-1.568-0.333-1.879
					c-0.223-0.31-0.502-0.465-0.839-0.465c-0.328,0-0.592,0.137-0.79,0.41C41.492,19.728,41.371,20.373,41.371,21.312z"/>
			</g>
			<path i:knockout="Off" fill="none" stroke="#000000" stroke-width="0.7" stroke-linecap="round" d="M45.937,26.349H35.062"/>
			<path i:knockout="Off" fill="none" stroke="#000000" stroke-width="0.7" stroke-linecap="round" d="M46.096,28.646v-12.34h11.341
				v12.34H46.096z"/>
			<g i:knockout="Off">
				<path i:knockout="Off" d="M51.273,23.468v0.672h-3.797c-0.005-0.169,0.022-0.332,0.083-0.488
					c0.098-0.258,0.253-0.511,0.467-0.76c0.214-0.248,0.521-0.537,0.92-0.864c0.619-0.517,1.04-0.923,1.261-1.221
					c0.221-0.298,0.332-0.58,0.332-0.849c0-0.277-0.1-0.513-0.299-0.703c-0.2-0.191-0.46-0.287-0.781-0.287
					c-0.339,0-0.611,0.104-0.814,0.311c-0.204,0.208-0.307,0.494-0.309,0.861l-0.719-0.094c0.049-0.539,0.235-0.949,0.558-1.232
					c0.322-0.282,0.755-0.424,1.299-0.424c0.549,0,0.983,0.152,1.303,0.457c0.32,0.305,0.48,0.683,0.48,1.133
					c0,0.229-0.046,0.455-0.14,0.677c-0.093,0.222-0.248,0.454-0.464,0.699c-0.217,0.245-0.577,0.581-1.081,1.009
					c-0.423,0.355-0.695,0.596-0.814,0.723c-0.12,0.126-0.219,0.253-0.297,0.381H51.273z"/>
				<path i:knockout="Off" d="M54.683,24.14H53.98v-4.48c-0.169,0.162-0.391,0.323-0.666,0.484c-0.275,0.162-0.521,0.283-0.74,0.363
					v-0.68c0.393-0.185,0.737-0.408,1.031-0.672c0.294-0.263,0.502-0.518,0.625-0.766h0.453V24.14z"/>
			</g>
			<path i:knockout="Off" fill="none" stroke="#000000" stroke-width="0.7" stroke-linecap="round" d="M57.312,26.349H46.437"/>
			<path i:knockout="Off" fill="none" stroke="#000000" stroke-width="0.7" stroke-linecap="round" d="M57.471,28.646v-12.34h11.34
				v12.34H57.471z"/>
			<g i:knockout="Off">
				<path i:knockout="Off" d="M62.648,23.468v0.672h-3.797c-0.005-0.169,0.022-0.332,0.083-0.488
					c0.098-0.258,0.253-0.511,0.467-0.76c0.214-0.248,0.521-0.537,0.92-0.864c0.619-0.517,1.04-0.923,1.261-1.221
					c0.221-0.298,0.332-0.58,0.332-0.849c0-0.277-0.1-0.513-0.299-0.703c-0.2-0.191-0.46-0.287-0.781-0.287
					c-0.339,0-0.611,0.104-0.814,0.311c-0.204,0.208-0.307,0.494-0.309,0.861l-0.719-0.094c0.049-0.539,0.235-0.949,0.558-1.232
					c0.322-0.282,0.755-0.424,1.299-0.424c0.549,0,0.983,0.152,1.303,0.457c0.32,0.305,0.48,0.683,0.48,1.133
					c0,0.229-0.046,0.455-0.14,0.677c-0.093,0.222-0.248,0.454-0.464,0.699c-0.217,0.245-0.577,0.581-1.081,1.009
					c-0.423,0.355-0.695,0.596-0.814,0.723c-0.12,0.126-0.219,0.253-0.297,0.381H62.648z"/>
				<path i:knockout="Off" d="M67.097,23.468v0.672H63.3c-0.005-0.169,0.022-0.332,0.083-0.488c0.098-0.258,0.253-0.511,0.467-0.76
					c0.214-0.248,0.521-0.537,0.92-0.864c0.619-0.517,1.04-0.923,1.261-1.221c0.221-0.298,0.332-0.58,0.332-0.849
					c0-0.277-0.1-0.513-0.299-0.703c-0.2-0.191-0.46-0.287-0.781-0.287c-0.339,0-0.611,0.104-0.814,0.311
					c-0.204,0.208-0.307,0.494-0.309,0.861l-0.719-0.094c0.049-0.539,0.235-0.949,0.558-1.232c0.322-0.282,0.755-0.424,1.299-0.424
					c0.549,0,0.983,0.152,1.303,0.457c0.32,0.305,0.48,0.683,0.48,1.133c0,0.229-0.046,0.455-0.14,0.677
					c-0.093,0.222-0.248,0.454-0.464,0.699c-0.217,0.245-0.577,0.581-1.081,1.009c-0.423,0.355-0.695,0.596-0.814,0.723
					c-0.12,0.126-0.219,0.253-0.297,0.381H67.097z"/>
			</g>
			<path i:knockout="Off" fill="none" stroke="#000000" stroke-width="0.7" stroke-linecap="round" d="M68.687,26.349H57.812"/>
			<path i:knockout="Off" fill="none" stroke="#000000" stroke-width="0.7" stroke-linecap="round" d="M68.846,16.294V3.954h11.34
				v12.341H68.846z"/>
			<g i:knockout="Off">
				<path i:knockout="Off" d="M72.599,6.803V6.131h3.703v0.544c-0.365,0.388-0.727,0.904-1.086,1.548
					c-0.359,0.645-0.636,1.307-0.832,1.988c-0.141,0.48-0.231,1.005-0.27,1.577h-0.719c0.008-0.451,0.096-0.996,0.265-1.635
					s0.411-1.255,0.727-1.849s0.652-1.093,1.008-1.5H72.599z"/>
			</g>
			<path i:knockout="Off" fill="none" stroke="#000000" stroke-width="0.7" stroke-linecap="round" d="M80.062,13.997H69.187"/>
			<path i:knockout="Off" fill="none" stroke="#000000" stroke-width="0.7" stroke-linecap="round" d="M68.846,28.646v-12.34h11.34
				v12.34H68.846z"/>
			<g i:knockout="Off">
				<path i:knockout="Off" d="M74.023,23.468v0.672h-3.797c-0.005-0.169,0.022-0.332,0.083-0.488
					c0.098-0.258,0.253-0.511,0.467-0.76c0.214-0.248,0.521-0.537,0.92-0.864c0.619-0.517,1.04-0.923,1.261-1.221
					c0.221-0.298,0.332-0.58,0.332-0.849c0-0.277-0.1-0.513-0.299-0.703c-0.2-0.191-0.46-0.287-0.781-0.287
					c-0.339,0-0.611,0.104-0.814,0.311c-0.204,0.208-0.307,0.494-0.309,0.861l-0.719-0.094c0.049-0.539,0.235-0.949,0.558-1.232
					c0.322-0.282,0.755-0.424,1.299-0.424c0.549,0,0.983,0.152,1.303,0.457c0.32,0.305,0.48,0.683,0.48,1.133
					c0,0.229-0.046,0.455-0.14,0.677c-0.093,0.222-0.248,0.454-0.464,0.699c-0.217,0.245-0.577,0.581-1.081,1.009
					c-0.423,0.355-0.695,0.596-0.814,0.723c-0.12,0.126-0.219,0.253-0.297,0.381H74.023z"/>
				<path i:knockout="Off" d="M74.792,22.64l0.719-0.094c0.08,0.393,0.215,0.676,0.405,0.85c0.189,0.173,0.425,0.26,0.707,0.26
					c0.333,0,0.611-0.115,0.834-0.344c0.223-0.23,0.335-0.515,0.335-0.854c0-0.323-0.105-0.59-0.314-0.801
					c-0.209-0.209-0.475-0.314-0.798-0.314c-0.132,0-0.295,0.026-0.492,0.078l0.078-0.625c0.046,0.006,0.083,0.008,0.112,0.008
					c0.294,0,0.559-0.077,0.795-0.232c0.236-0.154,0.354-0.394,0.354-0.717c0-0.256-0.086-0.467-0.259-0.635
					s-0.396-0.252-0.669-0.252c-0.271,0-0.496,0.086-0.677,0.258s-0.297,0.43-0.348,0.773l-0.719-0.125
					c0.085-0.471,0.281-0.836,0.584-1.096c0.304-0.259,0.682-0.389,1.134-0.389c0.312,0,0.599,0.066,0.861,0.2
					c0.263,0.134,0.463,0.315,0.603,0.546c0.139,0.23,0.208,0.476,0.208,0.735c0,0.246-0.066,0.47-0.199,0.673
					c-0.133,0.201-0.33,0.362-0.59,0.481c0.338,0.078,0.604,0.241,0.797,0.487s0.289,0.555,0.289,0.925
					c0,0.501-0.182,0.926-0.547,1.273c-0.365,0.349-0.826,0.522-1.383,0.522c-0.502,0-0.92-0.147-1.252-0.443
					S74.839,23.111,74.792,22.64z"/>
			</g>
			<path i:knockout="Off" fill="none" stroke="#000000" stroke-width="0.7" stroke-linecap="round" d="M80.062,26.349H69.187"/>
			<path i:knockout="Off" fill="none" stroke="#000000" stroke-width="0.7" stroke-linecap="round" d="M80.221,16.294V3.954h11.34
				v12.341H80.221z"/>
			<g i:knockout="Off">
				<path i:knockout="Off" d="M85.021,8.684c-0.292-0.106-0.508-0.259-0.648-0.457s-0.21-0.436-0.21-0.712
					c0-0.417,0.149-0.767,0.448-1.051c0.298-0.284,0.695-0.426,1.191-0.426c0.498,0,0.899,0.146,1.203,0.436
					s0.456,0.644,0.456,1.061c0,0.266-0.069,0.497-0.208,0.694c-0.139,0.196-0.349,0.349-0.631,0.455
					c0.35,0.114,0.616,0.299,0.799,0.554s0.274,0.559,0.274,0.912c0,0.489-0.173,0.899-0.519,1.232s-0.8,0.499-1.364,0.499
					s-1.019-0.167-1.365-0.501s-0.518-0.75-0.518-1.25c0-0.371,0.094-0.683,0.284-0.934S84.67,8.775,85.021,8.684z M84.646,10.135
					c0,0.2,0.046,0.394,0.138,0.58c0.093,0.187,0.233,0.332,0.423,0.434s0.393,0.154,0.608,0.154c0.34,0,0.619-0.107,0.834-0.323
					c0.216-0.215,0.324-0.489,0.324-0.821c0-0.337-0.111-0.616-0.333-0.837s-0.505-0.331-0.848-0.331
					c-0.335,0-0.61,0.109-0.825,0.327C84.753,9.536,84.646,9.808,84.646,10.135z M84.88,7.491c0,0.271,0.085,0.492,0.256,0.664
					c0.171,0.172,0.398,0.258,0.681,0.258c0.275,0,0.497-0.085,0.667-0.256c0.17-0.17,0.255-0.379,0.255-0.627
					c0-0.258-0.087-0.475-0.263-0.65S86.08,6.616,85.81,6.616c-0.272,0-0.496,0.086-0.669,0.258S84.88,7.251,84.88,7.491z"/>
			</g>
			<path i:knockout="Off" fill="none" stroke="#000000" stroke-width="0.7" stroke-linecap="round" d="M91.437,13.997H80.562"/>
			<path i:knockout="Off" fill="none" stroke="#000000" stroke-width="0.7" stroke-linecap="round" d="M80.221,28.646v-12.34h11.34
				v12.34H80.221z"/>
			<g i:knockout="Off">
				<path i:knockout="Off" d="M85.398,23.468v0.672h-3.797c-0.005-0.169,0.022-0.332,0.083-0.488
					c0.098-0.258,0.253-0.511,0.467-0.76c0.214-0.248,0.521-0.537,0.92-0.864c0.619-0.517,1.04-0.923,1.261-1.221
					c0.221-0.298,0.332-0.58,0.332-0.849c0-0.277-0.1-0.513-0.299-0.703c-0.2-0.191-0.46-0.287-0.781-0.287
					c-0.339,0-0.611,0.104-0.814,0.311c-0.204,0.208-0.307,0.494-0.309,0.861l-0.719-0.094c0.049-0.539,0.235-0.949,0.558-1.232
					c0.322-0.282,0.755-0.424,1.299-0.424c0.549,0,0.983,0.152,1.303,0.457c0.32,0.305,0.48,0.683,0.48,1.133
					c0,0.229-0.046,0.455-0.14,0.677c-0.093,0.222-0.248,0.454-0.464,0.699c-0.217,0.245-0.577,0.581-1.081,1.009
					c-0.423,0.355-0.695,0.596-0.814,0.723c-0.12,0.126-0.219,0.253-0.297,0.381H85.398z"/>
				<path i:knockout="Off" d="M88.402,24.14v-1.375h-2.484v-0.641l2.625-3.719h0.563v3.719h0.781v0.641h-0.781v1.375H88.402z
					 M88.402,22.125v-2.566l-1.792,2.566H88.402z"/>
			</g>
			<path i:knockout="Off" fill="none" stroke="#000000" stroke-width="0.7" stroke-linecap="round" d="M91.437,26.349H80.562"/>
			<path i:knockout="Off" fill="none" stroke="#000000" stroke-width="0.7" stroke-linecap="round" d="M91.597,16.294V3.954h11.34
				v12.341H91.597z"/>
			<g i:knockout="Off">
				<path i:knockout="Off" d="M95.396,10.459l0.672-0.063c0.058,0.318,0.167,0.548,0.328,0.691c0.161,0.144,0.368,0.215,0.621,0.215
					c0.216,0,0.407-0.049,0.572-0.147s0.299-0.23,0.4-0.395s0.188-0.387,0.258-0.667c0.07-0.28,0.105-0.565,0.105-0.857
					c0-0.031-0.001-0.078-0.004-0.141c-0.14,0.224-0.331,0.406-0.573,0.545c-0.242,0.14-0.505,0.209-0.787,0.209
					c-0.472,0-0.871-0.172-1.197-0.516s-0.489-0.797-0.489-1.361c0-0.581,0.171-1.049,0.514-1.404s0.771-0.532,1.287-0.532
					c0.372,0,0.713,0.101,1.021,0.301s0.543,0.486,0.703,0.856c0.16,0.371,0.24,0.908,0.24,1.61c0,0.731-0.08,1.313-0.239,1.747
					s-0.396,0.763-0.711,0.989c-0.315,0.227-0.684,0.34-1.107,0.34c-0.449,0-0.816-0.124-1.102-0.373
					C95.624,11.26,95.453,10.91,95.396,10.459z M98.286,7.934c0-0.404-0.106-0.725-0.319-0.962s-0.473-0.356-0.78-0.356
					c-0.318,0-0.593,0.128-0.821,0.384c-0.23,0.255-0.345,0.586-0.345,0.993c0,0.365,0.108,0.662,0.327,0.89
					c0.217,0.228,0.49,0.342,0.819,0.342c0.326,0,0.595-0.114,0.804-0.342C98.182,8.655,98.286,8.338,98.286,7.934z"/>
			</g>
			<path i:knockout="Off" fill="none" stroke="#000000" stroke-width="0.7" stroke-linecap="round" d="M102.812,13.997H91.937"/>
			<path i:knockout="Off" fill="none" stroke="#000000" stroke-width="0.7" stroke-linecap="round" d="M91.597,28.646v-12.34h11.34
				v12.34H91.597z"/>
			<g i:knockout="Off">
				<path i:knockout="Off" d="M96.772,23.468v0.672h-3.797c-0.005-0.169,0.022-0.332,0.083-0.488
					c0.097-0.258,0.252-0.511,0.467-0.76c0.214-0.248,0.521-0.537,0.92-0.864c0.62-0.517,1.04-0.923,1.262-1.221
					c0.221-0.298,0.331-0.58,0.331-0.849c0-0.277-0.1-0.513-0.3-0.703c-0.199-0.191-0.459-0.287-0.78-0.287
					c-0.339,0-0.61,0.104-0.813,0.311c-0.204,0.208-0.307,0.494-0.31,0.861l-0.719-0.094c0.05-0.539,0.235-0.949,0.558-1.232
					c0.322-0.282,0.756-0.424,1.3-0.424c0.549,0,0.983,0.152,1.304,0.457c0.319,0.305,0.479,0.683,0.479,1.133
					c0,0.229-0.047,0.455-0.14,0.677c-0.094,0.222-0.248,0.454-0.465,0.699c-0.216,0.245-0.576,0.581-1.08,1.009
					c-0.424,0.355-0.695,0.596-0.815,0.723c-0.12,0.126-0.219,0.253-0.297,0.381H96.772z"/>
				<path i:knockout="Off" d="M97.526,22.64l0.719-0.063c0.055,0.358,0.182,0.627,0.38,0.808c0.197,0.181,0.44,0.271,0.729,0.271
					c0.35,0,0.64-0.127,0.871-0.382c0.232-0.254,0.349-0.592,0.349-1.013c0-0.399-0.11-0.715-0.332-0.946s-0.519-0.347-0.891-0.347
					c-0.231,0-0.438,0.051-0.617,0.152s-0.321,0.232-0.426,0.395l-0.656-0.094l0.563-2.938h2.844v0.672h-2.285l-0.313,1.549
					c0.344-0.24,0.704-0.361,1.082-0.361c0.5,0,0.922,0.173,1.266,0.52c0.344,0.346,0.516,0.791,0.516,1.334
					c0,0.518-0.151,0.965-0.453,1.343c-0.367,0.463-0.868,0.694-1.504,0.694c-0.521,0-0.946-0.146-1.275-0.437
					S97.573,23.121,97.526,22.64z"/>
			</g>
			<path i:knockout="Off" fill="none" stroke="#000000" stroke-width="0.7" stroke-linecap="round" d="M102.812,26.349H91.937"/>
			<path i:knockout="Off" fill="none" stroke="#000000" stroke-width="0.7" stroke-linecap="round" d="M102.972,16.294V3.954h11.34
				v12.341H102.972z"/>
			<g i:knockout="Off">
				<path i:knockout="Off" d="M107.108,11.788h-0.703v-4.48c-0.169,0.162-0.392,0.323-0.666,0.484
					c-0.274,0.162-0.521,0.283-0.74,0.363v-0.68c0.394-0.185,0.737-0.409,1.031-0.672c0.294-0.263,0.503-0.518,0.625-0.766h0.453
					V11.788z"/>
				<path i:knockout="Off" d="M108.901,8.961c0-0.677,0.07-1.223,0.211-1.638c0.14-0.415,0.349-0.733,0.626-0.954
					c0.277-0.222,0.626-0.332,1.046-0.332c0.31,0,0.583,0.062,0.819,0.186s0.43,0.302,0.579,0.535s0.268,0.517,0.354,0.851
					c0.086,0.334,0.13,0.785,0.13,1.353c0,0.671-0.069,1.215-0.209,1.63c-0.139,0.415-0.347,0.734-0.624,0.956
					c-0.277,0.223-0.627,0.334-1.05,0.334c-0.557,0-0.994-0.195-1.312-0.585C109.092,10.814,108.901,10.037,108.901,8.961z
					 M109.62,8.959c0,0.945,0.112,1.572,0.336,1.881s0.499,0.463,0.828,0.463c0.328,0,0.604-0.155,0.828-0.465
					c0.224-0.31,0.336-0.936,0.336-1.879c0-0.942-0.111-1.569-0.334-1.879c-0.223-0.31-0.502-0.465-0.838-0.465
					c-0.329,0-0.592,0.137-0.791,0.41C109.742,7.375,109.62,8.02,109.62,8.959z"/>
			</g>
			<path i:knockout="Off" fill="none" stroke="#000000" stroke-width="0.7" stroke-linecap="round" d="M114.187,13.997h-10.875"/>
			<path i:knockout="Off" fill="none" stroke="#000000" stroke-width="0.7" stroke-linecap="round" d="M102.972,28.646v-12.34h11.34
				v12.34H102.972z"/>
			<g i:knockout="Off">
				<path i:knockout="Off" d="M108.147,23.468v0.672h-3.797c-0.005-0.169,0.022-0.332,0.083-0.488
					c0.097-0.258,0.252-0.511,0.467-0.76c0.214-0.248,0.521-0.537,0.92-0.864c0.62-0.517,1.04-0.923,1.262-1.221
					c0.221-0.298,0.331-0.58,0.331-0.849c0-0.277-0.1-0.513-0.3-0.703c-0.199-0.191-0.459-0.287-0.78-0.287
					c-0.339,0-0.61,0.104-0.813,0.311c-0.204,0.208-0.307,0.494-0.31,0.861l-0.719-0.094c0.05-0.539,0.235-0.949,0.558-1.232
					c0.322-0.282,0.756-0.424,1.3-0.424c0.549,0,0.983,0.152,1.304,0.457c0.319,0.305,0.479,0.683,0.479,1.133
					c0,0.229-0.047,0.455-0.14,0.677c-0.094,0.222-0.248,0.454-0.465,0.699c-0.216,0.245-0.576,0.581-1.08,1.009
					c-0.424,0.355-0.695,0.596-0.815,0.723c-0.12,0.126-0.219,0.253-0.297,0.381H108.147z"/>
				<path i:knockout="Off" d="M112.573,19.812l-0.703,0.063c-0.063-0.277-0.152-0.479-0.268-0.604
					c-0.191-0.201-0.427-0.302-0.708-0.302c-0.226,0-0.426,0.063-0.602,0.188c-0.218,0.16-0.391,0.396-0.52,0.705
					c-0.128,0.309-0.195,0.75-0.2,1.322c0.17-0.258,0.378-0.449,0.623-0.574c0.246-0.125,0.503-0.188,0.772-0.188
					c0.471,0,0.871,0.173,1.202,0.518c0.331,0.346,0.496,0.791,0.496,1.338c0,0.359-0.078,0.693-0.233,1.002
					c-0.156,0.309-0.369,0.545-0.642,0.709c-0.271,0.164-0.58,0.246-0.925,0.246c-0.589,0-1.068-0.215-1.44-0.646
					c-0.371-0.43-0.557-1.14-0.557-2.129c0-1.105,0.206-1.91,0.617-2.412c0.358-0.438,0.843-0.656,1.45-0.656
					c0.453,0,0.825,0.126,1.115,0.378C112.342,19.02,112.516,19.368,112.573,19.812z M109.683,22.283
					c0,0.242,0.052,0.474,0.155,0.694c0.104,0.222,0.246,0.39,0.43,0.505c0.184,0.116,0.38,0.174,0.589,0.174
					c0.304,0,0.562-0.119,0.773-0.359c0.212-0.238,0.318-0.563,0.318-0.975c0-0.395-0.104-0.707-0.314-0.934
					c-0.209-0.229-0.478-0.342-0.805-0.342c-0.319,0-0.591,0.113-0.813,0.342C109.794,21.615,109.683,21.914,109.683,22.283z"/>
			</g>
			<path i:knockout="Off" fill="none" stroke="#000000" stroke-width="0.7" stroke-linecap="round" d="M114.187,26.349h-10.875"/>
			<path i:knockout="Off" fill="none" stroke="#000000" stroke-width="0.7" stroke-linecap="round" d="M114.347,16.294V3.954h11.34
				v12.341H114.347z"/>
			<g i:knockout="Off">
				<path i:knockout="Off" d="M118.483,11.788h-0.703v-4.48c-0.169,0.162-0.392,0.323-0.666,0.484
					c-0.274,0.162-0.521,0.283-0.74,0.363v-0.68c0.394-0.185,0.737-0.409,1.031-0.672c0.294-0.263,0.503-0.518,0.625-0.766h0.453
					V11.788z"/>
				<path i:knockout="Off" d="M122.933,11.788h-0.703v-4.48c-0.169,0.162-0.392,0.323-0.666,0.484
					c-0.274,0.162-0.521,0.283-0.74,0.363v-0.68c0.394-0.185,0.737-0.409,1.031-0.672c0.294-0.263,0.503-0.518,0.625-0.766h0.453
					V11.788z"/>
			</g>
			<path i:knockout="Off" fill="none" stroke="#000000" stroke-width="0.7" stroke-linecap="round" d="M125.562,13.997h-10.875"/>
			<path i:knockout="Off" fill="none" stroke="#000000" stroke-width="0.7" stroke-linecap="round" d="M114.347,28.646v-12.34h11.34
				v12.34H114.347z"/>
			<g i:knockout="Off">
				<path i:knockout="Off" d="M119.522,23.468v0.672h-3.797c-0.005-0.169,0.022-0.332,0.083-0.488
					c0.097-0.258,0.252-0.511,0.467-0.76c0.214-0.248,0.521-0.537,0.92-0.864c0.62-0.517,1.04-0.923,1.262-1.221
					c0.221-0.298,0.331-0.58,0.331-0.849c0-0.277-0.1-0.513-0.3-0.703c-0.199-0.191-0.459-0.287-0.78-0.287
					c-0.339,0-0.61,0.104-0.813,0.311c-0.204,0.208-0.307,0.494-0.31,0.861l-0.719-0.094c0.05-0.539,0.235-0.949,0.558-1.232
					c0.322-0.282,0.756-0.424,1.3-0.424c0.549,0,0.983,0.152,1.304,0.457c0.319,0.305,0.479,0.683,0.479,1.133
					c0,0.229-0.047,0.455-0.14,0.677c-0.094,0.222-0.248,0.454-0.465,0.699c-0.216,0.245-0.576,0.581-1.08,1.009
					c-0.424,0.355-0.695,0.596-0.815,0.723c-0.12,0.126-0.219,0.253-0.297,0.381H119.522z"/>
				<path i:knockout="Off" d="M120.323,19.156v-0.672h3.703v0.544c-0.365,0.388-0.728,0.904-1.086,1.548
					c-0.358,0.645-0.636,1.307-0.831,1.988c-0.142,0.479-0.231,1.005-0.271,1.576h-0.719c0.008-0.451,0.097-0.996,0.265-1.635
					c0.17-0.64,0.412-1.256,0.728-1.85c0.315-0.593,0.651-1.093,1.008-1.5H120.323z"/>
			</g>
			<path i:knockout="Off" fill="none" stroke="#000000" stroke-width="0.7" stroke-linecap="round" d="M125.562,26.349h-10.875"/>
			<path i:knockout="Off" fill="none" stroke="#000000" stroke-width="0.7" stroke-linecap="round" d="M125.722,16.294V3.954h11.34
				v12.341H125.722z"/>
			<g i:knockout="Off">
				<path i:knockout="Off" d="M129.858,11.788h-0.703v-4.48c-0.169,0.162-0.392,0.323-0.666,0.484
					c-0.274,0.162-0.521,0.283-0.74,0.363v-0.68c0.394-0.185,0.737-0.409,1.031-0.672c0.294-0.263,0.503-0.518,0.625-0.766h0.453
					V11.788z"/>
				<path i:knockout="Off" d="M135.347,11.116v0.672h-3.797c-0.005-0.169,0.022-0.332,0.083-0.488
					c0.097-0.258,0.252-0.511,0.467-0.76c0.214-0.249,0.521-0.537,0.92-0.864c0.62-0.516,1.04-0.923,1.262-1.221
					c0.221-0.298,0.331-0.58,0.331-0.849c0-0.278-0.1-0.513-0.3-0.704c-0.199-0.191-0.459-0.287-0.78-0.287
					c-0.339,0-0.61,0.104-0.813,0.311c-0.204,0.208-0.307,0.494-0.31,0.861l-0.719-0.094c0.05-0.539,0.235-0.95,0.558-1.232
					c0.322-0.282,0.756-0.424,1.3-0.424c0.549,0,0.983,0.152,1.304,0.457c0.319,0.305,0.479,0.683,0.479,1.133
					c0,0.229-0.047,0.455-0.14,0.676c-0.094,0.221-0.248,0.454-0.465,0.699c-0.216,0.245-0.576,0.581-1.08,1.009
					c-0.424,0.355-0.695,0.596-0.815,0.722s-0.219,0.253-0.297,0.381H135.347z"/>
			</g>
			<path i:knockout="Off" fill="none" stroke="#000000" stroke-width="0.7" stroke-linecap="round" d="M136.937,13.997h-10.875"/>
			<path i:knockout="Off" fill="none" stroke="#000000" stroke-width="0.7" stroke-linecap="round" d="M125.722,28.646v-12.34h11.34
				v12.34H125.722z"/>
			<g i:knockout="Off">
				<path i:knockout="Off" d="M130.897,23.468v0.672h-3.797c-0.005-0.169,0.022-0.332,0.083-0.488
					c0.097-0.258,0.252-0.511,0.467-0.76c0.214-0.248,0.521-0.537,0.92-0.864c0.62-0.517,1.04-0.923,1.262-1.221
					c0.221-0.298,0.331-0.58,0.331-0.849c0-0.277-0.1-0.513-0.3-0.703c-0.199-0.191-0.459-0.287-0.78-0.287
					c-0.339,0-0.61,0.104-0.813,0.311c-0.204,0.208-0.307,0.494-0.31,0.861l-0.719-0.094c0.05-0.539,0.235-0.949,0.558-1.232
					c0.322-0.282,0.756-0.424,1.3-0.424c0.549,0,0.983,0.152,1.304,0.457c0.319,0.305,0.479,0.683,0.479,1.133
					c0,0.229-0.047,0.455-0.14,0.677c-0.094,0.222-0.248,0.454-0.465,0.699c-0.216,0.245-0.576,0.581-1.08,1.009
					c-0.424,0.355-0.695,0.596-0.815,0.723c-0.12,0.126-0.219,0.253-0.297,0.381H130.897z"/>
				<path i:knockout="Off" d="M132.744,21.037c-0.291-0.106-0.507-0.259-0.647-0.457s-0.211-0.436-0.211-0.712
					c0-0.417,0.149-0.767,0.447-1.052c0.299-0.283,0.696-0.426,1.191-0.426c0.498,0,0.899,0.146,1.202,0.436
					c0.305,0.291,0.456,0.645,0.456,1.062c0,0.267-0.069,0.497-0.208,0.694c-0.139,0.196-0.35,0.349-0.631,0.455
					c0.35,0.114,0.616,0.299,0.799,0.554s0.274,0.559,0.274,0.912c0,0.489-0.173,0.899-0.519,1.232s-0.801,0.499-1.364,0.499
					s-1.019-0.167-1.364-0.501s-0.519-0.751-0.519-1.25c0-0.371,0.095-0.683,0.284-0.934S132.395,21.127,132.744,21.037z
					 M132.37,22.488c0,0.2,0.046,0.394,0.139,0.58c0.092,0.188,0.233,0.332,0.423,0.434c0.189,0.104,0.393,0.154,0.608,0.154
					c0.341,0,0.618-0.107,0.835-0.323c0.215-0.215,0.323-0.489,0.323-0.821c0-0.338-0.111-0.616-0.333-0.837
					c-0.223-0.221-0.506-0.331-0.849-0.331c-0.335,0-0.61,0.109-0.825,0.327C132.478,21.888,132.37,22.161,132.37,22.488z
					 M132.604,19.843c0,0.271,0.085,0.492,0.257,0.664c0.171,0.172,0.398,0.258,0.681,0.258c0.274,0,0.497-0.085,0.667-0.256
					c0.17-0.17,0.255-0.379,0.255-0.627c0-0.258-0.088-0.475-0.263-0.65s-0.397-0.264-0.667-0.264c-0.272,0-0.495,0.086-0.669,0.258
					S132.604,19.604,132.604,19.843z"/>
			</g>
			<path i:knockout="Off" fill="none" stroke="#000000" stroke-width="0.7" stroke-linecap="round" d="M136.937,26.349h-10.875"/>
			<path i:knockout="Off" fill="none" stroke="#000000" stroke-width="0.7" stroke-linecap="round" d="M137.097,16.294V3.954h11.34
				v12.341H137.097z"/>
			<g i:knockout="Off">
				<path i:knockout="Off" d="M141.233,11.788h-0.703v-4.48c-0.169,0.162-0.392,0.323-0.666,0.484
					c-0.274,0.162-0.521,0.283-0.74,0.363v-0.68c0.394-0.185,0.737-0.409,1.031-0.672c0.294-0.263,0.503-0.518,0.625-0.766h0.453
					V11.788z"/>
				<path i:knockout="Off" d="M143.042,10.288l0.719-0.094c0.08,0.393,0.215,0.676,0.405,0.85c0.189,0.173,0.425,0.26,0.706,0.26
					c0.333,0,0.611-0.115,0.835-0.344c0.223-0.229,0.335-0.514,0.335-0.853c0-0.323-0.104-0.59-0.313-0.8s-0.476-0.315-0.798-0.315
					c-0.132,0-0.296,0.026-0.492,0.078l0.077-0.625c0.047,0.005,0.084,0.008,0.112,0.008c0.294,0,0.56-0.077,0.795-0.232
					c0.235-0.155,0.354-0.394,0.354-0.717c0-0.255-0.087-0.467-0.259-0.635c-0.174-0.168-0.396-0.252-0.67-0.252
					c-0.271,0-0.496,0.086-0.676,0.258c-0.182,0.172-0.297,0.43-0.349,0.773l-0.719-0.125c0.086-0.471,0.28-0.836,0.585-1.096
					c0.304-0.259,0.682-0.389,1.134-0.389c0.312,0,0.599,0.067,0.861,0.2c0.263,0.134,0.463,0.315,0.603,0.546
					c0.139,0.231,0.208,0.476,0.208,0.735c0,0.246-0.066,0.47-0.199,0.672s-0.329,0.363-0.59,0.482
					c0.339,0.078,0.604,0.241,0.797,0.487c0.192,0.246,0.289,0.555,0.289,0.925c0,0.501-0.183,0.926-0.547,1.273
					c-0.364,0.349-0.825,0.522-1.383,0.522c-0.503,0-0.92-0.147-1.252-0.443S143.089,10.758,143.042,10.288z"/>
			</g>
			<path i:knockout="Off" fill="none" stroke="#000000" stroke-width="0.7" stroke-linecap="round" d="M148.312,13.997h-10.875"/>
			<path i:knockout="Off" fill="none" stroke="#000000" stroke-width="0.7" stroke-linecap="round" d="M137.097,28.646v-12.34h11.34
				v12.34H137.097z"/>
			<g i:knockout="Off">
				<path i:knockout="Off" d="M142.272,23.468v0.672h-3.797c-0.005-0.169,0.022-0.332,0.083-0.488
					c0.097-0.258,0.252-0.511,0.467-0.76c0.214-0.248,0.521-0.537,0.92-0.864c0.62-0.517,1.04-0.923,1.262-1.221
					c0.221-0.298,0.331-0.58,0.331-0.849c0-0.277-0.1-0.513-0.3-0.703c-0.199-0.191-0.459-0.287-0.78-0.287
					c-0.339,0-0.61,0.104-0.813,0.311c-0.204,0.208-0.307,0.494-0.31,0.861l-0.719-0.094c0.05-0.539,0.235-0.949,0.558-1.232
					c0.322-0.282,0.756-0.424,1.3-0.424c0.549,0,0.983,0.152,1.304,0.457c0.319,0.305,0.479,0.683,0.479,1.133
					c0,0.229-0.047,0.455-0.14,0.677c-0.094,0.222-0.248,0.454-0.465,0.699c-0.216,0.245-0.576,0.581-1.08,1.009
					c-0.424,0.355-0.695,0.596-0.815,0.723c-0.12,0.126-0.219,0.253-0.297,0.381H142.272z"/>
				<path i:knockout="Off" d="M143.12,22.812l0.672-0.063c0.058,0.318,0.167,0.549,0.328,0.691c0.161,0.144,0.368,0.215,0.621,0.215
					c0.216,0,0.407-0.049,0.572-0.147s0.299-0.229,0.4-0.395s0.188-0.387,0.258-0.667c0.07-0.279,0.105-0.565,0.105-0.857
					c0-0.031-0.001-0.078-0.004-0.141c-0.14,0.225-0.331,0.406-0.573,0.545c-0.242,0.14-0.505,0.209-0.787,0.209
					c-0.472,0-0.871-0.172-1.197-0.516c-0.326-0.345-0.489-0.798-0.489-1.361c0-0.581,0.171-1.049,0.514-1.404
					c0.343-0.354,0.771-0.531,1.287-0.531c0.372,0,0.713,0.101,1.021,0.301s0.543,0.486,0.703,0.856
					c0.16,0.371,0.24,0.907,0.24,1.61c0,0.731-0.08,1.313-0.239,1.747s-0.396,0.763-0.711,0.989c-0.315,0.227-0.684,0.34-1.107,0.34
					c-0.449,0-0.816-0.124-1.102-0.373C143.349,23.613,143.178,23.263,143.12,22.812z M146.011,20.287
					c0-0.404-0.106-0.725-0.319-0.963c-0.213-0.236-0.473-0.355-0.78-0.355c-0.318,0-0.593,0.128-0.821,0.384
					c-0.23,0.255-0.345,0.587-0.345,0.993c0,0.365,0.108,0.662,0.327,0.891c0.217,0.228,0.49,0.342,0.819,0.342
					c0.326,0,0.595-0.114,0.804-0.342C145.906,21.007,146.011,20.691,146.011,20.287z"/>
			</g>
			<path i:knockout="Off" fill="none" stroke="#000000" stroke-width="0.7" stroke-linecap="round" d="M148.312,26.349h-10.875"/>
			<path i:knockout="Off" fill="none" stroke="#000000" stroke-width="0.7" stroke-linecap="round" d="M148.472,16.294V3.954h11.34
				v12.341H148.472z"/>
			<g i:knockout="Off">
				<path i:knockout="Off" d="M152.608,11.788h-0.703v-4.48c-0.169,0.162-0.392,0.323-0.666,0.484
					c-0.274,0.162-0.521,0.283-0.74,0.363v-0.68c0.394-0.185,0.737-0.409,1.031-0.672c0.294-0.263,0.503-0.518,0.625-0.766h0.453
					V11.788z"/>
				<path i:knockout="Off" d="M156.651,11.788v-1.375h-2.484V9.772l2.625-3.719h0.563v3.719h0.781v0.641h-0.781v1.375H156.651z
					 M156.651,9.772V7.206l-1.792,2.566H156.651z"/>
			</g>
			<path i:knockout="Off" fill="none" stroke="#000000" stroke-width="0.7" stroke-linecap="round" d="M159.687,13.997h-10.875"/>
			<path i:knockout="Off" fill="none" stroke="#000000" stroke-width="0.7" stroke-linecap="round" d="M148.472,28.646v-12.34h11.34
				v12.34H148.472z"/>
			<g i:knockout="Off">
				<path i:knockout="Off" d="M149.968,22.64l0.719-0.094c0.08,0.393,0.215,0.676,0.405,0.85c0.189,0.173,0.425,0.26,0.706,0.26
					c0.333,0,0.611-0.115,0.835-0.344c0.223-0.23,0.335-0.515,0.335-0.854c0-0.323-0.104-0.59-0.313-0.801
					c-0.209-0.209-0.476-0.314-0.798-0.314c-0.132,0-0.296,0.026-0.492,0.078l0.077-0.625c0.047,0.006,0.084,0.008,0.112,0.008
					c0.294,0,0.56-0.077,0.795-0.232c0.235-0.154,0.354-0.394,0.354-0.717c0-0.256-0.087-0.467-0.259-0.635
					c-0.174-0.168-0.396-0.252-0.67-0.252c-0.271,0-0.496,0.086-0.676,0.258c-0.182,0.172-0.297,0.43-0.349,0.773l-0.719-0.125
					c0.086-0.471,0.28-0.836,0.585-1.096c0.304-0.259,0.682-0.389,1.134-0.389c0.312,0,0.599,0.066,0.861,0.2
					s0.463,0.315,0.603,0.546c0.139,0.23,0.208,0.476,0.208,0.735c0,0.246-0.066,0.47-0.199,0.673
					c-0.133,0.201-0.329,0.362-0.59,0.481c0.339,0.078,0.604,0.241,0.797,0.487s0.289,0.555,0.289,0.925
					c0,0.501-0.183,0.926-0.547,1.273c-0.364,0.349-0.825,0.522-1.383,0.522c-0.503,0-0.92-0.147-1.252-0.443
					S150.015,23.111,149.968,22.64z"/>
				<path i:knockout="Off" d="M154.401,21.314c0-0.677,0.07-1.223,0.211-1.638c0.14-0.415,0.349-0.733,0.626-0.954
					c0.277-0.222,0.626-0.332,1.046-0.332c0.31,0,0.583,0.063,0.819,0.186s0.43,0.302,0.579,0.535
					c0.149,0.232,0.268,0.516,0.354,0.851c0.086,0.335,0.13,0.785,0.13,1.353c0,0.672-0.069,1.215-0.209,1.63
					c-0.139,0.415-0.347,0.733-0.624,0.956s-0.627,0.334-1.05,0.334c-0.557,0-0.994-0.195-1.312-0.586
					C154.592,23.167,154.401,22.389,154.401,21.314z M155.12,21.312c0,0.945,0.112,1.572,0.336,1.881s0.499,0.463,0.828,0.463
					c0.328,0,0.604-0.154,0.828-0.465c0.224-0.31,0.336-0.936,0.336-1.879c0-0.942-0.111-1.568-0.334-1.879
					c-0.223-0.31-0.502-0.465-0.838-0.465c-0.329,0-0.592,0.137-0.791,0.41C155.242,19.728,155.12,20.373,155.12,21.312z"/>
			</g>
			<path i:knockout="Off" fill="none" stroke="#000000" stroke-width="0.7" stroke-linecap="round" d="M159.687,26.349h-10.875"/>
			<path i:knockout="Off" fill="none" stroke="#000000" stroke-width="0.7" stroke-linecap="round" d="M159.847,16.294V3.954h11.34
				v12.341H159.847z"/>
			<g i:knockout="Off">
				<path i:knockout="Off" d="M163.983,11.788h-0.703v-4.48c-0.169,0.162-0.392,0.323-0.666,0.484
					c-0.274,0.162-0.521,0.283-0.74,0.363v-0.68c0.394-0.185,0.737-0.409,1.031-0.672c0.294-0.263,0.503-0.518,0.625-0.766h0.453
					V11.788z"/>
				<path i:knockout="Off" d="M165.776,10.288l0.719-0.063c0.055,0.358,0.182,0.627,0.38,0.808c0.197,0.181,0.44,0.271,0.729,0.271
					c0.35,0,0.64-0.127,0.871-0.382c0.232-0.254,0.349-0.592,0.349-1.013c0-0.399-0.11-0.715-0.332-0.946
					c-0.222-0.231-0.519-0.347-0.891-0.347c-0.231,0-0.438,0.051-0.617,0.152s-0.321,0.233-0.426,0.395l-0.656-0.094l0.563-2.938
					h2.844v0.672h-2.285l-0.313,1.549c0.344-0.241,0.704-0.361,1.082-0.361c0.5,0,0.922,0.173,1.266,0.519s0.516,0.791,0.516,1.334
					c0,0.518-0.151,0.965-0.453,1.343c-0.367,0.463-0.868,0.694-1.504,0.694c-0.521,0-0.946-0.146-1.275-0.437
					S165.823,10.768,165.776,10.288z"/>
			</g>
			<path i:knockout="Off" fill="none" stroke="#000000" stroke-width="0.7" stroke-linecap="round" d="M171.062,13.997h-10.875"/>
			<path i:knockout="Off" fill="none" stroke="#000000" stroke-width="0.7" stroke-linecap="round" d="M159.847,28.646v-12.34h11.34
				v12.34H159.847z"/>
			<g i:knockout="Off">
				<path i:knockout="Off" d="M161.343,22.64l0.719-0.094c0.08,0.393,0.215,0.676,0.405,0.85c0.189,0.173,0.425,0.26,0.706,0.26
					c0.333,0,0.611-0.115,0.835-0.344c0.223-0.23,0.335-0.515,0.335-0.854c0-0.323-0.104-0.59-0.313-0.801
					c-0.209-0.209-0.476-0.314-0.798-0.314c-0.132,0-0.296,0.026-0.492,0.078l0.077-0.625c0.047,0.006,0.084,0.008,0.112,0.008
					c0.294,0,0.56-0.077,0.795-0.232c0.235-0.154,0.354-0.394,0.354-0.717c0-0.256-0.087-0.467-0.259-0.635
					c-0.174-0.168-0.396-0.252-0.67-0.252c-0.271,0-0.496,0.086-0.676,0.258c-0.182,0.172-0.297,0.43-0.349,0.773l-0.719-0.125
					c0.086-0.471,0.28-0.836,0.585-1.096c0.304-0.259,0.682-0.389,1.134-0.389c0.312,0,0.599,0.066,0.861,0.2
					s0.463,0.315,0.603,0.546c0.139,0.23,0.208,0.476,0.208,0.735c0,0.246-0.066,0.47-0.199,0.673
					c-0.133,0.201-0.329,0.362-0.59,0.481c0.339,0.078,0.604,0.241,0.797,0.487s0.289,0.555,0.289,0.925
					c0,0.501-0.183,0.926-0.547,1.273c-0.364,0.349-0.825,0.522-1.383,0.522c-0.503,0-0.92-0.147-1.252-0.443
					S161.39,23.111,161.343,22.64z"/>
				<path i:knockout="Off" d="M168.433,24.14h-0.703v-4.48c-0.169,0.162-0.392,0.323-0.666,0.484
					c-0.274,0.162-0.521,0.283-0.74,0.363v-0.68c0.394-0.185,0.737-0.408,1.031-0.672c0.294-0.263,0.503-0.518,0.625-0.766h0.453
					V24.14z"/>
			</g>
			<path i:knockout="Off" fill="none" stroke="#000000" stroke-width="0.7" stroke-linecap="round" d="M171.062,26.349h-10.875"/>
			<path i:knockout="Off" fill="none" stroke="#000000" stroke-width="0.7" stroke-linecap="round" d="M171.222,16.294V3.954h11.34
				v12.341H171.222z"/>
			<g i:knockout="Off">
				<path i:knockout="Off" d="M175.358,11.788h-0.703v-4.48c-0.169,0.162-0.392,0.323-0.666,0.484
					c-0.274,0.162-0.521,0.283-0.74,0.363v-0.68c0.394-0.185,0.737-0.409,1.031-0.672c0.294-0.263,0.503-0.518,0.625-0.766h0.453
					V11.788z"/>
				<path i:knockout="Off" d="M180.823,7.459l-0.703,0.063c-0.063-0.277-0.152-0.479-0.268-0.604
					c-0.191-0.201-0.427-0.302-0.708-0.302c-0.226,0-0.426,0.063-0.602,0.187c-0.218,0.161-0.391,0.396-0.52,0.705
					c-0.128,0.309-0.195,0.75-0.2,1.323c0.17-0.258,0.378-0.449,0.623-0.574c0.246-0.125,0.503-0.188,0.772-0.188
					c0.471,0,0.871,0.173,1.202,0.518c0.331,0.345,0.496,0.791,0.496,1.338c0,0.359-0.078,0.693-0.233,1.002
					c-0.156,0.309-0.369,0.545-0.642,0.709c-0.271,0.164-0.58,0.246-0.925,0.246c-0.589,0-1.068-0.215-1.44-0.646
					c-0.371-0.431-0.557-1.14-0.557-2.129c0-1.106,0.206-1.91,0.617-2.413c0.358-0.437,0.843-0.656,1.45-0.656
					c0.453,0,0.825,0.126,1.115,0.378C180.592,6.667,180.766,7.015,180.823,7.459z M177.933,9.93c0,0.242,0.052,0.474,0.155,0.694
					c0.104,0.221,0.246,0.39,0.43,0.505c0.184,0.116,0.38,0.174,0.589,0.174c0.304,0,0.562-0.12,0.773-0.359
					s0.318-0.564,0.318-0.975c0-0.395-0.104-0.707-0.314-0.934c-0.209-0.228-0.478-0.341-0.805-0.341
					c-0.319,0-0.591,0.114-0.813,0.341C178.044,9.263,177.933,9.561,177.933,9.93z"/>
			</g>
			<path i:knockout="Off" fill="none" stroke="#000000" stroke-width="0.7" stroke-linecap="round" d="M182.437,13.997h-10.875"/>
			<path i:knockout="Off" fill="none" stroke="#000000" stroke-width="0.7" stroke-linecap="round" d="M171.222,28.646v-12.34h11.34
				v12.34H171.222z"/>
			<g i:knockout="Off">
				<path i:knockout="Off" d="M172.718,22.64l0.719-0.094c0.08,0.393,0.215,0.676,0.405,0.85c0.189,0.173,0.425,0.26,0.706,0.26
					c0.333,0,0.611-0.115,0.835-0.344c0.223-0.23,0.335-0.515,0.335-0.854c0-0.323-0.104-0.59-0.313-0.801
					c-0.209-0.209-0.476-0.314-0.798-0.314c-0.132,0-0.296,0.026-0.492,0.078l0.077-0.625c0.047,0.006,0.084,0.008,0.112,0.008
					c0.294,0,0.56-0.077,0.795-0.232c0.235-0.154,0.354-0.394,0.354-0.717c0-0.256-0.087-0.467-0.259-0.635
					c-0.174-0.168-0.396-0.252-0.67-0.252c-0.271,0-0.496,0.086-0.676,0.258c-0.182,0.172-0.297,0.43-0.349,0.773l-0.719-0.125
					c0.086-0.471,0.28-0.836,0.585-1.096c0.304-0.259,0.682-0.389,1.134-0.389c0.312,0,0.599,0.066,0.861,0.2
					s0.463,0.315,0.603,0.546c0.139,0.23,0.208,0.476,0.208,0.735c0,0.246-0.066,0.47-0.199,0.673
					c-0.133,0.201-0.329,0.362-0.59,0.481c0.339,0.078,0.604,0.241,0.797,0.487s0.289,0.555,0.289,0.925
					c0,0.501-0.183,0.926-0.547,1.273c-0.364,0.349-0.825,0.522-1.383,0.522c-0.503,0-0.92-0.147-1.252-0.443
					S172.765,23.111,172.718,22.64z"/>
				<path i:knockout="Off" d="M180.847,23.468v0.672h-3.797c-0.005-0.169,0.022-0.332,0.083-0.488
					c0.097-0.258,0.252-0.511,0.467-0.76c0.214-0.248,0.521-0.537,0.92-0.864c0.62-0.517,1.04-0.923,1.262-1.221
					c0.221-0.298,0.331-0.58,0.331-0.849c0-0.277-0.1-0.513-0.3-0.703c-0.199-0.191-0.459-0.287-0.78-0.287
					c-0.339,0-0.61,0.104-0.813,0.311c-0.204,0.208-0.307,0.494-0.31,0.861l-0.719-0.094c0.05-0.539,0.235-0.949,0.558-1.232
					c0.322-0.282,0.756-0.424,1.3-0.424c0.549,0,0.983,0.152,1.304,0.457c0.319,0.305,0.479,0.683,0.479,1.133
					c0,0.229-0.047,0.455-0.14,0.677c-0.094,0.222-0.248,0.454-0.465,0.699c-0.216,0.245-0.576,0.581-1.08,1.009
					c-0.424,0.355-0.695,0.596-0.815,0.723c-0.12,0.126-0.219,0.253-0.297,0.381H180.847z"/>
			</g>
			<path i:knockout="Off" fill="none" stroke="#000000" stroke-width="0.7" stroke-linecap="round" d="M182.437,26.349h-10.875"/>
			<g>
				<g>
					<g>
						<path i:knockout="Off" fill="none" stroke="#000000" stroke-width="1.2" stroke-linecap="round" d="M29.168,3.949V0.6h16.968
							v3.349H29.168z"/>
					</g>
				</g>
				<g>
					<g>
						<path i:knockout="Off" fill="none" stroke="#000000" stroke-width="1.2" stroke-linecap="round" d="M57.697,3.949V0.6h67.977
							v3.349H57.697z"/>
					</g>
				</g>
				<g>
					<g>
						<path i:knockout="Off" fill="none" stroke="#000000" stroke-width="1.2" stroke-linecap="round" d="M137.046,3.949V0.6h16.969
							v3.349H137.046z"/>
					</g>
				</g>
				<g>
					<g>
						<path i:knockout="Off" fill="none" stroke="#000000" stroke-width="1.2" stroke-linecap="round" d="M177.037,4.016V0.667
							h5.547v3.349"/>
					</g>
				</g>
				<g>
					<g>
						<path i:knockout="Off" fill="none" stroke="#000000" stroke-width="1.2" stroke-linecap="round" d="M0.6,4.016V0.667h5.546
							v3.349"/>
					</g>
				</g>
			</g>
			<path i:knockout="Off" fill="none" stroke="#000000" stroke-width="1.2" stroke-linecap="round" d="M182.562,28.646V4.016H0.6
				v24.63H182.562z"/>
		</g>
	</g>
</svg>
