<?xml version="1.0" encoding="utf-8"?>
<!-- Generator: Adobe Illustrator 10.0, SVG Export Plug-In . SVG Version: 3.0.0 Build 77)  -->
<!DOCTYPE svg PUBLIC "-//W3C//DTD SVG 1.0//EN"    "http://www.w3.org/TR/2001/REC-SVG-20010904/DTD/svg10.dtd" [
	<!ENTITY ns_flows "http://ns.adobe.com/Flows/1.0/">
	<!ENTITY ns_extend "http://ns.adobe.com/Extensibility/1.0/">
	<!ENTITY ns_ai "http://ns.adobe.com/AdobeIllustrator/10.0/">
	<!ENTITY ns_graphs "http://ns.adobe.com/Graphs/1.0/">
	<!ENTITY ns_vars "http://ns.adobe.com/Variables/1.0/">
	<!ENTITY ns_imrep "http://ns.adobe.com/ImageReplacement/1.0/">
	<!ENTITY ns_sfw "http://ns.adobe.com/SaveForWeb/1.0/">
	<!ENTITY ns_custom "http://ns.adobe.com/GenericCustomNamespace/1.0/">
	<!ENTITY ns_adobe_xpath "http://ns.adobe.com/XPath/1.0/">
	<!ENTITY ns_svg "http://www.w3.org/2000/svg">
	<!ENTITY ns_xlink "http://www.w3.org/1999/xlink">
]>
<svg xmlns:x="&ns_extend;" xmlns:i="&ns_ai;" xmlns:graph="&ns_graphs;" i:viewOrigin="282.1084 474.5376" i:rulerOrigin="0 0" i:pageBounds="0 841.8896 595.2754 0" xmlns="&ns_svg;" xmlns:xlink="&ns_xlink;" xmlns:a="http://ns.adobe.com/AdobeSVGViewerExtensions/3.0/" width="39.177" height="30.2" viewBox="0 0 39.177 30.2" overflow="visible" enable-background="new 0 0 39.177 30.2" xml:space="preserve" id="svgObj" onload="parent.svgLoad('Top', document)">
	<metadata>
		<variableSets xmlns="&ns_vars;">
			<variableSet varSetName="binding1" locked="none">
				<variables></variables>
				<v:sampleDataSets xmlns="&ns_custom;" xmlns:v="&ns_vars;"></v:sampleDataSets>
			</variableSet>
		</variableSets>
		<sfw xmlns="&ns_sfw;">
			<slices></slices>
			<sliceSourceBounds y="426.027" x="262.5" width="80.37" height="63.362" bottomLeftOrigin="true"></sliceSourceBounds>
		</sfw>
	</metadata>
	<g id="レイヤー_1" i:layer="yes" i:dimmedPercent="100" i:rgbTrio="#4F008000FFFF">
		<g>
			<path i:knockout="Off" fill="none" stroke="#000000" stroke-width="1.2" stroke-linecap="round" d="M36.602,29.6V4.059H2.584
				V29.6H36.602z"/>
			<path i:knockout="Off" fill="none" stroke="#000000" stroke-width="0.7" stroke-linecap="round" d="M13.924,16.829V4.059H2.584
				v12.771H13.924z M13.924,29.6V16.829H2.584V29.6H13.924z M25.263,29.6V16.829H13.924V29.6H25.263z M36.602,29.6V16.829H25.263
				V29.6H36.602z M25.263,16.829V4.059H13.924v12.771H25.263z M36.602,16.829V4.059H25.263v12.771H36.602z"/>
			<path i:knockout="Off" fill="none" stroke="#000000" stroke-width="1.2" stroke-linecap="round" d="M22.136,3.838V0.6h-5.668
				v3.238H22.136z"/>
			<g i:knockout="Off">
				<path i:knockout="Off" d="M28.754,10.881l0.719-0.094c0.08,0.393,0.215,0.676,0.405,0.849c0.189,0.174,0.425,0.26,0.706,0.26
					c0.333,0,0.611-0.115,0.835-0.344c0.223-0.229,0.335-0.514,0.335-0.854c0-0.323-0.104-0.59-0.313-0.8s-0.476-0.315-0.798-0.315
					c-0.132,0-0.296,0.026-0.492,0.078l0.077-0.625c0.047,0.005,0.084,0.008,0.112,0.008c0.294,0,0.56-0.078,0.795-0.232
					s0.354-0.394,0.354-0.716c0-0.256-0.087-0.468-0.259-0.636c-0.174-0.167-0.396-0.251-0.67-0.251
					c-0.271,0-0.496,0.086-0.676,0.258c-0.182,0.172-0.297,0.43-0.349,0.773l-0.719-0.125c0.086-0.471,0.28-0.836,0.585-1.096
					c0.304-0.259,0.682-0.389,1.134-0.389c0.312,0,0.599,0.067,0.861,0.2s0.463,0.316,0.603,0.546
					c0.139,0.23,0.208,0.476,0.208,0.734c0,0.246-0.066,0.471-0.199,0.673s-0.329,0.363-0.59,0.482
					c0.339,0.079,0.604,0.241,0.797,0.487c0.192,0.247,0.289,0.555,0.289,0.926c0,0.5-0.183,0.925-0.547,1.273
					c-0.364,0.348-0.825,0.522-1.383,0.522c-0.503,0-0.92-0.148-1.252-0.444S28.801,11.352,28.754,10.881z"/>
			</g>
			<g i:knockout="Off">
				<path i:knockout="Off" d="M21.101,11.751v0.672h-3.797c-0.006-0.169,0.022-0.332,0.083-0.488
					c0.097-0.258,0.253-0.511,0.467-0.76s0.521-0.537,0.92-0.864c0.62-0.516,1.04-0.923,1.261-1.221
					c0.222-0.297,0.332-0.581,0.332-0.848c0-0.278-0.1-0.513-0.299-0.704c-0.2-0.191-0.461-0.287-0.781-0.287
					c-0.34,0-0.61,0.104-0.814,0.311c-0.203,0.207-0.307,0.494-0.309,0.861l-0.719-0.094c0.049-0.539,0.235-0.95,0.558-1.232
					c0.323-0.283,0.756-0.424,1.3-0.424c0.549,0,0.983,0.153,1.303,0.458c0.32,0.305,0.48,0.682,0.48,1.133
					c0,0.229-0.047,0.455-0.14,0.676c-0.094,0.222-0.248,0.455-0.465,0.7c-0.216,0.245-0.576,0.581-1.081,1.009
					c-0.423,0.355-0.694,0.596-0.814,0.722c-0.119,0.126-0.219,0.254-0.297,0.381H21.101z"/>
			</g>
			<g i:knockout="Off">
				<path i:knockout="Off" d="M8.728,12.423H8.025v-4.48C7.855,8.104,7.634,8.265,7.359,8.427S6.837,8.709,6.619,8.79V8.11
					C7.012,7.925,7.355,7.702,7.65,7.438S8.152,6.92,8.275,6.673h0.453V12.423z"/>
			</g>
			<g i:knockout="Off">
				<path i:knockout="Off" d="M32.41,20.819l-0.703,0.063c-0.063-0.277-0.152-0.479-0.268-0.604
					c-0.191-0.201-0.427-0.302-0.708-0.302c-0.226,0-0.426,0.063-0.602,0.187c-0.218,0.161-0.391,0.396-0.52,0.705
					c-0.128,0.309-0.195,0.75-0.2,1.323c0.17-0.258,0.378-0.449,0.623-0.574c0.246-0.125,0.503-0.188,0.772-0.188
					c0.471,0,0.871,0.173,1.202,0.518c0.331,0.345,0.496,0.791,0.496,1.338c0,0.359-0.078,0.693-0.233,1.002
					c-0.156,0.309-0.369,0.545-0.642,0.709c-0.271,0.164-0.58,0.246-0.925,0.246c-0.589,0-1.068-0.215-1.44-0.646
					c-0.371-0.431-0.557-1.14-0.557-2.129c0-1.106,0.206-1.91,0.617-2.413c0.358-0.437,0.843-0.656,1.45-0.656
					c0.453,0,0.825,0.126,1.115,0.378C32.179,20.027,32.353,20.375,32.41,20.819z M29.52,23.29c0,0.242,0.052,0.474,0.155,0.694
					c0.104,0.221,0.246,0.39,0.43,0.505c0.184,0.116,0.38,0.174,0.589,0.174c0.304,0,0.562-0.12,0.773-0.359
					s0.318-0.564,0.318-0.975c0-0.395-0.104-0.707-0.314-0.934c-0.209-0.228-0.478-0.341-0.805-0.341
					c-0.319,0-0.591,0.114-0.813,0.341C29.631,22.622,29.52,22.92,29.52,23.29z"/>
			</g>
			<g i:knockout="Off">
				<path i:knockout="Off" d="M17.405,23.647l0.719-0.063c0.055,0.358,0.182,0.627,0.379,0.808c0.198,0.181,0.441,0.271,0.73,0.271
					c0.348,0,0.639-0.127,0.871-0.382c0.231-0.254,0.348-0.592,0.348-1.013c0-0.399-0.111-0.715-0.332-0.946
					c-0.222-0.231-0.519-0.347-0.891-0.347c-0.232,0-0.438,0.051-0.617,0.152s-0.322,0.233-0.426,0.395l-0.656-0.094l0.563-2.938
					h2.844v0.672h-2.285l-0.313,1.549c0.344-0.241,0.704-0.361,1.082-0.361c0.5,0,0.922,0.173,1.266,0.519s0.516,0.791,0.516,1.334
					c0,0.518-0.151,0.965-0.453,1.343c-0.367,0.463-0.869,0.694-1.504,0.694c-0.521,0-0.946-0.146-1.275-0.437
					C17.64,24.513,17.452,24.127,17.405,23.647z"/>
			</g>
			<g i:knockout="Off">
				<path i:knockout="Off" d="M8.322,25.147v-1.375H5.837v-0.641l2.625-3.719h0.563v3.719h0.781v0.641H9.025v1.375H8.322z
					 M8.322,23.131v-2.566l-1.792,2.566H8.322z"/>
			</g>
			<path i:knockout="Off" fill="none" stroke="#000000" stroke-width="1.2" stroke-linecap="round" d="M38.577,18.649V15.3h-1.984
				v3.349H38.577z"/>
			<path i:knockout="Off" fill="none" stroke="#000000" stroke-width="1.2" stroke-linecap="round" d="M2.584,18.449V15.1H0.6v3.349
				H2.584z"/>
			<path i:knockout="Off" fill="none" stroke="#000000" stroke-width="0.7" stroke-linecap="round" d="M2.584,15.1h34.017"/>
			<path i:knockout="Off" fill="none" stroke="#000000" stroke-width="0.7" stroke-linecap="round" d="M2.584,27.433h34.017"/>
		</g>
	</g>
</svg>
