<?xml version="1.0" encoding="utf-8"?>
<!-- Generator: Adobe Illustrator 10.0, SVG Export Plug-In . SVG Version: 3.0.0 Build 77)  -->
<!DOCTYPE svg PUBLIC "-//W3C//DTD SVG 1.0//EN"    "http://www.w3.org/TR/2001/REC-SVG-20010904/DTD/svg10.dtd" [
	<!ENTITY ns_flows "http://ns.adobe.com/Flows/1.0/">
	<!ENTITY ns_extend "http://ns.adobe.com/Extensibility/1.0/">
	<!ENTITY ns_ai "http://ns.adobe.com/AdobeIllustrator/10.0/">
	<!ENTITY ns_graphs "http://ns.adobe.com/Graphs/1.0/">
	<!ENTITY ns_vars "http://ns.adobe.com/Variables/1.0/">
	<!ENTITY ns_imrep "http://ns.adobe.com/ImageReplacement/1.0/">
	<!ENTITY ns_sfw "http://ns.adobe.com/SaveForWeb/1.0/">
	<!ENTITY ns_custom "http://ns.adobe.com/GenericCustomNamespace/1.0/">
	<!ENTITY ns_adobe_xpath "http://ns.adobe.com/XPath/1.0/">
	<!ENTITY ns_svg "http://www.w3.org/2000/svg">
	<!ENTITY ns_xlink "http://www.w3.org/1999/xlink">
]>
<svg xmlns:x="&ns_extend;" xmlns:i="&ns_ai;" xmlns:graph="&ns_graphs;" i:viewOrigin="270.6489 428.9697" i:rulerOrigin="0 9.765625e-004" i:pageBounds="0 841.8887 595.2754 -9.765625e-004" xmlns="&ns_svg;" xmlns:xlink="&ns_xlink;" xmlns:a="http://ns.adobe.com/AdobeSVGViewerExtensions/3.0/" width="58.085" height="27.71" viewBox="0 0 58.085 27.71" overflow="visible" enable-background="new 0 0 58.085 27.71" xml:space="preserve" id="svgObj" onload="parent.svgLoad('Top', document)">
	<metadata>
		<variableSets xmlns="&ns_vars;">
			<variableSet varSetName="binding1" locked="none">
				<variables></variables>
				<v:sampleDataSets xmlns="&ns_custom;" xmlns:v="&ns_vars;"></v:sampleDataSets>
			</variableSet>
		</variableSets>
		<sfw xmlns="&ns_sfw;">
			<slices></slices>
			<sliceSourceBounds y="401.26" x="270.649" width="58.085" height="27.71" bottomLeftOrigin="true"></sliceSourceBounds>
		</sfw>
	</metadata>
	<g id="レイヤー_1" i:layer="yes" i:dimmedPercent="50" i:rgbTrio="#4F008000FFFF">
		<g>
			<path i:knockout="Off" fill="none" stroke="#000000" stroke-width="1.2" d="M0.6,23.354V0.6h22.74v11.237h22.722V0.6h11.424
				v22.754H0.6z"/>
			<path i:knockout="Off" fill="none" stroke="#000000" stroke-width="0.7" d="M0.6,12.022h22.74v11.332"/>
			<path i:knockout="Off" fill="none" stroke="#000000" stroke-width="0.7" d="M57.486,12.022h-11.33v11.332"/>
			<g i:knockout="Off">
				<path i:knockout="Off" d="M6.933,9.425H6.23v-4.48C6.061,5.106,5.838,5.268,5.564,5.429C5.289,5.59,5.042,5.711,4.824,5.792
					v-0.68C5.217,4.928,5.561,4.704,5.855,4.44C6.149,4.178,6.357,3.922,6.48,3.675h0.453V9.425z"/>
			</g>
			<g i:knockout="Off">
				<path i:knockout="Off" d="M19.395,8.753v0.672h-3.797c-0.005-0.169,0.022-0.332,0.083-0.488c0.097-0.258,0.252-0.511,0.467-0.76
					c0.214-0.249,0.521-0.537,0.92-0.864c0.62-0.516,1.04-0.923,1.261-1.221s0.332-0.58,0.332-0.849c0-0.278-0.1-0.513-0.299-0.704
					s-0.46-0.287-0.781-0.287c-0.339,0-0.61,0.104-0.814,0.311s-0.307,0.494-0.309,0.861l-0.719-0.094
					c0.049-0.539,0.235-0.95,0.558-1.232c0.323-0.282,0.756-0.424,1.3-0.424c0.549,0,0.983,0.152,1.303,0.457s0.48,0.683,0.48,1.133
					c0,0.229-0.047,0.455-0.14,0.676c-0.094,0.221-0.248,0.454-0.465,0.699c-0.216,0.245-0.576,0.581-1.081,1.009
					C17.271,8.004,17,8.245,16.879,8.372c-0.12,0.126-0.219,0.253-0.297,0.381H19.395z"/>
			</g>
			<g i:knockout="Off">
				<path i:knockout="Off" d="M49.894,7.972l0.719-0.094c0.08,0.393,0.215,0.676,0.404,0.85c0.19,0.173,0.426,0.26,0.707,0.26
					c0.333,0,0.611-0.115,0.835-0.344s0.335-0.514,0.335-0.853c0-0.323-0.104-0.59-0.313-0.8c-0.21-0.21-0.476-0.315-0.798-0.315
					c-0.132,0-0.296,0.026-0.492,0.078l0.078-0.625c0.046,0.005,0.083,0.008,0.111,0.008c0.295,0,0.56-0.077,0.795-0.232
					c0.235-0.155,0.354-0.394,0.354-0.717c0-0.255-0.086-0.467-0.26-0.635C52.197,4.384,51.973,4.3,51.701,4.3
					c-0.271,0-0.497,0.086-0.678,0.258c-0.18,0.172-0.296,0.43-0.348,0.773l-0.719-0.125c0.086-0.471,0.28-0.836,0.584-1.096
					c0.305-0.259,0.683-0.389,1.135-0.389c0.312,0,0.599,0.067,0.861,0.2C52.798,4.056,53,4.237,53.138,4.468
					c0.14,0.231,0.209,0.476,0.209,0.735c0,0.246-0.066,0.47-0.199,0.672s-0.33,0.363-0.59,0.482
					c0.338,0.078,0.604,0.241,0.797,0.487c0.192,0.246,0.289,0.555,0.289,0.925c0,0.501-0.183,0.926-0.547,1.273
					c-0.365,0.349-0.826,0.522-1.383,0.522c-0.503,0-0.92-0.147-1.252-0.443S49.941,8.442,49.894,7.972z"/>
			</g>
			<g i:knockout="Off">
				<path i:knockout="Off" d="M50.972,17.28c-0.292-0.106-0.508-0.259-0.648-0.457s-0.211-0.436-0.211-0.712
					c0-0.417,0.149-0.767,0.447-1.052c0.299-0.283,0.695-0.426,1.191-0.426c0.498,0,0.898,0.146,1.203,0.436
					c0.303,0.291,0.455,0.645,0.455,1.062c0,0.267-0.069,0.497-0.208,0.694c-0.139,0.196-0.349,0.349-0.632,0.455
					c0.351,0.114,0.617,0.299,0.8,0.554s0.274,0.559,0.274,0.912c0,0.489-0.173,0.899-0.519,1.232s-0.8,0.499-1.364,0.499
					s-1.019-0.167-1.364-0.501s-0.519-0.751-0.519-1.25c0-0.371,0.095-0.683,0.284-0.934S50.622,17.371,50.972,17.28z
					 M50.597,18.731c0,0.2,0.046,0.394,0.139,0.58c0.092,0.188,0.232,0.332,0.423,0.434c0.189,0.104,0.393,0.154,0.608,0.154
					c0.341,0,0.619-0.107,0.834-0.323c0.217-0.215,0.324-0.489,0.324-0.821c0-0.338-0.111-0.616-0.334-0.837
					c-0.222-0.221-0.504-0.331-0.848-0.331c-0.336,0-0.61,0.109-0.824,0.327C50.705,18.132,50.597,18.404,50.597,18.731z
					 M50.832,16.087c0,0.271,0.086,0.492,0.257,0.664s0.397,0.258,0.681,0.258c0.275,0,0.497-0.085,0.667-0.256
					c0.17-0.17,0.255-0.379,0.255-0.627c0-0.258-0.088-0.475-0.263-0.65s-0.397-0.264-0.667-0.264c-0.272,0-0.495,0.086-0.669,0.258
					S50.832,15.848,50.832,16.087z"/>
			</g>
			<g i:knockout="Off">
				<path i:knockout="Off" d="M7.022,20.384v-1.375H4.538v-0.641l2.625-3.719h0.563v3.719h0.781v0.641H7.725v1.375H7.022z
					 M7.022,18.368v-2.566l-1.792,2.566H7.022z"/>
			</g>
			<g i:knockout="Off">
				<path i:knockout="Off" d="M31.075,16.056l-0.703,0.063c-0.063-0.277-0.152-0.479-0.268-0.604
					c-0.191-0.201-0.427-0.302-0.708-0.302c-0.226,0-0.426,0.063-0.602,0.188c-0.218,0.16-0.391,0.396-0.52,0.705
					c-0.128,0.309-0.195,0.75-0.2,1.322c0.17-0.258,0.378-0.449,0.623-0.574c0.246-0.125,0.503-0.188,0.772-0.188
					c0.471,0,0.871,0.173,1.202,0.518c0.331,0.346,0.496,0.791,0.496,1.338c0,0.359-0.078,0.693-0.233,1.002
					c-0.156,0.309-0.369,0.545-0.642,0.709c-0.271,0.164-0.58,0.246-0.925,0.246c-0.589,0-1.069-0.215-1.44-0.646
					c-0.371-0.43-0.557-1.14-0.557-2.129c0-1.105,0.206-1.91,0.617-2.412c0.359-0.438,0.843-0.656,1.45-0.656
					c0.453,0,0.825,0.126,1.115,0.378C30.843,15.264,31.017,15.611,31.075,16.056z M28.184,18.526c0,0.242,0.052,0.474,0.155,0.694
					c0.104,0.222,0.246,0.39,0.43,0.505c0.184,0.116,0.38,0.174,0.589,0.174c0.304,0,0.562-0.119,0.773-0.359
					c0.212-0.238,0.318-0.563,0.318-0.975c0-0.395-0.104-0.707-0.314-0.934c-0.209-0.229-0.478-0.342-0.805-0.342
					c-0.319,0-0.591,0.113-0.813,0.342C28.295,17.858,28.184,18.157,28.184,18.526z"/>
			</g>
			<g i:knockout="Off">
				<path i:knockout="Off" d="M38.827,15.399v-0.672h3.703v0.544c-0.365,0.388-0.728,0.904-1.086,1.548
					c-0.358,0.645-0.636,1.307-0.831,1.988c-0.142,0.479-0.231,1.005-0.271,1.576h-0.719c0.008-0.451,0.097-0.996,0.265-1.635
					c0.17-0.64,0.412-1.256,0.728-1.85c0.315-0.593,0.651-1.093,1.008-1.5H38.827z"/>
			</g>
			<g i:knockout="Off">
				<path i:knockout="Off" d="M16.15,18.884l0.719-0.063c0.055,0.358,0.182,0.627,0.379,0.808s0.441,0.271,0.729,0.271
					c0.349,0,0.639-0.127,0.871-0.382c0.232-0.254,0.348-0.592,0.348-1.013c0-0.399-0.111-0.715-0.332-0.946
					c-0.222-0.231-0.519-0.347-0.891-0.347c-0.232,0-0.438,0.051-0.617,0.152s-0.322,0.232-0.426,0.395l-0.656-0.094l0.563-2.938
					h2.844v0.672h-2.285l-0.313,1.549c0.344-0.24,0.704-0.361,1.082-0.361c0.5,0,0.922,0.173,1.266,0.52
					c0.344,0.346,0.516,0.791,0.516,1.334c0,0.518-0.151,0.965-0.453,1.343c-0.367,0.463-0.869,0.694-1.504,0.694
					c-0.521,0-0.946-0.146-1.275-0.437C16.385,19.75,16.197,19.364,16.15,18.884z"/>
			</g>
			<path i:knockout="Off" fill="none" stroke="#000000" stroke-width="0.7" d="M34.793,23.446V11.884"/>
			<path i:knockout="Off" fill="none" stroke="#000000" stroke-width="0.7" d="M11.994,23.446V0.645"/>
			<path i:knockout="Off" fill="none" stroke="#000000" stroke-width="1.2" d="M37.922,11.829V8.668h-6.318v3.161"/>
		</g>
		<path i:knockout="Off" fill="none" stroke="#000000" stroke-width="1.2" d="M0.6,23.354l4.855,3.756h47.249l4.781-3.756"/>
	</g>
</svg>
