<?xml version="1.0" encoding="utf-8"?>
<!-- Generator: Adobe Illustrator 10.0, SVG Export Plug-In . SVG Version: 3.0.0 Build 77)  -->
<!DOCTYPE svg PUBLIC "-//W3C//DTD SVG 1.0//EN"    "http://www.w3.org/TR/2001/REC-SVG-20010904/DTD/svg10.dtd" [
	<!ENTITY ns_flows "http://ns.adobe.com/Flows/1.0/">
	<!ENTITY ns_extend "http://ns.adobe.com/Extensibility/1.0/">
	<!ENTITY ns_ai "http://ns.adobe.com/AdobeIllustrator/10.0/">
	<!ENTITY ns_graphs "http://ns.adobe.com/Graphs/1.0/">
	<!ENTITY ns_vars "http://ns.adobe.com/Variables/1.0/">
	<!ENTITY ns_imrep "http://ns.adobe.com/ImageReplacement/1.0/">
	<!ENTITY ns_sfw "http://ns.adobe.com/SaveForWeb/1.0/">
	<!ENTITY ns_custom "http://ns.adobe.com/GenericCustomNamespace/1.0/">
	<!ENTITY ns_adobe_xpath "http://ns.adobe.com/XPath/1.0/">
	<!ENTITY ns_svg "http://www.w3.org/2000/svg">
	<!ENTITY ns_xlink "http://www.w3.org/1999/xlink">
]>
<svg xmlns:x="&ns_extend;" xmlns:i="&ns_ai;" xmlns:graph="&ns_graphs;" i:viewOrigin="277.1621 439.9785" i:rulerOrigin="-1 0.1104" i:pageBounds="1 841.8896 596 -0.1104" xmlns="&ns_svg;" xmlns:xlink="&ns_xlink;" xmlns:a="http://ns.adobe.com/AdobeSVGViewerExtensions/3.0/" width="40.872" height="34.553" viewBox="0 0 40.872 34.553" overflow="visible" enable-background="new 0 0 40.872 34.553" xml:space="preserve" id="svgObj" onload="parent.svgLoad('Top', document)">
	<metadata>
		<variableSets xmlns="&ns_vars;">
			<variableSet varSetName="binding1" locked="none">
				<variables></variables>
				<v:sampleDataSets xmlns="&ns_custom;" xmlns:v="&ns_vars;"></v:sampleDataSets>
			</variableSet>
		</variableSets>
		<sfw xmlns="&ns_sfw;">
			<slices></slices>
			<sliceSourceBounds y="388.708" x="257.815" width="80.371" height="63.363" bottomLeftOrigin="true"></sliceSourceBounds>
		</sfw>
	</metadata>
	<g id="レイヤー_1" i:layer="yes" i:dimmedPercent="100" i:rgbTrio="#4F008000FFFF">
		<g>
			<g>
				<path i:knockout="Off" fill="none" stroke="#000000" stroke-width="0.7" d="M20.562,24.989V14.116H9.212v10.874H20.562z"/>
				<path i:knockout="Off" fill="none" stroke="#000000" stroke-width="0.7" d="M31.899,24.989V14.116H20.55v10.874H31.899z"/>
				<g i:knockout="Off">
					<path i:knockout="Off" d="M28.024,21.443v0.672h-3.797c-0.005-0.169,0.022-0.332,0.083-0.488
						c0.097-0.258,0.252-0.511,0.467-0.76c0.214-0.249,0.521-0.536,0.92-0.864c0.62-0.516,1.04-0.923,1.262-1.221
						c0.221-0.298,0.331-0.58,0.331-0.849c0-0.278-0.1-0.513-0.3-0.704c-0.199-0.191-0.459-0.287-0.78-0.287
						c-0.339,0-0.61,0.104-0.813,0.311c-0.204,0.208-0.307,0.494-0.31,0.861l-0.719-0.094c0.05-0.539,0.235-0.95,0.558-1.232
						c0.322-0.282,0.756-0.424,1.3-0.424c0.549,0,0.983,0.152,1.304,0.457c0.319,0.305,0.479,0.683,0.479,1.133
						c0,0.229-0.047,0.455-0.14,0.676c-0.094,0.221-0.248,0.454-0.465,0.699c-0.216,0.245-0.576,0.581-1.08,1.009
						c-0.424,0.354-0.695,0.596-0.815,0.722c-0.12,0.127-0.219,0.254-0.297,0.382H28.024z"/>
				</g>
				<g i:knockout="Off">
					<path i:knockout="Off" d="M15.646,22.115h-0.703v-4.48c-0.169,0.162-0.391,0.323-0.666,0.484
						c-0.275,0.162-0.521,0.283-0.74,0.363v-0.68c0.393-0.185,0.737-0.409,1.031-0.672c0.294-0.263,0.502-0.518,0.625-0.766h0.453
						V22.115z"/>
				</g>
			</g>
		</g>
		<path i:knockout="Off" fill="none" stroke="#000000" stroke-width="0.7" d="M39.522,4.448h-3.895c0,0,0,3.858,0,5.007
			c-1.396,0-28.987,0-30.383,0c0-1.149,0-5.007,0-5.007H0.6v10.103c0,0,1.515,0,2.152,0c0,1.39,0,15.081,0,15.081h35.516
			c0,0,0-13.691,0-15.081c0.588,0,2.005,0,2.005,0V4.448H39.522z M38.772,5.948c0,1.13,0,5.973,0,7.103c-0.588,0-2.005,0-2.005,0
			s0,13.691,0,15.081c-1.402,0-31.113,0-32.516,0c0-1.39,0-15.081,0-15.081s-1.515,0-2.152,0c0-1.13,0-5.973,0-7.103
			c0.598,0,1.047,0,1.645,0c0,1.149,0,5.007,0,5.007h33.383c0,0,0-3.858,0-5.007C37.726,5.948,38.175,5.948,38.772,5.948z"/>
		<path i:knockout="Off" fill="none" stroke="#000000" stroke-width="0.7" d="M31.899,3.239v6.145L9.245,3.239v6.145L31.899,3.239z"/>
		<path i:knockout="Off" fill="none" stroke="#000000" stroke-width="1.2" d="M2.752,14.551c-0.637,0-2.152,0-2.152,0V4.468
			L9.04,0.6h22.736l8.496,3.848v10.103c0,0-1.417,0-2.005,0c0,1.39,0,15.081,0,15.081l-8.374,4.321H11.199L2.81,29.632
			C2.81,29.632,2.752,15.941,2.752,14.551z"/>
	</g>
</svg>
