<?xml version="1.0" encoding="utf-8"?>
<!-- Generator: Adobe Illustrator 10.0, SVG Export Plug-In . SVG Version: 3.0.0 Build 77)  -->
<!DOCTYPE svg PUBLIC "-//W3C//DTD SVG 1.0//EN"    "http://www.w3.org/TR/2001/REC-SVG-20010904/DTD/svg10.dtd" [
	<!ENTITY ns_flows "http://ns.adobe.com/Flows/1.0/">
	<!ENTITY ns_extend "http://ns.adobe.com/Extensibility/1.0/">
	<!ENTITY ns_ai "http://ns.adobe.com/AdobeIllustrator/10.0/">
	<!ENTITY ns_graphs "http://ns.adobe.com/Graphs/1.0/">
	<!ENTITY ns_vars "http://ns.adobe.com/Variables/1.0/">
	<!ENTITY ns_imrep "http://ns.adobe.com/ImageReplacement/1.0/">
	<!ENTITY ns_sfw "http://ns.adobe.com/SaveForWeb/1.0/">
	<!ENTITY ns_custom "http://ns.adobe.com/GenericCustomNamespace/1.0/">
	<!ENTITY ns_adobe_xpath "http://ns.adobe.com/XPath/1.0/">
	<!ENTITY ns_svg "http://www.w3.org/2000/svg">
	<!ENTITY ns_xlink "http://www.w3.org/1999/xlink">
]>
<svg xmlns:x="&ns_extend;" xmlns:i="&ns_ai;" xmlns:graph="&ns_graphs;" i:viewOrigin="248.8018 431.3403" i:rulerOrigin="-1 0.1104" i:pageBounds="1 841.8896 596 -0.1104" xmlns="&ns_svg;" xmlns:xlink="&ns_xlink;" xmlns:a="http://ns.adobe.com/AdobeSVGViewerExtensions/3.0/" width="97.497" height="22.42" viewBox="0 0 97.497 22.42" overflow="visible" enable-background="new 0 0 97.497 22.42" xml:space="preserve" id="svgObj" onload="parent.svgLoad('Top', document)">
	<metadata>
		<variableSets xmlns="&ns_vars;">
			<variableSet varSetName="binding1" locked="none">
				<variables></variables>
				<v:sampleDataSets xmlns="&ns_custom;" xmlns:v="&ns_vars;"></v:sampleDataSets>
			</variableSet>
		</variableSets>
		<sfw xmlns="&ns_sfw;">
			<slices></slices>
			<sliceSourceBounds y="388.708" x="248.802" width="97.497" height="63.363" bottomLeftOrigin="true"></sliceSourceBounds>
		</sfw>
	</metadata>
	<g id="レイヤー_1" i:layer="yes" i:dimmedPercent="100" i:rgbTrio="#4F008000FFFF">
		<path i:knockout="Off" fill="none" stroke="#000000" stroke-width="0.7" d="M14.773,9.477v12.344"/>
		<path i:knockout="Off" fill="none" stroke="#000000" stroke-width="0.7" d="M26.113,9.477v12.344"/>
		<path i:knockout="Off" fill="none" stroke="#000000" stroke-width="0.7" d="M37.453,9.477v12.344"/>
		<g i:knockout="Off">
			<path i:knockout="Off" d="M9.896,17.278H9.192v-4.48c-0.169,0.161-0.392,0.323-0.666,0.484c-0.275,0.161-0.521,0.282-0.74,0.363
				v-0.68c0.393-0.185,0.737-0.409,1.031-0.672c0.294-0.263,0.502-0.519,0.625-0.766h0.453V17.278z"/>
		</g>
		<g i:knockout="Off">
			<path i:knockout="Off" d="M22.21,16.606v0.672h-3.797c-0.005-0.169,0.022-0.332,0.083-0.488c0.097-0.258,0.252-0.511,0.467-0.76
				c0.214-0.249,0.521-0.536,0.92-0.864c0.62-0.516,1.04-0.923,1.261-1.221s0.332-0.58,0.332-0.849c0-0.278-0.1-0.513-0.299-0.704
				c-0.2-0.19-0.46-0.286-0.781-0.286c-0.339,0-0.61,0.104-0.814,0.312c-0.204,0.207-0.307,0.494-0.309,0.86l-0.719-0.094
				c0.049-0.539,0.235-0.95,0.558-1.232c0.323-0.282,0.756-0.424,1.3-0.424c0.549,0,0.983,0.152,1.303,0.457s0.48,0.683,0.48,1.134
				c0,0.229-0.047,0.454-0.14,0.676c-0.094,0.221-0.248,0.454-0.465,0.699c-0.216,0.245-0.576,0.581-1.081,1.009
				c-0.423,0.354-0.695,0.596-0.815,0.722c-0.12,0.127-0.219,0.254-0.297,0.382H22.21z"/>
		</g>
		<g i:knockout="Off">
			<path i:knockout="Off" d="M30.194,15.778l0.719-0.094c0.08,0.394,0.215,0.676,0.405,0.85c0.19,0.173,0.425,0.26,0.707,0.26
				c0.333,0,0.611-0.114,0.835-0.345c0.223-0.229,0.335-0.514,0.335-0.853c0-0.323-0.104-0.591-0.313-0.8
				c-0.209-0.211-0.476-0.315-0.798-0.315c-0.132,0-0.296,0.026-0.492,0.078l0.078-0.625c0.046,0.005,0.083,0.008,0.112,0.008
				c0.294,0,0.56-0.077,0.795-0.232s0.354-0.394,0.354-0.717c0-0.255-0.086-0.467-0.259-0.635S32.273,12.106,32,12.106
				c-0.271,0-0.497,0.086-0.677,0.258c-0.181,0.172-0.296,0.43-0.348,0.773l-0.719-0.125c0.086-0.472,0.28-0.837,0.584-1.096
				s0.682-0.389,1.134-0.389c0.312,0,0.599,0.067,0.861,0.2c0.262,0.134,0.463,0.315,0.602,0.546
				c0.139,0.231,0.208,0.476,0.208,0.735c0,0.246-0.066,0.471-0.199,0.672c-0.133,0.203-0.33,0.363-0.59,0.482
				c0.338,0.078,0.604,0.24,0.797,0.487c0.192,0.246,0.289,0.555,0.289,0.925c0,0.501-0.183,0.926-0.547,1.273
				c-0.365,0.349-0.826,0.522-1.383,0.522c-0.503,0-0.92-0.147-1.252-0.443S30.241,16.249,30.194,15.778z"/>
		</g>
		<g i:knockout="Off">
			<path i:knockout="Off" d="M43.704,17.278v-1.375H41.22v-0.641l2.625-3.719h0.563v3.719h0.781v0.641h-0.781v1.375H43.704z
				 M43.704,15.262v-2.566l-1.792,2.566H43.704z"/>
		</g>
		<path i:knockout="Off" fill="none" stroke="#000000" stroke-width="0.7" d="M48.76,9.477v12.344"/>
		<g i:knockout="Off">
			<path i:knockout="Off" d="M52.761,15.778l0.719-0.063c0.055,0.358,0.182,0.628,0.379,0.808c0.198,0.181,0.441,0.271,0.73,0.271
				c0.348,0,0.639-0.127,0.871-0.382c0.231-0.254,0.348-0.592,0.348-1.013c0-0.399-0.111-0.715-0.332-0.946
				c-0.222-0.23-0.519-0.347-0.891-0.347c-0.232,0-0.438,0.051-0.617,0.152s-0.322,0.233-0.426,0.395l-0.656-0.094l0.563-2.938
				h2.844v0.672h-2.285l-0.313,1.549c0.344-0.241,0.704-0.361,1.082-0.361c0.5,0,0.922,0.173,1.266,0.519
				c0.344,0.347,0.516,0.791,0.516,1.335c0,0.518-0.151,0.966-0.453,1.343c-0.367,0.463-0.869,0.694-1.504,0.694
				c-0.521,0-0.946-0.146-1.275-0.437C52.995,16.644,52.808,16.258,52.761,15.778z"/>
		</g>
		<path i:knockout="Off" fill="none" stroke="#000000" stroke-width="0.7" d="M60.066,9.477v12.344"/>
		<g i:knockout="Off">
			<path i:knockout="Off" d="M67.739,12.95l-0.703,0.063c-0.063-0.277-0.152-0.479-0.268-0.604
				c-0.191-0.201-0.428-0.302-0.708-0.302c-0.226,0-0.426,0.063-0.602,0.187c-0.218,0.162-0.391,0.396-0.52,0.705
				c-0.128,0.31-0.195,0.75-0.2,1.323c0.17-0.258,0.378-0.449,0.623-0.574c0.246-0.125,0.504-0.188,0.773-0.188
				c0.47,0,0.871,0.173,1.201,0.518s0.496,0.791,0.496,1.338c0,0.359-0.078,0.693-0.233,1.002s-0.369,0.545-0.642,0.709
				c-0.271,0.164-0.58,0.246-0.926,0.246c-0.588,0-1.068-0.216-1.439-0.646c-0.371-0.432-0.557-1.141-0.557-2.13
				c0-1.106,0.205-1.91,0.617-2.413c0.359-0.437,0.843-0.655,1.451-0.655c0.453,0,0.824,0.126,1.113,0.378
				C67.508,12.158,67.682,12.505,67.739,12.95z M64.849,15.42c0,0.242,0.052,0.474,0.155,0.694s0.247,0.39,0.43,0.505
				c0.183,0.116,0.38,0.174,0.589,0.174c0.304,0,0.562-0.12,0.773-0.358c0.212-0.24,0.318-0.564,0.318-0.976
				c0-0.396-0.104-0.706-0.314-0.935c-0.209-0.227-0.478-0.341-0.805-0.341c-0.319,0-0.59,0.114-0.813,0.341
				C64.96,14.753,64.849,15.051,64.849,15.42z"/>
		</g>
		<path i:knockout="Off" fill="none" stroke="#000000" stroke-width="0.7" d="M71.373,9.477v12.344"/>
		<g i:knockout="Off">
			<path i:knockout="Off" d="M75.421,12.293v-0.672h3.703v0.544c-0.365,0.388-0.728,0.904-1.086,1.548
				c-0.359,0.645-0.636,1.308-0.832,1.987c-0.141,0.48-0.23,1.006-0.27,1.577h-0.719c0.008-0.451,0.096-0.996,0.266-1.636
				c0.168-0.639,0.41-1.255,0.727-1.848c0.315-0.594,0.651-1.094,1.008-1.501H75.421z"/>
		</g>
		<path i:knockout="Off" fill="none" stroke="#000000" stroke-width="0.7" d="M82.68,9.477v12.344"/>
		<g i:knockout="Off">
			<path i:knockout="Off" d="M87.774,14.174c-0.292-0.106-0.508-0.259-0.648-0.457s-0.211-0.436-0.211-0.712
				c0-0.417,0.149-0.768,0.447-1.051c0.299-0.285,0.695-0.427,1.191-0.427c0.498,0,0.898,0.146,1.203,0.437
				c0.303,0.29,0.455,0.644,0.455,1.061c0,0.266-0.069,0.497-0.208,0.694c-0.139,0.196-0.349,0.349-0.632,0.455
				c0.351,0.114,0.617,0.299,0.8,0.554s0.274,0.559,0.274,0.912c0,0.489-0.173,0.899-0.519,1.232s-0.8,0.499-1.364,0.499
				s-1.019-0.167-1.364-0.501s-0.519-0.75-0.519-1.25c0-0.371,0.095-0.683,0.284-0.934S87.424,14.265,87.774,14.174z M87.399,15.625
				c0,0.2,0.046,0.394,0.139,0.58c0.092,0.187,0.232,0.331,0.423,0.435c0.189,0.102,0.393,0.153,0.608,0.153
				c0.341,0,0.619-0.107,0.834-0.323c0.217-0.215,0.324-0.489,0.324-0.821c0-0.337-0.111-0.616-0.334-0.837
				c-0.222-0.221-0.504-0.331-0.848-0.331c-0.336,0-0.61,0.109-0.824,0.327C87.507,15.026,87.399,15.298,87.399,15.625z
				 M87.634,12.981c0,0.271,0.086,0.492,0.257,0.664s0.397,0.258,0.681,0.258c0.275,0,0.497-0.085,0.667-0.256
				s0.255-0.38,0.255-0.627c0-0.258-0.088-0.475-0.263-0.65s-0.397-0.264-0.667-0.264c-0.272,0-0.495,0.086-0.669,0.258
				S87.634,12.742,87.634,12.981z"/>
		</g>
		<path i:knockout="Off" fill="none" stroke="#000000" stroke-width="1.2" d="M93.974,21.821V9.477H3.467v12.344H93.974z"/>
		<path i:knockout="Off" fill="none" stroke="#000000" stroke-width="1.2" d="M75.79,9.477V3.318H21.91v6.159"/>
		<path i:knockout="Off" fill="none" stroke="#000000" stroke-width="1.2" d="M19.468,9.477V0.6H7.199L3.467,3.198v6.279"/>
		<path i:knockout="Off" fill="none" stroke="#000000" stroke-width="1.2" d="M3.372,6.982H0.6v2.495h2.771"/>
		<path i:knockout="Off" fill="none" stroke="#000000" stroke-width="1.2" d="M78.029,9.477V0.6h12.27l3.732,2.598v6.279"/>
		<path i:knockout="Off" fill="none" stroke="#000000" stroke-width="1.2" d="M94.126,6.982h2.771v2.495h-2.771"/>
		<path i:knockout="Off" fill="none" stroke="#000000" stroke-width="0.7" d="M3.457,19.726H93.6"/>
	</g>
</svg>
