<?xml version="1.0" encoding="utf-8"?>
<!-- Generator: Adobe Illustrator 10.0, SVG Export Plug-In . SVG Version: 3.0.0 Build 77)  -->
<!DOCTYPE svg PUBLIC "-//W3C//DTD SVG 1.0//EN"    "http://www.w3.org/TR/2001/REC-SVG-20010904/DTD/svg10.dtd" [
	<!ENTITY ns_flows "http://ns.adobe.com/Flows/1.0/">
	<!ENTITY ns_extend "http://ns.adobe.com/Extensibility/1.0/">
	<!ENTITY ns_ai "http://ns.adobe.com/AdobeIllustrator/10.0/">
	<!ENTITY ns_graphs "http://ns.adobe.com/Graphs/1.0/">
	<!ENTITY ns_vars "http://ns.adobe.com/Variables/1.0/">
	<!ENTITY ns_imrep "http://ns.adobe.com/ImageReplacement/1.0/">
	<!ENTITY ns_sfw "http://ns.adobe.com/SaveForWeb/1.0/">
	<!ENTITY ns_custom "http://ns.adobe.com/GenericCustomNamespace/1.0/">
	<!ENTITY ns_adobe_xpath "http://ns.adobe.com/XPath/1.0/">
	<!ENTITY ns_svg "http://www.w3.org/2000/svg">
	<!ENTITY ns_xlink "http://www.w3.org/1999/xlink">
]>
<svg xmlns:x="&ns_extend;" xmlns:i="&ns_ai;" xmlns:graph="&ns_graphs;" i:viewOrigin="302.9824 422.5239" i:rulerOrigin="0 9.765625e-004" i:pageBounds="0 841.8887 595.2754 -9.765625e-004" xmlns="&ns_svg;" xmlns:xlink="&ns_xlink;" xmlns:a="http://ns.adobe.com/AdobeSVGViewerExtensions/3.0/" width="25.223" height="30.358" viewBox="0 0 25.223 30.358" overflow="visible" enable-background="new 0 0 25.223 30.358" xml:space="preserve" id="svgObj" onload="parent.svgLoad('Top', document)">
	<metadata>
		<variableSets xmlns="&ns_vars;">
			<variableSet varSetName="binding1" locked="none">
				<variables></variables>
				<v:sampleDataSets xmlns="&ns_custom;" xmlns:v="&ns_vars;"></v:sampleDataSets>
			</variableSet>
		</variableSets>
		<sfw xmlns="&ns_sfw;">
			<slices></slices>
			<sliceSourceBounds y="392.166" x="302.982" width="25.223" height="30.358" bottomLeftOrigin="true"></sliceSourceBounds>
		</sfw>
	</metadata>
	<g id="レイヤー_1" i:layer="yes" i:dimmedPercent="100" i:rgbTrio="#4F008000FFFF">
		<path i:knockout="Off" fill="none" stroke="#000000" stroke-width="1.2" d="M24.623,26.543V3.815H0.6v22.729H24.623z"/>
		<path i:knockout="Off" fill="none" stroke="#000000" stroke-width="1.2" d="M17.219,3.815V0.6H7.875v3.215H17.219z"/>
		<path i:knockout="Off" fill="none" stroke="#000000" stroke-width="1.2" d="M21.886,29.758v-3.215h-4v3.215H21.886z"/>
		<path i:knockout="Off" fill="none" stroke="#000000" stroke-width="0.7" d="M0.469,15.202h24.154"/>
		<path i:knockout="Off" fill="none" stroke="#000000" stroke-width="0.7" d="M12.547,3.993v22.551"/>
		<g i:knockout="Off">
			<path i:knockout="Off" d="M7.268,12.981H6.564V8.5c-0.17,0.162-0.392,0.323-0.666,0.484c-0.275,0.162-0.521,0.283-0.74,0.363
				v-0.68C5.551,8.484,5.895,8.26,6.189,7.997c0.294-0.263,0.502-0.518,0.625-0.766h0.453V12.981z"/>
		</g>
		<g i:knockout="Off">
			<path i:knockout="Off" d="M20.318,12.309v0.672h-3.797c-0.006-0.169,0.022-0.332,0.083-0.488c0.097-0.258,0.253-0.511,0.467-0.76
				c0.214-0.248,0.521-0.537,0.92-0.864c0.62-0.517,1.04-0.923,1.261-1.221c0.222-0.298,0.332-0.58,0.332-0.849
				c0-0.277-0.1-0.513-0.299-0.703c-0.2-0.191-0.461-0.287-0.781-0.287c-0.34,0-0.61,0.104-0.814,0.311
				c-0.203,0.208-0.307,0.494-0.309,0.861l-0.719-0.094c0.049-0.539,0.235-0.949,0.558-1.232c0.323-0.282,0.756-0.424,1.3-0.424
				c0.549,0,0.983,0.152,1.303,0.457c0.32,0.305,0.48,0.683,0.48,1.133c0,0.229-0.047,0.455-0.14,0.677
				c-0.094,0.222-0.248,0.454-0.465,0.699c-0.216,0.245-0.576,0.581-1.081,1.009c-0.423,0.355-0.694,0.596-0.814,0.723
				c-0.119,0.126-0.219,0.253-0.297,0.381H20.318z"/>
		</g>
		<g i:knockout="Off">
			<path i:knockout="Off" d="M4.627,22.168l0.719-0.094c0.08,0.393,0.215,0.676,0.404,0.85c0.19,0.173,0.426,0.26,0.707,0.26
				c0.333,0,0.611-0.115,0.835-0.344c0.224-0.23,0.335-0.515,0.335-0.854c0-0.323-0.104-0.59-0.313-0.801
				c-0.21-0.209-0.476-0.314-0.798-0.314c-0.132,0-0.296,0.026-0.492,0.078l0.078-0.625c0.046,0.006,0.083,0.008,0.111,0.008
				c0.295,0,0.56-0.077,0.795-0.232c0.235-0.154,0.354-0.394,0.354-0.717c0-0.256-0.086-0.467-0.26-0.635
				c-0.172-0.168-0.396-0.252-0.668-0.252c-0.271,0-0.497,0.086-0.678,0.258c-0.18,0.172-0.296,0.43-0.348,0.773l-0.719-0.125
				c0.086-0.471,0.28-0.836,0.584-1.096c0.305-0.259,0.683-0.389,1.135-0.389c0.312,0,0.599,0.066,0.861,0.2
				c0.262,0.134,0.463,0.315,0.602,0.546c0.14,0.23,0.209,0.476,0.209,0.735c0,0.246-0.066,0.47-0.199,0.673
				c-0.133,0.201-0.33,0.362-0.59,0.481c0.338,0.078,0.604,0.241,0.797,0.487c0.192,0.246,0.289,0.555,0.289,0.925
				c0,0.501-0.183,0.926-0.547,1.273c-0.365,0.349-0.826,0.522-1.383,0.522c-0.503,0-0.92-0.147-1.252-0.443
				S4.674,22.639,4.627,22.168z"/>
		</g>
		<g i:knockout="Off">
			<path i:knockout="Off" d="M18.873,23.668v-1.375h-2.484v-0.641l2.625-3.719h0.563v3.719h0.781v0.641h-0.781v1.375H18.873z
				 M18.873,21.653v-2.566l-1.793,2.566H18.873z"/>
		</g>
	</g>
</svg>
