<?xml version="1.0" encoding="utf-8"?>
<!-- Generator: Adobe Illustrator 10.0, SVG Export Plug-In . SVG Version: 3.0.0 Build 77)  -->
<!DOCTYPE svg PUBLIC "-//W3C//DTD SVG 1.0//EN"    "http://www.w3.org/TR/2001/REC-SVG-20010904/DTD/svg10.dtd" [
	<!ENTITY ns_flows "http://ns.adobe.com/Flows/1.0/">
	<!ENTITY ns_extend "http://ns.adobe.com/Extensibility/1.0/">
	<!ENTITY ns_ai "http://ns.adobe.com/AdobeIllustrator/10.0/">
	<!ENTITY ns_graphs "http://ns.adobe.com/Graphs/1.0/">
	<!ENTITY ns_vars "http://ns.adobe.com/Variables/1.0/">
	<!ENTITY ns_imrep "http://ns.adobe.com/ImageReplacement/1.0/">
	<!ENTITY ns_sfw "http://ns.adobe.com/SaveForWeb/1.0/">
	<!ENTITY ns_custom "http://ns.adobe.com/GenericCustomNamespace/1.0/">
	<!ENTITY ns_adobe_xpath "http://ns.adobe.com/XPath/1.0/">
	<!ENTITY ns_svg "http://www.w3.org/2000/svg">
	<!ENTITY ns_xlink "http://www.w3.org/1999/xlink">
]>
<svg xmlns:x="&ns_extend;" xmlns:i="&ns_ai;" xmlns:graph="&ns_graphs;" i:viewOrigin="267.2188 423.708" i:rulerOrigin="0 9.765625e-004" i:pageBounds="0 841.8887 595.2754 -9.765625e-004" xmlns="&ns_svg;" xmlns:xlink="&ns_xlink;" xmlns:a="http://ns.adobe.com/AdobeSVGViewerExtensions/3.0/" width="114.563" height="30.033" viewBox="0 0 114.563 30.033" overflow="visible" enable-background="new 0 0 114.563 30.033" xml:space="preserve" id="svgObj" onload="parent.svgLoad('Top', document)">
	<metadata>
		<variableSets xmlns="&ns_vars;">
			<variableSet varSetName="binding1" locked="none">
				<variables></variables>
				<v:sampleDataSets xmlns="&ns_custom;" xmlns:v="&ns_vars;"></v:sampleDataSets>
			</variableSet>
		</variableSets>
		<sfw xmlns="&ns_sfw;">
			<slices></slices>
			<sliceSourceBounds y="393.675" x="267.219" width="114.563" height="30.033" bottomLeftOrigin="true"></sliceSourceBounds>
		</sfw>
	</metadata>
	<g id="Layer_1" i:layer="yes" i:dimmedPercent="100" i:rgbTrio="#4F008000FFFF">
		<g>
			<g>
				<path i:knockout="Off" fill="none" stroke="#000000" stroke-width="1.2" d="M113.963,29.434V0.6H0.6v28.833H113.963z"/>
				<path i:knockout="Off" fill="none" stroke="#000000" stroke-width="0.7" d="M0.729,14.948H113.92"/>
				<path i:knockout="Off" fill="none" stroke="#000000" stroke-width="0.7" d="M0.771,26.304H113.92"/>
				<path i:knockout="Off" fill="none" stroke="#000000" stroke-width="0.7" d="M0.771,4.616H113.92"/>
				<path i:knockout="Off" fill="none" stroke="#000000" stroke-width="0.7" d="M59.953,2.434v2.181h-5.23V2.434H59.953z"/>
				<path i:knockout="Off" fill="none" stroke="#000000" stroke-width="0.7" d="M18.995,2.434v2.181h-2.898V2.434H18.995z"/>
				<path i:knockout="Off" fill="none" stroke="#000000" stroke-width="0.7" d="M7.995,2.434v2.181H5.097V2.434H7.995z"/>
				<path i:knockout="Off" fill="none" stroke="#000000" stroke-width="0.7" d="M109.87,2.434v2.181h-2.897V2.434H109.87z"/>
				<path i:knockout="Off" fill="none" stroke="#000000" stroke-width="0.7" d="M98.37,2.434v2.181h-2.897V2.434H98.37z"/>
				<g>
					<path i:knockout="Off" fill="none" stroke="#000000" stroke-width="0.7" d="M11.937,15.158v14.275"/>
					<path i:knockout="Off" fill="none" stroke="#000000" stroke-width="0.7" d="M23.272,15.158v14.275"/>
					<path i:knockout="Off" fill="none" stroke="#000000" stroke-width="0.7" d="M34.609,15.158v14.275"/>
					<path i:knockout="Off" fill="none" stroke="#000000" stroke-width="0.7" d="M45.944,15.158v14.275"/>
					<path i:knockout="Off" fill="none" stroke="#000000" stroke-width="0.7" d="M57.281,15.158v14.275"/>
					<path i:knockout="Off" fill="none" stroke="#000000" stroke-width="0.7" d="M68.616,15.158v14.275"/>
					<path i:knockout="Off" fill="none" stroke="#000000" stroke-width="0.7" d="M79.953,15.158v14.275"/>
					<path i:knockout="Off" fill="none" stroke="#000000" stroke-width="0.7" d="M91.289,15.158v14.275"/>
					<path i:knockout="Off" fill="none" stroke="#000000" stroke-width="0.7" d="M102.625,15.158v14.275"/>
				</g>
				<g>
					<path i:knockout="Off" fill="none" stroke="#000000" stroke-width="0.7" d="M11.937,0.515v14.648"/>
					<path i:knockout="Off" fill="none" stroke="#000000" stroke-width="0.7" d="M23.272,0.515v14.648"/>
					<path i:knockout="Off" fill="none" stroke="#000000" stroke-width="0.7" d="M34.609,0.515v14.648"/>
					<path i:knockout="Off" fill="none" stroke="#000000" stroke-width="0.7" d="M45.944,0.515v14.648"/>
					<path i:knockout="Off" fill="none" stroke="#000000" stroke-width="0.7" d="M57.281,4.434v10.729"/>
					<path i:knockout="Off" fill="none" stroke="#000000" stroke-width="0.7" d="M68.616,0.515v14.648"/>
					<path i:knockout="Off" fill="none" stroke="#000000" stroke-width="0.7" d="M79.953,0.515v14.648"/>
					<path i:knockout="Off" fill="none" stroke="#000000" stroke-width="0.7" d="M91.289,0.515v14.648"/>
					<path i:knockout="Off" fill="none" stroke="#000000" stroke-width="0.7" d="M102.625,0.515v14.648"/>
				</g>
				<g i:knockout="Off">
					<path i:knockout="Off" d="M7.191,12.3H6.488v-4.48C6.318,7.981,6.097,8.143,5.822,8.304C5.547,8.466,5.3,8.587,5.082,8.667
						v-0.68c0.393-0.185,0.737-0.408,1.031-0.672C6.407,7.053,6.615,6.798,6.738,6.55h0.453V12.3z"/>
				</g>
				<g i:knockout="Off">
					<path i:knockout="Off" d="M19.377,11.628V12.3h-3.797c-0.005-0.169,0.022-0.332,0.083-0.488
						c0.098-0.258,0.253-0.511,0.467-0.76c0.214-0.248,0.521-0.537,0.92-0.864c0.619-0.517,1.04-0.923,1.261-1.221
						c0.221-0.298,0.332-0.58,0.332-0.849c0-0.277-0.1-0.513-0.299-0.703c-0.2-0.191-0.46-0.287-0.781-0.287
						c-0.339,0-0.611,0.104-0.814,0.311C16.545,7.646,16.442,7.933,16.44,8.3l-0.719-0.094c0.049-0.539,0.235-0.949,0.558-1.232
						c0.322-0.282,0.755-0.424,1.299-0.424c0.549,0,0.983,0.152,1.303,0.457c0.32,0.305,0.48,0.683,0.48,1.133
						c0,0.229-0.046,0.455-0.14,0.677c-0.093,0.222-0.248,0.454-0.464,0.699c-0.217,0.245-0.577,0.581-1.081,1.009
						c-0.423,0.355-0.695,0.596-0.814,0.723c-0.12,0.126-0.219,0.253-0.297,0.381H19.377z"/>
				</g>
				<g i:knockout="Off">
					<path i:knockout="Off" d="M27.188,10.8l0.719-0.094c0.08,0.393,0.215,0.676,0.405,0.85c0.19,0.173,0.425,0.26,0.707,0.26
						c0.333,0,0.611-0.115,0.835-0.344c0.223-0.23,0.335-0.515,0.335-0.854c0-0.323-0.104-0.59-0.313-0.801
						c-0.209-0.209-0.476-0.314-0.798-0.314c-0.132,0-0.296,0.026-0.492,0.078l0.078-0.625c0.046,0.006,0.083,0.008,0.112,0.008
						c0.294,0,0.56-0.077,0.795-0.232c0.235-0.154,0.354-0.394,0.354-0.717c0-0.256-0.086-0.467-0.259-0.635
						s-0.396-0.252-0.669-0.252c-0.271,0-0.497,0.086-0.677,0.258c-0.181,0.172-0.296,0.43-0.348,0.773l-0.719-0.125
						c0.086-0.471,0.28-0.836,0.584-1.096C28.14,6.68,28.518,6.55,28.97,6.55c0.312,0,0.599,0.066,0.861,0.2
						c0.262,0.134,0.463,0.315,0.602,0.546s0.208,0.476,0.208,0.735c0,0.246-0.066,0.47-0.199,0.673
						c-0.133,0.201-0.33,0.362-0.59,0.481c0.338,0.078,0.604,0.241,0.797,0.487c0.192,0.246,0.289,0.555,0.289,0.925
						c0,0.501-0.183,0.926-0.547,1.273c-0.365,0.349-0.826,0.522-1.383,0.522c-0.503,0-0.92-0.147-1.252-0.443
						S27.235,11.271,27.188,10.8z"/>
				</g>
				<g i:knockout="Off">
					<path i:knockout="Off" d="M40.57,12.3v-1.375h-2.484v-0.641l2.625-3.719h0.563v3.719h0.781v0.641h-0.781V12.3H40.57z
						 M40.57,10.284V7.718l-1.793,2.566H40.57z"/>
				</g>
				<g i:knockout="Off">
					<path i:knockout="Off" d="M49.811,10.8l0.719-0.063c0.055,0.358,0.182,0.627,0.379,0.808c0.198,0.181,0.441,0.271,0.73,0.271
						c0.348,0,0.639-0.127,0.871-0.382c0.231-0.254,0.348-0.592,0.348-1.013c0-0.399-0.111-0.715-0.332-0.946
						c-0.222-0.231-0.519-0.347-0.891-0.347c-0.232,0-0.438,0.051-0.617,0.152s-0.322,0.232-0.426,0.395l-0.656-0.094l0.563-2.938
						h2.844v0.672h-2.285l-0.313,1.549c0.344-0.24,0.704-0.361,1.082-0.361c0.5,0,0.922,0.173,1.266,0.52
						c0.344,0.346,0.516,0.791,0.516,1.334c0,0.518-0.151,0.965-0.453,1.343c-0.367,0.463-0.869,0.694-1.504,0.694
						c-0.521,0-0.946-0.146-1.275-0.437C50.045,11.666,49.857,11.28,49.811,10.8z"/>
				</g>
				<g i:knockout="Off">
					<path i:knockout="Off" d="M64.631,7.972l-0.703,0.063c-0.063-0.277-0.152-0.479-0.268-0.604
						c-0.191-0.201-0.428-0.302-0.708-0.302c-0.226,0-0.426,0.063-0.602,0.188c-0.218,0.16-0.391,0.396-0.52,0.705
						c-0.128,0.309-0.195,0.75-0.2,1.322c0.17-0.258,0.378-0.449,0.623-0.574c0.246-0.125,0.504-0.188,0.773-0.188
						c0.47,0,0.871,0.173,1.201,0.518c0.33,0.346,0.496,0.791,0.496,1.338c0,0.359-0.078,0.693-0.233,1.002
						s-0.369,0.545-0.642,0.709c-0.271,0.164-0.58,0.246-0.926,0.246c-0.588,0-1.068-0.215-1.439-0.646
						c-0.371-0.43-0.557-1.14-0.557-2.129c0-1.105,0.205-1.91,0.617-2.412c0.359-0.438,0.843-0.656,1.451-0.656
						c0.453,0,0.824,0.126,1.113,0.378C64.399,7.18,64.573,7.527,64.631,7.972z M61.74,10.442c0,0.242,0.052,0.474,0.155,0.694
						c0.104,0.222,0.247,0.39,0.43,0.505c0.183,0.116,0.38,0.174,0.589,0.174c0.304,0,0.562-0.119,0.773-0.359
						c0.212-0.238,0.318-0.563,0.318-0.975c0-0.395-0.104-0.707-0.314-0.934c-0.209-0.229-0.478-0.342-0.805-0.342
						c-0.319,0-0.59,0.113-0.813,0.342C61.852,9.774,61.74,10.073,61.74,10.442z"/>
				</g>
				<g i:knockout="Off">
					<path i:knockout="Off" d="M72.324,7.315V6.644h3.703v0.544c-0.365,0.388-0.728,0.904-1.086,1.548
						c-0.359,0.645-0.636,1.307-0.832,1.988c-0.141,0.479-0.23,1.005-0.27,1.576h-0.719c0.008-0.451,0.096-0.996,0.266-1.635
						c0.168-0.64,0.41-1.256,0.727-1.85c0.315-0.593,0.651-1.093,1.008-1.5H72.324z"/>
				</g>
				<g i:knockout="Off">
					<path i:knockout="Off" d="M84.689,9.196c-0.291-0.106-0.507-0.259-0.647-0.457s-0.211-0.436-0.211-0.712
						c0-0.417,0.149-0.767,0.447-1.052c0.299-0.283,0.696-0.426,1.191-0.426c0.498,0,0.899,0.146,1.202,0.436
						c0.305,0.291,0.456,0.645,0.456,1.062c0,0.267-0.069,0.497-0.208,0.694c-0.139,0.196-0.35,0.349-0.631,0.455
						c0.35,0.114,0.616,0.299,0.799,0.554s0.274,0.559,0.274,0.912c0,0.489-0.173,0.899-0.519,1.232s-0.801,0.499-1.364,0.499
						s-1.019-0.167-1.364-0.501s-0.519-0.751-0.519-1.25c0-0.371,0.095-0.683,0.284-0.934S84.34,9.287,84.689,9.196z M84.315,10.647
						c0,0.2,0.046,0.394,0.139,0.58c0.092,0.188,0.233,0.332,0.423,0.434c0.189,0.104,0.393,0.154,0.608,0.154
						c0.341,0,0.618-0.107,0.835-0.323c0.215-0.215,0.323-0.489,0.323-0.821c0-0.338-0.111-0.616-0.333-0.837
						c-0.223-0.221-0.506-0.331-0.849-0.331c-0.335,0-0.61,0.109-0.825,0.327C84.423,10.048,84.315,10.32,84.315,10.647z
						 M84.55,8.003c0,0.271,0.085,0.492,0.257,0.664c0.171,0.172,0.398,0.258,0.681,0.258c0.274,0,0.497-0.085,0.667-0.256
						c0.17-0.17,0.255-0.379,0.255-0.627c0-0.258-0.088-0.475-0.263-0.65s-0.397-0.264-0.667-0.264
						c-0.272,0-0.495,0.086-0.669,0.258S84.55,7.764,84.55,8.003z"/>
				</g>
				<g i:knockout="Off">
					<path i:knockout="Off" d="M94.838,10.972l0.672-0.063c0.057,0.318,0.166,0.549,0.328,0.691
						c0.161,0.144,0.368,0.215,0.621,0.215c0.216,0,0.406-0.049,0.572-0.147c0.165-0.099,0.299-0.229,0.4-0.395
						s0.188-0.387,0.258-0.667c0.07-0.279,0.105-0.565,0.105-0.857c0-0.031-0.002-0.078-0.004-0.141
						c-0.141,0.225-0.331,0.406-0.573,0.545c-0.242,0.14-0.505,0.209-0.787,0.209c-0.472,0-0.87-0.172-1.197-0.516
						c-0.326-0.345-0.489-0.798-0.489-1.361c0-0.581,0.171-1.049,0.514-1.404C95.6,6.728,96.029,6.55,96.545,6.55
						c0.372,0,0.713,0.101,1.021,0.301s0.543,0.486,0.703,0.856c0.16,0.371,0.24,0.907,0.24,1.61c0,0.731-0.08,1.313-0.239,1.747
						s-0.396,0.763-0.711,0.989c-0.315,0.227-0.685,0.34-1.107,0.34c-0.449,0-0.816-0.124-1.101-0.373
						C95.066,11.772,94.896,11.423,94.838,10.972z M97.729,8.446c0-0.404-0.106-0.725-0.319-0.963
						c-0.212-0.236-0.473-0.355-0.78-0.355c-0.318,0-0.592,0.128-0.822,0.384c-0.229,0.255-0.344,0.587-0.344,0.993
						c0,0.365,0.109,0.662,0.326,0.891c0.219,0.228,0.492,0.342,0.82,0.342c0.326,0,0.594-0.114,0.805-0.342
						C97.623,9.167,97.729,8.851,97.729,8.446z"/>
				</g>
				<g i:knockout="Off">
					<path i:knockout="Off" d="M105.723,12.3h-0.703v-4.48c-0.17,0.162-0.392,0.323-0.666,0.484
						c-0.275,0.162-0.521,0.283-0.74,0.363v-0.68c0.393-0.185,0.736-0.408,1.031-0.672c0.294-0.263,0.502-0.518,0.625-0.766h0.453
						V12.3z"/>
					<path i:knockout="Off" d="M107.516,9.474c0-0.677,0.07-1.223,0.211-1.638s0.349-0.733,0.626-0.954
						c0.277-0.222,0.626-0.332,1.046-0.332c0.31,0,0.583,0.063,0.819,0.186s0.429,0.302,0.579,0.535
						c0.149,0.232,0.268,0.516,0.354,0.851s0.13,0.785,0.13,1.353c0,0.672-0.069,1.215-0.209,1.63
						c-0.139,0.415-0.348,0.733-0.624,0.956c-0.277,0.223-0.627,0.334-1.05,0.334c-0.557,0-0.994-0.195-1.312-0.586
						C107.706,11.327,107.516,10.549,107.516,9.474z M108.234,9.472c0,0.945,0.111,1.572,0.336,1.881
						c0.224,0.309,0.5,0.463,0.828,0.463s0.604-0.154,0.828-0.465c0.224-0.31,0.336-0.936,0.336-1.879
						c0-0.942-0.111-1.568-0.334-1.879c-0.223-0.31-0.502-0.465-0.838-0.465c-0.328,0-0.592,0.137-0.791,0.41
						C108.356,7.888,108.234,8.532,108.234,9.472z"/>
				</g>
				<g i:knockout="Off">
					<path i:knockout="Off" d="M5.566,23.69H4.863v-4.48c-0.169,0.162-0.392,0.323-0.666,0.484c-0.275,0.162-0.521,0.283-0.74,0.363
						v-0.68c0.393-0.185,0.737-0.408,1.031-0.672c0.294-0.263,0.502-0.518,0.625-0.766h0.453V23.69z"/>
					<path i:knockout="Off" d="M10.016,23.69H9.313v-4.48c-0.169,0.162-0.392,0.323-0.666,0.484
						c-0.275,0.162-0.521,0.283-0.74,0.363v-0.68c0.393-0.185,0.737-0.408,1.031-0.672c0.294-0.263,0.502-0.518,0.625-0.766h0.453
						V23.69z"/>
				</g>
				<g i:knockout="Off">
					<path i:knockout="Off" d="M16.114,23.69h-0.703v-4.48c-0.169,0.162-0.391,0.323-0.666,0.484
						c-0.275,0.162-0.521,0.283-0.74,0.363v-0.68c0.393-0.185,0.737-0.408,1.031-0.672c0.294-0.263,0.502-0.518,0.625-0.766h0.453
						V23.69z"/>
					<path i:knockout="Off" d="M21.602,23.019v0.672h-3.797c-0.005-0.169,0.022-0.332,0.083-0.488
						c0.098-0.258,0.253-0.511,0.467-0.76c0.214-0.248,0.521-0.537,0.92-0.864c0.619-0.517,1.04-0.923,1.261-1.221
						c0.221-0.298,0.332-0.58,0.332-0.849c0-0.277-0.1-0.513-0.299-0.703c-0.2-0.191-0.46-0.287-0.781-0.287
						c-0.339,0-0.611,0.104-0.814,0.311c-0.204,0.208-0.307,0.494-0.309,0.861l-0.719-0.094c0.049-0.539,0.235-0.949,0.558-1.232
						c0.322-0.282,0.755-0.424,1.299-0.424c0.549,0,0.983,0.152,1.303,0.457c0.32,0.305,0.48,0.683,0.48,1.133
						c0,0.229-0.046,0.455-0.14,0.677c-0.093,0.222-0.248,0.454-0.464,0.699c-0.217,0.245-0.577,0.581-1.081,1.009
						c-0.423,0.355-0.695,0.596-0.814,0.723c-0.12,0.126-0.219,0.253-0.297,0.381H21.602z"/>
				</g>
				<g i:knockout="Off">
					<path i:knockout="Off" d="M27.604,23.69h-0.703v-4.48c-0.169,0.162-0.392,0.323-0.666,0.484
						c-0.275,0.162-0.521,0.283-0.74,0.363v-0.68c0.393-0.185,0.737-0.408,1.031-0.672c0.294-0.263,0.502-0.518,0.625-0.766h0.453
						V23.69z"/>
					<path i:knockout="Off" d="M29.413,22.19l0.719-0.094c0.08,0.393,0.215,0.676,0.405,0.85c0.19,0.173,0.425,0.26,0.707,0.26
						c0.333,0,0.611-0.115,0.835-0.344c0.223-0.23,0.335-0.515,0.335-0.854c0-0.323-0.104-0.59-0.313-0.801
						c-0.209-0.209-0.476-0.314-0.798-0.314c-0.132,0-0.296,0.026-0.492,0.078l0.078-0.625c0.046,0.006,0.083,0.008,0.112,0.008
						c0.294,0,0.56-0.077,0.795-0.232c0.235-0.154,0.354-0.394,0.354-0.717c0-0.256-0.087-0.467-0.259-0.635
						c-0.173-0.168-0.396-0.252-0.669-0.252c-0.271,0-0.497,0.086-0.677,0.258c-0.181,0.172-0.296,0.43-0.348,0.773l-0.719-0.125
						c0.086-0.471,0.28-0.836,0.584-1.096c0.304-0.259,0.682-0.389,1.134-0.389c0.312,0,0.599,0.066,0.861,0.2
						s0.463,0.315,0.603,0.546c0.139,0.23,0.208,0.476,0.208,0.735c0,0.246-0.066,0.47-0.199,0.673
						c-0.133,0.201-0.329,0.362-0.59,0.481c0.339,0.078,0.604,0.241,0.797,0.487s0.289,0.555,0.289,0.925
						c0,0.501-0.183,0.926-0.547,1.273c-0.364,0.349-0.825,0.522-1.383,0.522c-0.503,0-0.92-0.147-1.252-0.443
						S29.46,22.661,29.413,22.19z"/>
				</g>
				<g i:knockout="Off">
					<path i:knockout="Off" d="M38.752,23.69h-0.703v-4.48c-0.17,0.162-0.392,0.323-0.666,0.484
						c-0.275,0.162-0.521,0.283-0.74,0.363v-0.68c0.393-0.185,0.736-0.408,1.031-0.672c0.294-0.263,0.502-0.518,0.625-0.766h0.453
						V23.69z"/>
					<path i:knockout="Off" d="M42.795,23.69v-1.375h-2.484v-0.641l2.625-3.719h0.563v3.719h0.781v0.641h-0.781v1.375H42.795z
						 M42.795,21.675v-2.566l-1.793,2.566H42.795z"/>
				</g>
				<g i:knockout="Off">
					<path i:knockout="Off" d="M50.242,23.69h-0.703v-4.48c-0.17,0.162-0.392,0.323-0.666,0.484
						c-0.275,0.162-0.521,0.283-0.74,0.363v-0.68c0.393-0.185,0.736-0.408,1.031-0.672c0.294-0.263,0.502-0.518,0.625-0.766h0.453
						V23.69z"/>
					<path i:knockout="Off" d="M52.035,22.19l0.719-0.063c0.055,0.358,0.182,0.627,0.379,0.808c0.198,0.181,0.441,0.271,0.73,0.271
						c0.348,0,0.639-0.127,0.871-0.382c0.231-0.254,0.348-0.592,0.348-1.013c0-0.399-0.111-0.715-0.332-0.946
						c-0.222-0.231-0.519-0.347-0.891-0.347c-0.232,0-0.438,0.051-0.617,0.152s-0.322,0.232-0.426,0.395l-0.656-0.094l0.563-2.938
						h2.844v0.672h-2.285l-0.313,1.549c0.344-0.24,0.704-0.361,1.082-0.361c0.5,0,0.922,0.173,1.266,0.52
						c0.344,0.346,0.516,0.791,0.516,1.334c0,0.518-0.151,0.965-0.453,1.343c-0.367,0.463-0.869,0.694-1.504,0.694
						c-0.521,0-0.946-0.146-1.275-0.437C52.27,23.057,52.082,22.671,52.035,22.19z"/>
				</g>
				<g i:knockout="Off">
					<path i:knockout="Off" d="M61.391,23.69h-0.703v-4.48c-0.17,0.162-0.392,0.323-0.666,0.484
						c-0.275,0.162-0.521,0.283-0.74,0.363v-0.68c0.393-0.185,0.736-0.408,1.031-0.672c0.294-0.263,0.502-0.518,0.625-0.766h0.453
						V23.69z"/>
					<path i:knockout="Off" d="M66.855,19.362l-0.703,0.063C66.09,19.147,66,18.946,65.885,18.82
						c-0.191-0.201-0.428-0.302-0.708-0.302c-0.226,0-0.426,0.063-0.602,0.188c-0.218,0.16-0.391,0.396-0.52,0.705
						c-0.128,0.309-0.195,0.75-0.2,1.322c0.17-0.258,0.378-0.449,0.623-0.574c0.246-0.125,0.504-0.188,0.773-0.188
						c0.47,0,0.871,0.173,1.201,0.518c0.33,0.346,0.496,0.791,0.496,1.338c0,0.359-0.078,0.693-0.233,1.002
						s-0.369,0.545-0.642,0.709c-0.271,0.164-0.58,0.246-0.926,0.246c-0.588,0-1.068-0.215-1.439-0.646
						c-0.371-0.43-0.557-1.14-0.557-2.129c0-1.105,0.205-1.91,0.617-2.412c0.359-0.438,0.843-0.656,1.451-0.656
						c0.453,0,0.824,0.126,1.113,0.378C66.624,18.57,66.798,18.918,66.855,19.362z M63.965,21.833c0,0.242,0.052,0.474,0.155,0.694
						c0.104,0.222,0.247,0.39,0.43,0.505c0.183,0.116,0.38,0.174,0.589,0.174c0.304,0,0.562-0.119,0.773-0.359
						c0.212-0.238,0.318-0.563,0.318-0.975c0-0.395-0.104-0.707-0.314-0.934c-0.209-0.229-0.478-0.342-0.805-0.342
						c-0.319,0-0.59,0.113-0.813,0.342C64.076,21.165,63.965,21.464,63.965,21.833z"/>
				</g>
				<g i:knockout="Off">
					<path i:knockout="Off" d="M72.709,23.69h-0.703v-4.48c-0.17,0.162-0.392,0.323-0.666,0.484
						c-0.275,0.162-0.521,0.283-0.74,0.363v-0.68c0.393-0.185,0.736-0.408,1.031-0.672c0.294-0.263,0.502-0.518,0.625-0.766h0.453
						V23.69z"/>
					<path i:knockout="Off" d="M74.549,18.706v-0.672h3.703v0.544c-0.365,0.388-0.728,0.904-1.086,1.548
						c-0.359,0.645-0.636,1.307-0.832,1.988c-0.141,0.479-0.23,1.005-0.27,1.576h-0.719c0.008-0.451,0.096-0.996,0.266-1.635
						c0.168-0.64,0.41-1.256,0.727-1.85c0.315-0.593,0.651-1.093,1.008-1.5H74.549z"/>
				</g>
				<g i:knockout="Off">
					<path i:knockout="Off" d="M84.028,23.69h-0.703v-4.48c-0.169,0.162-0.392,0.323-0.666,0.484
						c-0.274,0.162-0.521,0.283-0.74,0.363v-0.68c0.394-0.185,0.737-0.408,1.031-0.672c0.294-0.263,0.503-0.518,0.625-0.766h0.453
						V23.69z"/>
					<path i:knockout="Off" d="M86.914,20.587c-0.291-0.106-0.507-0.259-0.647-0.457s-0.211-0.436-0.211-0.712
						c0-0.417,0.149-0.767,0.447-1.052c0.299-0.283,0.696-0.426,1.191-0.426c0.498,0,0.899,0.146,1.202,0.436
						c0.305,0.291,0.456,0.645,0.456,1.062c0,0.267-0.069,0.497-0.208,0.694c-0.139,0.196-0.35,0.349-0.631,0.455
						c0.35,0.114,0.616,0.299,0.799,0.554s0.274,0.559,0.274,0.912c0,0.489-0.173,0.899-0.519,1.232s-0.801,0.499-1.364,0.499
						s-1.019-0.167-1.364-0.501s-0.519-0.751-0.519-1.25c0-0.371,0.095-0.683,0.284-0.934S86.564,20.678,86.914,20.587z
						 M86.54,22.038c0,0.2,0.046,0.394,0.139,0.58c0.092,0.188,0.233,0.332,0.423,0.434c0.189,0.104,0.393,0.154,0.608,0.154
						c0.341,0,0.618-0.107,0.835-0.323c0.215-0.215,0.323-0.489,0.323-0.821c0-0.338-0.111-0.616-0.333-0.837
						c-0.223-0.221-0.506-0.331-0.849-0.331c-0.335,0-0.61,0.109-0.825,0.327C86.647,21.438,86.54,21.711,86.54,22.038z
						 M86.774,19.394c0,0.271,0.085,0.492,0.257,0.664c0.171,0.172,0.398,0.258,0.681,0.258c0.274,0,0.497-0.085,0.667-0.256
						c0.17-0.17,0.255-0.379,0.255-0.627c0-0.258-0.088-0.475-0.263-0.65s-0.397-0.264-0.667-0.264
						c-0.272,0-0.495,0.086-0.669,0.258S86.774,19.154,86.774,19.394z"/>
				</g>
				<g i:knockout="Off">
					<path i:knockout="Off" d="M95.176,23.69h-0.703v-4.48c-0.17,0.162-0.392,0.323-0.666,0.484
						c-0.275,0.162-0.521,0.283-0.74,0.363v-0.68c0.393-0.185,0.736-0.408,1.031-0.672c0.294-0.263,0.502-0.518,0.625-0.766h0.453
						V23.69z"/>
					<path i:knockout="Off" d="M97.063,22.362l0.672-0.063c0.057,0.318,0.166,0.549,0.328,0.691
						c0.161,0.144,0.368,0.215,0.621,0.215c0.216,0,0.406-0.049,0.572-0.147c0.165-0.099,0.299-0.229,0.4-0.395
						s0.188-0.387,0.258-0.667c0.07-0.279,0.105-0.565,0.105-0.857c0-0.031-0.002-0.078-0.004-0.141
						c-0.141,0.225-0.331,0.406-0.573,0.545c-0.242,0.14-0.505,0.209-0.787,0.209c-0.472,0-0.87-0.172-1.197-0.516
						c-0.326-0.345-0.489-0.798-0.489-1.361c0-0.581,0.171-1.049,0.514-1.404c0.342-0.354,0.771-0.531,1.287-0.531
						c0.372,0,0.713,0.101,1.021,0.301s0.543,0.486,0.703,0.856c0.16,0.371,0.24,0.907,0.24,1.61c0,0.731-0.08,1.313-0.239,1.747
						s-0.396,0.763-0.711,0.989c-0.315,0.227-0.685,0.34-1.107,0.34c-0.449,0-0.816-0.124-1.101-0.373
						C97.291,23.163,97.12,22.813,97.063,22.362z M99.953,19.837c0-0.404-0.106-0.725-0.319-0.963
						c-0.212-0.236-0.473-0.355-0.78-0.355c-0.318,0-0.592,0.128-0.822,0.384c-0.229,0.255-0.344,0.587-0.344,0.993
						c0,0.365,0.109,0.662,0.326,0.891c0.219,0.228,0.492,0.342,0.82,0.342c0.326,0,0.594-0.114,0.805-0.342
						C99.848,20.558,99.953,20.241,99.953,19.837z"/>
				</g>
				<g i:knockout="Off">
					<path i:knockout="Off" d="M107.105,23.019v0.672h-3.797c-0.006-0.169,0.022-0.332,0.083-0.488
						c0.097-0.258,0.253-0.511,0.467-0.76c0.214-0.248,0.521-0.537,0.92-0.864c0.62-0.517,1.04-0.923,1.261-1.221
						c0.222-0.298,0.332-0.58,0.332-0.849c0-0.277-0.1-0.513-0.299-0.703c-0.2-0.191-0.461-0.287-0.781-0.287
						c-0.34,0-0.61,0.104-0.814,0.311c-0.203,0.208-0.307,0.494-0.309,0.861l-0.719-0.094c0.049-0.539,0.235-0.949,0.558-1.232
						c0.323-0.282,0.756-0.424,1.3-0.424c0.549,0,0.983,0.152,1.303,0.457c0.32,0.305,0.48,0.683,0.48,1.133
						c0,0.229-0.047,0.455-0.14,0.677c-0.094,0.222-0.248,0.454-0.465,0.699c-0.216,0.245-0.576,0.581-1.081,1.009
						c-0.423,0.355-0.694,0.596-0.814,0.723c-0.119,0.126-0.219,0.253-0.297,0.381H107.105z"/>
					<path i:knockout="Off" d="M107.859,20.864c0-0.677,0.07-1.223,0.211-1.638s0.349-0.733,0.626-0.954
						c0.277-0.222,0.626-0.332,1.046-0.332c0.31,0,0.583,0.063,0.819,0.186s0.429,0.302,0.579,0.535
						c0.149,0.232,0.268,0.516,0.354,0.851s0.13,0.785,0.13,1.353c0,0.672-0.069,1.215-0.209,1.63
						c-0.139,0.415-0.348,0.733-0.624,0.956c-0.277,0.223-0.627,0.334-1.05,0.334c-0.557,0-0.994-0.195-1.312-0.586
						C108.05,22.718,107.859,21.939,107.859,20.864z M108.578,20.862c0,0.945,0.111,1.572,0.336,1.881
						c0.224,0.309,0.5,0.463,0.828,0.463s0.604-0.154,0.828-0.465c0.224-0.31,0.336-0.936,0.336-1.879
						c0-0.942-0.111-1.568-0.334-1.879c-0.223-0.31-0.502-0.465-0.838-0.465c-0.328,0-0.592,0.137-0.791,0.41
						C108.7,19.278,108.578,19.923,108.578,20.862z"/>
				</g>
			</g>
		</g>
	</g>
</svg>
