<?xml version="1.0" encoding="utf-8"?>
<!-- Generator: Adobe Illustrator 10.0, SVG Export Plug-In . SVG Version: 3.0.0 Build 77)  -->
<!DOCTYPE svg PUBLIC "-//W3C//DTD SVG 1.0//EN"    "http://www.w3.org/TR/2001/REC-SVG-20010904/DTD/svg10.dtd" [
	<!ENTITY ns_flows "http://ns.adobe.com/Flows/1.0/">
	<!ENTITY ns_extend "http://ns.adobe.com/Extensibility/1.0/">
	<!ENTITY ns_ai "http://ns.adobe.com/AdobeIllustrator/10.0/">
	<!ENTITY ns_graphs "http://ns.adobe.com/Graphs/1.0/">
	<!ENTITY ns_vars "http://ns.adobe.com/Variables/1.0/">
	<!ENTITY ns_imrep "http://ns.adobe.com/ImageReplacement/1.0/">
	<!ENTITY ns_sfw "http://ns.adobe.com/SaveForWeb/1.0/">
	<!ENTITY ns_custom "http://ns.adobe.com/GenericCustomNamespace/1.0/">
	<!ENTITY ns_adobe_xpath "http://ns.adobe.com/XPath/1.0/">
	<!ENTITY ns_svg "http://www.w3.org/2000/svg">
	<!ENTITY ns_xlink "http://www.w3.org/1999/xlink">
]>
<svg xmlns:x="&ns_extend;" xmlns:i="&ns_ai;" xmlns:graph="&ns_graphs;" i:viewOrigin="305.75 424.7715" i:rulerOrigin="0 9.765625e-004" i:pageBounds="0 841.8887 595.2754 -9.765625e-004" xmlns="&ns_svg;" xmlns:xlink="&ns_xlink;" xmlns:a="http://ns.adobe.com/AdobeSVGViewerExtensions/3.0/" width="36.496" height="28.475" viewBox="0 0 36.496 28.475" overflow="visible" enable-background="new 0 0 36.496 28.475" xml:space="preserve" id="svgObj" onload="parent.svgLoad('Top', document)">
	<metadata>
		<variableSets xmlns="&ns_vars;">
			<variableSet varSetName="binding1" locked="none">
				<variables></variables>
				<v:sampleDataSets xmlns="&ns_custom;" xmlns:v="&ns_vars;"></v:sampleDataSets>
			</variableSet>
		</variableSets>
		<sfw xmlns="&ns_sfw;">
			<slices></slices>
			<sliceSourceBounds y="396.297" x="305.75" width="36.496" height="28.475" bottomLeftOrigin="true"></sliceSourceBounds>
		</sfw>
	</metadata>
	<g id="illust" i:layer="yes" i:dimmedPercent="3" i:rgbTrio="#4F008000FFFF">
		<g>
			<g>
				<path i:knockout="Off" d="M26.989,13.229h-0.703v-4.48c-0.169,0.162-0.392,0.323-0.666,0.484s-0.521,0.282-0.74,0.363v-0.68
					c0.393-0.185,0.737-0.409,1.031-0.672s0.503-0.518,0.625-0.766h0.453V13.229z"/>
				<path i:knockout="Off" d="M12.528,24.391v0.672H8.731c-0.005-0.169,0.022-0.332,0.083-0.488c0.097-0.258,0.252-0.511,0.467-0.76
					c0.214-0.249,0.521-0.537,0.92-0.864c0.62-0.517,1.04-0.923,1.262-1.221c0.221-0.298,0.331-0.58,0.331-0.849
					c0-0.278-0.1-0.513-0.3-0.703c-0.199-0.191-0.459-0.287-0.78-0.287c-0.339,0-0.61,0.104-0.813,0.312
					c-0.204,0.207-0.307,0.493-0.31,0.86l-0.719-0.094c0.05-0.539,0.235-0.949,0.558-1.232c0.322-0.282,0.756-0.424,1.3-0.424
					c0.549,0,0.983,0.152,1.304,0.457c0.319,0.305,0.479,0.683,0.479,1.133c0,0.229-0.047,0.455-0.14,0.677
					c-0.094,0.222-0.248,0.454-0.465,0.699c-0.216,0.245-0.576,0.581-1.081,1.009c-0.423,0.355-0.694,0.596-0.814,0.723
					c-0.119,0.126-0.219,0.253-0.297,0.381H12.528z"/>
				<path i:knockout="Off" fill="none" stroke="#000000" stroke-width="1.2" d="M35.896,16.25V4.666H16.979V16.25H35.896z"/>
				<path i:knockout="Off" fill="none" stroke="#000000" stroke-width="1.2" d="M16.959,27.875V16.291H4.417v11.584H16.959z"/>
			</g>
			<path i:knockout="Off" fill="none" stroke="#000000" stroke-width="1.2" d="M17.334,27.875l18.813-11.563"/>
		</g>
		<path i:knockout="Off" fill="none" stroke="#000000" stroke-width="1.2" d="M35.854,4.604v-3.25l-3.375,3.063"/>
		<path i:knockout="Off" fill="none" stroke="#000000" stroke-width="1.2" d="M4.604,27.854h-3.25l3.063-3.375"/>
	</g>
</svg>
