<?xml version="1.0" encoding="utf-8"?>
<!-- Generator: Adobe Illustrator 10.0, SVG Export Plug-In . SVG Version: 3.0.0 Build 77)  -->
<!DOCTYPE svg PUBLIC "-//W3C//DTD SVG 1.0//EN"    "http://www.w3.org/TR/2001/REC-SVG-20010904/DTD/svg10.dtd" [
	<!ENTITY ns_flows "http://ns.adobe.com/Flows/1.0/">
	<!ENTITY ns_extend "http://ns.adobe.com/Extensibility/1.0/">
	<!ENTITY ns_ai "http://ns.adobe.com/AdobeIllustrator/10.0/">
	<!ENTITY ns_graphs "http://ns.adobe.com/Graphs/1.0/">
	<!ENTITY ns_vars "http://ns.adobe.com/Variables/1.0/">
	<!ENTITY ns_imrep "http://ns.adobe.com/ImageReplacement/1.0/">
	<!ENTITY ns_sfw "http://ns.adobe.com/SaveForWeb/1.0/">
	<!ENTITY ns_custom "http://ns.adobe.com/GenericCustomNamespace/1.0/">
	<!ENTITY ns_adobe_xpath "http://ns.adobe.com/XPath/1.0/">
	<!ENTITY ns_svg "http://www.w3.org/2000/svg">
	<!ENTITY ns_xlink "http://www.w3.org/1999/xlink">
]>
<svg xmlns:x="&ns_extend;" xmlns:i="&ns_ai;" xmlns:graph="&ns_graphs;" i:viewOrigin="269.8613 432.0898" i:rulerOrigin="-1 0.1104" i:pageBounds="1 841.8896 596 -0.1104" xmlns="&ns_svg;" xmlns:xlink="&ns_xlink;" xmlns:a="http://ns.adobe.com/AdobeSVGViewerExtensions/3.0/" width="58.105" height="22.689" viewBox="0 0 58.105 22.689" overflow="visible" enable-background="new 0 0 58.105 22.689" xml:space="preserve" id="svgObj" onload="parent.svgLoad('Top', document)">
	<metadata>
		<variableSets xmlns="&ns_vars;">
			<variableSet varSetName="binding1" locked="none">
				<variables></variables>
				<v:sampleDataSets xmlns="&ns_custom;" xmlns:v="&ns_vars;"></v:sampleDataSets>
			</variableSet>
		</variableSets>
		<sfw xmlns="&ns_sfw;">
			<slices></slices>
			<sliceSourceBounds y="388.708" x="257.815" width="80.371" height="63.363" bottomLeftOrigin="true"></sliceSourceBounds>
		</sfw>
	</metadata>
	<g id="レイヤー_1" i:layer="yes" i:dimmedPercent="100" i:rgbTrio="#4F008000FFFF">
		<path i:knockout="Off" fill="none" stroke="#000000" stroke-width="1.2" d="M52.773,0.649v3.401H5.332V0.649H0.6v3.401V22.09
			h56.906V4.051V0.649H52.773z"/>
		<path i:knockout="Off" fill="none" stroke="#000000" stroke-width="1.2" d="M31.225,4.002V0.6h-4.432v3.402"/>
		<path i:knockout="Off" fill="none" stroke="#000000" stroke-width="0.7" d="M46.063,4.102v18.087"/>
		<path i:knockout="Off" fill="none" stroke="#000000" stroke-width="0.7" d="M34.721,4.102v18.087"/>
		<path i:knockout="Off" fill="none" stroke="#000000" stroke-width="0.7" d="M23.278,4.102v18.087"/>
		<path i:knockout="Off" fill="none" stroke="#000000" stroke-width="0.7" d="M11.935,4.102v18.087"/>
		<g i:knockout="Off">
			<path i:knockout="Off" d="M7.057,13.433H6.354v-4.48C6.184,9.114,5.962,9.275,5.688,9.437C5.413,9.598,5.166,9.719,4.947,9.8
				V9.12C5.34,8.936,5.684,8.711,5.979,8.448C6.272,8.186,6.481,7.93,6.604,7.683h0.453V13.433z"/>
		</g>
		<g i:knockout="Off">
			<path i:knockout="Off" d="M19.355,12.761v0.672h-3.797c-0.005-0.169,0.022-0.332,0.083-0.488c0.098-0.258,0.253-0.511,0.467-0.76
				c0.214-0.249,0.521-0.537,0.92-0.864c0.619-0.516,1.04-0.923,1.261-1.221c0.221-0.298,0.332-0.58,0.332-0.849
				c0-0.278-0.1-0.513-0.299-0.704c-0.2-0.191-0.46-0.287-0.781-0.287c-0.339,0-0.611,0.104-0.814,0.311
				c-0.204,0.208-0.307,0.494-0.309,0.861l-0.719-0.094c0.049-0.539,0.235-0.95,0.558-1.232c0.322-0.282,0.755-0.424,1.299-0.424
				c0.549,0,0.983,0.152,1.303,0.457c0.32,0.305,0.48,0.683,0.48,1.133c0,0.229-0.046,0.455-0.14,0.676
				c-0.093,0.221-0.248,0.454-0.464,0.699c-0.217,0.245-0.577,0.581-1.081,1.009c-0.423,0.355-0.695,0.596-0.814,0.723
				c-0.12,0.126-0.219,0.253-0.297,0.381H19.355z"/>
		</g>
		<g i:knockout="Off">
			<path i:knockout="Off" d="M27.172,11.933l0.719-0.094c0.08,0.393,0.215,0.676,0.405,0.85c0.189,0.173,0.425,0.26,0.707,0.26
				c0.333,0,0.611-0.115,0.835-0.344c0.223-0.23,0.334-0.515,0.334-0.854c0-0.323-0.104-0.59-0.313-0.8s-0.475-0.315-0.798-0.315
				c-0.132,0-0.295,0.026-0.492,0.078l0.078-0.625c0.046,0.005,0.083,0.008,0.112,0.008c0.294,0,0.559-0.077,0.794-0.232
				c0.236-0.155,0.354-0.394,0.354-0.717c0-0.255-0.086-0.467-0.259-0.635s-0.396-0.252-0.669-0.252
				c-0.271,0-0.496,0.086-0.677,0.258s-0.297,0.43-0.348,0.773l-0.719-0.125c0.085-0.471,0.281-0.836,0.584-1.096
				c0.304-0.259,0.682-0.389,1.134-0.389c0.312,0,0.599,0.067,0.861,0.2c0.263,0.134,0.463,0.315,0.603,0.546
				c0.139,0.231,0.208,0.476,0.208,0.735c0,0.246-0.066,0.47-0.199,0.672s-0.329,0.363-0.59,0.482
				c0.339,0.078,0.604,0.241,0.797,0.487c0.193,0.246,0.289,0.555,0.289,0.925c0,0.501-0.182,0.926-0.547,1.273
				c-0.364,0.349-0.825,0.522-1.382,0.522c-0.502,0-0.92-0.147-1.252-0.443S27.219,12.403,27.172,11.933z"/>
		</g>
		<g i:knockout="Off">
			<path i:knockout="Off" d="M40.744,13.433v-1.375H38.26v-0.641l2.625-3.719h0.563v3.719h0.781v0.641h-0.781v1.375H40.744z
				 M40.744,11.417V8.851l-1.793,2.566H40.744z"/>
		</g>
		<g i:knockout="Off">
			<path i:knockout="Off" d="M49.805,11.933l0.719-0.063c0.055,0.358,0.182,0.627,0.379,0.808c0.198,0.181,0.441,0.271,0.73,0.271
				c0.348,0,0.639-0.127,0.871-0.382c0.231-0.254,0.348-0.592,0.348-1.013c0-0.399-0.111-0.715-0.332-0.946
				c-0.222-0.231-0.519-0.347-0.891-0.347c-0.232,0-0.438,0.051-0.617,0.152s-0.322,0.233-0.426,0.395l-0.656-0.094l0.563-2.938
				h2.844v0.672h-2.285l-0.313,1.549c0.344-0.241,0.704-0.361,1.082-0.361c0.5,0,0.922,0.173,1.266,0.519s0.516,0.791,0.516,1.334
				c0,0.518-0.151,0.965-0.453,1.343c-0.367,0.463-0.869,0.694-1.504,0.694c-0.521,0-0.946-0.146-1.275-0.437
				C50.039,12.799,49.852,12.413,49.805,11.933z"/>
		</g>
		<path i:knockout="Off" fill="none" stroke="#000000" stroke-width="0.7" d="M0.541,17.335h56.907"/>
		<path i:knockout="Off" fill="none" stroke="#000000" stroke-width="0.4" d="M11.832,21.967L0.494,17.715"/>
		<path i:knockout="Off" fill="none" stroke="#000000" stroke-width="0.4" d="M0.494,21.967l11.338-4.252"/>
		<path i:knockout="Off" fill="none" stroke="#000000" stroke-width="0.4" d="M23.169,21.967l-11.338-4.252"/>
		<path i:knockout="Off" fill="none" stroke="#000000" stroke-width="0.4" d="M11.832,21.967l11.338-4.252"/>
		<path i:knockout="Off" fill="none" stroke="#000000" stroke-width="0.4" d="M34.508,21.967l-11.338-4.252"/>
		<path i:knockout="Off" fill="none" stroke="#000000" stroke-width="0.4" d="M23.169,21.967l11.338-4.252"/>
		<path i:knockout="Off" fill="none" stroke="#000000" stroke-width="0.4" d="M45.846,21.967l-11.338-4.252"/>
		<path i:knockout="Off" fill="none" stroke="#000000" stroke-width="0.4" d="M34.508,21.967l11.338-4.252"/>
		<path i:knockout="Off" fill="none" stroke="#000000" stroke-width="0.4" d="M57.184,21.967l-11.338-4.252"/>
		<path i:knockout="Off" fill="none" stroke="#000000" stroke-width="0.4" d="M45.846,21.967l11.338-4.252"/>
		<path i:knockout="Off" fill="none" stroke="#000000" stroke-width="0.7" d="M0.365,15.691h57.011"/>
	</g>
</svg>
