<?xml version="1.0" encoding="utf-8"?>
<!-- Generator: Adobe Illustrator 10.0, SVG Export Plug-In . SVG Version: 3.0.0 Build 77)  -->
<!DOCTYPE svg PUBLIC "-//W3C//DTD SVG 1.0//EN"    "http://www.w3.org/TR/2001/REC-SVG-20010904/DTD/svg10.dtd" [
	<!ENTITY ns_flows "http://ns.adobe.com/Flows/1.0/">
	<!ENTITY ns_extend "http://ns.adobe.com/Extensibility/1.0/">
	<!ENTITY ns_ai "http://ns.adobe.com/AdobeIllustrator/10.0/">
	<!ENTITY ns_graphs "http://ns.adobe.com/Graphs/1.0/">
	<!ENTITY ns_vars "http://ns.adobe.com/Variables/1.0/">
	<!ENTITY ns_imrep "http://ns.adobe.com/ImageReplacement/1.0/">
	<!ENTITY ns_sfw "http://ns.adobe.com/SaveForWeb/1.0/">
	<!ENTITY ns_custom "http://ns.adobe.com/GenericCustomNamespace/1.0/">
	<!ENTITY ns_adobe_xpath "http://ns.adobe.com/XPath/1.0/">
	<!ENTITY ns_svg "http://www.w3.org/2000/svg">
	<!ENTITY ns_xlink "http://www.w3.org/1999/xlink">
]>
<svg xmlns:x="&ns_extend;" xmlns:i="&ns_ai;" xmlns:graph="&ns_graphs;" i:viewOrigin="11.2085 39.8262" i:rulerOrigin="0 0" i:pageBounds="0 841.8896 595.2754 0" xmlns="&ns_svg;" xmlns:xlink="&ns_xlink;" xmlns:a="http://ns.adobe.com/AdobeSVGViewerExtensions/3.0/" width="46.034" height="26.164" viewBox="0 0 46.034 26.164" overflow="visible" enable-background="new 0 0 46.034 26.164" xml:space="preserve" id="svgObj" onload="parent.svgLoad('Top', document)">
	<metadata>
		<variableSets xmlns="&ns_vars;">
			<variableSet varSetName="binding1" locked="none">
				<variables></variables>
				<v:sampleDataSets xmlns="&ns_custom;" xmlns:v="&ns_vars;"></v:sampleDataSets>
			</variableSet>
		</variableSets>
		<sfw xmlns="&ns_sfw;">
			<slices></slices>
			<sliceSourceBounds y="13.662" x="11.208" width="46.034" height="26.164" bottomLeftOrigin="true"></sliceSourceBounds>
		</sfw>
	</metadata>
	<g id="レイヤー_1" i:layer="yes" i:dimmedPercent="100" i:rgbTrio="#4F008000FFFF">
		<path i:knockout="Off" fill="none" stroke="#000000" stroke-width="1.1339" d="M19.877,2.936V0.567h6.258v2.368"/>
		<path i:knockout="Off" fill="none" stroke="#000000" stroke-width="0.5669" d="M11.792,2.937v22.66"/>
		<path i:knockout="Off" fill="none" stroke="#000000" stroke-width="0.5669" d="M0.567,12.267h44.9"/>
		<path i:knockout="Off" fill="none" stroke="#000000" stroke-width="0.5669" d="M0.567,14.267h44.9"/>
		<path i:knockout="Off" fill="none" stroke="#000000" stroke-width="0.5669" d="M0.567,23.597h44.9"/>
		<path i:knockout="Off" fill="none" stroke="#000000" stroke-width="0.5669" d="M23.017,25.597V2.937"/>
		<g i:knockout="Off">
			<path i:knockout="Off" d="M19.375,17.499l-0.703,0.063c-0.063-0.277-0.152-0.479-0.268-0.604
				c-0.191-0.201-0.427-0.302-0.708-0.302c-0.226,0-0.426,0.063-0.602,0.188c-0.218,0.16-0.391,0.396-0.52,0.705
				c-0.128,0.309-0.195,0.75-0.2,1.322c0.17-0.258,0.378-0.449,0.623-0.574c0.246-0.125,0.503-0.188,0.773-0.188
				c0.47,0,0.871,0.173,1.202,0.518c0.331,0.346,0.496,0.791,0.496,1.338c0,0.359-0.078,0.693-0.233,1.002
				c-0.156,0.309-0.369,0.545-0.642,0.709c-0.271,0.164-0.58,0.246-0.925,0.246c-0.588,0-1.068-0.215-1.44-0.646
				c-0.371-0.43-0.557-1.14-0.557-2.129c0-1.105,0.206-1.91,0.617-2.412c0.359-0.438,0.843-0.656,1.451-0.656
				c0.453,0,0.825,0.126,1.114,0.378S19.318,17.055,19.375,17.499z M16.485,19.97c0,0.242,0.052,0.474,0.155,0.694
				c0.104,0.222,0.247,0.39,0.43,0.505c0.183,0.116,0.38,0.174,0.589,0.174c0.304,0,0.562-0.119,0.773-0.359
				c0.212-0.238,0.318-0.563,0.318-0.975c0-0.395-0.104-0.707-0.314-0.934c-0.209-0.229-0.478-0.342-0.805-0.342
				c-0.319,0-0.59,0.113-0.813,0.342C16.596,19.302,16.485,19.601,16.485,19.97z"/>
		</g>
		<g i:knockout="Off">
			<path i:knockout="Off" d="M7.134,10.746H6.431v-4.48C6.262,6.427,6.04,6.589,5.765,6.75C5.49,6.911,5.244,7.032,5.025,7.113
				v-0.68c0.393-0.185,0.737-0.409,1.031-0.672C6.35,5.499,6.559,5.243,6.681,4.996h0.453V10.746z"/>
		</g>
		<g i:knockout="Off">
			<path i:knockout="Off" d="M4.478,20.327l0.719-0.063c0.055,0.358,0.182,0.627,0.379,0.808s0.441,0.271,0.729,0.271
				c0.349,0,0.639-0.127,0.871-0.382c0.232-0.254,0.348-0.592,0.348-1.013c0-0.399-0.111-0.715-0.332-0.946
				c-0.222-0.231-0.519-0.347-0.891-0.347c-0.232,0-0.438,0.051-0.617,0.152s-0.322,0.232-0.426,0.395l-0.656-0.094l0.563-2.938
				h2.844v0.672H5.724l-0.313,1.549c0.344-0.24,0.704-0.361,1.082-0.361c0.5,0,0.922,0.173,1.266,0.52
				c0.344,0.346,0.516,0.791,0.516,1.334c0,0.518-0.151,0.965-0.453,1.343c-0.367,0.463-0.869,0.694-1.504,0.694
				c-0.521,0-0.946-0.146-1.275-0.437C4.713,21.193,4.525,20.808,4.478,20.327z"/>
		</g>
		<g i:knockout="Off">
			<path i:knockout="Off" d="M40.153,10.746V9.371h-2.484V8.73l2.625-3.719h0.563V8.73h0.781v0.641h-0.781v1.375H40.153z
				 M40.153,8.73V6.164L38.361,8.73H40.153z"/>
		</g>
		<g i:knockout="Off">
			<path i:knockout="Off" d="M26.694,9.246l0.719-0.094c0.08,0.394,0.215,0.676,0.405,0.85c0.189,0.173,0.425,0.26,0.707,0.26
				c0.333,0,0.611-0.114,0.834-0.345c0.223-0.229,0.335-0.514,0.335-0.853c0-0.323-0.105-0.591-0.314-0.8
				c-0.209-0.211-0.475-0.315-0.798-0.315c-0.132,0-0.295,0.026-0.492,0.078l0.078-0.625c0.046,0.005,0.083,0.008,0.112,0.008
				c0.294,0,0.559-0.077,0.795-0.232s0.354-0.394,0.354-0.717c0-0.255-0.086-0.467-0.259-0.635S28.774,5.574,28.5,5.574
				c-0.271,0-0.496,0.086-0.677,0.258s-0.297,0.43-0.348,0.773L26.757,6.48c0.085-0.472,0.281-0.837,0.584-1.096
				s0.682-0.389,1.134-0.389c0.312,0,0.599,0.067,0.861,0.2c0.263,0.134,0.463,0.315,0.603,0.546
				c0.139,0.231,0.208,0.476,0.208,0.735c0,0.246-0.066,0.471-0.199,0.672c-0.133,0.203-0.33,0.363-0.59,0.482
				c0.338,0.078,0.604,0.24,0.797,0.487c0.193,0.246,0.289,0.555,0.289,0.925c0,0.501-0.182,0.926-0.547,1.273
				c-0.365,0.349-0.826,0.522-1.383,0.522c-0.502,0-0.92-0.147-1.252-0.443S26.741,9.717,26.694,9.246z"/>
		</g>
		<g i:knockout="Off">
			<path i:knockout="Off" d="M26.726,16.843v-0.672h3.703v0.544c-0.365,0.388-0.727,0.904-1.086,1.548
				c-0.359,0.645-0.636,1.307-0.832,1.988c-0.141,0.479-0.231,1.005-0.27,1.576h-0.719c0.008-0.451,0.096-0.996,0.265-1.635
				c0.169-0.64,0.411-1.256,0.727-1.85c0.316-0.593,0.652-1.093,1.008-1.5H26.726z"/>
		</g>
		<path i:knockout="Off" fill="none" stroke="#000000" stroke-width="0.5669" d="M34.242,2.936v22.661"/>
		<g i:knockout="Off">
			<path i:knockout="Off" d="M38.997,18.724c-0.292-0.106-0.508-0.259-0.648-0.457s-0.21-0.436-0.21-0.712
				c0-0.417,0.149-0.767,0.448-1.052c0.298-0.283,0.695-0.426,1.191-0.426c0.498,0,0.899,0.146,1.203,0.436
				c0.304,0.291,0.456,0.645,0.456,1.062c0,0.267-0.069,0.497-0.208,0.694c-0.139,0.196-0.349,0.349-0.631,0.455
				c0.35,0.114,0.616,0.299,0.799,0.554s0.274,0.559,0.274,0.912c0,0.489-0.173,0.899-0.519,1.232s-0.8,0.499-1.364,0.499
				s-1.019-0.167-1.365-0.501s-0.518-0.751-0.518-1.25c0-0.371,0.094-0.683,0.284-0.934S38.646,18.814,38.997,18.724z
				 M38.622,20.175c0,0.2,0.046,0.394,0.138,0.58c0.093,0.188,0.233,0.332,0.423,0.434c0.19,0.104,0.393,0.154,0.608,0.154
				c0.34,0,0.619-0.107,0.834-0.323c0.216-0.215,0.324-0.489,0.324-0.821c0-0.338-0.111-0.616-0.333-0.837s-0.505-0.331-0.848-0.331
				c-0.335,0-0.61,0.109-0.825,0.327C38.729,19.575,38.622,19.848,38.622,20.175z M38.856,17.53c0,0.271,0.085,0.492,0.256,0.664
				c0.171,0.172,0.398,0.258,0.681,0.258c0.275,0,0.497-0.085,0.667-0.256c0.17-0.17,0.255-0.379,0.255-0.627
				c0-0.258-0.087-0.475-0.263-0.65s-0.397-0.264-0.667-0.264c-0.272,0-0.496,0.086-0.669,0.258S38.856,17.291,38.856,17.53z"/>
		</g>
		<g i:knockout="Off">
			<path i:knockout="Off" d="M19.399,10.074v0.672h-3.797c-0.005-0.169,0.022-0.332,0.083-0.488c0.097-0.258,0.252-0.511,0.467-0.76
				c0.214-0.249,0.521-0.536,0.92-0.864c0.62-0.516,1.04-0.923,1.261-1.221s0.332-0.58,0.332-0.849c0-0.278-0.1-0.513-0.299-0.704
				c-0.2-0.19-0.46-0.286-0.781-0.286c-0.339,0-0.61,0.104-0.814,0.312c-0.204,0.207-0.307,0.494-0.309,0.86l-0.719-0.094
				c0.049-0.539,0.235-0.95,0.558-1.232c0.323-0.282,0.756-0.424,1.3-0.424c0.549,0,0.983,0.152,1.303,0.457s0.48,0.683,0.48,1.134
				c0,0.229-0.047,0.454-0.14,0.676c-0.094,0.221-0.248,0.454-0.465,0.699c-0.216,0.245-0.576,0.581-1.081,1.009
				c-0.423,0.354-0.695,0.596-0.815,0.722c-0.12,0.127-0.219,0.254-0.297,0.382H19.399z"/>
		</g>
		<path i:knockout="Off" fill="none" stroke="#000000" stroke-width="1.1339" d="M45.467,25.597h-44.9V2.936h44.9V25.597z"/>
	</g>
</svg>
