<?xml version="1.0" encoding="utf-8"?>
<!-- Generator: Adobe Illustrator 10.0, SVG Export Plug-In . SVG Version: 3.0.0 Build 77)  -->
<!DOCTYPE svg PUBLIC "-//W3C//DTD SVG 1.0//EN"    "http://www.w3.org/TR/2001/REC-SVG-20010904/DTD/svg10.dtd" [
	<!ENTITY ns_flows "http://ns.adobe.com/Flows/1.0/">
	<!ENTITY ns_extend "http://ns.adobe.com/Extensibility/1.0/">
	<!ENTITY ns_ai "http://ns.adobe.com/AdobeIllustrator/10.0/">
	<!ENTITY ns_graphs "http://ns.adobe.com/Graphs/1.0/">
	<!ENTITY ns_vars "http://ns.adobe.com/Variables/1.0/">
	<!ENTITY ns_imrep "http://ns.adobe.com/ImageReplacement/1.0/">
	<!ENTITY ns_sfw "http://ns.adobe.com/SaveForWeb/1.0/">
	<!ENTITY ns_custom "http://ns.adobe.com/GenericCustomNamespace/1.0/">
	<!ENTITY ns_adobe_xpath "http://ns.adobe.com/XPath/1.0/">
	<!ENTITY ns_svg "http://www.w3.org/2000/svg">
	<!ENTITY ns_xlink "http://www.w3.org/1999/xlink">
]>
<svg xmlns:x="&ns_extend;" xmlns:i="&ns_ai;" xmlns:graph="&ns_graphs;" i:viewOrigin="235.1226 439.3672" i:rulerOrigin="8 47.1104" i:pageBounds="-8 888.8896 604 -47.1104" xmlns="&ns_svg;" xmlns:xlink="&ns_xlink;" xmlns:a="http://ns.adobe.com/AdobeSVGViewerExtensions/3.0/" width="80.253" height="40.888" viewBox="0 0 80.253 40.888" overflow="visible" enable-background="new 0 0 80.253 40.888" xml:space="preserve" id="svgObj" onload="parent.svgLoad('Top', document)">
	<metadata>
		<variableSets xmlns="&ns_vars;">
			<variableSet varSetName="binding1" locked="none">
				<variables></variables>
				<v:sampleDataSets xmlns="&ns_custom;" xmlns:v="&ns_vars;"></v:sampleDataSets>
			</variableSet>
		</variableSets>
		<sfw xmlns="&ns_sfw;">
			<slices></slices>
			<sliceSourceBounds y="388.709" x="218.13" width="159.74" height="63.362" bottomLeftOrigin="true"></sliceSourceBounds>
		</sfw>
	</metadata>
	<g id="レイヤー_1" i:layer="yes" i:dimmedPercent="100" i:rgbTrio="#4F008000FFFF">
		<path i:knockout="Off" fill="none" stroke="#000000" stroke-width="0.7" stroke-linecap="round" d="M33.816,20.312V7.971h11.342
			v12.341H33.816z"/>
		<g i:knockout="Off">
			<path i:knockout="Off" d="M37.539,14.751l0.719-0.094c0.08,0.393,0.215,0.676,0.405,0.849c0.19,0.174,0.425,0.26,0.707,0.26
				c0.333,0,0.611-0.115,0.835-0.344c0.223-0.229,0.335-0.514,0.335-0.854c0-0.323-0.104-0.59-0.313-0.8
				c-0.209-0.21-0.476-0.315-0.798-0.315c-0.132,0-0.296,0.026-0.492,0.078l0.078-0.625c0.046,0.005,0.083,0.008,0.112,0.008
				c0.294,0,0.56-0.078,0.795-0.232s0.354-0.394,0.354-0.716c0-0.256-0.086-0.468-0.259-0.636c-0.173-0.167-0.396-0.251-0.669-0.251
				c-0.271,0-0.497,0.086-0.677,0.258c-0.181,0.172-0.296,0.43-0.348,0.773l-0.719-0.125c0.086-0.471,0.28-0.836,0.584-1.096
				s0.682-0.389,1.134-0.389c0.312,0,0.599,0.067,0.861,0.2c0.262,0.133,0.463,0.316,0.602,0.546s0.208,0.476,0.208,0.734
				c0,0.246-0.066,0.471-0.199,0.673s-0.33,0.363-0.59,0.482c0.338,0.079,0.604,0.241,0.797,0.487
				c0.192,0.247,0.289,0.555,0.289,0.926c0,0.5-0.183,0.925-0.547,1.273c-0.365,0.348-0.826,0.522-1.383,0.522
				c-0.503,0-0.92-0.148-1.252-0.444S37.585,15.223,37.539,14.751z"/>
		</g>
		<path i:knockout="Off" fill="none" stroke="#000000" stroke-width="0.7" stroke-linecap="round" d="M45.033,18.819H34.157"/>
		<path i:knockout="Off" fill="none" stroke="#000000" stroke-width="0.7" stroke-linecap="round" d="M45.317,20.312V7.971h11.342
			v12.341H45.317z"/>
		<g i:knockout="Off">
			<path i:knockout="Off" d="M51.274,16.251v-1.375H48.79v-0.641l2.625-3.719h0.563v3.719h0.781v0.641h-0.781v1.375H51.274z
				 M51.274,14.236v-2.567l-1.792,2.567H51.274z"/>
		</g>
		<path i:knockout="Off" fill="none" stroke="#000000" stroke-width="0.7" stroke-linecap="round" d="M56.534,18.819H45.658"/>
		<path i:knockout="Off" fill="none" stroke="#000000" stroke-width="0.7" stroke-linecap="round" d="M56.818,20.312V7.971h11.335
			v12.341H56.818z"/>
		<g i:knockout="Off">
			<path i:knockout="Off" d="M60.525,14.751l0.719-0.063c0.055,0.358,0.182,0.627,0.379,0.808s0.441,0.271,0.729,0.271
				c0.349,0,0.639-0.127,0.871-0.381c0.232-0.255,0.348-0.592,0.348-1.013c0-0.4-0.111-0.716-0.332-0.947
				c-0.222-0.231-0.519-0.347-0.891-0.347c-0.232,0-0.438,0.051-0.617,0.152c-0.18,0.102-0.322,0.233-0.426,0.395l-0.656-0.094
				l0.563-2.938h2.844v0.672h-2.285l-0.313,1.549c0.344-0.241,0.704-0.362,1.082-0.362c0.5,0,0.922,0.173,1.266,0.519
				c0.344,0.346,0.516,0.791,0.516,1.334c0,0.518-0.151,0.965-0.453,1.342c-0.367,0.463-0.869,0.695-1.504,0.695
				c-0.521,0-0.946-0.145-1.275-0.436C60.76,15.618,60.572,15.232,60.525,14.751z"/>
		</g>
		<path i:knockout="Off" fill="none" stroke="#000000" stroke-width="0.7" stroke-linecap="round" d="M68.029,18.819h-10.87"/>
		<path i:knockout="Off" fill="none" stroke="#000000" stroke-width="0.7" stroke-linecap="round" d="M68.313,20.312V7.971h11.341
			v12.341H68.313z"/>
		<g i:knockout="Off">
			<path i:knockout="Off" d="M75.691,11.923l-0.703,0.063c-0.063-0.277-0.152-0.479-0.268-0.604
				c-0.191-0.201-0.427-0.302-0.708-0.302c-0.226,0-0.426,0.063-0.602,0.187c-0.218,0.161-0.391,0.396-0.52,0.705
				c-0.128,0.309-0.195,0.75-0.2,1.323c0.17-0.258,0.378-0.449,0.623-0.574c0.246-0.125,0.503-0.188,0.772-0.188
				c0.471,0,0.871,0.172,1.202,0.518s0.496,0.791,0.496,1.338c0,0.359-0.078,0.693-0.233,1.002
				c-0.156,0.309-0.369,0.545-0.642,0.709c-0.271,0.164-0.58,0.246-0.925,0.246c-0.589,0-1.068-0.215-1.44-0.646
				c-0.371-0.431-0.557-1.141-0.557-2.129c0-1.106,0.206-1.91,0.617-2.413c0.358-0.437,0.843-0.656,1.45-0.656
				c0.453,0,0.825,0.126,1.115,0.378C75.459,11.131,75.633,11.479,75.691,11.923z M72.8,14.394c0,0.242,0.052,0.473,0.155,0.694
				s0.246,0.389,0.43,0.505c0.184,0.115,0.38,0.173,0.589,0.173c0.304,0,0.562-0.12,0.773-0.359s0.318-0.564,0.318-0.975
				c0-0.395-0.104-0.707-0.314-0.934c-0.209-0.228-0.478-0.341-0.805-0.341c-0.319,0-0.591,0.114-0.813,0.341
				C72.912,13.727,72.8,14.025,72.8,14.394z"/>
		</g>
		<path i:knockout="Off" fill="none" stroke="#000000" stroke-width="0.7" stroke-linecap="round" d="M79.529,18.819H68.654"/>
		<path i:knockout="Off" fill="none" stroke="#000000" stroke-width="0.7" stroke-linecap="round" d="M33.816,32.652V20.312h11.342
			v12.341H33.816z"/>
		<g i:knockout="Off">
			<path i:knockout="Off" d="M37.57,23.608v-0.672h3.703v0.544c-0.365,0.388-0.728,0.904-1.086,1.548
				c-0.359,0.645-0.636,1.307-0.832,1.988c-0.141,0.479-0.231,1.005-0.27,1.576h-0.719c0.008-0.451,0.096-0.996,0.265-1.635
				c0.169-0.64,0.411-1.256,0.727-1.85c0.315-0.593,0.651-1.093,1.008-1.5H37.57z"/>
		</g>
		<path i:knockout="Off" fill="none" stroke="#000000" stroke-width="0.7" stroke-linecap="round" d="M45.033,31.16H34.157"/>
		<path i:knockout="Off" fill="none" stroke="#000000" stroke-width="0.7" stroke-linecap="round" d="M45.317,32.652V20.312h11.342
			v12.341H45.317z"/>
		<g i:knockout="Off">
			<path i:knockout="Off" d="M50.117,25.489c-0.292-0.106-0.507-0.259-0.648-0.457s-0.211-0.436-0.211-0.712
				c0-0.417,0.149-0.767,0.447-1.052c0.299-0.283,0.696-0.426,1.191-0.426c0.498,0,0.899,0.146,1.203,0.436
				c0.304,0.291,0.456,0.645,0.456,1.062c0,0.267-0.069,0.497-0.208,0.694c-0.139,0.196-0.349,0.349-0.631,0.455
				c0.35,0.114,0.617,0.299,0.799,0.554s0.274,0.559,0.274,0.912c0,0.489-0.173,0.899-0.519,1.232s-0.8,0.499-1.364,0.499
				s-1.019-0.167-1.364-0.501s-0.519-0.751-0.519-1.25c0-0.371,0.095-0.683,0.284-0.934S49.767,25.58,50.117,25.489z M49.743,26.94
				c0,0.2,0.046,0.394,0.139,0.58c0.092,0.188,0.233,0.332,0.423,0.434c0.189,0.104,0.393,0.154,0.608,0.154
				c0.341,0,0.619-0.107,0.834-0.323c0.216-0.215,0.324-0.489,0.324-0.821c0-0.338-0.111-0.616-0.333-0.837
				s-0.505-0.331-0.848-0.331c-0.335,0-0.61,0.109-0.825,0.327S49.743,26.613,49.743,26.94z M49.977,24.296
				c0,0.271,0.085,0.492,0.257,0.664c0.171,0.172,0.398,0.258,0.681,0.258c0.275,0,0.497-0.085,0.667-0.256
				c0.17-0.17,0.255-0.379,0.255-0.627c0-0.258-0.088-0.475-0.263-0.65s-0.397-0.264-0.667-0.264c-0.272,0-0.495,0.086-0.669,0.258
				S49.977,24.057,49.977,24.296z"/>
		</g>
		<path i:knockout="Off" fill="none" stroke="#000000" stroke-width="0.7" stroke-linecap="round" d="M56.534,31.16H45.658"/>
		<path i:knockout="Off" fill="none" stroke="#000000" stroke-width="0.7" stroke-linecap="round" d="M56.818,32.652V20.312h11.335
			v12.341H56.818z"/>
		<g i:knockout="Off">
			<path i:knockout="Off" d="M60.619,27.265l0.672-0.063c0.057,0.318,0.167,0.549,0.328,0.691c0.161,0.144,0.368,0.215,0.621,0.215
				c0.216,0,0.407-0.049,0.572-0.147c0.165-0.099,0.299-0.229,0.4-0.395s0.188-0.387,0.258-0.667
				c0.07-0.279,0.105-0.565,0.105-0.857c0-0.031-0.001-0.078-0.004-0.141c-0.14,0.225-0.331,0.406-0.573,0.545
				c-0.242,0.14-0.505,0.209-0.787,0.209c-0.472,0-0.871-0.172-1.197-0.516c-0.326-0.345-0.489-0.798-0.489-1.361
				c0-0.581,0.171-1.049,0.514-1.404c0.342-0.354,0.771-0.531,1.287-0.531c0.372,0,0.713,0.101,1.021,0.301S63.89,23.63,64.05,24
				c0.16,0.371,0.24,0.907,0.24,1.61c0,0.731-0.08,1.313-0.239,1.747s-0.396,0.763-0.711,0.989c-0.315,0.227-0.684,0.34-1.107,0.34
				c-0.449,0-0.816-0.124-1.101-0.373C60.847,28.065,60.676,27.716,60.619,27.265z M63.509,24.739c0-0.404-0.106-0.725-0.319-0.963
				c-0.212-0.236-0.473-0.355-0.78-0.355c-0.318,0-0.592,0.128-0.822,0.384c-0.229,0.255-0.344,0.587-0.344,0.993
				c0,0.365,0.109,0.662,0.327,0.891c0.218,0.228,0.491,0.342,0.82,0.342c0.326,0,0.594-0.114,0.804-0.342
				C63.404,25.46,63.509,25.144,63.509,24.739z"/>
		</g>
		<path i:knockout="Off" fill="none" stroke="#000000" stroke-width="0.7" stroke-linecap="round" d="M68.029,31.16h-10.87"/>
		<path i:knockout="Off" fill="none" stroke="#000000" stroke-width="0.7" stroke-linecap="round" d="M68.313,32.652V20.312h11.341
			v12.341H68.313z"/>
		<g i:knockout="Off">
			<path i:knockout="Off" d="M72.451,28.593h-0.703v-4.48c-0.169,0.162-0.392,0.323-0.666,0.484
				c-0.274,0.162-0.521,0.283-0.74,0.363v-0.68c0.394-0.185,0.737-0.408,1.031-0.672c0.294-0.263,0.503-0.518,0.625-0.766h0.453
				V28.593z"/>
			<path i:knockout="Off" d="M74.244,25.767c0-0.677,0.07-1.223,0.211-1.638c0.14-0.415,0.349-0.733,0.626-0.954
				c0.277-0.222,0.626-0.332,1.046-0.332c0.31,0,0.583,0.063,0.819,0.186s0.43,0.302,0.579,0.535
				c0.149,0.232,0.268,0.516,0.354,0.851c0.086,0.335,0.13,0.785,0.13,1.353c0,0.672-0.069,1.215-0.209,1.63
				c-0.139,0.415-0.347,0.733-0.624,0.956s-0.627,0.334-1.05,0.334c-0.557,0-0.994-0.195-1.312-0.586
				C74.434,27.62,74.244,26.842,74.244,25.767z M74.962,25.765c0,0.945,0.112,1.572,0.336,1.881s0.499,0.463,0.828,0.463
				c0.328,0,0.604-0.154,0.828-0.465c0.224-0.31,0.336-0.936,0.336-1.879c0-0.942-0.111-1.568-0.334-1.879
				c-0.223-0.31-0.502-0.465-0.838-0.465c-0.329,0-0.592,0.137-0.791,0.41C75.084,24.181,74.962,24.825,74.962,25.765z"/>
		</g>
		<path i:knockout="Off" fill="none" stroke="#000000" stroke-width="0.7" stroke-linecap="round" d="M79.529,31.16H68.654"/>
		<path i:knockout="Off" fill="none" stroke="#000000" stroke-width="0.7" stroke-linecap="round" d="M6.6,35.296V20.487h13.607
			v14.809H6.6z"/>
		<g i:knockout="Off">
			<path i:knockout="Off" d="M11.858,29.425h-0.703v-4.48c-0.169,0.162-0.392,0.323-0.666,0.484
				c-0.275,0.162-0.521,0.283-0.74,0.363v-0.68c0.393-0.185,0.737-0.408,1.031-0.672c0.294-0.263,0.502-0.518,0.625-0.766h0.453
				V29.425z"/>
			<path i:knockout="Off" d="M16.307,29.425h-0.703v-4.48c-0.169,0.162-0.392,0.323-0.666,0.484
				c-0.275,0.162-0.521,0.283-0.74,0.363v-0.68c0.393-0.185,0.737-0.408,1.031-0.672c0.294-0.263,0.502-0.518,0.625-0.766h0.453
				V29.425z"/>
		</g>
		<path i:knockout="Off" fill="none" stroke="#000000" stroke-width="0.7" stroke-linecap="round" d="M20.058,33.596H7.008"/>
		<path i:knockout="Off" fill="none" stroke="#000000" stroke-width="0.7" stroke-linecap="round" d="M6.6,20.408V5.6h13.607v14.808
			H6.6z"/>
		<g i:knockout="Off">
			<path i:knockout="Off" d="M14.083,14.537h-0.703v-4.48c-0.169,0.162-0.392,0.323-0.666,0.484
				c-0.275,0.162-0.521,0.283-0.74,0.363v-0.68c0.393-0.185,0.737-0.409,1.031-0.672c0.294-0.263,0.502-0.518,0.625-0.766h0.453
				V14.537z"/>
		</g>
		<path i:knockout="Off" fill="none" stroke="#000000" stroke-width="0.7" stroke-linecap="round" d="M20.058,18.708H7.008"/>
		<path i:knockout="Off" fill="none" stroke="#000000" stroke-width="0.7" stroke-linecap="round" d="M20.208,35.296V20.487h13.609
			v14.809H20.208z"/>
		<g i:knockout="Off">
			<path i:knockout="Off" d="M25.465,29.425h-0.703v-4.48c-0.169,0.162-0.392,0.323-0.666,0.484
				c-0.275,0.162-0.521,0.283-0.74,0.363v-0.68c0.393-0.185,0.737-0.408,1.031-0.672c0.294-0.263,0.502-0.518,0.625-0.766h0.453
				V29.425z"/>
			<path i:knockout="Off" d="M30.954,28.753v0.672h-3.797c-0.005-0.169,0.022-0.332,0.083-0.488c0.097-0.258,0.252-0.511,0.467-0.76
				c0.214-0.248,0.521-0.537,0.92-0.864c0.62-0.517,1.04-0.923,1.261-1.221s0.332-0.58,0.332-0.849c0-0.277-0.1-0.513-0.299-0.703
				c-0.2-0.191-0.46-0.287-0.781-0.287c-0.339,0-0.61,0.104-0.814,0.311c-0.204,0.208-0.307,0.494-0.309,0.861l-0.719-0.094
				c0.049-0.539,0.235-0.949,0.558-1.232c0.323-0.282,0.756-0.424,1.3-0.424c0.549,0,0.983,0.152,1.303,0.457s0.48,0.683,0.48,1.133
				c0,0.229-0.047,0.455-0.14,0.677c-0.094,0.222-0.248,0.454-0.465,0.699c-0.216,0.245-0.576,0.581-1.081,1.009
				c-0.423,0.355-0.695,0.596-0.815,0.723c-0.12,0.126-0.219,0.253-0.297,0.381H30.954z"/>
		</g>
		<path i:knockout="Off" fill="none" stroke="#000000" stroke-width="0.7" stroke-linecap="round" d="M33.667,33.596H20.616"/>
		<path i:knockout="Off" fill="none" stroke="#000000" stroke-width="0.7" stroke-linecap="round" d="M20.208,20.408V5.6h13.609
			v14.808H20.208z"/>
		<g i:knockout="Off">
			<path i:knockout="Off" d="M28.729,13.865v0.672h-3.797c-0.005-0.169,0.022-0.332,0.083-0.488c0.097-0.258,0.252-0.511,0.467-0.76
				c0.214-0.249,0.521-0.537,0.92-0.864c0.62-0.516,1.04-0.923,1.261-1.221c0.221-0.297,0.332-0.581,0.332-0.848
				c0-0.278-0.1-0.513-0.299-0.704c-0.2-0.191-0.46-0.287-0.781-0.287c-0.339,0-0.61,0.104-0.814,0.311s-0.307,0.494-0.309,0.861
				l-0.719-0.094c0.049-0.539,0.235-0.95,0.558-1.232c0.323-0.283,0.756-0.424,1.3-0.424c0.549,0,0.983,0.153,1.303,0.458
				s0.48,0.682,0.48,1.133c0,0.229-0.047,0.455-0.14,0.676c-0.094,0.222-0.248,0.455-0.465,0.7
				c-0.216,0.245-0.576,0.581-1.081,1.009c-0.423,0.355-0.695,0.596-0.815,0.722c-0.12,0.126-0.219,0.254-0.297,0.381H28.729z"/>
		</g>
		<path i:knockout="Off" fill="none" stroke="#000000" stroke-width="0.7" stroke-linecap="round" d="M33.667,18.708H20.616"/>
		<path i:knockout="Off" fill="none" stroke="#000000" stroke-width="1.2" stroke-linecap="round" d="M55.872,7.787V4.527H68.25
			v3.205"/>
		<path i:knockout="Off" fill="none" stroke="#000000" stroke-width="1.2" stroke-linecap="round" d="M68.25,32.68v3.259H55.872
			v-3.205"/>
		<path i:knockout="Off" fill="none" stroke="#000000" stroke-width="1.2" stroke-linecap="round" d="M6.6,35.288l27.216,0.003
			V32.79l45.837-0.138V7.971H33.816V5.6H6.6v-5h-3v17.315h-3v3.125h3v11.688h-3v3.167h3v4.394h3V35.288z"/>
	</g>
</svg>
