<?xml version="1.0" encoding="utf-8"?>
<!-- Generator: Adobe Illustrator 10.0, SVG Export Plug-In . SVG Version: 3.0.0 Build 77)  -->
<!DOCTYPE svg PUBLIC "-//W3C//DTD SVG 1.0//EN"    "http://www.w3.org/TR/2001/REC-SVG-20010904/DTD/svg10.dtd" [
	<!ENTITY ns_flows "http://ns.adobe.com/Flows/1.0/">
	<!ENTITY ns_extend "http://ns.adobe.com/Extensibility/1.0/">
	<!ENTITY ns_ai "http://ns.adobe.com/AdobeIllustrator/10.0/">
	<!ENTITY ns_graphs "http://ns.adobe.com/Graphs/1.0/">
	<!ENTITY ns_vars "http://ns.adobe.com/Variables/1.0/">
	<!ENTITY ns_imrep "http://ns.adobe.com/ImageReplacement/1.0/">
	<!ENTITY ns_sfw "http://ns.adobe.com/SaveForWeb/1.0/">
	<!ENTITY ns_custom "http://ns.adobe.com/GenericCustomNamespace/1.0/">
	<!ENTITY ns_adobe_xpath "http://ns.adobe.com/XPath/1.0/">
	<!ENTITY ns_svg "http://www.w3.org/2000/svg">
	<!ENTITY ns_xlink "http://www.w3.org/1999/xlink">
]>
<svg xmlns:x="&ns_extend;" xmlns:i="&ns_ai;" xmlns:graph="&ns_graphs;" i:viewOrigin="220.8589 460.2725" i:rulerOrigin="8 -24.8896" i:pageBounds="-8 816.8896 604 24.8896" xmlns="&ns_svg;" xmlns:xlink="&ns_xlink;" xmlns:a="http://ns.adobe.com/AdobeSVGViewerExtensions/3.0/" width="153.858" height="76.312" viewBox="0 0 153.858 76.312" overflow="visible" enable-background="new 0 0 153.858 76.312" xml:space="preserve" id="svgObj" onload="parent.svgLoad('Top', document)">
	<metadata>
		<variableSets xmlns="&ns_vars;">
			<variableSet varSetName="binding1" locked="none">
				<variables></variables>
				<v:sampleDataSets xmlns="&ns_custom;" xmlns:v="&ns_vars;"></v:sampleDataSets>
			</variableSet>
		</variableSets>
		<sfw xmlns="&ns_sfw;">
			<slices></slices>
			<sliceSourceBounds y="383.961" x="218.13" width="159.74" height="76.312" bottomLeftOrigin="true"></sliceSourceBounds>
		</sfw>
	</metadata>
	<g id="レイヤー_1" i:layer="yes" i:dimmedPercent="100" i:rgbTrio="#4F008000FFFF">
		<g>
			<g>
				<path i:knockout="Off" fill="none" stroke="#000000" stroke-width="0.7" d="M13.548,4.15h126.084"/>
				<path i:knockout="Off" fill="none" stroke="#000000" stroke-width="0.7" stroke-linecap="round" d="M139.632,27.827H13.548"/>
				<path i:knockout="Off" fill="none" stroke="#000000" stroke-width="0.7" d="M36.312,16.489V4.15H24.973v12.339H36.312z"/>
				<path i:knockout="Off" fill="none" stroke="#000000" stroke-width="0.7" d="M47.65,16.489V4.15H36.312v12.339H47.65z"/>
				<path i:knockout="Off" fill="none" stroke="#000000" stroke-width="0.7" d="M47.65,27.827V16.489H36.312v11.338H47.65z"/>
				<path i:knockout="Off" fill="none" stroke="#000000" stroke-width="0.7" d="M58.989,27.827V16.489H47.65v11.338H58.989z"/>
				<path i:knockout="Off" fill="none" stroke="#000000" stroke-width="0.7" d="M58.989,16.489V4.15H47.65v12.339H58.989z"/>
				<path i:knockout="Off" fill="none" stroke="#000000" stroke-width="0.7" d="M70.327,16.489V4.15H58.989v12.339H70.327z"/>
				<path i:knockout="Off" fill="none" stroke="#000000" stroke-width="0.7" d="M70.327,27.827V16.489H58.989v11.338H70.327z"/>
				<path i:knockout="Off" fill="none" stroke="#000000" stroke-width="0.7" d="M81.667,16.489V4.15H70.327v12.339H81.667z"/>
				<path i:knockout="Off" fill="none" stroke="#000000" stroke-width="0.7" d="M93.004,16.489V4.15H81.667v12.339H93.004z"/>
				<path i:knockout="Off" fill="none" stroke="#000000" stroke-width="0.7" d="M104.343,16.489V4.15H93.004v12.339H104.343z"/>
				<path i:knockout="Off" fill="none" stroke="#000000" stroke-width="0.7" d="M115.682,16.489V4.15h-11.339v12.339H115.682z"/>
				<path i:knockout="Off" fill="none" stroke="#000000" stroke-width="0.7" d="M127.02,16.489V4.15h-11.338v12.339H127.02z"/>
				<path i:knockout="Off" fill="none" stroke="#000000" stroke-width="0.7" d="M115.682,27.827V16.489h-11.339v11.338H115.682z"/>
				<path i:knockout="Off" fill="none" stroke="#000000" stroke-width="0.7" d="M104.343,27.827V16.489H93.004v11.338H104.343z"/>
				<path i:knockout="Off" fill="none" stroke="#000000" stroke-width="0.7" d="M93.004,27.827V16.489H81.667v11.338H93.004z"/>
				<path i:knockout="Off" fill="none" stroke="#000000" stroke-width="0.7" d="M81.667,27.827V16.489H70.327v11.338H81.667z"/>
				<path i:knockout="Off" fill="none" stroke="#000000" stroke-width="0.7" d="M16.334,16.489h8.639"/>
				<path i:knockout="Off" fill="none" stroke="#000000" stroke-width="0.7" d="M136.91,16.489h-9.89"/>
				<path i:knockout="Off" fill="none" stroke="#000000" stroke-width="1.2" d="M139.632,4.15V4.134H13.548V4.15v9.422l2.786,2.917
					l-2.786,2.75v8.588v3.813h126.084v-3.813v-8.505l-2.723-2.833l2.723-2.917V4.15z"/>
				<path i:knockout="Off" fill="#FFFFFF" stroke="#000000" stroke-width="0.7" d="M127.02,16.489h-11.338v11.338h11.338V16.489z"/>
				<path i:knockout="Off" fill="#FFFFFF" stroke="#000000" stroke-width="0.7" d="M36.312,16.489H24.973v11.338h11.338V16.489z"/>
				<path i:knockout="Off" fill="#FFFFFF" stroke="#000000" stroke-width="1.2" d="M16.373,4.03V0.629h-2.835V4.03H16.373z"/>
				<path i:knockout="Off" fill="#FFFFFF" stroke="#000000" stroke-width="1.2" d="M139.623,4.03V0.629h-2.835V4.03H139.623z"/>
				<path i:knockout="Off" fill="none" stroke="#000000" stroke-width="1.2" d="M78.516,4.001V0.6h-5.669v3.401H78.516z"/>
				<g i:knockout="Off">
					<path i:knockout="Off" d="M17.149,12.558l2.2-5.734h0.837l2.307,5.734H21.63l-0.654-1.734h-2.396l-0.622,1.734H17.149z
						 M18.799,10.199h1.948l-0.597-1.58c-0.178-0.483-0.312-0.879-0.402-1.186c-0.073,0.369-0.179,0.734-0.315,1.094L18.799,10.199z
						"/>
				</g>
				<g i:knockout="Off">
					<path i:knockout="Off" d="M27.732,12.558l2.2-5.734h0.837l2.307,5.734h-0.862l-0.654-1.734h-2.396l-0.622,1.734H27.732z
						 M29.382,10.199h1.948l-0.597-1.58c-0.178-0.483-0.312-0.879-0.402-1.186c-0.074,0.369-0.179,0.734-0.316,1.094L29.382,10.199z
						"/>
				</g>
				<g i:knockout="Off">
					<path i:knockout="Off" d="M39.8,12.558V6.824h2.148c0.438,0,0.789,0.058,1.053,0.174s0.471,0.295,0.621,0.537
						c0.15,0.241,0.225,0.494,0.225,0.758c0,0.245-0.067,0.477-0.2,0.693s-0.334,0.392-0.604,0.525
						c0.349,0.102,0.617,0.275,0.804,0.52s0.281,0.534,0.281,0.867c0,0.268-0.057,0.518-0.17,0.748s-0.253,0.408-0.42,0.533
						s-0.376,0.219-0.628,0.283c-0.251,0.064-0.56,0.096-0.924,0.096H39.8z M40.565,9.246h1.233c0.334,0,0.574-0.022,0.719-0.067
						c0.192-0.058,0.337-0.154,0.434-0.289c0.098-0.134,0.146-0.303,0.146-0.505c0-0.192-0.045-0.362-0.136-0.508
						c-0.091-0.146-0.22-0.246-0.389-0.3s-0.458-0.081-0.867-0.081h-1.139V9.246z M40.565,11.886h1.426
						c0.245,0,0.417-0.009,0.516-0.027c0.174-0.031,0.32-0.083,0.438-0.156s0.213-0.179,0.289-0.318s0.113-0.3,0.113-0.482
						c0-0.213-0.057-0.399-0.169-0.557c-0.113-0.158-0.267-0.268-0.46-0.332c-0.193-0.064-0.471-0.096-0.834-0.096h-1.318V11.886z"/>
				</g>
				<g i:knockout="Off">
					<path i:knockout="Off" d="M51.175,12.558V6.824h2.148c0.438,0,0.789,0.058,1.053,0.174s0.471,0.295,0.621,0.537
						c0.15,0.241,0.225,0.494,0.225,0.758c0,0.245-0.067,0.477-0.2,0.693s-0.334,0.392-0.604,0.525
						c0.349,0.102,0.617,0.275,0.804,0.52s0.281,0.534,0.281,0.867c0,0.268-0.057,0.518-0.17,0.748s-0.253,0.408-0.42,0.533
						s-0.376,0.219-0.628,0.283c-0.251,0.064-0.56,0.096-0.924,0.096H51.175z M51.94,9.246h1.233c0.334,0,0.574-0.022,0.719-0.067
						c0.192-0.058,0.337-0.154,0.434-0.289c0.098-0.134,0.146-0.303,0.146-0.505c0-0.192-0.045-0.362-0.136-0.508
						c-0.091-0.146-0.22-0.246-0.389-0.3s-0.458-0.081-0.867-0.081H51.94V9.246z M51.94,11.886h1.426
						c0.245,0,0.417-0.009,0.516-0.027c0.174-0.031,0.32-0.083,0.438-0.156s0.213-0.179,0.289-0.318s0.113-0.3,0.113-0.482
						c0-0.213-0.057-0.399-0.169-0.557c-0.113-0.158-0.267-0.268-0.46-0.332c-0.193-0.064-0.471-0.096-0.834-0.096H51.94V11.886z"/>
				</g>
				<g i:knockout="Off">
					<path i:knockout="Off" d="M66.397,10.543l0.766,0.191c-0.159,0.624-0.445,1.099-0.857,1.427
						c-0.413,0.327-0.917,0.491-1.514,0.491c-0.617,0-1.119-0.125-1.506-0.377s-0.681-0.615-0.883-1.092
						c-0.202-0.477-0.303-0.988-0.303-1.535c0-0.596,0.114-1.117,0.342-1.561c0.229-0.444,0.553-0.781,0.974-1.012
						s0.884-0.346,1.39-0.346c0.573,0,1.056,0.146,1.446,0.439c0.391,0.292,0.664,0.703,0.817,1.233l-0.75,0.175
						c-0.133-0.415-0.326-0.717-0.578-0.907c-0.253-0.189-0.57-0.284-0.953-0.284c-0.44,0-0.808,0.105-1.104,0.315
						c-0.296,0.21-0.503,0.493-0.623,0.847c-0.12,0.354-0.18,0.719-0.18,1.096c0,0.485,0.071,0.909,0.212,1.271
						c0.142,0.362,0.362,0.633,0.661,0.812s0.622,0.269,0.971,0.269c0.423,0,0.782-0.122,1.075-0.366
						C66.094,11.386,66.293,11.023,66.397,10.543z"/>
				</g>
				<g i:knockout="Off">
					<path i:knockout="Off" d="M77.412,10.668l0.766,0.191c-0.159,0.624-0.445,1.099-0.857,1.427
						c-0.413,0.327-0.917,0.491-1.514,0.491c-0.617,0-1.119-0.125-1.506-0.377s-0.681-0.615-0.883-1.092
						c-0.202-0.477-0.303-0.988-0.303-1.535c0-0.596,0.114-1.117,0.342-1.561c0.229-0.444,0.553-0.781,0.974-1.012
						s0.884-0.346,1.39-0.346c0.573,0,1.056,0.146,1.446,0.439c0.391,0.292,0.664,0.703,0.817,1.233l-0.75,0.175
						c-0.133-0.415-0.326-0.717-0.578-0.907c-0.253-0.189-0.57-0.284-0.953-0.284c-0.44,0-0.808,0.105-1.104,0.315
						c-0.296,0.21-0.503,0.493-0.623,0.847c-0.12,0.354-0.18,0.719-0.18,1.096c0,0.485,0.071,0.909,0.212,1.271
						c0.142,0.362,0.362,0.633,0.661,0.812s0.622,0.269,0.971,0.269c0.423,0,0.782-0.122,1.075-0.366
						C77.109,11.511,77.308,11.148,77.412,10.668z"/>
				</g>
				<g i:knockout="Off">
					<path i:knockout="Off" d="M89.52,10.668l0.766,0.191c-0.159,0.624-0.445,1.099-0.857,1.427
						c-0.413,0.327-0.918,0.491-1.514,0.491c-0.617,0-1.119-0.125-1.506-0.377s-0.682-0.615-0.883-1.092
						c-0.202-0.477-0.303-0.988-0.303-1.535c0-0.596,0.114-1.117,0.342-1.561c0.229-0.444,0.553-0.781,0.974-1.012
						s0.884-0.346,1.39-0.346c0.573,0,1.056,0.146,1.446,0.439c0.392,0.292,0.663,0.703,0.817,1.233l-0.75,0.175
						c-0.133-0.415-0.326-0.717-0.578-0.907c-0.253-0.189-0.57-0.284-0.953-0.284c-0.44,0-0.809,0.105-1.104,0.315
						c-0.296,0.21-0.504,0.493-0.623,0.847c-0.12,0.354-0.18,0.719-0.18,1.096c0,0.485,0.07,0.909,0.213,1.271
						c0.141,0.362,0.361,0.633,0.66,0.812s0.622,0.269,0.971,0.269c0.423,0,0.781-0.122,1.075-0.366S89.417,11.148,89.52,10.668z"/>
				</g>
				<g i:knockout="Off">
					<path i:knockout="Off" d="M96,12.683V6.949h1.973c0.445,0,0.785,0.027,1.02,0.082c0.328,0.076,0.607,0.212,0.84,0.411
						c0.302,0.256,0.527,0.583,0.678,0.98c0.149,0.397,0.225,0.852,0.225,1.363c0,0.436-0.051,0.821-0.152,1.158
						s-0.232,0.615-0.391,0.835c-0.159,0.221-0.333,0.394-0.521,0.521c-0.189,0.126-0.417,0.223-0.684,0.288
						c-0.268,0.065-0.574,0.098-0.92,0.098H96z M96.766,12.011h1.22c0.376,0,0.672-0.035,0.887-0.106
						c0.214-0.07,0.385-0.17,0.513-0.298c0.179-0.18,0.318-0.423,0.418-0.727c0.101-0.304,0.15-0.673,0.15-1.108
						c0-0.601-0.098-1.063-0.294-1.386c-0.196-0.322-0.435-0.539-0.716-0.648c-0.202-0.078-0.528-0.118-0.978-0.118h-1.2V12.011z"/>
				</g>
				<g i:knockout="Off">
					<path i:knockout="Off" d="M107.667,12.683V6.949h1.973c0.445,0,0.785,0.027,1.02,0.082c0.328,0.076,0.607,0.212,0.84,0.411
						c0.302,0.256,0.527,0.583,0.678,0.98c0.149,0.397,0.225,0.852,0.225,1.363c0,0.436-0.051,0.821-0.152,1.158
						s-0.232,0.615-0.391,0.835c-0.159,0.221-0.333,0.394-0.521,0.521c-0.189,0.126-0.417,0.223-0.684,0.288
						c-0.268,0.065-0.574,0.098-0.92,0.098H107.667z M108.432,12.011h1.22c0.376,0,0.672-0.035,0.887-0.106
						c0.214-0.07,0.385-0.17,0.513-0.298c0.179-0.18,0.318-0.423,0.418-0.727c0.101-0.304,0.15-0.673,0.15-1.108
						c0-0.601-0.098-1.063-0.294-1.386c-0.196-0.322-0.435-0.539-0.716-0.648c-0.202-0.078-0.528-0.118-0.978-0.118h-1.2V12.011z"/>
				</g>
				<g i:knockout="Off">
					<path i:knockout="Off" d="M118.903,13.016V7.282h4.125v0.672h-3.359v1.766h3.141v0.672h-3.141v1.953h3.5v0.672H118.903z"/>
				</g>
				<g i:knockout="Off">
					<path i:knockout="Off" d="M131.237,12.683V6.949h4.125v0.672h-3.359v1.766h3.141v0.672h-3.141v1.953h3.5v0.672H131.237z"/>
				</g>
				<g i:knockout="Off">
					<path i:knockout="Off" d="M18.127,25.33v-5.734h3.875v0.672h-3.109v1.781h2.688v0.672h-2.688v2.609H18.127z"/>
				</g>
				<g i:knockout="Off">
					<path i:knockout="Off" d="M28.794,25.33v-5.734h3.875v0.672H29.56v1.781h2.688v0.672H29.56v2.609H28.794z"/>
				</g>
				<g i:knockout="Off">
					<path i:knockout="Off" d="M39.461,25.33v-5.734h3.875v0.672h-3.109v1.781h2.688v0.672h-2.688v2.609H39.461z"/>
				</g>
				<g i:knockout="Off">
					<path i:knockout="Off" d="M51.127,25.33v-5.734h3.875v0.672h-3.109v1.781h2.688v0.672h-2.688v2.609H51.127z"/>
				</g>
				<g i:knockout="Off">
					<path i:knockout="Off" d="M64.408,23.08v-0.672h2.422v2.123c-0.373,0.296-0.757,0.52-1.152,0.669
						c-0.396,0.149-0.802,0.224-1.219,0.224c-0.563,0-1.074-0.121-1.533-0.361c-0.46-0.241-0.807-0.589-1.041-1.045
						s-0.352-0.965-0.352-1.527c0-0.557,0.116-1.078,0.35-1.561c0.232-0.483,0.568-0.842,1.005-1.076
						c0.438-0.234,0.941-0.352,1.511-0.352c0.414,0,0.788,0.067,1.123,0.202c0.334,0.135,0.597,0.322,0.787,0.563
						c0.19,0.241,0.334,0.555,0.433,0.941l-0.704,0.188c-0.085-0.292-0.192-0.521-0.318-0.687c-0.127-0.167-0.308-0.3-0.543-0.4
						c-0.235-0.1-0.497-0.15-0.784-0.15c-0.344,0-0.642,0.053-0.893,0.159s-0.454,0.244-0.608,0.416
						c-0.154,0.172-0.273,0.361-0.358,0.567c-0.146,0.354-0.218,0.739-0.218,1.153c0,0.511,0.087,0.938,0.262,1.283
						c0.175,0.344,0.429,0.599,0.763,0.766c0.333,0.167,0.688,0.25,1.064,0.25c0.326,0,0.644-0.063,0.955-0.191
						c0.311-0.127,0.546-0.263,0.707-0.407V23.08H64.408z"/>
				</g>
				<g i:knockout="Off">
					<path i:knockout="Off" d="M75.449,23.08v-0.672h2.422v2.123c-0.373,0.296-0.756,0.52-1.152,0.669s-0.802,0.224-1.219,0.224
						c-0.563,0-1.074-0.121-1.533-0.361s-0.807-0.589-1.041-1.045s-0.352-0.965-0.352-1.527c0-0.557,0.117-1.078,0.349-1.561
						c0.233-0.483,0.568-0.842,1.006-1.076c0.437-0.234,0.94-0.352,1.511-0.352c0.414,0,0.788,0.067,1.123,0.202
						c0.334,0.135,0.597,0.322,0.787,0.563c0.19,0.241,0.334,0.555,0.434,0.941l-0.704,0.188c-0.085-0.292-0.191-0.521-0.318-0.687
						c-0.127-0.167-0.308-0.3-0.543-0.4c-0.236-0.1-0.497-0.15-0.784-0.15c-0.344,0-0.642,0.053-0.893,0.159
						s-0.454,0.244-0.607,0.416c-0.154,0.172-0.274,0.361-0.359,0.567c-0.145,0.354-0.217,0.739-0.217,1.153
						c0,0.511,0.087,0.938,0.262,1.283c0.175,0.344,0.429,0.599,0.763,0.766c0.334,0.167,0.688,0.25,1.063,0.25
						c0.326,0,0.645-0.063,0.955-0.191c0.311-0.127,0.546-0.263,0.707-0.407V23.08H75.449z"/>
				</g>
				<g i:knockout="Off">
					<path i:knockout="Off" d="M87.116,23.08v-0.672h2.422v2.123c-0.373,0.296-0.757,0.52-1.152,0.669
						c-0.396,0.149-0.803,0.224-1.219,0.224c-0.563,0-1.074-0.121-1.533-0.361c-0.46-0.241-0.807-0.589-1.041-1.045
						s-0.352-0.965-0.352-1.527c0-0.557,0.116-1.078,0.35-1.561c0.232-0.483,0.568-0.842,1.005-1.076
						c0.438-0.234,0.941-0.352,1.511-0.352c0.414,0,0.789,0.067,1.123,0.202c0.334,0.135,0.597,0.322,0.787,0.563
						c0.189,0.241,0.334,0.555,0.433,0.941l-0.704,0.188c-0.085-0.292-0.191-0.521-0.318-0.687c-0.127-0.167-0.308-0.3-0.543-0.4
						c-0.235-0.1-0.497-0.15-0.784-0.15c-0.345,0-0.642,0.053-0.894,0.159c-0.25,0.105-0.453,0.244-0.607,0.416
						s-0.273,0.361-0.358,0.567c-0.146,0.354-0.218,0.739-0.218,1.153c0,0.511,0.087,0.938,0.262,1.283
						c0.175,0.344,0.43,0.599,0.764,0.766c0.333,0.167,0.688,0.25,1.063,0.25c0.325,0,0.644-0.063,0.954-0.191
						c0.311-0.127,0.547-0.263,0.707-0.407V23.08H87.116z"/>
				</g>
				<g i:knockout="Off">
					<path i:knockout="Off" d="M95.682,25.33v-5.734h0.766v2.359h2.969v-2.359h0.766v5.734h-0.766v-2.703h-2.969v2.703H95.682z"/>
				</g>
				<g i:knockout="Off">
					<path i:knockout="Off" d="M107.682,25.33v-5.734h0.766v2.359h2.969v-2.359h0.766v5.734h-0.766v-2.703h-2.969v2.703H107.682z"/>
				</g>
				<g i:knockout="Off">
					<path i:knockout="Off" d="M119.349,25.33v-5.734h0.766v2.359h2.969v-2.359h0.766v5.734h-0.766v-2.703h-2.969v2.703H119.349z"/>
				</g>
				<g i:knockout="Off">
					<path i:knockout="Off" d="M130.349,25.33v-5.734h0.766v2.359h2.969v-2.359h0.766v5.734h-0.766v-2.703h-2.969v2.703H130.349z"/>
				</g>
				<path i:knockout="Off" fill="none" stroke="#000000" stroke-width="0.7" stroke-linecap="round" d="M139.632,29.141H13.548"/>
				<path i:knockout="Off" fill="none" stroke="#000000" stroke-width="0.7" stroke-linecap="round" d="M138.456,15.139H15.205"/>
			</g>
			<g>
				<path i:knockout="Off" fill="none" stroke="#000000" stroke-width="0.7" d="M139.394,46.634H13.31"/>
				<path i:knockout="Off" fill="none" stroke="#000000" stroke-width="0.7" d="M13.31,46.634v-0.016h126.084v0.016v9.422
					l-2.786,2.916l2.786,2.75v8.588v3.813H13.31V70.31v-8.504l2.723-2.834l-2.723-2.916V46.634z"/>
				<path i:knockout="Off" fill="#FFFFFF" stroke="#000000" stroke-width="0.7" d="M136.57,46.514v-3.401h2.835v3.401H136.57z"/>
				<path i:knockout="Off" fill="#FFFFFF" stroke="#000000" stroke-width="0.7" d="M13.32,46.514v-3.401h2.835v3.401H13.32z"/>
				<path i:knockout="Off" fill="none" stroke="#000000" stroke-width="0.7" d="M74.426,46.485v-3.402h5.669v3.402H74.426z"/>
			</g>
			<path i:knockout="Off" fill="none" stroke="#000000" stroke-width="0.7" d="M127.979,46.835v24.868"/>
			<path i:knockout="Off" fill="none" stroke="#000000" stroke-width="0.7" d="M116.625,46.835v24.868"/>
			<path i:knockout="Off" fill="none" stroke="#000000" stroke-width="0.7" d="M105.219,46.835v24.868"/>
			<path i:knockout="Off" fill="none" stroke="#000000" stroke-width="0.7" d="M93.919,46.835v24.868"/>
			<path i:knockout="Off" fill="none" stroke="#000000" stroke-width="0.7" d="M82.619,46.835v24.868"/>
			<path i:knockout="Off" fill="none" stroke="#000000" stroke-width="0.7" d="M71.318,46.835v24.868"/>
			<path i:knockout="Off" fill="none" stroke="#000000" stroke-width="0.7" d="M59.805,46.835v24.868"/>
			<path i:knockout="Off" fill="none" stroke="#000000" stroke-width="0.7" d="M48.558,46.835v24.868"/>
			<path i:knockout="Off" fill="none" stroke="#000000" stroke-width="0.7" d="M37.257,46.835v24.868"/>
			<path i:knockout="Off" fill="none" stroke="#000000" stroke-width="0.7" d="M25.957,46.835v24.868"/>
			<path i:knockout="Off" fill="none" stroke="#000000" stroke-width="0.7" d="M136.609,59.006H15.99"/>
			<path i:knockout="Off" fill="none" stroke="#000000" stroke-width="0.7" d="M137.871,57.667H14.799"/>
			<path i:knockout="Off" fill="none" stroke="#000000" stroke-width="0.7" d="M139.343,71.653H13.328"/>
			<path i:knockout="Off" fill="none" stroke="#000000" stroke-width="0.7" d="M139.343,70.182H13.328"/>
			<path i:knockout="Off" fill="none" stroke="#000000" stroke-width="1.2" d="M11.835,75.712h129.271V41.521H11.835V75.712z"/>
			<g>
				<g i:knockout="Off">
					<path i:knockout="Off" d="M5.875,74.798c-1.645-2.079-3.034-4.512-4.171-7.297C0.567,64.715,0,61.829,0,58.844
						c0-2.631,0.425-5.152,1.274-7.563c0.992-2.797,2.526-5.583,4.601-8.358H8c-1.332,2.3-2.213,3.941-2.643,4.926
						c-0.672,1.525-1.2,3.118-1.585,4.776c-0.474,2.067-0.71,4.146-0.71,6.235c0,5.318,1.646,10.63,4.938,15.938H5.875z"/>
				</g>
				<g i:knockout="Off">
					<path i:knockout="Off" d="M147.983,74.798h-2.125c3.291-5.308,4.938-10.619,4.938-15.938c0-2.078-0.238-4.141-0.711-6.186
						c-0.375-1.658-0.896-3.251-1.568-4.776c-0.43-0.995-1.316-2.653-2.658-4.976h2.125c2.074,2.775,3.607,5.562,4.6,8.358
						c0.85,2.41,1.275,4.932,1.275,7.563c0,2.985-0.572,5.871-1.713,8.657C151.002,70.286,149.616,72.719,147.983,74.798z"/>
				</g>
			</g>
			<path i:knockout="Off" d="M21.007,52.281c0,0.783-0.635,1.417-1.418,1.417c-0.781,0-1.416-0.634-1.416-1.417
				s0.635-1.417,1.416-1.417C20.373,50.864,21.007,51.498,21.007,52.281z"/>
			<path i:knockout="Off" d="M44.357,52.281c0,0.783-0.635,1.417-1.418,1.417c-0.781,0-1.416-0.634-1.416-1.417
				s0.635-1.417,1.416-1.417C43.722,50.864,44.357,51.498,44.357,52.281z"/>
			<path i:knockout="Off" d="M32.875,52.281c0,0.783-0.635,1.417-1.418,1.417c-0.781,0-1.416-0.634-1.416-1.417
				s0.635-1.417,1.416-1.417C32.241,50.864,32.875,51.498,32.875,52.281z"/>
			<path i:knockout="Off" fill="none" stroke="#000000" stroke-width="0.7" d="M31.417,52.317H19.589"/>
			<path i:knockout="Off" d="M55.324,52.281c0,0.783-0.635,1.417-1.418,1.417c-0.781,0-1.416-0.634-1.416-1.417
				s0.635-1.417,1.416-1.417C54.689,50.864,55.324,51.498,55.324,52.281z"/>
			<path i:knockout="Off" d="M78.222,52.281c0,0.783-0.635,1.417-1.418,1.417c-0.781,0-1.416-0.634-1.416-1.417
				s0.635-1.417,1.416-1.417C77.587,50.864,78.222,51.498,78.222,52.281z"/>
			<path i:knockout="Off" d="M66.87,52.281c0,0.783-0.635,1.417-1.418,1.417c-0.781,0-1.416-0.634-1.416-1.417
				s0.635-1.417,1.416-1.417C66.235,50.864,66.87,51.498,66.87,52.281z"/>
			<path i:knockout="Off" fill="none" stroke="#000000" stroke-width="0.7" d="M53.917,52.317H43.042"/>
			<path i:knockout="Off" d="M89.769,52.281c0,0.783-0.635,1.417-1.418,1.417c-0.781,0-1.416-0.634-1.416-1.417
				s0.635-1.417,1.416-1.417C89.134,50.864,89.769,51.498,89.769,52.281z"/>
			<path i:knockout="Off" d="M134.921,52.281c0,0.783-0.635,1.417-1.418,1.417c-0.781,0-1.416-0.634-1.416-1.417
				s0.635-1.417,1.416-1.417C134.287,50.864,134.921,51.498,134.921,52.281z"/>
			<path i:knockout="Off" d="M123.698,52.281c0,0.783-0.635,1.417-1.418,1.417c-0.781,0-1.416-0.634-1.416-1.417
				s0.635-1.417,1.416-1.417C123.063,50.864,123.698,51.498,123.698,52.281z"/>
			<path i:knockout="Off" d="M112.28,52.281c0,0.783-0.635,1.417-1.418,1.417c-0.781,0-1.416-0.634-1.416-1.417
				s0.635-1.417,1.416-1.417C111.645,50.864,112.28,51.498,112.28,52.281z"/>
			<path i:knockout="Off" d="M100.734,52.281c0,0.783-0.635,1.417-1.418,1.417c-0.781,0-1.416-0.634-1.416-1.417
				s0.635-1.417,1.416-1.417C100.099,50.864,100.734,51.498,100.734,52.281z"/>
			<path i:knockout="Off" fill="none" stroke="#000000" stroke-width="0.7" d="M88.542,52.317h-22.94"/>
			<path i:knockout="Off" fill="none" stroke="#000000" stroke-width="0.7" d="M111.042,52.317H98.976"/>
			<path i:knockout="Off" fill="none" stroke="#000000" stroke-width="0.7" d="M133.917,52.317h-12.065"/>
			<path i:knockout="Off" d="M89.769,64.73c0,0.783-0.635,1.417-1.418,1.417c-0.781,0-1.416-0.634-1.416-1.417
				s0.635-1.417,1.416-1.417C89.134,63.313,89.769,63.947,89.769,64.73z"/>
			<path i:knockout="Off" d="M78.351,64.73c0,0.783-0.635,1.417-1.418,1.417c-0.78,0-1.416-0.634-1.416-1.417
				s0.636-1.417,1.416-1.417C77.716,63.313,78.351,63.947,78.351,64.73z"/>
			<path i:knockout="Off" d="M67.064,64.73c0,0.783-0.635,1.417-1.418,1.417c-0.781,0-1.416-0.634-1.416-1.417
				s0.635-1.417,1.416-1.417C66.429,63.313,67.064,63.947,67.064,64.73z"/>
			<path i:knockout="Off" d="M134.921,64.73c0,0.783-0.635,1.417-1.418,1.417c-0.781,0-1.416-0.634-1.416-1.417
				s0.635-1.417,1.416-1.417C134.287,63.313,134.921,63.947,134.921,64.73z"/>
			<path i:knockout="Off" d="M123.698,64.73c0,0.783-0.635,1.417-1.418,1.417c-0.781,0-1.416-0.634-1.416-1.417
				s0.635-1.417,1.416-1.417C123.063,63.313,123.698,63.947,123.698,64.73z"/>
			<path i:knockout="Off" d="M112.28,64.73c0,0.783-0.635,1.417-1.418,1.417c-0.781,0-1.416-0.634-1.416-1.417
				s0.635-1.417,1.416-1.417C111.645,63.313,112.28,63.947,112.28,64.73z"/>
			<path i:knockout="Off" d="M100.734,64.73c0,0.783-0.635,1.417-1.418,1.417c-0.781,0-1.416-0.634-1.416-1.417
				s0.635-1.417,1.416-1.417C100.099,63.313,100.734,63.947,100.734,64.73z"/>
			<path i:knockout="Off" fill="none" stroke="#000000" stroke-width="0.7" d="M133.453,64.767H99.542"/>
			<path i:knockout="Off" fill="none" stroke="#000000" stroke-width="0.7" d="M88.578,64.767H65.792"/>
			<path i:knockout="Off" d="M55.389,64.73c0,0.783-0.635,1.417-1.418,1.417c-0.781,0-1.416-0.634-1.416-1.417
				s0.635-1.417,1.416-1.417C54.754,63.313,55.389,63.947,55.389,64.73z"/>
			<path i:knockout="Off" d="M44.477,64.73c0,0.783-0.635,1.417-1.418,1.417c-0.781,0-1.416-0.634-1.416-1.417
				s0.635-1.417,1.416-1.417C43.842,63.313,44.477,63.947,44.477,64.73z"/>
			<path i:knockout="Off" d="M32.916,64.73c0,0.783-0.635,1.417-1.418,1.417c-0.781,0-1.416-0.634-1.416-1.417
				s0.635-1.417,1.416-1.417C32.281,63.313,32.916,63.947,32.916,64.73z"/>
			<path i:knockout="Off" d="M20.941,64.73c0,0.783-0.635,1.417-1.418,1.417c-0.781,0-1.416-0.634-1.416-1.417
				s0.635-1.417,1.416-1.417C20.306,63.313,20.941,63.947,20.941,64.73z"/>
			<path i:knockout="Off" fill="none" stroke="#000000" stroke-width="0.7" d="M53.659,64.767H19.526"/>
		</g>
	</g>
</svg>
