<?xml version="1.0" encoding="utf-8"?>
<!-- Generator: Adobe Illustrator 10.0, SVG Export Plug-In . SVG Version: 3.0.0 Build 77)  -->
<!DOCTYPE svg PUBLIC "-//W3C//DTD SVG 1.0//EN"    "http://www.w3.org/TR/2001/REC-SVG-20010904/DTD/svg10.dtd" [
	<!ENTITY ns_flows "http://ns.adobe.com/Flows/1.0/">
	<!ENTITY ns_extend "http://ns.adobe.com/Extensibility/1.0/">
	<!ENTITY ns_ai "http://ns.adobe.com/AdobeIllustrator/10.0/">
	<!ENTITY ns_graphs "http://ns.adobe.com/Graphs/1.0/">
	<!ENTITY ns_vars "http://ns.adobe.com/Variables/1.0/">
	<!ENTITY ns_imrep "http://ns.adobe.com/ImageReplacement/1.0/">
	<!ENTITY ns_sfw "http://ns.adobe.com/SaveForWeb/1.0/">
	<!ENTITY ns_custom "http://ns.adobe.com/GenericCustomNamespace/1.0/">
	<!ENTITY ns_adobe_xpath "http://ns.adobe.com/XPath/1.0/">
	<!ENTITY ns_svg "http://www.w3.org/2000/svg">
	<!ENTITY ns_xlink "http://www.w3.org/1999/xlink">
]>
<svg xmlns:x="&ns_extend;" xmlns:i="&ns_ai;" xmlns:graph="&ns_graphs;" i:viewOrigin="261.6338 509.7979" i:rulerOrigin="-1 0.1104" i:pageBounds="1 841.8896 596 -0.1104" xmlns="&ns_svg;" xmlns:xlink="&ns_xlink;" xmlns:a="http://ns.adobe.com/AdobeSVGViewerExtensions/3.0/" width="62.841" height="103.068" viewBox="0 0 62.841 103.068" overflow="visible" enable-background="new 0 0 62.841 103.068" xml:space="preserve" id="svgObj" onload="parent.svgLoad('Top', document)">
	<metadata>
		<variableSets xmlns="&ns_vars;">
			<variableSet varSetName="binding1" locked="none">
				<variables></variables>
				<v:sampleDataSets xmlns="&ns_custom;" xmlns:v="&ns_vars;"></v:sampleDataSets>
			</variableSet>
		</variableSets>
		<sfw xmlns="&ns_sfw;">
			<slices></slices>
			<sliceSourceBounds y="388.708" x="257.815" width="80.371" height="125.725" bottomLeftOrigin="true"></sliceSourceBounds>
		</sfw>
	</metadata>
	<g id="connector" i:layer="yes" i:dimmedPercent="50" i:rgbTrio="#FFFF4F00FFFF">
		<g i:knockout="Off">
			<path i:knockout="Off" d="M3.578,66.94v-1.219h3.109v2.877c-0.303,0.293-0.741,0.551-1.314,0.773
				c-0.574,0.223-1.155,0.334-1.744,0.334c-0.748,0-1.399-0.158-1.956-0.474c-0.556-0.315-0.974-0.767-1.253-1.354
				S0,66.653,0,65.963c0-0.749,0.156-1.415,0.468-1.997c0.313-0.582,0.77-1.028,1.371-1.339c0.458-0.239,1.029-0.358,1.712-0.358
				c0.887,0,1.581,0.187,2.08,0.561s0.82,0.89,0.963,1.549l-1.438,0.266c-0.101-0.353-0.29-0.631-0.568-0.835
				c-0.278-0.204-0.625-0.306-1.041-0.306c-0.631,0-1.132,0.202-1.504,0.605c-0.373,0.403-0.559,1.002-0.559,1.795
				c0,0.856,0.189,1.499,0.567,1.927c0.378,0.428,0.873,0.642,1.486,0.642c0.303,0,0.606-0.06,0.911-0.18
				c0.305-0.12,0.566-0.265,0.785-0.436V66.94H3.578z"/>
			<path i:knockout="Off" d="M7.669,67.68l1.328-0.161c0.042,0.339,0.156,0.599,0.341,0.778s0.409,0.269,0.672,0.269
				c0.282,0,0.52-0.108,0.713-0.326c0.193-0.218,0.29-0.511,0.29-0.88c0-0.349-0.092-0.626-0.277-0.831s-0.41-0.307-0.675-0.307
				c-0.175,0-0.384,0.034-0.626,0.103l0.151-1.103c0.372,0.01,0.656-0.071,0.852-0.242c0.196-0.172,0.294-0.399,0.294-0.684
				c0-0.241-0.072-0.434-0.215-0.577s-0.333-0.216-0.57-0.216c-0.234,0-0.435,0.081-0.6,0.243c-0.166,0.162-0.267,0.399-0.302,0.71
				l-1.266-0.214c0.088-0.435,0.22-0.783,0.397-1.043c0.177-0.26,0.424-0.465,0.742-0.613c0.317-0.149,0.673-0.224,1.066-0.224
				c0.673,0,1.213,0.216,1.62,0.646c0.335,0.353,0.503,0.751,0.503,1.195c0,0.63-0.343,1.133-1.029,1.508
				c0.407,0.089,0.732,0.287,0.976,0.595s0.366,0.68,0.366,1.115c0,0.632-0.229,1.171-0.688,1.616s-1.029,0.668-1.711,0.668
				c-0.647,0-1.184-0.187-1.609-0.561C7.984,68.772,7.737,68.283,7.669,67.68z"/>
			<path i:knockout="Off" d="M15.965,69.565v-1.438h-2.922V66.93l3.098-4.552h1.152v4.547h0.891v1.203h-0.891v1.438H15.965z
				 M15.965,66.925v-2.433l-1.637,2.433H15.965z"/>
			<path i:knockout="Off" d="M21.152,62.362c0.694,0,1.237,0.249,1.628,0.746c0.466,0.589,0.7,1.565,0.7,2.929
				c0,1.361-0.235,2.338-0.705,2.934c-0.388,0.491-0.929,0.736-1.624,0.736c-0.698,0-1.26-0.269-1.688-0.807
				s-0.641-1.497-0.641-2.877c0-1.354,0.234-2.329,0.704-2.924C19.917,62.607,20.458,62.362,21.152,62.362z M21.152,63.503
				c-0.164,0-0.31,0.053-0.438,0.16c-0.128,0.106-0.228,0.297-0.298,0.572c-0.093,0.357-0.139,0.958-0.139,1.802
				c0,0.845,0.042,1.425,0.125,1.741c0.083,0.316,0.188,0.526,0.315,0.631c0.126,0.105,0.271,0.157,0.435,0.157
				c0.163,0,0.309-0.053,0.438-0.159c0.128-0.106,0.228-0.297,0.298-0.572c0.093-0.354,0.14-0.953,0.14-1.797
				c0-0.844-0.042-1.425-0.125-1.741c-0.083-0.316-0.188-0.527-0.315-0.633C21.46,63.556,21.315,63.503,21.152,63.503z"/>
		</g>
		<g i:knockout="Off">
			<path i:knockout="Off" d="M0.25,7.203V0.047h1.453v3.176l2.911-3.176h1.941L3.864,2.817l2.832,4.386H4.83L2.866,3.845
				L1.704,5.042v2.162H0.25z"/>
			<path i:knockout="Off" d="M10.676,7.203H9.301V2.019c-0.5,0.471-1.088,0.818-1.766,1.044v-1.25
				c0.357-0.117,0.746-0.339,1.166-0.667C9.12,0.818,9.408,0.437,9.564,0h1.112V7.203z"/>
			<path i:knockout="Off" d="M12.737,5.391l1.375-0.141c0.039,0.308,0.155,0.551,0.349,0.73c0.193,0.18,0.416,0.27,0.667,0.27
				c0.288,0,0.532-0.118,0.731-0.353s0.299-0.59,0.299-1.064c0-0.444-0.101-0.777-0.303-1C15.655,3.611,15.392,3.5,15.068,3.5
				c-0.404,0-0.766,0.172-1.086,0.516l-1.104-0.159l0.703-3.716h3.672v1.281h-2.631l-0.228,1.206
				c0.311-0.147,0.629-0.221,0.953-0.221c0.619,0,1.143,0.223,1.573,0.667s0.645,1.023,0.645,1.733c0,0.592-0.171,1.12-0.514,1.585
				c-0.467,0.635-1.115,0.952-1.944,0.952c-0.663,0-1.203-0.177-1.621-0.529C13.068,6.461,12.819,5.987,12.737,5.391z"/>
			<path i:knockout="Off" d="M22.924,1.792l-1.328,0.146c-0.032-0.272-0.118-0.473-0.256-0.603
				c-0.138-0.129-0.316-0.194-0.536-0.194c-0.292,0-0.539,0.131-0.74,0.394c-0.202,0.263-0.329,0.807-0.381,1.634
				c0.344-0.403,0.771-0.605,1.283-0.605c0.576,0,1.07,0.219,1.482,0.656c0.411,0.437,0.617,1.001,0.617,1.693
				c0,0.734-0.215,1.323-0.646,1.767s-0.985,0.666-1.661,0.666c-0.725,0-1.321-0.282-1.788-0.846
				c-0.468-0.564-0.701-1.489-0.701-2.774c0-1.318,0.243-2.269,0.729-2.851S20.113,0,20.89,0c0.544,0,0.995,0.153,1.352,0.459
				C22.599,0.765,22.826,1.209,22.924,1.792z M19.799,4.805c0,0.447,0.104,0.792,0.312,1.034c0.208,0.243,0.444,0.364,0.711,0.364
				c0.257,0,0.471-0.1,0.642-0.298c0.171-0.199,0.257-0.525,0.257-0.978c0-0.466-0.092-0.807-0.276-1.024s-0.415-0.325-0.691-0.325
				c-0.268,0-0.493,0.104-0.677,0.311C19.891,4.096,19.799,4.401,19.799,4.805z"/>
		</g>
	</g>
	<g id="レイヤー_1" i:layer="yes" i:dimmedPercent="100" i:rgbTrio="#4F008000FFFF">
		<path i:knockout="Off" fill="none" stroke="#000000" stroke-width="1.2" d="M14.887,84.267v-3.5h-2.625v3.5"/>
		<path i:knockout="Off" fill="none" stroke="#000000" stroke-width="1.2" d="M62.241,84.267v-3.5h-2.625v3.5"/>
		<path i:knockout="Off" fill="none" stroke="#000000" stroke-width="0.7" d="M14.496,97.855h45.472V86.51H14.496V97.855z"/>
		<path i:knockout="Off" fill="none" stroke="#000000" stroke-width="1.2" d="M12.222,99.777h50.019V84.549H12.222V99.777z"/>
		<path i:knockout="Off" fill="none" stroke="#000000" stroke-width="0.7" d="M25.902,86.51v11.346 M37.277,86.51v11.346
			 M48.622,86.51v11.346"/>
		<g i:knockout="Off">
			<path i:knockout="Off" d="M55.085,94.174h-0.703v-4.48c-0.17,0.162-0.392,0.323-0.666,0.484c-0.275,0.162-0.521,0.283-0.74,0.363
				v-0.68c0.393-0.185,0.736-0.409,1.031-0.672c0.294-0.263,0.502-0.518,0.625-0.766h0.453V94.174z"/>
		</g>
		<g i:knockout="Off">
			<path i:knockout="Off" d="M44.719,93.502v0.672h-3.797c-0.005-0.169,0.022-0.332,0.083-0.488c0.097-0.258,0.252-0.511,0.467-0.76
				c0.214-0.248,0.521-0.537,0.92-0.864c0.62-0.517,1.04-0.923,1.262-1.221c0.221-0.298,0.331-0.58,0.331-0.849
				c0-0.278-0.1-0.513-0.3-0.704c-0.199-0.191-0.459-0.287-0.78-0.287c-0.339,0-0.61,0.104-0.813,0.311
				c-0.204,0.208-0.307,0.494-0.31,0.861l-0.719-0.094c0.05-0.539,0.235-0.95,0.558-1.232c0.322-0.282,0.756-0.424,1.3-0.424
				c0.549,0,0.983,0.152,1.304,0.457c0.319,0.305,0.479,0.683,0.479,1.133c0,0.229-0.047,0.455-0.14,0.677
				c-0.094,0.222-0.248,0.454-0.465,0.699c-0.216,0.245-0.576,0.581-1.08,1.009c-0.424,0.355-0.695,0.596-0.815,0.723
				c-0.12,0.126-0.219,0.253-0.297,0.381H44.719z"/>
		</g>
		<g i:knockout="Off">
			<path i:knockout="Off" d="M20.431,94.174v-1.375h-2.484v-0.641l2.625-3.719h0.563v3.719h0.781v0.641h-0.781v1.375H20.431z
				 M20.431,92.158v-2.566l-1.792,2.566H20.431z"/>
			<path i:knockout="Off" d="M29.574,92.674l0.719-0.094c0.08,0.393,0.215,0.676,0.405,0.85c0.19,0.173,0.425,0.26,0.707,0.26
				c0.333,0,0.611-0.115,0.834-0.344c0.223-0.23,0.335-0.515,0.335-0.854c0-0.323-0.104-0.59-0.313-0.801
				c-0.209-0.209-0.475-0.314-0.798-0.314c-0.132,0-0.296,0.026-0.492,0.078l0.078-0.625c0.046,0.006,0.083,0.008,0.112,0.008
				c0.294,0,0.56-0.077,0.795-0.232c0.236-0.154,0.354-0.394,0.354-0.717c0-0.255-0.086-0.467-0.259-0.635s-0.396-0.252-0.669-0.252
				c-0.271,0-0.496,0.086-0.677,0.258s-0.296,0.43-0.348,0.773l-0.719-0.125c0.086-0.471,0.281-0.836,0.584-1.096
				c0.304-0.259,0.682-0.389,1.134-0.389c0.312,0,0.599,0.067,0.861,0.2c0.262,0.134,0.463,0.315,0.602,0.546
				c0.139,0.231,0.208,0.476,0.208,0.735c0,0.246-0.066,0.47-0.199,0.673c-0.133,0.201-0.33,0.362-0.59,0.481
				c0.338,0.078,0.604,0.241,0.797,0.487s0.289,0.555,0.289,0.925c0,0.501-0.182,0.926-0.547,1.273
				c-0.365,0.349-0.826,0.522-1.383,0.522c-0.502,0-0.92-0.147-1.252-0.443S29.621,93.145,29.574,92.674z"/>
		</g>
		<g>
			<path i:knockout="Off" fill="none" stroke="#000000" stroke-width="1.2" d="M44.003,84.517v-4.691H29.667v4.691"/>
		</g>
		<g>
			<path i:knockout="Off" fill="none" stroke="#000000" stroke-width="1.2" d="M25.667,99.777v2.691h23.336v-2.691"/>
		</g>
		<path i:knockout="Off" fill="none" stroke="#000000" stroke-width="0.7" d="M14.569,96.008h44.966"/>
		<path i:knockout="Off" fill="none" stroke="#000000" stroke-width="1.2" d="M12.222,84.549h-3.5v2.625h3.5"/>
		<path i:knockout="Off" fill="none" stroke="#000000" stroke-width="1.2" stroke-linecap="round" d="M58.942,34.303V20.529H13.588
			v13.773H58.942z"/>
		<path i:knockout="Off" fill="none" stroke="#000000" stroke-width="1.2" stroke-linecap="round" d="M58.942,20.53v-2.834H56.8
			v2.834H58.942z"/>
		<path i:knockout="Off" fill="none" stroke="#000000" stroke-width="0.7" stroke-linecap="round" d="M24.928,31.868V20.529h-11.34
			v11.339H24.928z"/>
		<path i:knockout="Off" fill="none" stroke="#000000" stroke-width="0.7" stroke-linecap="round" d="M36.267,31.868V20.529H24.928
			v11.339H36.267z"/>
		<g i:knockout="Off">
			<path i:knockout="Off" d="M20.104,28.698h-0.703v-4.48c-0.169,0.162-0.391,0.323-0.666,0.484
				c-0.275,0.162-0.521,0.283-0.74,0.363v-0.68c0.393-0.185,0.737-0.409,1.031-0.672c0.294-0.263,0.502-0.518,0.625-0.766h0.453
				V28.698z"/>
		</g>
		<g i:knockout="Off">
			<path i:knockout="Off" d="M32.309,28.026v0.672h-3.797c-0.005-0.169,0.022-0.332,0.083-0.488c0.097-0.258,0.252-0.511,0.467-0.76
				c0.214-0.249,0.521-0.537,0.92-0.864c0.62-0.516,1.04-0.923,1.261-1.221s0.332-0.58,0.332-0.849c0-0.278-0.1-0.513-0.299-0.704
				s-0.46-0.287-0.781-0.287c-0.339,0-0.61,0.104-0.814,0.311s-0.307,0.494-0.309,0.861l-0.719-0.094
				c0.049-0.539,0.235-0.95,0.558-1.232c0.323-0.282,0.756-0.424,1.3-0.424c0.549,0,0.983,0.152,1.303,0.457s0.48,0.683,0.48,1.133
				c0,0.229-0.047,0.455-0.14,0.676c-0.094,0.221-0.248,0.454-0.465,0.699c-0.216,0.245-0.576,0.581-1.081,1.009
				c-0.423,0.355-0.695,0.596-0.815,0.722c-0.12,0.126-0.219,0.253-0.297,0.381H32.309z"/>
		</g>
		<path i:knockout="Off" fill="none" stroke="#000000" stroke-width="0.7" stroke-linecap="round" d="M24.928,31.868v2.435"/>
		<path i:knockout="Off" fill="none" stroke="#000000" stroke-width="0.7" stroke-linecap="round" d="M47.604,31.868V20.53H36.267
			v11.338H47.604z"/>
		<g i:knockout="Off">
			<path i:knockout="Off" d="M39.967,27.198l0.719-0.094c0.08,0.393,0.215,0.676,0.405,0.85c0.189,0.173,0.425,0.26,0.706,0.26
				c0.333,0,0.611-0.115,0.835-0.344c0.223-0.229,0.335-0.514,0.335-0.853c0-0.323-0.104-0.59-0.313-0.8s-0.476-0.315-0.798-0.315
				c-0.132,0-0.296,0.026-0.492,0.078l0.077-0.625c0.047,0.005,0.084,0.008,0.112,0.008c0.294,0,0.56-0.077,0.795-0.232
				c0.235-0.155,0.354-0.394,0.354-0.717c0-0.255-0.087-0.467-0.259-0.635c-0.174-0.168-0.396-0.252-0.67-0.252
				c-0.271,0-0.496,0.086-0.676,0.258c-0.182,0.172-0.297,0.43-0.349,0.773l-0.719-0.125c0.086-0.471,0.28-0.836,0.585-1.096
				c0.304-0.259,0.682-0.389,1.134-0.389c0.312,0,0.599,0.067,0.861,0.2c0.263,0.134,0.463,0.315,0.603,0.546
				c0.139,0.231,0.208,0.476,0.208,0.735c0,0.246-0.066,0.47-0.199,0.672s-0.329,0.363-0.59,0.482
				c0.339,0.078,0.604,0.241,0.797,0.487c0.192,0.246,0.289,0.555,0.289,0.925c0,0.501-0.183,0.926-0.547,1.273
				c-0.364,0.349-0.825,0.522-1.383,0.522c-0.503,0-0.92-0.147-1.252-0.443S40.014,27.669,39.967,27.198z"/>
		</g>
		<path i:knockout="Off" fill="none" stroke="#000000" stroke-width="0.7" stroke-linecap="round" d="M58.942,31.868V20.53H47.604
			v11.338H58.942z"/>
		<g i:knockout="Off">
			<path i:knockout="Off" d="M53.539,28.698v-1.375h-2.484v-0.641l2.625-3.719h0.563v3.719h0.781v0.641h-0.781v1.375H53.539z
				 M53.539,26.683v-2.566l-1.792,2.566H53.539z"/>
		</g>
		<path i:knockout="Off" fill="none" stroke="#000000" stroke-width="0.7" stroke-linecap="round" d="M13.588,31.868v2.435"/>
		<path i:knockout="Off" fill="none" stroke="#000000" stroke-width="0.7" stroke-linecap="round" d="M36.267,31.868v2.435"/>
		<path i:knockout="Off" fill="none" stroke="#000000" stroke-width="0.7" stroke-linecap="round" d="M47.604,31.868v2.435"/>
		<path i:knockout="Off" fill="none" stroke="#000000" stroke-width="1.2" stroke-linecap="round" d="M15.731,20.529v-2.834h-2.143
			v2.834H15.731z"/>
		<path i:knockout="Off" fill="none" stroke="#000000" stroke-width="1.2" stroke-linecap="round" d="M61.777,20.53h-2.835v2.143
			h2.835V20.53z"/>
		<path i:knockout="Off" fill="none" stroke="#000000" stroke-width="1.2" stroke-linecap="round" d="M44.619,20.529v-4.834H27.928
			v4.834H44.619z"/>
	</g>
</svg>
