<?xml version="1.0" encoding="utf-8"?>
<!-- Generator: Adobe Illustrator 10.0, SVG Export Plug-In . SVG Version: 3.0.0 Build 77)  -->
<!DOCTYPE svg PUBLIC "-//W3C//DTD SVG 1.0//EN"    "http://www.w3.org/TR/2001/REC-SVG-20010904/DTD/svg10.dtd" [
	<!ENTITY ns_flows "http://ns.adobe.com/Flows/1.0/">
	<!ENTITY ns_extend "http://ns.adobe.com/Extensibility/1.0/">
	<!ENTITY ns_ai "http://ns.adobe.com/AdobeIllustrator/10.0/">
	<!ENTITY ns_graphs "http://ns.adobe.com/Graphs/1.0/">
	<!ENTITY ns_vars "http://ns.adobe.com/Variables/1.0/">
	<!ENTITY ns_imrep "http://ns.adobe.com/ImageReplacement/1.0/">
	<!ENTITY ns_sfw "http://ns.adobe.com/SaveForWeb/1.0/">
	<!ENTITY ns_custom "http://ns.adobe.com/GenericCustomNamespace/1.0/">
	<!ENTITY ns_adobe_xpath "http://ns.adobe.com/XPath/1.0/">
	<!ENTITY ns_svg "http://www.w3.org/2000/svg">
	<!ENTITY ns_xlink "http://www.w3.org/1999/xlink">
]>
<svg xmlns:x="&ns_extend;" xmlns:i="&ns_ai;" xmlns:graph="&ns_graphs;" i:viewOrigin="266.1938 484.8481" i:rulerOrigin="0 0" i:pageBounds="0 841.8896 595.2754 0" xmlns="&ns_svg;" xmlns:xlink="&ns_xlink;" xmlns:a="http://ns.adobe.com/AdobeSVGViewerExtensions/3.0/" width="52.324" height="99.988" viewBox="0 0 52.324 99.988" overflow="visible" enable-background="new 0 0 52.324 99.988" xml:space="preserve" id="svgObj" onload="parent.svgLoad('Top', document)">
	<metadata>
		<variableSets xmlns="&ns_vars;">
			<variableSet varSetName="binding1" locked="none">
				<variables></variables>
				<v:sampleDataSets xmlns="&ns_custom;" xmlns:v="&ns_vars;"></v:sampleDataSets>
			</variableSet>
		</variableSets>
		<sfw xmlns="&ns_sfw;">
			<slices></slices>
			<sliceSourceBounds y="363.665" x="262.5" width="80.371" height="125.725" bottomLeftOrigin="true"></sliceSourceBounds>
		</sfw>
	</metadata>
	<g id="connector" i:layer="yes" i:dimmedPercent="50" i:rgbTrio="#FFFF4F00FFFF">
		<g i:knockout="Off">
			<path i:knockout="Off" d="M0,67.331l1.406-0.141c0.084,0.474,0.255,0.82,0.512,1.042c0.258,0.223,0.605,0.333,1.042,0.333
				c0.463,0,0.812-0.099,1.047-0.296c0.234-0.197,0.352-0.429,0.352-0.693c0-0.169-0.049-0.313-0.148-0.433S3.94,66.92,3.694,66.832
				c-0.168-0.059-0.552-0.163-1.15-0.313c-0.771-0.192-1.312-0.429-1.622-0.71c-0.438-0.395-0.656-0.876-0.656-1.444
				c0-0.365,0.103-0.707,0.309-1.025s0.503-0.561,0.892-0.727c0.388-0.167,0.856-0.25,1.405-0.25c0.896,0,1.571,0.199,2.024,0.596
				c0.453,0.397,0.69,0.928,0.713,1.591l-1.453,0.047c-0.062-0.366-0.194-0.63-0.396-0.79c-0.202-0.161-0.506-0.241-0.91-0.241
				c-0.418,0-0.745,0.086-0.981,0.258c-0.152,0.111-0.228,0.258-0.228,0.444c0,0.169,0.071,0.313,0.214,0.434
				c0.182,0.153,0.624,0.313,1.326,0.479c0.702,0.167,1.221,0.34,1.557,0.518c0.336,0.179,0.6,0.423,0.79,0.732
				c0.19,0.309,0.285,0.691,0.285,1.146c0,0.412-0.114,0.799-0.341,1.158c-0.228,0.36-0.55,0.628-0.966,0.803
				s-0.935,0.263-1.555,0.263c-0.904,0-1.598-0.21-2.083-0.631C0.383,68.749,0.094,68.135,0,67.331z"/>
			<path i:knockout="Off" d="M10.249,69.659H8.874v-5.185c-0.5,0.471-1.088,0.818-1.766,1.044v-1.25
				c0.357-0.117,0.746-0.339,1.166-0.667c0.419-0.327,0.707-0.709,0.863-1.146h1.112V69.659z"/>
			<path i:knockout="Off" d="M12.279,63.877v-1.281h4.688v1c-0.387,0.381-0.781,0.928-1.181,1.64
				c-0.4,0.713-0.706,1.471-0.916,2.272c-0.21,0.803-0.313,1.519-0.31,2.15h-1.328c0.022-0.989,0.228-1.997,0.614-3.024
				c0.386-1.028,0.902-1.947,1.549-2.757H12.279z"/>
			<path i:knockout="Off" d="M22.497,68.377v1.281h-4.813c0.052-0.482,0.208-0.94,0.469-1.372c0.261-0.433,0.776-1.006,1.545-1.721
				c0.619-0.577,0.999-0.969,1.139-1.174c0.189-0.284,0.284-0.564,0.284-0.842c0-0.307-0.083-0.542-0.249-0.707
				c-0.166-0.165-0.395-0.247-0.687-0.247c-0.289,0-0.519,0.087-0.69,0.261c-0.171,0.173-0.27,0.461-0.296,0.864l-1.375-0.138
				c0.082-0.758,0.339-1.303,0.771-1.633s0.972-0.495,1.62-0.495c0.71,0,1.268,0.191,1.673,0.572s0.608,0.855,0.608,1.423
				c0,0.323-0.058,0.63-0.173,0.922s-0.299,0.598-0.55,0.917c-0.167,0.212-0.467,0.517-0.903,0.914s-0.712,0.662-0.828,0.792
				c-0.116,0.131-0.209,0.258-0.281,0.382H22.497z"/>
		</g>
		<g i:knockout="Off">
			<path i:knockout="Off" d="M3.703,4.672V3.453h3.109V6.33C6.51,6.623,6.072,6.88,5.498,7.103C4.924,7.326,4.342,7.438,3.754,7.438
				c-0.748,0-1.4-0.158-1.956-0.473C1.242,6.649,0.824,6.197,0.544,5.61c-0.28-0.587-0.419-1.226-0.419-1.916
				c0-0.749,0.156-1.415,0.468-1.997c0.312-0.582,0.769-1.029,1.37-1.34C2.422,0.12,2.993,0,3.675,0c0.888,0,1.581,0.187,2.08,0.561
				s0.82,0.89,0.963,1.549L5.281,2.375C5.18,2.022,4.991,1.745,4.713,1.541C4.435,1.336,4.088,1.234,3.672,1.234
				c-0.631,0-1.133,0.202-1.505,0.605S1.609,2.841,1.609,3.635c0,0.856,0.189,1.498,0.567,1.926C2.554,5.989,3.05,6.203,3.663,6.203
				c0.303,0,0.607-0.06,0.912-0.18s0.566-0.265,0.785-0.436V4.672H3.703z"/>
			<path i:knockout="Off" d="M7.794,5.412L9.123,5.25c0.042,0.339,0.156,0.599,0.341,0.778c0.185,0.18,0.409,0.269,0.672,0.269
				c0.282,0,0.52-0.109,0.713-0.326c0.193-0.217,0.29-0.511,0.29-0.88c0-0.35-0.092-0.626-0.277-0.831s-0.41-0.307-0.675-0.307
				c-0.175,0-0.384,0.034-0.626,0.103l0.151-1.103c0.372,0.01,0.656-0.071,0.852-0.243c0.196-0.171,0.294-0.398,0.294-0.683
				c0-0.242-0.072-0.435-0.215-0.578s-0.333-0.215-0.57-0.215c-0.234,0-0.435,0.081-0.6,0.243C9.306,1.64,9.205,1.876,9.169,2.188
				L7.904,1.974c0.088-0.435,0.22-0.783,0.397-1.043s0.424-0.464,0.742-0.614c0.317-0.148,0.673-0.223,1.066-0.223
				c0.673,0,1.213,0.215,1.62,0.646c0.335,0.353,0.503,0.751,0.503,1.195c0,0.63-0.343,1.133-1.029,1.509
				c0.407,0.088,0.732,0.286,0.976,0.594s0.366,0.679,0.366,1.115c0,0.633-0.229,1.171-0.688,1.617s-1.029,0.668-1.711,0.668
				c-0.647,0-1.184-0.187-1.609-0.56C8.109,6.503,7.862,6.015,7.794,5.412z"/>
			<path i:knockout="Off" d="M16.09,7.297V5.859h-2.922V4.661l3.098-4.552h1.152v4.547h0.891v1.203h-0.891v1.438H16.09z
				 M16.09,4.656V2.223l-1.637,2.433H16.09z"/>
			<path i:knockout="Off" d="M18.949,1.516V0.234h4.688v1c-0.387,0.381-0.781,0.927-1.181,1.64c-0.4,0.713-0.706,1.47-0.916,2.272
				c-0.21,0.802-0.313,1.519-0.31,2.15h-1.328c0.022-0.989,0.227-1.997,0.614-3.025c0.387-1.027,0.903-1.946,1.549-2.756H18.949z"/>
		</g>
	</g>
	<g id="レイヤー_1" i:layer="yes" i:dimmedPercent="100" i:rgbTrio="#4F008000FFFF">
		<path i:knockout="Off" fill="none" stroke="#000000" stroke-width="1.2" stroke-linecap="round" d="M37.996,21.297v-2.823h-5.671
			v2.823"/>
		<g i:knockout="Off">
			<path i:knockout="Off" d="M28.771,30.203h-0.703v-4.48c-0.169,0.162-0.391,0.323-0.666,0.484s-0.521,0.283-0.74,0.363v-0.68
				c0.393-0.185,0.737-0.409,1.031-0.672s0.502-0.518,0.625-0.766h0.453V30.203z"/>
		</g>
		<path i:knockout="Off" fill="none" stroke="#000000" stroke-width="1.2" stroke-linecap="round" d="M34.011,33.793V21.422H22.449
			v12.371H34.011z"/>
		<path i:knockout="Off" fill="none" stroke="#000000" stroke-width="0.7" stroke-linecap="square" d="M22.614,32.146h11.022"/>
		<g i:knockout="Off">
			<path i:knockout="Off" d="M43.852,29.49v0.672h-3.797c-0.005-0.169,0.022-0.332,0.083-0.488c0.097-0.258,0.252-0.511,0.467-0.76
				c0.214-0.249,0.521-0.537,0.92-0.864c0.62-0.516,1.04-0.923,1.262-1.221c0.221-0.297,0.331-0.581,0.331-0.848
				c0-0.278-0.1-0.513-0.3-0.704c-0.199-0.191-0.459-0.287-0.78-0.287c-0.339,0-0.61,0.104-0.813,0.311
				c-0.204,0.207-0.307,0.494-0.31,0.861l-0.719-0.094c0.05-0.539,0.235-0.95,0.558-1.232s0.756-0.424,1.3-0.424
				c0.549,0,0.983,0.153,1.304,0.458c0.319,0.305,0.479,0.682,0.479,1.133c0,0.229-0.047,0.455-0.14,0.676
				c-0.094,0.222-0.248,0.455-0.465,0.7c-0.216,0.245-0.576,0.581-1.08,1.009c-0.424,0.355-0.695,0.596-0.815,0.722
				s-0.219,0.254-0.297,0.381H43.852z"/>
		</g>
		<path i:knockout="Off" fill="none" stroke="#000000" stroke-width="1.2" stroke-linecap="round" d="M48.054,33.752V21.381H36.492
			v12.371H48.054z"/>
		<path i:knockout="Off" fill="none" stroke="#000000" stroke-width="0.7" stroke-linecap="square" d="M36.788,32.105h11.021"/>
		<g>
			<g>
				<path i:knockout="Off" fill="none" stroke="#000000" stroke-width="1.2" d="M39.933,81.037v-3.414h-6.828v3.414"/>
				<path i:knockout="Off" fill="none" stroke="#000000" stroke-width="0.7" d="M23.372,96.717V83.537h12.364v13.181H23.372z"/>
				<path i:knockout="Off" fill="none" stroke="#000000" stroke-width="1.2" d="M51.724,99.388V81.037H21.165v18.352H51.724z"/>
				<g i:knockout="Off">
					<path i:knockout="Off" d="M31.697,91.587v0.672H27.9c-0.005-0.169,0.022-0.332,0.083-0.488c0.097-0.258,0.252-0.511,0.467-0.76
						c0.214-0.248,0.521-0.537,0.92-0.864c0.62-0.517,1.04-0.923,1.261-1.221s0.332-0.58,0.332-0.849c0-0.277-0.1-0.513-0.299-0.703
						c-0.2-0.191-0.46-0.287-0.781-0.287c-0.339,0-0.61,0.104-0.814,0.311c-0.204,0.208-0.307,0.494-0.309,0.861l-0.719-0.094
						c0.049-0.539,0.235-0.949,0.558-1.232c0.323-0.282,0.756-0.424,1.3-0.424c0.549,0,0.983,0.152,1.303,0.457
						s0.48,0.683,0.48,1.133c0,0.229-0.047,0.455-0.14,0.677c-0.094,0.222-0.248,0.454-0.465,0.699
						c-0.216,0.245-0.576,0.581-1.081,1.009c-0.423,0.355-0.695,0.596-0.815,0.723c-0.12,0.126-0.219,0.253-0.297,0.381H31.697z"/>
				</g>
				<path i:knockout="Off" fill="none" stroke="#000000" stroke-width="0.7" d="M23.303,95.115h12.378"/>
				<path i:knockout="Off" fill="none" stroke="#000000" stroke-width="0.7" d="M37.292,96.717V83.537h12.363v13.181H37.292z"/>
				<g i:knockout="Off">
					<path i:knockout="Off" d="M44.577,92.259h-0.703v-4.48c-0.169,0.162-0.392,0.323-0.666,0.484
						c-0.274,0.162-0.521,0.283-0.74,0.363v-0.68c0.394-0.185,0.737-0.408,1.031-0.672c0.294-0.263,0.503-0.518,0.625-0.766h0.453
						V92.259z"/>
				</g>
				<path i:knockout="Off" fill="none" stroke="#000000" stroke-width="0.7" d="M37.222,95.115h12.379"/>
			</g>
		</g>
	</g>
</svg>
