<?xml version="1.0" encoding="utf-8"?>
<!-- Generator: Adobe Illustrator 10.0, SVG Export Plug-In . SVG Version: 3.0.0 Build 77)  -->
<!DOCTYPE svg PUBLIC "-//W3C//DTD SVG 1.0//EN"    "http://www.w3.org/TR/2001/REC-SVG-20010904/DTD/svg10.dtd" [
	<!ENTITY ns_flows "http://ns.adobe.com/Flows/1.0/">
	<!ENTITY ns_extend "http://ns.adobe.com/Extensibility/1.0/">
	<!ENTITY ns_ai "http://ns.adobe.com/AdobeIllustrator/10.0/">
	<!ENTITY ns_graphs "http://ns.adobe.com/Graphs/1.0/">
	<!ENTITY ns_vars "http://ns.adobe.com/Variables/1.0/">
	<!ENTITY ns_imrep "http://ns.adobe.com/ImageReplacement/1.0/">
	<!ENTITY ns_sfw "http://ns.adobe.com/SaveForWeb/1.0/">
	<!ENTITY ns_custom "http://ns.adobe.com/GenericCustomNamespace/1.0/">
	<!ENTITY ns_adobe_xpath "http://ns.adobe.com/XPath/1.0/">
	<!ENTITY ns_svg "http://www.w3.org/2000/svg">
	<!ENTITY ns_xlink "http://www.w3.org/1999/xlink">
]>
<svg xmlns:x="&ns_extend;" xmlns:i="&ns_ai;" xmlns:graph="&ns_graphs;" i:viewOrigin="261.6333 509.8921" i:rulerOrigin="-1 0.1104" i:pageBounds="1 841.8896 596 -0.1104" xmlns="&ns_svg;" xmlns:xlink="&ns_xlink;" xmlns:a="http://ns.adobe.com/AdobeSVGViewerExtensions/3.0/" width="50.542" height="98.567" viewBox="0 0 50.542 98.567" overflow="visible" enable-background="new 0 0 50.542 98.567" xml:space="preserve" id="svgObj" onload="parent.svgLoad('Top', document)">
	<metadata>
		<variableSets xmlns="&ns_vars;">
			<variableSet varSetName="binding1" locked="none">
				<variables></variables>
				<v:sampleDataSets xmlns="&ns_custom;" xmlns:v="&ns_vars;"></v:sampleDataSets>
			</variableSet>
		</variableSets>
		<sfw xmlns="&ns_sfw;">
			<slices></slices>
			<sliceSourceBounds y="388.708" x="257.814" width="80.371" height="125.726" bottomLeftOrigin="true"></sliceSourceBounds>
		</sfw>
	</metadata>
	<g id="connector" i:layer="yes" i:dimmedPercent="50" i:rgbTrio="#FFFF4F00FFFF">
		<g i:knockout="Off">
			<path i:knockout="Off" d="M0.25,69.66v-7.156h1.453v3.176l2.91-3.176h1.941l-2.691,2.771l2.832,4.386H4.83l-1.964-3.358
				l-1.162,1.197v2.162H0.25z"/>
			<path i:knockout="Off" d="M10.676,69.66H9.301v-5.185c-0.5,0.471-1.088,0.818-1.766,1.044v-1.25
				c0.357-0.117,0.746-0.339,1.166-0.667c0.419-0.327,0.707-0.709,0.863-1.146h1.112V69.66z"/>
			<path i:knockout="Off" d="M12.737,67.847l1.375-0.141c0.039,0.308,0.155,0.551,0.349,0.73c0.193,0.18,0.416,0.27,0.667,0.27
				c0.288,0,0.532-0.118,0.731-0.353s0.299-0.59,0.299-1.064c0-0.444-0.101-0.777-0.303-1c-0.202-0.222-0.464-0.333-0.788-0.333
				c-0.404,0-0.766,0.172-1.086,0.516l-1.104-0.159l0.703-3.716h3.672v1.281h-2.631l-0.228,1.206
				c0.311-0.147,0.629-0.221,0.953-0.221c0.619,0,1.143,0.223,1.573,0.667s0.645,1.023,0.645,1.733c0,0.592-0.171,1.12-0.514,1.585
				c-0.467,0.635-1.115,0.952-1.944,0.952c-0.663,0-1.203-0.177-1.621-0.529C13.068,68.917,12.819,68.443,12.737,67.847z"/>
			<path i:knockout="Off" d="M20.971,69.66v-1.438h-2.922v-1.198l3.098-4.552h1.152v4.547h0.891v1.203h-0.891v1.438H20.971z
				 M20.971,67.019v-2.433l-1.637,2.433H20.971z"/>
		</g>
		<g i:knockout="Off">
			<path i:knockout="Off" d="M3.578,4.672V3.453h3.109V6.33C6.385,6.623,5.947,6.88,5.373,7.103
				C4.799,7.326,4.217,7.438,3.629,7.438c-0.748,0-1.4-0.158-1.956-0.473C1.117,6.649,0.699,6.197,0.419,5.61
				C0.14,5.023,0,4.384,0,3.694C0,2.945,0.156,2.28,0.468,1.698c0.312-0.582,0.769-1.029,1.37-1.34C2.297,0.12,2.868,0,3.55,0
				c0.888,0,1.581,0.187,2.08,0.561s0.82,0.89,0.963,1.549L5.156,2.375c-0.101-0.353-0.291-0.63-0.568-0.834
				C4.31,1.336,3.963,1.234,3.547,1.234c-0.631,0-1.133,0.202-1.505,0.605S1.484,2.841,1.484,3.635c0,0.856,0.189,1.498,0.567,1.926
				c0.378,0.428,0.874,0.642,1.486,0.642c0.303,0,0.607-0.06,0.912-0.18s0.566-0.265,0.785-0.436V4.672H3.578z"/>
			<path i:knockout="Off" d="M7.669,5.412L8.998,5.25C9.04,5.589,9.153,5.849,9.338,6.028c0.185,0.18,0.409,0.269,0.672,0.269
				c0.282,0,0.52-0.109,0.713-0.326c0.193-0.217,0.29-0.511,0.29-0.88c0-0.35-0.092-0.626-0.277-0.831s-0.41-0.307-0.675-0.307
				c-0.175,0-0.384,0.034-0.626,0.103l0.151-1.103c0.372,0.01,0.656-0.071,0.852-0.243c0.196-0.171,0.294-0.398,0.294-0.683
				c0-0.242-0.072-0.435-0.215-0.578s-0.333-0.215-0.57-0.215c-0.234,0-0.435,0.081-0.6,0.243C9.181,1.64,9.08,1.876,9.044,2.188
				L7.779,1.974c0.088-0.435,0.22-0.783,0.397-1.043s0.424-0.464,0.742-0.614c0.317-0.148,0.673-0.223,1.066-0.223
				c0.673,0,1.213,0.215,1.62,0.646c0.335,0.353,0.503,0.751,0.503,1.195c0,0.63-0.343,1.133-1.029,1.509
				c0.407,0.088,0.732,0.286,0.976,0.594s0.366,0.679,0.366,1.115c0,0.633-0.229,1.171-0.688,1.617s-1.029,0.668-1.711,0.668
				c-0.647,0-1.184-0.187-1.609-0.56C7.984,6.503,7.737,6.015,7.669,5.412z"/>
			<path i:knockout="Off" d="M13.293,5.485l1.375-0.141c0.039,0.308,0.155,0.551,0.349,0.731c0.193,0.18,0.416,0.269,0.667,0.269
				c0.288,0,0.532-0.118,0.731-0.353s0.299-0.59,0.299-1.064c0-0.444-0.101-0.778-0.303-1c-0.202-0.223-0.464-0.333-0.788-0.333
				c-0.404,0-0.766,0.172-1.086,0.516l-1.104-0.159l0.703-3.716h3.672v1.281h-2.631L14.95,2.721C15.261,2.574,15.579,2.5,15.903,2.5
				c0.619,0,1.143,0.223,1.573,0.667c0.43,0.445,0.645,1.022,0.645,1.732c0,0.593-0.171,1.121-0.514,1.585
				c-0.467,0.635-1.115,0.952-1.944,0.952c-0.663,0-1.203-0.176-1.621-0.53C13.625,6.555,13.375,6.081,13.293,5.485z"/>
			<path i:knockout="Off" d="M21.527,7.297V5.859h-2.922V4.661l3.098-4.552h1.152v4.547h0.891v1.203h-0.891v1.438H21.527z
				 M21.527,4.656V2.223L19.89,4.656H21.527z"/>
		</g>
	</g>
	<g id="レイヤー_1" i:layer="yes" i:dimmedPercent="100" i:rgbTrio="#4F008000FFFF">
		<g>
			<g>
				<path i:knockout="Off" fill="none" stroke="#000000" stroke-width="0.7" d="M21.15,95.377V83.033h22.84v12.344H21.15z"/>
				<path i:knockout="Off" fill="none" stroke="#000000" stroke-width="0.7" d="M32.584,83.033v12.344"/>
				<g i:knockout="Off">
					<path i:knockout="Off" d="M28.713,91.368v0.672h-3.797c-0.005-0.169,0.022-0.332,0.083-0.488
						c0.098-0.258,0.253-0.511,0.467-0.76c0.214-0.248,0.521-0.537,0.92-0.864c0.619-0.516,1.04-0.923,1.261-1.221
						c0.221-0.298,0.332-0.58,0.332-0.849c0-0.278-0.1-0.513-0.299-0.704c-0.2-0.191-0.46-0.287-0.781-0.287
						c-0.339,0-0.611,0.104-0.814,0.311c-0.204,0.208-0.307,0.494-0.309,0.861l-0.719-0.094c0.049-0.539,0.235-0.95,0.558-1.232
						c0.322-0.282,0.755-0.424,1.299-0.424c0.549,0,0.983,0.152,1.303,0.457c0.32,0.305,0.48,0.683,0.48,1.133
						c0,0.229-0.046,0.455-0.14,0.676c-0.093,0.221-0.248,0.454-0.464,0.699c-0.217,0.245-0.577,0.581-1.081,1.009
						c-0.423,0.355-0.695,0.596-0.814,0.723c-0.12,0.126-0.219,0.253-0.297,0.381H28.713z"/>
				</g>
				<g i:knockout="Off">
					<path i:knockout="Off" d="M39.048,92.04h-0.703v-4.48c-0.17,0.162-0.392,0.323-0.666,0.484
						c-0.275,0.162-0.521,0.283-0.74,0.363v-0.68c0.393-0.185,0.736-0.409,1.031-0.672c0.294-0.263,0.502-0.518,0.625-0.766h0.453
						V92.04z"/>
				</g>
			</g>
			<path i:knockout="Off" fill="none" stroke="#000000" stroke-width="0.7" d="M44.162,87.381h3.008v3.625h-3.008"/>
		</g>
		<path i:knockout="Off" fill="none" stroke="#000000" stroke-width="1.2" d="M49.942,97.967H18.637V80.319h31.305V97.967z"/>
		<g>
			<g>
				<path i:knockout="Off" fill="none" stroke="#000000" stroke-width="1.2" d="M47.531,33.495V21.151h-22.84v12.344H47.531z"/>
				<path i:knockout="Off" fill="none" stroke="#000000" stroke-width="0.7" d="M36.096,21.151v12.344"/>
				<g i:knockout="Off">
					<path i:knockout="Off" d="M31.032,30.157h-0.703v-4.48c-0.169,0.162-0.392,0.323-0.666,0.484
						c-0.275,0.162-0.521,0.283-0.74,0.363v-0.68c0.393-0.185,0.737-0.409,1.031-0.672c0.294-0.263,0.502-0.518,0.625-0.766h0.453
						V30.157z"/>
				</g>
				<g i:knockout="Off">
					<path i:knockout="Off" d="M43.446,29.485v0.672h-3.797c-0.005-0.169,0.022-0.332,0.083-0.488
						c0.097-0.258,0.252-0.511,0.467-0.76c0.214-0.249,0.521-0.537,0.92-0.864c0.62-0.516,1.04-0.923,1.262-1.221
						c0.221-0.297,0.331-0.581,0.331-0.848c0-0.278-0.1-0.513-0.3-0.704c-0.199-0.191-0.459-0.287-0.78-0.287
						c-0.339,0-0.61,0.104-0.813,0.311c-0.204,0.207-0.307,0.494-0.31,0.861l-0.719-0.094c0.05-0.539,0.235-0.95,0.558-1.232
						s0.756-0.424,1.3-0.424c0.549,0,0.983,0.153,1.304,0.458c0.319,0.305,0.479,0.682,0.479,1.133c0,0.229-0.047,0.455-0.14,0.676
						c-0.094,0.222-0.248,0.455-0.465,0.7c-0.216,0.245-0.576,0.581-1.08,1.009c-0.424,0.355-0.695,0.596-0.815,0.722
						s-0.219,0.254-0.297,0.381H43.446z"/>
				</g>
			</g>
			<path i:knockout="Off" fill="none" stroke="#000000" stroke-width="1.2" d="M24.519,25.499h-3.008v3.625h3.008"/>
		</g>
	</g>
</svg>
