<?xml version="1.0" encoding="utf-8"?>
<!-- Generator: Adobe Illustrator 10.0, SVG Export Plug-In . SVG Version: 3.0.0 Build 77)  -->
<!DOCTYPE svg PUBLIC "-//W3C//DTD SVG 1.0//EN"    "http://www.w3.org/TR/2001/REC-SVG-20010904/DTD/svg10.dtd" [
	<!ENTITY ns_flows "http://ns.adobe.com/Flows/1.0/">
	<!ENTITY ns_extend "http://ns.adobe.com/Extensibility/1.0/">
	<!ENTITY ns_ai "http://ns.adobe.com/AdobeIllustrator/10.0/">
	<!ENTITY ns_graphs "http://ns.adobe.com/Graphs/1.0/">
	<!ENTITY ns_vars "http://ns.adobe.com/Variables/1.0/">
	<!ENTITY ns_imrep "http://ns.adobe.com/ImageReplacement/1.0/">
	<!ENTITY ns_sfw "http://ns.adobe.com/SaveForWeb/1.0/">
	<!ENTITY ns_custom "http://ns.adobe.com/GenericCustomNamespace/1.0/">
	<!ENTITY ns_adobe_xpath "http://ns.adobe.com/XPath/1.0/">
	<!ENTITY ns_svg "http://www.w3.org/2000/svg">
	<!ENTITY ns_xlink "http://www.w3.org/1999/xlink">
]>
<svg xmlns:x="&ns_extend;" xmlns:i="&ns_ai;" xmlns:graph="&ns_graphs;" i:viewOrigin="37.1436 805.6724" i:rulerOrigin="0 0" i:pageBounds="0 842 595 0" xmlns="&ns_svg;" xmlns:xlink="&ns_xlink;" xmlns:a="http://ns.adobe.com/AdobeSVGViewerExtensions/3.0/" width="40.414" height="14.504" viewBox="0 0 40.414 14.504" overflow="visible" enable-background="new 0 0 40.414 14.504" xml:space="preserve" id="svgObj" onload="parent.svgLoad('Top', document)">
	<metadata>
		<variableSets xmlns="&ns_vars;">
			<variableSet varSetName="binding1" locked="none">
				<variables></variables>
				<v:sampleDataSets xmlns="&ns_custom;" xmlns:v="&ns_vars;"></v:sampleDataSets>
			</variableSet>
		</variableSets>
		<sfw xmlns="&ns_sfw;">
			<slices></slices>
			<sliceSourceBounds y="791.168" x="37.144" width="40.414" height="14.504" bottomLeftOrigin="true"></sliceSourceBounds>
		</sfw>
	</metadata>
	<g id="レイヤー_1" i:layer="yes" i:dimmedPercent="100" i:rgbTrio="#4F008000FFFF">
		<g>
			<path i:knockout="Off" fill="none" stroke="#000000" stroke-width="0.5669" d="M2.82,2.465h33.804"/>
			<path i:knockout="Off" fill="none" stroke="#000000" stroke-width="0.5669" d="M2.82,0.567v13.37"/>
			<path i:knockout="Off" fill="none" stroke="#000000" stroke-width="0.5669" d="M14.088,2.465v11.472"/>
			<path i:knockout="Off" fill="none" stroke="#000000" stroke-width="0.5669" d="M25.356,2.465v11.472"/>
			<g i:knockout="Off">
				<path i:knockout="Off" d="M9.215,11.162H8.512v-4.48C8.342,6.843,8.12,7.004,7.846,7.166c-0.275,0.162-0.521,0.283-0.74,0.363
					v-0.68C7.499,6.665,7.842,6.44,8.137,6.177c0.294-0.263,0.502-0.518,0.625-0.766h0.453V11.162z"/>
			</g>
			<path i:knockout="Off" fill="none" stroke="#000000" stroke-width="1.1339" d="M0.567,0.567h36.058"/>
			<path i:knockout="Off" fill="none" stroke="#000000" stroke-width="1.1339" d="M0.567,0.567v13.37"/>
			<path i:knockout="Off" fill="none" stroke="#000000" stroke-width="1.1339" d="M36.625,0.567v13.37"/>
			<path i:knockout="Off" fill="none" stroke="#000000" stroke-width="1.1339" d="M0.567,13.937h36.058"/>
			<g i:knockout="Off">
				<path i:knockout="Off" d="M21.522,10.49v0.672h-3.797c-0.005-0.169,0.022-0.332,0.083-0.488c0.097-0.258,0.252-0.511,0.467-0.76
					c0.214-0.249,0.521-0.537,0.92-0.864c0.62-0.516,1.04-0.923,1.261-1.221s0.332-0.58,0.332-0.849c0-0.278-0.1-0.513-0.299-0.704
					s-0.46-0.287-0.781-0.287c-0.339,0-0.61,0.104-0.814,0.311s-0.307,0.494-0.309,0.861l-0.719-0.094
					c0.049-0.539,0.235-0.95,0.558-1.232c0.323-0.282,0.756-0.424,1.3-0.424c0.549,0,0.983,0.152,1.303,0.457s0.48,0.683,0.48,1.133
					c0,0.229-0.047,0.455-0.14,0.676c-0.094,0.221-0.248,0.454-0.465,0.699c-0.216,0.245-0.576,0.581-1.081,1.009
					c-0.423,0.355-0.695,0.596-0.815,0.722c-0.12,0.126-0.219,0.253-0.297,0.381H21.522z"/>
			</g>
			<g i:knockout="Off">
				<path i:knockout="Off" d="M29.107,9.661l0.719-0.094c0.08,0.393,0.215,0.676,0.405,0.85c0.19,0.173,0.425,0.26,0.707,0.26
					c0.333,0,0.611-0.115,0.835-0.344c0.223-0.229,0.335-0.514,0.335-0.853c0-0.323-0.104-0.59-0.313-0.8
					c-0.209-0.21-0.476-0.315-0.798-0.315c-0.132,0-0.296,0.026-0.492,0.078l0.078-0.625c0.046,0.005,0.083,0.008,0.112,0.008
					c0.294,0,0.56-0.077,0.795-0.232c0.235-0.155,0.354-0.394,0.354-0.717c0-0.255-0.086-0.467-0.259-0.635
					s-0.396-0.252-0.669-0.252c-0.271,0-0.497,0.086-0.677,0.258c-0.181,0.172-0.296,0.43-0.348,0.773L29.17,6.895
					c0.086-0.471,0.28-0.836,0.584-1.096c0.304-0.259,0.682-0.389,1.134-0.389c0.312,0,0.599,0.067,0.861,0.2
					c0.262,0.134,0.463,0.315,0.602,0.546c0.139,0.231,0.208,0.476,0.208,0.735c0,0.246-0.066,0.47-0.199,0.672
					s-0.33,0.363-0.59,0.482c0.338,0.078,0.604,0.241,0.797,0.487c0.192,0.246,0.289,0.555,0.289,0.925
					c0,0.501-0.183,0.926-0.547,1.273c-0.365,0.349-0.826,0.522-1.383,0.522c-0.503,0-0.92-0.147-1.252-0.443
					S29.154,10.131,29.107,9.661z"/>
			</g>
		</g>
		<path i:knockout="Off" fill="none" stroke="#000000" stroke-width="1.1339" d="M36.625,5.451h3.223v5.5h-3.223"/>
	</g>
</svg>
