<?xml version="1.0" encoding="utf-8"?>
<!-- Generator: Adobe Illustrator 10.0, SVG Export Plug-In . SVG Version: 3.0.0 Build 77)  -->
<!DOCTYPE svg PUBLIC "-//W3C//DTD SVG 1.0//EN"    "http://www.w3.org/TR/2001/REC-SVG-20010904/DTD/svg10.dtd" [
	<!ENTITY ns_flows "http://ns.adobe.com/Flows/1.0/">
	<!ENTITY ns_extend "http://ns.adobe.com/Extensibility/1.0/">
	<!ENTITY ns_ai "http://ns.adobe.com/AdobeIllustrator/10.0/">
	<!ENTITY ns_graphs "http://ns.adobe.com/Graphs/1.0/">
	<!ENTITY ns_vars "http://ns.adobe.com/Variables/1.0/">
	<!ENTITY ns_imrep "http://ns.adobe.com/ImageReplacement/1.0/">
	<!ENTITY ns_sfw "http://ns.adobe.com/SaveForWeb/1.0/">
	<!ENTITY ns_custom "http://ns.adobe.com/GenericCustomNamespace/1.0/">
	<!ENTITY ns_adobe_xpath "http://ns.adobe.com/XPath/1.0/">
	<!ENTITY ns_svg "http://www.w3.org/2000/svg">
	<!ENTITY ns_xlink "http://www.w3.org/1999/xlink">
]>
<svg xmlns:x="&ns_extend;" xmlns:i="&ns_ai;" xmlns:graph="&ns_graphs;" i:viewOrigin="260.9922 447.5293" i:rulerOrigin="-1 0.1104" i:pageBounds="1 841.8896 596 -0.1104" xmlns="&ns_svg;" xmlns:xlink="&ns_xlink;" xmlns:a="http://ns.adobe.com/AdobeSVGViewerExtensions/3.0/" width="75.279" height="114.758" viewBox="0 0 75.279 114.758" overflow="visible" enable-background="new 0 0 75.279 114.758" xml:space="preserve" id="svgObj" onload="parent.svgLoad('Top', document)">
	<metadata>
		<variableSets xmlns="&ns_vars;">
			<variableSet varSetName="binding1" locked="none">
				<variables></variables>
				<v:sampleDataSets xmlns="&ns_custom;" xmlns:v="&ns_vars;"></v:sampleDataSets>
			</variableSet>
		</variableSets>
		<sfw xmlns="&ns_sfw;">
			<slices></slices>
			<sliceSourceBounds y="326.346" x="257.815" width="80.371" height="125.725" bottomLeftOrigin="true"></sliceSourceBounds>
		</sfw>
	</metadata>
	<g id="connector" i:layer="yes" i:dimmedPercent="50" i:rgbTrio="#FFFF4F00FFFF">
		<g i:knockout="Off">
			<path i:knockout="Off" d="M4.22,4.672V3.453h3.109V6.33C7.026,6.623,6.588,6.881,6.015,7.104C5.44,7.326,4.859,7.438,4.271,7.438
				c-0.748,0-1.399-0.158-1.956-0.474C1.759,6.648,1.341,6.197,1.061,5.61S0.642,4.385,0.642,3.694c0-0.749,0.156-1.415,0.468-1.997
				c0.313-0.582,0.77-1.028,1.371-1.339C2.938,0.119,3.509,0,4.192,0c0.887,0,1.581,0.187,2.08,0.561s0.82,0.89,0.963,1.549
				L5.798,2.375C5.697,2.022,5.508,1.744,5.229,1.54C4.952,1.336,4.604,1.234,4.188,1.234c-0.631,0-1.132,0.202-1.504,0.605
				C2.312,2.243,2.126,2.842,2.126,3.635c0,0.856,0.189,1.499,0.567,1.927C3.071,5.989,3.566,6.203,4.18,6.203
				c0.303,0,0.606-0.06,0.911-0.18c0.305-0.12,0.566-0.265,0.785-0.436V4.672H4.22z"/>
			<path i:knockout="Off" d="M8.311,5.411L9.639,5.25C9.681,5.589,9.795,5.849,9.98,6.028s0.409,0.269,0.672,0.269
				c0.282,0,0.52-0.108,0.713-0.326c0.193-0.218,0.29-0.511,0.29-0.88c0-0.349-0.092-0.626-0.277-0.831s-0.41-0.307-0.675-0.307
				c-0.175,0-0.384,0.034-0.626,0.103l0.151-1.103c0.372,0.01,0.656-0.071,0.852-0.242c0.196-0.172,0.294-0.399,0.294-0.684
				c0-0.241-0.072-0.434-0.215-0.577s-0.333-0.216-0.57-0.216c-0.234,0-0.435,0.081-0.6,0.243C9.822,1.64,9.722,1.876,9.686,2.188
				L8.42,1.974c0.088-0.435,0.22-0.783,0.397-1.043c0.177-0.26,0.424-0.465,0.742-0.613c0.317-0.149,0.673-0.224,1.066-0.224
				c0.673,0,1.213,0.216,1.62,0.646c0.335,0.353,0.503,0.751,0.503,1.195c0,0.63-0.343,1.133-1.029,1.508
				c0.407,0.089,0.732,0.287,0.976,0.595s0.366,0.68,0.366,1.115c0,0.632-0.229,1.171-0.688,1.616s-1.029,0.668-1.711,0.668
				c-0.647,0-1.184-0.187-1.609-0.561C8.626,6.504,8.379,6.015,8.311,5.411z"/>
			<path i:knockout="Off" d="M13.904,1.516V0.234h4.688v1c-0.387,0.381-0.781,0.928-1.181,1.64s-0.705,1.47-0.915,2.272
				c-0.21,0.803-0.313,1.519-0.31,2.15h-1.328c0.023-0.989,0.228-1.997,0.614-3.024c0.386-1.028,0.903-1.947,1.549-2.757H13.904z"/>
			<path i:knockout="Off" d="M22.997,7.297h-1.375V2.112c-0.5,0.471-1.088,0.818-1.766,1.044v-1.25
				c0.357-0.117,0.746-0.339,1.166-0.667c0.419-0.327,0.707-0.709,0.863-1.146h1.112V7.297z"/>
		</g>
		<g i:knockout="Off">
			<path i:knockout="Off" d="M0.517,67.332l1.406-0.141c0.084,0.474,0.255,0.82,0.513,1.042c0.257,0.223,0.604,0.333,1.042,0.333
				c0.463,0,0.812-0.099,1.046-0.296c0.235-0.197,0.353-0.429,0.353-0.693c0-0.169-0.05-0.313-0.148-0.433s-0.271-0.223-0.517-0.312
				C4.042,66.774,3.659,66.67,3.06,66.52c-0.771-0.192-1.311-0.429-1.622-0.71c-0.437-0.395-0.655-0.876-0.655-1.444
				c0-0.365,0.103-0.707,0.31-1.025c0.206-0.318,0.503-0.561,0.891-0.727c0.388-0.167,0.857-0.25,1.406-0.25
				c0.896,0,1.57,0.198,2.023,0.597c0.453,0.396,0.691,0.928,0.714,1.591l-1.453,0.047c-0.062-0.366-0.193-0.63-0.396-0.79
				c-0.203-0.161-0.506-0.241-0.911-0.241c-0.417,0-0.744,0.086-0.98,0.259c-0.152,0.11-0.229,0.258-0.229,0.443
				c0,0.169,0.071,0.313,0.214,0.434c0.182,0.152,0.624,0.313,1.326,0.479c0.702,0.167,1.221,0.34,1.557,0.518
				c0.336,0.179,0.599,0.423,0.79,0.732c0.19,0.309,0.285,0.691,0.285,1.146c0,0.412-0.114,0.799-0.341,1.158
				c-0.228,0.36-0.549,0.628-0.965,0.803s-0.935,0.263-1.556,0.263c-0.904,0-1.598-0.21-2.082-0.631
				C0.9,68.75,0.611,68.137,0.517,67.332z"/>
			<path i:knockout="Off" d="M10.765,69.66H9.39v-5.185c-0.5,0.471-1.088,0.818-1.766,1.044v-1.25
				c0.357-0.117,0.746-0.339,1.166-0.667c0.419-0.327,0.707-0.709,0.863-1.146h1.112V69.66z"/>
			<path i:knockout="Off" d="M12.795,63.879v-1.281h4.688v1c-0.387,0.381-0.781,0.928-1.181,1.64
				c-0.4,0.713-0.705,1.471-0.915,2.272c-0.21,0.803-0.313,1.519-0.31,2.15h-1.328c0.023-0.989,0.227-1.997,0.614-3.024
				c0.387-1.028,0.903-1.947,1.549-2.757H12.795z"/>
			<path i:knockout="Off" d="M18.326,67.774l1.328-0.161c0.042,0.339,0.156,0.599,0.341,0.778c0.185,0.179,0.409,0.269,0.672,0.269
				c0.282,0,0.52-0.108,0.713-0.326c0.193-0.218,0.29-0.511,0.29-0.88c0-0.35-0.092-0.627-0.277-0.831s-0.409-0.307-0.675-0.307
				c-0.175,0-0.384,0.034-0.626,0.103l0.152-1.103c0.372,0.01,0.656-0.071,0.852-0.242c0.196-0.172,0.293-0.399,0.293-0.684
				c0-0.241-0.071-0.434-0.214-0.577s-0.333-0.216-0.571-0.216c-0.234,0-0.434,0.081-0.6,0.243c-0.166,0.162-0.267,0.398-0.302,0.71
				l-1.266-0.214c0.088-0.436,0.221-0.783,0.398-1.043s0.424-0.465,0.742-0.613c0.317-0.149,0.672-0.224,1.066-0.224
				c0.673,0,1.213,0.216,1.62,0.646c0.335,0.353,0.502,0.751,0.502,1.195c0,0.63-0.343,1.133-1.029,1.508
				c0.407,0.089,0.732,0.287,0.976,0.595s0.366,0.68,0.366,1.115c0,0.632-0.229,1.171-0.688,1.616s-1.029,0.668-1.712,0.668
				c-0.647,0-1.184-0.187-1.609-0.561C18.641,68.867,18.394,68.378,18.326,67.774z"/>
		</g>
	</g>
	<g id="レイヤー_1" i:layer="yes" i:dimmedPercent="100" i:rgbTrio="#4F008000FFFF">
		<g>
			<path i:knockout="Off" fill="none" stroke="#000000" stroke-width="0.7" stroke-linecap="round" d="M3.054,36.786v-12.34h11.34
				v12.34H3.054z"/>
			<g i:knockout="Off">
				<path i:knockout="Off" d="M9.417,32.727H8.713v-4.48c-0.169,0.161-0.391,0.323-0.666,0.484s-0.521,0.282-0.74,0.363v-0.68
					c0.393-0.185,0.737-0.409,1.031-0.672s0.502-0.518,0.625-0.766h0.453V32.727z"/>
			</g>
			<path i:knockout="Off" fill="none" stroke="#000000" stroke-width="0.7" d="M70.918,35.19H3.395"/>
			<path i:knockout="Off" fill="none" stroke="#000000" stroke-width="0.7" stroke-linecap="round" d="M14.367,36.786v-12.34h11.34
				v12.34H14.367z"/>
			<g i:knockout="Off">
				<path i:knockout="Off" d="M21.768,32.055v0.672h-3.797c-0.005-0.169,0.022-0.332,0.083-0.488
					c0.098-0.258,0.253-0.511,0.467-0.76s0.521-0.536,0.92-0.864c0.619-0.516,1.04-0.923,1.261-1.221
					c0.221-0.298,0.332-0.58,0.332-0.849c0-0.278-0.1-0.513-0.299-0.704c-0.2-0.19-0.46-0.286-0.781-0.286
					c-0.339,0-0.611,0.104-0.814,0.312c-0.204,0.207-0.307,0.494-0.309,0.86l-0.719-0.094c0.049-0.539,0.235-0.95,0.558-1.232
					c0.322-0.282,0.755-0.424,1.299-0.424c0.549,0,0.983,0.152,1.303,0.457c0.32,0.305,0.48,0.683,0.48,1.134
					c0,0.229-0.046,0.454-0.14,0.676c-0.093,0.221-0.248,0.454-0.464,0.699c-0.217,0.245-0.577,0.581-1.081,1.009
					c-0.423,0.354-0.695,0.596-0.814,0.722c-0.12,0.127-0.219,0.254-0.297,0.382H21.768z"/>
			</g>
			<path i:knockout="Off" fill="none" stroke="#000000" stroke-width="0.7" stroke-linecap="round" d="M25.679,36.786v-12.34h11.34
				v12.34H25.679z"/>
			<g i:knockout="Off">
				<path i:knockout="Off" d="M29.401,31.227l0.719-0.094c0.08,0.394,0.215,0.676,0.405,0.85c0.189,0.173,0.425,0.26,0.707,0.26
					c0.333,0,0.611-0.114,0.834-0.345c0.223-0.229,0.335-0.514,0.335-0.853c0-0.323-0.105-0.591-0.314-0.8
					c-0.209-0.211-0.475-0.315-0.798-0.315c-0.132,0-0.295,0.026-0.492,0.078l0.078-0.625c0.046,0.005,0.083,0.008,0.112,0.008
					c0.294,0,0.559-0.077,0.795-0.232s0.354-0.394,0.354-0.717c0-0.255-0.086-0.467-0.259-0.635s-0.396-0.252-0.669-0.252
					c-0.271,0-0.496,0.086-0.677,0.258s-0.297,0.43-0.348,0.773l-0.719-0.125c0.085-0.472,0.281-0.836,0.584-1.096
					c0.304-0.259,0.682-0.389,1.134-0.389c0.312,0,0.599,0.067,0.861,0.2c0.263,0.134,0.463,0.315,0.603,0.546
					c0.139,0.231,0.208,0.476,0.208,0.735c0,0.246-0.066,0.471-0.199,0.672c-0.133,0.203-0.33,0.363-0.59,0.482
					c0.338,0.078,0.604,0.24,0.797,0.487c0.193,0.246,0.289,0.555,0.289,0.925c0,0.501-0.182,0.926-0.547,1.273
					c-0.365,0.349-0.826,0.522-1.383,0.522c-0.502,0-0.92-0.147-1.252-0.443S29.448,31.697,29.401,31.227z"/>
			</g>
			<path i:knockout="Off" fill="none" stroke="#000000" stroke-width="0.7" stroke-linecap="round" d="M36.992,36.786v-12.34h11.34
				v12.34H36.992z"/>
			<g i:knockout="Off">
				<path i:knockout="Off" d="M42.947,32.727v-1.375h-2.484v-0.641l2.625-3.719h0.563v3.719h0.781v0.641H43.65v1.375H42.947z
					 M42.947,30.711v-2.566l-1.793,2.566H42.947z"/>
			</g>
			<path i:knockout="Off" fill="none" stroke="#000000" stroke-width="0.7" stroke-linecap="round" d="M48.305,36.786v-12.34h11.34
				v12.34H48.305z"/>
			<g i:knockout="Off">
				<path i:knockout="Off" d="M52.011,31.227l0.719-0.063c0.055,0.358,0.182,0.628,0.38,0.808c0.197,0.181,0.44,0.271,0.729,0.271
					c0.35,0,0.64-0.127,0.871-0.382c0.232-0.254,0.349-0.592,0.349-1.013c0-0.399-0.11-0.715-0.332-0.946
					c-0.222-0.23-0.519-0.347-0.891-0.347c-0.231,0-0.438,0.051-0.617,0.152s-0.321,0.233-0.426,0.395l-0.656-0.094l0.563-2.938
					h2.844v0.672h-2.285l-0.313,1.549c0.344-0.241,0.704-0.361,1.082-0.361c0.5,0,0.922,0.173,1.266,0.519
					c0.344,0.347,0.516,0.791,0.516,1.335c0,0.518-0.151,0.966-0.453,1.343c-0.367,0.463-0.868,0.694-1.504,0.694
					c-0.521,0-0.946-0.146-1.275-0.437S52.058,31.707,52.011,31.227z"/>
			</g>
			<path i:knockout="Off" fill="none" stroke="#000000" stroke-width="0.7" stroke-linecap="round" d="M59.616,36.786v-12.34h11.341
				v12.34H59.616z"/>
			<g i:knockout="Off">
				<path i:knockout="Off" d="M66.995,28.398l-0.703,0.063c-0.063-0.277-0.152-0.479-0.268-0.604
					c-0.191-0.201-0.427-0.302-0.708-0.302c-0.226,0-0.426,0.063-0.602,0.187c-0.218,0.162-0.391,0.396-0.52,0.705
					c-0.128,0.31-0.195,0.75-0.2,1.323c0.17-0.258,0.378-0.449,0.623-0.574c0.246-0.125,0.503-0.188,0.772-0.188
					c0.471,0,0.871,0.173,1.202,0.518s0.496,0.791,0.496,1.338c0,0.359-0.078,0.693-0.233,1.002
					c-0.156,0.309-0.369,0.545-0.642,0.709c-0.271,0.164-0.58,0.246-0.925,0.246c-0.589,0-1.068-0.216-1.44-0.646
					c-0.371-0.432-0.557-1.141-0.557-2.13c0-1.106,0.206-1.91,0.617-2.413c0.358-0.437,0.843-0.656,1.45-0.656
					c0.453,0,0.825,0.126,1.115,0.378C66.764,27.606,66.938,27.954,66.995,28.398z M64.104,30.869c0,0.242,0.052,0.474,0.155,0.694
					s0.246,0.39,0.43,0.505c0.184,0.116,0.38,0.174,0.589,0.174c0.304,0,0.562-0.12,0.773-0.358c0.212-0.24,0.318-0.564,0.318-0.976
					c0-0.396-0.104-0.706-0.314-0.935c-0.209-0.227-0.478-0.341-0.805-0.341c-0.319,0-0.591,0.114-0.813,0.341
					C64.216,30.202,64.104,30.5,64.104,30.869z"/>
			</g>
			<path i:knockout="Off" fill="none" stroke="#000000" stroke-width="0.7" stroke-linecap="round" d="M3.054,49.139V36.798h11.34
				v12.341H3.054z"/>
			<g i:knockout="Off">
				<path i:knockout="Off" d="M6.807,40.094v-0.672h3.703v0.544c-0.365,0.388-0.727,0.904-1.086,1.548
					c-0.359,0.645-0.636,1.308-0.832,1.987c-0.141,0.48-0.231,1.006-0.27,1.577H7.604c0.008-0.451,0.096-0.996,0.265-1.636
					c0.169-0.639,0.411-1.255,0.727-1.848c0.316-0.594,0.652-1.094,1.008-1.501H6.807z"/>
			</g>
			<path i:knockout="Off" fill="none" stroke="#000000" stroke-width="0.7" d="M70.918,47.279H3.395"/>
			<path i:knockout="Off" fill="none" stroke="#000000" stroke-width="0.7" stroke-linecap="round" d="M14.367,49.139V36.798h11.34
				v12.341H14.367z"/>
			<g i:knockout="Off">
				<path i:knockout="Off" d="M19.166,41.975c-0.292-0.106-0.508-0.259-0.648-0.457s-0.21-0.436-0.21-0.712
					c0-0.417,0.149-0.768,0.448-1.051c0.298-0.285,0.695-0.427,1.191-0.427c0.498,0,0.899,0.146,1.203,0.437
					c0.304,0.29,0.456,0.644,0.456,1.061c0,0.266-0.069,0.497-0.208,0.694c-0.139,0.196-0.349,0.349-0.631,0.455
					c0.35,0.114,0.616,0.299,0.799,0.554s0.274,0.559,0.274,0.912c0,0.489-0.173,0.899-0.519,1.232s-0.8,0.499-1.364,0.499
					s-1.019-0.167-1.365-0.501s-0.518-0.75-0.518-1.25c0-0.371,0.094-0.683,0.284-0.934S18.816,42.065,19.166,41.975z
					 M18.792,43.426c0,0.2,0.046,0.394,0.138,0.58c0.093,0.187,0.233,0.331,0.423,0.435c0.19,0.102,0.393,0.153,0.608,0.153
					c0.34,0,0.619-0.107,0.834-0.323c0.216-0.215,0.324-0.489,0.324-0.821c0-0.337-0.111-0.616-0.333-0.837
					s-0.505-0.331-0.848-0.331c-0.335,0-0.61,0.109-0.825,0.327C18.898,42.826,18.792,43.099,18.792,43.426z M19.026,40.781
					c0,0.271,0.085,0.492,0.256,0.664c0.171,0.172,0.398,0.258,0.681,0.258c0.275,0,0.497-0.085,0.667-0.256s0.255-0.38,0.255-0.627
					c0-0.258-0.087-0.475-0.263-0.65s-0.397-0.264-0.667-0.264c-0.272,0-0.496,0.086-0.669,0.258S19.026,40.542,19.026,40.781z"/>
			</g>
			<path i:knockout="Off" fill="none" stroke="#000000" stroke-width="0.7" stroke-linecap="round" d="M25.679,49.139V36.798h11.34
				v12.341H25.679z"/>
			<g i:knockout="Off">
				<path i:knockout="Off" d="M29.479,43.75l0.672-0.063c0.057,0.317,0.167,0.548,0.328,0.691s0.369,0.215,0.621,0.215
					c0.216,0,0.407-0.049,0.572-0.147s0.299-0.23,0.4-0.395s0.188-0.387,0.258-0.667s0.105-0.565,0.105-0.857
					c0-0.031-0.001-0.078-0.004-0.141c-0.14,0.224-0.331,0.405-0.573,0.545s-0.504,0.209-0.787,0.209
					c-0.472,0-0.871-0.172-1.197-0.517c-0.327-0.344-0.49-0.797-0.49-1.36c0-0.581,0.171-1.05,0.514-1.403
					c0.342-0.355,0.771-0.532,1.287-0.532c0.373,0,0.713,0.101,1.021,0.301s0.543,0.485,0.703,0.856s0.24,0.908,0.24,1.61
					c0,0.731-0.08,1.313-0.239,1.747c-0.16,0.434-0.396,0.764-0.712,0.989c-0.314,0.227-0.684,0.34-1.106,0.34
					c-0.45,0-0.817-0.124-1.102-0.373S29.536,44.2,29.479,43.75z M32.37,41.225c0-0.404-0.106-0.726-0.319-0.962
					c-0.213-0.238-0.473-0.356-0.781-0.356c-0.318,0-0.592,0.128-0.822,0.384s-0.344,0.586-0.344,0.993
					c0,0.365,0.109,0.662,0.327,0.89c0.218,0.229,0.491,0.343,0.82,0.343c0.326,0,0.594-0.114,0.804-0.343
					C32.265,41.945,32.37,41.629,32.37,41.225z"/>
			</g>
			<path i:knockout="Off" fill="none" stroke="#000000" stroke-width="0.7" stroke-linecap="round" d="M36.992,49.139V36.798h11.34
				v12.341H36.992z"/>
			<g i:knockout="Off">
				<path i:knockout="Off" d="M41.129,45.078h-0.703v-4.48c-0.17,0.161-0.392,0.323-0.666,0.484
					c-0.275,0.161-0.521,0.282-0.74,0.363v-0.68c0.393-0.185,0.736-0.409,1.031-0.672c0.294-0.263,0.502-0.519,0.625-0.766h0.453
					V45.078z"/>
				<path i:knockout="Off" d="M42.922,42.252c0-0.677,0.07-1.223,0.211-1.638s0.349-0.733,0.626-0.954
					c0.277-0.222,0.626-0.332,1.046-0.332c0.31,0,0.583,0.062,0.819,0.186s0.429,0.302,0.579,0.534
					c0.149,0.233,0.268,0.518,0.354,0.852s0.13,0.785,0.13,1.353c0,0.671-0.069,1.215-0.209,1.63
					c-0.139,0.415-0.348,0.734-0.624,0.956c-0.277,0.223-0.627,0.334-1.05,0.334c-0.557,0-0.994-0.195-1.312-0.585
					C43.112,44.104,42.922,43.327,42.922,42.252z M43.641,42.25c0,0.945,0.111,1.572,0.336,1.881c0.224,0.309,0.5,0.463,0.828,0.463
					s0.604-0.155,0.828-0.465s0.336-0.937,0.336-1.879s-0.111-1.569-0.334-1.879s-0.502-0.465-0.838-0.465
					c-0.328,0-0.592,0.137-0.791,0.41C43.763,40.665,43.641,41.31,43.641,42.25z"/>
			</g>
			<path i:knockout="Off" fill="none" stroke="#000000" stroke-width="0.7" stroke-linecap="round" d="M48.305,49.139V36.798h11.34
				v12.341H48.305z"/>
			<g i:knockout="Off">
				<path i:knockout="Off" d="M52.442,45.078h-0.703v-4.48c-0.169,0.161-0.392,0.323-0.666,0.484s-0.521,0.282-0.74,0.363v-0.68
					c0.394-0.185,0.737-0.409,1.031-0.672s0.503-0.519,0.625-0.766h0.453V45.078z"/>
				<path i:knockout="Off" d="M56.892,45.078h-0.703v-4.48c-0.169,0.161-0.392,0.323-0.666,0.484s-0.521,0.282-0.74,0.363v-0.68
					c0.394-0.185,0.737-0.409,1.031-0.672s0.503-0.519,0.625-0.766h0.453V45.078z"/>
			</g>
			<path i:knockout="Off" fill="none" stroke="#000000" stroke-width="0.7" stroke-linecap="round" d="M59.616,49.139V36.798h11.341
				v12.341H59.616z"/>
			<g i:knockout="Off">
				<path i:knockout="Off" d="M63.755,45.078h-0.703v-4.48c-0.169,0.161-0.392,0.323-0.666,0.484s-0.521,0.282-0.74,0.363v-0.68
					c0.394-0.185,0.737-0.409,1.031-0.672s0.503-0.519,0.625-0.766h0.453V45.078z"/>
				<path i:knockout="Off" d="M69.243,44.406v0.672h-3.797c-0.005-0.169,0.022-0.332,0.083-0.488
					c0.097-0.258,0.252-0.511,0.467-0.76c0.214-0.249,0.521-0.536,0.92-0.864c0.62-0.516,1.04-0.923,1.262-1.221
					c0.221-0.298,0.331-0.58,0.331-0.849c0-0.278-0.1-0.513-0.3-0.704c-0.199-0.19-0.459-0.286-0.78-0.286
					c-0.339,0-0.61,0.104-0.813,0.312c-0.204,0.207-0.307,0.494-0.31,0.86l-0.719-0.094c0.05-0.539,0.235-0.95,0.558-1.232
					s0.756-0.424,1.3-0.424c0.549,0,0.983,0.152,1.304,0.457c0.319,0.305,0.479,0.683,0.479,1.134c0,0.229-0.047,0.454-0.14,0.676
					c-0.094,0.221-0.248,0.454-0.465,0.699c-0.216,0.245-0.576,0.581-1.08,1.009c-0.424,0.354-0.695,0.596-0.815,0.722
					c-0.12,0.127-0.219,0.254-0.297,0.382H69.243z"/>
			</g>
			<g>
				<g>
					<g>
						<path i:knockout="Off" fill="none" stroke="#000000" stroke-width="1.2" stroke-linecap="round" d="M3.055,24.364V15.2h3.741
							v9.165"/>
					</g>
				</g>
			</g>
			<g>
				<g>
					<g>
						<path i:knockout="Off" fill="none" stroke="#000000" stroke-width="1.2" stroke-linecap="round" d="M67.211,24.364V15.2h3.741
							v9.165"/>
					</g>
				</g>
			</g>
			<g>
				<g>
					<g>
						<path i:knockout="Off" fill="none" stroke="#000000" stroke-width="1.2" stroke-linecap="round" d="M14.395,24.364V17.2h45.24
							v7.165"/>
					</g>
				</g>
			</g>
			<path i:knockout="Off" fill="none" stroke="#000000" stroke-width="1.2" stroke-linecap="round" d="M70.957,49.139V24.396H3.059
				v24.743H70.957z"/>
		</g>
		<g>
			<path i:knockout="Off" fill="none" stroke="#000000" stroke-width="0.7" stroke-linecap="round" d="M3.58,99.141v-12.34h11.34
				v12.34H3.58z"/>
			<g i:knockout="Off">
				<path i:knockout="Off" d="M10.957,90.754l-0.703,0.063c-0.063-0.277-0.152-0.479-0.268-0.604
					c-0.191-0.201-0.427-0.302-0.708-0.302c-0.226,0-0.426,0.063-0.602,0.187c-0.218,0.162-0.391,0.396-0.52,0.705
					c-0.128,0.31-0.195,0.75-0.2,1.323c0.17-0.258,0.378-0.449,0.623-0.574c0.246-0.125,0.503-0.188,0.773-0.188
					c0.47,0,0.871,0.173,1.202,0.518s0.496,0.791,0.496,1.338c0,0.359-0.078,0.693-0.233,1.002
					c-0.156,0.309-0.369,0.545-0.642,0.709c-0.271,0.164-0.58,0.246-0.925,0.246c-0.588,0-1.068-0.216-1.44-0.646
					c-0.371-0.432-0.557-1.141-0.557-2.13c0-1.106,0.206-1.91,0.617-2.413c0.359-0.437,0.843-0.655,1.451-0.655
					c0.453,0,0.825,0.126,1.114,0.378S10.899,90.31,10.957,90.754z M8.066,93.225c0,0.242,0.052,0.474,0.155,0.694
					s0.247,0.39,0.43,0.505c0.183,0.116,0.38,0.174,0.589,0.174c0.304,0,0.562-0.12,0.773-0.358c0.212-0.24,0.318-0.564,0.318-0.976
					c0-0.396-0.104-0.706-0.314-0.935c-0.209-0.227-0.478-0.341-0.805-0.341c-0.319,0-0.59,0.114-0.813,0.341
					C8.178,92.558,8.066,92.855,8.066,93.225z"/>
			</g>
			<path i:knockout="Off" fill="none" stroke="#000000" stroke-width="0.7" d="M71.443,97.545H3.92"/>
			<path i:knockout="Off" fill="none" stroke="#000000" stroke-width="0.7" stroke-linecap="round" d="M14.893,99.141v-12.34h11.34
				v12.34H14.893z"/>
			<g i:knockout="Off">
				<path i:knockout="Off" d="M18.598,93.582l0.719-0.063c0.055,0.358,0.182,0.628,0.379,0.808c0.198,0.181,0.441,0.271,0.729,0.271
					c0.349,0,0.639-0.127,0.871-0.382c0.232-0.254,0.348-0.592,0.348-1.013c0-0.399-0.111-0.715-0.332-0.946
					c-0.222-0.23-0.519-0.347-0.891-0.347c-0.232,0-0.438,0.051-0.617,0.152s-0.322,0.233-0.426,0.395l-0.656-0.094l0.563-2.938
					h2.844v0.672h-2.285l-0.313,1.549c0.344-0.241,0.704-0.361,1.082-0.361c0.5,0,0.922,0.173,1.266,0.519
					c0.344,0.347,0.516,0.791,0.516,1.335c0,0.518-0.151,0.966-0.453,1.343c-0.367,0.463-0.869,0.694-1.504,0.694
					c-0.521,0-0.946-0.146-1.275-0.437C18.833,94.448,18.645,94.063,18.598,93.582z"/>
			</g>
			<path i:knockout="Off" fill="none" stroke="#000000" stroke-width="0.7" stroke-linecap="round" d="M26.205,99.141v-12.34h11.34
				v12.34H26.205z"/>
			<g i:knockout="Off">
				<path i:knockout="Off" d="M32.16,95.082v-1.375h-2.484v-0.641l2.625-3.719h0.563v3.719h0.781v0.641h-0.781v1.375H32.16z
					 M32.16,93.066V90.5l-1.792,2.566H32.16z"/>
			</g>
			<path i:knockout="Off" fill="none" stroke="#000000" stroke-width="0.7" stroke-linecap="round" d="M37.518,99.141v-12.34h11.34
				v12.34H37.518z"/>
			<g i:knockout="Off">
				<path i:knockout="Off" d="M41.238,93.582l0.719-0.094c0.08,0.394,0.215,0.676,0.404,0.85c0.19,0.173,0.426,0.26,0.707,0.26
					c0.333,0,0.611-0.114,0.835-0.345c0.224-0.229,0.335-0.514,0.335-0.853c0-0.323-0.104-0.591-0.313-0.8
					c-0.21-0.211-0.476-0.315-0.798-0.315c-0.132,0-0.296,0.026-0.492,0.078l0.078-0.625c0.046,0.005,0.083,0.008,0.111,0.008
					c0.295,0,0.56-0.077,0.795-0.232s0.354-0.394,0.354-0.717c0-0.255-0.086-0.467-0.26-0.635c-0.172-0.168-0.396-0.252-0.668-0.252
					c-0.271,0-0.497,0.086-0.678,0.258c-0.18,0.172-0.296,0.43-0.348,0.773l-0.719-0.125c0.086-0.472,0.28-0.837,0.584-1.096
					c0.305-0.259,0.683-0.389,1.135-0.389c0.312,0,0.599,0.067,0.861,0.2c0.262,0.134,0.463,0.315,0.602,0.546
					c0.14,0.231,0.209,0.476,0.209,0.735c0,0.246-0.066,0.471-0.199,0.672c-0.133,0.203-0.33,0.363-0.59,0.482
					c0.338,0.078,0.604,0.24,0.797,0.487c0.192,0.246,0.289,0.555,0.289,0.925c0,0.501-0.183,0.926-0.547,1.273
					c-0.365,0.349-0.826,0.522-1.383,0.522c-0.503,0-0.92-0.147-1.252-0.443S41.285,94.053,41.238,93.582z"/>
			</g>
			<path i:knockout="Off" fill="none" stroke="#000000" stroke-width="0.7" stroke-linecap="round" d="M48.83,99.141v-12.34h11.34
				v12.34H48.83z"/>
			<g i:knockout="Off">
				<path i:knockout="Off" d="M56.231,94.41v0.672h-3.797c-0.005-0.169,0.022-0.332,0.083-0.488c0.097-0.258,0.252-0.511,0.467-0.76
					c0.214-0.249,0.521-0.536,0.92-0.864c0.62-0.516,1.04-0.923,1.262-1.221c0.221-0.298,0.331-0.58,0.331-0.849
					c0-0.278-0.1-0.513-0.3-0.704c-0.199-0.19-0.459-0.286-0.78-0.286c-0.339,0-0.61,0.104-0.813,0.312
					c-0.204,0.207-0.307,0.494-0.31,0.86l-0.719-0.094c0.05-0.539,0.235-0.95,0.558-1.232s0.756-0.424,1.3-0.424
					c0.549,0,0.983,0.152,1.304,0.457c0.319,0.305,0.479,0.683,0.479,1.134c0,0.229-0.047,0.454-0.14,0.676
					c-0.094,0.221-0.248,0.454-0.465,0.699c-0.216,0.245-0.576,0.581-1.08,1.009c-0.424,0.354-0.695,0.596-0.815,0.722
					c-0.12,0.127-0.219,0.254-0.297,0.382H56.231z"/>
			</g>
			<path i:knockout="Off" fill="none" stroke="#000000" stroke-width="0.7" stroke-linecap="round" d="M60.142,99.141v-12.34h11.341
				v12.34H60.142z"/>
			<g i:knockout="Off">
				<path i:knockout="Off" d="M66.505,95.082h-0.703v-4.48c-0.169,0.161-0.392,0.323-0.666,0.484s-0.521,0.282-0.74,0.363v-0.68
					c0.394-0.185,0.737-0.409,1.031-0.672s0.503-0.519,0.625-0.766h0.453V95.082z"/>
			</g>
			<path i:knockout="Off" fill="none" stroke="#000000" stroke-width="0.7" stroke-linecap="round" d="M3.58,111.494V99.152h11.34
				v12.342H3.58z"/>
			<g i:knockout="Off">
				<path i:knockout="Off" d="M7.717,107.434H7.014v-4.48c-0.169,0.161-0.392,0.323-0.666,0.484
					c-0.275,0.161-0.521,0.282-0.74,0.363v-0.68c0.393-0.185,0.737-0.409,1.031-0.672c0.294-0.263,0.502-0.519,0.625-0.766h0.453
					V107.434z"/>
				<path i:knockout="Off" d="M13.205,106.762v0.672H9.408c-0.005-0.169,0.022-0.332,0.083-0.488
					c0.097-0.258,0.252-0.511,0.467-0.76c0.214-0.249,0.521-0.536,0.92-0.864c0.62-0.516,1.04-0.923,1.261-1.221
					s0.332-0.58,0.332-0.849c0-0.278-0.1-0.513-0.299-0.704c-0.2-0.19-0.46-0.286-0.781-0.286c-0.339,0-0.61,0.104-0.814,0.312
					c-0.204,0.207-0.307,0.494-0.309,0.86l-0.719-0.094c0.049-0.539,0.235-0.95,0.558-1.232c0.323-0.282,0.756-0.424,1.3-0.424
					c0.549,0,0.983,0.152,1.303,0.457s0.48,0.683,0.48,1.134c0,0.229-0.047,0.454-0.14,0.676c-0.094,0.221-0.248,0.454-0.465,0.699
					c-0.216,0.245-0.576,0.581-1.081,1.009c-0.423,0.354-0.695,0.596-0.815,0.722c-0.12,0.127-0.219,0.254-0.297,0.382H13.205z"/>
			</g>
			<path i:knockout="Off" fill="none" stroke="#000000" stroke-width="0.7" d="M71.443,109.635H3.92"/>
			<path i:knockout="Off" fill="none" stroke="#000000" stroke-width="0.7" stroke-linecap="round" d="M14.893,111.494V99.152h11.34
				v12.342H14.893z"/>
			<g i:knockout="Off">
				<path i:knockout="Off" d="M19.029,107.434h-0.703v-4.48c-0.169,0.161-0.392,0.323-0.666,0.484
					c-0.275,0.161-0.521,0.282-0.74,0.363v-0.68c0.393-0.185,0.737-0.409,1.031-0.672c0.294-0.263,0.502-0.519,0.625-0.766h0.453
					V107.434z"/>
				<path i:knockout="Off" d="M23.479,107.434h-0.703v-4.48c-0.169,0.161-0.392,0.323-0.666,0.484
					c-0.275,0.161-0.521,0.282-0.74,0.363v-0.68c0.393-0.185,0.737-0.409,1.031-0.672c0.294-0.263,0.502-0.519,0.625-0.766h0.453
					V107.434z"/>
			</g>
			<path i:knockout="Off" fill="none" stroke="#000000" stroke-width="0.7" stroke-linecap="round" d="M26.205,111.494V99.152h11.34
				v12.342H26.205z"/>
			<g i:knockout="Off">
				<path i:knockout="Off" d="M30.342,107.434h-0.703v-4.48c-0.169,0.161-0.392,0.323-0.666,0.484
					c-0.275,0.161-0.521,0.282-0.74,0.363v-0.68c0.393-0.185,0.737-0.409,1.031-0.672c0.294-0.263,0.502-0.519,0.625-0.766h0.453
					V107.434z"/>
				<path i:knockout="Off" d="M32.135,104.607c0-0.677,0.07-1.223,0.211-1.638c0.14-0.415,0.349-0.733,0.626-0.954
					c0.277-0.222,0.626-0.332,1.046-0.332c0.31,0,0.583,0.062,0.819,0.186s0.429,0.302,0.579,0.534
					c0.149,0.233,0.268,0.518,0.354,0.852c0.086,0.334,0.13,0.785,0.13,1.353c0,0.671-0.069,1.215-0.209,1.63
					c-0.139,0.415-0.347,0.734-0.624,0.956c-0.277,0.223-0.627,0.334-1.05,0.334c-0.557,0-0.994-0.195-1.312-0.585
					C32.325,106.46,32.135,105.683,32.135,104.607z M32.854,104.605c0,0.945,0.112,1.572,0.336,1.881
					c0.224,0.309,0.5,0.463,0.828,0.463c0.328,0,0.604-0.155,0.828-0.465s0.336-0.937,0.336-1.879s-0.111-1.569-0.334-1.879
					s-0.502-0.465-0.838-0.465c-0.329,0-0.592,0.137-0.791,0.41C32.976,103.021,32.854,103.665,32.854,104.605z"/>
			</g>
			<path i:knockout="Off" fill="none" stroke="#000000" stroke-width="0.7" stroke-linecap="round" d="M37.518,111.494V99.152h11.34
				v12.342H37.518z"/>
			<g i:knockout="Off">
				<path i:knockout="Off" d="M41.316,106.105l0.672-0.063c0.057,0.317,0.166,0.548,0.328,0.691
					c0.161,0.144,0.368,0.215,0.621,0.215c0.216,0,0.406-0.049,0.572-0.147c0.165-0.099,0.299-0.23,0.4-0.395
					s0.188-0.387,0.258-0.667s0.105-0.565,0.105-0.857c0-0.031-0.002-0.078-0.004-0.141c-0.141,0.224-0.331,0.405-0.573,0.545
					s-0.505,0.209-0.787,0.209c-0.472,0-0.87-0.172-1.197-0.517c-0.326-0.344-0.489-0.797-0.489-1.36
					c0-0.581,0.171-1.05,0.514-1.403c0.342-0.355,0.771-0.532,1.287-0.532c0.372,0,0.713,0.101,1.021,0.301s0.543,0.485,0.703,0.856
					s0.24,0.908,0.24,1.61c0,0.731-0.08,1.313-0.239,1.747s-0.396,0.764-0.711,0.989c-0.315,0.227-0.685,0.34-1.107,0.34
					c-0.449,0-0.816-0.124-1.101-0.373C41.545,106.905,41.374,106.556,41.316,106.105z M44.207,103.58
					c0-0.404-0.106-0.726-0.319-0.962c-0.212-0.238-0.473-0.356-0.78-0.356c-0.318,0-0.592,0.128-0.822,0.384
					c-0.229,0.256-0.344,0.586-0.344,0.993c0,0.365,0.109,0.662,0.326,0.89c0.219,0.229,0.492,0.343,0.82,0.343
					c0.326,0,0.594-0.114,0.805-0.343C44.102,104.301,44.207,103.984,44.207,103.58z"/>
			</g>
			<path i:knockout="Off" fill="none" stroke="#000000" stroke-width="0.7" stroke-linecap="round" d="M48.83,111.494V99.152h11.34
				v12.342H48.83z"/>
			<g i:knockout="Off">
				<path i:knockout="Off" d="M53.629,104.33c-0.291-0.106-0.507-0.259-0.647-0.457s-0.211-0.436-0.211-0.712
					c0-0.417,0.149-0.768,0.447-1.051c0.299-0.285,0.696-0.427,1.191-0.427c0.498,0,0.899,0.146,1.202,0.437
					c0.305,0.29,0.456,0.644,0.456,1.061c0,0.266-0.069,0.497-0.208,0.694c-0.139,0.196-0.35,0.349-0.631,0.455
					c0.35,0.114,0.616,0.299,0.799,0.554s0.274,0.559,0.274,0.912c0,0.489-0.173,0.899-0.519,1.232s-0.801,0.499-1.364,0.499
					s-1.019-0.167-1.364-0.501s-0.519-0.75-0.519-1.25c0-0.371,0.095-0.683,0.284-0.934S53.279,104.421,53.629,104.33z
					 M53.255,105.781c0,0.2,0.046,0.394,0.139,0.58c0.092,0.187,0.233,0.331,0.423,0.435c0.189,0.102,0.393,0.153,0.608,0.153
					c0.341,0,0.618-0.107,0.835-0.323c0.215-0.215,0.323-0.489,0.323-0.821c0-0.337-0.111-0.616-0.333-0.837
					c-0.223-0.221-0.506-0.331-0.849-0.331c-0.335,0-0.61,0.109-0.825,0.327C53.362,105.182,53.255,105.454,53.255,105.781z
					 M53.489,103.137c0,0.271,0.085,0.492,0.257,0.664c0.171,0.172,0.398,0.258,0.681,0.258c0.274,0,0.497-0.085,0.667-0.256
					s0.255-0.38,0.255-0.627c0-0.258-0.088-0.475-0.263-0.65s-0.397-0.264-0.667-0.264c-0.272,0-0.495,0.086-0.669,0.258
					S53.489,102.897,53.489,103.137z"/>
			</g>
			<path i:knockout="Off" fill="none" stroke="#000000" stroke-width="0.7" stroke-linecap="round" d="M60.142,111.494V99.152
				h11.341v12.342H60.142z"/>
			<g i:knockout="Off">
				<path i:knockout="Off" d="M63.896,102.449v-0.672h3.703v0.544c-0.365,0.388-0.728,0.904-1.086,1.548
					c-0.358,0.645-0.636,1.308-0.831,1.987c-0.142,0.48-0.231,1.006-0.271,1.577h-0.719c0.008-0.451,0.097-0.996,0.265-1.636
					c0.17-0.639,0.412-1.255,0.728-1.848c0.315-0.594,0.651-1.094,1.008-1.501H63.896z"/>
			</g>
			<g>
				<g>
					<g>
						<path i:knockout="Off" fill="none" stroke="#000000" stroke-width="0.7" stroke-linecap="round" d="M14.92,86.719v-7.164
							h45.24v7.164"/>
					</g>
				</g>
			</g>
			<g>
				<g>
					<g>
						<path i:knockout="Off" fill="none" stroke="#000000" stroke-width="0.7" stroke-linecap="round" d="M17.266,86.719v-5.032
							h40.764v5.032"/>
					</g>
				</g>
			</g>
			<path i:knockout="Off" fill="none" stroke="#000000" stroke-width="0.7" stroke-linecap="round" d="M71.482,111.494V86.75H3.584
				v24.744H71.482z"/>
			<path i:knockout="Off" fill="none" stroke="#000000" stroke-width="1.2" stroke-linecap="round" d="M74.68,114.158V77.16H0.6
				v36.998H74.68z"/>
		</g>
	</g>
</svg>
