<?xml version="1.0" encoding="utf-8"?>
<!-- Generator: Adobe Illustrator 10.0, SVG Export Plug-In . SVG Version: 3.0.0 Build 77)  -->
<!DOCTYPE svg PUBLIC "-//W3C//DTD SVG 1.0//EN"    "http://www.w3.org/TR/2001/REC-SVG-20010904/DTD/svg10.dtd" [
	<!ENTITY ns_flows "http://ns.adobe.com/Flows/1.0/">
	<!ENTITY ns_extend "http://ns.adobe.com/Extensibility/1.0/">
	<!ENTITY ns_ai "http://ns.adobe.com/AdobeIllustrator/10.0/">
	<!ENTITY ns_graphs "http://ns.adobe.com/Graphs/1.0/">
	<!ENTITY ns_vars "http://ns.adobe.com/Variables/1.0/">
	<!ENTITY ns_imrep "http://ns.adobe.com/ImageReplacement/1.0/">
	<!ENTITY ns_sfw "http://ns.adobe.com/SaveForWeb/1.0/">
	<!ENTITY ns_custom "http://ns.adobe.com/GenericCustomNamespace/1.0/">
	<!ENTITY ns_adobe_xpath "http://ns.adobe.com/XPath/1.0/">
	<!ENTITY ns_svg "http://www.w3.org/2000/svg">
	<!ENTITY ns_xlink "http://www.w3.org/1999/xlink">
]>
<svg xmlns:x="&ns_extend;" xmlns:i="&ns_ai;" xmlns:graph="&ns_graphs;" i:viewOrigin="261.5088 509.8916" i:rulerOrigin="-1 0.1104" i:pageBounds="1 841.8896 596 -0.1104" xmlns="&ns_svg;" xmlns:xlink="&ns_xlink;" xmlns:a="http://ns.adobe.com/AdobeSVGViewerExtensions/3.0/" width="63.186" height="101.746" viewBox="0 0 63.186 101.746" overflow="visible" enable-background="new 0 0 63.186 101.746" xml:space="preserve" id="svgObj" onload="parent.svgLoad('Top', document)">
	<metadata>
		<variableSets xmlns="&ns_vars;">
			<variableSet varSetName="binding1" locked="none">
				<variables></variables>
				<v:sampleDataSets xmlns="&ns_custom;" xmlns:v="&ns_vars;"></v:sampleDataSets>
			</variableSet>
		</variableSets>
		<sfw xmlns="&ns_sfw;">
			<slices></slices>
			<sliceSourceBounds y="388.708" x="257.815" width="80.371" height="125.725" bottomLeftOrigin="true"></sliceSourceBounds>
		</sfw>
	</metadata>
	<g id="connector" i:layer="yes" i:dimmedPercent="50" i:rgbTrio="#FFFF4F00FFFF">
		<g i:knockout="Off">
			<path i:knockout="Off" d="M0,67.331l1.406-0.141c0.084,0.473,0.255,0.82,0.513,1.042c0.257,0.222,0.604,0.333,1.042,0.333
				c0.463,0,0.812-0.099,1.046-0.296c0.235-0.197,0.353-0.429,0.353-0.693c0-0.169-0.05-0.314-0.148-0.433s-0.271-0.223-0.517-0.311
				c-0.169-0.059-0.552-0.164-1.151-0.314c-0.771-0.192-1.311-0.429-1.622-0.71c-0.437-0.395-0.655-0.876-0.655-1.444
				c0-0.365,0.103-0.707,0.31-1.025c0.206-0.318,0.503-0.561,0.891-0.727c0.388-0.167,0.857-0.25,1.406-0.25
				c0.896,0,1.57,0.199,2.023,0.596s0.691,0.928,0.714,1.591l-1.453,0.047c-0.062-0.366-0.193-0.63-0.396-0.79
				c-0.203-0.161-0.506-0.241-0.911-0.241c-0.417,0-0.744,0.086-0.98,0.258c-0.152,0.111-0.229,0.258-0.229,0.444
				c0,0.169,0.071,0.313,0.214,0.434c0.182,0.153,0.624,0.313,1.326,0.479c0.702,0.167,1.221,0.339,1.557,0.518
				s0.599,0.422,0.79,0.732c0.19,0.309,0.285,0.691,0.285,1.146c0,0.413-0.114,0.799-0.341,1.159
				c-0.228,0.36-0.549,0.628-0.965,0.803S3.571,69.8,2.95,69.8c-0.904,0-1.598-0.21-2.082-0.631C0.384,68.749,0.094,68.136,0,67.331
				z"/>
			<path i:knockout="Off" d="M10.249,69.659H8.874v-5.185c-0.5,0.471-1.088,0.818-1.766,1.044v-1.25
				c0.357-0.117,0.746-0.339,1.166-0.667c0.419-0.327,0.707-0.709,0.863-1.146h1.112V69.659z"/>
			<path i:knockout="Off" d="M12.279,63.878v-1.281h4.688v1c-0.387,0.381-0.781,0.928-1.181,1.64s-0.705,1.47-0.915,2.272
				c-0.21,0.803-0.313,1.519-0.31,2.15h-1.328c0.023-0.989,0.227-1.997,0.614-3.024c0.387-1.028,0.903-1.947,1.549-2.757H12.279z"/>
			<path i:knockout="Off" d="M20.543,69.659v-1.438h-2.922v-1.198l3.098-4.552h1.152v4.547h0.891v1.203h-0.891v1.438H20.543z
				 M20.543,67.019v-2.433l-1.637,2.433H20.543z"/>
		</g>
		<g i:knockout="Off">
			<path i:knockout="Off" d="M3.704,4.672V3.453h3.109V6.33C6.511,6.623,6.072,6.881,5.498,7.104
				C4.924,7.326,4.343,7.438,3.755,7.438c-0.748,0-1.4-0.158-1.956-0.474C1.242,6.648,0.824,6.197,0.545,5.61
				c-0.28-0.587-0.419-1.226-0.419-1.916c0-0.749,0.156-1.415,0.468-1.997c0.312-0.582,0.769-1.028,1.37-1.339
				C2.423,0.119,2.993,0,3.676,0c0.888,0,1.581,0.187,2.08,0.561s0.82,0.89,0.963,1.549L5.282,2.375
				C5.181,2.022,4.991,1.744,4.714,1.54C4.436,1.336,4.089,1.234,3.673,1.234c-0.631,0-1.133,0.202-1.505,0.605
				S1.61,2.842,1.61,3.635c0,0.856,0.189,1.499,0.567,1.927c0.378,0.428,0.874,0.642,1.486,0.642c0.303,0,0.607-0.06,0.912-0.18
				C4.88,5.904,5.142,5.759,5.36,5.588V4.672H3.704z"/>
			<path i:knockout="Off" d="M7.795,5.411L9.123,5.25c0.042,0.339,0.156,0.599,0.341,0.778s0.409,0.269,0.672,0.269
				c0.282,0,0.52-0.108,0.713-0.326c0.193-0.218,0.29-0.511,0.29-0.88c0-0.349-0.092-0.626-0.277-0.831s-0.41-0.307-0.675-0.307
				c-0.175,0-0.384,0.034-0.626,0.103l0.151-1.103c0.372,0.01,0.656-0.071,0.852-0.242c0.196-0.172,0.294-0.399,0.294-0.684
				c0-0.241-0.072-0.434-0.215-0.577s-0.333-0.216-0.57-0.216c-0.234,0-0.435,0.081-0.6,0.243C9.306,1.64,9.206,1.876,9.17,2.188
				L7.904,1.974c0.088-0.435,0.22-0.783,0.397-1.043c0.177-0.26,0.424-0.465,0.742-0.613c0.317-0.149,0.673-0.224,1.066-0.224
				c0.673,0,1.213,0.216,1.62,0.646c0.335,0.353,0.503,0.751,0.503,1.195c0,0.63-0.343,1.133-1.029,1.508
				c0.407,0.089,0.732,0.287,0.976,0.595s0.366,0.68,0.366,1.115c0,0.632-0.229,1.171-0.688,1.616s-1.029,0.668-1.711,0.668
				c-0.647,0-1.184-0.187-1.609-0.561C8.11,6.504,7.863,6.015,7.795,5.411z"/>
			<path i:knockout="Off" d="M13.388,1.516V0.234h4.688v1c-0.387,0.381-0.781,0.928-1.181,1.64s-0.705,1.47-0.915,2.272
				c-0.21,0.803-0.313,1.519-0.31,2.15h-1.328c0.023-0.989,0.228-1.997,0.614-3.024c0.386-1.028,0.903-1.947,1.549-2.757H13.388z"/>
			<path i:knockout="Off" d="M21.653,7.297V5.859h-2.922V4.661l3.098-4.552h1.152v4.547h0.891v1.203h-0.891v1.438H21.653z
				 M21.653,4.656V2.224l-1.637,2.433H21.653z"/>
		</g>
	</g>
	<g id="レイヤー_1" i:layer="yes" i:dimmedPercent="100" i:rgbTrio="#4F008000FFFF">
		<path i:knockout="Off" fill="none" stroke="#000000" stroke-width="1.2" d="M9.586,81.235h53v19.912h-53V81.235z"/>
		<path i:knockout="Off" fill="none" stroke="#000000" stroke-width="0.7" d="M58.822,99.479v-14.18H13.354v14.18H58.822z"/>
		<path i:knockout="Off" fill="none" stroke="#000000" stroke-width="0.7" d="M24.758,85.298v11.565"/>
		<path i:knockout="Off" fill="none" stroke="#000000" stroke-width="0.7" d="M36.133,85.298v14.18"/>
		<path i:knockout="Off" fill="none" stroke="#000000" stroke-width="0.7" d="M47.479,85.298v11.565"/>
		<g i:knockout="Off">
			<path i:knockout="Off" d="M53.939,93.832h-0.703v-4.48c-0.169,0.162-0.392,0.323-0.666,0.484
				c-0.274,0.162-0.521,0.283-0.74,0.363v-0.68c0.394-0.185,0.737-0.409,1.031-0.672c0.294-0.263,0.503-0.518,0.625-0.766h0.453
				V93.832z"/>
		</g>
		<g i:knockout="Off">
			<path i:knockout="Off" d="M43.574,93.16v0.672h-3.797c-0.005-0.169,0.022-0.332,0.083-0.488c0.097-0.258,0.252-0.511,0.467-0.76
				c0.214-0.248,0.521-0.537,0.92-0.864c0.62-0.517,1.04-0.923,1.262-1.221c0.221-0.298,0.331-0.58,0.331-0.849
				c0-0.278-0.1-0.513-0.3-0.704c-0.199-0.191-0.459-0.287-0.78-0.287c-0.339,0-0.61,0.104-0.813,0.311
				c-0.204,0.208-0.307,0.494-0.31,0.861l-0.719-0.094c0.05-0.539,0.235-0.95,0.558-1.232c0.322-0.282,0.756-0.424,1.3-0.424
				c0.549,0,0.983,0.152,1.304,0.457c0.319,0.305,0.479,0.683,0.479,1.133c0,0.229-0.047,0.455-0.14,0.676
				c-0.094,0.222-0.248,0.454-0.465,0.699c-0.216,0.245-0.576,0.581-1.08,1.009c-0.424,0.355-0.695,0.596-0.815,0.723
				c-0.12,0.126-0.219,0.253-0.297,0.381H43.574z"/>
		</g>
		<g i:knockout="Off">
			<path i:knockout="Off" d="M19.49,93.832v-1.375h-2.484v-0.641l2.625-3.719h0.563v3.719h0.781v0.641h-0.781v1.375H19.49z
				 M19.49,91.816V89.25l-1.792,2.566H19.49z"/>
		</g>
		<g i:knockout="Off">
			<path i:knockout="Off" d="M28.596,92.332l0.719-0.094c0.08,0.393,0.215,0.676,0.405,0.85c0.19,0.173,0.425,0.26,0.707,0.26
				c0.333,0,0.611-0.115,0.835-0.344c0.223-0.23,0.335-0.515,0.335-0.854c0-0.323-0.104-0.59-0.313-0.801
				c-0.209-0.209-0.476-0.314-0.798-0.314c-0.132,0-0.296,0.026-0.492,0.078l0.078-0.625c0.046,0.006,0.083,0.008,0.112,0.008
				c0.294,0,0.56-0.077,0.795-0.232c0.235-0.154,0.354-0.394,0.354-0.717c0-0.255-0.086-0.467-0.259-0.635s-0.396-0.252-0.669-0.252
				c-0.271,0-0.497,0.086-0.677,0.258c-0.181,0.172-0.296,0.43-0.348,0.773l-0.719-0.125c0.086-0.471,0.28-0.836,0.584-1.096
				c0.304-0.259,0.682-0.389,1.134-0.389c0.312,0,0.599,0.067,0.861,0.2c0.262,0.134,0.463,0.315,0.602,0.546
				c0.139,0.231,0.208,0.476,0.208,0.735c0,0.246-0.066,0.47-0.199,0.673c-0.133,0.201-0.33,0.362-0.59,0.481
				c0.338,0.078,0.604,0.241,0.797,0.487c0.192,0.246,0.289,0.555,0.289,0.925c0,0.501-0.183,0.926-0.547,1.273
				c-0.365,0.349-0.826,0.522-1.383,0.522c-0.503,0-0.92-0.147-1.252-0.443S28.643,92.803,28.596,92.332z"/>
		</g>
		<path i:knockout="Off" fill="none" stroke="#000000" stroke-width="0.7" d="M40.025,85.117v-2.5h-7.25v2.5"/>
		<path i:knockout="Off" fill="none" stroke="#000000" stroke-width="0.7" d="M16.979,85.298v-2.5h-3.625v2.5"/>
		<path i:knockout="Off" fill="none" stroke="#000000" stroke-width="0.7" d="M58.822,85.298h2.5v1.926h-2.5"/>
		<path i:knockout="Off" fill="none" stroke="#000000" stroke-width="0.7" d="M13.168,90.521h-2.359v1.926h2.359"/>
		<path i:knockout="Off" fill="none" stroke="#000000" stroke-width="0.7" d="M13.391,96.725h45.355"/>
		<g>
			<path i:knockout="Off" fill="none" stroke="#000000" stroke-width="1.2" stroke-linecap="round" d="M55.473,26.823"/>
			<path i:knockout="Off" fill="none" stroke="#000000" stroke-width="1.2" d="M13.879,35.506h44.936V21.403"/>
			<path i:knockout="Off" fill="none" stroke="#000000" stroke-width="0.7" d="M47.834,21.403v14.073 M36.492,21.403v14.073
				 M25.152,21.403v14.073"/>
			<path i:knockout="Off" fill="none" stroke="#000000" stroke-width="1.2" d="M33.287,21.305v-3.781h6.426v3.781H33.287z"/>
			<path i:knockout="Off" fill="none" stroke="#000000" stroke-width="1.2" d="M55.721,21.305v-3.781h3.063v3.781H55.721z"/>
			<g i:knockout="Off">
				<path i:knockout="Off" d="M54.047,30.954v-1.375h-2.484v-0.641l2.625-3.719h0.563v3.719h0.781v0.641H54.75v1.375H54.047z
					 M54.047,28.938v-2.567l-1.792,2.567H54.047z"/>
			</g>
			<g i:knockout="Off">
				<path i:knockout="Off" d="M40.453,29.454l0.719-0.094c0.08,0.393,0.215,0.676,0.405,0.849c0.189,0.174,0.425,0.26,0.706,0.26
					c0.333,0,0.611-0.115,0.835-0.344c0.223-0.229,0.335-0.514,0.335-0.854c0-0.323-0.104-0.59-0.313-0.8s-0.476-0.315-0.798-0.315
					c-0.132,0-0.296,0.026-0.492,0.078l0.077-0.625c0.047,0.005,0.084,0.008,0.112,0.008c0.294,0,0.56-0.078,0.795-0.232
					s0.354-0.394,0.354-0.716c0-0.256-0.087-0.468-0.259-0.636c-0.174-0.167-0.396-0.251-0.67-0.251
					c-0.271,0-0.496,0.086-0.676,0.258c-0.182,0.172-0.297,0.43-0.349,0.773l-0.719-0.125c0.086-0.471,0.28-0.836,0.585-1.096
					c0.304-0.259,0.682-0.389,1.134-0.389c0.312,0,0.599,0.067,0.861,0.2s0.463,0.316,0.603,0.546
					c0.139,0.23,0.208,0.476,0.208,0.734c0,0.246-0.066,0.471-0.199,0.673s-0.329,0.363-0.59,0.482
					c0.339,0.079,0.604,0.241,0.797,0.487c0.192,0.247,0.289,0.555,0.289,0.926c0,0.5-0.183,0.925-0.547,1.273
					c-0.364,0.348-0.825,0.522-1.383,0.522c-0.503,0-0.92-0.148-1.252-0.444S40.5,29.925,40.453,29.454z"/>
			</g>
			<g i:knockout="Off">
				<path i:knockout="Off" d="M32.77,30.282v0.672h-3.797c-0.005-0.169,0.022-0.332,0.083-0.488c0.098-0.258,0.253-0.511,0.467-0.76
					s0.521-0.537,0.92-0.864c0.619-0.516,1.04-0.923,1.261-1.221c0.221-0.297,0.332-0.581,0.332-0.848
					c0-0.278-0.1-0.513-0.299-0.704c-0.2-0.191-0.46-0.287-0.781-0.287c-0.339,0-0.611,0.104-0.814,0.311
					c-0.204,0.207-0.307,0.494-0.309,0.861l-0.719-0.094c0.049-0.539,0.235-0.95,0.558-1.232c0.322-0.283,0.755-0.424,1.299-0.424
					c0.549,0,0.983,0.153,1.303,0.458c0.32,0.305,0.48,0.682,0.48,1.133c0,0.229-0.046,0.455-0.14,0.676
					c-0.093,0.222-0.248,0.455-0.464,0.7c-0.217,0.245-0.577,0.581-1.081,1.009c-0.423,0.355-0.695,0.596-0.814,0.722
					c-0.12,0.126-0.219,0.254-0.297,0.381H32.77z"/>
			</g>
			<g i:knockout="Off">
				<path i:knockout="Off" d="M20.372,30.954h-0.703v-4.48c-0.169,0.162-0.392,0.323-0.666,0.484
					c-0.275,0.162-0.521,0.283-0.74,0.363v-0.68c0.393-0.185,0.737-0.409,1.031-0.672c0.294-0.263,0.502-0.518,0.625-0.766h0.453
					V30.954z"/>
			</g>
			<path i:knockout="Off" fill="none" stroke="#000000" stroke-width="1.2" stroke-linecap="square" d="M58.814,21.264L13.76,21.345
				l0.028,14.161"/>
			<path i:knockout="Off" fill="none" stroke="#000000" stroke-width="1.2" stroke-linecap="round" d="M61.635,29.108v-2.834h-2.836
				v2.834H61.635z"/>
			<path i:knockout="Off" fill="none" stroke="#000000" stroke-width="1.2" stroke-linecap="round" d="M13.76,24.179v-2.834h-2.835
				v2.834H13.76z"/>
			<path i:knockout="Off" fill="none" stroke="#000000" stroke-width="0.7" d="M13.781,32.772h45.033"/>
		</g>
	</g>
</svg>
