<?xml version="1.0" encoding="utf-8"?>
<!-- Generator: Adobe Illustrator 10.0, SVG Export Plug-In . SVG Version: 3.0.0 Build 77)  -->
<!DOCTYPE svg PUBLIC "-//W3C//DTD SVG 1.0//EN"    "http://www.w3.org/TR/2001/REC-SVG-20010904/DTD/svg10.dtd" [
	<!ENTITY ns_flows "http://ns.adobe.com/Flows/1.0/">
	<!ENTITY ns_extend "http://ns.adobe.com/Extensibility/1.0/">
	<!ENTITY ns_ai "http://ns.adobe.com/AdobeIllustrator/10.0/">
	<!ENTITY ns_graphs "http://ns.adobe.com/Graphs/1.0/">
	<!ENTITY ns_vars "http://ns.adobe.com/Variables/1.0/">
	<!ENTITY ns_imrep "http://ns.adobe.com/ImageReplacement/1.0/">
	<!ENTITY ns_sfw "http://ns.adobe.com/SaveForWeb/1.0/">
	<!ENTITY ns_custom "http://ns.adobe.com/GenericCustomNamespace/1.0/">
	<!ENTITY ns_adobe_xpath "http://ns.adobe.com/XPath/1.0/">
	<!ENTITY ns_svg "http://www.w3.org/2000/svg">
	<!ENTITY ns_xlink "http://www.w3.org/1999/xlink">
]>
<svg xmlns:x="&ns_extend;" xmlns:i="&ns_ai;" xmlns:graph="&ns_graphs;" i:viewOrigin="267.814 431.4604" i:rulerOrigin="-1 0.1104" i:pageBounds="1 841.8896 596 -0.1104" xmlns="&ns_svg;" xmlns:xlink="&ns_xlink;" xmlns:a="http://ns.adobe.com/AdobeSVGViewerExtensions/3.0/" width="58.087" height="29.695" viewBox="0 0 58.087 29.695" overflow="visible" enable-background="new 0 0 58.087 29.695" xml:space="preserve" id="svgObj" onload="parent.svgLoad('Top', document)">
	<metadata>
		<variableSets xmlns="&ns_vars;">
			<variableSet varSetName="binding1" locked="none">
				<variables></variables>
				<v:sampleDataSets xmlns="&ns_custom;" xmlns:v="&ns_vars;"></v:sampleDataSets>
			</variableSet>
		</variableSets>
		<sfw xmlns="&ns_sfw;">
			<slices></slices>
			<sliceSourceBounds y="388.708" x="257.815" width="80.371" height="63.363" bottomLeftOrigin="true"></sliceSourceBounds>
		</sfw>
	</metadata>
	<g id="レイヤー_1" i:layer="yes" i:dimmedPercent="100" i:rgbTrio="#4F008000FFFF">
		
			<path i:knockout="Off" fill-rule="evenodd" clip-rule="evenodd" fill="none" stroke="#000000" stroke-width="0.7" stroke-linecap="square" d="
			M21.969,26.042H0.6V6.239l3.512-2.953h19.228v11.239h22.725V3.286h7.717l3.707,3.285v19.472H24.624 M0.6,14.71h22.739v8.172
			 M57.488,14.71H46.157v11.332"/>
		<g i:knockout="Off">
			<path i:knockout="Off" fill-rule="evenodd" clip-rule="evenodd" d="M6.933,12.113H6.23v-4.48
				C6.061,7.794,5.838,7.956,5.564,8.117C5.289,8.278,5.042,8.399,4.824,8.48V7.8c0.393-0.185,0.737-0.409,1.031-0.672
				C6.149,6.866,6.357,6.61,6.48,6.363h0.453V12.113z"/>
			<path i:knockout="Off" fill-rule="evenodd" clip-rule="evenodd" d="M19.398,11.441v0.672h-3.797
				c-0.005-0.169,0.022-0.332,0.083-0.488c0.097-0.258,0.253-0.511,0.467-0.76c0.214-0.249,0.521-0.537,0.92-0.864
				c0.62-0.516,1.04-0.923,1.261-1.221c0.221-0.298,0.332-0.58,0.332-0.849c0-0.278-0.1-0.513-0.299-0.704
				c-0.2-0.191-0.46-0.287-0.781-0.287c-0.339,0-0.611,0.104-0.814,0.311c-0.204,0.208-0.307,0.494-0.309,0.861l-0.719-0.094
				c0.049-0.539,0.235-0.95,0.558-1.232c0.323-0.282,0.756-0.424,1.3-0.424c0.549,0,0.983,0.152,1.303,0.457
				c0.32,0.305,0.48,0.683,0.48,1.133c0,0.229-0.047,0.455-0.14,0.676c-0.093,0.221-0.248,0.454-0.464,0.699
				s-0.577,0.581-1.081,1.009c-0.423,0.355-0.695,0.596-0.815,0.722c-0.12,0.126-0.219,0.253-0.297,0.381H19.398z"/>
		</g>
		<g i:knockout="Off">
			<path i:knockout="Off" fill-rule="evenodd" clip-rule="evenodd" d="M49.896,10.66l0.719-0.094c0.08,0.393,0.215,0.676,0.405,0.85
				c0.189,0.173,0.425,0.26,0.706,0.26c0.333,0,0.611-0.115,0.835-0.344c0.223-0.229,0.335-0.514,0.335-0.853
				c0-0.323-0.104-0.59-0.313-0.8s-0.476-0.315-0.798-0.315c-0.132,0-0.296,0.026-0.492,0.078l0.077-0.625
				c0.047,0.005,0.084,0.008,0.112,0.008c0.294,0,0.56-0.077,0.795-0.232c0.235-0.155,0.354-0.394,0.354-0.717
				c0-0.255-0.087-0.467-0.259-0.635c-0.174-0.168-0.396-0.252-0.67-0.252c-0.271,0-0.496,0.086-0.676,0.258
				c-0.182,0.172-0.297,0.43-0.349,0.773l-0.719-0.125c0.086-0.471,0.28-0.836,0.585-1.096c0.304-0.259,0.682-0.389,1.134-0.389
				c0.312,0,0.599,0.067,0.861,0.2c0.263,0.134,0.463,0.315,0.603,0.546c0.139,0.231,0.208,0.476,0.208,0.735
				c0,0.246-0.066,0.47-0.199,0.672s-0.329,0.363-0.59,0.482c0.339,0.078,0.604,0.241,0.797,0.487
				c0.192,0.246,0.289,0.555,0.289,0.925c0,0.501-0.183,0.926-0.547,1.273c-0.364,0.349-0.825,0.522-1.383,0.522
				c-0.503,0-0.92-0.147-1.252-0.443S49.943,11.13,49.896,10.66z"/>
		</g>
		<g i:knockout="Off">
			<path i:knockout="Off" fill-rule="evenodd" clip-rule="evenodd" d="M50.973,19.968c-0.291-0.106-0.507-0.259-0.647-0.457
				s-0.211-0.436-0.211-0.712c0-0.417,0.149-0.768,0.447-1.051c0.299-0.285,0.696-0.427,1.191-0.427
				c0.498,0,0.899,0.146,1.202,0.437c0.305,0.29,0.456,0.644,0.456,1.061c0,0.266-0.069,0.497-0.208,0.694
				c-0.139,0.196-0.35,0.349-0.631,0.455c0.35,0.114,0.616,0.299,0.799,0.554s0.274,0.559,0.274,0.912
				c0,0.489-0.173,0.899-0.519,1.232s-0.801,0.499-1.364,0.499s-1.019-0.167-1.364-0.501s-0.519-0.75-0.519-1.25
				c0-0.371,0.095-0.683,0.284-0.934S50.624,20.059,50.973,19.968z M50.599,21.419c0,0.2,0.046,0.394,0.139,0.58
				c0.092,0.187,0.233,0.331,0.423,0.435c0.189,0.102,0.393,0.153,0.608,0.153c0.341,0,0.618-0.107,0.835-0.323
				c0.215-0.215,0.323-0.489,0.323-0.821c0-0.337-0.111-0.616-0.333-0.837c-0.223-0.221-0.506-0.331-0.849-0.331
				c-0.335,0-0.61,0.109-0.825,0.327C50.707,20.82,50.599,21.092,50.599,21.419z M50.833,18.775c0,0.271,0.085,0.492,0.257,0.664
				c0.171,0.172,0.398,0.258,0.681,0.258c0.274,0,0.497-0.085,0.667-0.256s0.255-0.38,0.255-0.627c0-0.258-0.088-0.475-0.263-0.65
				S52.033,17.9,51.763,17.9c-0.272,0-0.495,0.086-0.669,0.258S50.833,18.536,50.833,18.775z"/>
		</g>
		<g i:knockout="Off">
			<path i:knockout="Off" fill-rule="evenodd" clip-rule="evenodd" d="M7.021,23.072v-1.375H4.537v-0.641l2.625-3.719h0.563v3.719
				h0.781v0.641H7.724v1.375H7.021z M7.021,21.056V18.49l-1.792,2.566H7.021z"/>
			<path i:knockout="Off" fill-rule="evenodd" clip-rule="evenodd" d="M31.077,18.744l-0.703,0.063
				c-0.063-0.277-0.152-0.479-0.268-0.604C29.915,18,29.679,17.9,29.398,17.9c-0.226,0-0.426,0.063-0.602,0.187
				c-0.218,0.162-0.391,0.396-0.52,0.705c-0.128,0.31-0.195,0.75-0.2,1.323c0.17-0.258,0.377-0.449,0.623-0.574
				s0.503-0.188,0.773-0.188c0.47,0,0.871,0.173,1.202,0.518s0.496,0.791,0.496,1.338c0,0.359-0.078,0.693-0.233,1.002
				c-0.156,0.309-0.37,0.545-0.642,0.709s-0.581,0.246-0.925,0.246c-0.588,0-1.068-0.216-1.44-0.646
				c-0.371-0.432-0.557-1.141-0.557-2.13c0-1.106,0.206-1.91,0.617-2.413c0.359-0.437,0.842-0.655,1.451-0.655
				c0.453,0,0.825,0.126,1.114,0.378S31.02,18.299,31.077,18.744z M28.187,21.214c0,0.242,0.051,0.474,0.155,0.694
				s0.247,0.39,0.43,0.505c0.183,0.116,0.379,0.174,0.589,0.174c0.304,0,0.562-0.12,0.773-0.358c0.212-0.24,0.318-0.564,0.318-0.976
				c0-0.396-0.105-0.706-0.314-0.935c-0.209-0.227-0.478-0.341-0.805-0.341c-0.319,0-0.59,0.114-0.813,0.341
				C28.297,20.547,28.187,20.845,28.187,21.214z"/>
		</g>
		<g i:knockout="Off">
			<path i:knockout="Off" fill-rule="evenodd" clip-rule="evenodd" d="M38.827,18.087v-0.672h3.703v0.544
				c-0.365,0.388-0.728,0.904-1.086,1.548c-0.359,0.645-0.636,1.308-0.832,1.987c-0.141,0.48-0.23,1.006-0.27,1.577h-0.719
				c0.008-0.451,0.096-0.996,0.266-1.636c0.168-0.639,0.41-1.255,0.727-1.848c0.315-0.594,0.651-1.094,1.008-1.501H38.827z"/>
		</g>
		<g i:knockout="Off">
			<path i:knockout="Off" fill-rule="evenodd" clip-rule="evenodd" d="M16.15,21.572l0.719-0.063
				c0.055,0.358,0.182,0.628,0.379,0.808c0.198,0.181,0.441,0.271,0.729,0.271c0.349,0,0.639-0.127,0.871-0.382
				c0.232-0.254,0.348-0.592,0.348-1.013c0-0.399-0.111-0.715-0.332-0.946c-0.222-0.23-0.519-0.347-0.891-0.347
				c-0.232,0-0.438,0.051-0.617,0.152s-0.322,0.233-0.426,0.395l-0.656-0.094l0.563-2.938h2.844v0.672h-2.285l-0.313,1.549
				c0.344-0.241,0.704-0.361,1.082-0.361c0.5,0,0.922,0.173,1.266,0.519c0.344,0.347,0.516,0.791,0.516,1.335
				c0,0.518-0.151,0.966-0.453,1.343c-0.367,0.463-0.869,0.694-1.504,0.694c-0.521,0-0.946-0.146-1.275-0.437
				C16.385,22.438,16.197,22.052,16.15,21.572z"/>
		</g>
		<path i:knockout="Off" fill-rule="evenodd" clip-rule="evenodd" fill="none" stroke="#000000" stroke-width="0.7" d="
			M34.795,26.134V14.571"/>
		<path i:knockout="Off" fill-rule="evenodd" clip-rule="evenodd" fill="none" stroke="#000000" stroke-width="0.7" d="
			M11.994,26.134V3.333"/>
		<path i:knockout="Off" fill-rule="evenodd" clip-rule="evenodd" fill="none" stroke="#000000" stroke-width="0.7" d="
			M37.923,14.517v-3.16h-6.319v3.16"/>
		
			<path i:knockout="Off" fill-rule="evenodd" clip-rule="evenodd" fill="none" stroke="#000000" stroke-width="1.2" stroke-linecap="round" d="
			M0.6,29.095h56.888V0.6H0.6V29.095z"/>
		<path i:knockout="Off" fill-rule="evenodd" clip-rule="evenodd" fill="none" stroke="#000000" stroke-width="0.7" d="
			M24.624,26.042v-3.16h-2.654v3.16"/>
	</g>
</svg>
