<?xml version="1.0" encoding="utf-8"?>
<!-- Generator: Adobe Illustrator 10.0, SVG Export Plug-In . SVG Version: 3.0.0 Build 77)  -->
<!DOCTYPE svg PUBLIC "-//W3C//DTD SVG 1.0//EN" "http://www.w3.org/TR/2001/REC-SVG-20010904/DTD/svg10.dtd"[
	<!ENTITY ns_flows "http://ns.adobe.com/Flows/1.0/">
	<!ENTITY ns_extend "http://ns.adobe.com/Extensibility/1.0/">
	<!ENTITY ns_ai "http://ns.adobe.com/AdobeIllustrator/10.0/">
	<!ENTITY ns_graphs "http://ns.adobe.com/Graphs/1.0/">
	<!ENTITY ns_vars "http://ns.adobe.com/Variables/1.0/">
	<!ENTITY ns_imrep "http://ns.adobe.com/ImageReplacement/1.0/">
	<!ENTITY ns_sfw "http://ns.adobe.com/SaveForWeb/1.0/">
	<!ENTITY ns_custom "http://ns.adobe.com/GenericCustomNamespace/1.0/">
	<!ENTITY ns_adobe_xpath "http://ns.adobe.com/XPath/1.0/">
	<!ENTITY ns_svg "http://www.w3.org/2000/svg">
	<!ENTITY ns_xlink "http://www.w3.org/1999/xlink">
]>
<svg xmlns:x="&ns_extend;" xmlns:i="&ns_ai;" xmlns:graph="&ns_graphs;" d1p1:viewOrigin="29.1875 815.1821" d1p1:rulerOrigin="-1 0.1104" d1p1:pageBounds="1 841.8896 596 -0.1104" xmlns="&ns_svg;" xmlns:xlink="&ns_xlink;" xmlns:a="http://ns.adobe.com/AdobeSVGViewerExtensions/3.0/" width="228.084" height="170.8" viewBox="0 0 228.084 170.8" overflow="visible" enable-background="new 0 0 228.084 170.8" xml:space="preserve" id="svgObj" onload="parent.svgLoad('Bottom', document)" xmlns:d1p1="http://ns.adobe.com/AdobeIllustrator/10.0/">
	<metadata>
		<variableSets xmlns="&ns_vars;">
			<variableSet varSetName="binding1" locked="none">
				<variables></variables>
				<v:sampleDataSets xmlns="&ns_custom;" xmlns:v="&ns_vars;"></v:sampleDataSets>
			</variableSet>
		</variableSets>
		<sfw xmlns="&ns_sfw;">
			<slices></slices>
			<sliceSourceBounds x="-7893" y="629.464" width="16383" height="185.718" bottomLeftOrigin="true"></sliceSourceBounds>
		</sfw>
	</metadata>
	<g id="translation" i:layer="yes" i:dimmedPercent="3" i:rgbTrio="#4F004F00FFFF" xmlns:i="http://ns.adobe.com/AdobeIllustrator/10.0/">
	</g>
	<g id="text" i:layer="yes" i:dimmedPercent="3" i:rgbTrio="#FFFFFFFF4F00" xmlns:i="http://ns.adobe.com/AdobeIllustrator/10.0/">
	</g>
	<g id="image" i:layer="yes" i:dimmedPercent="3" i:rgbTrio="#4F008000FFFF" xmlns:i="http://ns.adobe.com/AdobeIllustrator/10.0/">
		
			<path i:knockout="Off" fill-rule="evenodd" clip-rule="evenodd" fill="none" stroke="#000000" stroke-linecap="round" stroke-linejoin="round" stroke-miterlimit="1" d="&#xD;&#xA;			M94.816,22.234l-44.33,15.229" />
		
			<path i:knockout="Off" fill-rule="evenodd" clip-rule="evenodd" fill="none" stroke="#000000" stroke-linecap="round" stroke-linejoin="round" stroke-miterlimit="1" d="&#xD;&#xA;			M42.957,44.768L31.612,81.279" />
		
			<path i:knockout="Off" fill-rule="evenodd" clip-rule="evenodd" fill="none" stroke="#000000" stroke-linecap="round" stroke-linejoin="round" stroke-miterlimit="1" d="&#xD;&#xA;			M30.687,92.792l8.244,31.382" />
		
			<path i:knockout="Off" fill-rule="evenodd" clip-rule="evenodd" fill="none" stroke="#000000" stroke-linecap="round" stroke-linejoin="round" stroke-miterlimit="1" d="&#xD;&#xA;			M42.957,44.768c0.957-3.081,3.982-6.055,7.53-7.304" />
		
			<path i:knockout="Off" fill-rule="evenodd" clip-rule="evenodd" fill="none" stroke="#000000" stroke-linecap="round" stroke-linejoin="round" stroke-miterlimit="1" d="&#xD;&#xA;			M31.612,81.279c-0.925,2.977-2.897,7.866-0.925,11.514" />
		
			<path i:knockout="Off" fill-rule="evenodd" clip-rule="evenodd" fill="none" stroke="#000000" stroke-linecap="round" stroke-linejoin="round" stroke-miterlimit="1" d="&#xD;&#xA;			M38.174,121.295l2.709,17.217" />
		
			<path i:knockout="Off" fill-rule="evenodd" clip-rule="evenodd" fill="none" stroke="#000000" stroke-linecap="round" stroke-linejoin="round" stroke-miterlimit="1" d="&#xD;&#xA;			M46.313,141.43l8.966-1.632" />
		
			<path i:knockout="Off" fill-rule="evenodd" clip-rule="evenodd" fill="none" stroke="#000000" stroke-linecap="round" stroke-linejoin="round" stroke-miterlimit="1" d="&#xD;&#xA;			M61.594,144.791l0.665,7.757" />
		
			<path i:knockout="Off" fill-rule="evenodd" clip-rule="evenodd" fill="none" stroke="#000000" stroke-linecap="round" stroke-linejoin="round" stroke-miterlimit="1" d="&#xD;&#xA;			M65.551,155.019l15.387-1.165" />
		
			<path i:knockout="Off" fill-rule="evenodd" clip-rule="evenodd" fill="none" stroke="#000000" stroke-linecap="round" stroke-linejoin="round" stroke-miterlimit="1" d="&#xD;&#xA;			M86.012,152.529c6.879-0.082,16.327-0.654,23.557-1.298" />
		
			<path i:knockout="Off" fill-rule="evenodd" clip-rule="evenodd" fill="none" stroke="#000000" stroke-linecap="round" stroke-linejoin="round" stroke-miterlimit="1" d="&#xD;&#xA;			M116.858,151.942l11.011,4.614" />
		
			<path i:knockout="Off" fill-rule="evenodd" clip-rule="evenodd" fill="none" stroke="#000000" stroke-linecap="round" stroke-linejoin="round" stroke-miterlimit="1" d="&#xD;&#xA;			M127.869,156.557l4.667,4.381" />
		
			<path i:knockout="Off" fill-rule="evenodd" clip-rule="evenodd" fill="none" stroke="#000000" stroke-linecap="round" stroke-linejoin="round" stroke-miterlimit="1" d="&#xD;&#xA;			M138.791,159.985l1.345,7.107" />
		
			<path i:knockout="Off" fill-rule="evenodd" clip-rule="evenodd" fill="none" stroke="#000000" stroke-linecap="round" stroke-linejoin="round" stroke-miterlimit="1" d="&#xD;&#xA;			M140.134,167.091l10.055,3.209" />
		
			<path i:knockout="Off" fill-rule="evenodd" clip-rule="evenodd" fill="none" stroke="#000000" stroke-linecap="round" stroke-linejoin="round" stroke-miterlimit="1" d="&#xD;&#xA;			M159.969,167.707c0.807-0.344,1.598-0.726,2.366-1.149" />
		
			<path i:knockout="Off" fill-rule="evenodd" clip-rule="evenodd" fill="none" stroke="#000000" stroke-linecap="round" stroke-linejoin="round" stroke-miterlimit="1" d="&#xD;&#xA;			M150.188,170.3c1.5-0.22,3.032-0.503,4.558-0.878" />
		
			<path i:knockout="Off" fill-rule="evenodd" clip-rule="evenodd" fill="none" stroke="#000000" stroke-linecap="round" stroke-linejoin="round" stroke-miterlimit="1" d="&#xD;&#xA;			M162.342,166.554c5.32,0.28,10.006-0.136,13.518-0.683" />
		
			<path i:knockout="Off" fill-rule="evenodd" clip-rule="evenodd" fill="none" stroke="#000000" stroke-linecap="round" stroke-linejoin="round" stroke-miterlimit="1" d="&#xD;&#xA;			M184.55,166.036c2.483-4.975,3.739-5.7,4.505-6.143c0.708-0.409,3.475-1.818,6.694-0.239" />
		
			<path i:knockout="Off" fill-rule="evenodd" clip-rule="evenodd" fill="none" stroke="#000000" stroke-linecap="round" stroke-linejoin="round" stroke-miterlimit="1" d="&#xD;&#xA;			M100.452,23.968l7.006-1.925" />
		
			<path i:knockout="Off" fill-rule="evenodd" clip-rule="evenodd" fill="none" stroke="#000000" stroke-linecap="round" stroke-linejoin="round" stroke-miterlimit="1" d="&#xD;&#xA;			M94.814,22.235c1.119-0.384,3.625,0.217,5.794,1.689" />
		
			<path i:knockout="Off" fill-rule="evenodd" clip-rule="evenodd" fill="none" stroke="#000000" stroke-linecap="round" stroke-linejoin="round" stroke-miterlimit="1" d="&#xD;&#xA;			M107.456,22.043c1.2-0.33,3.224,1.601,4.713,3.758" />
		
			<path i:knockout="Off" fill-rule="evenodd" clip-rule="evenodd" fill="none" stroke="#000000" stroke-linecap="round" stroke-linejoin="round" stroke-miterlimit="1" d="&#xD;&#xA;			M122.092,22.336c0,0-4.338,0-5.809,0s-3.136,0.652-4.044,1.176v2.392" />
		
			<path i:knockout="Off" fill-rule="evenodd" clip-rule="evenodd" fill="none" stroke="#000000" stroke-linecap="round" stroke-linejoin="round" stroke-miterlimit="1" d="&#xD;&#xA;			M121.65,23.146c0,0,0-6.176,0-6.985s1.618-1.691,2.427-1.691s2.94,0,3.529,0s1.544,1.029,1.544,2.5s0,6.912,0,6.912&#xD;&#xA;			s-1.029,0.294-2.059,0.294" />
		
			<path i:knockout="Off" fill-rule="evenodd" clip-rule="evenodd" fill="none" stroke="#000000" stroke-linecap="round" stroke-linejoin="round" stroke-miterlimit="1" d="&#xD;&#xA;			M127.81,24.132v4.086" />
		
			<path i:knockout="Off" fill-rule="evenodd" clip-rule="evenodd" fill="none" stroke="#000000" stroke-linecap="round" stroke-linejoin="round" stroke-miterlimit="1" d="&#xD;&#xA;			M127.81,27.778c0.764,0,1.119,2.279,1.119,2.279h1.25" />
		
			<path i:knockout="Off" fill-rule="evenodd" clip-rule="evenodd" fill="none" stroke="#000000" stroke-linecap="round" stroke-linejoin="round" stroke-miterlimit="1" d="&#xD;&#xA;			M130.253,31.601l-0.074-3.309c0,0,2.795-1.397,4.118-1.397s2.573,0,2.573,0s0-2.72,0-4.118s1.545-2.132,2.206-2.132&#xD;&#xA;			s2.206,1.177,2.206,3.015s0,3.75,0,3.75" />
		
			<path i:knockout="Off" fill-rule="evenodd" clip-rule="evenodd" fill="none" stroke="#000000" stroke-linecap="round" stroke-linejoin="round" stroke-miterlimit="1" d="&#xD;&#xA;			M140.253,27.41c0,0,4.484,0,5.44,0s0.515,1.912,0.515,1.912" />
		
			<path i:knockout="Off" fill-rule="evenodd" clip-rule="evenodd" fill="none" stroke="#000000" stroke-linecap="round" stroke-linejoin="round" stroke-miterlimit="1" d="&#xD;&#xA;			M146.208,28.88c0,0,1.572-0.565,1.572-0.908s1.663-0.342,1.663-0.342s0.589,0.956,0.589,1.838" />
		
			<path i:knockout="Off" fill-rule="evenodd" clip-rule="evenodd" fill="none" stroke="#000000" stroke-linecap="round" stroke-linejoin="round" stroke-miterlimit="1" d="&#xD;&#xA;			M162.104,38.545c0-3.056-4.204-2.427-5.136-2.427s-1.2-0.693-1.2-2.384s-0.735-12.941-0.735-12.941s-3.235,0-3.971,0&#xD;&#xA;			s-0.883,2.059-0.883,3.088s0.628,1.838,0.628,2.647s0,2.935,0,2.935l-0.774,0.447" />
		
			<path i:knockout="Off" fill-rule="evenodd" clip-rule="evenodd" fill="none" stroke="#000000" stroke-linecap="round" stroke-linejoin="round" stroke-miterlimit="1" d="&#xD;&#xA;			M162.085,38.22c0,0,2.285,1.617,2.285,2.205s0.662,2.868,0.662,6.618" />
		
			<path i:knockout="Off" fill-rule="evenodd" clip-rule="evenodd" fill="none" stroke="#000000" stroke-linecap="round" stroke-linejoin="round" stroke-miterlimit="1" d="&#xD;&#xA;			M164.224,47.042c1.812,0.579,5.685,2.483,7.94-1.104c1.832-2.913,1.029-3.824,0.662-5.221s-0.552-2.61,0.294-3.456&#xD;&#xA;			s4.117-0.845,6.25-0.845c0.147,0,0.285,0.046,0.413,0.131" />
		
			<path i:knockout="Off" fill-rule="evenodd" clip-rule="evenodd" fill="none" stroke="#000000" stroke-linecap="round" stroke-linejoin="round" stroke-miterlimit="1" d="&#xD;&#xA;			M181.399,48.653c1.368,0.79,3.927,0.815,3.927,3.977s0,11.323,0,11.323" />
		
			<path i:knockout="Off" fill-rule="evenodd" clip-rule="evenodd" fill="none" stroke="#000000" stroke-linecap="round" stroke-linejoin="round" stroke-miterlimit="1" d="&#xD;&#xA;			M185.326,61.306c2.941,0.809,7.794,2.426,8.529,2.426s2.717-1.617,4.117-0.809s4.813,3.215,5.568,3.215s2.851-0.605,5.167,1.711" />
		
			<path i:knockout="Off" fill-rule="evenodd" clip-rule="evenodd" fill="none" stroke="#000000" stroke-linecap="round" stroke-linejoin="round" stroke-miterlimit="1" d="&#xD;&#xA;			M208.408,67.569l1.582-0.914l5.409-0.497c0,0-0.735-11.985-0.735-15.515s0.276-4.246,1.241-4.246s1.848,5.496,2.215,11.967&#xD;&#xA;			s0.367,12.5,0.367,12.5" />
		
			<path i:knockout="Off" fill-rule="evenodd" clip-rule="evenodd" fill="none" stroke="#000000" stroke-linecap="round" stroke-linejoin="round" stroke-miterlimit="1" d="&#xD;&#xA;			M218.459,67.998h2.014l0.589,4.485v1.029h-2.279c0,0-1.1,1.933-2.756,1.591" />
		
			<path i:knockout="Off" fill-rule="evenodd" clip-rule="evenodd" fill="none" stroke="#000000" stroke-linecap="round" stroke-linejoin="round" stroke-miterlimit="1" d="&#xD;&#xA;			M215.022,74.523c1.705,0.984,2.73,2.884,2.73,4.355h8.088l0.368,2.5" />
		
			<path i:knockout="Off" fill-rule="evenodd" clip-rule="evenodd" fill="none" stroke="#000000" stroke-linecap="round" stroke-linejoin="round" stroke-miterlimit="1" d="&#xD;&#xA;			M225.979,79.814h1.605" />
		
			<path i:knockout="Off" fill-rule="evenodd" clip-rule="evenodd" fill="none" stroke="#000000" stroke-linecap="round" stroke-linejoin="round" stroke-miterlimit="1" d="&#xD;&#xA;			M227.584,120.937h-11.008l-1.177,2.647c0,0,0.955,1.544,0.955,3.235s-2.205,3.602-2.205,4.485c0,1.765-0.146,4.044-2.279,4.485&#xD;&#xA;			s-3.53,0.662-4.78,2.647s-2.573,4.412-2.573,5.809s0,3.236,0.441,5.074s-0.62,2.102-1.447,2.928s-1.861,1.557-1.861,3.101&#xD;&#xA;			s-0.441,2.569-1.397,3.456c-0.701,0.65-2.343,1.519-4.509,0.85" />
		
			<path i:knockout="Off" fill-rule="evenodd" clip-rule="evenodd" fill="none" stroke="#000000" stroke-linecap="round" stroke-linejoin="round" stroke-miterlimit="1" d="&#xD;&#xA;			M175.843,165.873c1.705-0.291,2.976,0.467,4.042,1.533c1.544,1.544,3.86,0.244,4.67-1.378" />
		
			<path i:knockout="Off" fill-rule="evenodd" clip-rule="evenodd" fill="none" stroke="#000000" stroke-linecap="round" stroke-linejoin="round" stroke-miterlimit="1" d="&#xD;&#xA;			M159.97,167.705c-0.379,1.025-2.202,2.775-5.225,1.716" />
		
			<path i:knockout="Off" fill-rule="evenodd" clip-rule="evenodd" fill="none" stroke="#000000" stroke-linecap="round" stroke-linejoin="round" stroke-miterlimit="1" d="&#xD;&#xA;			M139.813,159.792c-1.059,0-2.426,0.789-3.485,1.401s-2.955,0.529-3.791-0.255" />
		
			<path i:knockout="Off" fill-rule="evenodd" clip-rule="evenodd" fill="none" stroke="#000000" stroke-linecap="round" stroke-linejoin="round" stroke-miterlimit="1" d="&#xD;&#xA;			M116.855,151.941c-1.168,0-3.543,0.727-4.543,0.727c-0.625,0-1.885-0.732-2.742-1.435" />
		
			<path i:knockout="Off" fill-rule="evenodd" clip-rule="evenodd" fill="none" stroke="#000000" stroke-linecap="round" stroke-linejoin="round" stroke-miterlimit="1" d="&#xD;&#xA;			M80.112,153.918c1.145,0.235,2.283,0.354,2.906,0.354c0.713,0,1.897-0.713,2.996-1.742c0,0,4.049-2.863,4.049-9.238" />
		
			<path i:knockout="Off" fill-rule="evenodd" clip-rule="evenodd" fill="none" stroke="#000000" stroke-linecap="round" stroke-linejoin="round" stroke-miterlimit="1" d="&#xD;&#xA;			M65.551,155.019c-1.501,0.114-3.155-0.869-3.272-2.234" />
		
			<path i:knockout="Off" fill-rule="evenodd" clip-rule="evenodd" fill="none" stroke="#000000" stroke-linecap="round" stroke-linejoin="round" stroke-miterlimit="1" d="&#xD;&#xA;			M61.595,144.8c-2.017-1.164-4.38-3.195-6.362-5.046" />
		
			<path i:knockout="Off" fill-rule="evenodd" clip-rule="evenodd" fill="none" stroke="#000000" stroke-linecap="round" stroke-linejoin="round" stroke-miterlimit="1" d="&#xD;&#xA;			M40.884,138.512c0.201,1.277,2.967,3.367,5.431,2.918" />
		
			<path i:knockout="Off" fill-rule="evenodd" clip-rule="evenodd" fill="none" stroke="#000000" stroke-width="0.567" stroke-linecap="round" stroke-linejoin="round" stroke-miterlimit="1" d="&#xD;&#xA;			M50.438,55.292l-8.375,31.125" />
		
			<path i:knockout="Off" fill-rule="evenodd" clip-rule="evenodd" fill="none" stroke="#000000" stroke-width="0.567" stroke-linecap="round" stroke-linejoin="round" stroke-miterlimit="1" d="&#xD;&#xA;			M36.313,97.417c3.875,1,19.375,2.5,21.875,1.75" />
		
			<path i:knockout="Off" fill-rule="evenodd" clip-rule="evenodd" fill="none" stroke="#000000" stroke-width="0.567" stroke-linecap="round" stroke-linejoin="round" stroke-miterlimit="1" d="&#xD;&#xA;			M42.313,100.042c0.625,4.125,7.405,22.232,10.25,23.875" />
		
			<path i:knockout="Off" fill-rule="evenodd" clip-rule="evenodd" fill="none" stroke="#000000" stroke-width="0.567" stroke-linecap="round" stroke-linejoin="round" stroke-miterlimit="1" d="&#xD;&#xA;			M45.938,132.417c4.75,0,17.269-4.659,19.375-5.875" />
		
			<path i:knockout="Off" fill-rule="evenodd" clip-rule="evenodd" fill="none" stroke="#000000" stroke-width="0.567" stroke-linecap="round" stroke-linejoin="round" stroke-miterlimit="1" d="&#xD;&#xA;			M56.873,129.85c4.253,4.253,20.564,13.442,25.564,14.067" />
		
			<path i:knockout="Off" fill-rule="evenodd" clip-rule="evenodd" fill="none" stroke="#000000" stroke-linecap="round" stroke-linejoin="round" stroke-miterlimit="1" d="&#xD;&#xA;			M71.242,91.287l-5.43-1.494l-7.75-0.625c0,0-4.625-4.625-4.625-7.125s1.669-4.799,3.75-6s0.875-0.875,7.375-0.875&#xD;&#xA;			s6.5,4.625,6.5,10.875h4l1.035,0.598" />
		
			<path i:knockout="Off" fill-rule="evenodd" clip-rule="evenodd" fill="none" stroke="#000000" stroke-linecap="round" stroke-linejoin="round" stroke-miterlimit="1" d="&#xD;&#xA;			M58.563,84.792c-2.135-1.232-2.479-5.75-0.25-5.75h7.75c2,0,2,1.375,2,2.375s-0.875,3.375-3,3.375H58.563" />
		
			<path i:knockout="Off" fill-rule="evenodd" clip-rule="evenodd" fill="none" stroke="#000000" stroke-width="0.567" stroke-linecap="round" stroke-linejoin="round" stroke-miterlimit="1" d="&#xD;&#xA;			M186.938,89.792c5.125,3.75,8.375,7.25,8.375,7.25" />
		
			<path i:knockout="Off" fill-rule="evenodd" clip-rule="evenodd" fill="none" stroke="#000000" stroke-width="0.567" stroke-linecap="round" stroke-linejoin="round" stroke-miterlimit="1" d="&#xD;&#xA;			M197.688,99.292c1.875,1.875,5.375,8.5,5.375,11.125" />
		
			<path i:knockout="Off" fill-rule="evenodd" clip-rule="evenodd" fill="none" stroke="#000000" stroke-width="0.567" stroke-linecap="round" stroke-linejoin="round" stroke-miterlimit="1" d="&#xD;&#xA;			M204.188,116.917c0.343,3.52,0,6.206,0,11.875" />
		
			<path i:knockout="Off" fill-rule="evenodd" clip-rule="evenodd" fill="none" stroke="#000000" stroke-width="0.567" stroke-linecap="round" stroke-linejoin="round" stroke-miterlimit="1" d="&#xD;&#xA;			M203.188,135.042c-0.875,3.25-2.813,6.938-4.25,8.375" />
		
			<path i:knockout="Off" fill-rule="evenodd" clip-rule="evenodd" fill="none" stroke="#000000" stroke-width="0.567" stroke-linecap="round" stroke-linejoin="round" stroke-miterlimit="1" d="&#xD;&#xA;			M194.063,148.042c-2.375,2.375-8.838,7.848-12.125,8.875" />
		
			<path i:knockout="Off" fill-rule="evenodd" clip-rule="evenodd" fill="none" stroke="#000000" stroke-width="0.567" stroke-linecap="round" stroke-linejoin="round" stroke-miterlimit="1" d="&#xD;&#xA;			M135.938,145.792c7,9.5,14.769,18.526,40.375,16.25" />
		
			<path i:knockout="Off" fill-rule="evenodd" clip-rule="evenodd" fill="none" stroke="#000000" stroke-width="0.567" stroke-linecap="round" stroke-linejoin="round" stroke-miterlimit="1" d="&#xD;&#xA;			M43.313,49.792c3.762,2.172,20.5,11.25,21.125,11.25" />
		
			<path i:knockout="Off" fill-rule="evenodd" clip-rule="evenodd" fill="none" stroke="#000000" stroke-width="0.567" stroke-linecap="round" stroke-linejoin="round" stroke-miterlimit="1" d="&#xD;&#xA;			M66.938,58.292v-8.75l1.223-0.706v-3.169l-1.242,0.717h-1.731h-3.75l-1.864-1.077h-1.511c0,0-1-0.765-1-1.89s0.125-3.375,1-3.375&#xD;&#xA;			s1.575-0.403,2.246-0.791s5.004-0.388,5.004-0.388h1.75l0.313,0.514c0,0,3.165-1.303,4.58-1.303s3.314,0,3.314,0l0.497-0.287&#xD;&#xA;			l2.036-0.235v-2.197l-0.261-0.596v-1.862l0.782-0.782h2.346l0.601,0.347l-0.08,0.584h3.463c0,0,0.615,0.227,0.917,0.529&#xD;&#xA;			s-0.022,2.822-0.022,3.753s-0.774,0.484-0.774,0.484s0.458,1.136,0.774,1.452s0.316,2.346,0.316,2.83s-1.024,1.974-1.434,1.974&#xD;&#xA;			s-2.532,0.186-2.532,0.186l-0.856,0.187l-1.117,1.154h-3.612l-0.64-0.37c0,0,0.308,2.859,0.64,3.051s0.98,0.566,0.98,0.566&#xD;&#xA;			l0.212,1.371l0.335,0.633c0,0,0,1.862,0,3.463" />
		
			<path i:knockout="Off" fill-rule="evenodd" clip-rule="evenodd" fill="none" stroke="#000000" stroke-width="0.567" stroke-linecap="round" stroke-linejoin="round" stroke-miterlimit="1" d="&#xD;&#xA;			M112.239,26.375h-5.76l-1.594-0.92c0,0-4.574-0.587-6.657,0s-2.417,1.337-2.417,1.337l0.5,16.75h1.5c0,0,0.019,1.4,2.426,1.4&#xD;&#xA;			s5.824-0.162,5.824-1.067" />
		
			<path i:knockout="Off" fill-rule="evenodd" clip-rule="evenodd" fill="none" stroke="#000000" stroke-width="0.567" stroke-linecap="round" stroke-linejoin="round" stroke-miterlimit="1" d="&#xD;&#xA;			M106.654,43.534h17.491l2.917,3.258" />
		
			<path i:knockout="Off" fill-rule="evenodd" clip-rule="evenodd" fill="none" stroke="#000000" stroke-width="0.567" stroke-linecap="round" stroke-linejoin="round" stroke-miterlimit="1" d="&#xD;&#xA;			M128.646,64.126c0-2.417-1.235-2.937-1.692-3.394s0.942-4.606,0.942-5.856s0.521-5.117-0.416-6.75s-1.584-6.083-1.584-6.083&#xD;&#xA;			l3.808,0.1l0.488,1.206l11.621-0.889c0,0,0.833,5.417,0.833,7.167s0,3.75,0,3.75l-6.5,5.833l2.25,2.417" />
		
			<path i:knockout="Off" fill-rule="evenodd" clip-rule="evenodd" fill="none" stroke="#000000" stroke-width="0.567" stroke-linecap="round" stroke-linejoin="round" stroke-miterlimit="1" d="&#xD;&#xA;			M77.094,85.562c1.595-0.921,3.174-5.119,3.174-5.119L91.017,60.07l2.457-2.764h7.883l9.726,6.757" />
		
			<path i:knockout="Off" fill-rule="evenodd" clip-rule="evenodd" fill="none" stroke="#000000" stroke-width="0.567" stroke-linecap="round" stroke-linejoin="round" stroke-miterlimit="1" d="&#xD;&#xA;			M61.533,96.413v-1.229l8.087,3.071c0,0,5.017,0,7.064,0s4.709,1.741,5.323,3.993" />
		
			<path i:knockout="Off" fill-rule="evenodd" clip-rule="evenodd" fill="none" stroke="#000000" stroke-width="0.567" stroke-linecap="round" stroke-linejoin="round" stroke-miterlimit="1" d="&#xD;&#xA;			M140.813,81.481c0.479,0.62,0.881,1.464,1.084,2.647c0.614,3.583,0.103,3.788,1.331,6.245s3.378,8.497,4.3,9.418&#xD;&#xA;			s2.864,3.589,4.096,4.3s0.409,2.457,0.409,3.686s1.638,4.812,2.354,7.269s0.409,5.938,0.409,8.19s-0.307,5.528,0.614,6.45&#xD;&#xA;			s0.44,4.278-0.307,4.709s-2.663,1.74-4.607,1.74s-1.945,0.819-3.071,1.945s-7.269,4.811-10.749,5.323s-3.062,1.274-4.402,2.048&#xD;&#xA;			s-3.26,0.397-4.778-0.479s-2.592-0.545-4.64-0.545s-12.354-3.437-14.025-4.402s-3.992-0.511-5.426-1.945s-2-3.693-3.583-4.607&#xD;&#xA;			s-7.678-6.449-10.033-8.804s-2.969-1.843-3.993-2.867s-0.512-3.071-0.512-4.095s-3.378-9.624-3.378-11.876s0-6.756,0-7.78" />
		
			<path i:knockout="Off" fill-rule="evenodd" clip-rule="evenodd" fill="none" stroke="#000000" stroke-width="0.567" stroke-linecap="round" stroke-linejoin="round" stroke-miterlimit="1" d="&#xD;&#xA;			M91.21,84.108c-1.562,2.665-2.851,5.214-2.851,5.844c0,1.26,0,4.24,0,5.5s-1.833,3.323-2.521,4.928s-0.229,8.595,0.229,9.97&#xD;&#xA;			s3.254,5.681,4.928,6.647s1.673,4.125,1.673,5.271s3.313,3.61,5.547,5.845s8.022,4.813,9.397,4.813s1.317,1.776,2.864,3.324&#xD;&#xA;			s8.709,4.469,11.804,4.469s6.303-1.261,7.449-1.261s5.622,2.157,8.366,0.573s12.721-8.939,12.721-13.981&#xD;&#xA;			s0.544-13.128-2.521-14.898s-3.896-6.073-3.896-7.792s-3.323-11.689-5.615-13.981s-1.604-6.303-2.979-7.678&#xD;&#xA;			s-5.272-7.793-7.335-7.793s-9.854,0-11.688,0c-1.128,0-4.589-0.106-7.384-0.016" />
		
			<path i:knockout="Off" fill-rule="evenodd" clip-rule="evenodd" fill="none" stroke="#000000" stroke-width="0.567" stroke-linecap="round" stroke-linejoin="round" stroke-miterlimit="1" d="&#xD;&#xA;			M91.797,104.048c0.917,5.5,4.536,15.068,12.491,18.451c8.596,3.655,21.774,1.948,24.41-11.575" />
		
			<path i:knockout="Off" fill-rule="evenodd" clip-rule="evenodd" fill="none" stroke="#000000" stroke-width="0.567" stroke-linecap="round" stroke-linejoin="round" stroke-miterlimit="1" d="&#xD;&#xA;			M208.801,70.389l4.718,14.813" />
		
			<path i:knockout="Off" fill-rule="evenodd" clip-rule="evenodd" fill="none" stroke="#000000" stroke-width="0.567" stroke-linecap="round" stroke-linejoin="round" stroke-miterlimit="1" d="&#xD;&#xA;			M215.055,93.762v15.252h2.085v7.9l-2.085,0.439v2.305l-2.666,1.539" />
		
			<path i:knockout="Off" fill-rule="evenodd" clip-rule="evenodd" fill="none" stroke="#000000" stroke-width="0.567" stroke-linecap="round" stroke-linejoin="round" stroke-miterlimit="1" d="&#xD;&#xA;			M77.839,53.416c0,0,3.819-0.379,5.397-1.29s9.286,2.235,10.962,5.18" />
		
			<path i:knockout="Off" fill-rule="evenodd" clip-rule="evenodd" fill="none" stroke="#000000" stroke-width="0.567" stroke-linecap="round" stroke-linejoin="round" stroke-miterlimit="1" d="&#xD;&#xA;			M63.506,75.165c2.03-1.172,6.448-4.597,5.674-7.047s-1.253-6.771,0.645-7.867s9.748,1.678,11.091,0.903" />
		
			<path i:knockout="Off" fill-rule="evenodd" clip-rule="evenodd" fill="none" stroke="#000000" stroke-width="0.567" stroke-linecap="round" stroke-linejoin="round" stroke-miterlimit="1" d="&#xD;&#xA;			M159.323,68.892c2.903,1.676,7.222,4.643,7.222,5.417s3.48,1.676,4.255,1.676s2.743-2.261,3.74-2.837s1.547-0.773,5.029,0&#xD;&#xA;			s6.386,2.45,6.386,2.45s2.016-0.381,2.016,1.164s0.969,2.188,0.969,2.188l26.555,7.242c0,0,1.316,5.816,1.316,8.01l-1.756,1.014" />
		
			<path i:knockout="Off" fill-rule="evenodd" clip-rule="evenodd" fill="none" stroke="#000000" stroke-width="0.567" stroke-linecap="round" stroke-linejoin="round" stroke-miterlimit="1" d="&#xD;&#xA;			M181.474,0.397c0.632,3.497,1.505,9.58,1.505,16.429c0,11.649-2.526,25.515-13.066,32.646&#xD;&#xA;			c-16.018,10.835-32.136,13.269-47.723,15.622l-1.502,0.227c-11.909,1.804-22.707,8.691-30.591,13.72&#xD;&#xA;			c-3.474,2.216-6.475,4.13-8.776,5.132c-5.304,2.311-7.744,4.795-9.202,6.28c-0.32,0.326-0.708,0.719-0.875,0.833&#xD;&#xA;			c-1.417,1.411-1.417,1.411-1.417,2.636c0,1.381,0.473,2.275,1.854,2.275c1.804,0,2.923-1.14,4.005-2.242&#xD;&#xA;			c1.282-1.305,3.218-3.277,7.632-5.199c2.662-1.159,5.816-3.171,9.468-5.501c7.926-5.055,17.79-11.346,28.652-12.992l1.498-0.227&#xD;&#xA;			c16.138-2.437,32.824-4.956,49.777-16.424c18.752-12.686,15.694-42.38,13.818-53.33" />
		
			<path i:knockout="Off" fill-rule="evenodd" clip-rule="evenodd" fill="none" stroke="#000000" stroke-width="0.567" stroke-linecap="round" stroke-linejoin="round" stroke-miterlimit="1" d="&#xD;&#xA;			M99.252,79.221c1.659,3.419,4.855,9.278,4.855,9.278l2.485,6.036" />
		
			<path i:knockout="Off" fill-rule="evenodd" clip-rule="evenodd" fill="none" stroke="#000000" stroke-width="0.567" stroke-linecap="round" stroke-linejoin="round" stroke-miterlimit="1" d="&#xD;&#xA;			M92.212,94.712l19.884,12.783" />
		
			<path i:knockout="Off" fill-rule="evenodd" clip-rule="evenodd" fill="none" stroke="#000000" stroke-width="0.567" stroke-linecap="round" stroke-linejoin="round" stroke-miterlimit="1" d="&#xD;&#xA;			M100.023,118.68l6.569-5.503" />
		
			<path i:knockout="Off" fill-rule="evenodd" clip-rule="evenodd" fill="none" stroke="#000000" stroke-width="0.567" stroke-linecap="round" stroke-linejoin="round" stroke-miterlimit="1" d="&#xD;&#xA;			M116.356,116.727l2.663,3.906" />
		
			<path i:knockout="Off" fill-rule="evenodd" clip-rule="evenodd" fill="none" stroke="#000000" stroke-width="0.567" stroke-linecap="round" stroke-linejoin="round" stroke-miterlimit="1" d="&#xD;&#xA;			M122.57,105.897c7.102,0.888,16.867,0.888,18.819,0.888" />
		
			<path i:knockout="Off" fill-rule="evenodd" clip-rule="evenodd" fill="none" stroke="#000000" stroke-width="0.567" stroke-linecap="round" stroke-linejoin="round" stroke-miterlimit="1" d="&#xD;&#xA;			M128.43,115.484l13.492,9.232" />
		
			<path i:knockout="Off" fill-rule="evenodd" clip-rule="evenodd" fill="none" stroke="#000000" stroke-width="0.567" stroke-linecap="round" stroke-linejoin="round" stroke-miterlimit="1" d="&#xD;&#xA;			M144.94,127.379l2.458,1.419" />
		
			<path i:knockout="Off" fill-rule="evenodd" clip-rule="evenodd" fill="none" stroke="#000000" stroke-width="0.567" stroke-linecap="round" stroke-linejoin="round" stroke-miterlimit="1" d="&#xD;&#xA;			M120.085,124.006l5.148,13.493" />
		
			<path i:knockout="Off" fill-rule="evenodd" clip-rule="evenodd" fill="none" stroke="#000000" stroke-width="0.567" stroke-linecap="round" stroke-linejoin="round" stroke-miterlimit="1" d="&#xD;&#xA;			M117.777,98.441l5.681-12.783" />
		
			<path i:knockout="Off" fill-rule="evenodd" clip-rule="evenodd" fill="none" stroke="#000000" stroke-width="0.567" stroke-linecap="round" stroke-linejoin="round" stroke-miterlimit="1" d="&#xD;&#xA;			M120.263,99.684l7.745-4.471" />
		
			<path i:knockout="Off" fill-rule="evenodd" clip-rule="evenodd" fill="none" stroke="#000000" stroke-width="0.567" stroke-linecap="round" stroke-linejoin="round" stroke-miterlimit="1" d="&#xD;&#xA;			M129.14,93.115l6.036-5.148" />
		
			<path i:knockout="Off" fill-rule="evenodd" clip-rule="evenodd" fill="none" stroke="#000000" stroke-width="0.567" stroke-linecap="round" stroke-linejoin="round" stroke-miterlimit="1" d="&#xD;&#xA;			M71.381,98.256c1.141,1.675-0.168,5.22-1.512,6.564s-2.184,3.863-1.344,6.383s3.191,9.407,3.191,9.407" />
		
			<path i:knockout="Off" fill-rule="evenodd" clip-rule="evenodd" fill="none" stroke="#000000" stroke-width="0.567" stroke-linecap="round" stroke-linejoin="round" stroke-miterlimit="1" d="&#xD;&#xA;			M76.925,122.794h4.032" />
		
			<path i:knockout="Off" fill-rule="evenodd" clip-rule="evenodd" fill="none" stroke="#000000" stroke-width="0.567" stroke-linecap="round" stroke-linejoin="round" stroke-miterlimit="1" d="&#xD;&#xA;			M74.573,128.674l11.087,8.063" />
		
			<path i:knockout="Off" fill-rule="evenodd" clip-rule="evenodd" fill="none" stroke="#000000" stroke-width="0.567" stroke-linecap="round" stroke-linejoin="round" stroke-miterlimit="1" d="&#xD;&#xA;			M92.211,143.289l15.791,5.375" />
		
			<path i:knockout="Off" fill-rule="evenodd" clip-rule="evenodd" fill="none" stroke="#000000" stroke-width="0.567" stroke-linecap="round" stroke-linejoin="round" stroke-miterlimit="1" d="&#xD;&#xA;			M80.453,116.243l3.528,0.84" />
		
			<path i:knockout="Off" fill-rule="evenodd" clip-rule="evenodd" fill="none" stroke="#000000" stroke-width="0.567" stroke-linecap="round" stroke-linejoin="round" stroke-miterlimit="1" d="&#xD;&#xA;			M152.033,105.959c3.89-3.889,10.083-11.515,17.098-11.515s12.515,4.348,17.015,8.848" />
		
			<path i:knockout="Off" fill-rule="evenodd" clip-rule="evenodd" fill="none" stroke="#000000" stroke-width="0.567" stroke-linecap="round" stroke-linejoin="round" stroke-miterlimit="1" d="&#xD;&#xA;			M149.146,143.959c5.917,5.917,25.5,10.167,35,0.667" />
		
			<path i:knockout="Off" fill-rule="evenodd" clip-rule="evenodd" fill="none" stroke="#000000" stroke-width="0.567" stroke-linecap="round" stroke-linejoin="round" stroke-miterlimit="1" d="&#xD;&#xA;			M146.49,97.954c6.971-4.024,10.988-7.994,10.988-10.661s6.333-5.333,13-5.333" />
		
			<path i:knockout="Off" fill-rule="evenodd" clip-rule="evenodd" fill="none" stroke="#000000" stroke-linecap="round" stroke-linejoin="round" stroke-miterlimit="1" d="&#xD;&#xA;			M149.976,28.982l0.492,8.931c0,0,9.752,12.857,9.752,17.153" />
		
			<path i:knockout="Off" fill-rule="evenodd" clip-rule="evenodd" fill="none" stroke="#000000" stroke-width="0.567" stroke-linecap="round" stroke-linejoin="round" stroke-miterlimit="1" d="&#xD;&#xA;			M66.938,57.654c-1.106,0.639-2.264,2.562-2.264,5.763s0.935,5.932-1.174,7.149" />
		
			<path i:knockout="Off" fill-rule="evenodd" clip-rule="evenodd" fill="none" stroke="#000000" stroke-width="0.567" stroke-linecap="round" stroke-linejoin="round" stroke-miterlimit="1" d="&#xD;&#xA;			M127.924,49.599l-2.01,3.017h-2.586v3.448h-1.58l0.441,9.03" />
		
			<path i:knockout="Off" fill-rule="evenodd" clip-rule="evenodd" fill="none" stroke="#000000" stroke-width="0.567" stroke-linecap="round" stroke-linejoin="round" stroke-miterlimit="1" d="&#xD;&#xA;			M157.655,86.516l0.685-25.095" />
		
			<path i:knockout="Off" fill-rule="evenodd" clip-rule="evenodd" fill="none" stroke="#000000" stroke-linecap="round" stroke-linejoin="round" stroke-miterlimit="1" d="&#xD;&#xA;			M162.305,59.619h14.508l4.151-2.397l0.318-4.665c0-1.103,0.221-6.618,0.221-6.618s0-0.64-0.037-1.587" />
		
			<path i:knockout="Off" fill-rule="evenodd" clip-rule="evenodd" fill="none" stroke="#000000" stroke-width="0.567" stroke-linecap="round" stroke-linejoin="round" stroke-miterlimit="1" d="&#xD;&#xA;			M221.321,82.642c1.024,0,2.235,4.564,2.235,7.73" />
		
			<path i:knockout="Off" fill-rule="evenodd" clip-rule="evenodd" fill="none" stroke="#000000" stroke-width="0.567" stroke-linecap="round" stroke-linejoin="round" stroke-miterlimit="1" d="&#xD;&#xA;			M223.091,99.873c0.652,2.701-0.278,9.872-1.583,12.294" />
		
			<path i:knockout="Off" fill-rule="evenodd" clip-rule="evenodd" fill="none" stroke="#000000" stroke-width="0.567" stroke-linecap="round" stroke-linejoin="round" stroke-miterlimit="1" d="&#xD;&#xA;			M148.777,136.584c0,0,1.367,8.542-1.799,9.208s-6.675,0.683-10.166-1.333" />
	</g>
	<g id="illust" i:layer="yes" i:dimmedPercent="3" i:rgbTrio="#FFFF4F004F00" xmlns:i="http://ns.adobe.com/AdobeIllustrator/10.0/">
		
			<path i:knockout="Off" fill-rule="evenodd" clip-rule="evenodd" fill="none" stroke="#FFFFFF" stroke-width="2.835" stroke-linecap="round" stroke-linejoin="round" stroke-miterlimit="1" d="&#xD;&#xA;			M18.575,89.302l39.128,3.301" />
		
			<path i:knockout="Off" fill-rule="evenodd" clip-rule="evenodd" fill="none" stroke="#000000" stroke-width="0.6" stroke-linecap="round" stroke-linejoin="round" stroke-miterlimit="1" d="&#xD;&#xA;			M17.036,89.178l42.206,3.551" />
		<g>
			
				<path i:knockout="Off" fill-rule="evenodd" clip-rule="evenodd" fill="none" stroke="#000000" stroke-linecap="round" stroke-linejoin="round" d="&#xD;&#xA;				M13.192,80.391c3.843,2.172,5.197,7.047,3.026,10.889c-2.171,3.842-7.044,5.197-10.89,3.025&#xD;&#xA;				c-3.841-2.172-5.197-7.047-3.024-10.889C4.474,79.574,9.352,78.22,13.192,80.391" />
			<g>
				<path i:knockout="Off" fill-rule="evenodd" clip-rule="evenodd" fill="#FFFFFF" d="M10.362,90.612l2.854,1.183&#xD;&#xA;					c2.765-0.085,1.538-3.921,1.538-3.921l-4.416-3.039l-0.033-0.097c-0.969-1.943-2.549-3.097-3.772-2.647l-0.573,0.211&#xD;&#xA;					l-1.147,0.423c-1.384,0.509-1.785,2.883-0.896,5.307c0.895,2.424,2.741,3.972,4.125,3.464l1.314-0.487L10.362,90.612z" />
				<g>
					
						<path i:knockout="Off" fill-rule="evenodd" clip-rule="evenodd" fill="none" stroke="#000000" stroke-width="0.5" stroke-linecap="round" stroke-linejoin="round" d="&#xD;&#xA;						M10.362,90.612l2.854,1.183c2.765-0.085,1.538-3.921,1.538-3.921l-4.416-3.039l-0.033-0.097&#xD;&#xA;						c-0.969-1.943-2.549-3.097-3.772-2.647l-0.573,0.211l-1.147,0.423c-1.384,0.509-1.785,2.883-0.896,5.307&#xD;&#xA;						c0.895,2.424,2.741,3.972,4.125,3.464l1.314-0.487L10.362,90.612" />
					
						<path i:knockout="Off" fill-rule="evenodd" clip-rule="evenodd" fill="none" stroke="#000000" stroke-width="0.5" stroke-linecap="round" stroke-linejoin="round" d="&#xD;&#xA;						M7.255,84.039c-0.77,0.284-0.992,1.604-0.498,2.948c0.496,1.346,1.522,2.206,2.293,1.926" />
				</g>
				
					<path i:knockout="Off" fill-rule="evenodd" clip-rule="evenodd" fill="none" stroke="#000000" stroke-width="0.3" stroke-linecap="round" stroke-linejoin="round" d="&#xD;&#xA;					M9.051,88.913c0.764-0.286,0.988-1.604,0.49-2.952c-0.494-1.343-1.519-2.205-2.286-1.922" />
				
					<path i:knockout="Off" fill-rule="evenodd" clip-rule="evenodd" fill="none" stroke="#000000" stroke-width="0.5" stroke-linecap="round" stroke-linejoin="round" d="&#xD;&#xA;					M8.391,88.552c0.241-0.518,0.234-1.321-0.067-2.14c-0.333-0.91-0.937-1.573-1.508-1.738" />
				
					<path i:knockout="Off" fill-rule="evenodd" clip-rule="evenodd" fill="none" stroke="#000000" stroke-width="0.3" stroke-linecap="round" stroke-linejoin="round" d="&#xD;&#xA;					M6.534,82.09c-1.381,0.508-1.78,2.887-0.889,5.309c0.89,2.421,2.738,3.971,4.119,3.462" />
			</g>
		</g>
		<path i:knockout="Off" fill-rule="evenodd" clip-rule="evenodd" d="M57.675,94.511l0.937-1.856l-0.688-1.964l4.403,2.204&#xD;&#xA;			L57.675,94.511z" />
		<path i:knockout="Off" fill-rule="evenodd" clip-rule="evenodd" stroke="#000000" d="M63.367,92.997&#xD;&#xA;			c-0.57-1.485-0.155-3.021,0.927-3.434c1.082-0.414,2.42,0.453,2.99,1.937c0.571,1.484,0.156,3.021-0.926,3.434&#xD;&#xA;			C65.276,95.348,63.937,94.479,63.367,92.997z" />
		
			<path i:knockout="Off" fill-rule="evenodd" clip-rule="evenodd" fill="none" stroke="#000000" stroke-width="1.7008" stroke-linejoin="round" stroke-miterlimit="1" d="&#xD;&#xA;			M66.357,92.844c0,0,2.582,0.566,3.469,1.079" />
	</g>
	<g id="earth" i:layer="yes" i:dimmedPercent="3" i:rgbTrio="#4F00FFFF4F00" xmlns:i="http://ns.adobe.com/AdobeIllustrator/10.0/">
		<g>
			<path i:knockout="Off" stroke="#000000" d="M17.47,70.649c0,2.348-1.904,4.252-4.252,4.252H4.714&#xD;&#xA;				c-2.35,0-4.252-1.904-4.252-4.252c0-2.35,1.902-4.252,4.252-4.252h8.504C15.565,66.397,17.47,68.299,17.47,70.649z" />
			<switch i:knockout="Off" i:objectNS="&ns_flows;" i:objectType="pointText">
				<foreignObject requiredExtensions="&ns_flows;" x="0" y="0" width="1" height="1" overflow="visible">
					<flowDef xmlns="&ns_flows;">
						<region>
							<path d="M8.966,73.893" />
						</region>
						<flow xmlns="&ns_flows;" fill="#FFFFFF" font-family="Arial" font-size="9" text-align="center" text-align-last="center" start-indent="2" end-indent="2" a:adobe-baseline-direction="vertical-rotated">
							<p><span>19</span></p>
						</flow>
					</flowDef>
					<x:targetRef xlink:href="#XMLID_1_" xmlns:xlink="http://www.w3.org/1999/xlink" xmlns:x="http://ns.adobe.com/Extensibility/1.0/" />
				</foreignObject>
				<text id="XMLID_1_" transform="matrix(1 0 0 1 3.9604 73.8931)"><tspan x="0" y="0" fill="#FFFFFF" font-family="Arial" font-size="9">19</tspan></text>
			</switch>
		</g>
	</g>
<a id="earth19" onclick="parent.svgClick('Bottom','earth19')" onmouseover="parent.svgMouseOver('Bottom','earth19',evt)" onmouseout="parent.svgMouseOut('Bottom','earth19')" opacity="0"><rect fill="#FF0000" x="-1.0396" y="65.5931" height="10" width="19" /></a></svg>