<?xml version="1.0" encoding="utf-8"?>
<!-- Generator: Adobe Illustrator 10.0, SVG Export Plug-In . SVG Version: 3.0.0 Build 77)  -->
<!DOCTYPE svg PUBLIC "-//W3C//DTD SVG 1.0//EN"    "http://www.w3.org/TR/2001/REC-SVG-20010904/DTD/svg10.dtd" [
	<!ENTITY ns_flows "http://ns.adobe.com/Flows/1.0/">
	<!ENTITY ns_extend "http://ns.adobe.com/Extensibility/1.0/">
	<!ENTITY ns_ai "http://ns.adobe.com/AdobeIllustrator/10.0/">
	<!ENTITY ns_graphs "http://ns.adobe.com/Graphs/1.0/">
	<!ENTITY ns_vars "http://ns.adobe.com/Variables/1.0/">
	<!ENTITY ns_imrep "http://ns.adobe.com/ImageReplacement/1.0/">
	<!ENTITY ns_sfw "http://ns.adobe.com/SaveForWeb/1.0/">
	<!ENTITY ns_custom "http://ns.adobe.com/GenericCustomNamespace/1.0/">
	<!ENTITY ns_adobe_xpath "http://ns.adobe.com/XPath/1.0/">
	<!ENTITY ns_svg "http://www.w3.org/2000/svg">
	<!ENTITY ns_xlink "http://www.w3.org/1999/xlink">
]>
<svg xmlns:x="&ns_extend;" xmlns:i="&ns_ai;" xmlns:graph="&ns_graphs;" i:viewOrigin="185.2534 550.6416" i:rulerOrigin="-1 0.1104" i:pageBounds="1 841.8896 596 -0.1104" xmlns="&ns_svg;" xmlns:xlink="&ns_xlink;" xmlns:a="http://ns.adobe.com/AdobeSVGViewerExtensions/3.0/" width="199.676" height="212.584" viewBox="0 0 199.676 212.584" overflow="visible" enable-background="new 0 0 199.676 212.584" xml:space="preserve" id="svgObj" onload="parent.svgLoad('Top', document)">
	<metadata>
		<variableSets xmlns="&ns_vars;">
			<variableSet varSetName="binding1" locked="none">
				<variables></variables>
				<v:sampleDataSets xmlns="&ns_custom;" xmlns:v="&ns_vars;"></v:sampleDataSets>
			</variableSet>
		</variableSets>
		<sfw xmlns="&ns_sfw;">
			<slices></slices>
			<sliceSourceBounds y="338.058" x="185.253" width="199.676" height="212.584" bottomLeftOrigin="true"></sliceSourceBounds>
		</sfw>
	</metadata>
	<g id="connector" i:layer="yes" i:dimmedPercent="50" i:rgbTrio="#FFFF4F00FFFF">
		<g i:knockout="Off">
			<path i:knockout="Off" d="M0,19.129v-7.094h1.453v5.875h3.594v1.219H0z"/>
			<path i:knockout="Off" d="M5.718,17.244l1.328-0.161c0.042,0.339,0.156,0.599,0.341,0.778c0.186,0.179,0.409,0.269,0.672,0.269
				c0.282,0,0.521-0.108,0.713-0.326s0.29-0.511,0.29-0.88c0-0.349-0.092-0.626-0.276-0.831s-0.41-0.307-0.675-0.307
				c-0.175,0-0.384,0.034-0.627,0.103l0.152-1.103c0.372,0.01,0.656-0.071,0.852-0.242c0.196-0.172,0.293-0.399,0.293-0.684
				c0-0.241-0.071-0.434-0.214-0.577s-0.333-0.216-0.571-0.216c-0.234,0-0.434,0.081-0.6,0.243c-0.166,0.162-0.267,0.399-0.303,0.71
				l-1.266-0.214c0.088-0.435,0.221-0.783,0.398-1.043c0.177-0.26,0.424-0.465,0.742-0.613C7.284,12,7.64,11.926,8.033,11.926
				c0.673,0,1.213,0.216,1.62,0.646c0.335,0.353,0.502,0.751,0.502,1.195c0,0.63-0.343,1.133-1.028,1.508
				c0.406,0.089,0.731,0.287,0.976,0.595c0.243,0.308,0.365,0.68,0.365,1.115c0,0.632-0.229,1.171-0.688,1.616
				S8.751,19.27,8.068,19.27c-0.646,0-1.184-0.187-1.609-0.561C6.033,18.336,5.786,17.847,5.718,17.244z"/>
			<path i:knockout="Off" d="M11.311,13.348v-1.281h4.688v1c-0.387,0.381-0.781,0.928-1.181,1.64c-0.4,0.712-0.706,1.47-0.916,2.272
				c-0.21,0.803-0.313,1.519-0.31,2.15h-1.328c0.022-0.989,0.227-1.997,0.614-3.024c0.387-1.028,0.903-1.947,1.549-2.757H11.311z"/>
			<path i:knockout="Off" d="M16.919,17.479l1.328-0.146c0.033,0.271,0.117,0.471,0.254,0.602c0.137,0.13,0.318,0.195,0.543,0.195
				c0.284,0,0.525-0.131,0.724-0.394c0.199-0.262,0.326-0.805,0.381-1.629c-0.346,0.4-0.778,0.601-1.297,0.601
				c-0.564,0-1.051-0.218-1.46-0.653c-0.41-0.436-0.614-1.002-0.614-1.701c0-0.728,0.216-1.314,0.647-1.759
				c0.432-0.445,0.981-0.668,1.648-0.668c0.726,0,1.322,0.282,1.788,0.846c0.465,0.564,0.698,1.491,0.698,2.782
				c0,1.313-0.242,2.262-0.727,2.843s-1.116,0.873-1.893,0.873c-0.56,0-1.012-0.149-1.357-0.449
				C17.238,18.522,17.017,18.075,16.919,17.479z M20.029,14.471c0-0.445-0.103-0.79-0.307-1.036
				c-0.205-0.245-0.441-0.368-0.71-0.368c-0.255,0-0.467,0.101-0.636,0.302c-0.168,0.201-0.253,0.531-0.253,0.989
				c0,0.465,0.092,0.806,0.275,1.023c0.183,0.218,0.413,0.326,0.688,0.326c0.265,0,0.489-0.104,0.671-0.314
				C19.938,15.184,20.029,14.876,20.029,14.471z"/>
		</g>
		<g i:knockout="Off">
			<path i:knockout="Off" d="M97.058,11.973h1.453v4.542c0,0.594-0.052,1.051-0.156,1.371c-0.14,0.417-0.394,0.753-0.761,1.006
				c-0.368,0.252-0.854,0.379-1.455,0.379c-0.706,0-1.25-0.2-1.629-0.6c-0.381-0.4-0.573-0.986-0.576-1.76l1.375-0.141
				c0.016,0.414,0.075,0.706,0.178,0.876c0.154,0.259,0.387,0.389,0.702,0.389c0.317,0,0.541-0.092,0.673-0.276
				s0.197-0.567,0.197-1.148V11.973z"/>
			<path i:knockout="Off" d="M104.385,17.848v1.281h-4.813c0.052-0.482,0.209-0.94,0.47-1.372c0.261-0.433,0.775-1.006,1.545-1.721
				c0.619-0.577,0.999-0.969,1.14-1.174c0.188-0.284,0.283-0.564,0.283-0.842c0-0.307-0.083-0.542-0.249-0.707
				c-0.166-0.165-0.395-0.247-0.688-0.247c-0.289,0-0.519,0.087-0.689,0.261c-0.171,0.173-0.27,0.461-0.296,0.864l-1.375-0.138
				c0.082-0.758,0.339-1.303,0.771-1.633s0.972-0.495,1.619-0.495c0.71,0,1.268,0.191,1.674,0.572
				c0.405,0.381,0.608,0.855,0.608,1.423c0,0.323-0.058,0.63-0.174,0.922c-0.115,0.292-0.299,0.598-0.55,0.917
				c-0.166,0.212-0.467,0.517-0.903,0.914c-0.436,0.398-0.712,0.662-0.827,0.792c-0.116,0.13-0.21,0.257-0.281,0.381H104.385z"/>
			<path i:knockout="Off" d="M108.822,19.129h-1.375v-5.185c-0.499,0.471-1.088,0.818-1.766,1.044v-1.25
				c0.357-0.117,0.746-0.339,1.166-0.667c0.418-0.327,0.707-0.709,0.863-1.146h1.111V19.129z"/>
			<path i:knockout="Off" d="M110.884,17.317l1.375-0.141c0.039,0.308,0.154,0.551,0.348,0.73s0.416,0.27,0.668,0.27
				c0.287,0,0.531-0.118,0.73-0.353s0.301-0.59,0.301-1.064c0-0.444-0.102-0.777-0.303-1c-0.203-0.222-0.465-0.333-0.789-0.333
				c-0.404,0-0.766,0.172-1.086,0.516l-1.104-0.159l0.703-3.716h3.672v1.281h-2.633l-0.227,1.206
				c0.311-0.147,0.629-0.221,0.953-0.221c0.617,0,1.143,0.223,1.572,0.667s0.646,1.023,0.646,1.733c0,0.592-0.172,1.12-0.516,1.585
				c-0.467,0.635-1.115,0.952-1.943,0.952c-0.662,0-1.203-0.177-1.621-0.529C111.214,18.387,110.964,17.913,110.884,17.317z"/>
		</g>
	</g>
	<g id="レイヤー_1" i:layer="yes" i:dimmedPercent="100" i:rgbTrio="#4F008000FFFF">
		<path i:knockout="Off" fill="none" stroke="#000000" stroke-width="0.7" d="M135.61,26.208V14.366h11.729v11.841H135.61z"/>
		<g i:knockout="Off">
			<path i:knockout="Off" d="M142.275,22.356h-0.797v-5.053c-0.189,0.182-0.439,0.364-0.747,0.546
				c-0.309,0.182-0.585,0.319-0.831,0.41v-0.767c0.442-0.208,0.828-0.461,1.159-0.758c0.331-0.296,0.565-0.584,0.702-0.863h0.514
				V22.356z"/>
		</g>
		<path i:knockout="Off" fill="none" stroke="#000000" stroke-width="0.7" d="M147.516,24.458h-11.74"/>
		<path i:knockout="Off" fill="none" stroke="#000000" stroke-width="0.7" d="M135.61,39.946V28.105h11.729v11.841H135.61z"/>
		<g i:knockout="Off">
			<path i:knockout="Off" d="M139.306,34.408l0.797-0.109c0.091,0.443,0.243,0.762,0.458,0.957s0.481,0.293,0.799,0.293
				c0.375,0,0.689-0.129,0.942-0.388s0.379-0.579,0.379-0.96c0-0.364-0.118-0.665-0.354-0.901s-0.537-0.354-0.901-0.354
				c-0.149,0-0.334,0.029-0.556,0.088l0.087-0.688c0.053,0.006,0.096,0.009,0.127,0.009c0.338,0,0.642-0.088,0.912-0.264
				c0.27-0.176,0.404-0.447,0.404-0.814c0-0.291-0.099-0.531-0.296-0.722c-0.198-0.191-0.453-0.286-0.766-0.286
				c-0.31,0-0.567,0.096-0.774,0.289s-0.34,0.482-0.398,0.867l-0.797-0.141c0.098-0.531,0.318-0.942,0.663-1.234
				s0.772-0.438,1.286-0.438c0.353,0,0.678,0.076,0.976,0.227s0.525,0.357,0.683,0.619c0.158,0.261,0.236,0.539,0.236,0.832
				c0,0.279-0.074,0.533-0.224,0.763c-0.149,0.229-0.371,0.411-0.664,0.546c0.381,0.088,0.677,0.271,0.886,0.548
				c0.21,0.277,0.314,0.624,0.314,1.04c0,0.563-0.205,1.04-0.615,1.432s-0.929,0.587-1.556,0.587c-0.565,0-1.034-0.167-1.408-0.5
				C139.572,35.371,139.359,34.938,139.306,34.408z"/>
		</g>
		<path i:knockout="Off" fill="none" stroke="#000000" stroke-width="0.7" d="M147.516,38.196h-11.74"/>
		<path i:knockout="Off" fill="none" stroke="#000000" stroke-width="0.7" d="M135.61,53.862V42.021h11.729v11.841H135.61z"/>
		<g i:knockout="Off">
			<path i:knockout="Off" d="M139.306,48.324l0.813-0.063c0.062,0.399,0.204,0.7,0.426,0.901c0.223,0.201,0.494,0.302,0.817,0.302
				c0.39,0,0.715-0.144,0.976-0.431s0.391-0.667,0.391-1.142c0-0.451-0.124-0.807-0.371-1.067c-0.248-0.261-0.58-0.391-0.994-0.391
				c-0.259,0-0.488,0.058-0.689,0.174c-0.201,0.116-0.36,0.267-0.477,0.451l-0.75-0.109l0.625-3.313h3.203v0.75h-2.574l-0.348,1.75
				c0.387-0.271,0.792-0.407,1.217-0.407c0.562,0,1.036,0.195,1.422,0.586c0.387,0.391,0.58,0.893,0.58,1.506
				c0,0.584-0.17,1.089-0.509,1.515c-0.413,0.523-0.976,0.784-1.689,0.784c-0.585,0-1.063-0.164-1.433-0.492
				C139.57,49.301,139.359,48.866,139.306,48.324z"/>
		</g>
		<path i:knockout="Off" fill="none" stroke="#000000" stroke-width="0.7" d="M147.516,52.112h-11.74"/>
		<path i:knockout="Off" fill="none" stroke="#000000" stroke-width="0.7" d="M135.61,67.853V56.011h11.729v11.842H135.61z"/>
		<g i:knockout="Off">
			<path i:knockout="Off" d="M143.416,59.126l-0.781,0.063c-0.07-0.311-0.171-0.536-0.3-0.677c-0.215-0.226-0.479-0.339-0.795-0.339
				c-0.253,0-0.478,0.07-0.675,0.211c-0.244,0.182-0.439,0.447-0.583,0.796c-0.145,0.349-0.22,0.846-0.226,1.49
				c0.19-0.29,0.424-0.505,0.699-0.646s0.564-0.211,0.866-0.211c0.527,0,0.977,0.194,1.348,0.583
				c0.37,0.389,0.556,0.892,0.556,1.508c0,0.405-0.087,0.782-0.261,1.129c-0.175,0.348-0.414,0.614-0.718,0.799
				c-0.305,0.185-0.65,0.277-1.036,0.277c-0.659,0-1.196-0.243-1.612-0.729c-0.415-0.486-0.623-1.287-0.623-2.403
				c0-1.248,0.23-2.155,0.69-2.722c0.401-0.493,0.942-0.74,1.622-0.74c0.507,0,0.922,0.143,1.246,0.428
				C143.157,58.229,143.351,58.624,143.416,59.126z M140.181,61.908c0,0.272,0.058,0.533,0.174,0.782
				c0.115,0.249,0.275,0.438,0.48,0.568s0.424,0.195,0.658,0.195c0.338,0,0.626-0.135,0.863-0.404s0.355-0.635,0.355-1.098
				c0-0.444-0.117-0.795-0.352-1.051s-0.533-0.384-0.898-0.384c-0.357,0-0.66,0.128-0.908,0.384S140.181,61.493,140.181,61.908z"/>
		</g>
		<path i:knockout="Off" fill="none" stroke="#000000" stroke-width="0.7" d="M147.516,66.103h-11.74"/>
		<path i:knockout="Off" fill="none" stroke="#000000" stroke-width="0.7" d="M121.87,67.853V56.011h11.729v11.842H121.87z"/>
		<g i:knockout="Off">
			<path i:knockout="Off" d="M125.613,58.392v-0.766h4.172v0.62c-0.409,0.438-0.815,1.019-1.218,1.745
				c-0.402,0.725-0.713,1.47-0.933,2.236c-0.158,0.54-0.259,1.132-0.303,1.774h-0.813c0.009-0.508,0.108-1.121,0.299-1.84
				c0.189-0.719,0.462-1.413,0.817-2.081s0.733-1.23,1.134-1.688H125.613z"/>
		</g>
		<path i:knockout="Off" fill="none" stroke="#000000" stroke-width="0.7" d="M133.776,66.103h-11.74"/>
		<path i:knockout="Off" fill="none" stroke="#000000" stroke-width="0.7" d="M135.61,81.694V69.853h11.729v11.842H135.61z"/>
		<g i:knockout="Off">
			<path i:knockout="Off" d="M139.773,77.843h-0.797V72.79c-0.19,0.182-0.439,0.364-0.748,0.546s-0.585,0.319-0.83,0.41v-0.767
				c0.441-0.208,0.828-0.461,1.158-0.758c0.331-0.296,0.565-0.584,0.703-0.863h0.514V77.843z"/>
			<path i:knockout="Off" d="M141.809,74.657c0-0.763,0.078-1.379,0.234-1.847c0.156-0.468,0.388-0.827,0.696-1.077
				s0.695-0.375,1.163-0.375c0.345,0,0.647,0.07,0.911,0.209c0.262,0.14,0.477,0.341,0.644,0.604s0.298,0.583,0.395,0.96
				s0.145,0.886,0.145,1.526c0,0.758-0.077,1.371-0.232,1.839c-0.154,0.468-0.386,0.828-0.694,1.079
				c-0.308,0.251-0.697,0.377-1.167,0.377c-0.619,0-1.105-0.221-1.458-0.662C142.021,76.748,141.809,75.87,141.809,74.657z
				 M142.622,74.655c0,1.064,0.123,1.771,0.369,2.119c0.247,0.348,0.551,0.522,0.912,0.522s0.665-0.175,0.911-0.524
				c0.247-0.349,0.37-1.055,0.37-2.116c0-1.062-0.122-1.768-0.368-2.117c-0.244-0.349-0.552-0.523-0.922-0.523
				c-0.361,0-0.651,0.154-0.869,0.462C142.755,72.87,142.622,73.596,142.622,74.655z"/>
		</g>
		<path i:knockout="Off" fill="none" stroke="#000000" stroke-width="0.7" d="M147.516,79.944h-11.74"/>
		<path i:knockout="Off" fill="none" stroke="#000000" stroke-width="0.7" d="M121.87,81.694V69.853h11.729v11.842H121.87z"/>
		<g i:knockout="Off">
			<path i:knockout="Off" d="M126.033,77.843h-0.797V72.79c-0.19,0.182-0.439,0.364-0.748,0.546s-0.585,0.319-0.83,0.41v-0.767
				c0.441-0.208,0.828-0.461,1.158-0.758c0.331-0.296,0.565-0.584,0.703-0.863h0.514V77.843z"/>
			<path i:knockout="Off" d="M131.038,77.843h-0.797V72.79c-0.19,0.182-0.439,0.364-0.747,0.546
				c-0.309,0.182-0.586,0.319-0.831,0.41v-0.767c0.442-0.208,0.828-0.461,1.159-0.758c0.33-0.296,0.564-0.584,0.702-0.863h0.514
				V77.843z"/>
		</g>
		<path i:knockout="Off" fill="none" stroke="#000000" stroke-width="0.7" d="M133.776,79.944h-11.74"/>
		<path i:knockout="Off" fill="none" stroke="#000000" stroke-width="0.7" d="M135.61,95.435V83.593h11.729v11.842H135.61z"/>
		<g i:knockout="Off">
			<path i:knockout="Off" d="M139.773,91.583h-0.797V86.53c-0.19,0.182-0.439,0.364-0.748,0.546s-0.585,0.319-0.83,0.41V86.72
				c0.441-0.208,0.828-0.461,1.158-0.758c0.331-0.296,0.565-0.584,0.703-0.863h0.514V91.583z"/>
			<path i:knockout="Off" d="M144.325,91.583v-1.547h-2.781v-0.719l2.938-4.172h0.641v4.172h0.875v0.719h-0.875v1.547H144.325z
				 M144.325,89.317v-2.872l-2.003,2.872H144.325z"/>
		</g>
		<path i:knockout="Off" fill="none" stroke="#000000" stroke-width="0.7" d="M147.516,93.685h-11.74"/>
		<path i:knockout="Off" fill="none" stroke="#000000" stroke-width="0.7" d="M128.008,111.062v-13.5h13.371v13.5H128.008z"/>
		<g i:knockout="Off">
			<path i:knockout="Off" d="M133.005,106.381h-0.797v-5.053c-0.19,0.182-0.439,0.364-0.748,0.546s-0.585,0.319-0.83,0.41v-0.767
				c0.441-0.208,0.828-0.461,1.158-0.758c0.331-0.296,0.565-0.584,0.703-0.863h0.514V106.381z"/>
			<path i:knockout="Off" d="M135.088,100.771v-0.766h4.172v0.62c-0.409,0.438-0.815,1.019-1.218,1.745
				c-0.402,0.725-0.713,1.47-0.933,2.236c-0.158,0.54-0.259,1.132-0.303,1.774h-0.813c0.009-0.508,0.108-1.121,0.298-1.84
				c0.19-0.719,0.463-1.413,0.818-2.081s0.733-1.23,1.134-1.688H135.088z"/>
		</g>
		<path i:knockout="Off" fill="none" stroke="#000000" stroke-width="0.7" d="M167.766,27.84v-13.5h13.369v13.5H167.766z"/>
		<g i:knockout="Off">
			<path i:knockout="Off" d="M176.446,22.901v0.766h-4.266c-0.006-0.191,0.025-0.375,0.093-0.551
				c0.108-0.291,0.282-0.577,0.521-0.857s0.584-0.606,1.033-0.977c0.697-0.583,1.17-1.042,1.418-1.376s0.372-0.652,0.372-0.953
				c0-0.313-0.111-0.577-0.335-0.792s-0.516-0.322-0.875-0.322c-0.38,0-0.684,0.114-0.912,0.34s-0.344,0.54-0.347,0.941
				l-0.813-0.078c0.056-0.605,0.265-1.066,0.628-1.383c0.362-0.317,0.85-0.476,1.461-0.476c0.617,0,1.105,0.172,1.465,0.515
				c0.36,0.344,0.54,0.769,0.54,1.276c0,0.259-0.052,0.513-0.157,0.762c-0.105,0.25-0.279,0.513-0.522,0.788
				c-0.243,0.276-0.648,0.655-1.216,1.136c-0.475,0.399-0.779,0.67-0.914,0.813c-0.134,0.143-0.244,0.285-0.332,0.429H176.446z"/>
		</g>
		<path i:knockout="Off" fill="none" stroke="#000000" stroke-width="0.7" d="M167.766,50.385v-13.5h13.369v13.5H167.766z"/>
		<g i:knockout="Off">
			<path i:knockout="Off" d="M174.812,46.212v-1.547h-2.781v-0.719l2.938-4.172h0.641v4.172h0.875v0.719h-0.875v1.547H174.812z
				 M174.812,43.946v-2.872l-2.003,2.872H174.812z"/>
		</g>
		<path i:knockout="Off" fill="none" stroke="#000000" stroke-width="0.7" d="M167.766,72.591V59.092h13.369v13.499H167.766z"/>
		<g i:knockout="Off">
			<path i:knockout="Off" d="M172.406,66.934l0.766-0.063c0.064,0.351,0.187,0.605,0.366,0.763c0.181,0.158,0.411,0.237,0.694,0.237
				c0.24,0,0.453-0.056,0.638-0.167c0.185-0.111,0.333-0.259,0.447-0.445c0.113-0.186,0.21-0.437,0.288-0.752
				s0.118-0.638,0.118-0.966c0-0.035-0.002-0.088-0.005-0.158c-0.157,0.252-0.371,0.457-0.644,0.613
				c-0.272,0.157-0.566,0.235-0.884,0.235c-0.529,0-0.978-0.194-1.345-0.582c-0.366-0.388-0.55-0.898-0.55-1.533
				c0-0.655,0.191-1.183,0.576-1.582c0.383-0.399,0.863-0.6,1.441-0.6c0.417,0,0.799,0.113,1.145,0.339
				c0.346,0.227,0.608,0.549,0.787,0.967c0.18,0.419,0.27,1.024,0.27,1.817c0,0.825-0.089,1.482-0.268,1.971
				c-0.178,0.489-0.443,0.861-0.796,1.117c-0.353,0.255-0.765,0.383-1.239,0.383c-0.502,0-0.913-0.139-1.232-0.418
				C172.662,67.831,172.47,67.438,172.406,66.934z M175.64,64.074c0-0.455-0.119-0.816-0.356-1.083
				c-0.238-0.267-0.528-0.401-0.872-0.401c-0.354,0-0.66,0.144-0.918,0.432c-0.256,0.288-0.385,0.661-0.385,1.119
				c0,0.411,0.122,0.745,0.365,1.002c0.244,0.257,0.549,0.385,0.916,0.385c0.364,0,0.664-0.128,0.898-0.385
				S175.64,64.529,175.64,64.074z"/>
		</g>
		<path i:knockout="Off" fill="none" stroke="#000000" stroke-width="0.7" d="M183.516,72.591V59.092h13.369v13.499H183.516z"/>
		<g i:knockout="Off">
			<path i:knockout="Off" d="M189.267,64.922c-0.33-0.121-0.574-0.293-0.732-0.517s-0.238-0.491-0.238-0.803
				c0-0.471,0.168-0.867,0.505-1.187c0.337-0.321,0.784-0.481,1.344-0.481c0.562,0,1.015,0.164,1.356,0.492
				c0.343,0.328,0.514,0.728,0.514,1.198c0,0.301-0.078,0.562-0.234,0.784c-0.157,0.222-0.395,0.394-0.714,0.514
				c0.396,0.129,0.697,0.337,0.904,0.624c0.206,0.288,0.31,0.631,0.31,1.029c0,0.551-0.195,1.015-0.585,1.39
				s-0.903,0.563-1.54,0.563s-1.149-0.188-1.539-0.565c-0.391-0.376-0.586-0.846-0.586-1.409c0-0.419,0.107-0.77,0.321-1.053
				C188.566,65.217,188.871,65.024,189.267,64.922z M188.843,66.553c0,0.226,0.053,0.444,0.156,0.655
				c0.105,0.211,0.264,0.374,0.478,0.49s0.442,0.173,0.686,0.173c0.384,0,0.696-0.121,0.94-0.364s0.365-0.552,0.365-0.927
				c0-0.38-0.125-0.695-0.376-0.944s-0.569-0.374-0.956-0.374c-0.377,0-0.688,0.123-0.93,0.369S188.843,66.185,188.843,66.553z
				 M189.109,63.579c0,0.306,0.097,0.557,0.29,0.751c0.192,0.194,0.448,0.291,0.766,0.291c0.31,0,0.56-0.096,0.751-0.289
				s0.287-0.429,0.287-0.709c0-0.291-0.099-0.536-0.296-0.735c-0.197-0.198-0.448-0.298-0.751-0.298
				c-0.306,0-0.557,0.097-0.753,0.292S189.109,63.308,189.109,63.579z"/>
		</g>
		<path i:knockout="Off" fill="none" stroke="#000000" stroke-width="0.7" d="M167.766,95.251V81.752h13.369v13.499H167.766z"/>
		<g i:knockout="Off">
			<path i:knockout="Off" d="M172.763,91.078h-0.797v-5.053c-0.19,0.182-0.439,0.364-0.748,0.546s-0.585,0.319-0.83,0.41v-0.767
				c0.441-0.208,0.828-0.461,1.158-0.758c0.331-0.296,0.565-0.584,0.703-0.863h0.514V91.078z"/>
			<path i:knockout="Off" d="M174.799,89.391l0.797-0.109c0.091,0.443,0.243,0.762,0.458,0.957s0.48,0.293,0.799,0.293
				c0.375,0,0.689-0.129,0.942-0.388c0.253-0.258,0.379-0.579,0.379-0.96c0-0.364-0.118-0.665-0.354-0.901s-0.537-0.354-0.902-0.354
				c-0.148,0-0.334,0.029-0.555,0.088l0.087-0.688c0.053,0.006,0.095,0.009,0.127,0.009c0.338,0,0.642-0.088,0.911-0.264
				c0.271-0.176,0.405-0.448,0.405-0.814c0-0.291-0.099-0.531-0.296-0.722c-0.198-0.19-0.453-0.286-0.766-0.286
				c-0.311,0-0.568,0.097-0.774,0.289c-0.207,0.193-0.34,0.482-0.398,0.867l-0.797-0.141c0.097-0.531,0.317-0.942,0.663-1.234
				c0.344-0.292,0.772-0.438,1.285-0.438c0.354,0,0.679,0.076,0.977,0.227c0.297,0.151,0.525,0.358,0.683,0.619
				c0.157,0.262,0.236,0.539,0.236,0.833c0,0.279-0.075,0.533-0.224,0.762c-0.15,0.229-0.371,0.411-0.664,0.546
				c0.381,0.088,0.676,0.271,0.886,0.548s0.314,0.624,0.314,1.04c0,0.563-0.205,1.041-0.615,1.432s-0.929,0.587-1.556,0.587
				c-0.565,0-1.035-0.167-1.408-0.5C175.065,90.354,174.852,89.921,174.799,89.391z"/>
		</g>
		<path i:knockout="Off" fill="none" stroke="#000000" stroke-width="0.7" d="M183.516,95.251V81.752h13.369v13.499H183.516z"/>
		<g i:knockout="Off">
			<path i:knockout="Off" d="M188.513,91.078h-0.797v-5.053c-0.19,0.182-0.439,0.364-0.748,0.546s-0.585,0.319-0.83,0.41v-0.767
				c0.441-0.208,0.828-0.461,1.158-0.758c0.331-0.296,0.565-0.584,0.703-0.863h0.514V91.078z"/>
			<path i:knockout="Off" d="M194.699,90.313v0.766h-4.266c-0.006-0.191,0.025-0.375,0.093-0.551
				c0.108-0.291,0.282-0.577,0.521-0.858s0.583-0.606,1.033-0.977c0.697-0.583,1.17-1.041,1.418-1.376
				c0.248-0.334,0.372-0.652,0.372-0.953c0-0.313-0.111-0.576-0.336-0.791c-0.223-0.215-0.515-0.322-0.874-0.322
				c-0.38,0-0.685,0.113-0.912,0.34c-0.229,0.227-0.344,0.541-0.347,0.941l-0.813-0.078c0.056-0.605,0.265-1.066,0.627-1.384
				c0.363-0.317,0.851-0.476,1.462-0.476c0.617,0,1.105,0.172,1.465,0.515c0.36,0.343,0.54,0.769,0.54,1.277
				c0,0.258-0.053,0.512-0.157,0.762c-0.105,0.249-0.279,0.512-0.522,0.788c-0.244,0.275-0.648,0.654-1.216,1.136
				c-0.476,0.399-0.78,0.67-0.914,0.812s-0.244,0.286-0.332,0.429H194.699z"/>
		</g>
		<path i:knockout="Off" fill="none" stroke="#000000" stroke-width="0.7" d="M167.766,142.527v-13.5h13.369v13.5H167.766z"/>
		<g i:knockout="Off">
			<path i:knockout="Off" d="M173.943,137.588v0.766h-4.266c-0.006-0.191,0.025-0.375,0.093-0.551
				c0.108-0.291,0.282-0.577,0.522-0.857c0.238-0.281,0.583-0.607,1.033-0.978c0.697-0.583,1.17-1.041,1.418-1.376
				c0.248-0.334,0.371-0.652,0.371-0.953c0-0.313-0.111-0.576-0.335-0.791s-0.516-0.322-0.875-0.322c-0.38,0-0.684,0.113-0.912,0.34
				c-0.228,0.227-0.343,0.541-0.347,0.941l-0.813-0.078c0.056-0.605,0.266-1.066,0.628-1.384s0.85-0.476,1.461-0.476
				c0.617,0,1.105,0.172,1.466,0.516c0.359,0.343,0.539,0.769,0.539,1.276c0,0.258-0.052,0.512-0.157,0.762
				c-0.104,0.249-0.279,0.512-0.522,0.788c-0.243,0.275-0.648,0.654-1.215,1.136c-0.476,0.399-0.78,0.67-0.914,0.812
				c-0.135,0.143-0.245,0.286-0.332,0.43H173.943z"/>
			<path i:knockout="Off" d="M174.799,136.666l0.797-0.109c0.091,0.443,0.243,0.762,0.458,0.957s0.48,0.293,0.799,0.293
				c0.375,0,0.689-0.129,0.942-0.388s0.379-0.579,0.379-0.96c0-0.365-0.118-0.665-0.354-0.901s-0.537-0.354-0.902-0.354
				c-0.148,0-0.334,0.029-0.555,0.088l0.087-0.688c0.053,0.006,0.095,0.009,0.127,0.009c0.338,0,0.642-0.088,0.911-0.265
				c0.271-0.176,0.405-0.447,0.405-0.814c0-0.29-0.099-0.531-0.296-0.722c-0.198-0.19-0.453-0.286-0.766-0.286
				c-0.311,0-0.568,0.097-0.774,0.289c-0.207,0.193-0.34,0.482-0.398,0.867l-0.797-0.141c0.097-0.531,0.317-0.942,0.663-1.234
				c0.344-0.291,0.772-0.438,1.285-0.438c0.354,0,0.679,0.076,0.977,0.227c0.297,0.152,0.525,0.358,0.683,0.619
				c0.157,0.262,0.236,0.539,0.236,0.833c0,0.278-0.075,0.533-0.224,0.762c-0.15,0.229-0.371,0.411-0.664,0.546
				c0.381,0.089,0.676,0.271,0.886,0.549c0.21,0.276,0.314,0.623,0.314,1.039c0,0.563-0.205,1.041-0.615,1.433
				s-0.929,0.587-1.556,0.587c-0.565,0-1.035-0.167-1.408-0.5C175.065,137.629,174.852,137.197,174.799,136.666z"/>
		</g>
		<path i:knockout="Off" fill="none" stroke="#000000" stroke-width="0.7" d="M167.766,210.111v-13.498h13.369v13.498H167.766z"/>
		<g i:knockout="Off">
			<path i:knockout="Off" d="M169.794,204.252l0.797-0.109c0.09,0.443,0.242,0.762,0.457,0.957s0.481,0.293,0.799,0.293
				c0.375,0,0.689-0.129,0.942-0.388s0.38-0.579,0.38-0.96c0-0.365-0.119-0.665-0.355-0.901s-0.537-0.354-0.901-0.354
				c-0.149,0-0.334,0.029-0.556,0.088l0.088-0.688c0.052,0.006,0.095,0.009,0.127,0.009c0.337,0,0.641-0.088,0.911-0.265
				c0.27-0.176,0.405-0.447,0.405-0.814c0-0.29-0.1-0.531-0.297-0.722s-0.453-0.286-0.766-0.286c-0.31,0-0.567,0.097-0.774,0.289
				c-0.206,0.193-0.339,0.482-0.397,0.867l-0.797-0.141c0.097-0.531,0.317-0.942,0.662-1.234c0.345-0.291,0.773-0.438,1.286-0.438
				c0.353,0,0.679,0.076,0.976,0.227c0.298,0.152,0.525,0.358,0.684,0.619c0.157,0.262,0.236,0.539,0.236,0.833
				c0,0.278-0.075,0.533-0.225,0.762c-0.149,0.229-0.371,0.411-0.664,0.546c0.381,0.089,0.677,0.271,0.887,0.549
				c0.209,0.276,0.314,0.623,0.314,1.039c0,0.563-0.205,1.041-0.615,1.433s-0.93,0.587-1.557,0.587c-0.564,0-1.034-0.167-1.408-0.5
				C170.06,205.215,169.847,204.783,169.794,204.252z"/>
			<path i:knockout="Off" d="M174.799,204.252l0.797-0.109c0.091,0.443,0.243,0.762,0.458,0.957s0.48,0.293,0.799,0.293
				c0.375,0,0.689-0.129,0.942-0.388s0.379-0.579,0.379-0.96c0-0.365-0.118-0.665-0.354-0.901s-0.537-0.354-0.902-0.354
				c-0.148,0-0.334,0.029-0.555,0.088l0.087-0.688c0.053,0.006,0.095,0.009,0.127,0.009c0.338,0,0.642-0.088,0.911-0.265
				c0.271-0.176,0.405-0.447,0.405-0.814c0-0.29-0.099-0.531-0.296-0.722c-0.198-0.19-0.453-0.286-0.766-0.286
				c-0.311,0-0.568,0.097-0.774,0.289c-0.207,0.193-0.34,0.482-0.398,0.867l-0.797-0.141c0.097-0.531,0.317-0.942,0.663-1.234
				c0.344-0.291,0.772-0.438,1.285-0.438c0.354,0,0.679,0.076,0.977,0.227c0.297,0.152,0.525,0.358,0.683,0.619
				c0.157,0.262,0.236,0.539,0.236,0.833c0,0.278-0.075,0.533-0.224,0.762c-0.15,0.229-0.371,0.411-0.664,0.546
				c0.381,0.089,0.676,0.271,0.886,0.549c0.21,0.276,0.314,0.623,0.314,1.039c0,0.563-0.205,1.041-0.615,1.433
				s-0.929,0.587-1.556,0.587c-0.565,0-1.035-0.167-1.408-0.5C175.065,205.215,174.852,204.783,174.799,204.252z"/>
		</g>
		<path i:knockout="Off" fill="none" stroke="#000000" stroke-width="0.7" d="M167.766,187.053v-13.5h13.369v13.5H167.766z"/>
		<g i:knockout="Off">
			<path i:knockout="Off" d="M169.794,181.191l0.797-0.109c0.09,0.443,0.242,0.762,0.457,0.957s0.481,0.293,0.799,0.293
				c0.375,0,0.689-0.129,0.942-0.388s0.38-0.579,0.38-0.96c0-0.365-0.119-0.665-0.355-0.901s-0.537-0.354-0.901-0.354
				c-0.149,0-0.334,0.029-0.556,0.088l0.088-0.688c0.052,0.006,0.095,0.009,0.127,0.009c0.337,0,0.641-0.088,0.911-0.265
				c0.27-0.176,0.405-0.447,0.405-0.814c0-0.29-0.1-0.531-0.297-0.722s-0.453-0.286-0.766-0.286c-0.31,0-0.567,0.097-0.774,0.289
				c-0.206,0.193-0.339,0.482-0.397,0.867l-0.797-0.141c0.097-0.531,0.317-0.942,0.662-1.234c0.345-0.291,0.773-0.438,1.286-0.438
				c0.353,0,0.679,0.076,0.976,0.227c0.298,0.152,0.525,0.358,0.684,0.619c0.157,0.262,0.236,0.539,0.236,0.833
				c0,0.278-0.075,0.533-0.225,0.762c-0.149,0.229-0.371,0.411-0.664,0.546c0.381,0.089,0.677,0.271,0.887,0.549
				c0.209,0.276,0.314,0.623,0.314,1.039c0,0.563-0.205,1.041-0.615,1.433s-0.93,0.587-1.557,0.587c-0.564,0-1.034-0.167-1.408-0.5
				C170.06,182.154,169.847,181.723,169.794,181.191z"/>
			<path i:knockout="Off" d="M177.768,182.879h-0.797v-5.053c-0.19,0.182-0.439,0.364-0.747,0.547
				c-0.309,0.182-0.586,0.318-0.831,0.409v-0.767c0.442-0.209,0.828-0.461,1.159-0.758c0.33-0.297,0.564-0.584,0.702-0.863h0.514
				V182.879z"/>
		</g>
		<path i:knockout="Off" fill="none" stroke="#000000" stroke-width="0.7" d="M183.516,142.527v-13.5h13.369v13.5H183.516z"/>
		<g i:knockout="Off">
			<path i:knockout="Off" d="M189.693,137.588v0.766h-4.266c-0.006-0.191,0.025-0.375,0.093-0.551
				c0.108-0.291,0.282-0.577,0.522-0.857c0.238-0.281,0.583-0.607,1.033-0.978c0.697-0.583,1.17-1.041,1.418-1.376
				c0.248-0.334,0.371-0.652,0.371-0.953c0-0.313-0.111-0.576-0.335-0.791s-0.516-0.322-0.875-0.322c-0.38,0-0.684,0.113-0.912,0.34
				c-0.228,0.227-0.343,0.541-0.347,0.941l-0.813-0.078c0.056-0.605,0.266-1.066,0.628-1.384s0.85-0.476,1.461-0.476
				c0.617,0,1.105,0.172,1.466,0.516c0.359,0.343,0.539,0.769,0.539,1.276c0,0.258-0.052,0.512-0.157,0.762
				c-0.104,0.249-0.279,0.512-0.522,0.788c-0.243,0.275-0.648,0.654-1.215,1.136c-0.476,0.399-0.78,0.67-0.914,0.812
				c-0.135,0.143-0.245,0.286-0.332,0.43H189.693z"/>
			<path i:knockout="Off" d="M194.699,137.588v0.766h-4.266c-0.006-0.191,0.025-0.375,0.093-0.551
				c0.108-0.291,0.282-0.577,0.521-0.857c0.239-0.281,0.583-0.607,1.033-0.978c0.697-0.583,1.17-1.041,1.418-1.376
				c0.248-0.334,0.372-0.652,0.372-0.953c0-0.313-0.111-0.576-0.336-0.791c-0.223-0.215-0.515-0.322-0.874-0.322
				c-0.38,0-0.685,0.113-0.912,0.34c-0.229,0.227-0.344,0.541-0.347,0.941l-0.813-0.078c0.056-0.605,0.265-1.066,0.627-1.384
				c0.363-0.317,0.851-0.476,1.462-0.476c0.617,0,1.105,0.172,1.465,0.516c0.36,0.343,0.54,0.769,0.54,1.276
				c0,0.258-0.053,0.512-0.157,0.762c-0.105,0.249-0.279,0.512-0.522,0.788c-0.244,0.275-0.648,0.654-1.216,1.136
				c-0.476,0.399-0.78,0.67-0.914,0.812c-0.134,0.143-0.244,0.286-0.332,0.43H194.699z"/>
		</g>
		<path i:knockout="Off" fill="none" stroke="#000000" stroke-width="0.7" d="M167.766,165.045v-13.498h13.369v13.498H167.766z"/>
		<g i:knockout="Off">
			<path i:knockout="Off" d="M173.943,160.107v0.766h-4.266c-0.006-0.191,0.025-0.375,0.093-0.551
				c0.108-0.291,0.282-0.577,0.522-0.857c0.238-0.281,0.583-0.607,1.033-0.978c0.697-0.583,1.17-1.041,1.418-1.376
				c0.248-0.334,0.371-0.652,0.371-0.953c0-0.313-0.111-0.576-0.335-0.791s-0.516-0.322-0.875-0.322c-0.38,0-0.684,0.113-0.912,0.34
				c-0.228,0.227-0.343,0.541-0.347,0.941l-0.813-0.078c0.056-0.605,0.266-1.066,0.628-1.384s0.85-0.476,1.461-0.476
				c0.617,0,1.105,0.172,1.466,0.516c0.359,0.343,0.539,0.769,0.539,1.276c0,0.258-0.052,0.512-0.157,0.762
				c-0.104,0.249-0.279,0.512-0.522,0.788c-0.243,0.275-0.648,0.654-1.215,1.136c-0.476,0.399-0.78,0.67-0.914,0.812
				c-0.135,0.143-0.245,0.286-0.332,0.43H173.943z"/>
			<path i:knockout="Off" d="M174.846,155.264v-0.766h4.172v0.619c-0.409,0.438-0.815,1.02-1.218,1.745
				c-0.402,0.725-0.713,1.47-0.933,2.236c-0.158,0.54-0.259,1.132-0.303,1.774h-0.813c0.009-0.508,0.108-1.121,0.298-1.84
				c0.19-0.72,0.463-1.413,0.818-2.081s0.733-1.23,1.134-1.688H174.846z"/>
		</g>
		<path i:knockout="Off" fill="none" stroke="#000000" stroke-width="0.7" d="M183.516,165.045v-13.498h13.369v13.498H183.516z"/>
		<g i:knockout="Off">
			<path i:knockout="Off" d="M189.693,160.107v0.766h-4.266c-0.006-0.191,0.025-0.375,0.093-0.551
				c0.108-0.291,0.282-0.577,0.522-0.857c0.238-0.281,0.583-0.607,1.033-0.978c0.697-0.583,1.17-1.041,1.418-1.376
				c0.248-0.334,0.371-0.652,0.371-0.953c0-0.313-0.111-0.576-0.335-0.791s-0.516-0.322-0.875-0.322c-0.38,0-0.684,0.113-0.912,0.34
				c-0.228,0.227-0.343,0.541-0.347,0.941l-0.813-0.078c0.056-0.605,0.266-1.066,0.628-1.384s0.85-0.476,1.461-0.476
				c0.617,0,1.105,0.172,1.466,0.516c0.359,0.343,0.539,0.769,0.539,1.276c0,0.258-0.052,0.512-0.157,0.762
				c-0.104,0.249-0.279,0.512-0.522,0.788c-0.243,0.275-0.648,0.654-1.215,1.136c-0.476,0.399-0.78,0.67-0.914,0.812
				c-0.135,0.143-0.245,0.286-0.332,0.43H189.693z"/>
			<path i:knockout="Off" d="M194.659,155.998l-0.781,0.063c-0.071-0.311-0.171-0.536-0.3-0.677
				c-0.215-0.226-0.48-0.339-0.795-0.339c-0.253,0-0.479,0.07-0.675,0.211c-0.245,0.182-0.439,0.447-0.583,0.797
				c-0.145,0.349-0.22,0.846-0.226,1.49c0.19-0.291,0.423-0.506,0.699-0.646c0.275-0.141,0.563-0.211,0.866-0.211
				c0.527,0,0.977,0.194,1.348,0.584c0.37,0.389,0.556,0.891,0.556,1.508c0,0.404-0.087,0.781-0.261,1.129
				c-0.175,0.348-0.414,0.614-0.719,0.799s-0.649,0.277-1.035,0.277c-0.659,0-1.196-0.243-1.612-0.729
				c-0.415-0.486-0.623-1.287-0.623-2.403c0-1.248,0.229-2.155,0.69-2.722c0.401-0.493,0.941-0.74,1.621-0.74
				c0.508,0,0.923,0.143,1.246,0.428C194.4,155.102,194.594,155.496,194.659,155.998z M191.424,158.78
				c0,0.272,0.058,0.533,0.173,0.782c0.116,0.248,0.276,0.438,0.481,0.568s0.424,0.195,0.657,0.195c0.339,0,0.627-0.135,0.863-0.404
				c0.238-0.269,0.356-0.635,0.356-1.098c0-0.444-0.117-0.795-0.352-1.051c-0.234-0.257-0.534-0.385-0.898-0.385
				c-0.357,0-0.66,0.128-0.908,0.385C191.548,158.029,191.424,158.365,191.424,158.78z"/>
		</g>
		<path i:knockout="Off" fill="none" stroke="#000000" stroke-width="0.7" d="M183.516,110.942V97.443h13.369v13.499H183.516z"/>
		<g i:knockout="Off">
			<path i:knockout="Off" d="M188.513,106.77h-0.797v-5.053c-0.19,0.182-0.439,0.364-0.748,0.546s-0.585,0.319-0.83,0.41v-0.767
				c0.441-0.208,0.828-0.461,1.158-0.758c0.331-0.296,0.565-0.584,0.703-0.863h0.514V106.77z"/>
			<path i:knockout="Off" d="M194.659,101.895l-0.781,0.063c-0.071-0.311-0.171-0.536-0.3-0.677
				c-0.215-0.226-0.48-0.339-0.795-0.339c-0.253,0-0.479,0.07-0.675,0.211c-0.245,0.182-0.439,0.447-0.583,0.796
				c-0.145,0.349-0.22,0.846-0.226,1.49c0.19-0.29,0.423-0.505,0.699-0.646c0.275-0.141,0.563-0.211,0.866-0.211
				c0.527,0,0.977,0.194,1.348,0.583c0.37,0.389,0.556,0.892,0.556,1.508c0,0.405-0.087,0.782-0.261,1.129
				c-0.175,0.348-0.414,0.614-0.719,0.799s-0.649,0.277-1.035,0.277c-0.659,0-1.196-0.243-1.612-0.729
				c-0.415-0.486-0.623-1.287-0.623-2.403c0-1.248,0.229-2.155,0.69-2.722c0.401-0.493,0.941-0.74,1.621-0.74
				c0.508,0,0.923,0.143,1.246,0.428C194.4,100.998,194.594,101.392,194.659,101.895z M191.424,104.677
				c0,0.272,0.058,0.533,0.173,0.782c0.116,0.249,0.276,0.438,0.481,0.568s0.424,0.195,0.657,0.195c0.339,0,0.627-0.135,0.863-0.404
				c0.238-0.269,0.356-0.635,0.356-1.098c0-0.444-0.117-0.795-0.352-1.051s-0.534-0.384-0.898-0.384
				c-0.357,0-0.66,0.128-0.908,0.384C191.548,103.926,191.424,104.262,191.424,104.677z"/>
		</g>
		<path i:knockout="Off" fill="none" stroke="#000000" stroke-width="0.7" d="M183.516,126.734v-13.499h13.369v13.499H183.516z"/>
		<g i:knockout="Off">
			<path i:knockout="Off" d="M188.513,122.561h-0.797v-5.053c-0.19,0.182-0.439,0.364-0.748,0.546s-0.585,0.319-0.83,0.41v-0.767
				c0.441-0.208,0.828-0.461,1.158-0.758c0.331-0.296,0.565-0.584,0.703-0.863h0.514V122.561z"/>
			<path i:knockout="Off" d="M191.769,119.064c-0.329-0.121-0.573-0.293-0.731-0.517c-0.159-0.224-0.238-0.491-0.238-0.803
				c0-0.471,0.168-0.867,0.505-1.187c0.336-0.321,0.784-0.481,1.344-0.481c0.562,0,1.014,0.164,1.356,0.492s0.514,0.728,0.514,1.198
				c0,0.301-0.078,0.562-0.235,0.784c-0.156,0.222-0.395,0.394-0.713,0.514c0.396,0.129,0.697,0.337,0.904,0.624
				c0.206,0.288,0.31,0.631,0.31,1.029c0,0.551-0.195,1.015-0.585,1.39c-0.391,0.375-0.904,0.563-1.54,0.563
				c-0.637,0-1.149-0.188-1.54-0.565c-0.39-0.376-0.585-0.846-0.585-1.409c0-0.419,0.106-0.77,0.321-1.053
				C191.069,119.36,191.374,119.167,191.769,119.064z M191.346,120.696c0,0.226,0.052,0.444,0.156,0.655s0.264,0.374,0.478,0.49
				c0.213,0.116,0.441,0.173,0.686,0.173c0.383,0,0.696-0.121,0.94-0.364c0.243-0.243,0.365-0.552,0.365-0.927
				c0-0.38-0.126-0.695-0.376-0.944c-0.252-0.249-0.57-0.374-0.956-0.374c-0.378,0-0.688,0.123-0.93,0.369
				S191.346,120.327,191.346,120.696z M191.612,117.722c0,0.306,0.097,0.557,0.29,0.751c0.192,0.194,0.447,0.291,0.766,0.291
				c0.309,0,0.559-0.096,0.751-0.289c0.191-0.193,0.287-0.429,0.287-0.709c0-0.291-0.099-0.536-0.296-0.735
				c-0.197-0.198-0.448-0.298-0.751-0.298c-0.306,0-0.558,0.097-0.753,0.292C191.709,117.218,191.612,117.451,191.612,117.722z"/>
		</g>
		<path i:knockout="Off" fill="none" stroke="#000000" stroke-width="0.7" d="M141.583,109.234h-13.385"/>
		<path i:knockout="Off" fill="none" stroke="#000000" stroke-width="0.7" d="M128.008,126.553v-13.5h13.371v13.5H128.008z"/>
		<g i:knockout="Off">
			<path i:knockout="Off" d="M133.005,121.871h-0.797v-5.053c-0.19,0.182-0.439,0.364-0.748,0.546s-0.585,0.319-0.83,0.41v-0.767
				c0.441-0.208,0.828-0.461,1.158-0.758c0.331-0.296,0.565-0.584,0.703-0.863h0.514V121.871z"/>
			<path i:knockout="Off" d="M135.151,120.387l0.766-0.063c0.063,0.351,0.187,0.605,0.366,0.763c0.18,0.158,0.411,0.237,0.693,0.237
				c0.241,0,0.454-0.056,0.639-0.167c0.184-0.111,0.333-0.259,0.447-0.445c0.113-0.186,0.209-0.437,0.288-0.752
				c0.078-0.316,0.118-0.638,0.118-0.966c0-0.035-0.002-0.088-0.005-0.158c-0.157,0.252-0.372,0.457-0.644,0.613
				c-0.272,0.157-0.566,0.235-0.884,0.235c-0.53,0-0.978-0.194-1.345-0.582c-0.367-0.388-0.55-0.898-0.55-1.533
				c0-0.655,0.191-1.183,0.575-1.582s0.864-0.6,1.442-0.6c0.417,0,0.799,0.113,1.145,0.339c0.346,0.227,0.608,0.549,0.787,0.967
				c0.18,0.419,0.27,1.024,0.27,1.817c0,0.825-0.089,1.482-0.268,1.971c-0.179,0.489-0.444,0.861-0.796,1.117
				c-0.353,0.255-0.766,0.383-1.239,0.383c-0.503,0-0.913-0.139-1.232-0.418C135.407,121.284,135.215,120.892,135.151,120.387z
				 M138.385,117.527c0-0.455-0.119-0.816-0.356-1.083c-0.238-0.267-0.529-0.401-0.872-0.401c-0.354,0-0.661,0.144-0.918,0.432
				c-0.257,0.288-0.385,0.661-0.385,1.119c0,0.411,0.122,0.745,0.365,1.002c0.244,0.257,0.549,0.385,0.916,0.385
				c0.364,0,0.663-0.128,0.897-0.385C138.268,118.338,138.385,117.982,138.385,117.527z"/>
		</g>
		<path i:knockout="Off" fill="none" stroke="#000000" stroke-width="0.7" d="M141.583,124.725h-13.385"/>
		<path i:knockout="Off" fill="none" stroke="#000000" stroke-width="0.7" d="M121.87,95.435V83.593h11.729v11.842H121.87z"/>
		<g i:knockout="Off">
			<path i:knockout="Off" d="M126.033,91.583h-0.797V86.53c-0.19,0.182-0.439,0.364-0.748,0.546s-0.585,0.319-0.83,0.41V86.72
				c0.441-0.208,0.828-0.461,1.158-0.758c0.331-0.296,0.565-0.584,0.703-0.863h0.514V91.583z"/>
			<path i:knockout="Off" d="M128.069,89.896l0.813-0.063c0.062,0.399,0.204,0.7,0.426,0.901s0.494,0.302,0.817,0.302
				c0.39,0,0.715-0.144,0.976-0.431s0.391-0.667,0.391-1.142c0-0.451-0.124-0.807-0.372-1.067s-0.579-0.391-0.994-0.391
				c-0.258,0-0.488,0.058-0.689,0.174c-0.201,0.116-0.359,0.267-0.476,0.451l-0.75-0.109l0.625-3.313h3.203v0.75h-2.574l-0.348,1.75
				c0.386-0.271,0.792-0.407,1.216-0.407c0.563,0,1.037,0.195,1.423,0.586c0.387,0.391,0.58,0.893,0.58,1.506
				c0,0.584-0.17,1.089-0.509,1.515c-0.413,0.523-0.977,0.784-1.689,0.784c-0.586,0-1.063-0.164-1.434-0.492
				S128.122,90.438,128.069,89.896z"/>
		</g>
		<path i:knockout="Off" fill="none" stroke="#000000" stroke-width="0.7" d="M133.776,93.685h-11.74"/>
		<path i:knockout="Off" fill="none" stroke="#000000" stroke-width="0.7" d="M135.61,140.516v-11.842h11.729v11.842H135.61z"/>
		<g i:knockout="Off">
			<path i:knockout="Off" d="M140.953,135.898v0.766h-4.266c-0.006-0.191,0.025-0.375,0.093-0.551
				c0.108-0.291,0.282-0.577,0.522-0.857c0.238-0.281,0.583-0.607,1.033-0.978c0.697-0.583,1.17-1.041,1.418-1.376
				c0.248-0.334,0.371-0.652,0.371-0.953c0-0.313-0.111-0.576-0.335-0.791s-0.516-0.322-0.875-0.322c-0.38,0-0.684,0.113-0.912,0.34
				c-0.228,0.227-0.343,0.541-0.347,0.941l-0.813-0.078c0.056-0.605,0.266-1.066,0.628-1.384c0.362-0.317,0.85-0.476,1.461-0.476
				c0.617,0,1.105,0.172,1.466,0.515c0.359,0.343,0.539,0.769,0.539,1.277c0,0.258-0.052,0.512-0.157,0.762
				c-0.104,0.249-0.279,0.512-0.522,0.788c-0.243,0.275-0.648,0.654-1.215,1.136c-0.476,0.399-0.78,0.67-0.914,0.812
				c-0.135,0.143-0.245,0.286-0.332,0.43H140.953z"/>
			<path i:knockout="Off" d="M141.809,133.479c0-0.764,0.078-1.379,0.234-1.847s0.388-0.827,0.696-1.077s0.695-0.375,1.163-0.375
				c0.345,0,0.647,0.07,0.911,0.209c0.262,0.14,0.477,0.341,0.644,0.604s0.298,0.583,0.395,0.961
				c0.097,0.377,0.145,0.886,0.145,1.525c0,0.758-0.077,1.371-0.232,1.839c-0.154,0.468-0.386,0.827-0.694,1.079
				c-0.308,0.252-0.697,0.377-1.167,0.377c-0.619,0-1.105-0.221-1.458-0.662C142.021,135.569,141.809,134.691,141.809,133.479z
				 M142.622,133.477c0,1.064,0.123,1.771,0.369,2.119c0.247,0.348,0.551,0.521,0.912,0.521s0.665-0.175,0.911-0.524
				c0.247-0.349,0.37-1.055,0.37-2.116c0-1.063-0.122-1.768-0.368-2.117c-0.244-0.349-0.552-0.523-0.922-0.523
				c-0.361,0-0.651,0.154-0.869,0.462C142.755,131.691,142.622,132.418,142.622,133.477z"/>
		</g>
		<path i:knockout="Off" fill="none" stroke="#000000" stroke-width="0.7" d="M147.516,138.766h-11.74"/>
		<path i:knockout="Off" fill="none" stroke="#000000" stroke-width="0.7" d="M121.87,140.516v-11.842h11.729v11.842H121.87z"/>
		<g i:knockout="Off">
			<path i:knockout="Off" d="M127.212,135.898v0.766h-4.266c-0.006-0.191,0.025-0.375,0.093-0.551
				c0.108-0.291,0.282-0.577,0.522-0.857c0.238-0.281,0.583-0.607,1.033-0.978c0.697-0.583,1.17-1.041,1.418-1.376
				c0.248-0.334,0.371-0.652,0.371-0.953c0-0.313-0.111-0.576-0.335-0.791s-0.516-0.322-0.875-0.322c-0.38,0-0.684,0.113-0.912,0.34
				c-0.228,0.227-0.343,0.541-0.347,0.941l-0.813-0.078c0.056-0.605,0.266-1.066,0.628-1.384c0.362-0.317,0.85-0.476,1.461-0.476
				c0.617,0,1.105,0.172,1.466,0.515c0.359,0.343,0.539,0.769,0.539,1.277c0,0.258-0.052,0.512-0.157,0.762
				c-0.104,0.249-0.279,0.512-0.522,0.788c-0.243,0.275-0.648,0.654-1.215,1.136c-0.476,0.399-0.78,0.67-0.914,0.812
				c-0.135,0.143-0.245,0.286-0.332,0.43H127.212z"/>
			<path i:knockout="Off" d="M131.038,136.664h-0.797v-5.053c-0.19,0.182-0.439,0.364-0.747,0.547
				c-0.309,0.182-0.586,0.318-0.831,0.409v-0.767c0.442-0.209,0.828-0.461,1.159-0.758c0.33-0.296,0.564-0.584,0.702-0.863h0.514
				V136.664z"/>
		</g>
		<path i:knockout="Off" fill="none" stroke="#000000" stroke-width="0.7" d="M133.776,138.766h-11.74"/>
		<path i:knockout="Off" fill="none" stroke="#000000" stroke-width="0.7" d="M135.61,154.391v-11.842h11.729v11.842H135.61z"/>
		<g i:knockout="Off">
			<path i:knockout="Off" d="M140.953,149.773v0.766h-4.266c-0.006-0.191,0.025-0.375,0.093-0.551
				c0.108-0.291,0.282-0.577,0.522-0.857c0.238-0.281,0.583-0.607,1.033-0.978c0.697-0.583,1.17-1.041,1.418-1.376
				c0.248-0.334,0.371-0.652,0.371-0.953c0-0.313-0.111-0.576-0.335-0.791s-0.516-0.322-0.875-0.322c-0.38,0-0.684,0.113-0.912,0.34
				c-0.228,0.227-0.343,0.541-0.347,0.941l-0.813-0.078c0.056-0.605,0.266-1.066,0.628-1.384s0.85-0.476,1.461-0.476
				c0.617,0,1.105,0.172,1.466,0.516c0.359,0.343,0.539,0.769,0.539,1.276c0,0.258-0.052,0.512-0.157,0.762
				c-0.104,0.249-0.279,0.512-0.522,0.788c-0.243,0.275-0.648,0.654-1.215,1.136c-0.476,0.399-0.78,0.67-0.914,0.812
				c-0.135,0.143-0.245,0.286-0.332,0.43H140.953z"/>
			<path i:knockout="Off" d="M144.325,150.539v-1.547h-2.781v-0.719l2.938-4.172h0.641v4.172h0.875v0.719h-0.875v1.547H144.325z
				 M144.325,148.273v-2.872l-2.003,2.872H144.325z"/>
		</g>
		<path i:knockout="Off" fill="none" stroke="#000000" stroke-width="0.7" d="M147.516,152.641h-11.74"/>
		<path i:knockout="Off" fill="none" stroke="#000000" stroke-width="0.7" d="M121.87,154.391v-11.842h11.729v11.842H121.87z"/>
		<g i:knockout="Off">
			<path i:knockout="Off" d="M127.212,149.773v0.766h-4.266c-0.006-0.191,0.025-0.375,0.093-0.551
				c0.108-0.291,0.282-0.577,0.522-0.857c0.238-0.281,0.583-0.607,1.033-0.978c0.697-0.583,1.17-1.041,1.418-1.376
				c0.248-0.334,0.371-0.652,0.371-0.953c0-0.313-0.111-0.576-0.335-0.791s-0.516-0.322-0.875-0.322c-0.38,0-0.684,0.113-0.912,0.34
				c-0.228,0.227-0.343,0.541-0.347,0.941l-0.813-0.078c0.056-0.605,0.266-1.066,0.628-1.384s0.85-0.476,1.461-0.476
				c0.617,0,1.105,0.172,1.466,0.516c0.359,0.343,0.539,0.769,0.539,1.276c0,0.258-0.052,0.512-0.157,0.762
				c-0.104,0.249-0.279,0.512-0.522,0.788c-0.243,0.275-0.648,0.654-1.215,1.136c-0.476,0.399-0.78,0.67-0.914,0.812
				c-0.135,0.143-0.245,0.286-0.332,0.43H127.212z"/>
			<path i:knockout="Off" d="M128.069,148.852l0.813-0.063c0.062,0.399,0.204,0.7,0.426,0.901s0.494,0.302,0.817,0.302
				c0.39,0,0.715-0.144,0.976-0.431s0.391-0.667,0.391-1.142c0-0.451-0.124-0.807-0.372-1.068c-0.248-0.26-0.579-0.391-0.994-0.391
				c-0.258,0-0.488,0.059-0.689,0.174c-0.201,0.116-0.359,0.267-0.476,0.451l-0.75-0.109l0.625-3.313h3.203v0.75h-2.574l-0.348,1.75
				c0.386-0.271,0.792-0.406,1.216-0.406c0.563,0,1.037,0.195,1.423,0.586c0.387,0.391,0.58,0.893,0.58,1.506
				c0,0.584-0.17,1.09-0.509,1.515c-0.413,0.522-0.977,0.784-1.689,0.784c-0.586,0-1.063-0.164-1.434-0.492
				S128.122,149.394,128.069,148.852z"/>
		</g>
		<path i:knockout="Off" fill="none" stroke="#000000" stroke-width="0.7" d="M133.776,152.641h-11.74"/>
		<path i:knockout="Off" fill="none" stroke="#000000" stroke-width="0.7" d="M135.61,168.434v-11.842h11.729v11.842H135.61z"/>
		<g i:knockout="Off">
			<path i:knockout="Off" d="M140.953,163.816v0.766h-4.266c-0.006-0.191,0.025-0.375,0.093-0.551
				c0.108-0.291,0.282-0.577,0.522-0.857c0.238-0.281,0.583-0.607,1.033-0.978c0.697-0.583,1.17-1.041,1.418-1.376
				c0.248-0.334,0.371-0.652,0.371-0.953c0-0.313-0.111-0.576-0.335-0.791s-0.516-0.322-0.875-0.322c-0.38,0-0.684,0.113-0.912,0.34
				c-0.228,0.227-0.343,0.541-0.347,0.941l-0.813-0.078c0.056-0.605,0.266-1.066,0.628-1.384s0.85-0.476,1.461-0.476
				c0.617,0,1.105,0.172,1.466,0.516c0.359,0.343,0.539,0.769,0.539,1.276c0,0.258-0.052,0.512-0.157,0.762
				c-0.104,0.249-0.279,0.512-0.522,0.788c-0.243,0.275-0.648,0.654-1.215,1.136c-0.476,0.399-0.78,0.67-0.914,0.812
				c-0.135,0.143-0.245,0.286-0.332,0.43H140.953z"/>
			<path i:knockout="Off" d="M143.029,161.086c-0.329-0.121-0.573-0.293-0.731-0.517c-0.159-0.224-0.238-0.491-0.238-0.804
				c0-0.471,0.168-0.866,0.505-1.187c0.336-0.321,0.784-0.481,1.344-0.481c0.562,0,1.014,0.164,1.356,0.492s0.514,0.728,0.514,1.198
				c0,0.301-0.078,0.562-0.235,0.784c-0.156,0.222-0.395,0.393-0.713,0.514c0.396,0.129,0.697,0.337,0.904,0.624
				c0.206,0.288,0.31,0.631,0.31,1.029c0,0.552-0.195,1.015-0.585,1.39c-0.391,0.375-0.904,0.563-1.54,0.563
				c-0.637,0-1.149-0.188-1.54-0.564c-0.39-0.377-0.585-0.847-0.585-1.41c0-0.419,0.106-0.77,0.321-1.053
				C142.329,161.381,142.633,161.188,143.029,161.086z M142.606,162.717c0,0.227,0.052,0.444,0.156,0.655s0.264,0.374,0.478,0.489
				c0.213,0.116,0.441,0.174,0.686,0.174c0.383,0,0.696-0.121,0.94-0.364c0.243-0.243,0.365-0.552,0.365-0.927
				c0-0.381-0.126-0.695-0.376-0.945c-0.252-0.248-0.57-0.373-0.956-0.373c-0.378,0-0.688,0.123-0.93,0.369
				S142.606,162.349,142.606,162.717z M142.872,159.743c0,0.306,0.097,0.557,0.29,0.751c0.192,0.194,0.447,0.291,0.766,0.291
				c0.309,0,0.559-0.096,0.751-0.289c0.191-0.193,0.287-0.43,0.287-0.709c0-0.291-0.099-0.536-0.296-0.735
				c-0.197-0.198-0.448-0.298-0.751-0.298c-0.306,0-0.558,0.098-0.753,0.291C142.969,159.24,142.872,159.473,142.872,159.743z"/>
		</g>
		<path i:knockout="Off" fill="none" stroke="#000000" stroke-width="0.7" d="M147.516,166.684h-11.74"/>
		<path i:knockout="Off" fill="none" stroke="#000000" stroke-width="0.7" d="M135.61,182.42v-11.842h11.729v11.842H135.61z"/>
		<g i:knockout="Off">
			<path i:knockout="Off" d="M136.804,176.881l0.797-0.109c0.09,0.443,0.242,0.762,0.457,0.957s0.481,0.293,0.799,0.293
				c0.375,0,0.689-0.129,0.942-0.388s0.38-0.579,0.38-0.96c0-0.365-0.119-0.665-0.355-0.901s-0.537-0.354-0.901-0.354
				c-0.149,0-0.334,0.029-0.556,0.088l0.088-0.688c0.052,0.006,0.095,0.009,0.127,0.009c0.337,0,0.641-0.088,0.911-0.265
				c0.27-0.176,0.405-0.447,0.405-0.814c0-0.29-0.1-0.531-0.297-0.722s-0.453-0.286-0.766-0.286c-0.31,0-0.567,0.097-0.774,0.289
				c-0.206,0.193-0.339,0.482-0.397,0.867l-0.797-0.141c0.097-0.531,0.317-0.942,0.662-1.234c0.345-0.291,0.773-0.438,1.286-0.438
				c0.353,0,0.679,0.076,0.976,0.227c0.298,0.152,0.525,0.358,0.684,0.619c0.157,0.262,0.236,0.539,0.236,0.833
				c0,0.278-0.075,0.533-0.225,0.762c-0.149,0.229-0.371,0.411-0.664,0.546c0.381,0.089,0.677,0.271,0.887,0.549
				c0.209,0.276,0.314,0.623,0.314,1.039c0,0.563-0.205,1.041-0.615,1.433s-0.93,0.587-1.557,0.587c-0.564,0-1.034-0.167-1.408-0.5
				C137.07,177.844,136.857,177.412,136.804,176.881z"/>
			<path i:knockout="Off" d="M141.809,175.383c0-0.764,0.078-1.379,0.234-1.847s0.388-0.827,0.696-1.077s0.695-0.375,1.163-0.375
				c0.345,0,0.647,0.07,0.911,0.209c0.262,0.14,0.477,0.341,0.644,0.604s0.298,0.583,0.395,0.961
				c0.097,0.377,0.145,0.886,0.145,1.525c0,0.758-0.077,1.371-0.232,1.839c-0.154,0.468-0.386,0.827-0.694,1.079
				c-0.308,0.252-0.697,0.377-1.167,0.377c-0.619,0-1.105-0.221-1.458-0.662C142.021,177.474,141.809,176.596,141.809,175.383z
				 M142.622,175.381c0,1.064,0.123,1.771,0.369,2.119c0.247,0.348,0.551,0.521,0.912,0.521s0.665-0.175,0.911-0.524
				c0.247-0.349,0.37-1.055,0.37-2.116c0-1.063-0.122-1.768-0.368-2.117c-0.244-0.349-0.552-0.523-0.922-0.523
				c-0.361,0-0.651,0.154-0.869,0.462C142.755,173.596,142.622,174.322,142.622,175.381z"/>
		</g>
		<path i:knockout="Off" fill="none" stroke="#000000" stroke-width="0.7" d="M147.516,180.67h-11.74"/>
		<path i:knockout="Off" fill="none" stroke="#000000" stroke-width="0.7" d="M135.61,196.184v-11.842h11.729v11.842H135.61z"/>
		<g i:knockout="Off">
			<path i:knockout="Off" d="M136.804,190.645l0.797-0.109c0.09,0.443,0.242,0.762,0.457,0.957s0.481,0.293,0.799,0.293
				c0.375,0,0.689-0.129,0.942-0.388s0.38-0.579,0.38-0.96c0-0.365-0.119-0.665-0.355-0.901s-0.537-0.354-0.901-0.354
				c-0.149,0-0.334,0.029-0.556,0.088l0.088-0.688c0.052,0.006,0.095,0.009,0.127,0.009c0.337,0,0.641-0.088,0.911-0.265
				c0.27-0.176,0.405-0.447,0.405-0.814c0-0.29-0.1-0.531-0.297-0.722s-0.453-0.286-0.766-0.286c-0.31,0-0.567,0.097-0.774,0.289
				c-0.206,0.193-0.339,0.482-0.397,0.867l-0.797-0.141c0.097-0.531,0.317-0.942,0.662-1.234c0.345-0.291,0.773-0.438,1.286-0.438
				c0.353,0,0.679,0.076,0.976,0.227c0.298,0.152,0.525,0.358,0.684,0.619c0.157,0.262,0.236,0.539,0.236,0.833
				c0,0.278-0.075,0.533-0.225,0.762c-0.149,0.229-0.371,0.411-0.664,0.546c0.381,0.089,0.677,0.271,0.887,0.549
				c0.209,0.276,0.314,0.623,0.314,1.039c0,0.563-0.205,1.041-0.615,1.433s-0.93,0.587-1.557,0.587c-0.564,0-1.034-0.167-1.408-0.5
				C137.07,191.607,136.857,191.176,136.804,190.645z"/>
			<path i:knockout="Off" d="M145.958,191.566v0.766h-4.266c-0.006-0.191,0.025-0.375,0.093-0.551
				c0.108-0.291,0.282-0.577,0.521-0.857c0.239-0.281,0.583-0.607,1.033-0.978c0.697-0.583,1.17-1.041,1.418-1.376
				c0.248-0.334,0.372-0.652,0.372-0.953c0-0.313-0.111-0.576-0.336-0.791c-0.223-0.215-0.515-0.322-0.874-0.322
				c-0.38,0-0.685,0.113-0.912,0.34c-0.229,0.227-0.344,0.541-0.347,0.941l-0.813-0.078c0.056-0.605,0.265-1.066,0.627-1.384
				c0.363-0.317,0.851-0.476,1.462-0.476c0.617,0,1.105,0.172,1.465,0.516c0.36,0.343,0.54,0.769,0.54,1.276
				c0,0.258-0.053,0.512-0.157,0.762c-0.105,0.249-0.279,0.512-0.522,0.788c-0.244,0.275-0.648,0.654-1.216,1.136
				c-0.476,0.399-0.78,0.67-0.914,0.812c-0.134,0.143-0.244,0.286-0.332,0.43H145.958z"/>
		</g>
		<path i:knockout="Off" fill="none" stroke="#000000" stroke-width="0.7" d="M147.516,194.434h-11.74"/>
		<path i:knockout="Off" fill="none" stroke="#000000" stroke-width="0.7" d="M135.61,210.115v-11.842h11.729v11.842H135.61z"/>
		<g i:knockout="Off">
			<path i:knockout="Off" d="M136.804,204.576l0.797-0.109c0.09,0.443,0.242,0.762,0.457,0.957s0.481,0.293,0.799,0.293
				c0.375,0,0.689-0.129,0.942-0.388s0.38-0.579,0.38-0.96c0-0.365-0.119-0.665-0.355-0.901s-0.537-0.354-0.901-0.354
				c-0.149,0-0.334,0.029-0.556,0.088l0.088-0.688c0.052,0.006,0.095,0.009,0.127,0.009c0.337,0,0.641-0.088,0.911-0.265
				c0.27-0.176,0.405-0.447,0.405-0.814c0-0.29-0.1-0.531-0.297-0.722s-0.453-0.286-0.766-0.286c-0.31,0-0.567,0.097-0.774,0.289
				c-0.206,0.193-0.339,0.482-0.397,0.867l-0.797-0.141c0.097-0.531,0.317-0.942,0.662-1.234c0.345-0.291,0.773-0.438,1.286-0.438
				c0.353,0,0.679,0.076,0.976,0.227c0.298,0.152,0.525,0.358,0.684,0.619c0.157,0.262,0.236,0.539,0.236,0.833
				c0,0.278-0.075,0.533-0.225,0.762c-0.149,0.229-0.371,0.411-0.664,0.546c0.381,0.089,0.677,0.271,0.887,0.549
				c0.209,0.276,0.314,0.623,0.314,1.039c0,0.563-0.205,1.041-0.615,1.433s-0.93,0.587-1.557,0.587c-0.564,0-1.034-0.167-1.408-0.5
				C137.07,205.539,136.857,205.107,136.804,204.576z"/>
			<path i:knockout="Off" d="M144.325,206.264v-1.547h-2.781v-0.719l2.938-4.172h0.641v4.172h0.875v0.719h-0.875v1.547H144.325z
				 M144.325,203.998v-2.872l-2.003,2.872H144.325z"/>
		</g>
		<path i:knockout="Off" fill="none" stroke="#000000" stroke-width="0.7" d="M147.516,208.365h-11.74"/>
		<path i:knockout="Off" fill="none" stroke="#000000" stroke-width="0.7" d="M121.87,168.434v-11.842h11.729v11.842H121.87z"/>
		<g i:knockout="Off">
			<path i:knockout="Off" d="M127.212,163.816v0.766h-4.266c-0.006-0.191,0.025-0.375,0.093-0.551
				c0.108-0.291,0.282-0.577,0.522-0.857c0.238-0.281,0.583-0.607,1.033-0.978c0.697-0.583,1.17-1.041,1.418-1.376
				c0.248-0.334,0.371-0.652,0.371-0.953c0-0.313-0.111-0.576-0.335-0.791s-0.516-0.322-0.875-0.322c-0.38,0-0.684,0.113-0.912,0.34
				c-0.228,0.227-0.343,0.541-0.347,0.941l-0.813-0.078c0.056-0.605,0.266-1.066,0.628-1.384s0.85-0.476,1.461-0.476
				c0.617,0,1.105,0.172,1.466,0.516c0.359,0.343,0.539,0.769,0.539,1.276c0,0.258-0.052,0.512-0.157,0.762
				c-0.104,0.249-0.279,0.512-0.522,0.788c-0.243,0.275-0.648,0.654-1.215,1.136c-0.476,0.399-0.78,0.67-0.914,0.812
				c-0.135,0.143-0.245,0.286-0.332,0.43H127.212z"/>
			<path i:knockout="Off" d="M128.178,163.098l0.766-0.063c0.063,0.351,0.187,0.605,0.366,0.763c0.18,0.158,0.411,0.237,0.693,0.237
				c0.241,0,0.454-0.056,0.639-0.167c0.184-0.11,0.333-0.259,0.447-0.444c0.113-0.186,0.209-0.438,0.288-0.753
				c0.078-0.315,0.118-0.638,0.118-0.966c0-0.035-0.002-0.088-0.005-0.158c-0.157,0.252-0.372,0.456-0.644,0.612
				c-0.272,0.157-0.566,0.235-0.884,0.235c-0.53,0-0.978-0.193-1.345-0.582c-0.367-0.388-0.55-0.898-0.55-1.533
				c0-0.655,0.191-1.183,0.575-1.582s0.864-0.6,1.442-0.6c0.417,0,0.799,0.113,1.145,0.339c0.346,0.227,0.608,0.549,0.787,0.967
				c0.18,0.419,0.27,1.024,0.27,1.817c0,0.825-0.089,1.482-0.268,1.971c-0.179,0.489-0.444,0.861-0.796,1.117
				c-0.353,0.255-0.766,0.383-1.239,0.383c-0.503,0-0.913-0.139-1.232-0.418C128.434,163.994,128.243,163.603,128.178,163.098z
				 M131.413,160.238c0-0.455-0.119-0.816-0.356-1.084c-0.238-0.267-0.529-0.4-0.872-0.4c-0.354,0-0.661,0.145-0.918,0.432
				c-0.257,0.288-0.385,0.66-0.385,1.119c0,0.41,0.122,0.744,0.365,1.002c0.244,0.256,0.549,0.385,0.916,0.385
				c0.364,0,0.663-0.129,0.897-0.385C131.295,161.049,131.413,160.693,131.413,160.238z"/>
		</g>
		<path i:knockout="Off" fill="none" stroke="#000000" stroke-width="0.7" d="M133.776,166.684h-11.74"/>
		<path i:knockout="Off" fill="none" stroke="#000000" stroke-width="0.7" d="M167.766,210.111h-20.447"/>
		<path i:knockout="Off" fill="none" stroke="#000000" stroke-width="0.7" d="M167.819,14.357h-20.566"/>
		<path i:knockout="Off" fill="none" stroke="#000000" stroke-width="1.2" d="M119.747,211.984h79.33V12.067h-79.33V211.984z"/>
		<path i:knockout="Off" fill="none" stroke="#000000" stroke-width="1.2" d="M160.563,12.214V0.6h-3.984v11.444"/>
		<path i:knockout="Off" fill="none" stroke="#000000" stroke-width="1.2" d="M75.061,26.208V14.366H63.332v11.841H75.061z"/>
		<g i:knockout="Off">
			<path i:knockout="Off" d="M70.078,22.356h-0.797v-5.053c-0.189,0.182-0.439,0.364-0.747,0.546
				c-0.309,0.182-0.585,0.319-0.831,0.41v-0.767c0.442-0.208,0.829-0.461,1.159-0.758c0.331-0.296,0.565-0.584,0.703-0.863h0.513
				V22.356z"/>
		</g>
		<path i:knockout="Off" fill="none" stroke="#000000" stroke-width="0.7" d="M63.154,24.458h11.741"/>
		<path i:knockout="Off" fill="none" stroke="#000000" stroke-width="1.2" d="M75.061,39.946V28.105H63.332v11.841H75.061z"/>
		<g i:knockout="Off">
			<path i:knockout="Off" d="M67.109,34.408l0.797-0.109c0.091,0.443,0.243,0.762,0.458,0.957s0.481,0.293,0.799,0.293
				c0.375,0,0.689-0.129,0.942-0.388s0.379-0.579,0.379-0.96c0-0.364-0.118-0.665-0.354-0.901s-0.537-0.354-0.901-0.354
				c-0.149,0-0.334,0.029-0.556,0.088l0.087-0.688c0.053,0.006,0.095,0.009,0.127,0.009c0.337,0,0.641-0.088,0.911-0.264
				c0.27-0.176,0.405-0.447,0.405-0.814c0-0.291-0.099-0.531-0.296-0.722c-0.198-0.191-0.453-0.286-0.766-0.286
				c-0.31,0-0.568,0.096-0.774,0.289s-0.339,0.482-0.398,0.867l-0.797-0.141c0.098-0.531,0.318-0.942,0.663-1.234
				s0.773-0.438,1.286-0.438c0.353,0,0.679,0.076,0.976,0.227c0.298,0.151,0.525,0.357,0.683,0.619
				c0.158,0.261,0.236,0.539,0.236,0.832c0,0.279-0.074,0.533-0.224,0.763c-0.149,0.229-0.371,0.411-0.664,0.546
				c0.381,0.088,0.676,0.271,0.886,0.548c0.21,0.277,0.314,0.624,0.314,1.04c0,0.563-0.205,1.04-0.615,1.432
				s-0.929,0.587-1.556,0.587c-0.565,0-1.035-0.167-1.408-0.5C67.375,35.371,67.162,34.938,67.109,34.408z"/>
		</g>
		<path i:knockout="Off" fill="none" stroke="#000000" stroke-width="0.7" d="M63.154,38.196h11.741"/>
		<path i:knockout="Off" fill="none" stroke="#000000" stroke-width="1.2" d="M75.061,53.862V42.021H63.332v11.841H75.061z"/>
		<g i:knockout="Off">
			<path i:knockout="Off" d="M67.109,48.324l0.813-0.063c0.062,0.399,0.204,0.7,0.426,0.901c0.223,0.201,0.495,0.302,0.817,0.302
				c0.39,0,0.715-0.144,0.976-0.431s0.391-0.667,0.391-1.142c0-0.451-0.124-0.807-0.372-1.067s-0.579-0.391-0.994-0.391
				c-0.258,0-0.488,0.058-0.689,0.174c-0.201,0.116-0.36,0.267-0.477,0.451l-0.75-0.109l0.625-3.313h3.203v0.75h-2.574l-0.348,1.75
				c0.386-0.271,0.792-0.407,1.217-0.407c0.562,0,1.036,0.195,1.422,0.586s0.58,0.893,0.58,1.506c0,0.584-0.169,1.089-0.509,1.515
				c-0.413,0.523-0.976,0.784-1.689,0.784c-0.585,0-1.063-0.164-1.433-0.492S67.162,48.866,67.109,48.324z"/>
		</g>
		<path i:knockout="Off" fill="none" stroke="#000000" stroke-width="0.7" d="M63.154,52.112h11.741"/>
		<path i:knockout="Off" fill="none" stroke="#000000" stroke-width="1.2" d="M75.061,67.853V56.011H63.332v11.842H75.061z"/>
		<g i:knockout="Off">
			<path i:knockout="Off" d="M71.218,59.126l-0.781,0.063c-0.07-0.311-0.171-0.536-0.3-0.677c-0.215-0.226-0.48-0.339-0.795-0.339
				c-0.253,0-0.478,0.07-0.674,0.211c-0.245,0.182-0.44,0.447-0.583,0.796c-0.145,0.349-0.22,0.846-0.226,1.49
				c0.19-0.29,0.424-0.505,0.699-0.646s0.564-0.211,0.866-0.211c0.527,0,0.977,0.194,1.348,0.583
				c0.37,0.389,0.556,0.892,0.556,1.508c0,0.405-0.087,0.782-0.261,1.129c-0.175,0.348-0.414,0.614-0.718,0.799
				s-0.65,0.277-1.036,0.277c-0.659,0-1.196-0.243-1.612-0.729s-0.624-1.287-0.624-2.403c0-1.248,0.23-2.155,0.69-2.722
				c0.401-0.493,0.942-0.74,1.622-0.74c0.507,0,0.922,0.143,1.246,0.428C70.959,58.229,71.154,58.624,71.218,59.126z M67.984,61.908
				c0,0.272,0.058,0.533,0.174,0.782c0.115,0.249,0.275,0.438,0.48,0.568s0.424,0.195,0.658,0.195c0.338,0,0.626-0.135,0.864-0.404
				s0.355-0.635,0.355-1.098c0-0.444-0.117-0.795-0.352-1.051s-0.534-0.384-0.898-0.384c-0.357,0-0.66,0.128-0.908,0.384
				S67.984,61.493,67.984,61.908z"/>
		</g>
		<path i:knockout="Off" fill="none" stroke="#000000" stroke-width="0.7" d="M63.154,66.103h11.741"/>
		<path i:knockout="Off" fill="none" stroke="#000000" stroke-width="1.2" d="M88.801,67.853V56.011H77.072v11.842H88.801z"/>
		<g i:knockout="Off">
			<path i:knockout="Off" d="M80.896,58.392v-0.766h4.172v0.62c-0.409,0.438-0.815,1.019-1.218,1.745
				c-0.402,0.725-0.713,1.47-0.933,2.236c-0.158,0.54-0.259,1.132-0.303,1.774h-0.813c0.009-0.508,0.108-1.121,0.298-1.84
				s0.462-1.413,0.818-2.081s0.733-1.23,1.134-1.688H80.896z"/>
		</g>
		<path i:knockout="Off" fill="none" stroke="#000000" stroke-width="0.7" d="M76.894,66.103h11.741"/>
		<path i:knockout="Off" fill="none" stroke="#000000" stroke-width="1.2" d="M75.061,81.694V69.853H63.332v11.842H75.061z"/>
		<g i:knockout="Off">
			<path i:knockout="Off" d="M67.575,77.843h-0.797V72.79c-0.19,0.182-0.439,0.364-0.748,0.546s-0.585,0.319-0.831,0.41v-0.767
				c0.442-0.208,0.829-0.461,1.159-0.758c0.331-0.296,0.565-0.584,0.703-0.863h0.513V77.843z"/>
			<path i:knockout="Off" d="M69.612,74.657c0-0.763,0.078-1.379,0.234-1.847c0.156-0.468,0.388-0.827,0.696-1.077
				s0.696-0.375,1.163-0.375c0.345,0,0.648,0.07,0.911,0.209c0.262,0.14,0.477,0.341,0.644,0.604
				c0.167,0.263,0.298,0.583,0.395,0.96c0.096,0.377,0.145,0.886,0.145,1.526c0,0.758-0.077,1.371-0.232,1.839
				c-0.154,0.468-0.386,0.828-0.694,1.079c-0.308,0.251-0.697,0.377-1.167,0.377c-0.619,0-1.105-0.221-1.458-0.662
				C69.824,76.748,69.612,75.87,69.612,74.657z M70.424,74.655c0,1.064,0.123,1.771,0.369,2.119
				c0.247,0.348,0.551,0.522,0.912,0.522s0.665-0.175,0.912-0.524c0.247-0.349,0.37-1.055,0.37-2.116
				c0-1.062-0.123-1.768-0.368-2.117c-0.245-0.349-0.552-0.523-0.922-0.523c-0.361,0-0.651,0.154-0.87,0.462
				C70.559,72.87,70.424,73.596,70.424,74.655z"/>
		</g>
		<path i:knockout="Off" fill="none" stroke="#000000" stroke-width="0.7" d="M63.154,79.944h11.741"/>
		<path i:knockout="Off" fill="none" stroke="#000000" stroke-width="1.2" d="M88.801,81.694V69.853H77.072v11.842H88.801z"/>
		<g i:knockout="Off">
			<path i:knockout="Off" d="M81.315,77.843h-0.797V72.79c-0.19,0.182-0.439,0.364-0.748,0.546s-0.585,0.319-0.831,0.41v-0.767
				c0.442-0.208,0.829-0.461,1.159-0.758c0.331-0.296,0.565-0.584,0.703-0.863h0.513V77.843z"/>
			<path i:knockout="Off" d="M86.321,77.843h-0.797V72.79c-0.19,0.182-0.439,0.364-0.748,0.546s-0.585,0.319-0.831,0.41v-0.767
				c0.442-0.208,0.828-0.461,1.159-0.758c0.331-0.296,0.564-0.584,0.702-0.863h0.514V77.843z"/>
		</g>
		<path i:knockout="Off" fill="none" stroke="#000000" stroke-width="0.7" d="M76.894,79.944h11.741"/>
		<path i:knockout="Off" fill="none" stroke="#000000" stroke-width="1.2" d="M75.061,95.435V83.593H63.332v11.842H75.061z"/>
		<g i:knockout="Off">
			<path i:knockout="Off" d="M67.575,91.583h-0.797V86.53c-0.19,0.182-0.439,0.364-0.748,0.546s-0.585,0.319-0.831,0.41V86.72
				c0.442-0.208,0.829-0.461,1.159-0.758c0.331-0.296,0.565-0.584,0.703-0.863h0.513V91.583z"/>
			<path i:knockout="Off" d="M72.127,91.583v-1.547h-2.781v-0.719l2.938-4.172h0.641v4.172h0.875v0.719h-0.875v1.547H72.127z
				 M72.127,89.317v-2.872l-2.003,2.872H72.127z"/>
		</g>
		<path i:knockout="Off" fill="none" stroke="#000000" stroke-width="0.7" d="M63.154,93.685h11.741"/>
		<path i:knockout="Off" fill="none" stroke="#000000" stroke-width="1.2" d="M82.663,111.062v-13.5H69.292v13.5H82.663z"/>
		<g i:knockout="Off">
			<path i:knockout="Off" d="M74.343,106.381h-0.797v-5.053c-0.19,0.182-0.439,0.364-0.748,0.546s-0.585,0.319-0.831,0.41v-0.767
				c0.442-0.208,0.829-0.461,1.159-0.758c0.331-0.296,0.565-0.584,0.703-0.863h0.513V106.381z"/>
			<path i:knockout="Off" d="M76.426,100.771v-0.766h4.172v0.62c-0.41,0.438-0.815,1.019-1.218,1.745
				c-0.402,0.725-0.713,1.47-0.933,2.236c-0.158,0.54-0.259,1.132-0.303,1.774h-0.813c0.009-0.508,0.108-1.121,0.298-1.84
				c0.19-0.719,0.463-1.413,0.818-2.081s0.733-1.23,1.134-1.688H76.426z"/>
		</g>
		<path i:knockout="Off" fill="none" stroke="#000000" stroke-width="1.2" d="M38.905,27.84v-13.5H25.534v13.5H38.905z"/>
		<g i:knockout="Off">
			<path i:knockout="Off" d="M34.268,22.901v0.766h-4.266c-0.006-0.191,0.025-0.375,0.093-0.551
				c0.108-0.291,0.282-0.577,0.521-0.857s0.584-0.606,1.033-0.977c0.698-0.583,1.17-1.042,1.418-1.376
				c0.248-0.334,0.372-0.652,0.372-0.953c0-0.313-0.111-0.577-0.335-0.792s-0.516-0.322-0.875-0.322c-0.38,0-0.684,0.114-0.912,0.34
				s-0.344,0.54-0.347,0.941l-0.813-0.078c0.056-0.605,0.265-1.066,0.628-1.383c0.362-0.317,0.85-0.476,1.461-0.476
				c0.617,0,1.105,0.172,1.465,0.515c0.36,0.344,0.54,0.769,0.54,1.276c0,0.259-0.052,0.513-0.157,0.762
				c-0.105,0.25-0.279,0.513-0.522,0.788c-0.244,0.276-0.648,0.655-1.215,1.136c-0.476,0.399-0.78,0.67-0.914,0.813
				c-0.134,0.143-0.245,0.285-0.332,0.429H34.268z"/>
		</g>
		<path i:knockout="Off" fill="none" stroke="#000000" stroke-width="1.2" d="M38.905,50.612v-13.5H25.534v13.5H38.905z"/>
		<g i:knockout="Off">
			<path i:knockout="Off" d="M32.634,46.439v-1.547h-2.781v-0.719l2.938-4.172h0.641v4.172h0.875v0.719h-0.875v1.547H32.634z
				 M32.634,44.174v-2.872l-2.003,2.872H32.634z"/>
		</g>
		<path i:knockout="Off" fill="none" stroke="#000000" stroke-width="1.2" d="M38.905,72.685V59.186H25.534v13.499H38.905z"/>
		<g i:knockout="Off">
			<path i:knockout="Off" d="M30.228,67.028l0.766-0.063c0.064,0.351,0.187,0.605,0.366,0.763c0.181,0.158,0.412,0.237,0.694,0.237
				c0.241,0,0.454-0.055,0.638-0.167s0.333-0.26,0.447-0.445c0.113-0.186,0.209-0.437,0.288-0.752s0.118-0.638,0.118-0.966
				c0-0.035-0.002-0.088-0.005-0.158c-0.157,0.252-0.372,0.456-0.644,0.613c-0.272,0.156-0.566,0.235-0.884,0.235
				c-0.53,0-0.978-0.194-1.345-0.582c-0.366-0.388-0.55-0.899-0.55-1.534c0-0.655,0.192-1.182,0.576-1.582
				c0.383-0.399,0.864-0.599,1.442-0.599c0.417,0,0.799,0.113,1.145,0.339c0.346,0.226,0.608,0.548,0.788,0.967
				c0.179,0.418,0.269,1.024,0.269,1.816c0,0.825-0.089,1.482-0.268,1.972c-0.178,0.489-0.443,0.861-0.796,1.116
				c-0.353,0.256-0.765,0.383-1.239,0.383c-0.503,0-0.914-0.139-1.232-0.418S30.292,67.533,30.228,67.028z M33.462,64.168
				c0-0.455-0.119-0.816-0.356-1.083c-0.238-0.267-0.528-0.401-0.872-0.401c-0.354,0-0.661,0.144-0.917,0.432
				s-0.385,0.661-0.385,1.119c0,0.411,0.122,0.745,0.366,1.002s0.549,0.385,0.916,0.385c0.364,0,0.664-0.128,0.898-0.385
				C33.345,64.979,33.462,64.623,33.462,64.168z"/>
		</g>
		<path i:knockout="Off" fill="none" stroke="#000000" stroke-width="1.2" d="M23.155,72.685V59.186H9.784v13.499H23.155z"/>
		<g i:knockout="Off">
			<path i:knockout="Off" d="M15.589,65.016c-0.33-0.121-0.574-0.292-0.732-0.516s-0.238-0.492-0.238-0.804
				c0-0.471,0.168-0.866,0.505-1.188c0.337-0.32,0.785-0.481,1.344-0.481c0.562,0,1.014,0.164,1.356,0.492
				c0.343,0.328,0.514,0.728,0.514,1.199c0,0.3-0.078,0.561-0.234,0.783c-0.157,0.222-0.395,0.394-0.714,0.514
				c0.396,0.129,0.697,0.337,0.904,0.625c0.206,0.287,0.31,0.63,0.31,1.029c0,0.551-0.195,1.014-0.585,1.389
				c-0.39,0.375-0.903,0.563-1.54,0.563c-0.636,0-1.149-0.188-1.54-0.565s-0.585-0.847-0.585-1.409c0-0.419,0.107-0.771,0.321-1.053
				S15.193,65.119,15.589,65.016z M15.166,66.647c0,0.226,0.052,0.444,0.157,0.655s0.263,0.374,0.477,0.49s0.442,0.173,0.686,0.173
				c0.383,0,0.697-0.122,0.94-0.365s0.365-0.552,0.365-0.927c0-0.381-0.125-0.695-0.376-0.944s-0.57-0.374-0.956-0.374
				c-0.377,0-0.688,0.123-0.93,0.369S15.166,66.278,15.166,66.647z M15.431,63.673c0,0.307,0.097,0.557,0.29,0.751
				c0.192,0.194,0.448,0.292,0.766,0.292c0.309,0,0.56-0.096,0.751-0.289s0.287-0.429,0.287-0.709c0-0.292-0.099-0.537-0.296-0.735
				c-0.197-0.199-0.448-0.298-0.751-0.298c-0.306,0-0.557,0.097-0.753,0.292C15.529,63.17,15.431,63.402,15.431,63.673z"/>
		</g>
		<path i:knockout="Off" fill="none" stroke="#000000" stroke-width="1.2" d="M38.905,95.251V81.752H25.534v13.499H38.905z"/>
		<g i:knockout="Off">
			<path i:knockout="Off" d="M30.585,91.078h-0.797v-5.053c-0.19,0.182-0.439,0.364-0.748,0.546s-0.585,0.319-0.831,0.41v-0.767
				c0.442-0.208,0.829-0.461,1.159-0.758c0.331-0.296,0.565-0.584,0.703-0.863h0.513V91.078z"/>
			<path i:knockout="Off" d="M32.622,89.391l0.797-0.109c0.09,0.443,0.243,0.762,0.458,0.957s0.48,0.293,0.798,0.293
				c0.375,0,0.69-0.129,0.943-0.388c0.252-0.258,0.379-0.579,0.379-0.96c0-0.364-0.118-0.665-0.354-0.901s-0.537-0.354-0.902-0.354
				c-0.149,0-0.334,0.029-0.556,0.088l0.087-0.688c0.053,0.006,0.095,0.009,0.127,0.009c0.338,0,0.642-0.088,0.911-0.264
				c0.271-0.176,0.405-0.448,0.405-0.814c0-0.291-0.099-0.531-0.296-0.722c-0.198-0.19-0.453-0.286-0.765-0.286
				c-0.31,0-0.568,0.097-0.774,0.289c-0.207,0.193-0.34,0.482-0.398,0.867l-0.797-0.141c0.097-0.531,0.318-0.942,0.663-1.234
				c0.345-0.292,0.773-0.438,1.286-0.438c0.354,0,0.679,0.076,0.977,0.227c0.297,0.151,0.525,0.358,0.683,0.619
				c0.157,0.262,0.236,0.539,0.236,0.833c0,0.279-0.075,0.533-0.224,0.762c-0.149,0.229-0.371,0.411-0.664,0.546
				c0.381,0.088,0.676,0.271,0.886,0.548c0.209,0.277,0.314,0.624,0.314,1.04c0,0.563-0.205,1.041-0.615,1.432
				s-0.929,0.587-1.556,0.587c-0.565,0-1.035-0.167-1.408-0.5C32.887,90.354,32.674,89.921,32.622,89.391z"/>
		</g>
		<path i:knockout="Off" fill="none" stroke="#000000" stroke-width="1.2" d="M23.155,95.251V81.752H9.784v13.499H23.155z"/>
		<g i:knockout="Off">
			<path i:knockout="Off" d="M14.835,91.078h-0.797v-5.053c-0.19,0.182-0.439,0.364-0.748,0.546s-0.585,0.319-0.831,0.41v-0.767
				c0.442-0.208,0.829-0.461,1.159-0.758c0.331-0.296,0.565-0.584,0.703-0.863h0.513V91.078z"/>
			<path i:knockout="Off" d="M21.021,90.313v0.766h-4.266c-0.006-0.191,0.025-0.375,0.093-0.551
				c0.108-0.291,0.282-0.577,0.521-0.858s0.583-0.606,1.033-0.977c0.697-0.583,1.17-1.041,1.418-1.376
				c0.248-0.334,0.372-0.652,0.372-0.953c0-0.313-0.112-0.576-0.335-0.791s-0.515-0.322-0.875-0.322c-0.38,0-0.685,0.113-0.912,0.34
				c-0.229,0.227-0.344,0.541-0.347,0.941l-0.813-0.078c0.056-0.605,0.265-1.066,0.627-1.384c0.363-0.317,0.85-0.476,1.461-0.476
				c0.617,0,1.105,0.172,1.465,0.515c0.36,0.343,0.54,0.769,0.54,1.277c0,0.258-0.053,0.512-0.157,0.762
				c-0.105,0.249-0.279,0.512-0.523,0.788c-0.244,0.275-0.648,0.654-1.215,1.136c-0.476,0.399-0.78,0.67-0.914,0.812
				s-0.244,0.286-0.332,0.429H21.021z"/>
		</g>
		<path i:knockout="Off" fill="none" stroke="#000000" stroke-width="1.2" d="M38.905,142.527v-13.499H25.534v13.499H38.905z"/>
		<g i:knockout="Off">
			<path i:knockout="Off" d="M31.766,137.589v0.766H27.5c-0.006-0.19,0.025-0.375,0.092-0.551c0.108-0.291,0.283-0.577,0.522-0.858
				c0.239-0.28,0.583-0.605,1.033-0.977c0.698-0.582,1.17-1.041,1.418-1.376c0.248-0.335,0.372-0.652,0.372-0.953
				c0-0.313-0.112-0.576-0.335-0.791s-0.516-0.322-0.875-0.322c-0.38,0-0.684,0.113-0.912,0.34c-0.228,0.227-0.343,0.54-0.346,0.941
				l-0.813-0.078c0.055-0.604,0.265-1.066,0.627-1.384c0.363-0.316,0.85-0.476,1.461-0.476c0.617,0,1.105,0.172,1.466,0.515
				c0.359,0.344,0.54,0.77,0.54,1.277c0,0.258-0.052,0.512-0.158,0.762c-0.104,0.249-0.279,0.512-0.522,0.788
				c-0.243,0.275-0.648,0.654-1.215,1.136c-0.476,0.398-0.78,0.67-0.914,0.813c-0.134,0.142-0.245,0.285-0.332,0.429H31.766z"/>
			<path i:knockout="Off" d="M32.622,136.667l0.797-0.109c0.09,0.442,0.243,0.762,0.458,0.957s0.48,0.293,0.798,0.293
				c0.375,0,0.69-0.129,0.943-0.388c0.252-0.258,0.379-0.578,0.379-0.961c0-0.363-0.118-0.664-0.354-0.9s-0.537-0.354-0.902-0.354
				c-0.149,0-0.334,0.029-0.556,0.088l0.087-0.688c0.053,0.006,0.095,0.009,0.127,0.009c0.338,0,0.642-0.088,0.911-0.264
				c0.271-0.177,0.405-0.448,0.405-0.814c0-0.291-0.099-0.531-0.296-0.723c-0.198-0.19-0.453-0.286-0.765-0.286
				c-0.31,0-0.568,0.097-0.774,0.289c-0.207,0.192-0.34,0.481-0.398,0.867l-0.797-0.141c0.097-0.53,0.318-0.942,0.663-1.234
				s0.773-0.438,1.286-0.438c0.354,0,0.679,0.075,0.977,0.228c0.297,0.15,0.525,0.357,0.683,0.618
				c0.157,0.262,0.236,0.539,0.236,0.833c0,0.279-0.075,0.533-0.224,0.762c-0.149,0.229-0.371,0.411-0.664,0.547
				c0.381,0.088,0.676,0.271,0.886,0.547c0.209,0.277,0.314,0.624,0.314,1.041c0,0.563-0.205,1.04-0.615,1.432
				s-0.929,0.587-1.556,0.587c-0.565,0-1.035-0.167-1.408-0.5C32.887,137.63,32.674,137.197,32.622,136.667z"/>
		</g>
		<path i:knockout="Off" fill="none" stroke="#000000" stroke-width="1.2" d="M38.905,210.112v-13.499H25.534v13.499H38.905z"/>
		<g i:knockout="Off">
			<path i:knockout="Off" d="M27.616,204.252l0.797-0.109c0.09,0.443,0.243,0.762,0.458,0.957s0.481,0.293,0.799,0.293
				c0.375,0,0.689-0.129,0.942-0.388s0.379-0.579,0.379-0.96c0-0.365-0.118-0.665-0.354-0.901s-0.537-0.354-0.902-0.354
				c-0.149,0-0.334,0.029-0.556,0.088l0.087-0.688c0.052,0.006,0.095,0.009,0.127,0.009c0.337,0,0.641-0.088,0.911-0.265
				c0.27-0.176,0.405-0.447,0.405-0.814c0-0.29-0.099-0.531-0.296-0.722c-0.198-0.19-0.453-0.286-0.766-0.286
				c-0.31,0-0.567,0.097-0.774,0.289c-0.206,0.193-0.339,0.482-0.398,0.867l-0.797-0.141c0.097-0.531,0.318-0.942,0.663-1.234
				c0.345-0.291,0.773-0.438,1.286-0.438c0.353,0,0.679,0.076,0.976,0.227c0.297,0.152,0.525,0.358,0.683,0.619
				c0.158,0.262,0.236,0.539,0.236,0.833c0,0.278-0.075,0.533-0.224,0.762c-0.149,0.229-0.371,0.411-0.664,0.546
				c0.381,0.089,0.676,0.271,0.886,0.549c0.209,0.276,0.314,0.623,0.314,1.039c0,0.563-0.205,1.041-0.615,1.433
				s-0.929,0.587-1.556,0.587c-0.565,0-1.035-0.167-1.409-0.5C27.882,205.215,27.669,204.783,27.616,204.252z"/>
			<path i:knockout="Off" d="M32.622,204.252l0.797-0.109c0.09,0.443,0.243,0.762,0.458,0.957s0.48,0.293,0.798,0.293
				c0.375,0,0.69-0.129,0.943-0.388c0.252-0.259,0.379-0.579,0.379-0.96c0-0.365-0.118-0.665-0.354-0.901s-0.537-0.354-0.902-0.354
				c-0.149,0-0.334,0.029-0.556,0.088l0.087-0.688c0.053,0.006,0.095,0.009,0.127,0.009c0.338,0,0.642-0.088,0.911-0.265
				c0.271-0.176,0.405-0.447,0.405-0.814c0-0.29-0.099-0.531-0.296-0.722s-0.453-0.286-0.765-0.286c-0.31,0-0.568,0.097-0.774,0.289
				c-0.207,0.193-0.34,0.482-0.398,0.867l-0.797-0.141c0.097-0.531,0.318-0.942,0.663-1.234c0.345-0.291,0.773-0.438,1.286-0.438
				c0.354,0,0.679,0.076,0.977,0.227c0.297,0.152,0.525,0.358,0.683,0.619c0.157,0.262,0.236,0.539,0.236,0.833
				c0,0.278-0.075,0.533-0.224,0.762c-0.149,0.229-0.371,0.411-0.664,0.546c0.381,0.089,0.676,0.271,0.886,0.549
				c0.209,0.276,0.314,0.623,0.314,1.039c0,0.563-0.205,1.041-0.615,1.433s-0.929,0.587-1.556,0.587c-0.565,0-1.035-0.167-1.408-0.5
				C32.887,205.215,32.674,204.783,32.622,204.252z"/>
		</g>
		<path i:knockout="Off" fill="none" stroke="#000000" stroke-width="1.2" d="M38.905,187.51v-13.499H25.534v13.499H38.905z"/>
		<g i:knockout="Off">
			<path i:knockout="Off" d="M27.616,181.649l0.797-0.109c0.09,0.442,0.243,0.762,0.458,0.957s0.481,0.293,0.799,0.293
				c0.375,0,0.689-0.129,0.942-0.388c0.253-0.258,0.379-0.578,0.379-0.961c0-0.363-0.118-0.664-0.354-0.9s-0.537-0.354-0.902-0.354
				c-0.149,0-0.334,0.029-0.556,0.088l0.087-0.688c0.052,0.006,0.095,0.009,0.127,0.009c0.337,0,0.641-0.088,0.911-0.264
				c0.27-0.177,0.405-0.448,0.405-0.814c0-0.291-0.099-0.531-0.296-0.723c-0.198-0.19-0.453-0.286-0.766-0.286
				c-0.31,0-0.567,0.097-0.774,0.289c-0.206,0.192-0.339,0.481-0.398,0.867l-0.797-0.141c0.097-0.53,0.318-0.942,0.663-1.234
				s0.773-0.438,1.286-0.438c0.353,0,0.679,0.075,0.976,0.228c0.297,0.15,0.525,0.357,0.683,0.618
				c0.158,0.262,0.236,0.539,0.236,0.833c0,0.279-0.075,0.533-0.224,0.762c-0.149,0.229-0.371,0.411-0.664,0.547
				c0.381,0.088,0.676,0.271,0.886,0.547c0.209,0.277,0.314,0.624,0.314,1.041c0,0.563-0.205,1.04-0.615,1.432
				s-0.929,0.587-1.556,0.587c-0.565,0-1.035-0.167-1.409-0.5C27.882,182.612,27.669,182.18,27.616,181.649z"/>
			<path i:knockout="Off" d="M35.59,183.337h-0.797v-5.053c-0.19,0.183-0.439,0.364-0.748,0.546
				c-0.308,0.183-0.585,0.319-0.831,0.41v-0.767c0.442-0.208,0.828-0.461,1.159-0.758c0.331-0.296,0.564-0.584,0.702-0.863h0.514
				V183.337z"/>
		</g>
		<path i:knockout="Off" fill="none" stroke="#000000" stroke-width="1.2" d="M23.155,142.527v-13.499H9.784v13.499H23.155z"/>
		<g i:knockout="Off">
			<path i:knockout="Off" d="M16.016,137.589v0.766H11.75c-0.006-0.19,0.025-0.375,0.092-0.551c0.108-0.291,0.283-0.577,0.522-0.858
				c0.239-0.28,0.583-0.605,1.033-0.977c0.698-0.582,1.17-1.041,1.418-1.376c0.248-0.335,0.372-0.652,0.372-0.953
				c0-0.313-0.112-0.576-0.335-0.791s-0.516-0.322-0.875-0.322c-0.38,0-0.684,0.113-0.912,0.34c-0.228,0.227-0.343,0.54-0.346,0.941
				l-0.813-0.078c0.055-0.604,0.265-1.066,0.627-1.384c0.363-0.316,0.85-0.476,1.461-0.476c0.617,0,1.105,0.172,1.466,0.515
				c0.359,0.344,0.54,0.77,0.54,1.277c0,0.258-0.052,0.512-0.158,0.762c-0.104,0.249-0.279,0.512-0.522,0.788
				c-0.243,0.275-0.648,0.654-1.215,1.136c-0.476,0.398-0.78,0.67-0.914,0.813c-0.134,0.142-0.245,0.285-0.332,0.429H16.016z"/>
			<path i:knockout="Off" d="M21.021,137.589v0.766h-4.266c-0.006-0.19,0.025-0.375,0.093-0.551
				c0.108-0.291,0.282-0.577,0.521-0.858c0.239-0.28,0.583-0.605,1.033-0.977c0.697-0.582,1.17-1.041,1.418-1.376
				s0.372-0.652,0.372-0.953c0-0.313-0.112-0.576-0.335-0.791s-0.515-0.322-0.875-0.322c-0.38,0-0.685,0.113-0.912,0.34
				c-0.229,0.227-0.344,0.54-0.347,0.941l-0.813-0.078c0.056-0.604,0.265-1.066,0.627-1.384c0.363-0.316,0.85-0.476,1.461-0.476
				c0.617,0,1.105,0.172,1.465,0.515c0.36,0.344,0.54,0.77,0.54,1.277c0,0.258-0.053,0.512-0.157,0.762
				c-0.105,0.249-0.279,0.512-0.523,0.788c-0.244,0.275-0.648,0.654-1.215,1.136c-0.476,0.398-0.78,0.67-0.914,0.813
				c-0.134,0.142-0.244,0.285-0.332,0.429H21.021z"/>
		</g>
		<path i:knockout="Off" fill="none" stroke="#000000" stroke-width="1.2" d="M38.905,165.519V152.02H25.534v13.499H38.905z"/>
		<g i:knockout="Off">
			<path i:knockout="Off" d="M31.766,160.58v0.766H27.5c-0.006-0.191,0.025-0.375,0.092-0.551c0.108-0.291,0.283-0.577,0.522-0.857
				c0.239-0.281,0.583-0.607,1.033-0.978c0.698-0.583,1.17-1.041,1.418-1.376c0.248-0.334,0.372-0.652,0.372-0.953
				c0-0.313-0.112-0.576-0.335-0.791s-0.516-0.322-0.875-0.322c-0.38,0-0.684,0.113-0.912,0.34
				c-0.228,0.227-0.343,0.541-0.346,0.941l-0.813-0.078c0.055-0.605,0.265-1.066,0.627-1.384s0.85-0.476,1.461-0.476
				c0.617,0,1.105,0.172,1.466,0.516c0.359,0.343,0.54,0.769,0.54,1.276c0,0.258-0.052,0.512-0.158,0.762
				c-0.104,0.249-0.279,0.512-0.522,0.788c-0.243,0.275-0.648,0.654-1.215,1.136c-0.476,0.399-0.78,0.67-0.914,0.812
				c-0.134,0.143-0.245,0.286-0.332,0.43H31.766z"/>
			<path i:knockout="Off" d="M32.668,155.736v-0.766h4.172v0.619c-0.41,0.438-0.815,1.02-1.218,1.745
				c-0.402,0.725-0.713,1.47-0.933,2.236c-0.158,0.54-0.259,1.132-0.303,1.774h-0.813c0.009-0.508,0.108-1.121,0.298-1.84
				c0.19-0.72,0.463-1.413,0.818-2.081s0.733-1.23,1.134-1.688H32.668z"/>
		</g>
		<path i:knockout="Off" fill="none" stroke="#000000" stroke-width="1.2" d="M23.155,165.519V152.02H9.784v13.499H23.155z"/>
		<g i:knockout="Off">
			<path i:knockout="Off" d="M16.016,160.58v0.766H11.75c-0.006-0.191,0.025-0.375,0.092-0.551c0.108-0.291,0.283-0.577,0.522-0.857
				c0.239-0.281,0.583-0.607,1.033-0.978c0.698-0.583,1.17-1.041,1.418-1.376c0.248-0.334,0.372-0.652,0.372-0.953
				c0-0.313-0.112-0.576-0.335-0.791s-0.516-0.322-0.875-0.322c-0.38,0-0.684,0.113-0.912,0.34
				c-0.228,0.227-0.343,0.541-0.346,0.941l-0.813-0.078c0.055-0.605,0.265-1.066,0.627-1.384s0.85-0.476,1.461-0.476
				c0.617,0,1.105,0.172,1.466,0.516c0.359,0.343,0.54,0.769,0.54,1.276c0,0.258-0.052,0.512-0.158,0.762
				c-0.104,0.249-0.279,0.512-0.522,0.788c-0.243,0.275-0.648,0.654-1.215,1.136c-0.476,0.399-0.78,0.67-0.914,0.812
				c-0.134,0.143-0.245,0.286-0.332,0.43H16.016z"/>
			<path i:knockout="Off" d="M20.981,156.471l-0.781,0.063c-0.071-0.311-0.171-0.536-0.3-0.677c-0.215-0.226-0.48-0.339-0.794-0.339
				c-0.253,0-0.478,0.07-0.675,0.211c-0.245,0.182-0.439,0.447-0.583,0.797c-0.144,0.349-0.219,0.846-0.225,1.49
				c0.19-0.291,0.423-0.506,0.699-0.646c0.275-0.141,0.564-0.211,0.866-0.211c0.527,0,0.977,0.194,1.347,0.584
				c0.371,0.389,0.556,0.891,0.556,1.508c0,0.404-0.087,0.781-0.261,1.129s-0.414,0.614-0.718,0.799
				c-0.304,0.185-0.649,0.277-1.036,0.277c-0.659,0-1.196-0.243-1.612-0.729c-0.415-0.486-0.623-1.287-0.623-2.403
				c0-1.248,0.23-2.155,0.69-2.722c0.401-0.493,0.941-0.74,1.622-0.74c0.507,0,0.922,0.143,1.246,0.428
				S20.917,155.969,20.981,156.471z M17.747,159.253c0,0.272,0.058,0.533,0.173,0.782c0.116,0.248,0.276,0.438,0.481,0.568
				s0.424,0.195,0.657,0.195c0.339,0,0.626-0.135,0.864-0.404c0.237-0.269,0.356-0.635,0.356-1.098c0-0.444-0.117-0.795-0.352-1.051
				c-0.234-0.257-0.534-0.385-0.898-0.385c-0.357,0-0.66,0.128-0.908,0.385C17.871,158.502,17.747,158.838,17.747,159.253z"/>
		</g>
		<path i:knockout="Off" fill="none" stroke="#000000" stroke-width="1.2" d="M23.155,110.942V97.443H9.784v13.499H23.155z"/>
		<g i:knockout="Off">
			<path i:knockout="Off" d="M14.835,106.77h-0.797v-5.053c-0.19,0.182-0.439,0.364-0.748,0.546s-0.585,0.319-0.831,0.41v-0.767
				c0.442-0.208,0.829-0.461,1.159-0.758c0.331-0.296,0.565-0.584,0.703-0.863h0.513V106.77z"/>
			<path i:knockout="Off" d="M20.981,101.895l-0.781,0.063c-0.071-0.311-0.171-0.536-0.3-0.677c-0.215-0.226-0.48-0.339-0.794-0.339
				c-0.253,0-0.478,0.07-0.675,0.211c-0.245,0.182-0.439,0.447-0.583,0.796s-0.219,0.846-0.225,1.49
				c0.19-0.29,0.423-0.505,0.699-0.646c0.275-0.141,0.564-0.211,0.866-0.211c0.527,0,0.977,0.194,1.347,0.583
				s0.556,0.892,0.556,1.508c0,0.405-0.087,0.782-0.261,1.129s-0.414,0.614-0.718,0.799c-0.304,0.185-0.649,0.277-1.036,0.277
				c-0.659,0-1.196-0.243-1.612-0.729c-0.415-0.486-0.623-1.287-0.623-2.403c0-1.248,0.23-2.155,0.69-2.722
				c0.401-0.493,0.941-0.74,1.622-0.74c0.507,0,0.922,0.143,1.246,0.428S20.917,101.392,20.981,101.895z M17.747,104.677
				c0,0.272,0.058,0.533,0.173,0.782c0.116,0.249,0.276,0.438,0.481,0.568s0.424,0.195,0.657,0.195c0.339,0,0.626-0.135,0.864-0.404
				s0.356-0.635,0.356-1.098c0-0.444-0.117-0.795-0.352-1.051s-0.534-0.384-0.898-0.384c-0.357,0-0.66,0.128-0.908,0.384
				C17.871,103.926,17.747,104.262,17.747,104.677z"/>
		</g>
		<path i:knockout="Off" fill="none" stroke="#000000" stroke-width="1.2" d="M23.155,126.734v-13.499H9.784v13.499H23.155z"/>
		<g i:knockout="Off">
			<path i:knockout="Off" d="M14.835,122.562h-0.797v-5.053c-0.19,0.182-0.439,0.364-0.748,0.546s-0.585,0.319-0.831,0.41v-0.767
				c0.442-0.208,0.829-0.461,1.159-0.758c0.331-0.296,0.565-0.584,0.703-0.863h0.513V122.562z"/>
			<path i:knockout="Off" d="M18.092,119.065c-0.33-0.121-0.574-0.293-0.732-0.517c-0.159-0.224-0.238-0.491-0.238-0.803
				c0-0.471,0.168-0.867,0.505-1.187c0.336-0.321,0.784-0.481,1.344-0.481c0.562,0,1.014,0.164,1.356,0.492
				c0.342,0.328,0.514,0.728,0.514,1.198c0,0.301-0.078,0.562-0.235,0.784s-0.395,0.394-0.713,0.514
				c0.396,0.129,0.697,0.337,0.904,0.624c0.207,0.288,0.31,0.631,0.31,1.029c0,0.551-0.195,1.015-0.585,1.39
				c-0.391,0.375-0.904,0.563-1.54,0.563c-0.637,0-1.149-0.188-1.54-0.565c-0.39-0.376-0.585-0.846-0.585-1.409
				c0-0.419,0.107-0.77,0.321-1.053C17.391,119.361,17.696,119.168,18.092,119.065z M17.668,120.697
				c0,0.226,0.052,0.444,0.156,0.655s0.264,0.374,0.478,0.49c0.213,0.116,0.442,0.173,0.686,0.173c0.383,0,0.696-0.121,0.94-0.364
				c0.243-0.243,0.365-0.552,0.365-0.927c0-0.38-0.125-0.695-0.376-0.944s-0.57-0.374-0.956-0.374c-0.378,0-0.688,0.123-0.93,0.369
				S17.668,120.328,17.668,120.697z M17.934,117.723c0,0.306,0.097,0.557,0.29,0.751s0.448,0.291,0.766,0.291
				c0.309,0,0.559-0.096,0.751-0.289c0.191-0.193,0.287-0.429,0.287-0.709c0-0.291-0.099-0.536-0.296-0.735
				c-0.198-0.198-0.448-0.298-0.751-0.298c-0.306,0-0.557,0.097-0.753,0.292C18.032,117.219,17.934,117.452,17.934,117.723z"/>
		</g>
		<path i:knockout="Off" fill="none" stroke="#000000" stroke-width="0.7" d="M69.088,109.234h13.385"/>
		<path i:knockout="Off" fill="none" stroke="#000000" stroke-width="1.2" d="M82.663,126.553v-13.5H69.292v13.5H82.663z"/>
		<g i:knockout="Off">
			<path i:knockout="Off" d="M74.343,121.872h-0.797v-5.053c-0.19,0.182-0.439,0.364-0.748,0.546s-0.585,0.319-0.831,0.41v-0.767
				c0.442-0.208,0.829-0.461,1.159-0.758c0.331-0.296,0.565-0.584,0.703-0.863h0.513V121.872z"/>
			<path i:knockout="Off" d="M76.489,120.388l0.766-0.063c0.064,0.351,0.186,0.605,0.366,0.763c0.18,0.158,0.411,0.237,0.693,0.237
				c0.241,0,0.454-0.056,0.639-0.167c0.184-0.111,0.333-0.259,0.447-0.445s0.209-0.437,0.289-0.752
				c0.078-0.316,0.118-0.638,0.118-0.966c0-0.035-0.001-0.088-0.004-0.158c-0.157,0.252-0.372,0.457-0.644,0.613
				c-0.272,0.157-0.567,0.235-0.884,0.235c-0.53,0-0.978-0.194-1.345-0.582c-0.367-0.388-0.55-0.898-0.55-1.533
				c0-0.655,0.191-1.183,0.575-1.582s0.864-0.6,1.442-0.6c0.417,0,0.799,0.113,1.145,0.339c0.346,0.227,0.608,0.549,0.787,0.967
				c0.18,0.419,0.27,1.024,0.27,1.817c0,0.825-0.089,1.482-0.268,1.971c-0.179,0.489-0.444,0.861-0.796,1.117
				c-0.353,0.255-0.766,0.383-1.239,0.383c-0.503,0-0.914-0.139-1.232-0.418C76.745,121.285,76.553,120.893,76.489,120.388z
				 M79.723,117.528c0-0.455-0.119-0.816-0.357-1.083s-0.528-0.401-0.872-0.401c-0.355,0-0.661,0.144-0.918,0.432
				c-0.257,0.288-0.385,0.661-0.385,1.119c0,0.411,0.122,0.745,0.365,1.002c0.244,0.257,0.549,0.385,0.916,0.385
				c0.364,0,0.663-0.128,0.898-0.385S79.723,117.983,79.723,117.528z"/>
		</g>
		<path i:knockout="Off" fill="none" stroke="#000000" stroke-width="0.7" d="M69.088,124.726h13.385"/>
		<path i:knockout="Off" fill="none" stroke="#000000" stroke-width="1.2" d="M88.801,95.435V83.593H77.072v11.842H88.801z"/>
		<g i:knockout="Off">
			<path i:knockout="Off" d="M81.315,91.583h-0.797V86.53c-0.19,0.182-0.439,0.364-0.748,0.546s-0.585,0.319-0.831,0.41V86.72
				c0.442-0.208,0.829-0.461,1.159-0.758c0.331-0.296,0.565-0.584,0.703-0.863h0.513V91.583z"/>
			<path i:knockout="Off" d="M83.352,89.896l0.813-0.063c0.062,0.399,0.204,0.7,0.426,0.901s0.494,0.302,0.817,0.302
				c0.39,0,0.715-0.144,0.976-0.431c0.26-0.287,0.391-0.667,0.391-1.142c0-0.451-0.124-0.807-0.372-1.067
				c-0.248-0.261-0.579-0.391-0.994-0.391c-0.258,0-0.488,0.058-0.689,0.174c-0.201,0.116-0.36,0.267-0.476,0.451l-0.75-0.109
				l0.625-3.313h3.203v0.75h-2.574l-0.348,1.75c0.386-0.271,0.792-0.407,1.216-0.407c0.562,0,1.036,0.195,1.422,0.586
				c0.387,0.391,0.58,0.893,0.58,1.506c0,0.584-0.17,1.089-0.509,1.515c-0.413,0.523-0.976,0.784-1.69,0.784
				c-0.585,0-1.063-0.164-1.433-0.492S83.405,90.438,83.352,89.896z"/>
		</g>
		<path i:knockout="Off" fill="none" stroke="#000000" stroke-width="0.7" d="M76.894,93.685h11.741"/>
		<path i:knockout="Off" fill="none" stroke="#000000" stroke-width="1.2" d="M75.061,140.516v-11.842H63.332v11.842H75.061z"/>
		<g i:knockout="Off">
			<path i:knockout="Off" d="M68.756,135.898v0.766H64.49c-0.006-0.191,0.025-0.375,0.092-0.551
				c0.108-0.291,0.283-0.577,0.522-0.857c0.239-0.281,0.583-0.607,1.033-0.978c0.698-0.583,1.17-1.041,1.418-1.376
				c0.248-0.334,0.372-0.652,0.372-0.953c0-0.313-0.112-0.576-0.335-0.791s-0.516-0.322-0.875-0.322c-0.38,0-0.684,0.113-0.912,0.34
				c-0.228,0.227-0.343,0.541-0.346,0.941l-0.813-0.078c0.055-0.605,0.265-1.066,0.627-1.384c0.363-0.317,0.85-0.476,1.461-0.476
				c0.617,0,1.105,0.172,1.466,0.515c0.359,0.343,0.54,0.769,0.54,1.277c0,0.258-0.052,0.512-0.158,0.762
				c-0.104,0.249-0.279,0.512-0.522,0.788c-0.243,0.275-0.648,0.654-1.215,1.136c-0.476,0.399-0.78,0.67-0.914,0.812
				c-0.134,0.143-0.245,0.286-0.332,0.43H68.756z"/>
			<path i:knockout="Off" d="M69.612,133.479c0-0.764,0.078-1.379,0.234-1.847s0.388-0.827,0.696-1.077s0.696-0.375,1.163-0.375
				c0.345,0,0.648,0.07,0.911,0.209c0.262,0.14,0.477,0.341,0.644,0.604c0.167,0.263,0.298,0.583,0.395,0.961
				c0.096,0.377,0.145,0.886,0.145,1.525c0,0.758-0.077,1.371-0.232,1.839c-0.154,0.468-0.386,0.827-0.694,1.079
				c-0.308,0.252-0.697,0.377-1.167,0.377c-0.619,0-1.105-0.221-1.458-0.662C69.824,135.569,69.612,134.691,69.612,133.479z
				 M70.424,133.477c0,1.064,0.123,1.771,0.369,2.119c0.247,0.348,0.551,0.521,0.912,0.521s0.665-0.175,0.912-0.524
				c0.247-0.349,0.37-1.055,0.37-2.116c0-1.063-0.123-1.768-0.368-2.117c-0.245-0.349-0.552-0.523-0.922-0.523
				c-0.361,0-0.651,0.154-0.87,0.462C70.559,131.691,70.424,132.418,70.424,133.477z"/>
		</g>
		<path i:knockout="Off" fill="none" stroke="#000000" stroke-width="0.7" d="M63.154,138.766h11.741"/>
		<path i:knockout="Off" fill="none" stroke="#000000" stroke-width="1.2" d="M88.801,140.516v-11.842H77.072v11.842H88.801z"/>
		<g i:knockout="Off">
			<path i:knockout="Off" d="M82.496,135.898v0.766H78.23c-0.006-0.191,0.025-0.375,0.092-0.551
				c0.108-0.291,0.283-0.577,0.522-0.857c0.239-0.281,0.583-0.607,1.033-0.978c0.698-0.583,1.17-1.041,1.418-1.376
				c0.248-0.334,0.372-0.652,0.372-0.953c0-0.313-0.112-0.576-0.335-0.791s-0.516-0.322-0.875-0.322c-0.38,0-0.684,0.113-0.912,0.34
				c-0.228,0.227-0.343,0.541-0.346,0.941l-0.813-0.078c0.055-0.605,0.265-1.066,0.627-1.384c0.363-0.317,0.85-0.476,1.461-0.476
				c0.617,0,1.105,0.172,1.466,0.515c0.359,0.343,0.54,0.769,0.54,1.277c0,0.258-0.052,0.512-0.158,0.762
				c-0.104,0.249-0.279,0.512-0.522,0.788c-0.243,0.275-0.648,0.654-1.215,1.136c-0.476,0.399-0.78,0.67-0.914,0.812
				c-0.134,0.143-0.245,0.286-0.332,0.43H82.496z"/>
			<path i:knockout="Off" d="M86.321,136.664h-0.797v-5.053c-0.19,0.182-0.439,0.364-0.748,0.547
				c-0.308,0.182-0.585,0.318-0.831,0.409v-0.767c0.442-0.209,0.828-0.461,1.159-0.758c0.331-0.296,0.564-0.584,0.702-0.863h0.514
				V136.664z"/>
		</g>
		<path i:knockout="Off" fill="none" stroke="#000000" stroke-width="0.7" d="M76.894,138.766h11.741"/>
		<path i:knockout="Off" fill="none" stroke="#000000" stroke-width="1.2" d="M75.061,154.392V142.55H63.332v11.842H75.061z"/>
		<g i:knockout="Off">
			<path i:knockout="Off" d="M68.756,149.774v0.766H64.49c-0.006-0.19,0.025-0.375,0.092-0.551c0.108-0.291,0.283-0.577,0.522-0.858
				c0.239-0.28,0.583-0.605,1.033-0.977c0.698-0.582,1.17-1.041,1.418-1.376c0.248-0.335,0.372-0.652,0.372-0.953
				c0-0.313-0.112-0.576-0.335-0.791s-0.516-0.322-0.875-0.322c-0.38,0-0.684,0.113-0.912,0.34c-0.228,0.227-0.343,0.54-0.346,0.941
				l-0.813-0.078c0.055-0.604,0.265-1.066,0.627-1.384c0.363-0.316,0.85-0.476,1.461-0.476c0.617,0,1.105,0.172,1.466,0.515
				c0.359,0.344,0.54,0.77,0.54,1.277c0,0.258-0.052,0.512-0.158,0.762c-0.104,0.249-0.279,0.512-0.522,0.788
				c-0.243,0.275-0.648,0.654-1.215,1.136c-0.476,0.398-0.78,0.67-0.914,0.813c-0.134,0.142-0.245,0.285-0.332,0.429H68.756z"/>
			<path i:knockout="Off" d="M72.127,150.54v-1.547h-2.781v-0.719l2.938-4.172h0.641v4.172h0.875v0.719h-0.875v1.547H72.127z
				 M72.127,148.274v-2.872l-2.003,2.872H72.127z"/>
		</g>
		<path i:knockout="Off" fill="none" stroke="#000000" stroke-width="0.7" d="M63.154,152.642h11.741"/>
		<path i:knockout="Off" fill="none" stroke="#000000" stroke-width="1.2" d="M88.801,154.392V142.55H77.072v11.842H88.801z"/>
		<g i:knockout="Off">
			<path i:knockout="Off" d="M82.496,149.774v0.766H78.23c-0.006-0.19,0.025-0.375,0.092-0.551c0.108-0.291,0.283-0.577,0.522-0.858
				c0.239-0.28,0.583-0.605,1.033-0.977c0.698-0.582,1.17-1.041,1.418-1.376c0.248-0.335,0.372-0.652,0.372-0.953
				c0-0.313-0.112-0.576-0.335-0.791s-0.516-0.322-0.875-0.322c-0.38,0-0.684,0.113-0.912,0.34c-0.228,0.227-0.343,0.54-0.346,0.941
				l-0.813-0.078c0.055-0.604,0.265-1.066,0.627-1.384c0.363-0.316,0.85-0.476,1.461-0.476c0.617,0,1.105,0.172,1.466,0.515
				c0.359,0.344,0.54,0.77,0.54,1.277c0,0.258-0.052,0.512-0.158,0.762c-0.104,0.249-0.279,0.512-0.522,0.788
				c-0.243,0.275-0.648,0.654-1.215,1.136c-0.476,0.398-0.78,0.67-0.914,0.813c-0.134,0.142-0.245,0.285-0.332,0.429H82.496z"/>
			<path i:knockout="Off" d="M83.352,148.853l0.813-0.063c0.062,0.399,0.204,0.7,0.426,0.901s0.494,0.302,0.817,0.302
				c0.39,0,0.715-0.144,0.976-0.431c0.26-0.287,0.391-0.668,0.391-1.143c0-0.45-0.124-0.807-0.372-1.066
				c-0.248-0.262-0.579-0.392-0.994-0.392c-0.258,0-0.488,0.058-0.689,0.174s-0.36,0.267-0.476,0.451l-0.75-0.109l0.625-3.313h3.203
				v0.75h-2.574l-0.348,1.751c0.386-0.271,0.792-0.407,1.216-0.407c0.562,0,1.036,0.195,1.422,0.586
				c0.387,0.391,0.58,0.893,0.58,1.506c0,0.585-0.17,1.089-0.509,1.515c-0.413,0.523-0.976,0.784-1.69,0.784
				c-0.585,0-1.063-0.164-1.433-0.492S83.405,149.395,83.352,148.853z"/>
		</g>
		<path i:knockout="Off" fill="none" stroke="#000000" stroke-width="0.7" d="M76.894,152.642h11.741"/>
		<path i:knockout="Off" fill="none" stroke="#000000" stroke-width="1.2" d="M75.061,168.434v-11.842H63.332v11.842H75.061z"/>
		<g i:knockout="Off">
			<path i:knockout="Off" d="M68.756,163.816v0.766H64.49c-0.006-0.191,0.025-0.375,0.092-0.551
				c0.108-0.291,0.283-0.577,0.522-0.857c0.239-0.281,0.583-0.607,1.033-0.978c0.698-0.583,1.17-1.041,1.418-1.376
				c0.248-0.334,0.372-0.652,0.372-0.953c0-0.313-0.112-0.576-0.335-0.791s-0.516-0.322-0.875-0.322c-0.38,0-0.684,0.113-0.912,0.34
				c-0.228,0.227-0.343,0.541-0.346,0.941l-0.813-0.078c0.055-0.605,0.265-1.066,0.627-1.384s0.85-0.476,1.461-0.476
				c0.617,0,1.105,0.172,1.466,0.516c0.359,0.343,0.54,0.769,0.54,1.276c0,0.258-0.052,0.512-0.158,0.762
				c-0.104,0.249-0.279,0.512-0.522,0.788c-0.243,0.275-0.648,0.654-1.215,1.136c-0.476,0.399-0.78,0.67-0.914,0.812
				c-0.134,0.143-0.245,0.286-0.332,0.43H68.756z"/>
			<path i:knockout="Off" d="M70.832,161.086c-0.33-0.121-0.574-0.293-0.732-0.517c-0.159-0.224-0.238-0.491-0.238-0.804
				c0-0.471,0.168-0.866,0.505-1.187c0.336-0.321,0.784-0.481,1.344-0.481c0.562,0,1.014,0.164,1.356,0.492
				c0.342,0.328,0.514,0.728,0.514,1.198c0,0.301-0.078,0.562-0.235,0.784c-0.157,0.222-0.395,0.393-0.713,0.514
				c0.396,0.129,0.697,0.337,0.904,0.624c0.207,0.288,0.31,0.631,0.31,1.029c0,0.552-0.195,1.015-0.585,1.39
				c-0.391,0.375-0.904,0.563-1.54,0.563c-0.637,0-1.149-0.188-1.54-0.564c-0.39-0.377-0.585-0.847-0.585-1.41
				c0-0.419,0.107-0.77,0.321-1.053C70.131,161.381,70.436,161.188,70.832,161.086z M70.409,162.717
				c0,0.227,0.052,0.444,0.156,0.655s0.264,0.374,0.478,0.489c0.213,0.116,0.442,0.174,0.686,0.174c0.383,0,0.696-0.121,0.94-0.364
				c0.243-0.243,0.365-0.552,0.365-0.927c0-0.381-0.125-0.695-0.376-0.945c-0.251-0.248-0.57-0.373-0.956-0.373
				c-0.378,0-0.688,0.123-0.93,0.369S70.409,162.349,70.409,162.717z M70.674,159.743c0,0.306,0.097,0.557,0.29,0.751
				s0.448,0.291,0.766,0.291c0.309,0,0.559-0.096,0.751-0.289c0.191-0.193,0.287-0.43,0.287-0.709c0-0.291-0.099-0.536-0.296-0.735
				c-0.198-0.198-0.448-0.298-0.751-0.298c-0.306,0-0.557,0.098-0.753,0.291C70.772,159.24,70.674,159.473,70.674,159.743z"/>
		</g>
		<path i:knockout="Off" fill="none" stroke="#000000" stroke-width="0.7" d="M63.154,166.684h11.741"/>
		<path i:knockout="Off" fill="none" stroke="#000000" stroke-width="1.2" d="M75.061,182.421v-11.842H63.332v11.842H75.061z"/>
		<g i:knockout="Off">
			<path i:knockout="Off" d="M64.606,176.882l0.797-0.109c0.09,0.442,0.243,0.762,0.458,0.957s0.481,0.293,0.799,0.293
				c0.375,0,0.689-0.129,0.942-0.388c0.253-0.258,0.379-0.578,0.379-0.961c0-0.363-0.118-0.664-0.354-0.9s-0.537-0.354-0.902-0.354
				c-0.149,0-0.334,0.029-0.556,0.088l0.087-0.688c0.052,0.006,0.095,0.009,0.127,0.009c0.337,0,0.641-0.088,0.911-0.264
				c0.27-0.177,0.405-0.448,0.405-0.814c0-0.291-0.099-0.531-0.296-0.723c-0.198-0.19-0.453-0.286-0.766-0.286
				c-0.31,0-0.567,0.097-0.774,0.289c-0.206,0.192-0.339,0.481-0.398,0.867l-0.797-0.141c0.097-0.53,0.318-0.942,0.663-1.234
				s0.773-0.438,1.286-0.438c0.353,0,0.679,0.075,0.976,0.228c0.297,0.15,0.525,0.357,0.683,0.618
				c0.158,0.262,0.236,0.539,0.236,0.833c0,0.279-0.075,0.533-0.224,0.762c-0.149,0.229-0.371,0.411-0.664,0.547
				c0.381,0.088,0.676,0.271,0.886,0.547c0.209,0.277,0.314,0.624,0.314,1.041c0,0.563-0.205,1.04-0.615,1.432
				s-0.929,0.587-1.556,0.587c-0.565,0-1.035-0.167-1.409-0.5C64.873,177.845,64.659,177.412,64.606,176.882z"/>
			<path i:knockout="Off" d="M69.612,175.384c0-0.763,0.078-1.379,0.234-1.847c0.156-0.469,0.388-0.827,0.696-1.077
				s0.696-0.375,1.163-0.375c0.345,0,0.648,0.069,0.911,0.209c0.262,0.14,0.477,0.341,0.644,0.604
				c0.167,0.263,0.298,0.583,0.395,0.96c0.096,0.378,0.145,0.887,0.145,1.526c0,0.758-0.077,1.371-0.232,1.839
				c-0.154,0.468-0.386,0.828-0.694,1.079c-0.308,0.251-0.697,0.377-1.167,0.377c-0.619,0-1.105-0.221-1.458-0.661
				C69.824,177.475,69.612,176.597,69.612,175.384z M70.424,175.382c0,1.064,0.123,1.771,0.369,2.118
				c0.247,0.349,0.551,0.522,0.912,0.522s0.665-0.175,0.912-0.524s0.37-1.055,0.37-2.116s-0.123-1.768-0.368-2.117
				c-0.245-0.349-0.552-0.523-0.922-0.523c-0.361,0-0.651,0.154-0.87,0.462C70.559,173.597,70.424,174.322,70.424,175.382z"/>
		</g>
		<path i:knockout="Off" fill="none" stroke="#000000" stroke-width="0.7" d="M63.154,180.671h11.741"/>
		<path i:knockout="Off" fill="none" stroke="#000000" stroke-width="1.2" d="M75.061,196.185v-11.842H63.332v11.842H75.061z"/>
		<g i:knockout="Off">
			<path i:knockout="Off" d="M64.606,190.646l0.797-0.109c0.09,0.442,0.243,0.762,0.458,0.957s0.481,0.293,0.799,0.293
				c0.375,0,0.689-0.129,0.942-0.388c0.253-0.258,0.379-0.578,0.379-0.961c0-0.363-0.118-0.664-0.354-0.9s-0.537-0.354-0.902-0.354
				c-0.149,0-0.334,0.029-0.556,0.088l0.087-0.688c0.052,0.006,0.095,0.009,0.127,0.009c0.337,0,0.641-0.088,0.911-0.264
				c0.27-0.177,0.405-0.448,0.405-0.814c0-0.291-0.099-0.531-0.296-0.723c-0.198-0.19-0.453-0.286-0.766-0.286
				c-0.31,0-0.567,0.097-0.774,0.289c-0.206,0.192-0.339,0.481-0.398,0.867l-0.797-0.141c0.097-0.53,0.318-0.942,0.663-1.234
				s0.773-0.438,1.286-0.438c0.353,0,0.679,0.075,0.976,0.228c0.297,0.15,0.525,0.357,0.683,0.618
				c0.158,0.262,0.236,0.539,0.236,0.833c0,0.279-0.075,0.533-0.224,0.762c-0.149,0.229-0.371,0.411-0.664,0.547
				c0.381,0.088,0.676,0.271,0.886,0.547c0.209,0.277,0.314,0.624,0.314,1.041c0,0.563-0.205,1.04-0.615,1.432
				s-0.929,0.587-1.556,0.587c-0.565,0-1.035-0.167-1.409-0.5C64.873,191.608,64.659,191.176,64.606,190.646z"/>
			<path i:knockout="Off" d="M73.761,191.567v0.766h-4.266c-0.006-0.19,0.025-0.375,0.093-0.551
				c0.108-0.291,0.282-0.577,0.521-0.858c0.239-0.28,0.583-0.605,1.033-0.977c0.697-0.582,1.17-1.041,1.418-1.376
				s0.372-0.652,0.372-0.953c0-0.313-0.112-0.576-0.335-0.791s-0.515-0.322-0.875-0.322c-0.38,0-0.685,0.113-0.912,0.34
				c-0.229,0.227-0.344,0.54-0.347,0.941l-0.813-0.078c0.056-0.604,0.265-1.066,0.627-1.384c0.363-0.316,0.85-0.476,1.461-0.476
				c0.617,0,1.105,0.172,1.465,0.515c0.36,0.344,0.54,0.77,0.54,1.277c0,0.258-0.053,0.512-0.157,0.762
				c-0.105,0.249-0.279,0.512-0.523,0.788c-0.244,0.275-0.648,0.654-1.215,1.136c-0.476,0.398-0.78,0.67-0.914,0.813
				c-0.134,0.142-0.244,0.285-0.332,0.429H73.761z"/>
		</g>
		<path i:knockout="Off" fill="none" stroke="#000000" stroke-width="0.7" d="M63.154,194.435h11.741"/>
		<path i:knockout="Off" fill="none" stroke="#000000" stroke-width="1.2" d="M75.061,210.116v-11.842H63.332v11.842H75.061z"/>
		<g i:knockout="Off">
			<path i:knockout="Off" d="M64.606,204.577l0.797-0.109c0.09,0.442,0.243,0.762,0.458,0.957s0.481,0.293,0.799,0.293
				c0.375,0,0.689-0.129,0.942-0.388c0.253-0.258,0.379-0.578,0.379-0.961c0-0.363-0.118-0.664-0.354-0.9s-0.537-0.354-0.902-0.354
				c-0.149,0-0.334,0.029-0.556,0.088l0.087-0.688c0.052,0.006,0.095,0.009,0.127,0.009c0.337,0,0.641-0.088,0.911-0.264
				c0.27-0.177,0.405-0.448,0.405-0.814c0-0.291-0.099-0.531-0.296-0.723c-0.198-0.19-0.453-0.286-0.766-0.286
				c-0.31,0-0.567,0.097-0.774,0.289c-0.206,0.192-0.339,0.481-0.398,0.867l-0.797-0.141c0.097-0.53,0.318-0.942,0.663-1.234
				s0.773-0.438,1.286-0.438c0.353,0,0.679,0.075,0.976,0.228c0.297,0.15,0.525,0.357,0.683,0.618
				c0.158,0.262,0.236,0.539,0.236,0.833c0,0.279-0.075,0.533-0.224,0.762c-0.149,0.229-0.371,0.411-0.664,0.547
				c0.381,0.088,0.676,0.271,0.886,0.547c0.209,0.277,0.314,0.624,0.314,1.041c0,0.563-0.205,1.04-0.615,1.432
				s-0.929,0.587-1.556,0.587c-0.565,0-1.035-0.167-1.409-0.5C64.873,205.54,64.659,205.107,64.606,204.577z"/>
			<path i:knockout="Off" d="M72.127,206.265v-1.547h-2.781v-0.719l2.938-4.172h0.641v4.172h0.875v0.719h-0.875v1.547H72.127z
				 M72.127,203.999v-2.872l-2.003,2.872H72.127z"/>
		</g>
		<path i:knockout="Off" fill="none" stroke="#000000" stroke-width="0.7" d="M63.154,208.366h11.741"/>
		<path i:knockout="Off" fill="none" stroke="#000000" stroke-width="1.2" d="M88.801,168.434v-11.842H77.072v11.842H88.801z"/>
		<g i:knockout="Off">
			<path i:knockout="Off" d="M82.496,163.816v0.766H78.23c-0.006-0.191,0.025-0.375,0.092-0.551
				c0.108-0.291,0.283-0.577,0.522-0.857c0.239-0.281,0.583-0.607,1.033-0.978c0.698-0.583,1.17-1.041,1.418-1.376
				c0.248-0.334,0.372-0.652,0.372-0.953c0-0.313-0.112-0.576-0.335-0.791s-0.516-0.322-0.875-0.322c-0.38,0-0.684,0.113-0.912,0.34
				c-0.228,0.227-0.343,0.541-0.346,0.941l-0.813-0.078c0.055-0.605,0.265-1.066,0.627-1.384s0.85-0.476,1.461-0.476
				c0.617,0,1.105,0.172,1.466,0.516c0.359,0.343,0.54,0.769,0.54,1.276c0,0.258-0.052,0.512-0.158,0.762
				c-0.104,0.249-0.279,0.512-0.522,0.788c-0.243,0.275-0.648,0.654-1.215,1.136c-0.476,0.399-0.78,0.67-0.914,0.812
				c-0.134,0.143-0.245,0.286-0.332,0.43H82.496z"/>
			<path i:knockout="Off" d="M83.461,163.098l0.766-0.063c0.064,0.351,0.186,0.605,0.366,0.763c0.18,0.158,0.411,0.237,0.693,0.237
				c0.241,0,0.454-0.056,0.639-0.167c0.184-0.11,0.333-0.259,0.447-0.444s0.209-0.438,0.289-0.753
				c0.078-0.315,0.118-0.638,0.118-0.966c0-0.035-0.001-0.088-0.004-0.158c-0.157,0.252-0.372,0.456-0.644,0.612
				c-0.272,0.157-0.567,0.235-0.884,0.235c-0.53,0-0.978-0.193-1.345-0.582c-0.367-0.388-0.55-0.898-0.55-1.533
				c0-0.655,0.191-1.183,0.575-1.582s0.864-0.6,1.442-0.6c0.417,0,0.799,0.113,1.145,0.339c0.346,0.227,0.608,0.549,0.787,0.967
				c0.18,0.419,0.27,1.024,0.27,1.817c0,0.825-0.089,1.482-0.268,1.971c-0.179,0.489-0.444,0.861-0.796,1.117
				c-0.353,0.255-0.766,0.383-1.239,0.383c-0.503,0-0.914-0.139-1.232-0.418C83.717,163.994,83.526,163.603,83.461,163.098z
				 M86.696,160.238c0-0.455-0.119-0.816-0.357-1.084c-0.238-0.267-0.528-0.4-0.872-0.4c-0.355,0-0.661,0.145-0.918,0.432
				c-0.257,0.288-0.385,0.66-0.385,1.119c0,0.41,0.122,0.744,0.365,1.002c0.244,0.256,0.549,0.385,0.916,0.385
				c0.364,0,0.663-0.129,0.898-0.385C86.579,161.049,86.696,160.693,86.696,160.238z"/>
		</g>
		<path i:knockout="Off" fill="none" stroke="#000000" stroke-width="0.7" d="M76.894,166.684h11.741"/>
		<path i:knockout="Off" fill="none" stroke="#000000" stroke-width="1.2" d="M75.061,14.413v-3.494l-5.586,3.494"/>
		<path i:knockout="Off" fill="none" stroke="#000000" stroke-width="1.2" d="M25.536,14.351v-3.494l5.586,3.494"/>
		<path i:knockout="Off" fill="none" stroke="#000000" stroke-width="1.2" d="M38.905,210.112h24.447"/>
		<path i:knockout="Off" fill="none" stroke="#000000" stroke-width="1.2" d="M38.851,14.357h24.566"/>
	</g>
</svg>
