<?xml version="1.0" encoding="utf-8"?>
<!-- Generator: Adobe Illustrator 10.0, SVG Export Plug-In . SVG Version: 3.0.0 Build 77)  -->
<!DOCTYPE svg PUBLIC "-//W3C//DTD SVG 1.0//EN"    "http://www.w3.org/TR/2001/REC-SVG-20010904/DTD/svg10.dtd" [
	<!ENTITY ns_flows "http://ns.adobe.com/Flows/1.0/">
	<!ENTITY ns_extend "http://ns.adobe.com/Extensibility/1.0/">
	<!ENTITY ns_ai "http://ns.adobe.com/AdobeIllustrator/10.0/">
	<!ENTITY ns_graphs "http://ns.adobe.com/Graphs/1.0/">
	<!ENTITY ns_vars "http://ns.adobe.com/Variables/1.0/">
	<!ENTITY ns_imrep "http://ns.adobe.com/ImageReplacement/1.0/">
	<!ENTITY ns_sfw "http://ns.adobe.com/SaveForWeb/1.0/">
	<!ENTITY ns_custom "http://ns.adobe.com/GenericCustomNamespace/1.0/">
	<!ENTITY ns_adobe_xpath "http://ns.adobe.com/XPath/1.0/">
	<!ENTITY ns_svg "http://www.w3.org/2000/svg">
	<!ENTITY ns_xlink "http://www.w3.org/1999/xlink">
]>
<svg xmlns:x="&ns_extend;" xmlns:i="&ns_ai;" xmlns:graph="&ns_graphs;" i:viewOrigin="184.7212 550.6416" i:rulerOrigin="-1 0.1104" i:pageBounds="1 841.8896 596 -0.1104" xmlns="&ns_svg;" xmlns:xlink="&ns_xlink;" xmlns:a="http://ns.adobe.com/AdobeSVGViewerExtensions/3.0/" width="200.208" height="212.584" viewBox="0 0 200.208 212.584" overflow="visible" enable-background="new 0 0 200.208 212.584" xml:space="preserve" id="svgObj" onload="parent.svgLoad('Top', document)">
	<metadata>
		<variableSets xmlns="&ns_vars;">
			<variableSet varSetName="binding1" locked="none">
				<variables></variables>
				<v:sampleDataSets xmlns="&ns_custom;" xmlns:v="&ns_vars;"></v:sampleDataSets>
			</variableSet>
		</variableSets>
		<sfw xmlns="&ns_sfw;">
			<slices></slices>
			<sliceSourceBounds y="338.058" x="184.721" width="200.208" height="212.584" bottomLeftOrigin="true"></sliceSourceBounds>
		</sfw>
	</metadata>
	<g id="connector" i:layer="yes" i:dimmedPercent="50" i:rgbTrio="#FFFF4F00FFFF">
		<g i:knockout="Off">
			<path i:knockout="Off" d="M0,19.27v-7.094h1.453v5.875h3.594v1.219H0z"/>
			<path i:knockout="Off" d="M5.718,17.384l1.328-0.161c0.042,0.339,0.156,0.599,0.341,0.778c0.186,0.179,0.409,0.269,0.672,0.269
				c0.282,0,0.521-0.108,0.713-0.326s0.29-0.511,0.29-0.88c0-0.349-0.092-0.626-0.276-0.831s-0.41-0.307-0.675-0.307
				c-0.175,0-0.384,0.034-0.627,0.103l0.152-1.103c0.372,0.01,0.656-0.071,0.852-0.242C8.683,14.512,8.78,14.285,8.78,14
				c0-0.241-0.071-0.434-0.214-0.577s-0.333-0.216-0.571-0.216c-0.234,0-0.434,0.081-0.6,0.243c-0.166,0.162-0.267,0.399-0.303,0.71
				l-1.266-0.214c0.088-0.435,0.221-0.783,0.398-1.043c0.177-0.26,0.424-0.465,0.742-0.613c0.317-0.149,0.673-0.224,1.066-0.224
				c0.673,0,1.213,0.216,1.62,0.646c0.335,0.353,0.502,0.751,0.502,1.195c0,0.63-0.343,1.133-1.028,1.508
				c0.406,0.089,0.731,0.287,0.976,0.595c0.243,0.308,0.365,0.68,0.365,1.115c0,0.632-0.229,1.171-0.688,1.616
				s-1.029,0.668-1.712,0.668c-0.646,0-1.184-0.187-1.609-0.561C6.033,18.477,5.786,17.988,5.718,17.384z"/>
			<path i:knockout="Off" d="M12.514,15.406c-0.355-0.15-0.613-0.357-0.774-0.62c-0.161-0.264-0.242-0.552-0.242-0.865
				c0-0.536,0.185-0.979,0.555-1.329s0.896-0.524,1.578-0.524c0.675,0,1.2,0.175,1.573,0.524s0.56,0.793,0.56,1.329
				c0,0.333-0.086,0.63-0.258,0.89c-0.172,0.26-0.414,0.458-0.726,0.596c0.398,0.16,0.7,0.394,0.907,0.701
				c0.207,0.307,0.311,0.662,0.311,1.063c0,0.664-0.21,1.203-0.63,1.618s-0.979,0.623-1.675,0.623c-0.648,0-1.188-0.171-1.619-0.515
				c-0.509-0.405-0.763-0.961-0.763-1.667c0-0.389,0.096-0.746,0.29-1.071C11.793,15.833,12.098,15.582,12.514,15.406z
				 M12.67,17.101c0,0.382,0.095,0.681,0.286,0.895c0.191,0.214,0.429,0.321,0.715,0.321c0.279,0,0.51-0.103,0.693-0.309
				c0.183-0.206,0.274-0.504,0.274-0.893c0-0.339-0.093-0.612-0.279-0.818s-0.422-0.309-0.708-0.309
				c-0.331,0-0.577,0.117-0.739,0.351S12.67,16.828,12.67,17.101z M12.795,14.021c0,0.275,0.075,0.49,0.227,0.644
				s0.353,0.231,0.604,0.231c0.255,0,0.458-0.078,0.611-0.233c0.153-0.155,0.229-0.371,0.229-0.646c0-0.259-0.076-0.466-0.227-0.622
				c-0.151-0.155-0.351-0.233-0.6-0.233c-0.258,0-0.463,0.079-0.616,0.236S12.795,13.762,12.795,14.021z"/>
			<path i:knockout="Off" d="M19.201,12.067c0.694,0,1.237,0.249,1.629,0.746c0.466,0.589,0.699,1.565,0.699,2.929
				c0,1.361-0.235,2.338-0.704,2.934c-0.388,0.491-0.93,0.736-1.624,0.736c-0.698,0-1.26-0.269-1.688-0.807
				s-0.641-1.497-0.641-2.877c0-1.354,0.235-2.329,0.705-2.924C17.965,12.312,18.506,12.067,19.201,12.067z M19.201,13.208
				c-0.164,0-0.309,0.053-0.438,0.16s-0.228,0.297-0.298,0.572c-0.093,0.357-0.14,0.958-0.14,1.802c0,0.845,0.042,1.425,0.125,1.741
				s0.188,0.526,0.315,0.631c0.126,0.105,0.271,0.157,0.435,0.157s0.309-0.053,0.438-0.159s0.228-0.297,0.298-0.572
				c0.093-0.354,0.139-0.953,0.139-1.797c0-0.844-0.042-1.425-0.125-1.741s-0.188-0.527-0.315-0.633S19.364,13.208,19.201,13.208z"/>
		</g>
		<g i:knockout="Off">
			<path i:knockout="Off" d="M98.045,12.114h1.453v4.542c0,0.594-0.052,1.051-0.156,1.371c-0.14,0.417-0.394,0.753-0.761,1.006
				c-0.368,0.252-0.854,0.379-1.455,0.379c-0.706,0-1.25-0.2-1.629-0.6c-0.381-0.4-0.573-0.986-0.576-1.76l1.375-0.141
				c0.016,0.414,0.075,0.706,0.178,0.876c0.154,0.259,0.388,0.389,0.702,0.389c0.317,0,0.541-0.092,0.673-0.276
				s0.197-0.567,0.197-1.148V12.114z"/>
			<path i:knockout="Off" d="M105.372,17.989v1.281h-4.812c0.052-0.482,0.208-0.94,0.47-1.372c0.26-0.433,0.775-1.006,1.545-1.721
				c0.619-0.577,0.998-0.969,1.139-1.174c0.189-0.284,0.283-0.564,0.283-0.842c0-0.307-0.082-0.542-0.248-0.707
				c-0.166-0.165-0.395-0.247-0.688-0.247c-0.289,0-0.52,0.087-0.689,0.261c-0.172,0.173-0.27,0.461-0.297,0.864l-1.375-0.138
				c0.082-0.758,0.339-1.303,0.771-1.633s0.971-0.495,1.619-0.495c0.709,0,1.268,0.191,1.674,0.572
				c0.404,0.381,0.607,0.855,0.607,1.423c0,0.323-0.057,0.63-0.174,0.922c-0.115,0.292-0.299,0.598-0.549,0.917
				c-0.166,0.212-0.467,0.517-0.904,0.914c-0.436,0.398-0.711,0.662-0.826,0.792c-0.117,0.13-0.211,0.257-0.281,0.381H105.372z"/>
			<path i:knockout="Off" d="M109.808,19.27h-1.375v-5.185c-0.499,0.471-1.087,0.818-1.765,1.044v-1.25
				c0.357-0.117,0.746-0.339,1.166-0.667c0.418-0.327,0.706-0.709,0.862-1.146h1.111V19.27z"/>
			<path i:knockout="Off" d="M116.496,13.859l-1.328,0.146c-0.033-0.272-0.118-0.473-0.256-0.603
				c-0.138-0.129-0.316-0.194-0.536-0.194c-0.292,0-0.539,0.131-0.741,0.394c-0.201,0.263-0.328,0.807-0.381,1.634
				c0.344-0.403,0.771-0.605,1.283-0.605c0.577,0,1.071,0.219,1.482,0.656s0.617,1.001,0.617,1.693c0,0.734-0.216,1.323-0.647,1.767
				c-0.431,0.444-0.984,0.666-1.661,0.666c-0.725,0-1.321-0.282-1.788-0.846s-0.7-1.489-0.7-2.774c0-1.318,0.242-2.269,0.729-2.851
				c0.485-0.582,1.116-0.873,1.893-0.873c0.545,0,0.995,0.153,1.353,0.459C116.169,12.832,116.397,13.276,116.496,13.859z
				 M113.371,16.872c0,0.447,0.104,0.792,0.311,1.034c0.208,0.243,0.445,0.364,0.712,0.364c0.257,0,0.471-0.1,0.642-0.298
				c0.172-0.199,0.258-0.525,0.258-0.978c0-0.466-0.093-0.807-0.277-1.024s-0.415-0.325-0.691-0.325
				c-0.267,0-0.492,0.104-0.677,0.311S113.371,16.468,113.371,16.872z"/>
		</g>
	</g>
	<g id="レイヤー_1" i:layer="yes" i:dimmedPercent="100" i:rgbTrio="#4F008000FFFF">
		<path i:knockout="Off" fill="none" stroke="#000000" stroke-width="0.7" d="M136.142,26.208V14.366h11.729v11.841H136.142z"/>
		<g i:knockout="Off">
			<path i:knockout="Off" d="M142.807,22.356h-0.797v-5.053c-0.189,0.182-0.438,0.364-0.747,0.546s-0.586,0.319-0.831,0.41v-0.767
				c0.442-0.208,0.829-0.461,1.159-0.758c0.331-0.296,0.564-0.584,0.703-0.863h0.513V22.356z"/>
		</g>
		<path i:knockout="Off" fill="none" stroke="#000000" stroke-width="0.7" d="M148.048,24.458h-11.74"/>
		<path i:knockout="Off" fill="none" stroke="#000000" stroke-width="0.7" d="M136.142,39.946V28.105h11.729v11.841H136.142z"/>
		<g i:knockout="Off">
			<path i:knockout="Off" d="M139.838,34.408l0.797-0.109c0.091,0.443,0.243,0.762,0.458,0.957s0.48,0.293,0.799,0.293
				c0.375,0,0.689-0.129,0.942-0.388s0.379-0.579,0.379-0.96c0-0.364-0.118-0.665-0.354-0.901s-0.537-0.354-0.901-0.354
				c-0.149,0-0.334,0.029-0.556,0.088l0.087-0.688c0.053,0.006,0.095,0.009,0.128,0.009c0.337,0,0.641-0.088,0.91-0.264
				c0.271-0.176,0.405-0.447,0.405-0.814c0-0.291-0.099-0.531-0.296-0.722c-0.198-0.191-0.453-0.286-0.766-0.286
				c-0.31,0-0.568,0.096-0.774,0.289s-0.339,0.482-0.398,0.867l-0.797-0.141c0.098-0.531,0.318-0.942,0.663-1.234
				s0.773-0.438,1.285-0.438c0.354,0,0.68,0.076,0.977,0.227c0.298,0.151,0.525,0.357,0.683,0.619
				c0.157,0.261,0.236,0.539,0.236,0.832c0,0.279-0.074,0.533-0.224,0.763c-0.149,0.229-0.371,0.411-0.664,0.546
				c0.381,0.088,0.676,0.271,0.886,0.548s0.314,0.624,0.314,1.04c0,0.563-0.205,1.04-0.615,1.432s-0.929,0.587-1.556,0.587
				c-0.565,0-1.035-0.167-1.408-0.5C140.105,35.371,139.891,34.938,139.838,34.408z"/>
		</g>
		<path i:knockout="Off" fill="none" stroke="#000000" stroke-width="0.7" d="M148.048,38.196h-11.74"/>
		<path i:knockout="Off" fill="none" stroke="#000000" stroke-width="0.7" d="M136.142,53.862V42.021h11.729v11.841H136.142z"/>
		<g i:knockout="Off">
			<path i:knockout="Off" d="M139.838,48.324l0.813-0.063c0.062,0.399,0.204,0.7,0.426,0.901c0.223,0.201,0.495,0.302,0.817,0.302
				c0.39,0,0.715-0.144,0.976-0.431s0.391-0.667,0.391-1.142c0-0.451-0.124-0.807-0.372-1.067c-0.247-0.261-0.578-0.391-0.994-0.391
				c-0.258,0-0.487,0.058-0.688,0.174c-0.201,0.116-0.36,0.267-0.477,0.451l-0.75-0.109l0.625-3.313h3.203v0.75h-2.574l-0.348,1.75
				c0.386-0.271,0.792-0.407,1.217-0.407c0.562,0,1.036,0.195,1.423,0.586c0.386,0.391,0.579,0.893,0.579,1.506
				c0,0.584-0.169,1.089-0.509,1.515c-0.412,0.523-0.976,0.784-1.689,0.784c-0.586,0-1.063-0.164-1.434-0.492
				C140.103,49.301,139.891,48.866,139.838,48.324z"/>
		</g>
		<path i:knockout="Off" fill="none" stroke="#000000" stroke-width="0.7" d="M148.048,52.112h-11.74"/>
		<path i:knockout="Off" fill="none" stroke="#000000" stroke-width="0.7" d="M136.142,67.853V56.011h11.729v11.842H136.142z"/>
		<g i:knockout="Off">
			<path i:knockout="Off" d="M143.948,59.126l-0.781,0.063c-0.07-0.311-0.171-0.536-0.3-0.677c-0.215-0.226-0.48-0.339-0.795-0.339
				c-0.253,0-0.478,0.07-0.674,0.211c-0.246,0.182-0.44,0.447-0.584,0.796c-0.145,0.349-0.22,0.846-0.226,1.49
				c0.19-0.29,0.424-0.505,0.699-0.646s0.564-0.211,0.866-0.211c0.527,0,0.977,0.194,1.348,0.583
				c0.37,0.389,0.556,0.892,0.556,1.508c0,0.405-0.087,0.782-0.261,1.129c-0.175,0.348-0.414,0.614-0.719,0.799
				c-0.304,0.185-0.649,0.277-1.035,0.277c-0.659,0-1.196-0.243-1.611-0.729c-0.416-0.486-0.624-1.287-0.624-2.403
				c0-1.248,0.23-2.155,0.69-2.722c0.401-0.493,0.941-0.74,1.622-0.74c0.507,0,0.922,0.143,1.246,0.428
				C143.689,58.229,143.883,58.624,143.948,59.126z M140.713,61.908c0,0.272,0.058,0.533,0.174,0.782
				c0.115,0.249,0.275,0.438,0.48,0.568s0.425,0.195,0.657,0.195c0.339,0,0.627-0.135,0.864-0.404s0.355-0.635,0.355-1.098
				c0-0.444-0.117-0.795-0.352-1.051s-0.534-0.384-0.898-0.384c-0.356,0-0.659,0.128-0.908,0.384S140.713,61.493,140.713,61.908z"/>
		</g>
		<path i:knockout="Off" fill="none" stroke="#000000" stroke-width="0.7" d="M148.048,66.103h-11.74"/>
		<path i:knockout="Off" fill="none" stroke="#000000" stroke-width="0.7" d="M122.402,67.853V56.011h11.729v11.842H122.402z"/>
		<g i:knockout="Off">
			<path i:knockout="Off" d="M126.145,58.392v-0.766h4.172v0.62c-0.409,0.438-0.815,1.019-1.218,1.745
				c-0.402,0.725-0.713,1.47-0.933,2.236c-0.157,0.54-0.259,1.132-0.303,1.774h-0.813c0.009-0.508,0.108-1.121,0.298-1.84
				c0.19-0.719,0.463-1.413,0.818-2.081s0.733-1.23,1.134-1.688H126.145z"/>
		</g>
		<path i:knockout="Off" fill="none" stroke="#000000" stroke-width="0.7" d="M134.308,66.103h-11.74"/>
		<path i:knockout="Off" fill="none" stroke="#000000" stroke-width="0.7" d="M136.142,81.694V69.853h11.729v11.842H136.142z"/>
		<g i:knockout="Off">
			<path i:knockout="Off" d="M140.304,77.843h-0.797V72.79c-0.189,0.182-0.438,0.364-0.747,0.546s-0.585,0.319-0.831,0.41v-0.767
				c0.442-0.208,0.829-0.461,1.16-0.758c0.33-0.296,0.564-0.584,0.702-0.863h0.513V77.843z"/>
			<path i:knockout="Off" d="M142.341,74.657c0-0.763,0.078-1.379,0.234-1.847c0.156-0.468,0.389-0.827,0.696-1.077
				s0.696-0.375,1.163-0.375c0.345,0,0.648,0.07,0.91,0.209c0.263,0.14,0.478,0.341,0.645,0.604c0.166,0.263,0.298,0.583,0.395,0.96
				c0.096,0.377,0.145,0.886,0.145,1.526c0,0.758-0.077,1.371-0.232,1.839c-0.154,0.468-0.386,0.828-0.694,1.079
				c-0.308,0.251-0.696,0.377-1.167,0.377c-0.619,0-1.105-0.221-1.459-0.662C142.553,76.748,142.341,75.87,142.341,74.657z
				 M143.154,74.655c0,1.064,0.123,1.771,0.369,2.119s0.551,0.522,0.912,0.522s0.665-0.175,0.912-0.524
				c0.246-0.349,0.369-1.055,0.369-2.116c0-1.062-0.123-1.768-0.367-2.117c-0.246-0.349-0.553-0.523-0.923-0.523
				c-0.361,0-0.651,0.154-0.87,0.462C143.289,72.87,143.154,73.596,143.154,74.655z"/>
		</g>
		<path i:knockout="Off" fill="none" stroke="#000000" stroke-width="0.7" d="M148.048,79.944h-11.74"/>
		<path i:knockout="Off" fill="none" stroke="#000000" stroke-width="0.7" d="M122.402,81.694V69.853h11.729v11.842H122.402z"/>
		<g i:knockout="Off">
			<path i:knockout="Off" d="M126.564,77.843h-0.797V72.79c-0.189,0.182-0.438,0.364-0.747,0.546s-0.585,0.319-0.831,0.41v-0.767
				c0.442-0.208,0.829-0.461,1.16-0.758c0.33-0.296,0.564-0.584,0.702-0.863h0.513V77.843z"/>
			<path i:knockout="Off" d="M131.57,77.843h-0.797V72.79c-0.189,0.182-0.439,0.364-0.748,0.546c-0.308,0.182-0.585,0.319-0.83,0.41
				v-0.767c0.441-0.208,0.828-0.461,1.159-0.758c0.331-0.296,0.564-0.584,0.702-0.863h0.514V77.843z"/>
		</g>
		<path i:knockout="Off" fill="none" stroke="#000000" stroke-width="0.7" d="M134.308,79.944h-11.74"/>
		<path i:knockout="Off" fill="none" stroke="#000000" stroke-width="0.7" d="M136.142,95.435V83.593h11.729v11.842H136.142z"/>
		<g i:knockout="Off">
			<path i:knockout="Off" d="M140.304,91.583h-0.797V86.53c-0.189,0.182-0.438,0.364-0.747,0.546s-0.585,0.319-0.831,0.41V86.72
				c0.442-0.208,0.829-0.461,1.16-0.758c0.33-0.296,0.564-0.584,0.702-0.863h0.513V91.583z"/>
			<path i:knockout="Off" d="M144.857,91.583v-1.547h-2.781v-0.719l2.938-4.172h0.641v4.172h0.875v0.719h-0.875v1.547H144.857z
				 M144.857,89.317v-2.872l-2.004,2.872H144.857z"/>
		</g>
		<path i:knockout="Off" fill="none" stroke="#000000" stroke-width="0.7" d="M148.048,93.685h-11.74"/>
		<path i:knockout="Off" fill="none" stroke="#000000" stroke-width="0.7" d="M128.541,111.062v-13.5h13.371v13.5H128.541z"/>
		<g i:knockout="Off">
			<path i:knockout="Off" d="M133.537,106.381h-0.797v-5.053c-0.189,0.182-0.438,0.364-0.747,0.546s-0.585,0.319-0.831,0.41v-0.767
				c0.442-0.208,0.829-0.461,1.16-0.758c0.33-0.296,0.564-0.584,0.702-0.863h0.513V106.381z"/>
			<path i:knockout="Off" d="M135.621,100.771v-0.766h4.172v0.62c-0.41,0.438-0.815,1.019-1.218,1.745
				c-0.402,0.725-0.713,1.47-0.933,2.236c-0.158,0.54-0.259,1.132-0.303,1.774h-0.813c0.009-0.508,0.108-1.121,0.298-1.84
				c0.19-0.719,0.463-1.413,0.818-2.081s0.733-1.23,1.134-1.688H135.621z"/>
		</g>
		<path i:knockout="Off" fill="none" stroke="#000000" stroke-width="0.7" d="M168.298,27.84v-13.5h13.369v13.5H168.298z"/>
		<g i:knockout="Off">
			<path i:knockout="Off" d="M176.978,22.901v0.766h-4.266c-0.006-0.191,0.025-0.375,0.093-0.551
				c0.108-0.291,0.282-0.577,0.521-0.857s0.584-0.606,1.033-0.977c0.698-0.583,1.171-1.042,1.419-1.376
				c0.247-0.334,0.371-0.652,0.371-0.953c0-0.313-0.111-0.577-0.335-0.792s-0.516-0.322-0.875-0.322c-0.38,0-0.685,0.114-0.912,0.34
				s-0.344,0.54-0.347,0.941l-0.813-0.078c0.056-0.605,0.265-1.066,0.628-1.383c0.362-0.317,0.85-0.476,1.461-0.476
				c0.617,0,1.105,0.172,1.466,0.515c0.359,0.344,0.539,0.769,0.539,1.276c0,0.259-0.053,0.513-0.157,0.762
				c-0.104,0.25-0.279,0.513-0.522,0.788c-0.244,0.276-0.648,0.655-1.215,1.136c-0.477,0.399-0.781,0.67-0.914,0.813
				c-0.135,0.143-0.245,0.285-0.332,0.429H176.978z"/>
		</g>
		<path i:knockout="Off" fill="none" stroke="#000000" stroke-width="0.7" d="M168.298,50.385v-13.5h13.369v13.5H168.298z"/>
		<g i:knockout="Off">
			<path i:knockout="Off" d="M175.344,46.212v-1.547h-2.781v-0.719l2.938-4.172h0.641v4.172h0.875v0.719h-0.875v1.547H175.344z
				 M175.344,43.946v-2.872l-2.003,2.872H175.344z"/>
		</g>
		<path i:knockout="Off" fill="none" stroke="#000000" stroke-width="0.7" d="M168.298,72.591V59.092h13.369v13.499H168.298z"/>
		<g i:knockout="Off">
			<path i:knockout="Off" d="M172.938,66.934l0.766-0.063c0.064,0.351,0.187,0.605,0.366,0.763c0.181,0.158,0.412,0.237,0.693,0.237
				c0.242,0,0.454-0.056,0.639-0.167c0.185-0.111,0.333-0.259,0.447-0.445c0.113-0.186,0.209-0.437,0.288-0.752
				s0.118-0.638,0.118-0.966c0-0.035-0.002-0.088-0.005-0.158c-0.157,0.252-0.372,0.457-0.644,0.613
				c-0.271,0.157-0.566,0.235-0.884,0.235c-0.53,0-0.978-0.194-1.345-0.582c-0.366-0.388-0.55-0.898-0.55-1.533
				c0-0.655,0.192-1.183,0.575-1.582c0.384-0.399,0.865-0.6,1.442-0.6c0.417,0,0.799,0.113,1.145,0.339
				c0.346,0.227,0.608,0.549,0.788,0.967c0.179,0.419,0.269,1.024,0.269,1.817c0,0.825-0.089,1.482-0.268,1.971
				c-0.179,0.489-0.443,0.861-0.796,1.117c-0.353,0.255-0.766,0.383-1.238,0.383c-0.504,0-0.914-0.139-1.232-0.418
				C173.194,67.831,173.002,67.438,172.938,66.934z M176.172,64.074c0-0.455-0.119-0.816-0.356-1.083
				c-0.238-0.267-0.528-0.401-0.872-0.401c-0.354,0-0.661,0.144-0.917,0.432c-0.258,0.288-0.386,0.661-0.386,1.119
				c0,0.411,0.122,0.745,0.366,1.002c0.243,0.257,0.549,0.385,0.915,0.385c0.364,0,0.663-0.128,0.898-0.385
				C176.055,64.885,176.172,64.529,176.172,64.074z"/>
		</g>
		<path i:knockout="Off" fill="none" stroke="#000000" stroke-width="0.7" d="M184.048,72.591V59.092h13.369v13.499H184.048z"/>
		<g i:knockout="Off">
			<path i:knockout="Off" d="M189.799,64.922c-0.329-0.121-0.573-0.293-0.732-0.517s-0.238-0.491-0.238-0.803
				c0-0.471,0.169-0.867,0.505-1.187c0.337-0.321,0.785-0.481,1.344-0.481c0.563,0,1.014,0.164,1.356,0.492s0.514,0.728,0.514,1.198
				c0,0.301-0.078,0.562-0.234,0.784c-0.157,0.222-0.395,0.394-0.714,0.514c0.396,0.129,0.697,0.337,0.904,0.624
				c0.206,0.288,0.31,0.631,0.31,1.029c0,0.551-0.194,1.015-0.585,1.39s-0.903,0.563-1.54,0.563c-0.636,0-1.149-0.188-1.54-0.565
				c-0.39-0.376-0.585-0.846-0.585-1.409c0-0.419,0.107-0.77,0.321-1.053C189.098,65.217,189.404,65.024,189.799,64.922z
				 M189.375,66.553c0,0.226,0.052,0.444,0.157,0.655c0.104,0.211,0.263,0.374,0.477,0.49s0.442,0.173,0.686,0.173
				c0.383,0,0.697-0.121,0.94-0.364S192,66.955,192,66.58c0-0.38-0.125-0.695-0.376-0.944s-0.57-0.374-0.956-0.374
				c-0.378,0-0.688,0.123-0.93,0.369S189.375,66.185,189.375,66.553z M189.641,63.579c0,0.306,0.097,0.557,0.29,0.751
				c0.192,0.194,0.448,0.291,0.766,0.291c0.309,0,0.56-0.096,0.751-0.289s0.287-0.429,0.287-0.709c0-0.291-0.099-0.536-0.296-0.735
				c-0.197-0.198-0.447-0.298-0.751-0.298c-0.306,0-0.557,0.097-0.753,0.292C189.74,63.076,189.641,63.308,189.641,63.579z"/>
		</g>
		<path i:knockout="Off" fill="none" stroke="#000000" stroke-width="0.7" d="M168.298,95.251V81.752h13.369v13.499H168.298z"/>
		<g i:knockout="Off">
			<path i:knockout="Off" d="M173.294,91.078h-0.797v-5.053c-0.189,0.182-0.438,0.364-0.747,0.546s-0.585,0.319-0.831,0.41v-0.767
				c0.442-0.208,0.829-0.461,1.16-0.758c0.33-0.296,0.564-0.584,0.702-0.863h0.513V91.078z"/>
			<path i:knockout="Off" d="M175.332,89.391l0.797-0.109c0.09,0.443,0.243,0.762,0.458,0.957s0.48,0.293,0.798,0.293
				c0.376,0,0.69-0.129,0.943-0.388c0.252-0.258,0.379-0.579,0.379-0.96c0-0.364-0.118-0.665-0.354-0.901s-0.537-0.354-0.901-0.354
				c-0.149,0-0.334,0.029-0.557,0.088l0.088-0.688c0.053,0.006,0.095,0.009,0.127,0.009c0.338,0,0.642-0.088,0.911-0.264
				c0.271-0.176,0.405-0.448,0.405-0.814c0-0.291-0.099-0.531-0.297-0.722c-0.197-0.19-0.452-0.286-0.765-0.286
				c-0.31,0-0.568,0.097-0.774,0.289c-0.207,0.193-0.34,0.482-0.398,0.867l-0.797-0.141c0.098-0.531,0.318-0.942,0.662-1.234
				c0.346-0.292,0.773-0.438,1.286-0.438c0.354,0,0.679,0.076,0.977,0.227s0.524,0.358,0.683,0.619
				c0.157,0.262,0.236,0.539,0.236,0.833c0,0.279-0.074,0.533-0.225,0.762c-0.148,0.229-0.37,0.411-0.663,0.546
				c0.381,0.088,0.676,0.271,0.886,0.548c0.209,0.277,0.314,0.624,0.314,1.04c0,0.563-0.205,1.041-0.615,1.432
				s-0.929,0.587-1.556,0.587c-0.565,0-1.035-0.167-1.408-0.5C175.597,90.354,175.384,89.921,175.332,89.391z"/>
		</g>
		<path i:knockout="Off" fill="none" stroke="#000000" stroke-width="0.7" d="M184.048,95.251V81.752h13.369v13.499H184.048z"/>
		<g i:knockout="Off">
			<path i:knockout="Off" d="M189.044,91.078h-0.797v-5.053c-0.189,0.182-0.438,0.364-0.747,0.546s-0.585,0.319-0.831,0.41v-0.767
				c0.442-0.208,0.829-0.461,1.16-0.758c0.33-0.296,0.564-0.584,0.702-0.863h0.513V91.078z"/>
			<path i:knockout="Off" d="M195.231,90.313v0.766h-4.266c-0.006-0.191,0.024-0.375,0.093-0.551
				c0.108-0.291,0.282-0.577,0.521-0.858s0.584-0.606,1.033-0.977c0.697-0.583,1.17-1.041,1.418-1.376
				c0.248-0.334,0.372-0.652,0.372-0.953c0-0.313-0.112-0.576-0.335-0.791c-0.225-0.215-0.516-0.322-0.875-0.322
				c-0.381,0-0.685,0.113-0.912,0.34c-0.229,0.227-0.344,0.541-0.347,0.941l-0.813-0.078c0.056-0.605,0.265-1.066,0.628-1.384
				c0.362-0.317,0.85-0.476,1.461-0.476c0.617,0,1.105,0.172,1.465,0.515c0.36,0.343,0.54,0.769,0.54,1.277
				c0,0.258-0.053,0.512-0.157,0.762c-0.105,0.249-0.279,0.512-0.523,0.788c-0.243,0.275-0.648,0.654-1.215,1.136
				c-0.476,0.399-0.78,0.67-0.914,0.812s-0.244,0.286-0.332,0.429H195.231z"/>
		</g>
		<path i:knockout="Off" fill="none" stroke="#000000" stroke-width="0.7" d="M168.298,142.527v-13.5h13.369v13.5H168.298z"/>
		<g i:knockout="Off">
			<path i:knockout="Off" d="M174.476,137.588v0.766h-4.266c-0.006-0.191,0.024-0.375,0.092-0.551
				c0.108-0.291,0.283-0.577,0.521-0.857c0.24-0.281,0.584-0.607,1.033-0.978c0.698-0.583,1.171-1.041,1.419-1.376
				c0.247-0.334,0.372-0.652,0.372-0.953c0-0.313-0.112-0.576-0.336-0.791s-0.516-0.322-0.875-0.322c-0.38,0-0.684,0.113-0.912,0.34
				c-0.228,0.227-0.344,0.541-0.346,0.941l-0.813-0.078c0.055-0.605,0.264-1.066,0.627-1.384s0.85-0.476,1.461-0.476
				c0.617,0,1.105,0.172,1.466,0.516c0.359,0.343,0.54,0.769,0.54,1.276c0,0.258-0.053,0.512-0.158,0.762
				c-0.104,0.249-0.279,0.512-0.522,0.788c-0.243,0.275-0.648,0.654-1.215,1.136c-0.476,0.399-0.78,0.67-0.914,0.812
				c-0.134,0.143-0.245,0.286-0.332,0.43H174.476z"/>
			<path i:knockout="Off" d="M175.332,136.666l0.797-0.109c0.09,0.443,0.243,0.762,0.458,0.957s0.48,0.293,0.798,0.293
				c0.376,0,0.69-0.129,0.943-0.388c0.252-0.259,0.379-0.579,0.379-0.96c0-0.365-0.118-0.665-0.354-0.901s-0.537-0.354-0.901-0.354
				c-0.149,0-0.334,0.029-0.557,0.088l0.088-0.688c0.053,0.006,0.095,0.009,0.127,0.009c0.338,0,0.642-0.088,0.911-0.265
				c0.271-0.176,0.405-0.447,0.405-0.814c0-0.29-0.099-0.531-0.297-0.722c-0.197-0.19-0.452-0.286-0.765-0.286
				c-0.31,0-0.568,0.097-0.774,0.289c-0.207,0.193-0.34,0.482-0.398,0.867l-0.797-0.141c0.098-0.531,0.318-0.942,0.662-1.234
				c0.346-0.291,0.773-0.438,1.286-0.438c0.354,0,0.679,0.076,0.977,0.227c0.298,0.152,0.524,0.358,0.683,0.619
				c0.157,0.262,0.236,0.539,0.236,0.833c0,0.278-0.074,0.533-0.225,0.762c-0.148,0.229-0.37,0.411-0.663,0.546
				c0.381,0.089,0.676,0.271,0.886,0.549c0.209,0.276,0.314,0.623,0.314,1.039c0,0.563-0.205,1.041-0.615,1.433
				s-0.929,0.587-1.556,0.587c-0.565,0-1.035-0.167-1.408-0.5C175.597,137.629,175.384,137.197,175.332,136.666z"/>
		</g>
		<path i:knockout="Off" fill="none" stroke="#000000" stroke-width="0.7" d="M168.298,210.111v-13.498h13.369v13.498H168.298z"/>
		<g i:knockout="Off">
			<path i:knockout="Off" d="M170.326,204.252l0.797-0.109c0.091,0.443,0.243,0.762,0.458,0.957s0.481,0.293,0.799,0.293
				c0.376,0,0.689-0.129,0.942-0.388s0.379-0.579,0.379-0.96c0-0.365-0.117-0.665-0.354-0.901s-0.537-0.354-0.902-0.354
				c-0.148,0-0.334,0.029-0.556,0.088l0.087-0.688c0.053,0.006,0.096,0.009,0.128,0.009c0.337,0,0.641-0.088,0.911-0.265
				c0.27-0.176,0.404-0.447,0.404-0.814c0-0.29-0.099-0.531-0.296-0.722c-0.198-0.19-0.453-0.286-0.766-0.286
				c-0.31,0-0.567,0.097-0.774,0.289c-0.206,0.193-0.339,0.482-0.398,0.867l-0.797-0.141c0.098-0.531,0.318-0.942,0.663-1.234
				c0.345-0.291,0.773-0.438,1.286-0.438c0.354,0,0.679,0.076,0.977,0.227c0.297,0.152,0.524,0.358,0.682,0.619
				c0.158,0.262,0.236,0.539,0.236,0.833c0,0.278-0.074,0.533-0.224,0.762c-0.149,0.229-0.37,0.411-0.663,0.546
				c0.381,0.089,0.676,0.271,0.885,0.549c0.21,0.276,0.314,0.623,0.314,1.039c0,0.563-0.205,1.041-0.615,1.433
				s-0.928,0.587-1.555,0.587c-0.566,0-1.035-0.167-1.409-0.5C170.592,205.215,170.378,204.783,170.326,204.252z"/>
			<path i:knockout="Off" d="M175.332,204.252l0.797-0.109c0.09,0.443,0.243,0.762,0.458,0.957s0.48,0.293,0.798,0.293
				c0.376,0,0.69-0.129,0.943-0.388c0.252-0.259,0.379-0.579,0.379-0.96c0-0.365-0.118-0.665-0.354-0.901s-0.537-0.354-0.901-0.354
				c-0.149,0-0.334,0.029-0.557,0.088l0.088-0.688c0.053,0.006,0.095,0.009,0.127,0.009c0.338,0,0.642-0.088,0.911-0.265
				c0.271-0.176,0.405-0.447,0.405-0.814c0-0.29-0.099-0.531-0.297-0.722c-0.197-0.19-0.452-0.286-0.765-0.286
				c-0.31,0-0.568,0.097-0.774,0.289c-0.207,0.193-0.34,0.482-0.398,0.867l-0.797-0.141c0.098-0.531,0.318-0.942,0.662-1.234
				c0.346-0.291,0.773-0.438,1.286-0.438c0.354,0,0.679,0.076,0.977,0.227c0.298,0.152,0.524,0.358,0.683,0.619
				c0.157,0.262,0.236,0.539,0.236,0.833c0,0.278-0.074,0.533-0.225,0.762c-0.148,0.229-0.37,0.411-0.663,0.546
				c0.381,0.089,0.676,0.271,0.886,0.549c0.209,0.276,0.314,0.623,0.314,1.039c0,0.563-0.205,1.041-0.615,1.433
				s-0.929,0.587-1.556,0.587c-0.565,0-1.035-0.167-1.408-0.5C175.597,205.215,175.384,204.783,175.332,204.252z"/>
		</g>
		<path i:knockout="Off" fill="none" stroke="#000000" stroke-width="0.7" d="M168.298,187.053v-13.5h13.369v13.5H168.298z"/>
		<g i:knockout="Off">
			<path i:knockout="Off" d="M170.326,181.191l0.797-0.109c0.091,0.443,0.243,0.762,0.458,0.957s0.481,0.293,0.799,0.293
				c0.376,0,0.689-0.129,0.942-0.388s0.379-0.579,0.379-0.96c0-0.365-0.117-0.665-0.354-0.901s-0.537-0.354-0.902-0.354
				c-0.148,0-0.334,0.029-0.556,0.088l0.087-0.688c0.053,0.006,0.096,0.009,0.128,0.009c0.337,0,0.641-0.088,0.911-0.265
				c0.27-0.176,0.404-0.447,0.404-0.814c0-0.29-0.099-0.531-0.296-0.722c-0.198-0.19-0.453-0.286-0.766-0.286
				c-0.31,0-0.567,0.097-0.774,0.289c-0.206,0.193-0.339,0.482-0.398,0.867l-0.797-0.141c0.098-0.531,0.318-0.942,0.663-1.234
				c0.345-0.291,0.773-0.438,1.286-0.438c0.354,0,0.679,0.076,0.977,0.227c0.297,0.152,0.524,0.358,0.682,0.619
				c0.158,0.262,0.236,0.539,0.236,0.833c0,0.278-0.074,0.533-0.224,0.762c-0.149,0.229-0.37,0.411-0.663,0.546
				c0.381,0.089,0.676,0.271,0.885,0.549c0.21,0.276,0.314,0.623,0.314,1.039c0,0.563-0.205,1.041-0.615,1.433
				s-0.928,0.587-1.555,0.587c-0.566,0-1.035-0.167-1.409-0.5C170.592,182.154,170.378,181.723,170.326,181.191z"/>
			<path i:knockout="Off" d="M178.3,182.879h-0.797v-5.053c-0.189,0.182-0.439,0.364-0.748,0.547
				c-0.308,0.182-0.585,0.318-0.83,0.409v-0.767c0.441-0.209,0.828-0.461,1.159-0.758s0.564-0.584,0.702-0.863h0.514V182.879z"/>
		</g>
		<path i:knockout="Off" fill="none" stroke="#000000" stroke-width="0.7" d="M184.048,142.527v-13.5h13.369v13.5H184.048z"/>
		<g i:knockout="Off">
			<path i:knockout="Off" d="M190.226,137.588v0.766h-4.266c-0.006-0.191,0.024-0.375,0.092-0.551
				c0.108-0.291,0.283-0.577,0.521-0.857c0.24-0.281,0.584-0.607,1.033-0.978c0.698-0.583,1.171-1.041,1.419-1.376
				c0.247-0.334,0.372-0.652,0.372-0.953c0-0.313-0.112-0.576-0.336-0.791s-0.516-0.322-0.875-0.322c-0.38,0-0.684,0.113-0.912,0.34
				c-0.228,0.227-0.344,0.541-0.346,0.941l-0.813-0.078c0.055-0.605,0.264-1.066,0.627-1.384s0.85-0.476,1.461-0.476
				c0.617,0,1.105,0.172,1.466,0.516c0.359,0.343,0.54,0.769,0.54,1.276c0,0.258-0.053,0.512-0.158,0.762
				c-0.104,0.249-0.279,0.512-0.522,0.788c-0.243,0.275-0.648,0.654-1.215,1.136c-0.476,0.399-0.78,0.67-0.914,0.812
				c-0.134,0.143-0.245,0.286-0.332,0.43H190.226z"/>
			<path i:knockout="Off" d="M195.231,137.588v0.766h-4.266c-0.006-0.191,0.024-0.375,0.093-0.551
				c0.108-0.291,0.282-0.577,0.521-0.857c0.239-0.281,0.584-0.607,1.033-0.978c0.697-0.583,1.17-1.041,1.418-1.376
				c0.248-0.334,0.372-0.652,0.372-0.953c0-0.313-0.112-0.576-0.335-0.791c-0.225-0.215-0.516-0.322-0.875-0.322
				c-0.381,0-0.685,0.113-0.912,0.34c-0.229,0.227-0.344,0.541-0.347,0.941l-0.813-0.078c0.056-0.605,0.265-1.066,0.628-1.384
				c0.362-0.317,0.85-0.476,1.461-0.476c0.617,0,1.105,0.172,1.465,0.516c0.36,0.343,0.54,0.769,0.54,1.276
				c0,0.258-0.053,0.512-0.157,0.762c-0.105,0.249-0.279,0.512-0.523,0.788c-0.243,0.275-0.648,0.654-1.215,1.136
				c-0.476,0.399-0.78,0.67-0.914,0.812c-0.134,0.143-0.244,0.286-0.332,0.43H195.231z"/>
		</g>
		<path i:knockout="Off" fill="none" stroke="#000000" stroke-width="0.7" d="M168.298,165.045v-13.498h13.369v13.498H168.298z"/>
		<g i:knockout="Off">
			<path i:knockout="Off" d="M174.476,160.107v0.766h-4.266c-0.006-0.191,0.024-0.375,0.092-0.551
				c0.108-0.291,0.283-0.577,0.521-0.857c0.24-0.281,0.584-0.607,1.033-0.978c0.698-0.583,1.171-1.041,1.419-1.376
				c0.247-0.334,0.372-0.652,0.372-0.953c0-0.313-0.112-0.576-0.336-0.791s-0.516-0.322-0.875-0.322c-0.38,0-0.684,0.113-0.912,0.34
				c-0.228,0.227-0.344,0.541-0.346,0.941l-0.813-0.078c0.055-0.605,0.264-1.066,0.627-1.384s0.85-0.476,1.461-0.476
				c0.617,0,1.105,0.172,1.466,0.516c0.359,0.343,0.54,0.769,0.54,1.276c0,0.258-0.053,0.512-0.158,0.762
				c-0.104,0.249-0.279,0.512-0.522,0.788c-0.243,0.275-0.648,0.654-1.215,1.136c-0.476,0.399-0.78,0.67-0.914,0.812
				c-0.134,0.143-0.245,0.286-0.332,0.43H174.476z"/>
			<path i:knockout="Off" d="M175.378,155.264v-0.766h4.172v0.619c-0.41,0.438-0.815,1.02-1.218,1.745
				c-0.402,0.725-0.713,1.47-0.933,2.236c-0.158,0.54-0.259,1.132-0.303,1.774h-0.813c0.009-0.508,0.108-1.121,0.298-1.84
				c0.19-0.72,0.463-1.413,0.818-2.081s0.733-1.23,1.134-1.688H175.378z"/>
		</g>
		<path i:knockout="Off" fill="none" stroke="#000000" stroke-width="0.7" d="M184.048,165.045v-13.498h13.369v13.498H184.048z"/>
		<g i:knockout="Off">
			<path i:knockout="Off" d="M190.226,160.107v0.766h-4.266c-0.006-0.191,0.024-0.375,0.092-0.551
				c0.108-0.291,0.283-0.577,0.521-0.857c0.24-0.281,0.584-0.607,1.033-0.978c0.698-0.583,1.171-1.041,1.419-1.376
				c0.247-0.334,0.372-0.652,0.372-0.953c0-0.313-0.112-0.576-0.336-0.791s-0.516-0.322-0.875-0.322c-0.38,0-0.684,0.113-0.912,0.34
				c-0.228,0.227-0.344,0.541-0.346,0.941l-0.813-0.078c0.055-0.605,0.264-1.066,0.627-1.384s0.85-0.476,1.461-0.476
				c0.617,0,1.105,0.172,1.466,0.516c0.359,0.343,0.54,0.769,0.54,1.276c0,0.258-0.053,0.512-0.158,0.762
				c-0.104,0.249-0.279,0.512-0.522,0.788c-0.243,0.275-0.648,0.654-1.215,1.136c-0.476,0.399-0.78,0.67-0.914,0.812
				c-0.134,0.143-0.245,0.286-0.332,0.43H190.226z"/>
			<path i:knockout="Off" d="M195.191,155.998l-0.781,0.063c-0.07-0.311-0.171-0.536-0.301-0.677
				c-0.215-0.226-0.479-0.339-0.794-0.339c-0.253,0-0.478,0.07-0.675,0.211c-0.245,0.182-0.439,0.447-0.584,0.797
				c-0.144,0.349-0.219,0.846-0.225,1.49c0.19-0.291,0.424-0.506,0.699-0.646s0.564-0.211,0.866-0.211
				c0.527,0,0.977,0.194,1.347,0.584c0.371,0.389,0.557,0.891,0.557,1.508c0,0.404-0.087,0.781-0.262,1.129
				c-0.174,0.348-0.413,0.614-0.718,0.799c-0.304,0.185-0.649,0.277-1.036,0.277c-0.658,0-1.195-0.243-1.611-0.729
				c-0.415-0.486-0.623-1.287-0.623-2.403c0-1.248,0.23-2.155,0.69-2.722c0.401-0.493,0.941-0.74,1.622-0.74
				c0.506,0,0.922,0.143,1.246,0.428C194.932,155.102,195.126,155.496,195.191,155.998z M191.957,158.78
				c0,0.272,0.058,0.533,0.174,0.782c0.115,0.248,0.275,0.438,0.48,0.568s0.424,0.195,0.657,0.195c0.339,0,0.626-0.135,0.864-0.404
				c0.236-0.269,0.355-0.635,0.355-1.098c0-0.444-0.117-0.795-0.352-1.051c-0.234-0.257-0.534-0.385-0.898-0.385
				c-0.357,0-0.66,0.128-0.908,0.385C192.081,158.029,191.957,158.365,191.957,158.78z"/>
		</g>
		<path i:knockout="Off" fill="none" stroke="#000000" stroke-width="0.7" d="M184.048,110.942V97.443h13.369v13.499H184.048z"/>
		<g i:knockout="Off">
			<path i:knockout="Off" d="M189.044,106.77h-0.797v-5.053c-0.189,0.182-0.438,0.364-0.747,0.546s-0.585,0.319-0.831,0.41v-0.767
				c0.442-0.208,0.829-0.461,1.16-0.758c0.33-0.296,0.564-0.584,0.702-0.863h0.513V106.77z"/>
			<path i:knockout="Off" d="M195.191,101.895l-0.781,0.063c-0.07-0.311-0.171-0.536-0.301-0.677
				c-0.215-0.226-0.479-0.339-0.794-0.339c-0.253,0-0.478,0.07-0.675,0.211c-0.245,0.182-0.439,0.447-0.584,0.796
				c-0.144,0.349-0.219,0.846-0.225,1.49c0.19-0.29,0.424-0.505,0.699-0.646s0.564-0.211,0.866-0.211
				c0.527,0,0.977,0.194,1.347,0.583c0.371,0.389,0.557,0.892,0.557,1.508c0,0.405-0.087,0.782-0.262,1.129
				c-0.174,0.348-0.413,0.614-0.718,0.799c-0.304,0.185-0.649,0.277-1.036,0.277c-0.658,0-1.195-0.243-1.611-0.729
				c-0.415-0.486-0.623-1.287-0.623-2.403c0-1.248,0.23-2.155,0.69-2.722c0.401-0.493,0.941-0.74,1.622-0.74
				c0.506,0,0.922,0.143,1.246,0.428C194.932,100.998,195.126,101.392,195.191,101.895z M191.957,104.677
				c0,0.272,0.058,0.533,0.174,0.782c0.115,0.249,0.275,0.438,0.48,0.568s0.424,0.195,0.657,0.195c0.339,0,0.626-0.135,0.864-0.404
				c0.236-0.269,0.355-0.635,0.355-1.098c0-0.444-0.117-0.795-0.352-1.051s-0.534-0.384-0.898-0.384
				c-0.357,0-0.66,0.128-0.908,0.384C192.081,103.926,191.957,104.262,191.957,104.677z"/>
		</g>
		<path i:knockout="Off" fill="none" stroke="#000000" stroke-width="0.7" d="M184.048,126.734v-13.499h13.369v13.499H184.048z"/>
		<g i:knockout="Off">
			<path i:knockout="Off" d="M189.044,122.561h-0.797v-5.053c-0.189,0.182-0.438,0.364-0.747,0.546s-0.585,0.319-0.831,0.41v-0.767
				c0.442-0.208,0.829-0.461,1.16-0.758c0.33-0.296,0.564-0.584,0.702-0.863h0.513V122.561z"/>
			<path i:knockout="Off" d="M192.302,119.064c-0.33-0.121-0.574-0.293-0.732-0.517c-0.159-0.224-0.238-0.491-0.238-0.803
				c0-0.471,0.168-0.867,0.505-1.187c0.337-0.321,0.784-0.481,1.344-0.481c0.562,0,1.014,0.164,1.356,0.492
				c0.342,0.328,0.514,0.728,0.514,1.198c0,0.301-0.078,0.562-0.234,0.784c-0.157,0.222-0.395,0.394-0.714,0.514
				c0.396,0.129,0.697,0.337,0.903,0.624c0.207,0.288,0.311,0.631,0.311,1.029c0,0.551-0.195,1.015-0.585,1.39
				c-0.391,0.375-0.903,0.563-1.54,0.563s-1.149-0.188-1.54-0.565c-0.39-0.376-0.585-0.846-0.585-1.409
				c0-0.419,0.107-0.77,0.321-1.053C191.601,119.36,191.906,119.167,192.302,119.064z M191.878,120.696
				c0,0.226,0.052,0.444,0.156,0.655s0.264,0.374,0.478,0.49s0.442,0.173,0.686,0.173c0.383,0,0.696-0.121,0.94-0.364
				c0.243-0.243,0.365-0.552,0.365-0.927c0-0.38-0.125-0.695-0.377-0.944c-0.25-0.249-0.569-0.374-0.955-0.374
				c-0.378,0-0.688,0.123-0.93,0.369S191.878,120.327,191.878,120.696z M192.144,117.722c0,0.306,0.097,0.557,0.289,0.751
				c0.193,0.194,0.449,0.291,0.767,0.291c0.309,0,0.56-0.096,0.751-0.289s0.287-0.429,0.287-0.709c0-0.291-0.099-0.536-0.296-0.735
				c-0.198-0.198-0.448-0.298-0.751-0.298c-0.307,0-0.557,0.097-0.753,0.292S192.144,117.451,192.144,117.722z"/>
		</g>
		<path i:knockout="Off" fill="none" stroke="#000000" stroke-width="0.7" d="M142.115,109.234H128.73"/>
		<path i:knockout="Off" fill="none" stroke="#000000" stroke-width="0.7" d="M128.541,126.553v-13.5h13.371v13.5H128.541z"/>
		<g i:knockout="Off">
			<path i:knockout="Off" d="M133.537,121.871h-0.797v-5.053c-0.189,0.182-0.438,0.364-0.747,0.546s-0.585,0.319-0.831,0.41v-0.767
				c0.442-0.208,0.829-0.461,1.16-0.758c0.33-0.296,0.564-0.584,0.702-0.863h0.513V121.871z"/>
			<path i:knockout="Off" d="M135.683,120.387l0.766-0.063c0.064,0.351,0.186,0.605,0.366,0.763
				c0.181,0.158,0.411,0.237,0.693,0.237c0.241,0,0.454-0.056,0.639-0.167c0.185-0.111,0.333-0.259,0.446-0.445
				c0.114-0.186,0.21-0.437,0.289-0.752c0.078-0.316,0.117-0.638,0.117-0.966c0-0.035-0.001-0.088-0.004-0.158
				c-0.157,0.252-0.372,0.457-0.644,0.613c-0.272,0.157-0.567,0.235-0.884,0.235c-0.53,0-0.979-0.194-1.345-0.582
				c-0.366-0.388-0.55-0.898-0.55-1.533c0-0.655,0.191-1.183,0.575-1.582s0.864-0.6,1.442-0.6c0.417,0,0.799,0.113,1.145,0.339
				c0.346,0.227,0.607,0.549,0.787,0.967c0.18,0.419,0.27,1.024,0.27,1.817c0,0.825-0.09,1.482-0.268,1.971
				c-0.179,0.489-0.443,0.861-0.796,1.117c-0.353,0.255-0.766,0.383-1.239,0.383c-0.503,0-0.914-0.139-1.232-0.418
				S135.748,120.892,135.683,120.387z M138.917,117.527c0-0.455-0.119-0.816-0.357-1.083c-0.237-0.267-0.527-0.401-0.871-0.401
				c-0.355,0-0.661,0.144-0.918,0.432c-0.257,0.288-0.385,0.661-0.385,1.119c0,0.411,0.122,0.745,0.365,1.002
				c0.244,0.257,0.549,0.385,0.916,0.385c0.364,0,0.663-0.128,0.898-0.385C138.8,118.338,138.917,117.982,138.917,117.527z"/>
		</g>
		<path i:knockout="Off" fill="none" stroke="#000000" stroke-width="0.7" d="M142.115,124.725H128.73"/>
		<path i:knockout="Off" fill="none" stroke="#000000" stroke-width="0.7" d="M122.402,95.435V83.593h11.729v11.842H122.402z"/>
		<g i:knockout="Off">
			<path i:knockout="Off" d="M126.564,91.583h-0.797V86.53c-0.189,0.182-0.438,0.364-0.747,0.546s-0.585,0.319-0.831,0.41V86.72
				c0.442-0.208,0.829-0.461,1.16-0.758c0.33-0.296,0.564-0.584,0.702-0.863h0.513V91.583z"/>
			<path i:knockout="Off" d="M128.601,89.896l0.813-0.063c0.062,0.399,0.203,0.7,0.426,0.901s0.494,0.302,0.817,0.302
				c0.39,0,0.715-0.144,0.976-0.431c0.26-0.287,0.391-0.667,0.391-1.142c0-0.451-0.124-0.807-0.372-1.067
				c-0.247-0.261-0.579-0.391-0.994-0.391c-0.258,0-0.487,0.058-0.688,0.174c-0.201,0.116-0.36,0.267-0.477,0.451l-0.75-0.109
				l0.625-3.313h3.203v0.75h-2.574l-0.348,1.75c0.386-0.271,0.791-0.407,1.217-0.407c0.562,0,1.035,0.195,1.422,0.586
				s0.58,0.893,0.58,1.506c0,0.584-0.17,1.089-0.509,1.515c-0.413,0.523-0.976,0.784-1.69,0.784c-0.585,0-1.063-0.164-1.433-0.492
				S128.654,90.438,128.601,89.896z"/>
		</g>
		<path i:knockout="Off" fill="none" stroke="#000000" stroke-width="0.7" d="M134.308,93.685h-11.74"/>
		<path i:knockout="Off" fill="none" stroke="#000000" stroke-width="0.7" d="M136.142,140.516v-11.842h11.729v11.842H136.142z"/>
		<g i:knockout="Off">
			<path i:knockout="Off" d="M141.486,135.898v0.766h-4.266c-0.006-0.191,0.024-0.375,0.092-0.551
				c0.108-0.291,0.283-0.577,0.521-0.857c0.24-0.281,0.584-0.607,1.033-0.978c0.698-0.583,1.171-1.041,1.419-1.376
				c0.247-0.334,0.372-0.652,0.372-0.953c0-0.313-0.112-0.576-0.336-0.791s-0.516-0.322-0.875-0.322c-0.38,0-0.684,0.113-0.912,0.34
				c-0.228,0.227-0.344,0.541-0.346,0.941l-0.813-0.078c0.055-0.605,0.264-1.066,0.627-1.384c0.363-0.317,0.85-0.476,1.461-0.476
				c0.617,0,1.105,0.172,1.466,0.515c0.359,0.343,0.54,0.769,0.54,1.277c0,0.258-0.053,0.512-0.158,0.762
				c-0.104,0.249-0.279,0.512-0.522,0.788c-0.243,0.275-0.648,0.654-1.215,1.136c-0.476,0.399-0.78,0.67-0.914,0.812
				c-0.134,0.143-0.245,0.286-0.332,0.43H141.486z"/>
			<path i:knockout="Off" d="M142.341,133.479c0-0.764,0.078-1.379,0.234-1.847s0.389-0.827,0.696-1.077s0.696-0.375,1.163-0.375
				c0.345,0,0.648,0.07,0.91,0.209c0.263,0.14,0.478,0.341,0.645,0.604c0.166,0.263,0.298,0.583,0.395,0.961
				c0.096,0.377,0.145,0.886,0.145,1.525c0,0.758-0.077,1.371-0.232,1.839c-0.154,0.468-0.386,0.827-0.694,1.079
				c-0.308,0.252-0.696,0.377-1.167,0.377c-0.619,0-1.105-0.221-1.459-0.662C142.553,135.569,142.341,134.691,142.341,133.479z
				 M143.154,133.477c0,1.064,0.123,1.771,0.369,2.119c0.246,0.348,0.551,0.521,0.912,0.521s0.665-0.175,0.912-0.524
				c0.246-0.349,0.369-1.055,0.369-2.116c0-1.063-0.123-1.768-0.367-2.117c-0.246-0.349-0.553-0.523-0.923-0.523
				c-0.361,0-0.651,0.154-0.87,0.462C143.289,131.691,143.154,132.418,143.154,133.477z"/>
		</g>
		<path i:knockout="Off" fill="none" stroke="#000000" stroke-width="0.7" d="M148.048,138.766h-11.74"/>
		<path i:knockout="Off" fill="none" stroke="#000000" stroke-width="0.7" d="M122.402,140.516v-11.842h11.729v11.842H122.402z"/>
		<g i:knockout="Off">
			<path i:knockout="Off" d="M127.746,135.898v0.766h-4.266c-0.006-0.191,0.024-0.375,0.092-0.551
				c0.108-0.291,0.283-0.577,0.521-0.857c0.24-0.281,0.584-0.607,1.033-0.978c0.698-0.583,1.171-1.041,1.419-1.376
				c0.247-0.334,0.372-0.652,0.372-0.953c0-0.313-0.112-0.576-0.336-0.791s-0.516-0.322-0.875-0.322c-0.38,0-0.684,0.113-0.912,0.34
				c-0.228,0.227-0.344,0.541-0.346,0.941l-0.813-0.078c0.055-0.605,0.264-1.066,0.627-1.384c0.363-0.317,0.85-0.476,1.461-0.476
				c0.617,0,1.105,0.172,1.466,0.515c0.359,0.343,0.54,0.769,0.54,1.277c0,0.258-0.053,0.512-0.158,0.762
				c-0.104,0.249-0.279,0.512-0.522,0.788c-0.243,0.275-0.648,0.654-1.215,1.136c-0.476,0.399-0.78,0.67-0.914,0.812
				c-0.134,0.143-0.245,0.286-0.332,0.43H127.746z"/>
			<path i:knockout="Off" d="M131.57,136.664h-0.797v-5.053c-0.189,0.182-0.439,0.364-0.748,0.547
				c-0.308,0.182-0.585,0.318-0.83,0.409v-0.767c0.441-0.209,0.828-0.461,1.159-0.758c0.331-0.296,0.564-0.584,0.702-0.863h0.514
				V136.664z"/>
		</g>
		<path i:knockout="Off" fill="none" stroke="#000000" stroke-width="0.7" d="M134.308,138.766h-11.74"/>
		<path i:knockout="Off" fill="none" stroke="#000000" stroke-width="0.7" d="M136.142,154.391v-11.842h11.729v11.842H136.142z"/>
		<g i:knockout="Off">
			<path i:knockout="Off" d="M141.486,149.773v0.766h-4.266c-0.006-0.191,0.024-0.375,0.092-0.551
				c0.108-0.291,0.283-0.577,0.521-0.857c0.24-0.281,0.584-0.607,1.033-0.978c0.698-0.583,1.171-1.041,1.419-1.376
				c0.247-0.334,0.372-0.652,0.372-0.953c0-0.313-0.112-0.576-0.336-0.791s-0.516-0.322-0.875-0.322c-0.38,0-0.684,0.113-0.912,0.34
				c-0.228,0.227-0.344,0.541-0.346,0.941l-0.813-0.078c0.055-0.605,0.264-1.066,0.627-1.384s0.85-0.476,1.461-0.476
				c0.617,0,1.105,0.172,1.466,0.516c0.359,0.343,0.54,0.769,0.54,1.276c0,0.258-0.053,0.512-0.158,0.762
				c-0.104,0.249-0.279,0.512-0.522,0.788c-0.243,0.275-0.648,0.654-1.215,1.136c-0.476,0.399-0.78,0.67-0.914,0.812
				c-0.134,0.143-0.245,0.286-0.332,0.43H141.486z"/>
			<path i:knockout="Off" d="M144.857,150.539v-1.547h-2.781v-0.719l2.938-4.172h0.641v4.172h0.875v0.719h-0.875v1.547H144.857z
				 M144.857,148.273v-2.872l-2.004,2.872H144.857z"/>
		</g>
		<path i:knockout="Off" fill="none" stroke="#000000" stroke-width="0.7" d="M148.048,152.641h-11.74"/>
		<path i:knockout="Off" fill="none" stroke="#000000" stroke-width="0.7" d="M122.402,154.391v-11.842h11.729v11.842H122.402z"/>
		<g i:knockout="Off">
			<path i:knockout="Off" d="M127.746,149.773v0.766h-4.266c-0.006-0.191,0.024-0.375,0.092-0.551
				c0.108-0.291,0.283-0.577,0.521-0.857c0.24-0.281,0.584-0.607,1.033-0.978c0.698-0.583,1.171-1.041,1.419-1.376
				c0.247-0.334,0.372-0.652,0.372-0.953c0-0.313-0.112-0.576-0.336-0.791s-0.516-0.322-0.875-0.322c-0.38,0-0.684,0.113-0.912,0.34
				c-0.228,0.227-0.344,0.541-0.346,0.941l-0.813-0.078c0.055-0.605,0.264-1.066,0.627-1.384s0.85-0.476,1.461-0.476
				c0.617,0,1.105,0.172,1.466,0.516c0.359,0.343,0.54,0.769,0.54,1.276c0,0.258-0.053,0.512-0.158,0.762
				c-0.104,0.249-0.279,0.512-0.522,0.788c-0.243,0.275-0.648,0.654-1.215,1.136c-0.476,0.399-0.78,0.67-0.914,0.812
				c-0.134,0.143-0.245,0.286-0.332,0.43H127.746z"/>
			<path i:knockout="Off" d="M128.601,148.852l0.813-0.063c0.062,0.399,0.203,0.7,0.426,0.901s0.494,0.302,0.817,0.302
				c0.39,0,0.715-0.144,0.976-0.431c0.26-0.287,0.391-0.667,0.391-1.142c0-0.451-0.124-0.807-0.372-1.068
				c-0.247-0.26-0.579-0.391-0.994-0.391c-0.258,0-0.487,0.059-0.688,0.174c-0.201,0.116-0.36,0.267-0.477,0.451l-0.75-0.109
				l0.625-3.313h3.203v0.75h-2.574l-0.348,1.75c0.386-0.271,0.791-0.406,1.217-0.406c0.562,0,1.035,0.195,1.422,0.586
				s0.58,0.893,0.58,1.506c0,0.584-0.17,1.09-0.509,1.515c-0.413,0.522-0.976,0.784-1.69,0.784c-0.585,0-1.063-0.164-1.433-0.492
				S128.654,149.394,128.601,148.852z"/>
		</g>
		<path i:knockout="Off" fill="none" stroke="#000000" stroke-width="0.7" d="M134.308,152.641h-11.74"/>
		<path i:knockout="Off" fill="none" stroke="#000000" stroke-width="0.7" d="M136.142,168.434v-11.842h11.729v11.842H136.142z"/>
		<g i:knockout="Off">
			<path i:knockout="Off" d="M141.486,163.816v0.766h-4.266c-0.006-0.191,0.024-0.375,0.092-0.551
				c0.108-0.291,0.283-0.577,0.521-0.857c0.24-0.281,0.584-0.607,1.033-0.978c0.698-0.583,1.171-1.041,1.419-1.376
				c0.247-0.334,0.372-0.652,0.372-0.953c0-0.313-0.112-0.576-0.336-0.791s-0.516-0.322-0.875-0.322c-0.38,0-0.684,0.113-0.912,0.34
				c-0.228,0.227-0.344,0.541-0.346,0.941l-0.813-0.078c0.055-0.605,0.264-1.066,0.627-1.384s0.85-0.476,1.461-0.476
				c0.617,0,1.105,0.172,1.466,0.516c0.359,0.343,0.54,0.769,0.54,1.276c0,0.258-0.053,0.512-0.158,0.762
				c-0.104,0.249-0.279,0.512-0.522,0.788c-0.243,0.275-0.648,0.654-1.215,1.136c-0.476,0.399-0.78,0.67-0.914,0.812
				c-0.134,0.143-0.245,0.286-0.332,0.43H141.486z"/>
			<path i:knockout="Off" d="M143.562,161.086c-0.33-0.121-0.574-0.293-0.732-0.517c-0.159-0.224-0.238-0.491-0.238-0.804
				c0-0.471,0.168-0.866,0.505-1.187c0.337-0.321,0.784-0.481,1.344-0.481c0.562,0,1.014,0.164,1.356,0.492
				c0.342,0.328,0.514,0.728,0.514,1.198c0,0.301-0.078,0.562-0.234,0.784c-0.157,0.222-0.395,0.393-0.714,0.514
				c0.396,0.129,0.697,0.337,0.903,0.624c0.207,0.288,0.311,0.631,0.311,1.029c0,0.552-0.195,1.015-0.585,1.39
				c-0.391,0.375-0.903,0.563-1.54,0.563s-1.149-0.188-1.54-0.564c-0.39-0.377-0.585-0.847-0.585-1.41
				c0-0.419,0.107-0.77,0.321-1.053S143.166,161.188,143.562,161.086z M143.138,162.717c0,0.227,0.052,0.444,0.156,0.655
				s0.264,0.374,0.478,0.489c0.214,0.116,0.442,0.174,0.686,0.174c0.383,0,0.696-0.121,0.94-0.364
				c0.243-0.243,0.365-0.552,0.365-0.927c0-0.381-0.125-0.695-0.377-0.945c-0.25-0.248-0.569-0.373-0.955-0.373
				c-0.378,0-0.688,0.123-0.93,0.369S143.138,162.349,143.138,162.717z M143.404,159.743c0,0.306,0.097,0.557,0.289,0.751
				c0.193,0.194,0.449,0.291,0.767,0.291c0.309,0,0.56-0.096,0.751-0.289s0.287-0.43,0.287-0.709c0-0.291-0.099-0.536-0.296-0.735
				c-0.198-0.198-0.448-0.298-0.751-0.298c-0.307,0-0.557,0.098-0.753,0.291C143.501,159.24,143.404,159.473,143.404,159.743z"/>
		</g>
		<path i:knockout="Off" fill="none" stroke="#000000" stroke-width="0.7" d="M148.048,166.684h-11.74"/>
		<path i:knockout="Off" fill="none" stroke="#000000" stroke-width="0.7" d="M136.142,182.42v-11.842h11.729v11.842H136.142z"/>
		<g i:knockout="Off">
			<path i:knockout="Off" d="M137.335,176.881l0.797-0.109c0.091,0.443,0.243,0.762,0.458,0.957s0.481,0.293,0.799,0.293
				c0.376,0,0.689-0.129,0.942-0.388s0.379-0.579,0.379-0.96c0-0.365-0.117-0.665-0.354-0.901s-0.537-0.354-0.902-0.354
				c-0.148,0-0.334,0.029-0.556,0.088l0.087-0.688c0.053,0.006,0.096,0.009,0.128,0.009c0.337,0,0.641-0.088,0.911-0.265
				c0.27-0.176,0.404-0.447,0.404-0.814c0-0.29-0.099-0.531-0.296-0.722c-0.198-0.19-0.453-0.286-0.766-0.286
				c-0.31,0-0.567,0.097-0.774,0.289c-0.206,0.193-0.339,0.482-0.398,0.867l-0.797-0.141c0.098-0.531,0.318-0.942,0.663-1.234
				c0.345-0.291,0.773-0.438,1.286-0.438c0.354,0,0.679,0.076,0.977,0.227c0.297,0.152,0.524,0.358,0.682,0.619
				c0.158,0.262,0.236,0.539,0.236,0.833c0,0.278-0.074,0.533-0.224,0.762c-0.149,0.229-0.37,0.411-0.663,0.546
				c0.381,0.089,0.676,0.271,0.885,0.549c0.21,0.276,0.314,0.623,0.314,1.039c0,0.563-0.205,1.041-0.615,1.433
				s-0.928,0.587-1.555,0.587c-0.566,0-1.035-0.167-1.409-0.5C137.602,177.844,137.388,177.412,137.335,176.881z"/>
			<path i:knockout="Off" d="M142.341,175.383c0-0.764,0.078-1.379,0.234-1.847s0.389-0.827,0.696-1.077s0.696-0.375,1.163-0.375
				c0.345,0,0.648,0.07,0.91,0.209c0.263,0.14,0.478,0.341,0.645,0.604c0.166,0.263,0.298,0.583,0.395,0.961
				c0.096,0.377,0.145,0.886,0.145,1.525c0,0.758-0.077,1.371-0.232,1.839c-0.154,0.468-0.386,0.827-0.694,1.079
				c-0.308,0.252-0.696,0.377-1.167,0.377c-0.619,0-1.105-0.221-1.459-0.662C142.553,177.474,142.341,176.596,142.341,175.383z
				 M143.154,175.381c0,1.064,0.123,1.771,0.369,2.119c0.246,0.348,0.551,0.521,0.912,0.521s0.665-0.175,0.912-0.524
				c0.246-0.349,0.369-1.055,0.369-2.116c0-1.063-0.123-1.768-0.367-2.117c-0.246-0.349-0.553-0.523-0.923-0.523
				c-0.361,0-0.651,0.154-0.87,0.462C143.289,173.596,143.154,174.322,143.154,175.381z"/>
		</g>
		<path i:knockout="Off" fill="none" stroke="#000000" stroke-width="0.7" d="M148.048,180.67h-11.74"/>
		<path i:knockout="Off" fill="none" stroke="#000000" stroke-width="0.7" d="M136.142,196.184v-11.842h11.729v11.842H136.142z"/>
		<g i:knockout="Off">
			<path i:knockout="Off" d="M137.335,190.645l0.797-0.109c0.091,0.443,0.243,0.762,0.458,0.957s0.481,0.293,0.799,0.293
				c0.376,0,0.689-0.129,0.942-0.388s0.379-0.579,0.379-0.96c0-0.365-0.117-0.665-0.354-0.901s-0.537-0.354-0.902-0.354
				c-0.148,0-0.334,0.029-0.556,0.088l0.087-0.688c0.053,0.006,0.096,0.009,0.128,0.009c0.337,0,0.641-0.088,0.911-0.265
				c0.27-0.176,0.404-0.447,0.404-0.814c0-0.29-0.099-0.531-0.296-0.722c-0.198-0.19-0.453-0.286-0.766-0.286
				c-0.31,0-0.567,0.097-0.774,0.289c-0.206,0.193-0.339,0.482-0.398,0.867l-0.797-0.141c0.098-0.531,0.318-0.942,0.663-1.234
				c0.345-0.291,0.773-0.438,1.286-0.438c0.354,0,0.679,0.076,0.977,0.227c0.297,0.152,0.524,0.358,0.682,0.619
				c0.158,0.262,0.236,0.539,0.236,0.833c0,0.278-0.074,0.533-0.224,0.762c-0.149,0.229-0.37,0.411-0.663,0.546
				c0.381,0.089,0.676,0.271,0.885,0.549c0.21,0.276,0.314,0.623,0.314,1.039c0,0.563-0.205,1.041-0.615,1.433
				s-0.928,0.587-1.555,0.587c-0.566,0-1.035-0.167-1.409-0.5C137.602,191.607,137.388,191.176,137.335,190.645z"/>
			<path i:knockout="Off" d="M146.491,191.566v0.766h-4.266c-0.006-0.191,0.024-0.375,0.093-0.551
				c0.108-0.291,0.282-0.577,0.521-0.857c0.239-0.281,0.584-0.607,1.033-0.978c0.697-0.583,1.17-1.041,1.418-1.376
				c0.248-0.334,0.372-0.652,0.372-0.953c0-0.313-0.112-0.576-0.335-0.791c-0.225-0.215-0.516-0.322-0.875-0.322
				c-0.381,0-0.685,0.113-0.912,0.34c-0.229,0.227-0.344,0.541-0.347,0.941l-0.813-0.078c0.056-0.605,0.265-1.066,0.628-1.384
				c0.362-0.317,0.85-0.476,1.461-0.476c0.617,0,1.105,0.172,1.465,0.516c0.36,0.343,0.54,0.769,0.54,1.276
				c0,0.258-0.053,0.512-0.157,0.762c-0.105,0.249-0.279,0.512-0.523,0.788c-0.243,0.275-0.648,0.654-1.215,1.136
				c-0.476,0.399-0.78,0.67-0.914,0.812c-0.134,0.143-0.244,0.286-0.332,0.43H146.491z"/>
		</g>
		<path i:knockout="Off" fill="none" stroke="#000000" stroke-width="0.7" d="M148.048,194.434h-11.74"/>
		<path i:knockout="Off" fill="none" stroke="#000000" stroke-width="0.7" d="M136.142,210.115v-11.842h11.729v11.842H136.142z"/>
		<g i:knockout="Off">
			<path i:knockout="Off" d="M137.335,204.576l0.797-0.109c0.091,0.443,0.243,0.762,0.458,0.957s0.481,0.293,0.799,0.293
				c0.376,0,0.689-0.129,0.942-0.388s0.379-0.579,0.379-0.96c0-0.365-0.117-0.665-0.354-0.901s-0.537-0.354-0.902-0.354
				c-0.148,0-0.334,0.029-0.556,0.088l0.087-0.688c0.053,0.006,0.096,0.009,0.128,0.009c0.337,0,0.641-0.088,0.911-0.265
				c0.27-0.176,0.404-0.447,0.404-0.814c0-0.29-0.099-0.531-0.296-0.722c-0.198-0.19-0.453-0.286-0.766-0.286
				c-0.31,0-0.567,0.097-0.774,0.289c-0.206,0.193-0.339,0.482-0.398,0.867l-0.797-0.141c0.098-0.531,0.318-0.942,0.663-1.234
				c0.345-0.291,0.773-0.438,1.286-0.438c0.354,0,0.679,0.076,0.977,0.227c0.297,0.152,0.524,0.358,0.682,0.619
				c0.158,0.262,0.236,0.539,0.236,0.833c0,0.278-0.074,0.533-0.224,0.762c-0.149,0.229-0.37,0.411-0.663,0.546
				c0.381,0.089,0.676,0.271,0.885,0.549c0.21,0.276,0.314,0.623,0.314,1.039c0,0.563-0.205,1.041-0.615,1.433
				s-0.928,0.587-1.555,0.587c-0.566,0-1.035-0.167-1.409-0.5C137.602,205.539,137.388,205.107,137.335,204.576z"/>
			<path i:knockout="Off" d="M144.857,206.264v-1.547h-2.781v-0.719l2.938-4.172h0.641v4.172h0.875v0.719h-0.875v1.547H144.857z
				 M144.857,203.998v-2.872l-2.004,2.872H144.857z"/>
		</g>
		<path i:knockout="Off" fill="none" stroke="#000000" stroke-width="0.7" d="M148.048,208.365h-11.74"/>
		<path i:knockout="Off" fill="none" stroke="#000000" stroke-width="0.7" d="M122.402,168.434v-11.842h11.729v11.842H122.402z"/>
		<g i:knockout="Off">
			<path i:knockout="Off" d="M127.746,163.816v0.766h-4.266c-0.006-0.191,0.024-0.375,0.092-0.551
				c0.108-0.291,0.283-0.577,0.521-0.857c0.24-0.281,0.584-0.607,1.033-0.978c0.698-0.583,1.171-1.041,1.419-1.376
				c0.247-0.334,0.372-0.652,0.372-0.953c0-0.313-0.112-0.576-0.336-0.791s-0.516-0.322-0.875-0.322c-0.38,0-0.684,0.113-0.912,0.34
				c-0.228,0.227-0.344,0.541-0.346,0.941l-0.813-0.078c0.055-0.605,0.264-1.066,0.627-1.384s0.85-0.476,1.461-0.476
				c0.617,0,1.105,0.172,1.466,0.516c0.359,0.343,0.54,0.769,0.54,1.276c0,0.258-0.053,0.512-0.158,0.762
				c-0.104,0.249-0.279,0.512-0.522,0.788c-0.243,0.275-0.648,0.654-1.215,1.136c-0.476,0.399-0.78,0.67-0.914,0.812
				c-0.134,0.143-0.245,0.286-0.332,0.43H127.746z"/>
			<path i:knockout="Off" d="M128.71,163.098l0.766-0.063c0.064,0.351,0.186,0.605,0.366,0.763c0.181,0.158,0.411,0.237,0.693,0.237
				c0.241,0,0.454-0.056,0.639-0.167c0.185-0.11,0.333-0.259,0.446-0.444c0.114-0.186,0.21-0.438,0.289-0.753
				c0.078-0.315,0.117-0.638,0.117-0.966c0-0.035-0.001-0.088-0.004-0.158c-0.157,0.252-0.372,0.456-0.644,0.612
				c-0.272,0.157-0.567,0.235-0.884,0.235c-0.53,0-0.979-0.193-1.345-0.582c-0.366-0.388-0.55-0.898-0.55-1.533
				c0-0.655,0.191-1.183,0.575-1.582s0.864-0.6,1.442-0.6c0.417,0,0.799,0.113,1.145,0.339c0.346,0.227,0.607,0.549,0.787,0.967
				c0.18,0.419,0.27,1.024,0.27,1.817c0,0.825-0.09,1.482-0.268,1.971c-0.179,0.489-0.443,0.861-0.796,1.117
				c-0.353,0.255-0.766,0.383-1.239,0.383c-0.503,0-0.914-0.139-1.232-0.418S128.775,163.603,128.71,163.098z M131.945,160.238
				c0-0.455-0.119-0.816-0.357-1.084c-0.237-0.267-0.527-0.4-0.871-0.4c-0.355,0-0.661,0.145-0.918,0.432
				c-0.257,0.288-0.385,0.66-0.385,1.119c0,0.41,0.122,0.744,0.365,1.002c0.244,0.256,0.549,0.385,0.916,0.385
				c0.364,0,0.663-0.129,0.898-0.385C131.828,161.049,131.945,160.693,131.945,160.238z"/>
		</g>
		<path i:knockout="Off" fill="none" stroke="#000000" stroke-width="0.7" d="M134.308,166.684h-11.74"/>
		<path i:knockout="Off" fill="none" stroke="#000000" stroke-width="0.7" d="M168.298,210.111h-20.447"/>
		<path i:knockout="Off" fill="none" stroke="#000000" stroke-width="0.7" d="M168.351,14.357h-20.566"/>
		<path i:knockout="Off" fill="none" stroke="#000000" stroke-width="1.2" d="M120.279,211.984h79.33V12.067h-79.33V211.984z"/>
		<path i:knockout="Off" fill="none" stroke="#000000" stroke-width="1.2" d="M161.095,12.214V0.6h-3.984v11.444"/>
		<path i:knockout="Off" fill="none" stroke="#000000" stroke-width="1.2" d="M75.593,26.208V14.366H63.864v11.841H75.593z"/>
		<g i:knockout="Off">
			<path i:knockout="Off" d="M70.61,22.356h-0.797v-5.053c-0.189,0.182-0.439,0.364-0.747,0.546
				c-0.309,0.182-0.585,0.319-0.831,0.41v-0.767c0.442-0.208,0.829-0.461,1.159-0.758c0.331-0.296,0.565-0.584,0.703-0.863h0.513
				V22.356z"/>
		</g>
		<path i:knockout="Off" fill="none" stroke="#000000" stroke-width="0.7" d="M63.686,24.458h11.741"/>
		<path i:knockout="Off" fill="none" stroke="#000000" stroke-width="1.2" d="M75.593,39.946V28.105H63.864v11.841H75.593z"/>
		<g i:knockout="Off">
			<path i:knockout="Off" d="M67.641,34.408l0.797-0.109c0.091,0.443,0.243,0.762,0.458,0.957s0.481,0.293,0.799,0.293
				c0.375,0,0.689-0.129,0.942-0.388s0.379-0.579,0.379-0.96c0-0.364-0.118-0.665-0.354-0.901s-0.537-0.354-0.901-0.354
				c-0.149,0-0.334,0.029-0.556,0.088l0.087-0.688c0.053,0.006,0.095,0.009,0.127,0.009c0.337,0,0.641-0.088,0.911-0.264
				c0.27-0.176,0.405-0.447,0.405-0.814c0-0.291-0.099-0.531-0.296-0.722c-0.198-0.191-0.453-0.286-0.766-0.286
				c-0.31,0-0.568,0.096-0.774,0.289s-0.339,0.482-0.398,0.867l-0.797-0.141c0.098-0.531,0.318-0.942,0.663-1.234
				s0.773-0.438,1.286-0.438c0.353,0,0.679,0.076,0.976,0.227c0.298,0.151,0.525,0.357,0.683,0.619
				c0.158,0.261,0.236,0.539,0.236,0.832c0,0.279-0.074,0.533-0.224,0.763c-0.149,0.229-0.371,0.411-0.664,0.546
				c0.381,0.088,0.676,0.271,0.886,0.548c0.21,0.277,0.314,0.624,0.314,1.04c0,0.563-0.205,1.04-0.615,1.432
				s-0.929,0.587-1.556,0.587c-0.565,0-1.035-0.167-1.408-0.5C67.907,35.371,67.694,34.938,67.641,34.408z"/>
		</g>
		<path i:knockout="Off" fill="none" stroke="#000000" stroke-width="0.7" d="M63.686,38.196h11.741"/>
		<path i:knockout="Off" fill="none" stroke="#000000" stroke-width="1.2" d="M75.593,53.862V42.021H63.864v11.841H75.593z"/>
		<g i:knockout="Off">
			<path i:knockout="Off" d="M67.641,48.324l0.813-0.063c0.062,0.399,0.204,0.7,0.426,0.901c0.223,0.201,0.495,0.302,0.817,0.302
				c0.39,0,0.715-0.144,0.976-0.431s0.391-0.667,0.391-1.142c0-0.451-0.124-0.807-0.372-1.067s-0.579-0.391-0.994-0.391
				c-0.258,0-0.488,0.058-0.689,0.174c-0.201,0.116-0.36,0.267-0.477,0.451l-0.75-0.109l0.625-3.313h3.203v0.75h-2.574l-0.348,1.75
				c0.386-0.271,0.792-0.407,1.217-0.407c0.562,0,1.036,0.195,1.422,0.586s0.58,0.893,0.58,1.506c0,0.584-0.169,1.089-0.509,1.515
				c-0.413,0.523-0.976,0.784-1.689,0.784c-0.585,0-1.063-0.164-1.433-0.492S67.694,48.866,67.641,48.324z"/>
		</g>
		<path i:knockout="Off" fill="none" stroke="#000000" stroke-width="0.7" d="M63.686,52.112h11.741"/>
		<path i:knockout="Off" fill="none" stroke="#000000" stroke-width="1.2" d="M75.593,67.853V56.011H63.864v11.842H75.593z"/>
		<g i:knockout="Off">
			<path i:knockout="Off" d="M71.75,59.126l-0.781,0.063c-0.07-0.311-0.171-0.536-0.3-0.677c-0.215-0.226-0.48-0.339-0.795-0.339
				c-0.253,0-0.478,0.07-0.674,0.211c-0.245,0.182-0.44,0.447-0.583,0.796c-0.145,0.349-0.22,0.846-0.226,1.49
				c0.19-0.29,0.424-0.505,0.699-0.646s0.564-0.211,0.866-0.211c0.527,0,0.977,0.194,1.348,0.583
				c0.37,0.389,0.556,0.892,0.556,1.508c0,0.405-0.087,0.782-0.261,1.129c-0.175,0.348-0.414,0.614-0.718,0.799
				s-0.65,0.277-1.036,0.277c-0.659,0-1.196-0.243-1.612-0.729s-0.624-1.287-0.624-2.403c0-1.248,0.23-2.155,0.69-2.722
				c0.401-0.493,0.942-0.74,1.622-0.74c0.507,0,0.922,0.143,1.246,0.428C71.492,58.229,71.686,58.624,71.75,59.126z M68.516,61.908
				c0,0.272,0.058,0.533,0.174,0.782c0.115,0.249,0.275,0.438,0.48,0.568s0.424,0.195,0.658,0.195c0.338,0,0.626-0.135,0.864-0.404
				s0.355-0.635,0.355-1.098c0-0.444-0.117-0.795-0.352-1.051s-0.534-0.384-0.898-0.384c-0.357,0-0.66,0.128-0.908,0.384
				S68.516,61.493,68.516,61.908z"/>
		</g>
		<path i:knockout="Off" fill="none" stroke="#000000" stroke-width="0.7" d="M63.686,66.103h11.741"/>
		<path i:knockout="Off" fill="none" stroke="#000000" stroke-width="1.2" d="M89.333,67.853V56.011H77.604v11.842H89.333z"/>
		<g i:knockout="Off">
			<path i:knockout="Off" d="M81.428,58.392v-0.766H85.6v0.62c-0.409,0.438-0.815,1.019-1.218,1.745
				c-0.402,0.725-0.713,1.47-0.933,2.236c-0.158,0.54-0.259,1.132-0.303,1.774h-0.813c0.009-0.508,0.108-1.121,0.298-1.84
				s0.462-1.413,0.818-2.081s0.733-1.23,1.134-1.688H81.428z"/>
		</g>
		<path i:knockout="Off" fill="none" stroke="#000000" stroke-width="0.7" d="M77.426,66.103h11.741"/>
		<path i:knockout="Off" fill="none" stroke="#000000" stroke-width="1.2" d="M75.593,81.694V69.853H63.864v11.842H75.593z"/>
		<g i:knockout="Off">
			<path i:knockout="Off" d="M68.107,77.843h-0.797V72.79c-0.19,0.182-0.439,0.364-0.748,0.546s-0.585,0.319-0.831,0.41v-0.767
				c0.442-0.208,0.829-0.461,1.159-0.758c0.331-0.296,0.565-0.584,0.703-0.863h0.513V77.843z"/>
			<path i:knockout="Off" d="M70.144,74.657c0-0.763,0.078-1.379,0.234-1.847c0.156-0.468,0.388-0.827,0.696-1.077
				s0.696-0.375,1.163-0.375c0.345,0,0.648,0.07,0.911,0.209c0.262,0.14,0.477,0.341,0.644,0.604
				c0.167,0.263,0.298,0.583,0.395,0.96c0.096,0.377,0.145,0.886,0.145,1.526c0,0.758-0.077,1.371-0.232,1.839
				c-0.154,0.468-0.386,0.828-0.694,1.079c-0.308,0.251-0.697,0.377-1.167,0.377c-0.619,0-1.105-0.221-1.458-0.662
				C70.356,76.748,70.144,75.87,70.144,74.657z M70.957,74.655c0,1.064,0.123,1.771,0.369,2.119
				c0.247,0.348,0.551,0.522,0.912,0.522s0.665-0.175,0.912-0.524c0.247-0.349,0.37-1.055,0.37-2.116
				c0-1.062-0.123-1.768-0.368-2.117c-0.245-0.349-0.552-0.523-0.922-0.523c-0.361,0-0.651,0.154-0.87,0.462
				C71.091,72.87,70.957,73.596,70.957,74.655z"/>
		</g>
		<path i:knockout="Off" fill="none" stroke="#000000" stroke-width="0.7" d="M63.686,79.944h11.741"/>
		<path i:knockout="Off" fill="none" stroke="#000000" stroke-width="1.2" d="M89.333,81.694V69.853H77.604v11.842H89.333z"/>
		<g i:knockout="Off">
			<path i:knockout="Off" d="M81.848,77.843h-0.797V72.79c-0.19,0.182-0.439,0.364-0.748,0.546s-0.585,0.319-0.831,0.41v-0.767
				c0.442-0.208,0.829-0.461,1.159-0.758c0.331-0.296,0.565-0.584,0.703-0.863h0.513V77.843z"/>
			<path i:knockout="Off" d="M86.853,77.843h-0.797V72.79c-0.19,0.182-0.439,0.364-0.748,0.546s-0.585,0.319-0.831,0.41v-0.767
				c0.442-0.208,0.828-0.461,1.159-0.758c0.331-0.296,0.564-0.584,0.702-0.863h0.514V77.843z"/>
		</g>
		<path i:knockout="Off" fill="none" stroke="#000000" stroke-width="0.7" d="M77.426,79.944h11.741"/>
		<path i:knockout="Off" fill="none" stroke="#000000" stroke-width="1.2" d="M75.593,95.435V83.593H63.864v11.842H75.593z"/>
		<g i:knockout="Off">
			<path i:knockout="Off" d="M68.107,91.583h-0.797V86.53c-0.19,0.182-0.439,0.364-0.748,0.546s-0.585,0.319-0.831,0.41V86.72
				c0.442-0.208,0.829-0.461,1.159-0.758c0.331-0.296,0.565-0.584,0.703-0.863h0.513V91.583z"/>
			<path i:knockout="Off" d="M72.66,91.583v-1.547h-2.781v-0.719l2.938-4.172h0.641v4.172h0.875v0.719h-0.875v1.547H72.66z
				 M72.66,89.317v-2.872l-2.003,2.872H72.66z"/>
		</g>
		<path i:knockout="Off" fill="none" stroke="#000000" stroke-width="0.7" d="M63.686,93.685h11.741"/>
		<path i:knockout="Off" fill="none" stroke="#000000" stroke-width="1.2" d="M83.195,111.062v-13.5H69.824v13.5H83.195z"/>
		<g i:knockout="Off">
			<path i:knockout="Off" d="M74.875,106.381h-0.797v-5.053c-0.19,0.182-0.439,0.364-0.748,0.546s-0.585,0.319-0.831,0.41v-0.767
				c0.442-0.208,0.829-0.461,1.159-0.758c0.331-0.296,0.565-0.584,0.703-0.863h0.513V106.381z"/>
			<path i:knockout="Off" d="M76.958,100.771v-0.766h4.172v0.62c-0.41,0.438-0.815,1.019-1.218,1.745
				c-0.402,0.725-0.713,1.47-0.933,2.236c-0.158,0.54-0.259,1.132-0.303,1.774h-0.813c0.009-0.508,0.108-1.121,0.298-1.84
				c0.19-0.719,0.463-1.413,0.818-2.081s0.733-1.23,1.134-1.688H76.958z"/>
		</g>
		<path i:knockout="Off" fill="none" stroke="#000000" stroke-width="1.2" d="M39.437,27.84v-13.5H26.066v13.5H39.437z"/>
		<g i:knockout="Off">
			<path i:knockout="Off" d="M34.8,22.901v0.766h-4.266c-0.006-0.191,0.025-0.375,0.093-0.551c0.108-0.291,0.282-0.577,0.521-0.857
				s0.584-0.606,1.033-0.977c0.698-0.583,1.17-1.042,1.418-1.376c0.248-0.334,0.372-0.652,0.372-0.953
				c0-0.313-0.111-0.577-0.335-0.792s-0.516-0.322-0.875-0.322c-0.38,0-0.684,0.114-0.912,0.34s-0.344,0.54-0.347,0.941
				l-0.813-0.078c0.056-0.605,0.265-1.066,0.628-1.383c0.362-0.317,0.85-0.476,1.461-0.476c0.617,0,1.105,0.172,1.465,0.515
				c0.36,0.344,0.54,0.769,0.54,1.276c0,0.259-0.052,0.513-0.157,0.762c-0.105,0.25-0.279,0.513-0.522,0.788
				c-0.244,0.276-0.648,0.655-1.215,1.136c-0.476,0.399-0.78,0.67-0.914,0.813c-0.134,0.143-0.245,0.285-0.332,0.429H34.8z"/>
		</g>
		<path i:knockout="Off" fill="none" stroke="#000000" stroke-width="1.2" d="M39.437,50.612v-13.5H26.066v13.5H39.437z"/>
		<g i:knockout="Off">
			<path i:knockout="Off" d="M33.167,46.439v-1.547h-2.781v-0.719l2.938-4.172h0.641v4.172h0.875v0.719h-0.875v1.547H33.167z
				 M33.167,44.174v-2.872l-2.003,2.872H33.167z"/>
		</g>
		<path i:knockout="Off" fill="none" stroke="#000000" stroke-width="1.2" d="M39.437,72.685V59.186H26.066v13.499H39.437z"/>
		<g i:knockout="Off">
			<path i:knockout="Off" d="M30.76,67.028l0.766-0.063c0.064,0.351,0.187,0.605,0.366,0.763c0.181,0.158,0.412,0.237,0.694,0.237
				c0.241,0,0.454-0.055,0.638-0.167s0.333-0.26,0.447-0.445c0.113-0.186,0.209-0.437,0.288-0.752s0.118-0.638,0.118-0.966
				c0-0.035-0.002-0.088-0.005-0.158c-0.157,0.252-0.372,0.456-0.644,0.613c-0.272,0.156-0.566,0.235-0.884,0.235
				c-0.53,0-0.978-0.194-1.345-0.582c-0.366-0.388-0.55-0.899-0.55-1.534c0-0.655,0.192-1.182,0.576-1.582
				c0.383-0.399,0.864-0.599,1.442-0.599c0.417,0,0.799,0.113,1.145,0.339c0.346,0.226,0.608,0.548,0.788,0.967
				c0.179,0.418,0.269,1.024,0.269,1.816c0,0.825-0.089,1.482-0.268,1.972c-0.178,0.489-0.443,0.861-0.796,1.116
				c-0.353,0.256-0.765,0.383-1.239,0.383c-0.503,0-0.914-0.139-1.232-0.418S30.825,67.533,30.76,67.028z M33.995,64.168
				c0-0.455-0.119-0.816-0.356-1.083c-0.238-0.267-0.528-0.401-0.872-0.401c-0.354,0-0.661,0.144-0.917,0.432
				s-0.385,0.661-0.385,1.119c0,0.411,0.122,0.745,0.366,1.002s0.549,0.385,0.916,0.385c0.364,0,0.664-0.128,0.898-0.385
				C33.877,64.979,33.995,64.623,33.995,64.168z"/>
		</g>
		<path i:knockout="Off" fill="none" stroke="#000000" stroke-width="1.2" d="M23.687,72.685V59.186H10.316v13.499H23.687z"/>
		<g i:knockout="Off">
			<path i:knockout="Off" d="M16.122,65.016c-0.33-0.121-0.574-0.292-0.732-0.516s-0.238-0.492-0.238-0.804
				c0-0.471,0.168-0.866,0.505-1.188c0.337-0.32,0.785-0.481,1.344-0.481c0.562,0,1.014,0.164,1.356,0.492
				c0.343,0.328,0.514,0.728,0.514,1.199c0,0.3-0.078,0.561-0.234,0.783c-0.157,0.222-0.395,0.394-0.714,0.514
				c0.396,0.129,0.697,0.337,0.904,0.625c0.206,0.287,0.31,0.63,0.31,1.029c0,0.551-0.195,1.014-0.585,1.389
				c-0.39,0.375-0.903,0.563-1.54,0.563c-0.636,0-1.149-0.188-1.54-0.565s-0.585-0.847-0.585-1.409c0-0.419,0.107-0.771,0.321-1.053
				S15.726,65.119,16.122,65.016z M15.698,66.647c0,0.226,0.052,0.444,0.157,0.655s0.263,0.374,0.477,0.49s0.442,0.173,0.686,0.173
				c0.383,0,0.697-0.122,0.94-0.365s0.365-0.552,0.365-0.927c0-0.381-0.125-0.695-0.376-0.944s-0.57-0.374-0.956-0.374
				c-0.377,0-0.688,0.123-0.93,0.369S15.698,66.278,15.698,66.647z M15.963,63.673c0,0.307,0.097,0.557,0.29,0.751
				c0.192,0.194,0.448,0.292,0.766,0.292c0.309,0,0.56-0.096,0.751-0.289s0.287-0.429,0.287-0.709c0-0.292-0.099-0.537-0.296-0.735
				c-0.197-0.199-0.448-0.298-0.751-0.298c-0.306,0-0.557,0.097-0.753,0.292C16.062,63.17,15.963,63.402,15.963,63.673z"/>
		</g>
		<path i:knockout="Off" fill="none" stroke="#000000" stroke-width="1.2" d="M39.437,95.251V81.752H26.066v13.499H39.437z"/>
		<g i:knockout="Off">
			<path i:knockout="Off" d="M31.117,91.078H30.32v-5.053c-0.19,0.182-0.439,0.364-0.748,0.546s-0.585,0.319-0.831,0.41v-0.767
				c0.442-0.208,0.829-0.461,1.159-0.758c0.331-0.296,0.565-0.584,0.703-0.863h0.513V91.078z"/>
			<path i:knockout="Off" d="M33.154,89.391l0.797-0.109c0.09,0.443,0.243,0.762,0.458,0.957s0.48,0.293,0.798,0.293
				c0.375,0,0.69-0.129,0.943-0.388c0.252-0.258,0.379-0.579,0.379-0.96c0-0.364-0.118-0.665-0.354-0.901s-0.537-0.354-0.902-0.354
				c-0.149,0-0.334,0.029-0.556,0.088l0.087-0.688c0.053,0.006,0.095,0.009,0.127,0.009c0.338,0,0.642-0.088,0.911-0.264
				c0.271-0.176,0.405-0.448,0.405-0.814c0-0.291-0.099-0.531-0.296-0.722c-0.198-0.19-0.453-0.286-0.765-0.286
				c-0.31,0-0.568,0.097-0.774,0.289c-0.207,0.193-0.34,0.482-0.398,0.867l-0.797-0.141c0.097-0.531,0.318-0.942,0.663-1.234
				c0.345-0.292,0.773-0.438,1.286-0.438c0.354,0,0.679,0.076,0.977,0.227c0.297,0.151,0.525,0.358,0.683,0.619
				c0.157,0.262,0.236,0.539,0.236,0.833c0,0.279-0.075,0.533-0.224,0.762c-0.149,0.229-0.371,0.411-0.664,0.546
				c0.381,0.088,0.676,0.271,0.886,0.548c0.209,0.277,0.314,0.624,0.314,1.04c0,0.563-0.205,1.041-0.615,1.432
				s-0.929,0.587-1.556,0.587c-0.565,0-1.035-0.167-1.408-0.5C33.419,90.354,33.207,89.921,33.154,89.391z"/>
		</g>
		<path i:knockout="Off" fill="none" stroke="#000000" stroke-width="1.2" d="M23.687,95.251V81.752H10.316v13.499H23.687z"/>
		<g i:knockout="Off">
			<path i:knockout="Off" d="M15.367,91.078H14.57v-5.053c-0.19,0.182-0.439,0.364-0.748,0.546s-0.585,0.319-0.831,0.41v-0.767
				c0.442-0.208,0.829-0.461,1.159-0.758c0.331-0.296,0.565-0.584,0.703-0.863h0.513V91.078z"/>
			<path i:knockout="Off" d="M21.553,90.313v0.766h-4.266c-0.006-0.191,0.025-0.375,0.093-0.551
				c0.108-0.291,0.282-0.577,0.521-0.858s0.583-0.606,1.033-0.977c0.697-0.583,1.17-1.041,1.418-1.376
				c0.248-0.334,0.372-0.652,0.372-0.953c0-0.313-0.112-0.576-0.335-0.791s-0.515-0.322-0.875-0.322c-0.38,0-0.685,0.113-0.912,0.34
				c-0.229,0.227-0.344,0.541-0.347,0.941l-0.813-0.078c0.056-0.605,0.265-1.066,0.627-1.384c0.363-0.317,0.85-0.476,1.461-0.476
				c0.617,0,1.105,0.172,1.465,0.515c0.36,0.343,0.54,0.769,0.54,1.277c0,0.258-0.053,0.512-0.157,0.762
				c-0.105,0.249-0.279,0.512-0.523,0.788c-0.244,0.275-0.648,0.654-1.215,1.136c-0.476,0.399-0.78,0.67-0.914,0.812
				s-0.244,0.286-0.332,0.429H21.553z"/>
		</g>
		<path i:knockout="Off" fill="none" stroke="#000000" stroke-width="1.2" d="M39.437,142.527v-13.499H26.066v13.499H39.437z"/>
		<g i:knockout="Off">
			<path i:knockout="Off" d="M32.298,137.589v0.766h-4.266c-0.006-0.19,0.025-0.375,0.092-0.551
				c0.108-0.291,0.283-0.577,0.522-0.858c0.239-0.28,0.583-0.605,1.033-0.977c0.698-0.582,1.17-1.041,1.418-1.376
				c0.248-0.335,0.372-0.652,0.372-0.953c0-0.313-0.112-0.576-0.335-0.791s-0.516-0.322-0.875-0.322c-0.38,0-0.684,0.113-0.912,0.34
				c-0.228,0.227-0.343,0.54-0.346,0.941l-0.813-0.078c0.055-0.604,0.265-1.066,0.627-1.384c0.363-0.316,0.85-0.476,1.461-0.476
				c0.617,0,1.105,0.172,1.466,0.515c0.359,0.344,0.54,0.77,0.54,1.277c0,0.258-0.052,0.512-0.158,0.762
				c-0.104,0.249-0.279,0.512-0.522,0.788c-0.243,0.275-0.648,0.654-1.215,1.136c-0.476,0.398-0.78,0.67-0.914,0.813
				c-0.134,0.142-0.245,0.285-0.332,0.429H32.298z"/>
			<path i:knockout="Off" d="M33.154,136.667l0.797-0.109c0.09,0.442,0.243,0.762,0.458,0.957s0.48,0.293,0.798,0.293
				c0.375,0,0.69-0.129,0.943-0.388c0.252-0.258,0.379-0.578,0.379-0.961c0-0.363-0.118-0.664-0.354-0.9s-0.537-0.354-0.902-0.354
				c-0.149,0-0.334,0.029-0.556,0.088l0.087-0.688c0.053,0.006,0.095,0.009,0.127,0.009c0.338,0,0.642-0.088,0.911-0.264
				c0.271-0.177,0.405-0.448,0.405-0.814c0-0.291-0.099-0.531-0.296-0.723c-0.198-0.19-0.453-0.286-0.765-0.286
				c-0.31,0-0.568,0.097-0.774,0.289c-0.207,0.192-0.34,0.481-0.398,0.867l-0.797-0.141c0.097-0.53,0.318-0.942,0.663-1.234
				s0.773-0.438,1.286-0.438c0.354,0,0.679,0.075,0.977,0.228c0.297,0.15,0.525,0.357,0.683,0.618
				c0.157,0.262,0.236,0.539,0.236,0.833c0,0.279-0.075,0.533-0.224,0.762c-0.149,0.229-0.371,0.411-0.664,0.547
				c0.381,0.088,0.676,0.271,0.886,0.547c0.209,0.277,0.314,0.624,0.314,1.041c0,0.563-0.205,1.04-0.615,1.432
				s-0.929,0.587-1.556,0.587c-0.565,0-1.035-0.167-1.408-0.5C33.419,137.63,33.207,137.197,33.154,136.667z"/>
		</g>
		<path i:knockout="Off" fill="none" stroke="#000000" stroke-width="1.2" d="M39.437,210.112v-13.499H26.066v13.499H39.437z"/>
		<g i:knockout="Off">
			<path i:knockout="Off" d="M28.148,204.252l0.797-0.109c0.09,0.443,0.243,0.762,0.458,0.957s0.481,0.293,0.799,0.293
				c0.375,0,0.689-0.129,0.942-0.388s0.379-0.579,0.379-0.96c0-0.365-0.118-0.665-0.354-0.901s-0.537-0.354-0.902-0.354
				c-0.149,0-0.334,0.029-0.556,0.088l0.087-0.688c0.052,0.006,0.095,0.009,0.127,0.009c0.337,0,0.641-0.088,0.911-0.265
				c0.27-0.176,0.405-0.447,0.405-0.814c0-0.29-0.099-0.531-0.296-0.722c-0.198-0.19-0.453-0.286-0.766-0.286
				c-0.31,0-0.567,0.097-0.774,0.289c-0.206,0.193-0.339,0.482-0.398,0.867l-0.797-0.141c0.097-0.531,0.318-0.942,0.663-1.234
				c0.345-0.291,0.773-0.438,1.286-0.438c0.353,0,0.679,0.076,0.976,0.227c0.297,0.152,0.525,0.358,0.683,0.619
				c0.158,0.262,0.236,0.539,0.236,0.833c0,0.278-0.075,0.533-0.224,0.762c-0.149,0.229-0.371,0.411-0.664,0.546
				c0.381,0.089,0.676,0.271,0.886,0.549c0.209,0.276,0.314,0.623,0.314,1.039c0,0.563-0.205,1.041-0.615,1.433
				s-0.929,0.587-1.556,0.587c-0.565,0-1.035-0.167-1.409-0.5C28.415,205.215,28.201,204.783,28.148,204.252z"/>
			<path i:knockout="Off" d="M33.154,204.252l0.797-0.109c0.09,0.443,0.243,0.762,0.458,0.957s0.48,0.293,0.798,0.293
				c0.375,0,0.69-0.129,0.943-0.388c0.252-0.259,0.379-0.579,0.379-0.96c0-0.365-0.118-0.665-0.354-0.901s-0.537-0.354-0.902-0.354
				c-0.149,0-0.334,0.029-0.556,0.088l0.087-0.688c0.053,0.006,0.095,0.009,0.127,0.009c0.338,0,0.642-0.088,0.911-0.265
				c0.271-0.176,0.405-0.447,0.405-0.814c0-0.29-0.099-0.531-0.296-0.722s-0.453-0.286-0.765-0.286c-0.31,0-0.568,0.097-0.774,0.289
				c-0.207,0.193-0.34,0.482-0.398,0.867l-0.797-0.141c0.097-0.531,0.318-0.942,0.663-1.234c0.345-0.291,0.773-0.438,1.286-0.438
				c0.354,0,0.679,0.076,0.977,0.227c0.297,0.152,0.525,0.358,0.683,0.619c0.157,0.262,0.236,0.539,0.236,0.833
				c0,0.278-0.075,0.533-0.224,0.762c-0.149,0.229-0.371,0.411-0.664,0.546c0.381,0.089,0.676,0.271,0.886,0.549
				c0.209,0.276,0.314,0.623,0.314,1.039c0,0.563-0.205,1.041-0.615,1.433s-0.929,0.587-1.556,0.587c-0.565,0-1.035-0.167-1.408-0.5
				C33.419,205.215,33.207,204.783,33.154,204.252z"/>
		</g>
		<path i:knockout="Off" fill="none" stroke="#000000" stroke-width="1.2" d="M39.437,187.51v-13.499H26.066v13.499H39.437z"/>
		<g i:knockout="Off">
			<path i:knockout="Off" d="M28.148,181.649l0.797-0.109c0.09,0.442,0.243,0.762,0.458,0.957s0.481,0.293,0.799,0.293
				c0.375,0,0.689-0.129,0.942-0.388c0.253-0.258,0.379-0.578,0.379-0.961c0-0.363-0.118-0.664-0.354-0.9s-0.537-0.354-0.902-0.354
				c-0.149,0-0.334,0.029-0.556,0.088l0.087-0.688c0.052,0.006,0.095,0.009,0.127,0.009c0.337,0,0.641-0.088,0.911-0.264
				c0.27-0.177,0.405-0.448,0.405-0.814c0-0.291-0.099-0.531-0.296-0.723c-0.198-0.19-0.453-0.286-0.766-0.286
				c-0.31,0-0.567,0.097-0.774,0.289c-0.206,0.192-0.339,0.481-0.398,0.867l-0.797-0.141c0.097-0.53,0.318-0.942,0.663-1.234
				s0.773-0.438,1.286-0.438c0.353,0,0.679,0.075,0.976,0.228c0.297,0.15,0.525,0.357,0.683,0.618
				c0.158,0.262,0.236,0.539,0.236,0.833c0,0.279-0.075,0.533-0.224,0.762c-0.149,0.229-0.371,0.411-0.664,0.547
				c0.381,0.088,0.676,0.271,0.886,0.547c0.209,0.277,0.314,0.624,0.314,1.041c0,0.563-0.205,1.04-0.615,1.432
				s-0.929,0.587-1.556,0.587c-0.565,0-1.035-0.167-1.409-0.5C28.415,182.612,28.201,182.18,28.148,181.649z"/>
			<path i:knockout="Off" d="M36.123,183.337h-0.797v-5.053c-0.19,0.183-0.439,0.364-0.748,0.546
				c-0.308,0.183-0.585,0.319-0.831,0.41v-0.767c0.442-0.208,0.828-0.461,1.159-0.758c0.331-0.296,0.564-0.584,0.702-0.863h0.514
				V183.337z"/>
		</g>
		<path i:knockout="Off" fill="none" stroke="#000000" stroke-width="1.2" d="M23.687,142.527v-13.499H10.316v13.499H23.687z"/>
		<g i:knockout="Off">
			<path i:knockout="Off" d="M16.548,137.589v0.766h-4.266c-0.006-0.19,0.025-0.375,0.092-0.551
				c0.108-0.291,0.283-0.577,0.522-0.858c0.239-0.28,0.583-0.605,1.033-0.977c0.698-0.582,1.17-1.041,1.418-1.376
				c0.248-0.335,0.372-0.652,0.372-0.953c0-0.313-0.112-0.576-0.335-0.791s-0.516-0.322-0.875-0.322c-0.38,0-0.684,0.113-0.912,0.34
				c-0.228,0.227-0.343,0.54-0.346,0.941l-0.813-0.078c0.055-0.604,0.265-1.066,0.627-1.384c0.363-0.316,0.85-0.476,1.461-0.476
				c0.617,0,1.105,0.172,1.466,0.515c0.359,0.344,0.54,0.77,0.54,1.277c0,0.258-0.052,0.512-0.158,0.762
				c-0.104,0.249-0.279,0.512-0.522,0.788c-0.243,0.275-0.648,0.654-1.215,1.136c-0.476,0.398-0.78,0.67-0.914,0.813
				c-0.134,0.142-0.245,0.285-0.332,0.429H16.548z"/>
			<path i:knockout="Off" d="M21.553,137.589v0.766h-4.266c-0.006-0.19,0.025-0.375,0.093-0.551
				c0.108-0.291,0.282-0.577,0.521-0.858c0.239-0.28,0.583-0.605,1.033-0.977c0.697-0.582,1.17-1.041,1.418-1.376
				s0.372-0.652,0.372-0.953c0-0.313-0.112-0.576-0.335-0.791s-0.515-0.322-0.875-0.322c-0.38,0-0.685,0.113-0.912,0.34
				c-0.229,0.227-0.344,0.54-0.347,0.941l-0.813-0.078c0.056-0.604,0.265-1.066,0.627-1.384c0.363-0.316,0.85-0.476,1.461-0.476
				c0.617,0,1.105,0.172,1.465,0.515c0.36,0.344,0.54,0.77,0.54,1.277c0,0.258-0.053,0.512-0.157,0.762
				c-0.105,0.249-0.279,0.512-0.523,0.788c-0.244,0.275-0.648,0.654-1.215,1.136c-0.476,0.398-0.78,0.67-0.914,0.813
				c-0.134,0.142-0.244,0.285-0.332,0.429H21.553z"/>
		</g>
		<path i:knockout="Off" fill="none" stroke="#000000" stroke-width="1.2" d="M39.437,165.519V152.02H26.066v13.499H39.437z"/>
		<g i:knockout="Off">
			<path i:knockout="Off" d="M32.298,160.58v0.766h-4.266c-0.006-0.191,0.025-0.375,0.092-0.551
				c0.108-0.291,0.283-0.577,0.522-0.857c0.239-0.281,0.583-0.607,1.033-0.978c0.698-0.583,1.17-1.041,1.418-1.376
				c0.248-0.334,0.372-0.652,0.372-0.953c0-0.313-0.112-0.576-0.335-0.791s-0.516-0.322-0.875-0.322c-0.38,0-0.684,0.113-0.912,0.34
				c-0.228,0.227-0.343,0.541-0.346,0.941l-0.813-0.078c0.055-0.605,0.265-1.066,0.627-1.384s0.85-0.476,1.461-0.476
				c0.617,0,1.105,0.172,1.466,0.516c0.359,0.343,0.54,0.769,0.54,1.276c0,0.258-0.052,0.512-0.158,0.762
				c-0.104,0.249-0.279,0.512-0.522,0.788c-0.243,0.275-0.648,0.654-1.215,1.136c-0.476,0.399-0.78,0.67-0.914,0.812
				c-0.134,0.143-0.245,0.286-0.332,0.43H32.298z"/>
			<path i:knockout="Off" d="M33.201,155.736v-0.766h4.172v0.619c-0.41,0.438-0.815,1.02-1.218,1.745
				c-0.402,0.725-0.713,1.47-0.933,2.236c-0.158,0.54-0.259,1.132-0.303,1.774h-0.813c0.009-0.508,0.108-1.121,0.298-1.84
				c0.19-0.72,0.463-1.413,0.818-2.081s0.733-1.23,1.134-1.688H33.201z"/>
		</g>
		<path i:knockout="Off" fill="none" stroke="#000000" stroke-width="1.2" d="M23.687,165.519V152.02H10.316v13.499H23.687z"/>
		<g i:knockout="Off">
			<path i:knockout="Off" d="M16.548,160.58v0.766h-4.266c-0.006-0.191,0.025-0.375,0.092-0.551
				c0.108-0.291,0.283-0.577,0.522-0.857c0.239-0.281,0.583-0.607,1.033-0.978c0.698-0.583,1.17-1.041,1.418-1.376
				c0.248-0.334,0.372-0.652,0.372-0.953c0-0.313-0.112-0.576-0.335-0.791s-0.516-0.322-0.875-0.322c-0.38,0-0.684,0.113-0.912,0.34
				c-0.228,0.227-0.343,0.541-0.346,0.941l-0.813-0.078c0.055-0.605,0.265-1.066,0.627-1.384s0.85-0.476,1.461-0.476
				c0.617,0,1.105,0.172,1.466,0.516c0.359,0.343,0.54,0.769,0.54,1.276c0,0.258-0.052,0.512-0.158,0.762
				c-0.104,0.249-0.279,0.512-0.522,0.788c-0.243,0.275-0.648,0.654-1.215,1.136c-0.476,0.399-0.78,0.67-0.914,0.812
				c-0.134,0.143-0.245,0.286-0.332,0.43H16.548z"/>
			<path i:knockout="Off" d="M21.513,156.471l-0.781,0.063c-0.071-0.311-0.171-0.536-0.3-0.677c-0.215-0.226-0.48-0.339-0.794-0.339
				c-0.253,0-0.478,0.07-0.675,0.211c-0.245,0.182-0.439,0.447-0.583,0.797c-0.144,0.349-0.219,0.846-0.225,1.49
				c0.19-0.291,0.423-0.506,0.699-0.646c0.275-0.141,0.564-0.211,0.866-0.211c0.527,0,0.977,0.194,1.347,0.584
				c0.371,0.389,0.556,0.891,0.556,1.508c0,0.404-0.087,0.781-0.261,1.129s-0.414,0.614-0.718,0.799
				c-0.304,0.185-0.649,0.277-1.036,0.277c-0.659,0-1.196-0.243-1.612-0.729c-0.415-0.486-0.623-1.287-0.623-2.403
				c0-1.248,0.23-2.155,0.69-2.722c0.401-0.493,0.941-0.74,1.622-0.74c0.507,0,0.922,0.143,1.246,0.428
				S21.449,155.969,21.513,156.471z M18.279,159.253c0,0.272,0.058,0.533,0.173,0.782c0.116,0.248,0.276,0.438,0.481,0.568
				s0.424,0.195,0.657,0.195c0.339,0,0.626-0.135,0.864-0.404c0.237-0.269,0.356-0.635,0.356-1.098c0-0.444-0.117-0.795-0.352-1.051
				c-0.234-0.257-0.534-0.385-0.898-0.385c-0.357,0-0.66,0.128-0.908,0.385C18.403,158.502,18.279,158.838,18.279,159.253z"/>
		</g>
		<path i:knockout="Off" fill="none" stroke="#000000" stroke-width="1.2" d="M23.687,110.942V97.443H10.316v13.499H23.687z"/>
		<g i:knockout="Off">
			<path i:knockout="Off" d="M15.367,106.77H14.57v-5.053c-0.19,0.182-0.439,0.364-0.748,0.546s-0.585,0.319-0.831,0.41v-0.767
				c0.442-0.208,0.829-0.461,1.159-0.758c0.331-0.296,0.565-0.584,0.703-0.863h0.513V106.77z"/>
			<path i:knockout="Off" d="M21.513,101.895l-0.781,0.063c-0.071-0.311-0.171-0.536-0.3-0.677c-0.215-0.226-0.48-0.339-0.794-0.339
				c-0.253,0-0.478,0.07-0.675,0.211c-0.245,0.182-0.439,0.447-0.583,0.796s-0.219,0.846-0.225,1.49
				c0.19-0.29,0.423-0.505,0.699-0.646c0.275-0.141,0.564-0.211,0.866-0.211c0.527,0,0.977,0.194,1.347,0.583
				s0.556,0.892,0.556,1.508c0,0.405-0.087,0.782-0.261,1.129s-0.414,0.614-0.718,0.799c-0.304,0.185-0.649,0.277-1.036,0.277
				c-0.659,0-1.196-0.243-1.612-0.729c-0.415-0.486-0.623-1.287-0.623-2.403c0-1.248,0.23-2.155,0.69-2.722
				c0.401-0.493,0.941-0.74,1.622-0.74c0.507,0,0.922,0.143,1.246,0.428S21.449,101.392,21.513,101.895z M18.279,104.677
				c0,0.272,0.058,0.533,0.173,0.782c0.116,0.249,0.276,0.438,0.481,0.568s0.424,0.195,0.657,0.195c0.339,0,0.626-0.135,0.864-0.404
				s0.356-0.635,0.356-1.098c0-0.444-0.117-0.795-0.352-1.051s-0.534-0.384-0.898-0.384c-0.357,0-0.66,0.128-0.908,0.384
				C18.403,103.926,18.279,104.262,18.279,104.677z"/>
		</g>
		<path i:knockout="Off" fill="none" stroke="#000000" stroke-width="1.2" d="M23.687,126.734v-13.499H10.316v13.499H23.687z"/>
		<g i:knockout="Off">
			<path i:knockout="Off" d="M15.367,122.562H14.57v-5.053c-0.19,0.182-0.439,0.364-0.748,0.546s-0.585,0.319-0.831,0.41v-0.767
				c0.442-0.208,0.829-0.461,1.159-0.758c0.331-0.296,0.565-0.584,0.703-0.863h0.513V122.562z"/>
			<path i:knockout="Off" d="M18.624,119.065c-0.33-0.121-0.574-0.293-0.732-0.517c-0.159-0.224-0.238-0.491-0.238-0.803
				c0-0.471,0.168-0.867,0.505-1.187c0.336-0.321,0.784-0.481,1.344-0.481c0.562,0,1.014,0.164,1.356,0.492
				c0.342,0.328,0.514,0.728,0.514,1.198c0,0.301-0.078,0.562-0.235,0.784s-0.395,0.394-0.713,0.514
				c0.396,0.129,0.697,0.337,0.904,0.624c0.207,0.288,0.31,0.631,0.31,1.029c0,0.551-0.195,1.015-0.585,1.39
				c-0.391,0.375-0.904,0.563-1.54,0.563c-0.637,0-1.149-0.188-1.54-0.565c-0.39-0.376-0.585-0.846-0.585-1.409
				c0-0.419,0.107-0.77,0.321-1.053C17.923,119.361,18.228,119.168,18.624,119.065z M18.201,120.697
				c0,0.226,0.052,0.444,0.156,0.655s0.264,0.374,0.478,0.49c0.213,0.116,0.442,0.173,0.686,0.173c0.383,0,0.696-0.121,0.94-0.364
				c0.243-0.243,0.365-0.552,0.365-0.927c0-0.38-0.125-0.695-0.376-0.944s-0.57-0.374-0.956-0.374c-0.378,0-0.688,0.123-0.93,0.369
				S18.201,120.328,18.201,120.697z M18.466,117.723c0,0.306,0.097,0.557,0.29,0.751s0.448,0.291,0.766,0.291
				c0.309,0,0.559-0.096,0.751-0.289c0.191-0.193,0.287-0.429,0.287-0.709c0-0.291-0.099-0.536-0.296-0.735
				c-0.198-0.198-0.448-0.298-0.751-0.298c-0.306,0-0.557,0.097-0.753,0.292C18.564,117.219,18.466,117.452,18.466,117.723z"/>
		</g>
		<path i:knockout="Off" fill="none" stroke="#000000" stroke-width="0.7" d="M69.621,109.234h13.385"/>
		<path i:knockout="Off" fill="none" stroke="#000000" stroke-width="1.2" d="M83.195,126.553v-13.5H69.824v13.5H83.195z"/>
		<g i:knockout="Off">
			<path i:knockout="Off" d="M74.875,121.872h-0.797v-5.053c-0.19,0.182-0.439,0.364-0.748,0.546s-0.585,0.319-0.831,0.41v-0.767
				c0.442-0.208,0.829-0.461,1.159-0.758c0.331-0.296,0.565-0.584,0.703-0.863h0.513V121.872z"/>
			<path i:knockout="Off" d="M77.021,120.388l0.766-0.063c0.064,0.351,0.186,0.605,0.366,0.763c0.18,0.158,0.411,0.237,0.693,0.237
				c0.241,0,0.454-0.056,0.639-0.167c0.184-0.111,0.333-0.259,0.447-0.445s0.209-0.437,0.289-0.752
				c0.078-0.316,0.118-0.638,0.118-0.966c0-0.035-0.001-0.088-0.004-0.158c-0.157,0.252-0.372,0.457-0.644,0.613
				c-0.272,0.157-0.567,0.235-0.884,0.235c-0.53,0-0.978-0.194-1.345-0.582c-0.367-0.388-0.55-0.898-0.55-1.533
				c0-0.655,0.191-1.183,0.575-1.582s0.864-0.6,1.442-0.6c0.417,0,0.799,0.113,1.145,0.339c0.346,0.227,0.608,0.549,0.787,0.967
				c0.18,0.419,0.27,1.024,0.27,1.817c0,0.825-0.089,1.482-0.268,1.971c-0.179,0.489-0.444,0.861-0.796,1.117
				c-0.353,0.255-0.766,0.383-1.239,0.383c-0.503,0-0.914-0.139-1.232-0.418C77.277,121.285,77.085,120.893,77.021,120.388z
				 M80.255,117.528c0-0.455-0.119-0.816-0.357-1.083s-0.528-0.401-0.872-0.401c-0.355,0-0.661,0.144-0.918,0.432
				c-0.257,0.288-0.385,0.661-0.385,1.119c0,0.411,0.122,0.745,0.365,1.002c0.244,0.257,0.549,0.385,0.916,0.385
				c0.364,0,0.663-0.128,0.898-0.385S80.255,117.983,80.255,117.528z"/>
		</g>
		<path i:knockout="Off" fill="none" stroke="#000000" stroke-width="0.7" d="M69.621,124.726h13.385"/>
		<path i:knockout="Off" fill="none" stroke="#000000" stroke-width="1.2" d="M89.333,95.435V83.593H77.604v11.842H89.333z"/>
		<g i:knockout="Off">
			<path i:knockout="Off" d="M81.848,91.583h-0.797V86.53c-0.19,0.182-0.439,0.364-0.748,0.546s-0.585,0.319-0.831,0.41V86.72
				c0.442-0.208,0.829-0.461,1.159-0.758c0.331-0.296,0.565-0.584,0.703-0.863h0.513V91.583z"/>
			<path i:knockout="Off" d="M83.884,89.896l0.813-0.063c0.062,0.399,0.204,0.7,0.426,0.901s0.494,0.302,0.817,0.302
				c0.39,0,0.715-0.144,0.976-0.431c0.26-0.287,0.391-0.667,0.391-1.142c0-0.451-0.124-0.807-0.372-1.067
				c-0.248-0.261-0.579-0.391-0.994-0.391c-0.258,0-0.488,0.058-0.689,0.174c-0.201,0.116-0.36,0.267-0.476,0.451l-0.75-0.109
				l0.625-3.313h3.203v0.75h-2.574l-0.348,1.75c0.386-0.271,0.792-0.407,1.216-0.407c0.562,0,1.036,0.195,1.422,0.586
				c0.387,0.391,0.58,0.893,0.58,1.506c0,0.584-0.17,1.089-0.509,1.515c-0.413,0.523-0.976,0.784-1.69,0.784
				c-0.585,0-1.063-0.164-1.433-0.492S83.937,90.438,83.884,89.896z"/>
		</g>
		<path i:knockout="Off" fill="none" stroke="#000000" stroke-width="0.7" d="M77.426,93.685h11.741"/>
		<path i:knockout="Off" fill="none" stroke="#000000" stroke-width="1.2" d="M75.593,140.516v-11.842H63.864v11.842H75.593z"/>
		<g i:knockout="Off">
			<path i:knockout="Off" d="M69.288,135.898v0.766h-4.266c-0.006-0.191,0.025-0.375,0.092-0.551
				c0.108-0.291,0.283-0.577,0.522-0.857c0.239-0.281,0.583-0.607,1.033-0.978c0.698-0.583,1.17-1.041,1.418-1.376
				c0.248-0.334,0.372-0.652,0.372-0.953c0-0.313-0.112-0.576-0.335-0.791s-0.516-0.322-0.875-0.322c-0.38,0-0.684,0.113-0.912,0.34
				c-0.228,0.227-0.343,0.541-0.346,0.941l-0.813-0.078c0.055-0.605,0.265-1.066,0.627-1.384c0.363-0.317,0.85-0.476,1.461-0.476
				c0.617,0,1.105,0.172,1.466,0.515c0.359,0.343,0.54,0.769,0.54,1.277c0,0.258-0.052,0.512-0.158,0.762
				c-0.104,0.249-0.279,0.512-0.522,0.788c-0.243,0.275-0.648,0.654-1.215,1.136c-0.476,0.399-0.78,0.67-0.914,0.812
				c-0.134,0.143-0.245,0.286-0.332,0.43H69.288z"/>
			<path i:knockout="Off" d="M70.144,133.479c0-0.764,0.078-1.379,0.234-1.847s0.388-0.827,0.696-1.077s0.696-0.375,1.163-0.375
				c0.345,0,0.648,0.07,0.911,0.209c0.262,0.14,0.477,0.341,0.644,0.604c0.167,0.263,0.298,0.583,0.395,0.961
				c0.096,0.377,0.145,0.886,0.145,1.525c0,0.758-0.077,1.371-0.232,1.839c-0.154,0.468-0.386,0.827-0.694,1.079
				c-0.308,0.252-0.697,0.377-1.167,0.377c-0.619,0-1.105-0.221-1.458-0.662C70.356,135.569,70.144,134.691,70.144,133.479z
				 M70.957,133.477c0,1.064,0.123,1.771,0.369,2.119c0.247,0.348,0.551,0.521,0.912,0.521s0.665-0.175,0.912-0.524
				c0.247-0.349,0.37-1.055,0.37-2.116c0-1.063-0.123-1.768-0.368-2.117c-0.245-0.349-0.552-0.523-0.922-0.523
				c-0.361,0-0.651,0.154-0.87,0.462C71.091,131.691,70.957,132.418,70.957,133.477z"/>
		</g>
		<path i:knockout="Off" fill="none" stroke="#000000" stroke-width="0.7" d="M63.686,138.766h11.741"/>
		<path i:knockout="Off" fill="none" stroke="#000000" stroke-width="1.2" d="M89.333,140.516v-11.842H77.604v11.842H89.333z"/>
		<g i:knockout="Off">
			<path i:knockout="Off" d="M83.028,135.898v0.766h-4.266c-0.006-0.191,0.025-0.375,0.092-0.551
				c0.108-0.291,0.283-0.577,0.522-0.857c0.239-0.281,0.583-0.607,1.033-0.978c0.698-0.583,1.17-1.041,1.418-1.376
				c0.248-0.334,0.372-0.652,0.372-0.953c0-0.313-0.112-0.576-0.335-0.791s-0.516-0.322-0.875-0.322c-0.38,0-0.684,0.113-0.912,0.34
				c-0.228,0.227-0.343,0.541-0.346,0.941l-0.813-0.078c0.055-0.605,0.265-1.066,0.627-1.384c0.363-0.317,0.85-0.476,1.461-0.476
				c0.617,0,1.105,0.172,1.466,0.515c0.359,0.343,0.54,0.769,0.54,1.277c0,0.258-0.052,0.512-0.158,0.762
				c-0.104,0.249-0.279,0.512-0.522,0.788c-0.243,0.275-0.648,0.654-1.215,1.136c-0.476,0.399-0.78,0.67-0.914,0.812
				c-0.134,0.143-0.245,0.286-0.332,0.43H83.028z"/>
			<path i:knockout="Off" d="M86.853,136.664h-0.797v-5.053c-0.19,0.182-0.439,0.364-0.748,0.547
				c-0.308,0.182-0.585,0.318-0.831,0.409v-0.767c0.442-0.209,0.828-0.461,1.159-0.758c0.331-0.296,0.564-0.584,0.702-0.863h0.514
				V136.664z"/>
		</g>
		<path i:knockout="Off" fill="none" stroke="#000000" stroke-width="0.7" d="M77.426,138.766h11.741"/>
		<path i:knockout="Off" fill="none" stroke="#000000" stroke-width="1.2" d="M75.593,154.392V142.55H63.864v11.842H75.593z"/>
		<g i:knockout="Off">
			<path i:knockout="Off" d="M69.288,149.774v0.766h-4.266c-0.006-0.19,0.025-0.375,0.092-0.551
				c0.108-0.291,0.283-0.577,0.522-0.858c0.239-0.28,0.583-0.605,1.033-0.977c0.698-0.582,1.17-1.041,1.418-1.376
				c0.248-0.335,0.372-0.652,0.372-0.953c0-0.313-0.112-0.576-0.335-0.791s-0.516-0.322-0.875-0.322c-0.38,0-0.684,0.113-0.912,0.34
				c-0.228,0.227-0.343,0.54-0.346,0.941l-0.813-0.078c0.055-0.604,0.265-1.066,0.627-1.384c0.363-0.316,0.85-0.476,1.461-0.476
				c0.617,0,1.105,0.172,1.466,0.515c0.359,0.344,0.54,0.77,0.54,1.277c0,0.258-0.052,0.512-0.158,0.762
				c-0.104,0.249-0.279,0.512-0.522,0.788c-0.243,0.275-0.648,0.654-1.215,1.136c-0.476,0.398-0.78,0.67-0.914,0.813
				c-0.134,0.142-0.245,0.285-0.332,0.429H69.288z"/>
			<path i:knockout="Off" d="M72.66,150.54v-1.547h-2.781v-0.719l2.938-4.172h0.641v4.172h0.875v0.719h-0.875v1.547H72.66z
				 M72.66,148.274v-2.872l-2.003,2.872H72.66z"/>
		</g>
		<path i:knockout="Off" fill="none" stroke="#000000" stroke-width="0.7" d="M63.686,152.642h11.741"/>
		<path i:knockout="Off" fill="none" stroke="#000000" stroke-width="1.2" d="M89.333,154.392V142.55H77.604v11.842H89.333z"/>
		<g i:knockout="Off">
			<path i:knockout="Off" d="M83.028,149.774v0.766h-4.266c-0.006-0.19,0.025-0.375,0.092-0.551
				c0.108-0.291,0.283-0.577,0.522-0.858c0.239-0.28,0.583-0.605,1.033-0.977c0.698-0.582,1.17-1.041,1.418-1.376
				c0.248-0.335,0.372-0.652,0.372-0.953c0-0.313-0.112-0.576-0.335-0.791s-0.516-0.322-0.875-0.322c-0.38,0-0.684,0.113-0.912,0.34
				c-0.228,0.227-0.343,0.54-0.346,0.941l-0.813-0.078c0.055-0.604,0.265-1.066,0.627-1.384c0.363-0.316,0.85-0.476,1.461-0.476
				c0.617,0,1.105,0.172,1.466,0.515c0.359,0.344,0.54,0.77,0.54,1.277c0,0.258-0.052,0.512-0.158,0.762
				c-0.104,0.249-0.279,0.512-0.522,0.788c-0.243,0.275-0.648,0.654-1.215,1.136c-0.476,0.398-0.78,0.67-0.914,0.813
				c-0.134,0.142-0.245,0.285-0.332,0.429H83.028z"/>
			<path i:knockout="Off" d="M83.884,148.853l0.813-0.063c0.062,0.399,0.204,0.7,0.426,0.901s0.494,0.302,0.817,0.302
				c0.39,0,0.715-0.144,0.976-0.431c0.26-0.287,0.391-0.668,0.391-1.143c0-0.45-0.124-0.807-0.372-1.066
				c-0.248-0.262-0.579-0.392-0.994-0.392c-0.258,0-0.488,0.058-0.689,0.174s-0.36,0.267-0.476,0.451l-0.75-0.109l0.625-3.313h3.203
				v0.75h-2.574l-0.348,1.751c0.386-0.271,0.792-0.407,1.216-0.407c0.562,0,1.036,0.195,1.422,0.586
				c0.387,0.391,0.58,0.893,0.58,1.506c0,0.585-0.17,1.089-0.509,1.515c-0.413,0.523-0.976,0.784-1.69,0.784
				c-0.585,0-1.063-0.164-1.433-0.492S83.937,149.395,83.884,148.853z"/>
		</g>
		<path i:knockout="Off" fill="none" stroke="#000000" stroke-width="0.7" d="M77.426,152.642h11.741"/>
		<path i:knockout="Off" fill="none" stroke="#000000" stroke-width="1.2" d="M75.593,168.434v-11.842H63.864v11.842H75.593z"/>
		<g i:knockout="Off">
			<path i:knockout="Off" d="M69.288,163.816v0.766h-4.266c-0.006-0.191,0.025-0.375,0.092-0.551
				c0.108-0.291,0.283-0.577,0.522-0.857c0.239-0.281,0.583-0.607,1.033-0.978c0.698-0.583,1.17-1.041,1.418-1.376
				c0.248-0.334,0.372-0.652,0.372-0.953c0-0.313-0.112-0.576-0.335-0.791s-0.516-0.322-0.875-0.322c-0.38,0-0.684,0.113-0.912,0.34
				c-0.228,0.227-0.343,0.541-0.346,0.941l-0.813-0.078c0.055-0.605,0.265-1.066,0.627-1.384s0.85-0.476,1.461-0.476
				c0.617,0,1.105,0.172,1.466,0.516c0.359,0.343,0.54,0.769,0.54,1.276c0,0.258-0.052,0.512-0.158,0.762
				c-0.104,0.249-0.279,0.512-0.522,0.788c-0.243,0.275-0.648,0.654-1.215,1.136c-0.476,0.399-0.78,0.67-0.914,0.812
				c-0.134,0.143-0.245,0.286-0.332,0.43H69.288z"/>
			<path i:knockout="Off" d="M71.364,161.086c-0.33-0.121-0.574-0.293-0.732-0.517c-0.159-0.224-0.238-0.491-0.238-0.804
				c0-0.471,0.168-0.866,0.505-1.187c0.336-0.321,0.784-0.481,1.344-0.481c0.562,0,1.014,0.164,1.356,0.492
				c0.342,0.328,0.514,0.728,0.514,1.198c0,0.301-0.078,0.562-0.235,0.784c-0.157,0.222-0.395,0.393-0.713,0.514
				c0.396,0.129,0.697,0.337,0.904,0.624c0.207,0.288,0.31,0.631,0.31,1.029c0,0.552-0.195,1.015-0.585,1.39
				c-0.391,0.375-0.904,0.563-1.54,0.563c-0.637,0-1.149-0.188-1.54-0.564c-0.39-0.377-0.585-0.847-0.585-1.41
				c0-0.419,0.107-0.77,0.321-1.053C70.664,161.381,70.968,161.188,71.364,161.086z M70.941,162.717
				c0,0.227,0.052,0.444,0.156,0.655s0.264,0.374,0.478,0.489c0.213,0.116,0.442,0.174,0.686,0.174c0.383,0,0.696-0.121,0.94-0.364
				c0.243-0.243,0.365-0.552,0.365-0.927c0-0.381-0.125-0.695-0.376-0.945c-0.251-0.248-0.57-0.373-0.956-0.373
				c-0.378,0-0.688,0.123-0.93,0.369S70.941,162.349,70.941,162.717z M71.207,159.743c0,0.306,0.097,0.557,0.29,0.751
				s0.448,0.291,0.766,0.291c0.309,0,0.559-0.096,0.751-0.289c0.191-0.193,0.287-0.43,0.287-0.709c0-0.291-0.099-0.536-0.296-0.735
				c-0.198-0.198-0.448-0.298-0.751-0.298c-0.306,0-0.557,0.098-0.753,0.291C71.304,159.24,71.207,159.473,71.207,159.743z"/>
		</g>
		<path i:knockout="Off" fill="none" stroke="#000000" stroke-width="0.7" d="M63.686,166.684h11.741"/>
		<path i:knockout="Off" fill="none" stroke="#000000" stroke-width="1.2" d="M75.593,182.421v-11.842H63.864v11.842H75.593z"/>
		<g i:knockout="Off">
			<path i:knockout="Off" d="M65.139,176.882l0.797-0.109c0.09,0.442,0.243,0.762,0.458,0.957s0.481,0.293,0.799,0.293
				c0.375,0,0.689-0.129,0.942-0.388c0.253-0.258,0.379-0.578,0.379-0.961c0-0.363-0.118-0.664-0.354-0.9s-0.537-0.354-0.902-0.354
				c-0.149,0-0.334,0.029-0.556,0.088l0.087-0.688c0.052,0.006,0.095,0.009,0.127,0.009c0.337,0,0.641-0.088,0.911-0.264
				c0.27-0.177,0.405-0.448,0.405-0.814c0-0.291-0.099-0.531-0.296-0.723c-0.198-0.19-0.453-0.286-0.766-0.286
				c-0.31,0-0.567,0.097-0.774,0.289c-0.206,0.192-0.339,0.481-0.398,0.867l-0.797-0.141c0.097-0.53,0.318-0.942,0.663-1.234
				s0.773-0.438,1.286-0.438c0.353,0,0.679,0.075,0.976,0.228c0.297,0.15,0.525,0.357,0.683,0.618
				c0.158,0.262,0.236,0.539,0.236,0.833c0,0.279-0.075,0.533-0.224,0.762c-0.149,0.229-0.371,0.411-0.664,0.547
				c0.381,0.088,0.676,0.271,0.886,0.547c0.209,0.277,0.314,0.624,0.314,1.041c0,0.563-0.205,1.04-0.615,1.432
				s-0.929,0.587-1.556,0.587c-0.565,0-1.035-0.167-1.409-0.5C65.405,177.845,65.191,177.412,65.139,176.882z"/>
			<path i:knockout="Off" d="M70.144,175.384c0-0.763,0.078-1.379,0.234-1.847c0.156-0.469,0.388-0.827,0.696-1.077
				s0.696-0.375,1.163-0.375c0.345,0,0.648,0.069,0.911,0.209c0.262,0.14,0.477,0.341,0.644,0.604
				c0.167,0.263,0.298,0.583,0.395,0.96c0.096,0.378,0.145,0.887,0.145,1.526c0,0.758-0.077,1.371-0.232,1.839
				c-0.154,0.468-0.386,0.828-0.694,1.079c-0.308,0.251-0.697,0.377-1.167,0.377c-0.619,0-1.105-0.221-1.458-0.661
				C70.356,177.475,70.144,176.597,70.144,175.384z M70.957,175.382c0,1.064,0.123,1.771,0.369,2.118
				c0.247,0.349,0.551,0.522,0.912,0.522s0.665-0.175,0.912-0.524s0.37-1.055,0.37-2.116s-0.123-1.768-0.368-2.117
				c-0.245-0.349-0.552-0.523-0.922-0.523c-0.361,0-0.651,0.154-0.87,0.462C71.091,173.597,70.957,174.322,70.957,175.382z"/>
		</g>
		<path i:knockout="Off" fill="none" stroke="#000000" stroke-width="0.7" d="M63.686,180.671h11.741"/>
		<path i:knockout="Off" fill="none" stroke="#000000" stroke-width="1.2" d="M75.593,196.185v-11.842H63.864v11.842H75.593z"/>
		<g i:knockout="Off">
			<path i:knockout="Off" d="M65.139,190.646l0.797-0.109c0.09,0.442,0.243,0.762,0.458,0.957s0.481,0.293,0.799,0.293
				c0.375,0,0.689-0.129,0.942-0.388c0.253-0.258,0.379-0.578,0.379-0.961c0-0.363-0.118-0.664-0.354-0.9s-0.537-0.354-0.902-0.354
				c-0.149,0-0.334,0.029-0.556,0.088l0.087-0.688c0.052,0.006,0.095,0.009,0.127,0.009c0.337,0,0.641-0.088,0.911-0.264
				c0.27-0.177,0.405-0.448,0.405-0.814c0-0.291-0.099-0.531-0.296-0.723c-0.198-0.19-0.453-0.286-0.766-0.286
				c-0.31,0-0.567,0.097-0.774,0.289c-0.206,0.192-0.339,0.481-0.398,0.867l-0.797-0.141c0.097-0.53,0.318-0.942,0.663-1.234
				s0.773-0.438,1.286-0.438c0.353,0,0.679,0.075,0.976,0.228c0.297,0.15,0.525,0.357,0.683,0.618
				c0.158,0.262,0.236,0.539,0.236,0.833c0,0.279-0.075,0.533-0.224,0.762c-0.149,0.229-0.371,0.411-0.664,0.547
				c0.381,0.088,0.676,0.271,0.886,0.547c0.209,0.277,0.314,0.624,0.314,1.041c0,0.563-0.205,1.04-0.615,1.432
				s-0.929,0.587-1.556,0.587c-0.565,0-1.035-0.167-1.409-0.5C65.405,191.608,65.191,191.176,65.139,190.646z"/>
			<path i:knockout="Off" d="M74.293,191.567v0.766h-4.266c-0.006-0.19,0.025-0.375,0.093-0.551
				c0.108-0.291,0.282-0.577,0.521-0.858c0.239-0.28,0.583-0.605,1.033-0.977c0.697-0.582,1.17-1.041,1.418-1.376
				s0.372-0.652,0.372-0.953c0-0.313-0.112-0.576-0.335-0.791s-0.515-0.322-0.875-0.322c-0.38,0-0.685,0.113-0.912,0.34
				c-0.229,0.227-0.344,0.54-0.347,0.941l-0.813-0.078c0.056-0.604,0.265-1.066,0.627-1.384c0.363-0.316,0.85-0.476,1.461-0.476
				c0.617,0,1.105,0.172,1.465,0.515c0.36,0.344,0.54,0.77,0.54,1.277c0,0.258-0.053,0.512-0.157,0.762
				c-0.105,0.249-0.279,0.512-0.523,0.788c-0.244,0.275-0.648,0.654-1.215,1.136c-0.476,0.398-0.78,0.67-0.914,0.813
				c-0.134,0.142-0.244,0.285-0.332,0.429H74.293z"/>
		</g>
		<path i:knockout="Off" fill="none" stroke="#000000" stroke-width="0.7" d="M63.686,194.435h11.741"/>
		<path i:knockout="Off" fill="none" stroke="#000000" stroke-width="1.2" d="M75.593,210.116v-11.842H63.864v11.842H75.593z"/>
		<g i:knockout="Off">
			<path i:knockout="Off" d="M65.139,204.577l0.797-0.109c0.09,0.442,0.243,0.762,0.458,0.957s0.481,0.293,0.799,0.293
				c0.375,0,0.689-0.129,0.942-0.388c0.253-0.258,0.379-0.578,0.379-0.961c0-0.363-0.118-0.664-0.354-0.9s-0.537-0.354-0.902-0.354
				c-0.149,0-0.334,0.029-0.556,0.088l0.087-0.688c0.052,0.006,0.095,0.009,0.127,0.009c0.337,0,0.641-0.088,0.911-0.264
				c0.27-0.177,0.405-0.448,0.405-0.814c0-0.291-0.099-0.531-0.296-0.723c-0.198-0.19-0.453-0.286-0.766-0.286
				c-0.31,0-0.567,0.097-0.774,0.289c-0.206,0.192-0.339,0.481-0.398,0.867l-0.797-0.141c0.097-0.53,0.318-0.942,0.663-1.234
				s0.773-0.438,1.286-0.438c0.353,0,0.679,0.075,0.976,0.228c0.297,0.15,0.525,0.357,0.683,0.618
				c0.158,0.262,0.236,0.539,0.236,0.833c0,0.279-0.075,0.533-0.224,0.762c-0.149,0.229-0.371,0.411-0.664,0.547
				c0.381,0.088,0.676,0.271,0.886,0.547c0.209,0.277,0.314,0.624,0.314,1.041c0,0.563-0.205,1.04-0.615,1.432
				s-0.929,0.587-1.556,0.587c-0.565,0-1.035-0.167-1.409-0.5C65.405,205.54,65.191,205.107,65.139,204.577z"/>
			<path i:knockout="Off" d="M72.66,206.265v-1.547h-2.781v-0.719l2.938-4.172h0.641v4.172h0.875v0.719h-0.875v1.547H72.66z
				 M72.66,203.999v-2.872l-2.003,2.872H72.66z"/>
		</g>
		<path i:knockout="Off" fill="none" stroke="#000000" stroke-width="0.7" d="M63.686,208.366h11.741"/>
		<path i:knockout="Off" fill="none" stroke="#000000" stroke-width="1.2" d="M89.333,168.434v-11.842H77.604v11.842H89.333z"/>
		<g i:knockout="Off">
			<path i:knockout="Off" d="M83.028,163.816v0.766h-4.266c-0.006-0.191,0.025-0.375,0.092-0.551
				c0.108-0.291,0.283-0.577,0.522-0.857c0.239-0.281,0.583-0.607,1.033-0.978c0.698-0.583,1.17-1.041,1.418-1.376
				c0.248-0.334,0.372-0.652,0.372-0.953c0-0.313-0.112-0.576-0.335-0.791s-0.516-0.322-0.875-0.322c-0.38,0-0.684,0.113-0.912,0.34
				c-0.228,0.227-0.343,0.541-0.346,0.941l-0.813-0.078c0.055-0.605,0.265-1.066,0.627-1.384s0.85-0.476,1.461-0.476
				c0.617,0,1.105,0.172,1.466,0.516c0.359,0.343,0.54,0.769,0.54,1.276c0,0.258-0.052,0.512-0.158,0.762
				c-0.104,0.249-0.279,0.512-0.522,0.788c-0.243,0.275-0.648,0.654-1.215,1.136c-0.476,0.399-0.78,0.67-0.914,0.812
				c-0.134,0.143-0.245,0.286-0.332,0.43H83.028z"/>
			<path i:knockout="Off" d="M83.994,163.098l0.766-0.063c0.064,0.351,0.186,0.605,0.366,0.763c0.18,0.158,0.411,0.237,0.693,0.237
				c0.241,0,0.454-0.056,0.639-0.167c0.184-0.11,0.333-0.259,0.447-0.444s0.209-0.438,0.289-0.753
				c0.078-0.315,0.118-0.638,0.118-0.966c0-0.035-0.001-0.088-0.004-0.158c-0.157,0.252-0.372,0.456-0.644,0.612
				c-0.272,0.157-0.567,0.235-0.884,0.235c-0.53,0-0.978-0.193-1.345-0.582c-0.367-0.388-0.55-0.898-0.55-1.533
				c0-0.655,0.191-1.183,0.575-1.582s0.864-0.6,1.442-0.6c0.417,0,0.799,0.113,1.145,0.339c0.346,0.227,0.608,0.549,0.787,0.967
				c0.18,0.419,0.27,1.024,0.27,1.817c0,0.825-0.089,1.482-0.268,1.971c-0.179,0.489-0.444,0.861-0.796,1.117
				c-0.353,0.255-0.766,0.383-1.239,0.383c-0.503,0-0.914-0.139-1.232-0.418C84.25,163.994,84.058,163.603,83.994,163.098z
				 M87.228,160.238c0-0.455-0.119-0.816-0.357-1.084c-0.238-0.267-0.528-0.4-0.872-0.4c-0.355,0-0.661,0.145-0.918,0.432
				c-0.257,0.288-0.385,0.66-0.385,1.119c0,0.41,0.122,0.744,0.365,1.002c0.244,0.256,0.549,0.385,0.916,0.385
				c0.364,0,0.663-0.129,0.898-0.385C87.111,161.049,87.228,160.693,87.228,160.238z"/>
		</g>
		<path i:knockout="Off" fill="none" stroke="#000000" stroke-width="0.7" d="M77.426,166.684h11.741"/>
		<path i:knockout="Off" fill="none" stroke="#000000" stroke-width="1.2" d="M75.593,14.413v-3.494l-5.586,3.494"/>
		<path i:knockout="Off" fill="none" stroke="#000000" stroke-width="1.2" d="M26.068,14.351v-3.494l5.586,3.494"/>
		<path i:knockout="Off" fill="none" stroke="#000000" stroke-width="1.2" d="M39.437,210.112h24.447"/>
		<path i:knockout="Off" fill="none" stroke="#000000" stroke-width="1.2" d="M39.383,14.357H63.95"/>
	</g>
</svg>
