<?xml version="1.0" encoding="utf-8"?>
<!-- Generator: Adobe Illustrator 10.0, SVG Export Plug-In . SVG Version: 3.0.0 Build 77)  -->
<!DOCTYPE svg PUBLIC "-//W3C//DTD SVG 1.0//EN"    "http://www.w3.org/TR/2001/REC-SVG-20010904/DTD/svg10.dtd" [
	<!ENTITY ns_flows "http://ns.adobe.com/Flows/1.0/">
	<!ENTITY ns_extend "http://ns.adobe.com/Extensibility/1.0/">
	<!ENTITY ns_ai "http://ns.adobe.com/AdobeIllustrator/10.0/">
	<!ENTITY ns_graphs "http://ns.adobe.com/Graphs/1.0/">
	<!ENTITY ns_vars "http://ns.adobe.com/Variables/1.0/">
	<!ENTITY ns_imrep "http://ns.adobe.com/ImageReplacement/1.0/">
	<!ENTITY ns_sfw "http://ns.adobe.com/SaveForWeb/1.0/">
	<!ENTITY ns_custom "http://ns.adobe.com/GenericCustomNamespace/1.0/">
	<!ENTITY ns_adobe_xpath "http://ns.adobe.com/XPath/1.0/">
	<!ENTITY ns_svg "http://www.w3.org/2000/svg">
	<!ENTITY ns_xlink "http://www.w3.org/1999/xlink">
]>
<svg xmlns:x="&ns_extend;" xmlns:i="&ns_ai;" xmlns:graph="&ns_graphs;" i:viewOrigin="269.8999 444.9414" i:rulerOrigin="-1 0.1104" i:pageBounds="1 841.8896 596 -0.1104" xmlns="&ns_svg;" xmlns:xlink="&ns_xlink;" xmlns:a="http://ns.adobe.com/AdobeSVGViewerExtensions/3.0/" width="47.692" height="49.111" viewBox="0 0 47.692 49.111" overflow="visible" enable-background="new 0 0 47.692 49.111" xml:space="preserve" id="svgObj" onload="parent.svgLoad('Top', document)">
	<metadata>
		<variableSets xmlns="&ns_vars;">
			<variableSet varSetName="binding1" locked="none">
				<variables></variables>
				<v:sampleDataSets xmlns="&ns_custom;" xmlns:v="&ns_vars;"></v:sampleDataSets>
			</variableSet>
		</variableSets>
		<sfw xmlns="&ns_sfw;">
			<slices></slices>
			<sliceSourceBounds y="388.708" x="257.815" width="80.371" height="63.363" bottomLeftOrigin="true"></sliceSourceBounds>
		</sfw>
	</metadata>
	<g id="illust" i:layer="yes" i:dimmedPercent="3" i:rgbTrio="#4F008000FFFF">
		<path i:knockout="Off" fill="none" stroke="#000000" stroke-width="0.7" d="M45.107,18.174V5.418H11.092v12.755H45.107z"/>
		<g i:knockout="Off">
			<path i:knockout="Off" d="M14.886,12.756l0.719-0.094c0.08,0.393,0.215,0.676,0.405,0.85c0.19,0.173,0.425,0.26,0.707,0.26
				c0.333,0,0.611-0.115,0.835-0.344c0.223-0.229,0.335-0.514,0.335-0.853c0-0.323-0.104-0.59-0.313-0.8
				c-0.209-0.21-0.476-0.315-0.798-0.315c-0.132,0-0.296,0.026-0.492,0.078l0.078-0.625c0.046,0.005,0.083,0.008,0.112,0.008
				c0.294,0,0.56-0.077,0.795-0.232c0.235-0.155,0.354-0.394,0.354-0.717c0-0.255-0.086-0.467-0.259-0.635s-0.396-0.252-0.669-0.252
				c-0.271,0-0.497,0.086-0.677,0.258c-0.181,0.172-0.296,0.43-0.348,0.773L14.949,9.99c0.086-0.471,0.28-0.836,0.584-1.096
				c0.304-0.259,0.682-0.389,1.134-0.389c0.312,0,0.599,0.067,0.861,0.2c0.262,0.134,0.463,0.315,0.602,0.546
				c0.139,0.231,0.208,0.476,0.208,0.735c0,0.246-0.066,0.47-0.199,0.672s-0.33,0.363-0.59,0.482
				c0.338,0.078,0.604,0.241,0.797,0.487c0.192,0.246,0.289,0.555,0.289,0.925c0,0.501-0.183,0.926-0.547,1.273
				c-0.365,0.349-0.826,0.522-1.383,0.522c-0.503,0-0.92-0.147-1.252-0.443S14.933,13.227,14.886,12.756z"/>
		</g>
		<g i:knockout="Off">
			<path i:knockout="Off" d="M29.904,13.584v0.672h-3.797c-0.005-0.169,0.022-0.332,0.083-0.488c0.097-0.258,0.252-0.511,0.467-0.76
				c0.214-0.249,0.521-0.537,0.92-0.864c0.62-0.516,1.04-0.923,1.261-1.221s0.332-0.58,0.332-0.849c0-0.278-0.1-0.513-0.299-0.704
				s-0.46-0.287-0.781-0.287c-0.339,0-0.61,0.104-0.814,0.311s-0.307,0.494-0.309,0.861l-0.719-0.094
				c0.049-0.539,0.235-0.95,0.558-1.232c0.323-0.282,0.756-0.424,1.3-0.424c0.549,0,0.983,0.152,1.304,0.457
				c0.319,0.305,0.479,0.683,0.479,1.133c0,0.229-0.047,0.455-0.14,0.676c-0.094,0.221-0.248,0.454-0.465,0.699
				c-0.216,0.245-0.576,0.581-1.081,1.009c-0.423,0.355-0.695,0.596-0.815,0.722c-0.12,0.126-0.219,0.253-0.297,0.381H29.904z"/>
		</g>
		<path i:knockout="Off" fill="none" stroke="#000000" stroke-width="0.7" d="M22.431,5.418v12.755"/>
		<path i:knockout="Off" fill="none" stroke="#000000" stroke-width="0.7" d="M11.092,16.756h34.015"/>
		<path i:knockout="Off" fill="none" stroke="#000000" stroke-width="0.7" d="M45.107,30.93V18.174H11.092V30.93H45.107z"/>
		<g i:knockout="Off">
			<path i:knockout="Off" d="M14.871,25.512l0.719-0.063c0.055,0.358,0.182,0.628,0.379,0.808c0.198,0.181,0.441,0.271,0.729,0.271
				c0.349,0,0.639-0.127,0.871-0.382c0.232-0.254,0.348-0.592,0.348-1.013c0-0.399-0.111-0.715-0.332-0.946
				c-0.222-0.231-0.519-0.347-0.891-0.347c-0.232,0-0.438,0.051-0.617,0.152s-0.322,0.233-0.426,0.395l-0.656-0.094l0.563-2.938
				h2.844v0.672h-2.285l-0.313,1.549c0.344-0.241,0.704-0.361,1.082-0.361c0.5,0,0.922,0.173,1.266,0.519s0.516,0.791,0.516,1.334
				c0,0.518-0.151,0.966-0.453,1.343c-0.367,0.463-0.869,0.694-1.504,0.694c-0.521,0-0.946-0.146-1.275-0.437
				C15.105,26.378,14.917,25.992,14.871,25.512z"/>
		</g>
		<g i:knockout="Off">
			<path i:knockout="Off" d="M28.458,27.012v-1.375h-2.484v-0.641l2.625-3.719h0.563v3.719h0.781v0.641h-0.781v1.375H28.458z
				 M28.458,24.996V22.43l-1.792,2.566H28.458z"/>
		</g>
		<path i:knockout="Off" fill="none" stroke="#000000" stroke-width="0.7" d="M22.431,18.174V30.93"/>
		<path i:knockout="Off" fill="none" stroke="#000000" stroke-width="0.7" d="M11.092,29.512h22.677"/>
		<path i:knockout="Off" fill="none" stroke="#000000" stroke-width="0.7" d="M45.107,43.686V30.93H11.092v12.756H45.107z"/>
		<g i:knockout="Off">
			<path i:knockout="Off" d="M15.964,36.664c-0.292-0.106-0.507-0.259-0.648-0.457s-0.211-0.436-0.211-0.712
				c0-0.417,0.149-0.768,0.447-1.051c0.299-0.285,0.696-0.427,1.191-0.427c0.498,0,0.899,0.146,1.203,0.437
				c0.304,0.29,0.456,0.644,0.456,1.061c0,0.266-0.069,0.497-0.208,0.694c-0.139,0.196-0.349,0.349-0.631,0.455
				c0.35,0.114,0.617,0.299,0.799,0.554s0.274,0.559,0.274,0.912c0,0.489-0.173,0.899-0.519,1.232s-0.8,0.499-1.364,0.499
				s-1.019-0.167-1.364-0.501s-0.519-0.75-0.519-1.25c0-0.371,0.095-0.683,0.284-0.934S15.614,36.755,15.964,36.664z M15.589,38.115
				c0,0.2,0.046,0.394,0.139,0.58c0.092,0.187,0.233,0.331,0.423,0.435c0.189,0.102,0.393,0.153,0.608,0.153
				c0.341,0,0.619-0.107,0.834-0.323c0.216-0.215,0.324-0.489,0.324-0.821c0-0.337-0.111-0.616-0.333-0.837
				s-0.505-0.331-0.848-0.331c-0.335,0-0.61,0.109-0.825,0.327S15.589,37.788,15.589,38.115z M15.824,35.471
				c0,0.271,0.085,0.492,0.257,0.664c0.171,0.172,0.398,0.258,0.681,0.258c0.275,0,0.497-0.085,0.667-0.256s0.255-0.38,0.255-0.627
				c0-0.258-0.088-0.475-0.263-0.65s-0.397-0.264-0.667-0.264c-0.272,0-0.495,0.086-0.669,0.258S15.824,35.231,15.824,35.471z"/>
		</g>
		<g i:knockout="Off">
			<path i:knockout="Off" d="M26.255,34.783v-0.672h3.703v0.544c-0.365,0.388-0.728,0.904-1.086,1.548
				c-0.359,0.645-0.636,1.308-0.832,1.987c-0.141,0.48-0.231,1.006-0.27,1.577h-0.719c0.008-0.451,0.096-0.996,0.265-1.636
				c0.169-0.639,0.411-1.255,0.727-1.848c0.315-0.594,0.651-1.094,1.008-1.501H26.255z"/>
		</g>
		<path i:knockout="Off" fill="none" stroke="#000000" stroke-width="0.7" d="M22.431,30.93v12.756"/>
		<g i:knockout="Off">
			<path i:knockout="Off" d="M40.204,14.256H39.5v-4.48c-0.17,0.162-0.392,0.323-0.666,0.484c-0.275,0.162-0.521,0.283-0.74,0.363
				v-0.68c0.393-0.185,0.736-0.409,1.031-0.672c0.294-0.263,0.502-0.518,0.625-0.766h0.453V14.256z"/>
		</g>
		<path i:knockout="Off" fill="none" stroke="#000000" stroke-width="0.7" d="M33.769,5.418v12.755"/>
		<path i:knockout="Off" fill="none" stroke="#000000" stroke-width="0.7" d="M33.769,18.174V30.93"/>
		<g i:knockout="Off">
			<path i:knockout="Off" d="M41.219,35.439l-0.703,0.063c-0.063-0.277-0.152-0.479-0.268-0.604
				c-0.191-0.201-0.428-0.302-0.708-0.302c-0.226,0-0.426,0.063-0.602,0.187c-0.218,0.162-0.391,0.396-0.52,0.705
				c-0.128,0.31-0.195,0.75-0.2,1.323c0.17-0.258,0.378-0.449,0.623-0.574c0.246-0.125,0.504-0.188,0.773-0.188
				c0.47,0,0.871,0.173,1.201,0.518s0.496,0.791,0.496,1.338c0,0.359-0.078,0.693-0.233,1.002s-0.369,0.545-0.642,0.709
				c-0.271,0.164-0.58,0.246-0.926,0.246c-0.588,0-1.068-0.216-1.439-0.646c-0.371-0.432-0.557-1.141-0.557-2.13
				c0-1.106,0.205-1.91,0.617-2.413c0.359-0.437,0.843-0.655,1.451-0.655c0.453,0,0.824,0.126,1.113,0.378
				C40.988,34.647,41.162,34.995,41.219,35.439z M38.329,37.91c0,0.242,0.052,0.474,0.155,0.694s0.247,0.39,0.43,0.505
				c0.183,0.116,0.38,0.174,0.589,0.174c0.304,0,0.562-0.12,0.773-0.358c0.212-0.24,0.318-0.564,0.318-0.976
				c0-0.396-0.104-0.706-0.314-0.935c-0.209-0.227-0.478-0.341-0.805-0.341c-0.319,0-0.59,0.114-0.813,0.341
				C38.44,37.243,38.329,37.541,38.329,37.91z"/>
		</g>
		<path i:knockout="Off" fill="none" stroke="#000000" stroke-width="0.7" d="M33.769,30.93v12.756"/>
		<path i:knockout="Off" fill="none" stroke="#000000" stroke-width="0.7" d="M11.092,42.268h34.015"/>
		<path i:knockout="Off" fill="none" stroke="#000000" stroke-width="1.2" d="M47.092,45.67H9.108V3.434h37.984V45.67z"/>
		<path i:knockout="Off" fill="none" stroke="#000000" stroke-width="1.2" d="M36.604,3.434H19.596V0.6h17.008V3.434z"/>
		<path i:knockout="Off" fill="none" stroke="#000000" stroke-width="0.7" d="M33.998,18.561L45.107,30.93"/>
		<path i:knockout="Off" fill="none" stroke="#000000" stroke-width="0.7" d="M45.107,18.561L33.998,30.93"/>
		<path i:knockout="Off" fill="none" stroke="#000000" stroke-width="1.2" d="M12.85,3.434V0.6H0.6v2.834h5.25V45.67H0.6v2.842
			h12.25V45.67"/>
	</g>
</svg>
