<?xml version="1.0" encoding="utf-8"?>
<!-- Generator: Adobe Illustrator 10.0, SVG Export Plug-In . SVG Version: 3.0.0 Build 77)  -->
<!DOCTYPE svg PUBLIC "-//W3C//DTD SVG 1.0//EN"    "http://www.w3.org/TR/2001/REC-SVG-20010904/DTD/svg10.dtd" [
	<!ENTITY ns_flows "http://ns.adobe.com/Flows/1.0/">
	<!ENTITY ns_extend "http://ns.adobe.com/Extensibility/1.0/">
	<!ENTITY ns_ai "http://ns.adobe.com/AdobeIllustrator/10.0/">
	<!ENTITY ns_graphs "http://ns.adobe.com/Graphs/1.0/">
	<!ENTITY ns_vars "http://ns.adobe.com/Variables/1.0/">
	<!ENTITY ns_imrep "http://ns.adobe.com/ImageReplacement/1.0/">
	<!ENTITY ns_sfw "http://ns.adobe.com/SaveForWeb/1.0/">
	<!ENTITY ns_custom "http://ns.adobe.com/GenericCustomNamespace/1.0/">
	<!ENTITY ns_adobe_xpath "http://ns.adobe.com/XPath/1.0/">
	<!ENTITY ns_svg "http://www.w3.org/2000/svg">
	<!ENTITY ns_xlink "http://www.w3.org/1999/xlink">
]>
<svg xmlns:x="&ns_extend;" xmlns:i="&ns_ai;" xmlns:graph="&ns_graphs;" i:viewOrigin="281.6104 429.3843" i:rulerOrigin="0 9.765625e-004" i:pageBounds="0 841.8887 595.2754 -9.765625e-004" xmlns="&ns_svg;" xmlns:xlink="&ns_xlink;" xmlns:a="http://ns.adobe.com/AdobeSVGViewerExtensions/3.0/" width="36.025" height="25.155" viewBox="0 0 36.025 25.155" overflow="visible" enable-background="new 0 0 36.025 25.155" xml:space="preserve" id="svgObj" onload="parent.svgLoad('Top', document)">
	<metadata>
		<variableSets xmlns="&ns_vars;">
			<variableSet varSetName="binding1" locked="none">
				<variables></variables>
				<v:sampleDataSets xmlns="&ns_custom;" xmlns:v="&ns_vars;"></v:sampleDataSets>
			</variableSet>
		</variableSets>
		<sfw xmlns="&ns_sfw;">
			<slices></slices>
			<sliceSourceBounds y="404.229" x="281.61" width="36.025" height="25.155" bottomLeftOrigin="true"></sliceSourceBounds>
		</sfw>
	</metadata>
	<g id="レイヤー_1" i:layer="yes" i:dimmedPercent="50" i:rgbTrio="#4F008000FFFF">
		<g>
			<path i:knockout="Off" fill="none" stroke="#000000" stroke-width="0.7" stroke-linecap="round" d="M10.806,20.019
				c3.131,0,5.668-2.538,5.668-5.669s-2.537-5.67-5.668-5.67s-5.67,2.539-5.67,5.67S7.675,20.019,10.806,20.019z"/>
			<path i:knockout="Off" fill="none" stroke="#000000" stroke-width="0.7" stroke-linecap="round" d="M25.138,20.019
				c3.131,0,5.67-2.538,5.67-5.669s-2.539-5.67-5.67-5.67s-5.668,2.539-5.668,5.67S22.007,20.019,25.138,20.019z"/>
			<path i:knockout="Off" fill="none" stroke="#000000" stroke-width="1.2" stroke-linecap="round" d="M20.763,4.001V0.6h-5.67
				v3.401H20.763z"/>
			<g i:knockout="Off">
				<path i:knockout="Off" d="M12.542,16.074v0.672H8.745c-0.005-0.169,0.022-0.332,0.083-0.488c0.097-0.258,0.252-0.511,0.467-0.76
					c0.214-0.248,0.521-0.537,0.92-0.864c0.62-0.517,1.04-0.923,1.261-1.221s0.332-0.58,0.332-0.849c0-0.277-0.1-0.513-0.299-0.703
					c-0.2-0.191-0.46-0.287-0.781-0.287c-0.339,0-0.61,0.104-0.814,0.311c-0.204,0.208-0.307,0.494-0.309,0.861l-0.719-0.094
					c0.049-0.539,0.235-0.949,0.558-1.232c0.323-0.282,0.756-0.424,1.3-0.424c0.549,0,0.983,0.152,1.303,0.457
					s0.48,0.683,0.48,1.133c0,0.229-0.047,0.455-0.14,0.677c-0.094,0.222-0.248,0.454-0.465,0.699
					c-0.216,0.245-0.576,0.581-1.081,1.009c-0.423,0.355-0.695,0.596-0.815,0.723c-0.12,0.126-0.219,0.253-0.297,0.381H12.542z"/>
			</g>
			<g i:knockout="Off">
				<path i:knockout="Off" d="M25.835,16.766h-0.703v-4.48c-0.17,0.161-0.392,0.323-0.666,0.484
					c-0.275,0.161-0.521,0.282-0.74,0.363v-0.68c0.393-0.185,0.736-0.409,1.031-0.672c0.294-0.263,0.502-0.519,0.625-0.766h0.453
					V16.766z"/>
			</g>
			<path i:knockout="Off" fill="none" stroke="#000000" stroke-width="1.2" stroke-linecap="round" d="M25.231,4.145
				c2.727,0,5.289,1.062,7.217,2.988c1.928,1.928,2.988,4.49,2.988,7.217c0,5.627-4.578,10.205-10.205,10.205H10.794
				c-2.727,0-5.289-1.063-7.217-2.99c-1.928-1.927-2.988-4.489-2.988-7.215c0-2.727,1.061-5.289,2.988-7.217
				c1.928-1.927,4.49-2.988,7.217-2.988H25.231z"/>
			<path i:knockout="Off" fill="none" stroke="#000000" stroke-width="0.7" stroke-linecap="round" d="M10.794,6.413
				c-4.385,0-7.938,3.554-7.938,7.938c0,4.383,3.553,7.937,7.938,7.937h14.438c4.385,0,7.938-3.554,7.938-7.937
				c0-4.384-3.553-7.938-7.938-7.938H10.794z"/>
			<path i:knockout="Off" fill="none" stroke="#000000" stroke-width="0.7" stroke-linecap="round" d="M18.013,6.371v15.75"/>
		</g>
	</g>
</svg>
