<?xml version="1.0" encoding="utf-8"?>
<!-- Generator: Adobe Illustrator 10.0, SVG Export Plug-In . SVG Version: 3.0.0 Build 77)  -->
<!DOCTYPE svg PUBLIC "-//W3C//DTD SVG 1.0//EN"    "http://www.w3.org/TR/2001/REC-SVG-20010904/DTD/svg10.dtd" [
	<!ENTITY ns_flows "http://ns.adobe.com/Flows/1.0/">
	<!ENTITY ns_extend "http://ns.adobe.com/Extensibility/1.0/">
	<!ENTITY ns_ai "http://ns.adobe.com/AdobeIllustrator/10.0/">
	<!ENTITY ns_graphs "http://ns.adobe.com/Graphs/1.0/">
	<!ENTITY ns_vars "http://ns.adobe.com/Variables/1.0/">
	<!ENTITY ns_imrep "http://ns.adobe.com/ImageReplacement/1.0/">
	<!ENTITY ns_sfw "http://ns.adobe.com/SaveForWeb/1.0/">
	<!ENTITY ns_custom "http://ns.adobe.com/GenericCustomNamespace/1.0/">
	<!ENTITY ns_adobe_xpath "http://ns.adobe.com/XPath/1.0/">
	<!ENTITY ns_svg "http://www.w3.org/2000/svg">
	<!ENTITY ns_xlink "http://www.w3.org/1999/xlink">
]>
<svg xmlns:x="&ns_extend;" xmlns:i="&ns_ai;" xmlns:graph="&ns_graphs;" i:viewOrigin="281.9502 433.6396" i:rulerOrigin="-1 0.1104" i:pageBounds="1 841.8896 596 -0.1104" xmlns="&ns_svg;" xmlns:xlink="&ns_xlink;" xmlns:a="http://ns.adobe.com/AdobeSVGViewerExtensions/3.0/" width="35.253" height="22.966" viewBox="0 0 35.253 22.966" overflow="visible" enable-background="new 0 0 35.253 22.966" xml:space="preserve" id="svgObj" onload="parent.svgLoad('Top', document)">
	<metadata>
		<variableSets xmlns="&ns_vars;">
			<variableSet varSetName="binding1" locked="none">
				<variables></variables>
				<v:sampleDataSets xmlns="&ns_custom;" xmlns:v="&ns_vars;"></v:sampleDataSets>
			</variableSet>
		</variableSets>
		<sfw xmlns="&ns_sfw;">
			<slices></slices>
			<sliceSourceBounds y="388.708" x="257.815" width="80.371" height="63.363" bottomLeftOrigin="true"></sliceSourceBounds>
		</sfw>
	</metadata>
	<g id="レイヤー_1" i:layer="yes" i:dimmedPercent="100" i:rgbTrio="#4F008000FFFF">
		<g>
			<g>
				<path i:knockout="Off" fill="none" stroke="#000000" stroke-width="1.2" d="M19.368,4.014V0.6H12.54v3.414"/>
				<path i:knockout="Off" fill="none" stroke="#000000" stroke-width="0.7" d="M2.807,19.694V6.514h12.364v13.18H2.807z"/>
				<path i:knockout="Off" fill="none" stroke="#000000" stroke-width="1.2" d="M31.159,22.366V4.014H0.6v18.352H31.159z"/>
				<g i:knockout="Off">
					<path i:knockout="Off" d="M11.132,14.565v0.672H7.335c-0.005-0.169,0.022-0.332,0.083-0.488
						c0.097-0.258,0.252-0.511,0.467-0.76c0.214-0.249,0.521-0.537,0.92-0.864c0.62-0.516,1.04-0.923,1.261-1.221
						s0.332-0.58,0.332-0.849c0-0.278-0.1-0.513-0.299-0.704s-0.46-0.287-0.781-0.287c-0.339,0-0.61,0.104-0.814,0.311
						s-0.307,0.494-0.309,0.861l-0.719-0.094c0.049-0.539,0.235-0.95,0.558-1.232c0.323-0.282,0.756-0.424,1.3-0.424
						c0.549,0,0.983,0.152,1.303,0.457s0.48,0.683,0.48,1.133c0,0.229-0.047,0.455-0.14,0.676c-0.094,0.221-0.248,0.454-0.465,0.699
						c-0.216,0.245-0.576,0.581-1.081,1.009c-0.423,0.354-0.695,0.596-0.815,0.722c-0.12,0.127-0.219,0.254-0.297,0.382H11.132z"/>
				</g>
				<path i:knockout="Off" fill="none" stroke="#000000" stroke-width="1.2" d="M31.536,7.317h3.117V3.993h-3.117"/>
				<path i:knockout="Off" fill="none" stroke="#000000" stroke-width="0.7" d="M2.738,18.093h12.378"/>
				<path i:knockout="Off" fill="none" stroke="#000000" stroke-width="0.7" d="M16.727,19.694V6.514H29.09v13.18H16.727z"/>
				<g i:knockout="Off">
					<path i:knockout="Off" d="M24.012,15.237h-0.703v-4.48c-0.169,0.162-0.392,0.323-0.666,0.484
						c-0.274,0.162-0.521,0.283-0.74,0.363v-0.68c0.394-0.185,0.737-0.409,1.031-0.672c0.294-0.263,0.503-0.518,0.625-0.766h0.453
						V15.237z"/>
				</g>
				<path i:knockout="Off" fill="none" stroke="#000000" stroke-width="0.7" d="M16.657,18.093h12.379"/>
			</g>
		</g>
	</g>
</svg>
