<?xml version="1.0" encoding="utf-8"?>
<!-- Generator: Adobe Illustrator 10.0, SVG Export Plug-In . SVG Version: 3.0.0 Build 77)  -->
<!DOCTYPE svg PUBLIC "-//W3C//DTD SVG 1.0//EN"    "http://www.w3.org/TR/2001/REC-SVG-20010904/DTD/svg10.dtd" [
	<!ENTITY ns_flows "http://ns.adobe.com/Flows/1.0/">
	<!ENTITY ns_extend "http://ns.adobe.com/Extensibility/1.0/">
	<!ENTITY ns_ai "http://ns.adobe.com/AdobeIllustrator/10.0/">
	<!ENTITY ns_graphs "http://ns.adobe.com/Graphs/1.0/">
	<!ENTITY ns_vars "http://ns.adobe.com/Variables/1.0/">
	<!ENTITY ns_imrep "http://ns.adobe.com/ImageReplacement/1.0/">
	<!ENTITY ns_sfw "http://ns.adobe.com/SaveForWeb/1.0/">
	<!ENTITY ns_custom "http://ns.adobe.com/GenericCustomNamespace/1.0/">
	<!ENTITY ns_adobe_xpath "http://ns.adobe.com/XPath/1.0/">
	<!ENTITY ns_svg "http://www.w3.org/2000/svg">
	<!ENTITY ns_xlink "http://www.w3.org/1999/xlink">
]>
<svg xmlns:x="&ns_extend;" xmlns:i="&ns_ai;" xmlns:graph="&ns_graphs;" i:viewOrigin="272.833 470.9409" i:rulerOrigin="0 0" i:pageBounds="0 841.8896 595.2754 0" xmlns="&ns_svg;" xmlns:xlink="&ns_xlink;" xmlns:a="http://ns.adobe.com/AdobeSVGViewerExtensions/3.0/" width="56.734" height="18.963" viewBox="0 0 56.734 18.963" overflow="visible" enable-background="new 0 0 56.734 18.963" xml:space="preserve" id="svgObj" onload="parent.svgLoad('Top', document)">
	<metadata>
		<variableSets xmlns="&ns_vars;">
			<variableSet varSetName="binding1" locked="none">
				<variables></variables>
				<v:sampleDataSets xmlns="&ns_custom;" xmlns:v="&ns_vars;"></v:sampleDataSets>
			</variableSet>
		</variableSets>
		<sfw xmlns="&ns_sfw;">
			<slices></slices>
			<sliceSourceBounds y="426.027" x="262.5" width="80.37" height="63.362" bottomLeftOrigin="true"></sliceSourceBounds>
		</sfw>
	</metadata>
	<g id="レイヤー_1" i:layer="yes" i:dimmedPercent="100" i:rgbTrio="#4F008000FFFF">
		<g>
			<g i:knockout="Off">
				<path i:knockout="Off" d="M9.974,14.224H9.271v-4.48c-0.169,0.162-0.392,0.323-0.666,0.484c-0.275,0.162-0.521,0.283-0.74,0.363
					v-0.68c0.393-0.185,0.737-0.409,1.031-0.672c0.294-0.263,0.502-0.518,0.625-0.766h0.453V14.224z"/>
				<path i:knockout="Off" d="M23.71,13.552v0.672h-3.797c-0.005-0.169,0.022-0.332,0.083-0.488c0.097-0.258,0.253-0.511,0.467-0.76
					c0.214-0.249,0.521-0.537,0.92-0.864c0.62-0.516,1.04-0.923,1.261-1.221c0.221-0.297,0.332-0.581,0.332-0.848
					c0-0.278-0.1-0.513-0.299-0.704c-0.2-0.191-0.46-0.287-0.781-0.287c-0.339,0-0.611,0.104-0.814,0.311
					c-0.204,0.207-0.307,0.494-0.309,0.861l-0.719-0.094c0.049-0.539,0.235-0.95,0.558-1.232c0.323-0.283,0.756-0.424,1.3-0.424
					c0.549,0,0.983,0.153,1.303,0.458c0.32,0.305,0.48,0.682,0.48,1.133c0,0.229-0.047,0.455-0.14,0.676
					c-0.093,0.222-0.248,0.455-0.464,0.7s-0.577,0.581-1.081,1.009c-0.423,0.355-0.695,0.596-0.815,0.722
					c-0.12,0.126-0.219,0.254-0.297,0.381H23.71z"/>
			</g>
			<g i:knockout="Off">
				<path i:knockout="Off" d="M32.851,12.724l0.719-0.094c0.08,0.393,0.215,0.676,0.404,0.849c0.19,0.174,0.426,0.26,0.707,0.26
					c0.333,0,0.611-0.115,0.835-0.344s0.335-0.514,0.335-0.854c0-0.323-0.104-0.59-0.313-0.8c-0.21-0.21-0.476-0.315-0.798-0.315
					c-0.132,0-0.296,0.026-0.492,0.078l0.078-0.625c0.046,0.005,0.083,0.008,0.111,0.008c0.295,0,0.56-0.078,0.795-0.232
					s0.354-0.394,0.354-0.716c0-0.256-0.086-0.468-0.26-0.636c-0.172-0.167-0.396-0.251-0.668-0.251
					c-0.271,0-0.497,0.086-0.678,0.258c-0.18,0.172-0.296,0.43-0.348,0.773l-0.719-0.125c0.086-0.471,0.28-0.836,0.584-1.096
					c0.305-0.259,0.683-0.389,1.135-0.389c0.312,0,0.599,0.067,0.861,0.2c0.262,0.133,0.463,0.316,0.602,0.546
					c0.14,0.23,0.209,0.476,0.209,0.734c0,0.246-0.066,0.471-0.199,0.673s-0.33,0.363-0.59,0.482
					c0.338,0.079,0.604,0.241,0.797,0.487c0.192,0.247,0.289,0.555,0.289,0.926c0,0.5-0.183,0.925-0.547,1.273
					c-0.365,0.348-0.826,0.522-1.383,0.522c-0.503,0-0.92-0.148-1.252-0.444S32.897,13.195,32.851,12.724z"/>
			</g>
			<g i:knockout="Off">
				<path i:knockout="Off" d="M47.752,14.224v-1.375h-2.484v-0.641l2.625-3.719h0.563v3.719h0.781v0.641h-0.781v1.375H47.752z
					 M47.752,12.208V9.641l-1.792,2.567H47.752z"/>
			</g>
			<path i:knockout="Off" fill="none" stroke="#000000" stroke-width="1.1339" d="M24.224,4.258V0.567h8.236v3.691"/>
			<path i:knockout="Off" fill="none" stroke="#000000" stroke-width="1.1339" d="M2.833,8.123H0.567V4.4h2.266"/>
			<path i:knockout="Off" fill="none" stroke="#000000" stroke-width="1.1339" d="M53.9,4.4h2.267v3.722H53.9"/>
			<path i:knockout="Off" fill="none" stroke="#000000" stroke-width="1.1339" d="M53.87,18.396H2.833V4.4H53.87V18.396z"/>
			<path i:knockout="Off" fill="none" stroke="#000000" stroke-width="0.5669" d="M41.11,4.4v13.996 M28.353,4.4v13.996 M15.592,4.4
				v13.996 M2.833,16.027H53.87"/>
		</g>
	</g>
</svg>
