<?xml version="1.0" encoding="utf-8"?>
<!-- Generator: Adobe Illustrator 10.0, SVG Export Plug-In . SVG Version: 3.0.0 Build 77)  -->
<!DOCTYPE svg PUBLIC "-//W3C//DTD SVG 1.0//EN"    "http://www.w3.org/TR/2001/REC-SVG-20010904/DTD/svg10.dtd" [
	<!ENTITY ns_flows "http://ns.adobe.com/Flows/1.0/">
	<!ENTITY ns_extend "http://ns.adobe.com/Extensibility/1.0/">
	<!ENTITY ns_ai "http://ns.adobe.com/AdobeIllustrator/10.0/">
	<!ENTITY ns_graphs "http://ns.adobe.com/Graphs/1.0/">
	<!ENTITY ns_vars "http://ns.adobe.com/Variables/1.0/">
	<!ENTITY ns_imrep "http://ns.adobe.com/ImageReplacement/1.0/">
	<!ENTITY ns_sfw "http://ns.adobe.com/SaveForWeb/1.0/">
	<!ENTITY ns_custom "http://ns.adobe.com/GenericCustomNamespace/1.0/">
	<!ENTITY ns_adobe_xpath "http://ns.adobe.com/XPath/1.0/">
	<!ENTITY ns_svg "http://www.w3.org/2000/svg">
	<!ENTITY ns_xlink "http://www.w3.org/1999/xlink">
]>
<svg xmlns:x="&ns_extend;" xmlns:i="&ns_ai;" xmlns:graph="&ns_graphs;" i:viewOrigin="248.291 459.1509" i:rulerOrigin="8 -24.8896" i:pageBounds="-8 816.8896 604 24.8896" xmlns="&ns_svg;" xmlns:xlink="&ns_xlink;" xmlns:a="http://ns.adobe.com/AdobeSVGViewerExtensions/3.0/" width="99.536" height="75.02" viewBox="0 0 99.536 75.02" overflow="visible" enable-background="new 0 0 99.536 75.02" xml:space="preserve" id="svgObj" onload="parent.svgLoad('Top', document)">
	<metadata>
		<variableSets xmlns="&ns_vars;">
			<variableSet varSetName="binding1" locked="none">
				<variables></variables>
				<v:sampleDataSets xmlns="&ns_custom;" xmlns:v="&ns_vars;"></v:sampleDataSets>
			</variableSet>
		</variableSets>
		<sfw xmlns="&ns_sfw;">
			<slices></slices>
			<sliceSourceBounds y="384.131" x="218.13" width="159.74" height="75.02" bottomLeftOrigin="true"></sliceSourceBounds>
		</sfw>
	</metadata>
	<g id="レイヤー_1" i:layer="yes" i:dimmedPercent="100" i:rgbTrio="#4F008000FFFF">
		<g>
			<path i:knockout="Off" fill="none" stroke="#000000" stroke-width="0.7" stroke-linecap="round" d="M15.141,16.426V4.086h11.34
				v12.34H15.141z"/>
			<g i:knockout="Off">
				<path i:knockout="Off" d="M18.06,12.366l2.2-5.734h0.837l2.307,5.734h-0.862l-0.654-1.734h-2.396l-0.622,1.734H18.06z
					 M19.709,10.006h1.948l-0.597-1.58c-0.178-0.483-0.312-0.879-0.402-1.186c-0.073,0.369-0.179,0.733-0.315,1.094L19.709,10.006z"/>
			</g>
			<path i:knockout="Off" fill="none" stroke="#000000" stroke-width="0.7" stroke-linecap="round" d="M26.356,14.65H15.481"/>
			<path i:knockout="Off" fill="none" stroke="#000000" stroke-width="0.7" stroke-linecap="round" d="M26.453,16.426V4.086h11.34
				v12.34H26.453z"/>
			<g i:knockout="Off">
				<path i:knockout="Off" d="M29.372,12.366l2.2-5.734h0.837l2.307,5.734h-0.862L33.2,10.631h-2.396l-0.622,1.734H29.372z
					 M31.022,10.006h1.948l-0.597-1.58c-0.178-0.483-0.312-0.879-0.402-1.186c-0.073,0.369-0.179,0.733-0.315,1.094L31.022,10.006z"/>
			</g>
			<path i:knockout="Off" fill="none" stroke="#000000" stroke-width="0.7" stroke-linecap="round" d="M37.668,14.65H26.793"/>
			<path i:knockout="Off" fill="none" stroke="#000000" stroke-width="0.7" stroke-linecap="round" d="M37.766,16.426V4.086h11.34
				v12.34H37.766z"/>
			<g i:knockout="Off">
				<path i:knockout="Off" d="M40.685,12.366l2.2-5.734h0.837l2.307,5.734h-0.862l-0.654-1.734h-2.396l-0.622,1.734H40.685z
					 M42.334,10.006h1.948l-0.597-1.58c-0.178-0.483-0.312-0.879-0.402-1.186c-0.073,0.369-0.179,0.733-0.315,1.094L42.334,10.006z"/>
			</g>
			<path i:knockout="Off" fill="none" stroke="#000000" stroke-width="0.7" stroke-linecap="round" d="M48.981,14.65H38.106"/>
			<path i:knockout="Off" fill="none" stroke="#000000" stroke-width="0.7" stroke-linecap="round" d="M49.078,16.426V4.086h11.341
				v12.34H49.078z"/>
			<g i:knockout="Off">
				<path i:knockout="Off" d="M51.997,12.366l2.2-5.734h0.837l2.307,5.734h-0.862l-0.654-1.734h-2.396l-0.622,1.734H51.997z
					 M53.646,10.006h1.949l-0.598-1.58c-0.178-0.483-0.312-0.879-0.402-1.186c-0.073,0.369-0.179,0.733-0.315,1.094L53.646,10.006z"/>
			</g>
			<path i:knockout="Off" fill="none" stroke="#000000" stroke-width="0.7" stroke-linecap="round" d="M60.294,14.65H49.418"/>
			<path i:knockout="Off" fill="none" stroke="#000000" stroke-width="0.7" stroke-linecap="round" d="M60.391,16.426V4.086h11.341
				v12.34H60.391z"/>
			<g i:knockout="Off">
				<path i:knockout="Off" d="M63.31,12.366l2.2-5.734h0.837l2.307,5.734h-0.862l-0.654-1.734h-2.396l-0.622,1.734H63.31z
					 M64.959,10.006h1.949l-0.598-1.58c-0.178-0.483-0.312-0.879-0.402-1.186c-0.073,0.369-0.179,0.733-0.315,1.094L64.959,10.006z"/>
			</g>
			<path i:knockout="Off" fill="none" stroke="#000000" stroke-width="0.7" stroke-linecap="round" d="M71.606,14.65H60.731"/>
			<path i:knockout="Off" fill="none" stroke="#000000" stroke-width="0.7" stroke-linecap="round" d="M71.703,16.426V4.086h11.341
				v12.34H71.703z"/>
			<g i:knockout="Off">
				<path i:knockout="Off" d="M74.622,12.366l2.2-5.734h0.837l2.307,5.734h-0.862l-0.654-1.734h-2.396l-0.622,1.734H74.622z
					 M76.271,10.006h1.949l-0.598-1.58c-0.178-0.483-0.312-0.879-0.402-1.186c-0.073,0.369-0.179,0.733-0.315,1.094L76.271,10.006z"/>
			</g>
			<path i:knockout="Off" fill="none" stroke="#000000" stroke-width="0.7" stroke-linecap="round" d="M82.919,14.65H72.044"/>
			<path i:knockout="Off" fill="none" stroke="#000000" stroke-width="0.7" stroke-linecap="round" d="M15.141,28.778v-12.34h11.34
				v12.34H15.141z"/>
			<g i:knockout="Off">
				<path i:knockout="Off" d="M18.669,24.719v-5.734h2.148c0.438,0,0.788,0.058,1.053,0.174c0.264,0.116,0.471,0.295,0.621,0.537
					c0.149,0.242,0.225,0.494,0.225,0.758c0,0.246-0.067,0.477-0.2,0.694s-0.335,0.392-0.604,0.525
					c0.349,0.102,0.617,0.275,0.805,0.52c0.188,0.245,0.281,0.534,0.281,0.867c0,0.269-0.057,0.518-0.17,0.748
					s-0.254,0.408-0.42,0.533c-0.167,0.125-0.376,0.22-0.627,0.283c-0.252,0.064-0.56,0.096-0.925,0.096H18.669z M19.435,21.407
					h1.232c0.334,0,0.574-0.022,0.72-0.067c0.191-0.058,0.336-0.154,0.434-0.288c0.097-0.134,0.146-0.303,0.146-0.506
					c0-0.192-0.045-0.361-0.136-0.508c-0.091-0.146-0.22-0.246-0.389-0.3s-0.458-0.081-0.867-0.081h-1.139V21.407z M19.435,24.047
					h1.426c0.245,0,0.417-0.009,0.516-0.027c0.174-0.031,0.32-0.083,0.438-0.156c0.117-0.073,0.213-0.179,0.289-0.318
					c0.075-0.139,0.113-0.3,0.113-0.482c0-0.213-0.057-0.399-0.17-0.557c-0.113-0.157-0.266-0.268-0.459-0.332
					c-0.193-0.063-0.472-0.096-0.834-0.096h-1.318V24.047z"/>
			</g>
			<path i:knockout="Off" fill="none" stroke="#000000" stroke-width="0.7" stroke-linecap="round" d="M26.356,26.481H15.481"/>
			<path i:knockout="Off" fill="none" stroke="#000000" stroke-width="0.7" stroke-linecap="round" d="M26.453,28.778v-12.34h11.34
				v12.34H26.453z"/>
			<g i:knockout="Off">
				<path i:knockout="Off" d="M29.981,24.719v-5.734h2.148c0.438,0,0.788,0.058,1.053,0.174c0.264,0.116,0.471,0.295,0.621,0.537
					c0.149,0.242,0.225,0.494,0.225,0.758c0,0.246-0.067,0.477-0.2,0.694s-0.335,0.392-0.604,0.525
					c0.349,0.102,0.617,0.275,0.805,0.52c0.188,0.245,0.281,0.534,0.281,0.867c0,0.269-0.057,0.518-0.17,0.748
					s-0.254,0.408-0.42,0.533c-0.167,0.125-0.376,0.22-0.627,0.283c-0.252,0.064-0.56,0.096-0.925,0.096H29.981z M30.747,21.407
					h1.232c0.334,0,0.574-0.022,0.72-0.067c0.191-0.058,0.336-0.154,0.434-0.288c0.097-0.134,0.146-0.303,0.146-0.506
					c0-0.192-0.045-0.361-0.136-0.508c-0.091-0.146-0.22-0.246-0.389-0.3s-0.458-0.081-0.867-0.081h-1.139V21.407z M30.747,24.047
					h1.426c0.245,0,0.417-0.009,0.516-0.027c0.174-0.031,0.32-0.083,0.438-0.156c0.117-0.073,0.213-0.179,0.289-0.318
					c0.075-0.139,0.113-0.3,0.113-0.482c0-0.213-0.057-0.399-0.17-0.557c-0.113-0.157-0.266-0.268-0.459-0.332
					c-0.193-0.063-0.472-0.096-0.834-0.096h-1.318V24.047z"/>
			</g>
			<path i:knockout="Off" fill="none" stroke="#000000" stroke-width="0.7" stroke-linecap="round" d="M37.668,26.481H26.793"/>
			<path i:knockout="Off" fill="none" stroke="#000000" stroke-width="0.7" stroke-linecap="round" d="M37.766,28.778v-12.34h11.34
				v12.34H37.766z"/>
			<g i:knockout="Off">
				<path i:knockout="Off" d="M41.294,24.719v-5.734h2.148c0.438,0,0.788,0.058,1.053,0.174c0.264,0.116,0.471,0.295,0.621,0.537
					c0.149,0.242,0.225,0.494,0.225,0.758c0,0.246-0.067,0.477-0.2,0.694s-0.335,0.392-0.604,0.525
					c0.349,0.102,0.617,0.275,0.805,0.52c0.188,0.245,0.281,0.534,0.281,0.867c0,0.269-0.057,0.518-0.17,0.748
					s-0.254,0.408-0.42,0.533c-0.167,0.125-0.376,0.22-0.627,0.283c-0.252,0.064-0.56,0.096-0.925,0.096H41.294z M42.06,21.407
					h1.232c0.334,0,0.574-0.022,0.72-0.067c0.191-0.058,0.336-0.154,0.434-0.288c0.097-0.134,0.146-0.303,0.146-0.506
					c0-0.192-0.045-0.361-0.136-0.508c-0.091-0.146-0.22-0.246-0.389-0.3s-0.458-0.081-0.867-0.081H42.06V21.407z M42.06,24.047
					h1.426c0.245,0,0.417-0.009,0.516-0.027c0.174-0.031,0.32-0.083,0.438-0.156c0.117-0.073,0.213-0.179,0.289-0.318
					c0.075-0.139,0.113-0.3,0.113-0.482c0-0.213-0.057-0.399-0.17-0.557c-0.113-0.157-0.266-0.268-0.459-0.332
					c-0.193-0.063-0.472-0.096-0.834-0.096H42.06V24.047z"/>
			</g>
			<path i:knockout="Off" fill="none" stroke="#000000" stroke-width="0.7" stroke-linecap="round" d="M48.981,26.481H38.106"/>
			<path i:knockout="Off" fill="none" stroke="#000000" stroke-width="0.7" stroke-linecap="round" d="M49.078,28.778v-12.34h11.341
				v12.34H49.078z"/>
			<g i:knockout="Off">
				<path i:knockout="Off" d="M52.606,24.719v-5.734h2.148c0.438,0,0.788,0.058,1.053,0.174s0.472,0.295,0.621,0.537
					c0.149,0.242,0.225,0.494,0.225,0.758c0,0.246-0.067,0.477-0.2,0.694s-0.335,0.392-0.604,0.525
					c0.349,0.102,0.617,0.275,0.805,0.52c0.188,0.245,0.281,0.534,0.281,0.867c0,0.269-0.057,0.518-0.17,0.748
					s-0.254,0.408-0.421,0.533c-0.166,0.125-0.376,0.22-0.627,0.283c-0.252,0.064-0.561,0.096-0.925,0.096H52.606z M53.372,21.407
					h1.232c0.335,0,0.574-0.022,0.72-0.067c0.191-0.058,0.336-0.154,0.434-0.288c0.097-0.134,0.146-0.303,0.146-0.506
					c0-0.192-0.046-0.361-0.136-0.508c-0.092-0.146-0.221-0.246-0.389-0.3c-0.169-0.054-0.458-0.081-0.867-0.081h-1.14V21.407z
					 M53.372,24.047h1.426c0.245,0,0.417-0.009,0.516-0.027c0.175-0.031,0.32-0.083,0.438-0.156
					c0.117-0.073,0.214-0.179,0.289-0.318c0.075-0.139,0.113-0.3,0.113-0.482c0-0.213-0.057-0.399-0.17-0.557
					c-0.113-0.157-0.267-0.268-0.459-0.332c-0.193-0.063-0.472-0.096-0.834-0.096h-1.318V24.047z"/>
			</g>
			<path i:knockout="Off" fill="none" stroke="#000000" stroke-width="0.7" stroke-linecap="round" d="M60.294,26.481H49.418"/>
			<path i:knockout="Off" fill="none" stroke="#000000" stroke-width="0.7" stroke-linecap="round" d="M60.391,28.778v-12.34h11.341
				v12.34H60.391z"/>
			<g i:knockout="Off">
				<path i:knockout="Off" d="M63.919,24.719v-5.734h2.148c0.438,0,0.788,0.058,1.053,0.174s0.472,0.295,0.621,0.537
					c0.149,0.242,0.225,0.494,0.225,0.758c0,0.246-0.067,0.477-0.2,0.694s-0.335,0.392-0.604,0.525
					c0.349,0.102,0.617,0.275,0.805,0.52c0.188,0.245,0.281,0.534,0.281,0.867c0,0.269-0.057,0.518-0.17,0.748
					s-0.254,0.408-0.421,0.533c-0.166,0.125-0.376,0.22-0.627,0.283c-0.252,0.064-0.561,0.096-0.925,0.096H63.919z M64.685,21.407
					h1.232c0.335,0,0.574-0.022,0.72-0.067c0.191-0.058,0.336-0.154,0.434-0.288c0.097-0.134,0.146-0.303,0.146-0.506
					c0-0.192-0.046-0.361-0.136-0.508c-0.092-0.146-0.221-0.246-0.389-0.3c-0.169-0.054-0.458-0.081-0.867-0.081h-1.14V21.407z
					 M64.685,24.047h1.426c0.245,0,0.417-0.009,0.516-0.027c0.175-0.031,0.32-0.083,0.438-0.156
					c0.117-0.073,0.214-0.179,0.289-0.318c0.075-0.139,0.113-0.3,0.113-0.482c0-0.213-0.057-0.399-0.17-0.557
					c-0.113-0.157-0.267-0.268-0.459-0.332c-0.193-0.063-0.472-0.096-0.834-0.096h-1.318V24.047z"/>
			</g>
			<path i:knockout="Off" fill="none" stroke="#000000" stroke-width="0.7" stroke-linecap="round" d="M71.606,26.481H60.731"/>
			<path i:knockout="Off" fill="none" stroke="#000000" stroke-width="0.7" stroke-linecap="round" d="M71.703,28.778v-12.34h11.341
				v12.34H71.703z"/>
			<g i:knockout="Off">
				<path i:knockout="Off" d="M75.231,24.719v-5.734h2.148c0.438,0,0.788,0.058,1.053,0.174s0.472,0.295,0.621,0.537
					c0.149,0.242,0.225,0.494,0.225,0.758c0,0.246-0.067,0.477-0.2,0.694s-0.335,0.392-0.604,0.525
					c0.349,0.102,0.617,0.275,0.805,0.52c0.188,0.245,0.281,0.534,0.281,0.867c0,0.269-0.057,0.518-0.17,0.748
					s-0.254,0.408-0.421,0.533c-0.166,0.125-0.376,0.22-0.627,0.283c-0.252,0.064-0.561,0.096-0.925,0.096H75.231z M75.997,21.407
					h1.232c0.335,0,0.574-0.022,0.72-0.067c0.191-0.058,0.336-0.154,0.434-0.288c0.097-0.134,0.146-0.303,0.146-0.506
					c0-0.192-0.046-0.361-0.136-0.508c-0.092-0.146-0.221-0.246-0.389-0.3c-0.169-0.054-0.458-0.081-0.867-0.081h-1.14V21.407z
					 M75.997,24.047h1.426c0.245,0,0.417-0.009,0.516-0.027c0.175-0.031,0.32-0.083,0.438-0.156
					c0.117-0.073,0.214-0.179,0.289-0.318c0.075-0.139,0.113-0.3,0.113-0.482c0-0.213-0.057-0.399-0.17-0.557
					c-0.113-0.157-0.267-0.268-0.459-0.332c-0.193-0.063-0.472-0.096-0.834-0.096h-1.318V24.047z"/>
			</g>
			<path i:knockout="Off" fill="none" stroke="#000000" stroke-width="0.7" stroke-linecap="round" d="M82.919,26.481H72.044"/>
			<g>
				<g>
					<g>
						<path i:knockout="Off" fill="none" stroke="#000000" stroke-width="1.2" stroke-linecap="round" d="M43.786,3.959V0.6h10.743
							v3.359"/>
					</g>
				</g>
				<g>
					<g>
						<path i:knockout="Off" fill="none" stroke="#000000" stroke-width="1.2" stroke-linecap="round" d="M15.146,3.808V2.02h2.25
							v1.788"/>
					</g>
				</g>
				<g>
					<g>
						<path i:knockout="Off" fill="none" stroke="#000000" stroke-width="1.2" stroke-linecap="round" d="M80.802,3.808V2.02h2.25
							v1.788"/>
					</g>
				</g>
			</g>
			<path i:knockout="Off" fill="none" stroke="#000000" stroke-width="1.2" stroke-linecap="round" d="M83.044,28.778V4.036H15.146
				v24.742H83.044z"/>
			<path i:knockout="Off" fill="none" stroke="#000000" stroke-width="1.2" stroke-linecap="round" d="M84.664,74.42V38.39H13.551
				v36.03H84.664z"/>
		</g>
		<g>
			<g>
				<g>
					<g>
						<path i:knockout="Off" fill="none" stroke="#000000" stroke-width="0.7" stroke-linecap="round" d="M43.786,44.622v-2.992
							h10.743v2.992"/>
					</g>
				</g>
				<g>
					<g>
						<path i:knockout="Off" fill="none" stroke="#000000" stroke-width="0.7" stroke-linecap="round" d="M15.146,44.7v-1.789h2.25
							V44.7"/>
					</g>
				</g>
				<g>
					<g>
						<path i:knockout="Off" fill="none" stroke="#000000" stroke-width="0.7" stroke-linecap="round" d="M80.802,44.7v-1.789h2.25
							V44.7"/>
					</g>
				</g>
			</g>
			<path i:knockout="Off" fill="none" stroke="#000000" stroke-width="0.7" stroke-linecap="round" d="M83.044,69.668V44.926H15.146
				v24.742H83.044z"/>
		</g>
		<path i:knockout="Off" fill="none" stroke="#000000" stroke-width="0.7" d="M26.489,44.994v24.78"/>
		<path i:knockout="Off" fill="none" stroke="#000000" stroke-width="0.7" d="M37.819,44.994v24.78"/>
		<path i:knockout="Off" fill="none" stroke="#000000" stroke-width="0.7" d="M49.048,44.994v24.78"/>
		<path i:knockout="Off" fill="none" stroke="#000000" stroke-width="0.7" d="M60.378,44.994v24.78"/>
		<path i:knockout="Off" fill="none" stroke="#000000" stroke-width="0.7" d="M71.708,44.994v24.78"/>
		<path i:knockout="Off" fill="none" stroke="#000000" stroke-width="0.7" d="M82.987,57.486h-67.69"/>
		<path i:knockout="Off" fill="none" stroke="#000000" stroke-width="0.7" d="M82.987,55.297h-67.69"/>
		<path i:knockout="Off" fill="none" stroke="#000000" stroke-width="0.7" d="M82.987,67.401h-67.69"/>
		<g>
			<g i:knockout="Off">
				<path i:knockout="Off" d="M6.75,74.705c-1.889-2.385-3.486-5.175-4.792-8.37S0,59.829,0,56.405c0-3.019,0.487-5.91,1.464-8.675
					c1.141-3.209,2.903-6.404,5.286-9.588h2.438c-1.535,2.639-2.55,4.521-3.044,5.649c-0.773,1.751-1.382,3.577-1.825,5.479
					C3.772,51.642,3.5,54.027,3.5,56.423c0,6.101,1.896,12.193,5.688,18.281H6.75z"/>
			</g>
			<g i:knockout="Off">
				<path i:knockout="Off" d="M92.786,74.705h-2.438c3.791-6.088,5.688-12.181,5.688-18.281c0-2.384-0.273-4.749-0.818-7.096
					c-0.432-1.902-1.033-3.729-1.807-5.479c-0.495-1.141-1.516-3.043-3.063-5.707h2.438c2.383,3.184,4.145,6.379,5.286,9.588
					c0.976,2.765,1.464,5.656,1.464,8.675c0,3.424-0.656,6.734-1.968,9.93C96.256,69.53,94.662,72.32,92.786,74.705z"/>
			</g>
		</g>
		<path i:knockout="Off" d="M19.489,50.282c0,0.783,0.635,1.418,1.418,1.418c0.781,0,1.416-0.635,1.416-1.418
			c0-0.782-0.635-1.417-1.416-1.417C20.124,48.865,19.489,49.5,19.489,50.282z"/>
		<path i:knockout="Off" d="M30.904,50.282c0,0.783,0.635,1.418,1.418,1.418c0.781,0,1.416-0.635,1.416-1.418
			c0-0.782-0.635-1.417-1.416-1.417C31.539,48.865,30.904,49.5,30.904,50.282z"/>
		<path i:knockout="Off" d="M42.177,50.282c0,0.783,0.635,1.418,1.418,1.418c0.781,0,1.416-0.635,1.416-1.418
			c0-0.782-0.635-1.417-1.416-1.417C42.812,48.865,42.177,49.5,42.177,50.282z"/>
		<path i:knockout="Off" d="M53.378,50.282c0,0.783,0.635,1.418,1.418,1.418c0.781,0,1.416-0.635,1.416-1.418
			c0-0.782-0.635-1.417-1.416-1.417C54.013,48.865,53.378,49.5,53.378,50.282z"/>
		<path i:knockout="Off" d="M64.793,50.282c0,0.783,0.635,1.418,1.418,1.418c0.781,0,1.416-0.635,1.416-1.418
			c0-0.782-0.635-1.417-1.416-1.417C65.428,48.865,64.793,49.5,64.793,50.282z"/>
		<path i:knockout="Off" d="M76.137,50.282c0,0.783,0.635,1.418,1.418,1.418c0.781,0,1.416-0.635,1.416-1.418
			c0-0.782-0.635-1.417-1.416-1.417C76.771,48.865,76.137,49.5,76.137,50.282z"/>
		<path i:knockout="Off" fill="none" stroke="#000000" stroke-width="0.7" d="M20.907,50.291h56.646"/>
		<path i:knockout="Off" d="M19.489,62.465c0,0.783,0.635,1.418,1.418,1.418c0.781,0,1.416-0.635,1.416-1.418
			c0-0.782-0.635-1.417-1.416-1.417C20.124,61.048,19.489,61.683,19.489,62.465z"/>
		<path i:knockout="Off" d="M30.904,62.465c0,0.783,0.635,1.418,1.418,1.418c0.781,0,1.416-0.635,1.416-1.418
			c0-0.782-0.635-1.417-1.416-1.417C31.539,61.048,30.904,61.683,30.904,62.465z"/>
		<path i:knockout="Off" d="M42.177,62.465c0,0.783,0.635,1.418,1.418,1.418c0.781,0,1.416-0.635,1.416-1.418
			c0-0.782-0.635-1.417-1.416-1.417C42.812,61.048,42.177,61.683,42.177,62.465z"/>
		<path i:knockout="Off" d="M53.378,62.465c0,0.783,0.635,1.418,1.418,1.418c0.781,0,1.416-0.635,1.416-1.418
			c0-0.782-0.635-1.417-1.416-1.417C54.013,61.048,53.378,61.683,53.378,62.465z"/>
		<path i:knockout="Off" d="M64.793,62.465c0,0.783,0.635,1.418,1.418,1.418c0.781,0,1.416-0.635,1.416-1.418
			c0-0.782-0.635-1.417-1.416-1.417C65.428,61.048,64.793,61.683,64.793,62.465z"/>
		<path i:knockout="Off" d="M76.137,62.465c0,0.783,0.635,1.418,1.418,1.418c0.781,0,1.416-0.635,1.416-1.418
			c0-0.782-0.635-1.417-1.416-1.417C76.771,61.048,76.137,61.683,76.137,62.465z"/>
		<path i:knockout="Off" fill="none" stroke="#000000" stroke-width="0.7" d="M20.907,62.474h56.858"/>
		<path i:knockout="Off" fill="none" stroke="#000000" stroke-width="1.2" stroke-linecap="round" d="M26.448,28.824l2.132,3.016
			h40.771l2.357-2.95"/>
		<path i:knockout="Off" fill="none" stroke="#000000" stroke-width="0.7" stroke-linecap="round" d="M26.448,69.74l2.132,3.017
			h40.771l2.357-2.95"/>
	</g>
</svg>
