<?xml version="1.0" encoding="utf-8"?>
<!-- Generator: Adobe Illustrator 10.0, SVG Export Plug-In . SVG Version: 3.0.0 Build 77)  -->
<!DOCTYPE svg PUBLIC "-//W3C//DTD SVG 1.0//EN"    "http://www.w3.org/TR/2001/REC-SVG-20010904/DTD/svg10.dtd" [
	<!ENTITY ns_flows "http://ns.adobe.com/Flows/1.0/">
	<!ENTITY ns_extend "http://ns.adobe.com/Extensibility/1.0/">
	<!ENTITY ns_ai "http://ns.adobe.com/AdobeIllustrator/10.0/">
	<!ENTITY ns_graphs "http://ns.adobe.com/Graphs/1.0/">
	<!ENTITY ns_vars "http://ns.adobe.com/Variables/1.0/">
	<!ENTITY ns_imrep "http://ns.adobe.com/ImageReplacement/1.0/">
	<!ENTITY ns_sfw "http://ns.adobe.com/SaveForWeb/1.0/">
	<!ENTITY ns_custom "http://ns.adobe.com/GenericCustomNamespace/1.0/">
	<!ENTITY ns_adobe_xpath "http://ns.adobe.com/XPath/1.0/">
	<!ENTITY ns_svg "http://www.w3.org/2000/svg">
	<!ENTITY ns_xlink "http://www.w3.org/1999/xlink">
]>
<svg xmlns:x="&ns_extend;" xmlns:i="&ns_ai;" xmlns:graph="&ns_graphs;" i:viewOrigin="261.8525 447.4355" i:rulerOrigin="-1 0.1104" i:pageBounds="1 841.8896 596 -0.1104" xmlns="&ns_svg;" xmlns:xlink="&ns_xlink;" xmlns:a="http://ns.adobe.com/AdobeSVGViewerExtensions/3.0/" width="59.12" height="99.323" viewBox="0 0 59.12 99.323" overflow="visible" enable-background="new 0 0 59.12 99.323" xml:space="preserve" id="svgObj" onload="parent.svgLoad('Top', document)">
	<metadata>
		<variableSets xmlns="&ns_vars;">
			<variableSet varSetName="binding1" locked="none">
				<variables></variables>
				<v:sampleDataSets xmlns="&ns_custom;" xmlns:v="&ns_vars;"></v:sampleDataSets>
			</variableSet>
		</variableSets>
		<sfw xmlns="&ns_sfw;">
			<slices></slices>
			<sliceSourceBounds y="326.345" x="257.815" width="80.371" height="125.726" bottomLeftOrigin="true"></sliceSourceBounds>
		</sfw>
	</metadata>
	<g id="connector" i:layer="yes" i:dimmedPercent="50" i:rgbTrio="#FFFF4F00FFFF">
		<g i:knockout="Off">
			<path i:knockout="Off" d="M0.063,7.203V0.109h1.453v5.875h3.594v1.219H0.063z"/>
			<path i:knockout="Off" d="M5.78,5.317l1.328-0.161C7.15,5.496,7.265,5.755,7.449,5.934c0.186,0.179,0.409,0.269,0.672,0.269
				c0.282,0,0.521-0.108,0.713-0.326s0.29-0.511,0.29-0.88c0-0.349-0.092-0.626-0.276-0.831s-0.41-0.307-0.675-0.307
				c-0.175,0-0.384,0.034-0.627,0.103l0.152-1.103c0.372,0.01,0.656-0.071,0.852-0.242c0.196-0.172,0.293-0.399,0.293-0.684
				c0-0.241-0.071-0.434-0.214-0.577S8.295,1.141,8.058,1.141c-0.234,0-0.434,0.081-0.6,0.243c-0.166,0.162-0.267,0.399-0.303,0.71
				L5.89,1.88C5.978,1.445,6.11,1.097,6.288,0.837c0.177-0.26,0.424-0.465,0.742-0.613C7.347,0.074,7.702,0,8.096,0
				c0.673,0,1.213,0.216,1.62,0.646c0.335,0.353,0.502,0.751,0.502,1.195c0,0.63-0.343,1.133-1.028,1.508
				c0.406,0.089,0.731,0.287,0.976,0.595c0.243,0.308,0.365,0.68,0.365,1.115c0,0.632-0.229,1.171-0.688,1.616
				S8.813,7.344,8.131,7.344c-0.646,0-1.184-0.187-1.609-0.561C6.096,6.41,5.849,5.921,5.78,5.317z"/>
			<path i:knockout="Off" d="M11.42,5.553l1.328-0.146c0.032,0.271,0.117,0.471,0.254,0.602c0.137,0.13,0.318,0.195,0.543,0.195
				c0.284,0,0.525-0.131,0.724-0.394c0.199-0.262,0.326-0.805,0.382-1.629c-0.346,0.4-0.778,0.601-1.297,0.601
				c-0.564,0-1.051-0.218-1.461-0.653c-0.409-0.436-0.614-1.002-0.614-1.701c0-0.728,0.215-1.314,0.647-1.759
				C12.358,0.223,12.908,0,13.575,0c0.726,0,1.322,0.282,1.787,0.846c0.466,0.564,0.699,1.491,0.699,2.782
				c0,1.313-0.243,2.262-0.727,2.843c-0.485,0.582-1.116,0.873-1.894,0.873c-0.56,0-1.012-0.149-1.356-0.449
				C11.739,6.596,11.518,6.148,11.42,5.553z M14.53,2.544c0-0.445-0.103-0.79-0.307-1.036c-0.205-0.245-0.441-0.368-0.71-0.368
				c-0.255,0-0.468,0.101-0.636,0.302c-0.169,0.201-0.253,0.531-0.253,0.989c0,0.465,0.091,0.806,0.275,1.023
				s0.413,0.326,0.688,0.326c0.265,0,0.489-0.104,0.67-0.314S14.53,2.95,14.53,2.544z"/>
			<path i:knockout="Off" d="M21.591,5.922v1.281h-4.813c0.052-0.482,0.208-0.94,0.469-1.372c0.261-0.433,0.776-1.006,1.545-1.721
				c0.619-0.577,0.999-0.969,1.139-1.174c0.189-0.284,0.284-0.564,0.284-0.842c0-0.307-0.083-0.542-0.249-0.707
				c-0.166-0.165-0.395-0.247-0.687-0.247c-0.289,0-0.519,0.087-0.69,0.261c-0.171,0.173-0.27,0.461-0.296,0.864l-1.375-0.138
				c0.082-0.758,0.339-1.303,0.771-1.633S18.662,0,19.31,0c0.71,0,1.268,0.191,1.673,0.572s0.608,0.855,0.608,1.423
				c0,0.323-0.058,0.63-0.173,0.922s-0.299,0.598-0.55,0.917c-0.167,0.212-0.467,0.517-0.903,0.914
				c-0.436,0.398-0.712,0.662-0.828,0.792s-0.209,0.257-0.281,0.381H21.591z"/>
		</g>
		<g i:knockout="Off">
			<path i:knockout="Off" d="M0,69.566V62.41h2.17l1.291,4.882l1.293-4.882h2.167v7.156H5.578L5.57,63.933l-1.429,5.634H2.76
				l-1.408-5.634l-0.008,5.634H0z"/>
			<path i:knockout="Off" d="M11.565,69.566H10.19v-5.185c-0.5,0.471-1.088,0.818-1.766,1.044v-1.25
				c0.357-0.117,0.746-0.339,1.166-0.667c0.419-0.327,0.707-0.709,0.863-1.146h1.112V69.566z"/>
			<path i:knockout="Off" d="M13.626,67.754l1.375-0.141c0.039,0.308,0.155,0.551,0.349,0.73c0.193,0.18,0.416,0.27,0.667,0.27
				c0.288,0,0.532-0.118,0.731-0.353c0.2-0.236,0.299-0.59,0.299-1.064c0-0.444-0.101-0.777-0.303-1
				c-0.202-0.222-0.464-0.333-0.788-0.333c-0.404,0-0.766,0.172-1.086,0.516l-1.104-0.159l0.703-3.716h3.672v1.281h-2.631
				l-0.228,1.206c0.311-0.148,0.629-0.222,0.953-0.222c0.619,0,1.143,0.223,1.573,0.667c0.43,0.445,0.645,1.023,0.645,1.733
				c0,0.592-0.171,1.12-0.514,1.585c-0.467,0.635-1.115,0.952-1.944,0.952c-0.663,0-1.203-0.177-1.621-0.529
				C13.958,68.824,13.708,68.351,13.626,67.754z"/>
			<path i:knockout="Off" d="M22.688,69.566h-1.375v-5.185c-0.5,0.471-1.088,0.818-1.766,1.044v-1.25
				c0.357-0.117,0.746-0.339,1.166-0.667c0.419-0.327,0.707-0.709,0.863-1.146h1.112V69.566z"/>
		</g>
	</g>
	<g id="レイヤー_1" i:layer="yes" i:dimmedPercent="100" i:rgbTrio="#4F008000FFFF">
		<path i:knockout="Off" fill="none" stroke="#000000" stroke-width="0.7" stroke-linecap="round" d="M24.427,33.267
			c3.131,0,5.669-2.539,5.669-5.67s-2.539-5.67-5.669-5.67s-5.669,2.539-5.669,5.67S21.296,33.267,24.427,33.267z"/>
		<path i:knockout="Off" fill="none" stroke="#000000" stroke-width="0.7" stroke-linecap="round" d="M36.435,33.341
			c3.131,0,5.669-2.538,5.669-5.67c0-3.131-2.538-5.669-5.669-5.669s-5.669,2.538-5.669,5.669
			C30.765,30.803,33.304,33.341,36.435,33.341z"/>
		<path i:knockout="Off" fill="none" stroke="#000000" stroke-width="0.7" stroke-linecap="round" d="M48.388,33.141
			c3.132,0,5.669-2.538,5.669-5.669s-2.537-5.67-5.669-5.67c-3.131,0-5.669,2.539-5.669,5.67S45.257,33.141,48.388,33.141z"/>
		<g i:knockout="Off">
			<path i:knockout="Off" d="M25.053,30.055H24.35v-4.48c-0.169,0.162-0.391,0.323-0.666,0.484c-0.275,0.162-0.521,0.283-0.74,0.363
				v-0.68c0.393-0.185,0.737-0.409,1.031-0.672c0.294-0.263,0.502-0.518,0.625-0.766h0.453V30.055z"/>
		</g>
		<g i:knockout="Off">
			<path i:knockout="Off" d="M38.046,29.383v0.672h-3.797c-0.005-0.169,0.022-0.332,0.083-0.488c0.097-0.258,0.252-0.511,0.467-0.76
				c0.214-0.249,0.521-0.536,0.92-0.864c0.62-0.516,1.04-0.923,1.261-1.221s0.332-0.58,0.332-0.849c0-0.278-0.1-0.513-0.299-0.704
				s-0.46-0.287-0.781-0.287c-0.339,0-0.61,0.104-0.814,0.311s-0.307,0.494-0.309,0.861l-0.719-0.094
				c0.049-0.539,0.235-0.95,0.558-1.232c0.323-0.282,0.756-0.424,1.3-0.424c0.549,0,0.983,0.152,1.303,0.457
				c0.32,0.305,0.48,0.683,0.48,1.133c0,0.229-0.047,0.455-0.14,0.676c-0.094,0.221-0.248,0.454-0.465,0.699
				c-0.216,0.245-0.576,0.581-1.081,1.009c-0.423,0.354-0.695,0.596-0.815,0.722c-0.12,0.127-0.219,0.254-0.297,0.382H38.046z"/>
		</g>
		<g i:knockout="Off">
			<path i:knockout="Off" d="M46.507,28.555l0.719-0.094c0.08,0.394,0.215,0.676,0.404,0.85c0.19,0.173,0.426,0.26,0.707,0.26
				c0.333,0,0.611-0.114,0.835-0.345c0.224-0.229,0.335-0.514,0.335-0.853c0-0.323-0.104-0.591-0.313-0.8
				c-0.21-0.21-0.476-0.315-0.798-0.315c-0.132,0-0.296,0.026-0.492,0.078l0.078-0.625c0.046,0.005,0.083,0.008,0.111,0.008
				c0.295,0,0.56-0.077,0.795-0.232c0.235-0.155,0.354-0.394,0.354-0.717c0-0.255-0.086-0.467-0.26-0.635
				c-0.172-0.168-0.396-0.252-0.668-0.252c-0.271,0-0.497,0.086-0.678,0.258c-0.18,0.172-0.296,0.43-0.348,0.773l-0.719-0.125
				c0.086-0.471,0.28-0.836,0.584-1.096c0.305-0.259,0.683-0.389,1.135-0.389c0.312,0,0.599,0.067,0.861,0.2
				c0.262,0.134,0.463,0.315,0.602,0.546c0.14,0.231,0.209,0.476,0.209,0.735c0,0.246-0.066,0.47-0.199,0.672
				s-0.33,0.363-0.59,0.482c0.338,0.078,0.604,0.241,0.797,0.487c0.192,0.246,0.289,0.555,0.289,0.925
				c0,0.501-0.183,0.926-0.547,1.273c-0.365,0.349-0.826,0.522-1.383,0.522c-0.503,0-0.92-0.147-1.252-0.443
				S46.554,29.025,46.507,28.555z"/>
		</g>
		<path i:knockout="Off" fill="none" stroke="#000000" stroke-width="1.2" d="M54.333,31.054c0,2.349-1.903,4.252-4.252,4.252
			H22.877c-2.348,0-4.252-1.903-4.252-4.252v-7.142c0-2.349,1.904-4.252,4.252-4.252h27.204c2.349,0,4.252,1.903,4.252,4.252V31.054
			z"/>
		<path i:knockout="Off" fill="none" stroke="#000000" stroke-width="0.7" d="M44.561,31.714h7.598"/>
		<path i:knockout="Off" fill="none" stroke="#000000" stroke-width="0.7" d="M32.468,31.714h7.975"/>
		<path i:knockout="Off" fill="none" stroke="#000000" stroke-width="0.7" d="M20.455,31.714h7.822"/>
		<path i:knockout="Off" fill="none" stroke="#000000" stroke-width="1.2" d="M24.409,19.56v-2.5h24.083v2.5"/>
		<path i:knockout="Off" fill="none" stroke="#000000" stroke-width="1.2" d="M54.492,24.976h2.583v4.75h-2.417"/>
		<path i:knockout="Off" fill="none" stroke="#000000" stroke-width="1.2" d="M18.408,29.726h-2.583v-4.75h2.417"/>
		<path i:knockout="Off" fill="none" stroke="#000000" stroke-width="0.7" stroke-linecap="round" d="M24.365,95.269
			c3.131,0,5.669-2.539,5.669-5.67s-2.538-5.67-5.669-5.67s-5.669,2.539-5.669,5.67S21.234,95.269,24.365,95.269z"/>
		<path i:knockout="Off" fill="none" stroke="#000000" stroke-width="0.7" stroke-linecap="round" d="M36.373,95.343
			c3.131,0,5.669-2.539,5.669-5.67s-2.538-5.67-5.669-5.67s-5.669,2.539-5.669,5.67S33.242,95.343,36.373,95.343z"/>
		<path i:knockout="Off" fill="none" stroke="#000000" stroke-width="0.7" stroke-linecap="round" d="M48.326,95.142
			c3.132,0,5.669-2.537,5.669-5.668s-2.537-5.67-5.669-5.67c-3.131,0-5.669,2.539-5.669,5.67S45.195,95.142,48.326,95.142z"/>
		<g i:knockout="Off">
			<path i:knockout="Off" d="M22.351,90.556l0.719-0.094c0.08,0.393,0.215,0.676,0.405,0.85c0.19,0.173,0.425,0.26,0.707,0.26
				c0.333,0,0.611-0.115,0.835-0.344c0.223-0.23,0.335-0.515,0.335-0.854c0-0.323-0.104-0.59-0.313-0.801
				c-0.209-0.209-0.476-0.314-0.798-0.314c-0.132,0-0.296,0.026-0.492,0.078l0.078-0.625c0.046,0.006,0.083,0.008,0.112,0.008
				c0.294,0,0.56-0.077,0.795-0.232c0.235-0.154,0.354-0.394,0.354-0.717c0-0.256-0.086-0.467-0.259-0.635s-0.396-0.252-0.669-0.252
				c-0.271,0-0.497,0.086-0.677,0.258c-0.181,0.172-0.296,0.43-0.348,0.773l-0.719-0.125c0.086-0.471,0.28-0.836,0.584-1.096
				c0.304-0.259,0.682-0.389,1.134-0.389c0.312,0,0.599,0.066,0.861,0.2c0.262,0.134,0.463,0.315,0.602,0.546
				s0.208,0.476,0.208,0.735c0,0.246-0.066,0.47-0.199,0.673c-0.133,0.201-0.33,0.362-0.59,0.481
				c0.338,0.078,0.604,0.241,0.797,0.487c0.192,0.246,0.289,0.555,0.289,0.925c0,0.501-0.183,0.926-0.547,1.273
				c-0.365,0.349-0.826,0.522-1.383,0.522c-0.503,0-0.92-0.147-1.252-0.443S22.397,91.026,22.351,90.556z"/>
		</g>
		<g i:knockout="Off">
			<path i:knockout="Off" d="M37.984,91.384v0.672h-3.797c-0.005-0.169,0.022-0.332,0.083-0.488c0.097-0.258,0.252-0.511,0.467-0.76
				c0.214-0.248,0.521-0.537,0.92-0.864c0.62-0.517,1.04-0.923,1.261-1.221s0.332-0.58,0.332-0.849c0-0.277-0.1-0.513-0.299-0.703
				c-0.2-0.191-0.46-0.287-0.781-0.287c-0.339,0-0.61,0.104-0.814,0.311c-0.204,0.208-0.307,0.494-0.309,0.861l-0.719-0.094
				c0.049-0.539,0.235-0.949,0.558-1.232c0.323-0.282,0.756-0.424,1.3-0.424c0.549,0,0.983,0.152,1.304,0.457
				c0.319,0.305,0.479,0.683,0.479,1.133c0,0.229-0.047,0.455-0.14,0.677c-0.094,0.222-0.248,0.454-0.465,0.699
				c-0.216,0.245-0.576,0.581-1.081,1.009c-0.423,0.355-0.695,0.596-0.815,0.723c-0.12,0.126-0.219,0.253-0.297,0.381H37.984z"/>
		</g>
		<g i:knockout="Off">
			<path i:knockout="Off" d="M49.086,92.056h-0.703v-4.48c-0.169,0.162-0.392,0.323-0.666,0.484
				c-0.274,0.162-0.521,0.283-0.74,0.363v-0.68c0.394-0.185,0.737-0.408,1.031-0.672c0.294-0.263,0.503-0.518,0.625-0.766h0.453
				V92.056z"/>
		</g>
		<path i:knockout="Off" fill="none" stroke="#000000" stroke-width="1.2" d="M22.815,80.243c-3.125,0-5.669,2.545-5.669,5.67v7.143
			c0,3.125,2.544,5.668,5.669,5.668H50.02c3.126,0,5.669-2.543,5.669-5.668v-7.143c0-3.125-2.543-5.67-5.669-5.67H22.815z"/>
		<path i:knockout="Off" fill="none" stroke="#000000" stroke-width="0.7" d="M54.271,93.056c0,2.348-1.903,4.252-4.252,4.252
			H22.815c-2.348,0-4.252-1.904-4.252-4.252v-7.143c0-2.348,1.904-4.252,4.252-4.252H50.02c2.349,0,4.252,1.904,4.252,4.252V93.056z
			"/>
		<path i:knockout="Off" fill="none" stroke="#000000" stroke-width="0.7" d="M44.499,93.716h7.598"/>
		<path i:knockout="Off" fill="none" stroke="#000000" stroke-width="0.7" d="M32.406,93.716h7.975"/>
		<path i:knockout="Off" fill="none" stroke="#000000" stroke-width="0.7" d="M20.394,93.716h7.822"/>
		<path i:knockout="Off" fill="none" stroke="#000000" stroke-width="1.2" d="M24.347,79.813v-2.5h24.084v2.5"/>
		<path i:knockout="Off" fill="none" stroke="#000000" stroke-width="1.2" d="M55.938,86.978h2.583v4.75h-2.417"/>
		<path i:knockout="Off" fill="none" stroke="#000000" stroke-width="1.2" d="M16.966,91.728h-2.582v-4.75H16.8"/>
	</g>
</svg>
