<?xml version="1.0" encoding="utf-8"?>
<!-- Generator: Adobe Illustrator 10.0, SVG Export Plug-In . SVG Version: 3.0.0 Build 77)  -->
<!DOCTYPE svg PUBLIC "-//W3C//DTD SVG 1.0//EN"    "http://www.w3.org/TR/2001/REC-SVG-20010904/DTD/svg10.dtd" [
	<!ENTITY ns_flows "http://ns.adobe.com/Flows/1.0/">
	<!ENTITY ns_extend "http://ns.adobe.com/Extensibility/1.0/">
	<!ENTITY ns_ai "http://ns.adobe.com/AdobeIllustrator/10.0/">
	<!ENTITY ns_graphs "http://ns.adobe.com/Graphs/1.0/">
	<!ENTITY ns_vars "http://ns.adobe.com/Variables/1.0/">
	<!ENTITY ns_imrep "http://ns.adobe.com/ImageReplacement/1.0/">
	<!ENTITY ns_sfw "http://ns.adobe.com/SaveForWeb/1.0/">
	<!ENTITY ns_custom "http://ns.adobe.com/GenericCustomNamespace/1.0/">
	<!ENTITY ns_adobe_xpath "http://ns.adobe.com/XPath/1.0/">
	<!ENTITY ns_svg "http://www.w3.org/2000/svg">
	<!ENTITY ns_xlink "http://www.w3.org/1999/xlink">
]>
<svg xmlns:x="&ns_extend;" xmlns:i="&ns_ai;" xmlns:graph="&ns_graphs;" i:viewOrigin="263.4976 429.6128" i:rulerOrigin="-1 0.1104" i:pageBounds="1 841.8896 596 -0.1104" xmlns="&ns_svg;" xmlns:xlink="&ns_xlink;" xmlns:a="http://ns.adobe.com/AdobeSVGViewerExtensions/3.0/" width="72.631" height="24.543" viewBox="0 0 72.631 24.543" overflow="visible" enable-background="new 0 0 72.631 24.543" xml:space="preserve" id="svgObj" onload="parent.svgLoad('Top', document)">
	<metadata>
		<variableSets xmlns="&ns_vars;">
			<variableSet varSetName="binding1" locked="none">
				<variables></variables>
				<v:sampleDataSets xmlns="&ns_custom;" xmlns:v="&ns_vars;"></v:sampleDataSets>
			</variableSet>
		</variableSets>
		<sfw xmlns="&ns_sfw;">
			<slices></slices>
			<sliceSourceBounds y="388.027" x="259.5" width="80.37" height="63.362" bottomLeftOrigin="true"></sliceSourceBounds>
		</sfw>
	</metadata>
	<g id="レイヤー_1" i:layer="yes" i:dimmedPercent="50" i:rgbTrio="#4F008000FFFF">
		<path i:knockout="Off" fill="none" stroke="#000000" stroke-width="1.2" d="M47.729,5.538V0.6H24.981v4.938"/>
		<g>
			<g>
				<path i:knockout="Off" fill="none" stroke="#000000" stroke-width="0.7" d="M13.715,6.111v14.25"/>
				<path i:knockout="Off" fill="none" stroke="#000000" stroke-width="0.7" d="M25.046,5.111v15.25"/>
				<path i:knockout="Off" fill="none" stroke="#000000" stroke-width="0.7" d="M36.378,5.111v16.25"/>
				<path i:knockout="Off" fill="none" stroke="#000000" stroke-width="0.7" d="M47.709,5.111v15.25"/>
				<path i:knockout="Off" fill="none" stroke="#000000" stroke-width="0.7" d="M59.042,6.111v14.25"/>
			</g>
			<g i:knockout="Off">
				<path i:knockout="Off" d="M8.993,15.53H8.29v-4.48c-0.169,0.162-0.391,0.323-0.666,0.484c-0.275,0.162-0.521,0.283-0.74,0.363
					v-0.68c0.393-0.185,0.737-0.408,1.031-0.672c0.294-0.263,0.502-0.518,0.625-0.766h0.453V15.53z"/>
			</g>
			<g i:knockout="Off">
				<path i:knockout="Off" d="M21.212,14.858v0.672h-3.797c-0.005-0.169,0.022-0.332,0.083-0.488
					c0.097-0.258,0.252-0.511,0.467-0.76c0.214-0.248,0.521-0.537,0.92-0.864c0.62-0.517,1.04-0.923,1.261-1.221
					s0.332-0.58,0.332-0.849c0-0.277-0.1-0.513-0.299-0.703c-0.2-0.191-0.46-0.287-0.781-0.287c-0.339,0-0.61,0.104-0.814,0.311
					c-0.204,0.208-0.307,0.494-0.309,0.861l-0.719-0.094c0.049-0.539,0.235-0.949,0.558-1.232c0.323-0.282,0.756-0.424,1.3-0.424
					c0.549,0,0.983,0.152,1.303,0.457s0.48,0.683,0.48,1.133c0,0.229-0.047,0.455-0.14,0.677c-0.094,0.222-0.248,0.454-0.465,0.699
					c-0.216,0.245-0.576,0.581-1.081,1.009c-0.423,0.355-0.695,0.596-0.815,0.723c-0.12,0.126-0.219,0.253-0.297,0.381H21.212z"/>
			</g>
			<g i:knockout="Off">
				<path i:knockout="Off" d="M29.138,14.03l0.719-0.094c0.08,0.393,0.215,0.676,0.405,0.85c0.189,0.173,0.425,0.26,0.707,0.26
					c0.333,0,0.611-0.115,0.834-0.344c0.223-0.23,0.335-0.515,0.335-0.854c0-0.323-0.105-0.59-0.314-0.801
					c-0.209-0.209-0.475-0.314-0.798-0.314c-0.132,0-0.295,0.026-0.492,0.078l0.078-0.625c0.046,0.006,0.083,0.008,0.112,0.008
					c0.294,0,0.559-0.077,0.795-0.232c0.236-0.154,0.354-0.394,0.354-0.717c0-0.256-0.086-0.467-0.259-0.635
					s-0.396-0.252-0.669-0.252c-0.271,0-0.496,0.086-0.677,0.258s-0.297,0.43-0.348,0.773L29.2,11.264
					c0.085-0.471,0.281-0.836,0.584-1.096c0.304-0.259,0.682-0.389,1.134-0.389c0.312,0,0.599,0.066,0.861,0.2
					c0.263,0.134,0.463,0.315,0.603,0.546c0.139,0.23,0.208,0.476,0.208,0.735c0,0.246-0.066,0.47-0.199,0.673
					c-0.133,0.201-0.33,0.362-0.59,0.481c0.338,0.078,0.604,0.241,0.797,0.487s0.289,0.555,0.289,0.925
					c0,0.501-0.182,0.926-0.547,1.273c-0.365,0.349-0.826,0.522-1.383,0.522c-0.502,0-0.92-0.147-1.252-0.443
					S29.185,14.5,29.138,14.03z"/>
			</g>
			<g i:knockout="Off">
				<path i:knockout="Off" d="M42.127,15.53v-1.375h-2.484v-0.641l2.625-3.719h0.563v3.719h0.781v0.641h-0.781v1.375H42.127z
					 M42.127,13.514v-2.566l-1.793,2.566H42.127z"/>
			</g>
			<g i:knockout="Off">
				<path i:knockout="Off" d="M51.577,14.03l0.719-0.063c0.055,0.358,0.182,0.627,0.379,0.808c0.198,0.181,0.441,0.271,0.73,0.271
					c0.348,0,0.639-0.127,0.871-0.382c0.231-0.254,0.348-0.592,0.348-1.013c0-0.399-0.111-0.715-0.332-0.946
					c-0.222-0.231-0.519-0.347-0.891-0.347c-0.232,0-0.438,0.051-0.617,0.152s-0.322,0.232-0.426,0.395l-0.656-0.094l0.563-2.938
					h2.844v0.672h-2.285l-0.313,1.549c0.344-0.24,0.704-0.361,1.082-0.361c0.5,0,0.922,0.173,1.266,0.52
					c0.344,0.346,0.516,0.791,0.516,1.334c0,0.518-0.151,0.965-0.453,1.343c-0.367,0.463-0.869,0.694-1.504,0.694
					c-0.521,0-0.946-0.146-1.275-0.437C51.811,14.896,51.624,14.51,51.577,14.03z"/>
			</g>
			<g i:knockout="Off">
				<path i:knockout="Off" d="M66.168,11.202l-0.703,0.063c-0.063-0.277-0.152-0.479-0.268-0.604
					c-0.191-0.201-0.428-0.302-0.708-0.302c-0.226,0-0.426,0.063-0.602,0.188c-0.218,0.16-0.391,0.396-0.52,0.705
					c-0.128,0.309-0.195,0.75-0.2,1.322c0.17-0.258,0.378-0.449,0.623-0.574c0.246-0.125,0.504-0.188,0.773-0.188
					c0.47,0,0.871,0.173,1.201,0.518c0.33,0.346,0.496,0.791,0.496,1.338c0,0.359-0.078,0.693-0.233,1.002s-0.369,0.545-0.642,0.709
					c-0.271,0.164-0.58,0.246-0.926,0.246c-0.588,0-1.068-0.215-1.439-0.646c-0.371-0.43-0.557-1.14-0.557-2.129
					c0-1.105,0.205-1.91,0.617-2.412c0.359-0.438,0.843-0.656,1.451-0.656c0.453,0,0.824,0.126,1.113,0.378
					C65.937,10.41,66.111,10.757,66.168,11.202z M63.278,13.672c0,0.242,0.052,0.474,0.155,0.694c0.104,0.222,0.247,0.39,0.43,0.505
					c0.183,0.116,0.38,0.174,0.589,0.174c0.304,0,0.562-0.119,0.773-0.359c0.212-0.238,0.318-0.563,0.318-0.975
					c0-0.395-0.104-0.707-0.314-0.934c-0.209-0.229-0.478-0.342-0.805-0.342c-0.319,0-0.59,0.113-0.813,0.342
					C63.389,13.004,63.278,13.303,63.278,13.672z"/>
			</g>
		</g>
		<path i:knockout="Off" fill="none" stroke="#000000" d="M36.378,21.249l26.333-1c4.092,0,7.563-2.836,7.563-7.013
			c0-4.177-3.305-7.288-7.563-7.288l-26.35-1l-26.452,1c-4.175,0-7.563,3.111-7.563,7.288c0,4.177,3.221,7.013,7.563,7.013
			L36.378,21.249z"/>
		<path i:knockout="Off" fill="none" stroke="#000000" stroke-width="1.2" d="M66.032,19.641h6v-2.727h-2.666"/>
		<path i:knockout="Off" fill="none" stroke="#000000" stroke-width="1.2" d="M35.015,21.278v2.666h2.727v-2.666"/>
		<path i:knockout="Off" fill="none" stroke="#000000" stroke-width="1.2" d="M6.6,19.641h-6v-2.727h2.666"/>
		<path i:knockout="Off" fill="none" stroke="#000000" stroke-width="0.7" d="M4.279,18.189h63.927"/>
	</g>
</svg>
