<?xml version="1.0" encoding="utf-8"?>
<!-- Generator: Adobe Illustrator 10.0, SVG Export Plug-In . SVG Version: 3.0.0 Build 77)  -->
<!DOCTYPE svg PUBLIC "-//W3C//DTD SVG 1.0//EN"    "http://www.w3.org/TR/2001/REC-SVG-20010904/DTD/svg10.dtd" [
	<!ENTITY ns_flows "http://ns.adobe.com/Flows/1.0/">
	<!ENTITY ns_extend "http://ns.adobe.com/Extensibility/1.0/">
	<!ENTITY ns_ai "http://ns.adobe.com/AdobeIllustrator/10.0/">
	<!ENTITY ns_graphs "http://ns.adobe.com/Graphs/1.0/">
	<!ENTITY ns_vars "http://ns.adobe.com/Variables/1.0/">
	<!ENTITY ns_imrep "http://ns.adobe.com/ImageReplacement/1.0/">
	<!ENTITY ns_sfw "http://ns.adobe.com/SaveForWeb/1.0/">
	<!ENTITY ns_custom "http://ns.adobe.com/GenericCustomNamespace/1.0/">
	<!ENTITY ns_adobe_xpath "http://ns.adobe.com/XPath/1.0/">
	<!ENTITY ns_svg "http://www.w3.org/2000/svg">
	<!ENTITY ns_xlink "http://www.w3.org/1999/xlink">
]>
<svg xmlns:x="&ns_extend;" xmlns:i="&ns_ai;" xmlns:graph="&ns_graphs;" i:viewOrigin="278.8696 439.4458" i:rulerOrigin="-1 0.1104" i:pageBounds="1 841.8896 596 -0.1104" xmlns="&ns_svg;" xmlns:xlink="&ns_xlink;" xmlns:a="http://ns.adobe.com/AdobeSVGViewerExtensions/3.0/" width="39.15" height="36.173" viewBox="0 0 39.15 36.173" overflow="visible" enable-background="new 0 0 39.15 36.173" xml:space="preserve" id="svgObj" onload="parent.svgLoad('Top', document)">
	<metadata>
		<variableSets xmlns="&ns_vars;">
			<variableSet varSetName="binding1" locked="none">
				<variables></variables>
				<v:sampleDataSets xmlns="&ns_custom;" xmlns:v="&ns_vars;"></v:sampleDataSets>
			</variableSet>
		</variableSets>
		<sfw xmlns="&ns_sfw;">
			<slices></slices>
			<sliceSourceBounds y="388.708" x="257.815" width="80.371" height="63.363" bottomLeftOrigin="true"></sliceSourceBounds>
		</sfw>
	</metadata>
	<g id="illust" i:layer="yes" i:dimmedPercent="3" i:rgbTrio="#4F008000FFFF">
		<g>
			<g>
				<path i:knockout="Off" fill="none" stroke="#000000" stroke-width="1.2" stroke-linecap="round" d="M35.149,30.13h3.401v-3.402
					h-3.401"/>
				<path i:knockout="Off" fill="none" stroke="#000000" stroke-width="1.2" stroke-linecap="round" d="M4.001,26.728H0.6v3.402
					h3.401"/>
			</g>
			<path i:knockout="Off" fill="none" stroke="#000000" stroke-width="1.2" stroke-linecap="round" d="M24.051,3.813V0.6h-8.504
				v3.213H24.051z"/>
			<g>
				<g i:knockout="Off">
					<path i:knockout="Off" d="M28.58,12.96v0.672h-3.797c-0.006-0.169,0.022-0.332,0.083-0.488c0.097-0.258,0.253-0.511,0.467-0.76
						c0.214-0.249,0.521-0.537,0.92-0.864c0.62-0.516,1.04-0.923,1.261-1.221c0.222-0.298,0.332-0.58,0.332-0.849
						c0-0.278-0.1-0.513-0.299-0.704c-0.2-0.191-0.461-0.287-0.781-0.287c-0.34,0-0.61,0.104-0.814,0.311
						c-0.203,0.208-0.307,0.494-0.309,0.861l-0.719-0.094c0.049-0.539,0.235-0.95,0.558-1.232c0.323-0.282,0.756-0.424,1.3-0.424
						c0.549,0,0.983,0.152,1.303,0.457c0.32,0.305,0.48,0.683,0.48,1.133c0,0.229-0.047,0.455-0.14,0.676
						c-0.094,0.221-0.248,0.454-0.465,0.699c-0.216,0.245-0.576,0.581-1.081,1.009c-0.423,0.355-0.694,0.596-0.814,0.722
						c-0.119,0.126-0.219,0.253-0.297,0.381H28.58z"/>
				</g>
				<g i:knockout="Off">
					<path i:knockout="Off" d="M12.798,13.632h-0.703v-4.48c-0.169,0.162-0.392,0.323-0.666,0.484
						c-0.275,0.162-0.521,0.283-0.74,0.363V9.32c0.393-0.185,0.737-0.409,1.031-0.672c0.294-0.263,0.502-0.518,0.625-0.766h0.453
						V13.632z"/>
				</g>
			</g>
			<g>
				<g i:knockout="Off">
					<path i:knockout="Off" d="M10.158,27.644l0.719-0.094c0.08,0.393,0.215,0.676,0.405,0.85c0.19,0.173,0.425,0.26,0.707,0.26
						c0.333,0,0.611-0.115,0.835-0.344c0.223-0.23,0.335-0.515,0.335-0.854c0-0.323-0.104-0.59-0.313-0.801
						c-0.209-0.209-0.476-0.314-0.798-0.314c-0.132,0-0.296,0.026-0.492,0.078l0.078-0.625c0.046,0.006,0.083,0.008,0.112,0.008
						c0.294,0,0.56-0.077,0.795-0.232c0.235-0.154,0.354-0.394,0.354-0.717c0-0.256-0.086-0.467-0.259-0.635
						s-0.396-0.252-0.669-0.252c-0.271,0-0.497,0.086-0.677,0.258c-0.181,0.172-0.296,0.43-0.348,0.773l-0.719-0.125
						c0.086-0.471,0.28-0.836,0.584-1.096c0.304-0.259,0.682-0.389,1.134-0.389c0.312,0,0.599,0.066,0.861,0.2
						c0.262,0.134,0.463,0.315,0.602,0.546s0.208,0.476,0.208,0.735c0,0.246-0.066,0.47-0.199,0.673
						c-0.133,0.201-0.33,0.362-0.59,0.481c0.338,0.078,0.604,0.241,0.797,0.487c0.192,0.246,0.289,0.555,0.289,0.925
						c0,0.501-0.183,0.926-0.547,1.273c-0.365,0.349-0.826,0.522-1.383,0.522c-0.503,0-0.92-0.147-1.252-0.443
						S10.205,28.115,10.158,27.644z"/>
				</g>
				<g i:knockout="Off">
					<path i:knockout="Off" d="M27.134,29.144v-1.375H24.65v-0.641l2.625-3.719h0.563v3.719h0.781v0.641h-0.781v1.375H27.134z
						 M27.134,27.128v-2.566l-1.793,2.566H27.134z"/>
				</g>
			</g>
			<path i:knockout="Off" fill="none" stroke="#000000" stroke-width="1.2" stroke-linecap="round" d="M29.427,35.574
				c3.119,0,5.67-2.607,5.67-5.793V9.6c0-3.188-2.551-5.795-5.67-5.795H9.683c-3.119,0-5.67,2.607-5.67,5.795v20.181
				c0,3.186,2.551,5.793,5.67,5.793H29.427z"/>
			<path i:knockout="Off" fill="none" stroke="#000000" stroke-width="0.7" d="M4.097,19.731H34.81"/>
			<path i:knockout="Off" fill="none" stroke="#000000" stroke-width="0.7" d="M4.097,17.596H34.81"/>
			<path i:knockout="Off" fill="none" stroke="#000000" stroke-width="0.7" d="M5.222,33.067h28.463"/>
			<path i:knockout="Off" fill="none" stroke="#000000" stroke-width="0.7" d="M4.097,19.731H34.81"/>
			<path i:knockout="Off" stroke="#000000" stroke-width="0.7" d="M19.644,4.489v30.664"/>
		</g>
	</g>
</svg>
